<?xml version="1.0" encoding="utf-8"?>
<!-- Generator: Adobe Illustrator 22.0.0, SVG Export Plug-In . SVG Version: 6.00 Build 0)  -->
<svg version="1.1" id="Laag_1" xmlns="http://www.w3.org/2000/svg" xmlns:xlink="http://www.w3.org/1999/xlink" x="0px" y="0px"
	 viewBox="0 0 263.8 221.6" style="enable-background:new 0 0 263.8 221.6;" xml:space="preserve">
<style type="text/css">
	.st0{opacity:7.000000e-02;fill:#1B69A0;}
	.st1{fill:#FCCD42;}
	.st2{fill:none;stroke:#FCCD42;stroke-width:1.4788;stroke-miterlimit:10;}
</style>
<rect x="40.5" y="2.3" class="st0" width="208.5" height="17.5"/>
<rect x="41" y="19.9" class="st0" width="17.3" height="167.3"/>
<rect x="124.3" y="141.3" class="st0" width="17.3" height="65.6"/>
<rect x="230.3" y="19.9" class="st0" width="18.7" height="121.5"/>
<rect x="123.4" y="125.6" class="st0" width="108.4" height="16.3"/>
<rect x="41" y="187.7" class="st0" width="83.3" height="19.2"/>
<g>
	<g>
		<path class="st1" d="M223.5,72.3c0-28.8-23.3-52.1-52.1-52.1c-1.4,0-2.8,0.1-4.2,0.2c-4,0.1-9,1.1-14.3,3c-14.4,4.9-49,22-80.4,78
			c-1-2.9-2.7-9.1-2.6-15.9c-8.8,15.3-8.7,54.9-8.7,54.9l8.4-17.8c18.7-39.3,39.4-62.3,56.3-75.7c-3.8,6.9-6.2,14.7-6.6,23
			C99,89.6,81.4,118.6,66.8,156.2l-3.6-9.6c-2.3,8-6,35-5.3,42.6c9.5-6,25.7-31.4,27.2-33.7c-5.5,1.7-9.4,3.1-12,4.2
			c15-38.9,31.8-64,46.7-80c0.8,5.6,2.5,10.9,4.9,15.7c-8.3,9.6-17.2,22.3-26.3,39.2l-8.9,18.7c0,0,29.3-20.7,37.1-30.7
			c-7.2,2.9-13.6,4.7-16.2,5.4c6.3-10.6,12.4-19.2,18.2-26c9.4,13.6,25.1,22.5,42.9,22.5c13,0,24.9-4.8,34.1-12.7
			c0.6-0.4,1-0.9,1-0.9C216.9,101.4,223.5,87.6,223.5,72.3z M202.6,104.7c-8.9-0.2-33.8-2.6-52.7-22.7c8.6-5.8,15-7.6,18.3-8.1
			C180.9,88.9,201,91,211.3,91c0.4,0,0.7,0,1,0C210,96.2,206.7,100.8,202.6,104.7z M189.5,80.1c-5.3-2-10.6-5.1-14.9-9.8
			c5-9.9,6.2-19,3.3-42.6c6.8,1,13.1,3.5,18.5,7.2C197,42.4,197.9,66.8,189.5,80.1z M216.4,72.3c0,4-0.5,7.8-1.5,11.5
			c-3.4,0.2-10.5,0.2-18.4-1.6c6.7-12.3,7.6-30.2,7.3-41C211.6,49.3,216.4,60.3,216.4,72.3z M167.6,27.5c1.8,0,2.8,0.1,3.1,0.3l0,0
			l0,0c0.7,5.3,1.1,9.9,1.4,13.8c-6,0.5-19.4,3.1-35.8,14.3c-3,2.1-6,4.3-8.9,6.7C131.7,43.6,147.9,29.1,167.6,27.5z M126.4,73
			c4.8-4.5,9.3-8.1,13.4-10.9c15.1-10.4,27.3-12.9,32.6-13.4c-0.1,8.3-1.4,13.2-3.8,17.9c-5.4,0.6-20.1,3.9-38.7,23.1
			C127.7,84.5,126.5,78.9,126.4,73z M133.4,96.4c3.8-4.1,7.4-7.4,10.8-10.1c16.5,18,36.9,23.4,49.8,25c-6.6,3.9-14.4,6.1-22.6,6.1
			C155.4,117.4,141.3,109,133.4,96.4z"/>
	</g>
</g>
<line class="st2" x1="230.3" y1="19.9" x2="230.3" y2="125.1"/>
<line class="st2" x1="167.2" y1="2.1" x2="167.2" y2="19.1"/>
<g>
	<path d="M243.2,62.7l4.6,6l0.2,0.4l0.2-0.4l4.6-6h2.2l-5.9,7.7l5.9,7.7h-2.2l-4.6-6l-0.2-0.4l-0.2,0.4l-4.6,6h-2.2l5.9-7.7
		l-5.9-7.7H243.2z"/>
</g>
<g>
	<path d="M175.6,7.9l2.3,3l0.1,0.2l0.1-0.2l2.3-3h1.1l-2.9,3.9l2.9,3.8h-1.1l-2.3-3l-0.1-0.2l-0.1,0.2l-2.3,3h-1.1l2.9-3.8l-2.9-3.9
		H175.6z"/>
	<path d="M190.3,5.1l-7,10.5h-1.1l7-10.5H190.3z"/>
	<path d="M196.9,7.9h-5.7V7h7.3l-5.3,10.5H192L196.9,7.9z"/>
</g>
<line class="st2" x1="165.7" y1="125.4" x2="165.7" y2="142.3"/>
<g>
	<path d="M174.1,131.1l2.3,3l0.1,0.2l0.1-0.2l2.3-3h1.1l-2.9,3.9l2.9,3.8H179l-2.3-3l-0.1-0.2l-0.1,0.2l-2.3,3H173l2.9-3.8l-2.9-3.9
		H174.1z"/>
	<path d="M188.8,128.3l-7,10.5h-1.1l7-10.5H188.8z"/>
	<path d="M195.4,131.1h-5.7v-0.9h7.3l-5.3,10.5h-1.2L195.4,131.1z"/>
</g>
<line class="st2" x1="58.8" y1="188.9" x2="58.8" y2="205.9"/>
<g>
	<path d="M67.2,194.7l2.3,3l0.1,0.2l0.1-0.2l2.3-3h1.1l-2.9,3.9l2.9,3.8H72l-2.3-3l-0.1-0.2l-0.1,0.2l-2.3,3h-1.1l2.9-3.8l-2.9-3.9
		H67.2z"/>
	<path d="M81.8,191.9l-7,10.5h-1.1l7-10.5H81.8z"/>
	<path d="M88.4,194.7h-5.7v-0.9H90l-5.3,10.5h-1.2L88.4,194.7z"/>
</g>
<line class="st2" x1="42.4" y1="88" x2="59.4" y2="88"/>
<g>
	<path d="M36.6,97.1l2.3,3l0.1,0.2l0.1-0.2l2.3-3h1.1l-2.9,3.9l2.9,3.8h-1.1l-2.3-3l-0.1-0.2l-0.1,0.2l-2.3,3h-1.1l2.9-3.8l-2.9-3.9
		H36.6z"/>
	<path d="M51.3,94.3l-7,10.5h-1.1l7-10.5H51.3z"/>
	<path d="M57.8,97.1h-5.7v-0.9h7.3l-5.3,10.5H53L57.8,97.1z"/>
</g>
<line class="st2" x1="123.7" y1="143.2" x2="140.7" y2="143.2"/>
<g>
	<path d="M123.8,152.3l2.3,3l0.1,0.2l0.1-0.2l2.3-3h1.1l-2.9,3.9l2.9,3.8h-1.1l-2.3-3l-0.1-0.2l-0.1,0.2l-2.3,3h-1.1l2.9-3.8
		l-2.9-3.9H123.8z"/>
	<path d="M138.5,149.5l-7,10.5h-1.1l7-10.5H138.5z"/>
	<path d="M145.1,152.3h-5.7v-0.9h7.3l-5.3,10.5h-1.2L145.1,152.3z"/>
</g>
<line class="st2" x1="233.2" y1="91.9" x2="250.1" y2="91.9"/>
<g>
	<path d="M233.3,101l2.3,3l0.1,0.2l0.1-0.2l2.3-3h1.1l-2.9,3.9l2.9,3.8h-1.1l-2.3-3l-0.1-0.2l-0.1,0.2l-2.3,3h-1.1l2.9-3.8l-2.9-3.9
		H233.3z"/>
	<path d="M247.9,98.3l-7,10.5h-1.1l7-10.5H247.9z"/>
	<path d="M254.5,101.1h-5.7v-0.9h7.3l-5.3,10.5h-1.2L254.5,101.1z"/>
</g>
</svg>
