<?xml version="1.0" encoding="utf-8"?>
<!-- Generator: Adobe Illustrator 22.0.0, SVG Export Plug-In . SVG Version: 6.00 Build 0)  -->
<svg version="1.1" id="Laag_1" xmlns="http://www.w3.org/2000/svg" xmlns:xlink="http://www.w3.org/1999/xlink" x="0px" y="0px"
	 viewBox="0 0 263.8 221.6" style="enable-background:new 0 0 263.8 221.6;" xml:space="preserve">
<style type="text/css">
	.st0{opacity:7.000000e-02;fill:#1B699F;enable-background:new    ;}
	.st1{fill:#EFC84A;}
	.st2{fill:none;}
	.st3{fill:none;stroke:#1B699F;stroke-width:0.7721;stroke-miterlimit:10;}
	.st4{fill:#1B699F;}
</style>
<polygon class="st0" points="226.3,58.1 215.1,58 215.2,140.7 141.2,140.7 138.1,143.1 112.4,163.6 112.3,163.6 112.3,163.7 
	112.2,163.8 112.2,163.8 93.4,190.2 87.8,190.2 87.8,108.2 107.8,104.2 107.8,104.1 130.8,79.6 158.3,59.1 226.3,59 226.3,48.3 
	154.8,48.3 124,69.9 101.4,94.6 77.6,99.6 77.6,99.7 77.3,99.7 77.3,190.9 77.3,190.9 77.3,201 99.2,201 120.8,170.9 145.2,151.8 
	221.8,151.8 226.6,151.5 "/>
<g>
	<g>
		<path class="st1" d="M215.2,99.7c0-22.2-18-40.2-40.2-40.2c-1.1,0-2.2,0.1-3.2,0.2c-3.1,0.1-6.9,0.8-11,2.3
			c-11.1,3.8-37.8,17-62.1,60.2c-0.8-2.2-2.1-7-2-12.3c-6.8,11.8-6.7,42.4-6.7,42.4l6.5-13.7c14.4-30.3,30.4-48.1,43.5-58.4
			c-2.9,5.3-4.8,11.3-5.1,17.8c-15.7,15.2-29.3,37.6-40.5,66.6l-2.8-7.4c-1.8,6.2-4.6,27-4.1,32.9c7.3-4.6,19.8-24.2,21-26
			c-4.2,1.3-7.3,2.4-9.3,3.2c11.6-30,24.6-49.4,36.1-61.8c0.6,4.3,1.9,8.4,3.8,12.1c-6.4,7.4-13.3,17.2-20.3,30.3l-6.9,14.4
			c0,0,22.6-16,28.6-23.7c-5.6,2.2-10.5,3.6-12.5,4.2c4.9-8.2,9.6-14.8,14.1-20.1c7.3,10.5,19.4,17.4,33.1,17.4
			c10,0,19.2-3.7,26.3-9.8c0.5-0.3,0.8-0.7,0.8-0.7C210.1,122.2,215.2,111.6,215.2,99.7z M199,124.8c-6.9-0.2-26.1-2-40.7-17.5
			c6.6-4.5,11.6-5.9,14.1-6.3c9.8,11.6,25.3,13.2,33.3,13.2c0.3,0,0.5,0,0.8,0C204.7,118.2,202.2,121.7,199,124.8z M188.9,105.8
			c-4.1-1.5-8.2-3.9-11.5-7.6c3.9-7.6,4.8-14.7,2.5-32.9c5.3,0.8,10.1,2.7,14.3,5.6C194.7,76.7,195.4,95.5,188.9,105.8z M209.7,99.7
			c0,3.1-0.4,6-1.2,8.9c-2.6,0.2-8.1,0.2-14.2-1.2c5.2-9.5,5.9-23.3,5.6-31.7C206,82,209.7,90.5,209.7,99.7z M172,65.2
			c1.4,0,2.2,0.1,2.4,0.2l0,0l0,0c0.5,4.1,0.8,7.6,1.1,10.7c-4.6,0.4-15,2.4-27.6,11c-2.3,1.6-4.6,3.3-6.9,5.2
			C144.3,77.6,156.8,66.4,172,65.2z M140.2,100.3c3.7-3.5,7.2-6.3,10.3-8.4c11.7-8,21.1-10,25.2-10.3c-0.1,6.4-1.1,10.2-2.9,13.8
			c-4.2,0.5-15.5,3-29.9,17.8C141.2,109.2,140.3,104.8,140.2,100.3z M145.6,118.3c2.9-3.2,5.7-5.7,8.3-7.8
			c12.7,13.9,28.5,18.1,38.5,19.3c-5.1,3-11.1,4.7-17.4,4.7C162.6,134.6,151.7,128.1,145.6,118.3z"/>
	</g>
</g>
<line class="st2" x1="205.6" y1="116.3" x2="210.8" y2="118.4"/>
<line class="st3" x1="215.3" y1="112.7" x2="220.9" y2="112.7"/>
<line class="st3" x1="205.6" y1="116.1" x2="210.5" y2="118.8"/>
<line class="st3" x1="220.9" y1="112.7" x2="226.5" y2="112.7"/>
<g>
	<g>
		<path class="st4" d="M208.1,111.6l1.2,1.6l0.1,0.1l0.1-0.1l1.2-1.6h0.6l-1.5,2.1l1.5,2.1h-0.6l-1.2-1.6l-0.1-0.1l-0.1,0.1
			l-1.2,1.6h-0.6l1.5-2.1l-1.5-2.1H208.1z"/>
	</g>
</g>
<line class="st3" x1="174.8" y1="140.7" x2="174.8" y2="146.4"/>
<line class="st3" x1="174.8" y1="146.4" x2="174.8" y2="152"/>
<line class="st3" x1="129.8" y1="149.6" x2="133.3" y2="154"/>
<line class="st3" x1="133.3" y1="154" x2="136.8" y2="158.4"/>
<line class="st3" x1="87.5" y1="190" x2="87.5" y2="195.6"/>
<line class="st3" x1="87.5" y1="195.6" x2="87.6" y2="201.2"/>
<line class="st3" x1="87.9" y1="176.9" x2="82.4" y2="176.9"/>
<line class="st3" x1="82.4" y1="176.9" x2="76.7" y2="177"/>
<line class="st3" x1="121.6" y1="88.9" x2="117.5" y2="85.1"/>
<line class="st3" x1="117.5" y1="85.1" x2="113.4" y2="81.2"/>
<line class="st3" x1="184.1" y1="59.3" x2="184" y2="53.6"/>
<line class="st3" x1="184" y1="53.6" x2="184" y2="48"/>
<g>
	<g>
		<g>
			<path class="st4" d="M190.2,53l1.2,1.6l0.1,0.1l0.1-0.1l1.2-1.6h0.6l-1.5,2.1l1.5,2.1h-0.6l-1.2-1.6l-0.1-0.1l-0.1,0.1l-1.2,1.6
				h-0.6l1.5-2.1l-1.5-2.1H190.2z"/>
		</g>
	</g>
	<g>
		<path class="st4" d="M185.5,57.2c0-0.2,0-0.4,0.1-0.6c0-0.2,0.1-0.4,0.2-0.5c0.1-0.2,0.2-0.3,0.4-0.5c0.2-0.2,0.4-0.3,0.6-0.5
			c0.2-0.1,0.3-0.2,0.5-0.2c0.2-0.1,0.3-0.2,0.5-0.2c0.2-0.1,0.2-0.2,0.3-0.3c0.1-0.1,0.2-0.2,0.2-0.4c0-0.1,0-0.2-0.1-0.2
			c-0.1-0.1-0.1-0.2-0.2-0.2c-0.1-0.1-0.2-0.2-0.3-0.2c-0.1-0.1-0.2-0.1-0.4-0.1c-0.2,0-0.3,0-0.4,0.1c-0.2,0.1-0.2,0.1-0.3,0.2
			s-0.2,0.2-0.2,0.2s-0.2,0.2-0.2,0.2l-0.5-0.5c0.1-0.1,0.1-0.1,0.2-0.2c0.1-0.1,0.2-0.2,0.4-0.2s0.3-0.2,0.5-0.2s0.4-0.1,0.7-0.1
			c0.2,0,0.5,0,0.6,0.1s0.4,0.2,0.5,0.2s0.2,0.2,0.3,0.4c0.1,0.2,0.1,0.3,0.1,0.5c0,0.2-0.1,0.4-0.2,0.5c-0.1,0.2-0.2,0.3-0.3,0.4
			c-0.2,0.1-0.2,0.2-0.4,0.3c-0.2,0.1-0.3,0.2-0.4,0.2s-0.2,0.2-0.4,0.2s-0.3,0.2-0.4,0.3c-0.2,0.1-0.2,0.2-0.3,0.3
			c-0.1,0.2-0.2,0.2-0.2,0.4h2.6v0.6L185.5,57.2L185.5,57.2z"/>
	</g>
</g>
<g>
	<g>
		<g>
			<path class="st4" d="M221.3,115.3l1.2,1.6l0.1,0.1l0.1-0.1l1.2-1.6h0.6l-1.5,2.1l1.5,2.1H224l-1.2-1.6l-0.1-0.1l-0.1,0.1
				l-1.2,1.6h-0.6l1.5-2.1l-1.5-2.1H221.3z"/>
		</g>
	</g>
	<g>
		<path class="st4" d="M216.6,119.5c0-0.2,0-0.4,0.1-0.6c0-0.2,0.1-0.4,0.2-0.5c0.1-0.2,0.2-0.3,0.4-0.5c0.2-0.2,0.4-0.3,0.6-0.5
			c0.2-0.1,0.3-0.2,0.5-0.2c0.2-0.1,0.3-0.2,0.5-0.2c0.2-0.1,0.2-0.2,0.3-0.3c0.1-0.1,0.2-0.2,0.2-0.4c0-0.1,0-0.2-0.1-0.2
			s-0.1-0.2-0.2-0.2s-0.2-0.2-0.3-0.2c-0.1-0.1-0.2-0.1-0.4-0.1c-0.2,0-0.3,0-0.4,0.1c-0.2,0.1-0.2,0.1-0.3,0.2
			c-0.1,0.1-0.2,0.2-0.2,0.2c-0.1,0.1-0.2,0.2-0.2,0.2l-0.5-0.5c0.1-0.1,0.1-0.1,0.2-0.2c0.1-0.1,0.2-0.2,0.4-0.2
			c0.2-0.1,0.3-0.2,0.5-0.2s0.4-0.1,0.7-0.1c0.2,0,0.5,0,0.6,0.1c0.2,0.1,0.4,0.2,0.5,0.2c0.1,0.1,0.2,0.2,0.3,0.4
			c0.1,0.2,0.1,0.3,0.1,0.5c0,0.2-0.1,0.4-0.2,0.5c-0.1,0.2-0.2,0.3-0.3,0.4c-0.2,0.1-0.2,0.2-0.4,0.3c-0.2,0.1-0.3,0.2-0.4,0.2
			c-0.1,0.1-0.2,0.2-0.4,0.2c-0.2,0.1-0.3,0.2-0.4,0.3c-0.2,0.1-0.2,0.2-0.3,0.3c-0.1,0.2-0.2,0.2-0.2,0.4h2.6v0.6L216.6,119.5
			L216.6,119.5z"/>
	</g>
</g>
<g>
	<g>
		<g>
			<path class="st4" d="M181.3,145.1l1.2,1.6l0.1,0.1l0.1-0.1l1.2-1.6h0.6l-1.5,2.1l1.5,2.1h-0.7l-1.2-1.6l-0.1-0.1l-0.1,0.1
				l-1.2,1.6h-0.6l1.5-2.1l-1.5-2.1H181.3z"/>
		</g>
	</g>
	<g>
		<path class="st4" d="M176.6,149.2c0-0.2,0-0.4,0.1-0.6c0-0.2,0.1-0.4,0.2-0.5c0.1-0.2,0.2-0.3,0.4-0.5c0.2-0.2,0.4-0.3,0.6-0.5
			c0.2-0.1,0.3-0.2,0.5-0.2c0.2-0.1,0.3-0.2,0.5-0.2c0.2-0.1,0.2-0.2,0.3-0.3c0.1-0.1,0.2-0.2,0.2-0.4c0-0.1,0-0.2-0.1-0.2
			c-0.1-0.1-0.1-0.2-0.2-0.2c-0.1-0.1-0.2-0.2-0.3-0.2c-0.1-0.1-0.2-0.1-0.4-0.1c-0.2,0-0.3,0-0.4,0.1c-0.2,0.1-0.2,0.1-0.3,0.2
			s-0.2,0.2-0.2,0.2s-0.2,0.2-0.2,0.2l-0.5-0.5c0.1-0.1,0.1-0.1,0.2-0.2c0.1-0.1,0.2-0.2,0.4-0.2s0.3-0.2,0.5-0.2s0.4-0.1,0.7-0.1
			c0.2,0,0.5,0,0.6,0.1s0.4,0.2,0.5,0.2s0.2,0.2,0.3,0.4s0.1,0.3,0.1,0.5c0,0.2-0.1,0.4-0.2,0.5c-0.1,0.2-0.2,0.3-0.3,0.4
			c-0.2,0.1-0.2,0.2-0.4,0.3c-0.2,0.1-0.3,0.2-0.4,0.2s-0.2,0.2-0.4,0.2s-0.3,0.2-0.4,0.3c-0.2,0.1-0.2,0.2-0.3,0.3
			c-0.1,0.2-0.2,0.2-0.2,0.4h2.6v0.6L176.6,149.2L176.6,149.2z"/>
	</g>
</g>
<g>
	<g>
		<g>
			<path class="st4" d="M140,149.1l1.2,1.6l0.1,0.1l0.1-0.1l1.2-1.6h0.6l-1.5,2.1l1.5,2.1h-0.6l-1.2-1.6l-0.1-0.1l-0.1,0.1l-1.2,1.6
				h-0.6l1.5-2.1l-1.5-2.1H140z"/>
		</g>
	</g>
	<g>
		<path class="st4" d="M135.3,153.2c0-0.2,0-0.4,0.1-0.6c0-0.2,0.1-0.4,0.2-0.5c0.1-0.2,0.2-0.3,0.4-0.5c0.2-0.2,0.4-0.3,0.6-0.5
			c0.2-0.1,0.3-0.2,0.5-0.2c0.2-0.1,0.3-0.2,0.5-0.2s0.2-0.2,0.3-0.3c0.1-0.1,0.2-0.2,0.2-0.4c0-0.1,0-0.2-0.1-0.2s-0.1-0.2-0.2-0.2
			c-0.1-0.1-0.2-0.2-0.3-0.2c-0.1-0.1-0.2-0.1-0.4-0.1s-0.3,0-0.4,0.1c-0.2,0.1-0.2,0.1-0.3,0.2c-0.1,0.1-0.2,0.2-0.2,0.2
			c-0.1,0.1-0.2,0.2-0.2,0.2l-0.5-0.5c0.1-0.1,0.1-0.1,0.2-0.2c0.1-0.1,0.2-0.2,0.4-0.2s0.3-0.2,0.5-0.2c0.2-0.1,0.4-0.1,0.7-0.1
			c0.2,0,0.5,0,0.6,0.1s0.4,0.2,0.5,0.2s0.2,0.2,0.3,0.4s0.1,0.3,0.1,0.5c0,0.2-0.1,0.4-0.2,0.5c-0.1,0.2-0.2,0.3-0.3,0.4
			c-0.2,0.1-0.2,0.2-0.4,0.3s-0.3,0.2-0.4,0.2s-0.2,0.2-0.4,0.2c-0.2,0.1-0.3,0.2-0.4,0.3c-0.2,0.1-0.2,0.2-0.3,0.3
			c-0.1,0.2-0.2,0.2-0.2,0.4h2.6v0.6L135.3,153.2L135.3,153.2z"/>
	</g>
</g>
<g>
	<g>
		<g>
			<path class="st4" d="M94.2,194.2l1.2,1.6l0.1,0.1l0.1-0.1l1.2-1.6h0.6l-1.5,2.1l1.5,2.1h-0.6l-1.2-1.6l-0.1-0.1l-0.1,0.1
				l-1.2,1.6h-0.6l1.5-2.1l-1.5-2.1H94.2z"/>
		</g>
	</g>
	<g>
		<path class="st4" d="M89.5,198.3c0-0.2,0-0.4,0.1-0.6c0-0.2,0.1-0.4,0.2-0.5c0.1-0.2,0.2-0.3,0.4-0.5c0.2-0.2,0.4-0.3,0.6-0.5
			c0.2-0.1,0.3-0.2,0.5-0.2c0.2-0.1,0.3-0.2,0.5-0.2c0.2-0.1,0.2-0.2,0.3-0.3c0.1-0.1,0.2-0.2,0.2-0.4c0-0.1,0-0.2-0.1-0.2
			s-0.1-0.2-0.2-0.2s-0.2-0.2-0.3-0.2c-0.1-0.1-0.2-0.1-0.4-0.1c-0.2,0-0.3,0-0.4,0.1c-0.2,0.1-0.2,0.1-0.3,0.2s-0.2,0.2-0.2,0.2
			s-0.2,0.2-0.2,0.2l-0.5-0.5c0.1-0.1,0.1-0.1,0.2-0.2c0.1-0.1,0.2-0.2,0.4-0.2s0.3-0.2,0.5-0.2s0.4-0.1,0.7-0.1
			c0.2,0,0.5,0,0.6,0.1c0.2,0.1,0.4,0.2,0.5,0.2s0.2,0.2,0.3,0.4s0.1,0.3,0.1,0.5c0,0.2-0.1,0.4-0.2,0.5c-0.1,0.2-0.2,0.3-0.3,0.4
			c-0.2,0.1-0.2,0.2-0.4,0.3c-0.2,0.1-0.3,0.2-0.4,0.2s-0.2,0.2-0.4,0.2s-0.3,0.2-0.4,0.3c-0.2,0.1-0.2,0.2-0.3,0.3
			c-0.1,0.2-0.2,0.2-0.2,0.4h2.6v0.6L89.5,198.3L89.5,198.3z"/>
	</g>
</g>
<g>
	<g>
		<g>
			<path class="st4" d="M84,169.8l1.2,1.6l0.1,0.1l0.1-0.1l1.2-1.6h0.6l-1.5,2.1l1.5,2.1h-0.6l-1.2-1.6l-0.1-0.1l-0.1,0.1L84,174
				h-0.6l1.5-2.1l-1.5-2.1H84z"/>
		</g>
	</g>
	<g>
		<path class="st4" d="M79.3,174c0-0.2,0-0.4,0.1-0.6c0-0.2,0.1-0.4,0.2-0.5c0.1-0.2,0.2-0.3,0.4-0.5c0.2-0.2,0.4-0.3,0.6-0.5
			c0.2-0.1,0.3-0.2,0.5-0.2c0.2-0.1,0.3-0.2,0.5-0.2c0.2-0.1,0.2-0.2,0.3-0.3c0.1-0.1,0.2-0.2,0.2-0.4c0-0.1,0-0.2-0.1-0.2
			s-0.1-0.2-0.2-0.2s-0.2-0.2-0.3-0.2c-0.1-0.1-0.2-0.1-0.4-0.1s-0.3,0-0.4,0.1c-0.2,0.1-0.2,0.1-0.3,0.2s-0.2,0.2-0.2,0.2
			c-0.1,0.1-0.2,0.2-0.2,0.2l-0.5-0.5c0.1-0.1,0.1-0.1,0.2-0.2c0.1-0.1,0.2-0.2,0.4-0.2c0.2-0.1,0.3-0.2,0.5-0.2s0.4-0.1,0.7-0.1
			c0.2,0,0.5,0,0.6,0.1s0.4,0.2,0.5,0.2c0.1,0.1,0.2,0.2,0.3,0.4s0.1,0.3,0.1,0.5c0,0.2-0.1,0.4-0.2,0.5c-0.1,0.2-0.2,0.3-0.3,0.4
			c-0.2,0.1-0.2,0.2-0.4,0.3c-0.2,0.1-0.3,0.2-0.4,0.2s-0.2,0.2-0.4,0.2s-0.3,0.2-0.4,0.3c-0.2,0.1-0.2,0.2-0.3,0.3
			c-0.1,0.2-0.2,0.2-0.2,0.4h2.6v0.6L79.3,174L79.3,174z"/>
	</g>
</g>
<g>
	<g>
		<g>
			<path class="st4" d="M122.4,79.1l1.2,1.6l0.1,0.1l0.1-0.1l1.2-1.6h0.6l-1.5,2.1l1.5,2.1H125l-1.2-1.6l-0.1-0.1l-0.1,0.1l-1.2,1.6
				h-0.6l1.5-2.1l-1.5-2.1H122.4z"/>
		</g>
	</g>
	<g>
		<path class="st4" d="M117.6,83.3c0-0.2,0-0.4,0.1-0.6c0-0.2,0.1-0.4,0.2-0.5c0.1-0.2,0.2-0.3,0.4-0.5c0.2-0.2,0.4-0.3,0.6-0.5
			c0.2-0.1,0.3-0.2,0.5-0.2c0.2-0.1,0.3-0.2,0.5-0.2c0.2-0.1,0.2-0.2,0.3-0.3c0.1-0.1,0.2-0.2,0.2-0.4c0-0.1,0-0.2-0.1-0.2
			c-0.1-0.1-0.1-0.2-0.2-0.2s-0.2-0.2-0.3-0.2c-0.1,0-0.2,0-0.4,0c-0.2,0-0.3,0-0.4,0.1c-0.2,0.1-0.2,0.1-0.3,0.2
			c-0.1,0.1-0.2,0.2-0.2,0.2s-0.2,0.2-0.2,0.2l-0.5-0.5c0.1-0.1,0.1-0.1,0.2-0.2c0.1-0.1,0.2-0.2,0.4-0.2c0.2-0.1,0.3-0.2,0.5-0.2
			s0.4-0.1,0.7-0.1c0.2,0,0.5,0,0.6,0.1c0.2,0.1,0.4,0.2,0.5,0.2c0.1,0.1,0.2,0.2,0.3,0.4s0.1,0.3,0.1,0.5c0,0.2-0.1,0.4-0.2,0.5
			c-0.1,0.2-0.2,0.3-0.3,0.4c-0.2,0.1-0.2,0.2-0.4,0.3c-0.2,0.1-0.3,0.2-0.4,0.2c-0.1,0.1-0.2,0.2-0.4,0.2c-0.2,0.1-0.3,0.2-0.4,0.3
			c-0.2,0.1-0.2,0.2-0.3,0.3c-0.1,0.2-0.2,0.2-0.2,0.4h2.6v0.5H117.6z"/>
	</g>
</g>
</svg>
