<?xml version="1.0" encoding="utf-8"?>
<!-- Generator: Adobe Illustrator 22.0.0, SVG Export Plug-In . SVG Version: 6.00 Build 0)  -->
<svg version="1.1" id="Laag_1" xmlns="http://www.w3.org/2000/svg" xmlns:xlink="http://www.w3.org/1999/xlink" x="0px" y="0px"
	 viewBox="0 0 263.8 221.6" style="enable-background:new 0 0 263.8 221.6;" xml:space="preserve">
<style type="text/css">
	.st0{opacity:7.000000e-02;fill:#1B69A0;enable-background:new    ;}
	.st1{fill:#FCCD42;stroke:#F0C94A;stroke-width:1.5;stroke-miterlimit:10;}
	.st2{fill:none;stroke:#FCCD42;stroke-width:1.4788;stroke-miterlimit:10;}
	.st3{fill:none;stroke:#FCCD42;stroke-miterlimit:10;}
	.st4{fill:#222221;}
</style>
<rect x="44.7" y="5.9" class="st0" width="199" height="13.9"/>
<rect x="44.7" y="19.9" class="st0" width="13.6" height="167.3"/>
<rect x="124.3" y="137.9" class="st0" width="12.4" height="61.7"/>
<rect x="230.3" y="19.9" class="st0" width="13.7" height="117.7"/>
<rect x="123.4" y="125.6" class="st0" width="108.4" height="12.3"/>
<rect x="44.7" y="186.6" class="st0" width="79.6" height="13"/>
<g>
	<g>
		<path class="st1" d="M223.5,72.3c0-28.8-23.3-52.1-52.1-52.1c-1.4,0-2.8,0.1-4.2,0.2c-4,0.1-9,1.1-14.3,3c-14.4,4.9-49,22-80.4,78
			c-1-2.9-2.7-9.1-2.6-15.9c-8.8,15.3-8.7,54.9-8.7,54.9l8.4-17.8c18.7-39.3,39.4-62.3,56.3-75.7c-3.8,6.9-6.2,14.7-6.6,23
			C99,89.6,81.4,118.6,66.8,156.2l-3.6-9.6c-2.3,8-6,35-5.3,42.6c9.5-6,25.7-31.4,27.2-33.7c-5.5,1.7-9.4,3.1-12,4.2
			c15-38.9,31.8-64,46.7-80c0.8,5.6,2.5,10.9,4.9,15.7c-8.3,9.6-17.2,22.3-26.3,39.2l-8.9,18.7c0,0,29.3-20.7,37.1-30.7
			c-7.2,2.9-13.6,4.7-16.2,5.4c6.3-10.6,12.4-19.2,18.2-26c9.4,13.6,25.1,22.5,42.9,22.5c13,0,24.9-4.8,34.1-12.7
			c0.6-0.4,1-0.9,1-0.9C216.9,101.4,223.5,87.6,223.5,72.3z M202.6,104.7c-8.9-0.2-33.8-2.6-52.7-22.7c8.6-5.8,15-7.6,18.3-8.1
			C180.9,88.9,201,91,211.3,91c0.4,0,0.7,0,1,0C210,96.2,206.7,100.8,202.6,104.7z M189.5,80.1c-5.3-2-10.6-5.1-14.9-9.8
			c5-9.9,6.2-19,3.3-42.6c6.8,1,13.1,3.5,18.5,7.2C197,42.4,197.9,66.8,189.5,80.1z M216.4,72.3c0,4-0.5,7.8-1.5,11.5
			c-3.4,0.2-10.5,0.2-18.4-1.6c6.7-12.3,7.6-30.2,7.3-41C211.6,49.3,216.4,60.3,216.4,72.3z M167.6,27.5c1.8,0,2.8,0.1,3.1,0.3l0,0
			l0,0c0.7,5.3,1.1,9.9,1.4,13.8c-6,0.5-19.4,3.1-35.8,14.3c-3,2.1-6,4.3-8.9,6.7C131.7,43.6,147.9,29.1,167.6,27.5z M126.4,73
			c4.8-4.5,9.3-8.1,13.4-10.9c15.1-10.4,27.3-12.9,32.6-13.4c-0.1,8.3-1.4,13.2-3.8,17.9c-5.4,0.6-20.1,3.9-38.7,23.1
			C127.7,84.5,126.5,78.9,126.4,73z M133.4,96.4c3.8-4.1,7.4-7.4,10.8-10.1c16.5,18,36.9,23.4,49.8,25c-6.6,3.9-14.4,6.1-22.6,6.1
			C155.4,117.4,141.3,109,133.4,96.4z"/>
	</g>
</g>
<line class="st2" x1="230.3" y1="19.9" x2="230.3" y2="125.1"/>
<line class="st3" x1="61.3" y1="186.9" x2="61.3" y2="199.6"/>
<line class="st3" x1="160.6" y1="124.9" x2="160.6" y2="137.6"/>
<line class="st3" x1="162.6" y1="6.6" x2="162.6" y2="19.3"/>
<line class="st3" x1="45.3" y1="82.3" x2="58" y2="82.3"/>
<line class="st3" x1="231" y1="87.3" x2="243.6" y2="87.3"/>
<line class="st3" x1="124.3" y1="145.6" x2="137" y2="145.6"/>
<g>
	<path d="M236.5,30.4l4.6,6l0.2,0.4l0.2-0.4l4.6-6h2.2l-5.9,7.7l5.9,7.7h-2.2l-4.6-6l-0.2-0.4l-0.2,0.4l-4.6,6h-2.2l5.9-7.7
		l-5.9-7.7C234.3,30.4,236.5,30.4,236.5,30.4z"/>
</g>
<line class="st2" x1="-77.3" y1="79" x2="-60.3" y2="79"/>
<line class="st2" x1="-78.3" y1="66" x2="-61.3" y2="66"/>
<line class="st2" x1="-77.9" y1="53.7" x2="-60.9" y2="53.7"/>
<line class="st2" x1="-76.9" y1="39.7" x2="-59.9" y2="39.7"/>
<line class="st2" x1="-78.6" y1="91.3" x2="-61.6" y2="91.3"/>
<line class="st2" x1="-79.3" y1="104.3" x2="-62.3" y2="104.3"/>
<line class="st2" x1="-79.3" y1="117.3" x2="-62.3" y2="117.3"/>
<g>
	<path class="st4" d="M178.7,130.8l1.9,2.4l0.1,0.2l0.1-0.2l1.9-2.4h0.9l-2.4,3.1l2.4,3.1h-0.9l-1.9-2.4l-0.1-0.2l-0.1,0.2l-1.9,2.4
		h-0.9l2.4-3.1l-2.4-3.1H178.7z"/>
	<path class="st4" d="M190.6,128.6l-5.7,8.5H184l5.7-8.5H190.6z"/>
	<path class="st4" d="M197.4,134.7c0,0.4-0.1,0.7-0.2,1c-0.2,0.3-0.4,0.6-0.6,0.8c-0.3,0.2-0.6,0.4-1,0.5s-0.7,0.2-1.1,0.2
		c-0.4,0-0.8-0.1-1.2-0.2c-0.4-0.1-0.7-0.3-0.9-0.5c-0.3-0.2-0.5-0.5-0.6-0.8c-0.1-0.3-0.2-0.6-0.2-1c0-0.3,0-0.5,0.2-0.8
		c0.1-0.2,0.2-0.4,0.4-0.6s0.3-0.3,0.5-0.5c0.2-0.1,0.4-0.2,0.6-0.3c-0.2-0.1-0.4-0.2-0.5-0.3c-0.2-0.1-0.3-0.3-0.4-0.4
		s-0.2-0.3-0.3-0.5c-0.1-0.2-0.1-0.4-0.1-0.6c0-0.4,0.1-0.7,0.2-0.9c0.2-0.3,0.4-0.5,0.6-0.7c0.3-0.2,0.5-0.3,0.9-0.4
		c0.3-0.1,0.6-0.1,1-0.1c0.3,0,0.6,0,1,0.1c0.3,0.1,0.6,0.2,0.9,0.4s0.5,0.4,0.6,0.7c0.2,0.3,0.2,0.6,0.2,0.9c0,0.2,0,0.4-0.1,0.6
		c-0.1,0.2-0.2,0.4-0.3,0.5c-0.1,0.2-0.3,0.3-0.5,0.4c-0.2,0.1-0.4,0.2-0.5,0.3c0.2,0.1,0.5,0.2,0.7,0.3c0.2,0.1,0.4,0.3,0.5,0.5
		c0.2,0.2,0.3,0.4,0.4,0.6C197.4,134.2,197.4,134.4,197.4,134.7z M196.6,134.7c0-0.3-0.1-0.5-0.2-0.8c-0.1-0.2-0.3-0.4-0.5-0.6
		c-0.2-0.2-0.4-0.3-0.7-0.3s-0.5-0.1-0.8-0.1c-0.3,0-0.5,0-0.8,0.1c-0.2,0.1-0.5,0.2-0.7,0.4c-0.2,0.2-0.4,0.3-0.5,0.6
		c-0.1,0.2-0.2,0.5-0.2,0.7c0,0.3,0.1,0.5,0.2,0.8c0.1,0.2,0.3,0.4,0.5,0.6c0.2,0.2,0.4,0.3,0.7,0.3c0.3,0.1,0.5,0.1,0.8,0.1
		s0.5,0,0.8-0.1s0.5-0.2,0.7-0.4c0.2-0.2,0.4-0.3,0.5-0.6C196.5,135.2,196.6,134.9,196.6,134.7z M192.6,130.8c0,0.2,0.1,0.4,0.2,0.6
		c0.1,0.2,0.3,0.3,0.4,0.5c0.2,0.1,0.4,0.2,0.6,0.3c0.2,0.1,0.4,0.1,0.6,0.1c0.2,0,0.4,0,0.6-0.1c0.2-0.1,0.4-0.2,0.6-0.3
		s0.3-0.3,0.4-0.5c0.1-0.2,0.2-0.4,0.2-0.6c0-0.2-0.1-0.4-0.2-0.6c-0.1-0.2-0.2-0.3-0.4-0.5c-0.2-0.1-0.4-0.2-0.6-0.3
		c-0.2-0.1-0.5-0.1-0.7-0.1c-0.2,0-0.5,0-0.7,0.1c-0.2,0.1-0.4,0.2-0.6,0.3s-0.3,0.3-0.4,0.5C192.7,130.3,192.6,130.5,192.6,130.8z"
		/>
</g>
<g>
	<path class="st4" d="M235.7,91.5l1.9,2.4l0.1,0.2l0.1-0.2l1.9-2.4h0.9l-2.4,3.1l2.4,3.1h-0.9l-1.9-2.4l-0.1-0.2l-0.1,0.2l-1.9,2.4
		h-0.9l2.4-3.1l-2.4-3.1H235.7z"/>
	<path class="st4" d="M247.6,89.2l-5.7,8.5H241l5.7-8.5H247.6z"/>
	<path class="st4" d="M254.4,95.4c0,0.4-0.1,0.7-0.2,1c-0.2,0.3-0.4,0.6-0.6,0.8c-0.3,0.2-0.6,0.4-1,0.5s-0.7,0.2-1.1,0.2
		c-0.4,0-0.8-0.1-1.2-0.2c-0.4-0.1-0.7-0.3-0.9-0.5c-0.3-0.2-0.5-0.5-0.6-0.8c-0.1-0.3-0.2-0.6-0.2-1c0-0.3,0-0.5,0.2-0.8
		c0.1-0.2,0.2-0.4,0.4-0.6s0.3-0.3,0.5-0.5c0.2-0.1,0.4-0.2,0.6-0.3c-0.2-0.1-0.4-0.2-0.5-0.3c-0.2-0.1-0.3-0.3-0.4-0.4
		s-0.2-0.3-0.3-0.5c-0.1-0.2-0.1-0.4-0.1-0.6c0-0.4,0.1-0.7,0.2-0.9c0.2-0.3,0.4-0.5,0.6-0.7c0.3-0.2,0.5-0.3,0.9-0.4
		c0.3-0.1,0.6-0.1,1-0.1c0.3,0,0.6,0,1,0.1c0.3,0.1,0.6,0.2,0.9,0.4s0.5,0.4,0.6,0.7c0.2,0.3,0.2,0.6,0.2,0.9c0,0.2,0,0.4-0.1,0.6
		c-0.1,0.2-0.2,0.4-0.3,0.5c-0.1,0.2-0.3,0.3-0.5,0.4c-0.2,0.1-0.4,0.2-0.5,0.3c0.2,0.1,0.5,0.2,0.7,0.3c0.2,0.1,0.4,0.3,0.5,0.5
		c0.2,0.2,0.3,0.4,0.4,0.6C254.4,94.9,254.4,95.1,254.4,95.4z M253.6,95.3c0-0.3-0.1-0.5-0.2-0.8c-0.1-0.2-0.3-0.4-0.5-0.6
		c-0.2-0.2-0.4-0.3-0.7-0.3s-0.5-0.1-0.8-0.1c-0.3,0-0.5,0-0.8,0.1c-0.2,0.1-0.5,0.2-0.7,0.4c-0.2,0.2-0.4,0.3-0.5,0.6
		c-0.1,0.2-0.2,0.5-0.2,0.7c0,0.3,0.1,0.5,0.2,0.8c0.1,0.2,0.3,0.4,0.5,0.6c0.2,0.2,0.4,0.3,0.7,0.3c0.3,0.1,0.5,0.1,0.8,0.1
		s0.5,0,0.8-0.1s0.5-0.2,0.7-0.4c0.2-0.2,0.4-0.3,0.5-0.6C253.5,95.8,253.6,95.6,253.6,95.3z M249.6,91.4c0,0.2,0.1,0.4,0.2,0.6
		c0.1,0.2,0.3,0.3,0.4,0.5c0.2,0.1,0.4,0.2,0.6,0.3c0.2,0.1,0.4,0.1,0.6,0.1c0.2,0,0.4,0,0.6-0.1c0.2-0.1,0.4-0.2,0.6-0.3
		s0.3-0.3,0.4-0.5c0.1-0.2,0.2-0.4,0.2-0.6c0-0.2-0.1-0.4-0.2-0.6c-0.1-0.2-0.2-0.3-0.4-0.5c-0.2-0.1-0.4-0.2-0.6-0.3
		c-0.2-0.1-0.5-0.1-0.7-0.1c-0.2,0-0.5,0-0.7,0.1c-0.2,0.1-0.4,0.2-0.6,0.3s-0.3,0.3-0.4,0.5C249.7,91,249.6,91.2,249.6,91.4z"/>
</g>
<g>
	<path class="st4" d="M169.7,11.8l1.9,2.4l0.1,0.2l0.1-0.2l1.9-2.4h0.9l-2.4,3.1l2.4,3.1h-0.9l-1.9-2.4l-0.1-0.2l-0.1,0.2l-1.9,2.4
		h-0.9l2.4-3.1l-2.4-3.1H169.7z"/>
	<path class="st4" d="M181.6,9.6l-5.7,8.5H175l5.7-8.5H181.6z"/>
	<path class="st4" d="M188.4,15.7c0,0.4-0.1,0.7-0.2,1c-0.2,0.3-0.4,0.6-0.6,0.8c-0.3,0.2-0.6,0.4-1,0.5s-0.7,0.2-1.1,0.2
		c-0.4,0-0.8-0.1-1.2-0.2c-0.4-0.1-0.7-0.3-0.9-0.5c-0.3-0.2-0.5-0.5-0.6-0.8c-0.1-0.3-0.2-0.6-0.2-1c0-0.3,0-0.5,0.2-0.8
		c0.1-0.2,0.2-0.4,0.4-0.6s0.3-0.3,0.5-0.5c0.2-0.1,0.4-0.2,0.6-0.3c-0.2-0.1-0.4-0.2-0.5-0.3c-0.2-0.1-0.3-0.3-0.4-0.4
		s-0.2-0.3-0.3-0.5c-0.1-0.2-0.1-0.4-0.1-0.6c0-0.4,0.1-0.7,0.2-0.9c0.2-0.3,0.4-0.5,0.6-0.7c0.3-0.2,0.5-0.3,0.9-0.4
		c0.3-0.1,0.6-0.1,1-0.1c0.3,0,0.6,0,1,0.1c0.3,0.1,0.6,0.2,0.9,0.4s0.5,0.4,0.6,0.7c0.2,0.3,0.2,0.6,0.2,0.9c0,0.2,0,0.4-0.1,0.6
		c-0.1,0.2-0.2,0.4-0.3,0.5c-0.1,0.2-0.3,0.3-0.5,0.4c-0.2,0.1-0.4,0.2-0.5,0.3c0.2,0.1,0.5,0.2,0.7,0.3c0.2,0.1,0.4,0.3,0.5,0.5
		c0.2,0.2,0.3,0.4,0.4,0.6C188.4,15.2,188.4,15.4,188.4,15.7z M187.6,15.7c0-0.3-0.1-0.5-0.2-0.8c-0.1-0.2-0.3-0.4-0.5-0.6
		c-0.2-0.2-0.4-0.3-0.7-0.3s-0.5-0.1-0.8-0.1c-0.3,0-0.5,0-0.8,0.1c-0.2,0.1-0.5,0.2-0.7,0.4c-0.2,0.2-0.4,0.3-0.5,0.6
		c-0.1,0.2-0.2,0.5-0.2,0.7c0,0.3,0.1,0.5,0.2,0.8c0.1,0.2,0.3,0.4,0.5,0.6c0.2,0.2,0.4,0.3,0.7,0.3c0.3,0.1,0.5,0.1,0.8,0.1
		s0.5,0,0.8-0.1s0.5-0.2,0.7-0.4c0.2-0.2,0.4-0.3,0.5-0.6C187.5,16.2,187.6,15.9,187.6,15.7z M183.6,11.8c0,0.2,0.1,0.4,0.2,0.6
		c0.1,0.2,0.3,0.3,0.4,0.5c0.2,0.1,0.4,0.2,0.6,0.3c0.2,0.1,0.4,0.1,0.6,0.1c0.2,0,0.4,0,0.6-0.1c0.2-0.1,0.4-0.2,0.6-0.3
		s0.3-0.3,0.4-0.5c0.1-0.2,0.2-0.4,0.2-0.6c0-0.2-0.1-0.4-0.2-0.6c-0.1-0.2-0.2-0.3-0.4-0.5c-0.2-0.1-0.4-0.2-0.6-0.3
		c-0.2-0.1-0.5-0.1-0.7-0.1c-0.2,0-0.5,0-0.7,0.1c-0.2,0.1-0.4,0.2-0.6,0.3s-0.3,0.3-0.4,0.5C183.7,11.3,183.6,11.5,183.6,11.8z"/>
</g>
<g>
	<path class="st4" d="M38.3,88.2l1.9,2.4l0.1,0.2l0.1-0.2l1.9-2.4h0.9l-2.4,3.1l2.4,3.1h-0.9L40.4,92l-0.1-0.2L40.2,92l-1.9,2.4
		h-0.9l2.4-3.1l-2.4-3.1H38.3z"/>
	<path class="st4" d="M50.2,85.9l-5.7,8.5h-0.9l5.7-8.5H50.2z"/>
	<path class="st4" d="M57.1,92.1c0,0.4-0.1,0.7-0.2,1c-0.2,0.3-0.4,0.6-0.6,0.8c-0.3,0.2-0.6,0.4-1,0.5s-0.7,0.2-1.1,0.2
		c-0.4,0-0.8-0.1-1.2-0.2c-0.4-0.1-0.7-0.3-0.9-0.5c-0.3-0.2-0.5-0.5-0.6-0.8c-0.1-0.3-0.2-0.6-0.2-1c0-0.3,0-0.5,0.2-0.8
		c0.1-0.2,0.2-0.4,0.4-0.6s0.3-0.3,0.5-0.5c0.2-0.1,0.4-0.2,0.6-0.3c-0.2-0.1-0.4-0.2-0.5-0.3c-0.2-0.1-0.3-0.3-0.4-0.4
		s-0.2-0.3-0.3-0.5c-0.1-0.2-0.1-0.4-0.1-0.6c0-0.4,0.1-0.7,0.2-0.9c0.2-0.3,0.4-0.5,0.6-0.7c0.3-0.2,0.5-0.3,0.9-0.4
		c0.3-0.1,0.6-0.1,1-0.1c0.3,0,0.6,0,1,0.1c0.3,0.1,0.6,0.2,0.9,0.4s0.5,0.4,0.6,0.7c0.2,0.3,0.2,0.6,0.2,0.9c0,0.2,0,0.4-0.1,0.6
		c-0.1,0.2-0.2,0.4-0.3,0.5c-0.1,0.2-0.3,0.3-0.5,0.4c-0.2,0.1-0.4,0.2-0.5,0.3c0.2,0.1,0.5,0.2,0.7,0.3c0.2,0.1,0.4,0.3,0.5,0.5
		c0.2,0.2,0.3,0.4,0.4,0.6C57.1,91.5,57.1,91.8,57.1,92.1z M56.3,92c0-0.3-0.1-0.5-0.2-0.8c-0.1-0.2-0.3-0.4-0.5-0.6
		c-0.2-0.2-0.4-0.3-0.7-0.3s-0.5-0.1-0.8-0.1c-0.3,0-0.5,0-0.8,0.1c-0.2,0.1-0.5,0.2-0.7,0.4c-0.2,0.2-0.4,0.3-0.5,0.6
		C52.1,91.5,52,91.7,52,92c0,0.3,0.1,0.5,0.2,0.8c0.1,0.2,0.3,0.4,0.5,0.6c0.2,0.2,0.4,0.3,0.7,0.3c0.3,0.1,0.5,0.1,0.8,0.1
		s0.5,0,0.8-0.1s0.5-0.2,0.7-0.4c0.2-0.2,0.4-0.3,0.5-0.6C56.2,92.5,56.3,92.3,56.3,92z M52.3,88.1c0,0.2,0.1,0.4,0.2,0.6
		c0.1,0.2,0.3,0.3,0.4,0.5c0.2,0.1,0.4,0.2,0.6,0.3c0.2,0.1,0.4,0.1,0.6,0.1c0.2,0,0.4,0,0.6-0.1c0.2-0.1,0.4-0.2,0.6-0.3
		s0.3-0.3,0.4-0.5c0.1-0.2,0.2-0.4,0.2-0.6c0-0.2-0.1-0.4-0.2-0.6c-0.1-0.2-0.2-0.3-0.4-0.5c-0.2-0.1-0.4-0.2-0.6-0.3
		c-0.2-0.1-0.5-0.1-0.7-0.1c-0.2,0-0.5,0-0.7,0.1c-0.2,0.1-0.4,0.2-0.6,0.3s-0.3,0.3-0.4,0.5C52.4,87.7,52.3,87.9,52.3,88.1z"/>
</g>
<g>
	<path class="st4" d="M128.3,150.5l1.9,2.4l0.1,0.2l0.1-0.2l1.9-2.4h0.9l-2.4,3.1l2.4,3.1h-0.9l-1.9-2.4l-0.1-0.2l-0.1,0.2l-1.9,2.4
		h-0.9l2.4-3.1l-2.4-3.1H128.3z"/>
	<path class="st4" d="M140.2,148.2l-5.7,8.5h-0.9l5.7-8.5H140.2z"/>
	<path class="st4" d="M147.1,154.4c0,0.4-0.1,0.7-0.2,1c-0.2,0.3-0.4,0.6-0.6,0.8c-0.3,0.2-0.6,0.4-1,0.5s-0.7,0.2-1.1,0.2
		c-0.4,0-0.8-0.1-1.2-0.2c-0.4-0.1-0.7-0.3-0.9-0.5c-0.3-0.2-0.5-0.5-0.6-0.8c-0.1-0.3-0.2-0.6-0.2-1c0-0.3,0-0.5,0.2-0.8
		c0.1-0.2,0.2-0.4,0.4-0.6s0.3-0.3,0.5-0.5c0.2-0.1,0.4-0.2,0.6-0.3c-0.2-0.1-0.4-0.2-0.5-0.3c-0.2-0.1-0.3-0.3-0.4-0.4
		s-0.2-0.3-0.3-0.5c-0.1-0.2-0.1-0.4-0.1-0.6c0-0.4,0.1-0.7,0.2-0.9c0.2-0.3,0.4-0.5,0.6-0.7c0.3-0.2,0.5-0.3,0.9-0.4
		c0.3-0.1,0.6-0.1,1-0.1c0.3,0,0.6,0,1,0.1c0.3,0.1,0.6,0.2,0.9,0.4s0.5,0.4,0.6,0.7c0.2,0.3,0.2,0.6,0.2,0.9c0,0.2,0,0.4-0.1,0.6
		c-0.1,0.2-0.2,0.4-0.3,0.5c-0.1,0.2-0.3,0.3-0.5,0.4c-0.2,0.1-0.4,0.2-0.5,0.3c0.2,0.1,0.5,0.2,0.7,0.3c0.2,0.1,0.4,0.3,0.5,0.5
		c0.2,0.2,0.3,0.4,0.4,0.6C147.1,153.9,147.1,154.1,147.1,154.4z M146.3,154.3c0-0.3-0.1-0.5-0.2-0.8c-0.1-0.2-0.3-0.4-0.5-0.6
		c-0.2-0.2-0.4-0.3-0.7-0.3s-0.5-0.1-0.8-0.1c-0.3,0-0.5,0-0.8,0.1c-0.2,0.1-0.5,0.2-0.7,0.4c-0.2,0.2-0.4,0.3-0.5,0.6
		c-0.1,0.2-0.2,0.5-0.2,0.7c0,0.3,0.1,0.5,0.2,0.8c0.1,0.2,0.3,0.4,0.5,0.6c0.2,0.2,0.4,0.3,0.7,0.3c0.3,0.1,0.5,0.1,0.8,0.1
		s0.5,0,0.8-0.1s0.5-0.2,0.7-0.4c0.2-0.2,0.4-0.3,0.5-0.6C146.2,154.8,146.3,154.6,146.3,154.3z M142.3,150.4c0,0.2,0.1,0.4,0.2,0.6
		c0.1,0.2,0.3,0.3,0.4,0.5c0.2,0.1,0.4,0.2,0.6,0.3c0.2,0.1,0.4,0.1,0.6,0.1c0.2,0,0.4,0,0.6-0.1c0.2-0.1,0.4-0.2,0.6-0.3
		s0.3-0.3,0.4-0.5c0.1-0.2,0.2-0.4,0.2-0.6c0-0.2-0.1-0.4-0.2-0.6c-0.1-0.2-0.2-0.3-0.4-0.5c-0.2-0.1-0.4-0.2-0.6-0.3
		c-0.2-0.1-0.5-0.1-0.7-0.1c-0.2,0-0.5,0-0.7,0.1c-0.2,0.1-0.4,0.2-0.6,0.3s-0.3,0.3-0.4,0.5C142.4,150,142.3,150.2,142.3,150.4z"/>
</g>
<g>
	<path class="st4" d="M69,191.5l1.9,2.4l0.1,0.2l0.1-0.2l1.9-2.4h0.9l-2.4,3.1l2.4,3.1h-0.9l-1.9-2.4l-0.1-0.2l-0.1,0.2l-1.9,2.4
		h-0.9l2.4-3.1l-2.4-3.1H69z"/>
	<path class="st4" d="M80.9,189.2l-5.7,8.5h-0.9l5.7-8.5H80.9z"/>
	<path class="st4" d="M87.8,195.4c0,0.4-0.1,0.7-0.2,1c-0.2,0.3-0.4,0.6-0.6,0.8c-0.3,0.2-0.6,0.4-1,0.5s-0.7,0.2-1.1,0.2
		c-0.4,0-0.8-0.1-1.2-0.2c-0.4-0.1-0.7-0.3-0.9-0.5c-0.3-0.2-0.5-0.5-0.6-0.8c-0.1-0.3-0.2-0.6-0.2-1c0-0.3,0-0.5,0.2-0.8
		c0.1-0.2,0.2-0.4,0.4-0.6s0.3-0.3,0.5-0.5c0.2-0.1,0.4-0.2,0.6-0.3c-0.2-0.1-0.4-0.2-0.5-0.3c-0.2-0.1-0.3-0.3-0.4-0.4
		s-0.2-0.3-0.3-0.5c-0.1-0.2-0.1-0.4-0.1-0.6c0-0.4,0.1-0.7,0.2-0.9c0.2-0.3,0.4-0.5,0.6-0.7c0.3-0.2,0.5-0.3,0.9-0.4
		c0.3-0.1,0.6-0.1,1-0.1c0.3,0,0.6,0,1,0.1c0.3,0.1,0.6,0.2,0.9,0.4s0.5,0.4,0.6,0.7c0.2,0.3,0.2,0.6,0.2,0.9c0,0.2,0,0.4-0.1,0.6
		c-0.1,0.2-0.2,0.4-0.3,0.5c-0.1,0.2-0.3,0.3-0.5,0.4c-0.2,0.1-0.4,0.2-0.5,0.3c0.2,0.1,0.5,0.2,0.7,0.3c0.2,0.1,0.4,0.3,0.5,0.5
		c0.2,0.2,0.3,0.4,0.4,0.6C87.7,194.9,87.8,195.1,87.8,195.4z M86.9,195.3c0-0.3-0.1-0.5-0.2-0.8c-0.1-0.2-0.3-0.4-0.5-0.6
		c-0.2-0.2-0.4-0.3-0.7-0.3s-0.5-0.1-0.8-0.1c-0.3,0-0.5,0-0.8,0.1c-0.2,0.1-0.5,0.2-0.7,0.4c-0.2,0.2-0.4,0.3-0.5,0.6
		c-0.1,0.2-0.2,0.5-0.2,0.7c0,0.3,0.1,0.5,0.2,0.8c0.1,0.2,0.3,0.4,0.5,0.6c0.2,0.2,0.4,0.3,0.7,0.3c0.3,0.1,0.5,0.1,0.8,0.1
		s0.5,0,0.8-0.1s0.5-0.2,0.7-0.4c0.2-0.2,0.4-0.3,0.5-0.6C86.9,195.8,86.9,195.6,86.9,195.3z M83,191.4c0,0.2,0.1,0.4,0.2,0.6
		c0.1,0.2,0.3,0.3,0.4,0.5c0.2,0.1,0.4,0.2,0.6,0.3c0.2,0.1,0.4,0.1,0.6,0.1c0.2,0,0.4,0,0.6-0.1c0.2-0.1,0.4-0.2,0.6-0.3
		s0.3-0.3,0.4-0.5c0.1-0.2,0.2-0.4,0.2-0.6c0-0.2-0.1-0.4-0.2-0.6c-0.1-0.2-0.2-0.3-0.4-0.5c-0.2-0.1-0.4-0.2-0.6-0.3
		c-0.2-0.1-0.5-0.1-0.7-0.1c-0.2,0-0.5,0-0.7,0.1c-0.2,0.1-0.4,0.2-0.6,0.3s-0.3,0.3-0.4,0.5C83,191,83,191.2,83,191.4z"/>
</g>
</svg>
