<?xml version="1.0" encoding="utf-8"?>
<!-- Generator: Adobe Illustrator 22.0.0, SVG Export Plug-In . SVG Version: 6.00 Build 0)  -->
<svg version="1.1" id="Laag_1" xmlns="http://www.w3.org/2000/svg" xmlns:xlink="http://www.w3.org/1999/xlink" x="0px" y="0px"
	 viewBox="0 0 263.8 221.6" style="enable-background:new 0 0 263.8 221.6;" xml:space="preserve">
<style type="text/css">
	.st0{opacity:7.000000e-02;fill:#1B69A0;enable-background:new    ;}
	.st1{fill:#FCCD42;}
	.st2{fill:#1B69A0;}
	.st3{fill:#1B69A0;stroke:#1B69A0;stroke-miterlimit:10;}
	.st4{fill:none;stroke:#FCCD42;stroke-width:1.4788;stroke-miterlimit:10;}
</style>
<polygon class="st0" points="237.9,18.4 223.4,18.3 223.6,125.4 127.7,125.4 123.7,128.4 90.4,155 90.3,155 90.3,155.1 90.2,155.3 
	90.2,155.3 65.8,189.4 58.5,189.4 58.5,83.2 84.4,78.1 84.4,77.9 114.3,46.2 149.8,19.6 237.9,19.5 237.9,5.7 145.3,5.7 105.4,33.6 
	76.2,65.7 45.3,72.1 45.3,72.2 45,72.2 45,190.4 45,190.4 45,203.4 73.3,203.4 101.3,164.5 132.9,139.7 232.1,139.7 238.3,139.4 "/>
<g>
	<g>
		<path class="st1" d="M223.5,72.3c0-28.8-23.3-52.1-52.1-52.1c-1.4,0-2.8,0.1-4.2,0.2c-4,0.1-9,1.1-14.3,3c-14.4,4.9-49,22-80.4,78
			c-1-2.9-2.7-9.1-2.6-15.9c-8.8,15.3-8.7,54.9-8.7,54.9l8.4-17.8c18.7-39.3,39.4-62.3,56.3-75.7c-3.8,6.9-6.2,14.7-6.6,23
			C99,89.6,81.4,118.6,66.8,156.2l-3.6-9.6c-2.3,8-6,35-5.3,42.6c9.5-6,25.7-31.4,27.2-33.7c-5.5,1.7-9.4,3.1-12,4.2
			c15-38.9,31.8-64,46.7-80c0.8,5.6,2.5,10.9,4.9,15.7c-8.3,9.6-17.2,22.3-26.3,39.2l-8.9,18.7c0,0,29.3-20.7,37.1-30.7
			c-7.2,2.9-13.6,4.7-16.2,5.4c6.3-10.6,12.4-19.2,18.2-26c9.4,13.6,25.1,22.5,42.9,22.5c13,0,24.9-4.8,34.1-12.7
			c0.6-0.4,1-0.9,1-0.9C216.9,101.4,223.5,87.6,223.5,72.3z M202.6,104.7c-8.9-0.2-33.8-2.6-52.7-22.7c8.6-5.8,15-7.6,18.3-8.1
			C180.9,88.9,201,91,211.3,91c0.4,0,0.7,0,1,0C210,96.2,206.7,100.8,202.6,104.7z M189.5,80.1c-5.3-2-10.6-5.1-14.9-9.8
			c5-9.9,6.2-19,3.3-42.6c6.8,1,13.1,3.5,18.5,7.2C197,42.4,197.9,66.8,189.5,80.1z M216.4,72.3c0,4-0.5,7.8-1.5,11.5
			c-3.4,0.2-10.5,0.2-18.4-1.6c6.7-12.3,7.6-30.2,7.3-41C211.6,49.3,216.4,60.3,216.4,72.3z M167.6,27.5c1.8,0,2.8,0.1,3.1,0.3l0,0
			l0,0c0.7,5.3,1.1,9.9,1.4,13.8c-6,0.5-19.4,3.1-35.8,14.3c-3,2.1-6,4.3-8.9,6.7C131.7,43.6,147.9,29.1,167.6,27.5z M126.4,73
			c4.8-4.5,9.3-8.1,13.4-10.9c15.1-10.4,27.3-12.9,32.6-13.4c-0.1,8.3-1.4,13.2-3.8,17.9c-5.4,0.6-20.1,3.9-38.7,23.1
			C127.7,84.5,126.5,78.9,126.4,73z M133.4,96.4c3.8-4.1,7.4-7.4,10.8-10.1c16.5,18,36.9,23.4,49.8,25c-6.6,3.9-14.4,6.1-22.6,6.1
			C155.4,117.4,141.3,109,133.4,96.4z"/>
	</g>
</g>
<line class="st2" x1="211.1" y1="93.8" x2="217.8" y2="96.5"/>
<line class="st3" x1="223.7" y1="89.1" x2="231" y2="89.1"/>
<line class="st3" x1="231" y1="89.1" x2="238.2" y2="89.1"/>
<line class="st4" x1="-77.3" y1="79" x2="-60.3" y2="79"/>
<line class="st4" x1="-78.3" y1="66" x2="-61.3" y2="66"/>
<line class="st4" x1="-77.9" y1="53.7" x2="-60.9" y2="53.7"/>
<line class="st4" x1="-76.9" y1="39.7" x2="-59.9" y2="39.7"/>
<line class="st4" x1="-78.6" y1="91.3" x2="-61.6" y2="91.3"/>
<line class="st4" x1="-79.3" y1="104.3" x2="-62.3" y2="104.3"/>
<line class="st4" x1="-79.3" y1="117.3" x2="-62.3" y2="117.3"/>
<g>
	<g>
		<path class="st2" d="M214.3,87.6l1.6,2.1l0.1,0.1l0.1-0.1l1.6-2.1h0.8l-2,2.7l2,2.7h-0.8l-1.6-2.1l-0.1-0.1l-0.1,0.1l-1.6,2.1
			h-0.8l2-2.7l-2-2.7H214.3z"/>
	</g>
</g>
<g>
	<g>
		<path class="st2" d="M174.1,129.4l1.6,2.1l0.1,0.1l0.1-0.1l1.6-2.1h0.8l-2,2.7l2,2.7h-0.8l-1.6-2.1l-0.1-0.1l-0.1,0.1l-1.6,2.1
			h-0.8l2-2.7l-2-2.7H174.1z"/>
	</g>
</g>
<line class="st3" x1="171.2" y1="125.4" x2="171.2" y2="132.7"/>
<line class="st3" x1="171.2" y1="132.7" x2="171.2" y2="140"/>
<line class="st3" x1="112.9" y1="136.9" x2="117.5" y2="142.6"/>
<line class="st3" x1="117.5" y1="142.6" x2="122" y2="148.3"/>
<line class="st3" x1="58.2" y1="189.2" x2="58.2" y2="196.4"/>
<line class="st3" x1="58.2" y1="196.5" x2="58.3" y2="203.7"/>
<line class="st3" x1="58.7" y1="172.2" x2="51.5" y2="172.2"/>
<line class="st3" x1="51.5" y1="172.2" x2="44.2" y2="172.3"/>
<line class="st3" x1="102.3" y1="58.3" x2="97" y2="53.3"/>
<line class="st3" x1="97" y1="53.3" x2="91.7" y2="48.3"/>
<line class="st3" x1="183.3" y1="19.9" x2="183.2" y2="12.6"/>
<line class="st3" x1="183.2" y1="12.6" x2="183.1" y2="5.3"/>
<g>
	<g>
		<path class="st2" d="M179.6,132.6l0.3,0.4c0.1,0.1,0.1,0.2,0.2,0.3h0c0.1-0.1,0.1-0.2,0.2-0.3l0.3-0.4h0.4l-0.7,1l0.7,1.1h-0.4
			l-0.3-0.5c-0.1-0.1-0.1-0.2-0.2-0.4h0c-0.1,0.1-0.1,0.2-0.2,0.4l-0.3,0.5h-0.4l0.7-1.1l-0.7-1H179.6z"/>
		<path class="st2" d="M181.3,134.7v-0.2l0.3-0.3c0.7-0.7,1-1,1-1.5c0-0.3-0.1-0.5-0.6-0.5c-0.3,0-0.5,0.1-0.6,0.2l-0.1-0.3
			c0.2-0.2,0.5-0.3,0.8-0.3c0.6,0,0.9,0.4,0.9,0.8c0,0.5-0.4,0.9-1,1.5l-0.2,0.2v0h1.2v0.3H181.3z"/>
	</g>
</g>
<g>
	<g>
		<path class="st2" d="M226.2,91.5l1.6,2.1l0.1,0.1l0.1-0.1l1.6-2.1h0.8l-2,2.7l2,2.7h-0.8l-1.6-2.1l-0.1-0.1l-0.1,0.1l-1.6,2.1
			h-0.8l2-2.7l-2-2.7H226.2z"/>
	</g>
</g>
<g>
	<g>
		<path class="st2" d="M231.7,94.7l0.3,0.4c0.1,0.1,0.1,0.2,0.2,0.3h0c0.1-0.1,0.1-0.2,0.2-0.3l0.3-0.4h0.4l-0.7,1l0.7,1.1h-0.4
			l-0.3-0.5c-0.1-0.1-0.1-0.2-0.2-0.4h0c-0.1,0.1-0.1,0.2-0.2,0.4l-0.3,0.5h-0.4l0.7-1.1l-0.7-1H231.7z"/>
		<path class="st2" d="M233.4,96.7v-0.2l0.3-0.3c0.7-0.7,1-1,1-1.5c0-0.3-0.1-0.5-0.6-0.5c-0.3,0-0.5,0.1-0.6,0.2l-0.1-0.3
			c0.2-0.2,0.5-0.3,0.8-0.3c0.6,0,0.9,0.4,0.9,0.8c0,0.5-0.4,0.9-1,1.5l-0.2,0.2v0h1.2v0.3H233.4z"/>
	</g>
</g>
<g>
	<g>
		<path class="st2" d="M187.6,11.8l1.6,2.1l0.1,0.1l0.1-0.1l1.6-2.1h0.8l-2,2.7l2,2.7h-0.8l-1.6-2.1l-0.1-0.1l-0.1,0.1l-1.6,2.1
			h-0.8l2-2.7l-2-2.7L187.6,11.8z"/>
	</g>
</g>
<g>
	<g>
		<path class="st2" d="M193.1,15l0.3,0.4c0.1,0.1,0.1,0.2,0.2,0.3h0c0.1-0.1,0.1-0.2,0.2-0.3l0.3-0.4h0.4l-0.7,1l0.7,1.1h-0.4
			l-0.3-0.5c-0.1-0.1-0.1-0.2-0.2-0.4h0c-0.1,0.1-0.1,0.2-0.2,0.4l-0.3,0.5h-0.4l0.7-1.1l-0.7-1H193.1z"/>
		<path class="st2" d="M194.8,17v-0.2l0.3-0.3c0.7-0.7,1-1,1-1.5c0-0.3-0.1-0.5-0.6-0.5c-0.3,0-0.5,0.1-0.6,0.2l-0.1-0.3
			c0.2-0.2,0.5-0.3,0.8-0.3c0.6,0,0.9,0.4,0.9,0.8c0,0.5-0.4,0.9-1,1.5l-0.2,0.2v0h1.2V17H194.8z"/>
	</g>
</g>
<g>
	<g>
		<path class="st2" d="M99.3,45.8l1.6,2.1L101,48l0.1-0.1l1.6-2.1h0.8l-2,2.7l2,2.7h-0.8l-1.6-2.1l-0.1-0.1l-0.1,0.1l-1.6,2.1h-0.8
			l2-2.7l-2-2.7L99.3,45.8z"/>
	</g>
</g>
<g>
	<g>
		<path class="st2" d="M104.9,49l0.3,0.4c0.1,0.1,0.1,0.2,0.2,0.3h0c0.1-0.1,0.1-0.2,0.2-0.3l0.3-0.4h0.4l-0.7,1l0.7,1.1h-0.4
			l-0.3-0.5c-0.1-0.1-0.1-0.2-0.2-0.4h0c-0.1,0.1-0.1,0.2-0.2,0.4l-0.3,0.5h-0.4l0.7-1.1l-0.7-1H104.9z"/>
		<path class="st2" d="M106.6,51v-0.2l0.3-0.3c0.7-0.7,1-1,1-1.5c0-0.3-0.1-0.5-0.6-0.5c-0.3,0-0.5,0.1-0.6,0.2l-0.1-0.3
			c0.2-0.2,0.5-0.3,0.8-0.3c0.6,0,0.9,0.4,0.9,0.8c0,0.5-0.4,0.9-1,1.5l-0.2,0.2v0h1.2V51H106.6z"/>
	</g>
</g>
<g>
	<g>
		<path class="st2" d="M48.1,164.8l1.6,2.1l0.1,0.1l0.1-0.1l1.6-2.1h0.8l-2,2.7l2,2.7h-0.8l-1.6-2.1l-0.1-0.1l-0.1,0.1l-1.6,2.1
			h-0.8l2-2.7l-2-2.7H48.1z"/>
	</g>
</g>
<g>
	<g>
		<path class="st2" d="M53.6,168l0.3,0.4c0.1,0.1,0.1,0.2,0.2,0.3h0c0.1-0.1,0.1-0.2,0.2-0.3l0.3-0.4h0.4l-0.7,1l0.7,1.1h-0.4
			l-0.3-0.5c-0.1-0.1-0.1-0.2-0.2-0.4h0c-0.1,0.1-0.1,0.2-0.2,0.4l-0.3,0.5h-0.4l0.7-1.1l-0.7-1H53.6z"/>
		<path class="st2" d="M55.3,170v-0.2l0.3-0.3c0.7-0.7,1-1,1-1.5c0-0.3-0.1-0.5-0.6-0.5c-0.3,0-0.5,0.1-0.6,0.2l-0.1-0.3
			c0.2-0.2,0.5-0.3,0.8-0.3c0.6,0,0.9,0.4,0.9,0.8c0,0.5-0.4,0.9-1,1.5l-0.2,0.2v0h1.2v0.3H55.3z"/>
	</g>
</g>
<g>
	<g>
		<path class="st2" d="M61.4,195.9L63,198l0.1,0.1l0.1-0.1l1.6-2.1h0.8l-2,2.7l2,2.7h-0.8l-1.6-2.1l-0.1-0.1l-0.1,0.1l-1.6,2.1h-0.8
			l2-2.7l-2-2.7H61.4z"/>
	</g>
</g>
<g>
	<g>
		<path class="st2" d="M67,199.1l0.3,0.4c0.1,0.1,0.1,0.2,0.2,0.3h0c0.1-0.1,0.1-0.2,0.2-0.3l0.3-0.4h0.4l-0.7,1l0.7,1.1H68
			l-0.3-0.5c-0.1-0.1-0.1-0.2-0.2-0.4h0c-0.1,0.1-0.1,0.2-0.2,0.4l-0.3,0.5h-0.4l0.7-1.1l-0.7-1H67z"/>
		<path class="st2" d="M68.7,201.2v-0.2l0.3-0.3c0.7-0.7,1-1,1-1.5c0-0.3-0.1-0.5-0.6-0.5c-0.3,0-0.5,0.1-0.6,0.2l-0.1-0.3
			c0.2-0.2,0.5-0.3,0.8-0.3c0.6,0,0.9,0.4,0.9,0.8c0,0.5-0.4,0.9-1,1.5l-0.2,0.2v0h1.2v0.3H68.7z"/>
	</g>
</g>
<g>
	<g>
		<path class="st2" d="M118.7,135.4l1.6,2.1l0.1,0.1l0.1-0.1l1.6-2.1h0.8l-2,2.7l2,2.7H122l-1.6-2.1l-0.1-0.1l-0.1,0.1l-1.6,2.1
			h-0.8l2-2.7l-2-2.7H118.7z"/>
	</g>
</g>
<g>
	<g>
		<path class="st2" d="M124.2,138.6l0.3,0.4c0.1,0.1,0.1,0.2,0.2,0.3h0c0.1-0.1,0.1-0.2,0.2-0.3l0.3-0.4h0.4l-0.7,1l0.7,1.1h-0.4
			l-0.3-0.5c-0.1-0.1-0.1-0.2-0.2-0.4h0c-0.1,0.1-0.1,0.2-0.2,0.4l-0.3,0.5h-0.4l0.7-1.1l-0.7-1H124.2z"/>
		<path class="st2" d="M125.9,140.7v-0.2l0.3-0.3c0.7-0.7,1-1,1-1.5c0-0.3-0.1-0.5-0.6-0.5c-0.3,0-0.5,0.1-0.6,0.2l-0.1-0.3
			c0.2-0.2,0.5-0.3,0.8-0.3c0.6,0,0.9,0.4,0.9,0.8c0,0.5-0.4,0.9-1,1.5l-0.2,0.2v0h1.2v0.3H125.9z"/>
	</g>
</g>
</svg>
