<?xml version="1.0" encoding="utf-8"?>
<!-- Generator: Adobe Illustrator 22.0.0, SVG Export Plug-In . SVG Version: 6.00 Build 0)  -->
<svg version="1.1" id="Laag_1" xmlns="http://www.w3.org/2000/svg" xmlns:xlink="http://www.w3.org/1999/xlink" x="0px" y="0px"
	 viewBox="0 0 841.9 425.5" style="enable-background:new 0 0 841.9 425.5;" xml:space="preserve">
<style type="text/css">
	.st0{fill:#FFFFFF;}
</style>
<image style="overflow:visible;enable-background:new    ;" width="1440" height="961" xlink:href="F32F6C39.jpg"  transform="matrix(0.5881 0 0 0.5881 -3 -138.9901)">
</image>
<g>
	<g>
		<path class="st0" d="M677.9,311.2c0-14.5-11.8-26.3-26.3-26.3c-0.7,0-1.4,0-2.1,0.1c-2,0.1-4.5,0.6-7.2,1.5
			c-7.3,2.5-24.7,11.1-40.5,39.3c-0.5-1.5-1.4-4.6-1.3-8c-4.4,7.7-4.4,27.7-4.4,27.7l4.2-9c9.4-19.8,19.8-31.4,28.4-38.2
			c-1.9,3.5-3.1,7.4-3.3,11.6c-10.2,10-19.1,24.6-26.4,43.5l-1.8-4.8c-1.2,4-3,17.6-2.7,21.5c4.8-3,12.9-15.8,13.7-17
			c-2.8,0.8-4.8,1.6-6.1,2.1c7.6-19.6,16-32.2,23.5-40.3c0.4,2.8,1.2,5.5,2.4,7.9c-4.2,4.8-8.7,11.2-13.3,19.7l-4.5,9.4
			c0,0,14.8-10.4,18.7-15.5c-3.6,1.5-6.8,2.4-8.2,2.7c3.2-5.3,6.3-9.7,9.2-13.1c4.7,6.9,12.7,11.4,21.6,11.4
			c6.6,0,12.6-2.4,17.2-6.4c0.3-0.2,0.5-0.4,0.5-0.4C674.6,325.8,677.9,318.9,677.9,311.2z M667.4,327.5c-4.5-0.1-17-1.3-26.6-11.4
			c4.3-2.9,7.6-3.8,9.2-4.1c6.4,7.6,16.5,8.7,21.7,8.7c0.2,0,0.3,0,0.5,0C671.1,323.2,669.4,325.5,667.4,327.5z M660.8,315.1
			c-2.7-1-5.3-2.6-7.5-4.9c2.5-5,3.1-9.6,1.7-21.4c3.4,0.5,6.6,1.8,9.3,3.6C664.5,296.1,665,308.4,660.8,315.1z M674.3,311.2
			c0,2-0.3,3.9-0.7,5.8c-1.7,0.1-5.3,0.1-9.3-0.8c3.4-6.2,3.8-15.2,3.7-20.7C671.9,299.6,674.3,305.1,674.3,311.2z M649.7,288.6
			c0.9,0,1.4,0.1,1.6,0.1l0,0l0,0c0.3,2.7,0.6,5,0.7,6.9c-3,0.3-9.8,1.5-18,7.2c-1.5,1-3,2.2-4.5,3.4
			C631.6,296.7,639.8,289.4,649.7,288.6z M628.9,311.5c2.4-2.3,4.7-4.1,6.7-5.5c7.6-5.3,13.7-6.5,16.4-6.8c0,4.2-0.7,6.6-1.9,9
			c-2.7,0.3-10.1,2-19.5,11.6C629.6,317.4,629,314.5,628.9,311.5z M632.5,323.3c1.9-2,3.7-3.7,5.4-5.1c8.3,9.1,18.6,11.8,25.1,12.6
			c-3.4,2-7.2,3.1-11.4,3.1C643.6,333.9,636.5,329.7,632.5,323.3z"/>
	</g>
	<g>
		<path class="st0" d="M640.2,365.5v-18.8h-9.7v-4.5h24.7v4.5h-9.7v18.8H640.2z"/>
		<path class="st0" d="M676.6,365.5l-13.6-8.4v8.4h-5.1v-23.2H676c1.6,0,3,0.1,4.2,0.3c1.2,0.2,2.1,0.6,2.8,1.1s1.3,1.2,1.6,2.1
			s0.5,2.1,0.5,3.4v1.6c0,1.3-0.2,2.4-0.5,3.3c-0.4,0.9-0.9,1.6-1.7,2.1s-1.7,0.9-2.9,1.1s-2.5,0.3-4.1,0.3h-4.1l13.6,7.9
			L676.6,365.5L676.6,365.5z M680,349.5c0-0.6-0.1-1.1-0.2-1.5c-0.1-0.4-0.4-0.7-0.7-0.9s-0.8-0.3-1.3-0.4c-0.6-0.1-1.3-0.1-2.1-0.1
			H663v7.1h12.7c0.8,0,1.5,0,2.1-0.1s1-0.2,1.3-0.4c0.3-0.2,0.6-0.5,0.7-0.9c0.1-0.4,0.2-0.9,0.2-1.5V349.5z"/>
		<path class="st0" d="M688.8,365.5v-23.2h5.2v23.2H688.8z"/>
		<path class="st0" d="M706.5,365.5v-18.8h-9.7v-4.5h24.7v4.5h-9.7v18.8H706.5z"/>
		<path class="st0" d="M732.8,365.5c-1.7,0-3.1-0.1-4.3-0.4c-1.1-0.3-2-0.7-2.7-1.4c-0.7-0.6-1.2-1.4-1.4-2.5
			c-0.3-1-0.4-2.3-0.4-3.7v-7.3c0-1.5,0.1-2.7,0.4-3.7c0.3-1,0.8-1.8,1.4-2.5c0.7-0.6,1.6-1.1,2.7-1.4c1.1-0.3,2.6-0.4,4.3-0.4h8.8
			c1.7,0,3.2,0.1,4.3,0.4s2,0.7,2.7,1.4c0.7,0.6,1.2,1.4,1.4,2.5c0.3,1,0.4,2.3,0.4,3.7v7.3c0,1.5-0.1,2.7-0.4,3.7
			c-0.3,1-0.8,1.8-1.4,2.5c-0.7,0.6-1.6,1.1-2.7,1.4c-1.1,0.3-2.6,0.4-4.3,0.4H732.8z M745.3,350.4c0-0.7-0.1-1.3-0.2-1.8
			c-0.1-0.5-0.3-0.9-0.6-1.2s-0.7-0.5-1.2-0.6s-1.1-0.2-1.9-0.2H733c-0.8,0-1.5,0.1-2,0.2s-0.9,0.3-1.2,0.6
			c-0.3,0.3-0.5,0.7-0.6,1.2s-0.2,1.1-0.2,1.8v6.8c0,0.7,0.1,1.4,0.2,1.9c0.1,0.5,0.3,0.9,0.6,1.2c0.3,0.3,0.7,0.5,1.2,0.6
			s1.2,0.2,2,0.2h8.4c0.7,0,1.4-0.1,1.9-0.2s0.9-0.3,1.2-0.6c0.3-0.3,0.5-0.7,0.6-1.2s0.2-1.1,0.2-1.9L745.3,350.4L745.3,350.4z"/>
		<path class="st0" d="M778.9,366c-0.5,0-1.1-0.1-1.5-0.3c-0.5-0.2-0.9-0.4-1.3-0.8L759.2,349v16.5h-4.8v-21.6
			c0-0.7,0.3-1.3,0.8-1.6c0.5-0.4,1.2-0.5,2-0.5c0.6,0,1.1,0.1,1.5,0.2s0.7,0.4,1,0.6l17.1,16.4v-16.8h4.9v21.6
			c0,0.8-0.2,1.3-0.7,1.7C780.3,365.8,779.6,366,778.9,366z"/>
	</g>
	<g>
		<path class="st0" d="M697.1,337.7l-5.8-5.1v5.1H689v-10.4h2.3v5l5.7-5h3.1l-6,5.1l6.1,5.4h-3.1V337.7z"/>
		<path class="st0" d="M703.6,337.7c-0.6,0-1.1-0.1-1.5-0.2s-0.7-0.2-0.9-0.4c-0.2-0.2-0.4-0.4-0.5-0.7c-0.1-0.3-0.1-0.6-0.1-0.9
			v-0.8c0-0.3,0-0.7,0.1-0.9c0.1-0.3,0.2-0.5,0.5-0.7c0.2-0.2,0.5-0.3,0.9-0.4s0.8-0.1,1.4-0.1h6.1v-0.2c0-0.5-0.1-0.9-0.3-1.1
			s-0.6-0.3-1.1-0.3h-2.3v-1.6h2.3c0.7,0,1.2,0.1,1.7,0.2s0.8,0.3,1.1,0.6c0.3,0.3,0.5,0.6,0.6,0.9c0.1,0.4,0.2,0.8,0.2,1.4v2
			c0,0.6-0.1,1.1-0.2,1.5c-0.1,0.4-0.3,0.7-0.6,1s-0.7,0.4-1.2,0.5s-1.1,0.2-1.8,0.2H703.6z M709.6,334h-5.9c-0.3,0-0.5,0.1-0.6,0.2
			c-0.2,0.1-0.2,0.3-0.2,0.7v0.6c0,0.3,0.1,0.5,0.2,0.6c0.2,0.1,0.4,0.2,0.7,0.2h4.3c0.3,0,0.5,0,0.7-0.1c0.2,0,0.4-0.1,0.5-0.2
			s0.2-0.3,0.3-0.5s0.1-0.4,0.1-0.7L709.6,334L709.6,334z"/>
		<path class="st0" d="M711.7,340.2v-1.9h0.5c0.3,0,0.5,0,0.7-0.1c0.2,0,0.3-0.1,0.5-0.2c0.1-0.1,0.2-0.2,0.3-0.4s0.1-0.4,0.1-0.6
			v-7.3h2.3v7.4c0,1.1-0.3,1.9-0.9,2.4c-0.6,0.5-1.5,0.7-2.8,0.7H711.7z M714.4,329c-0.3,0-0.5-0.1-0.6-0.2s-0.2-0.3-0.2-0.5v-0.9
			c0-0.2,0.1-0.4,0.2-0.5c0.1-0.1,0.3-0.2,0.6-0.2h0.7c0.3,0,0.5,0.1,0.6,0.2s0.2,0.3,0.2,0.5v0.9c0,0.2-0.1,0.4-0.2,0.5
			c-0.1,0.1-0.3,0.2-0.6,0.2H714.4z"/>
		<path class="st0" d="M720.6,337.7c-0.6,0-1.1-0.1-1.5-0.2s-0.7-0.2-0.9-0.4c-0.2-0.2-0.4-0.4-0.5-0.7c-0.1-0.3-0.1-0.6-0.1-0.9
			v-0.8c0-0.3,0-0.7,0.1-0.9c0.1-0.3,0.2-0.5,0.5-0.7c0.2-0.2,0.5-0.3,0.9-0.4s0.8-0.1,1.4-0.1h6.1v-0.2c0-0.5-0.1-0.9-0.3-1.1
			s-0.6-0.3-1.1-0.3h-2.3v-1.6h2.3c0.7,0,1.2,0.1,1.7,0.2s0.8,0.3,1.1,0.6c0.3,0.3,0.5,0.6,0.6,0.9c0.1,0.4,0.2,0.8,0.2,1.4v2
			c0,0.6-0.1,1.1-0.2,1.5c-0.1,0.4-0.3,0.7-0.6,1s-0.7,0.4-1.2,0.5s-1.1,0.2-1.8,0.2H720.6z M726.6,334h-5.9c-0.3,0-0.5,0.1-0.6,0.2
			c-0.2,0.1-0.2,0.3-0.2,0.7v0.6c0,0.3,0.1,0.5,0.2,0.6c0.2,0.1,0.4,0.2,0.7,0.2h4.3c0.3,0,0.5,0,0.7-0.1c0.2,0,0.4-0.1,0.5-0.2
			s0.2-0.3,0.3-0.5s0.1-0.4,0.1-0.7L726.6,334L726.6,334z"/>
		<path class="st0" d="M737.7,337.7l-4.8-3.9v3.9h-2.3v-11h2.3v6.5l4.8-3.8h3l-5.1,4l5.3,4.3H737.7z"/>
		<path class="st0" d="M748.6,329.5c0.8,0,1.4,0.1,1.9,0.2s0.9,0.3,1.2,0.6c0.3,0.3,0.5,0.7,0.6,1.1c0.1,0.5,0.2,1,0.2,1.7v1.1
			c0,0.7-0.1,1.2-0.2,1.7c-0.1,0.5-0.3,0.8-0.6,1.1c-0.3,0.3-0.7,0.5-1.2,0.6s-1.2,0.2-1.9,0.2H744v2.5h-2.3v-7.2
			c0-0.7,0.1-1.2,0.2-1.7c0.1-0.5,0.3-0.8,0.6-1.1c0.3-0.3,0.7-0.5,1.2-0.6s1.2-0.2,1.9-0.2L748.6,329.5L748.6,329.5z M750.3,333.1
			c0-0.4,0-0.7-0.1-0.9c-0.1-0.2-0.2-0.4-0.3-0.5c-0.2-0.1-0.4-0.2-0.6-0.2c-0.3,0-0.6-0.1-1-0.1h-2.5c-0.4,0-0.7,0-0.9,0.1
			s-0.4,0.1-0.5,0.3c-0.1,0.1-0.2,0.3-0.3,0.5s-0.1,0.5-0.1,0.8v2.7h4.3c0.4,0,0.7,0,1-0.1c0.3,0,0.5-0.1,0.6-0.2
			c0.2-0.1,0.3-0.3,0.3-0.5c0.1-0.2,0.1-0.5,0.1-0.9V333.1z"/>
		<path class="st0" d="M758.2,337.7c-0.8,0-1.4-0.1-1.9-0.2s-0.9-0.3-1.2-0.6c-0.3-0.3-0.5-0.6-0.6-1.1s-0.2-1-0.2-1.7V333
			c0-0.7,0.1-1.2,0.2-1.7c0.1-0.5,0.3-0.8,0.6-1.1c0.3-0.3,0.7-0.5,1.2-0.6s1.1-0.2,1.9-0.2h2.8c0.8,0,1.4,0.1,1.9,0.2
			s0.9,0.3,1.2,0.6c0.3,0.3,0.5,0.7,0.6,1.1c0.1,0.5,0.2,1,0.2,1.7v1.1c0,0.7-0.1,1.2-0.2,1.7c-0.1,0.5-0.3,0.8-0.6,1.1
			c-0.3,0.3-0.7,0.5-1.2,0.6s-1.2,0.2-1.9,0.2H758.2z M762.7,333.1c0-0.3,0-0.6-0.1-0.9c-0.1-0.2-0.2-0.4-0.3-0.5s-0.4-0.2-0.6-0.3
			c-0.3,0-0.6-0.1-1-0.1h-2.2c-0.4,0-0.7,0-1,0.1c-0.3,0-0.5,0.1-0.6,0.3c-0.1,0.1-0.2,0.3-0.3,0.5s-0.1,0.5-0.1,0.9v1
			c0,0.3,0,0.6,0.1,0.8c0.1,0.2,0.2,0.4,0.3,0.5s0.4,0.2,0.6,0.3c0.3,0.1,0.6,0.1,1,0.1h2.2c0.4,0,0.7,0,1-0.1
			c0.3,0,0.5-0.1,0.6-0.3c0.1-0.1,0.3-0.3,0.3-0.5c0.1-0.2,0.1-0.5,0.1-0.8V333.1z"/>
		<path class="st0" d="M766.7,337.7v-11h2.3v11H766.7z"/>
		<path class="st0" d="M774.7,337.7c-0.8,0-1.4-0.1-1.9-0.2s-0.9-0.3-1.2-0.6c-0.3-0.3-0.5-0.6-0.6-1.1s-0.2-1-0.2-1.7V333
			c0-0.7,0.1-1.2,0.2-1.7c0.1-0.5,0.3-0.8,0.6-1.1c0.3-0.3,0.7-0.5,1.2-0.6s1.1-0.2,1.9-0.2h2.8c0.8,0,1.4,0.1,1.9,0.2
			s0.9,0.3,1.2,0.6c0.3,0.3,0.5,0.7,0.6,1.1c0.1,0.5,0.2,1,0.2,1.7v1.1c0,0.7-0.1,1.2-0.2,1.7c-0.1,0.5-0.3,0.8-0.6,1.1
			c-0.3,0.3-0.7,0.5-1.2,0.6s-1.2,0.2-1.9,0.2H774.7z M779.2,333.1c0-0.3,0-0.6-0.1-0.9c-0.1-0.2-0.2-0.4-0.3-0.5s-0.4-0.2-0.6-0.3
			c-0.3,0-0.6-0.1-1-0.1H775c-0.4,0-0.7,0-1,0.1c-0.3,0-0.5,0.1-0.6,0.3c-0.1,0.1-0.2,0.3-0.3,0.5s-0.1,0.5-0.1,0.9v1
			c0,0.3,0,0.6,0.1,0.8c0.1,0.2,0.2,0.4,0.3,0.5s0.4,0.2,0.6,0.3c0.3,0.1,0.6,0.1,1,0.1h2.2c0.4,0,0.7,0,1-0.1
			c0.3,0,0.5-0.1,0.6-0.3c0.1-0.1,0.3-0.3,0.3-0.5c0.1-0.2,0.1-0.5,0.1-0.8L779.2,333.1L779.2,333.1z"/>
	</g>
</g>
</svg>
