<?xml version="1.0" encoding="utf-8"?>
<!-- Generator: Adobe Illustrator 22.0.0, SVG Export Plug-In . SVG Version: 6.00 Build 0)  -->
<svg version="1.1" id="Laag_1" xmlns="http://www.w3.org/2000/svg" xmlns:xlink="http://www.w3.org/1999/xlink" x="0px" y="0px"
	 viewBox="0 0 841.9 425.5" style="enable-background:new 0 0 841.9 425.5;" xml:space="preserve">
<style type="text/css">
	.st0{fill:#FFFFFF;}
</style>
<image style="overflow:visible;enable-background:new    ;" width="1920" height="1216" xlink:href="A59509FD.jpg"  transform="matrix(0.4396 0 0 0.4396 -3.073444e-02 -107.4321)">
</image>
<g>
	<g>
		<path class="st0" d="M682.3,310.2c0-14.6-11.8-26.5-26.5-26.5c-0.7,0-1.4,0-2.1,0.1c-2,0.1-4.5,0.6-7.3,1.5
			c-7.3,2.5-24.9,11.2-40.8,39.6c-0.5-1.5-1.4-4.6-1.3-8.1c-4.5,7.7-4.4,27.9-4.4,27.9l4.2-9c9.5-19.9,20-31.6,28.6-38.4
			c-2,3.5-3.1,7.4-3.3,11.7c-10.3,10-19.2,24.7-26.6,43.8l-1.8-4.9c-1.2,4.1-3,17.8-2.7,21.6c4.8-3,13-15.9,13.8-17.1
			c-2.8,0.8-4.8,1.6-6.1,2.1c7.6-19.8,16.1-32.5,23.7-40.6c0.4,2.8,1.2,5.5,2.5,8c-4.2,4.9-8.7,11.3-13.3,19.9l-4.5,9.5
			c0,0,14.9-10.5,18.8-15.6c-3.6,1.5-6.9,2.4-8.2,2.7c3.2-5.4,6.3-9.7,9.2-13.2c4.8,6.9,12.7,11.4,21.8,11.4
			c6.6,0,12.6-2.4,17.3-6.4c0.3-0.2,0.5-0.4,0.5-0.4C678.9,325,682.3,318,682.3,310.2z M671.7,326.6c-4.5-0.1-17.2-1.3-26.8-11.5
			c4.3-2.9,7.6-3.8,9.3-4.1c6.5,7.6,16.6,8.7,21.9,8.7c0.2,0,0.3,0,0.5,0C675.4,322.3,673.7,324.7,671.7,326.6z M665,314.2
			c-2.7-1-5.4-2.6-7.6-5c2.6-5,3.2-9.7,1.7-21.6c3.4,0.5,6.6,1.8,9.4,3.6C668.8,295,669.2,307.4,665,314.2z M678.6,310.2
			c0,2-0.3,4-0.8,5.8c-1.7,0.1-5.3,0.1-9.3-0.8c3.4-6.2,3.8-15.3,3.7-20.8C676.2,298.5,678.6,304.1,678.6,310.2z M653.9,287.4
			c0.9,0,1.4,0.1,1.6,0.1l0,0l0,0c0.3,2.7,0.6,5,0.7,7c-3.1,0.3-9.8,1.6-18.2,7.2c-1.5,1-3,2.2-4.5,3.4
			C635.6,295.6,643.9,288.3,653.9,287.4z M633,310.6c2.4-2.3,4.7-4.1,6.8-5.5c7.6-5.3,13.8-6.5,16.5-6.8c0,4.2-0.7,6.7-1.9,9.1
			c-2.8,0.3-10.2,2-19.6,11.7C633.6,316.4,633,313.6,633,310.6z M636.5,322.4c1.9-2.1,3.8-3.8,5.5-5.1c8.4,9.1,18.7,11.9,25.3,12.7
			c-3.4,2-7.3,3.1-11.5,3.1C647.7,333.1,640.6,328.8,636.5,322.4z"/>
	</g>
	<g>
		<path class="st0" d="M644.3,364.9V346h-9.8v-4.5h24.9v4.5h-9.8v18.9H644.3z"/>
		<path class="st0" d="M680.9,364.9l-13.7-8.5v8.5H662v-23.4h18.3c1.6,0,3.1,0.1,4.2,0.3c1.2,0.2,2.1,0.6,2.9,1.1
			c0.7,0.5,1.3,1.2,1.6,2.2c0.3,0.9,0.5,2.1,0.5,3.5v1.6c0,1.3-0.2,2.5-0.5,3.3c-0.4,0.9-0.9,1.6-1.7,2.1s-1.7,0.9-2.9,1.1
			s-2.5,0.3-4.1,0.3h-4.1l13.7,7.9H680.9z M684.4,348.8c0-0.6-0.1-1.1-0.2-1.5c-0.1-0.4-0.4-0.7-0.7-0.9c-0.3-0.2-0.8-0.3-1.3-0.4
			s-1.3-0.1-2.1-0.1h-12.8v7.1H680c0.8,0,1.5,0,2.1-0.1s1-0.2,1.3-0.4c0.3-0.2,0.6-0.5,0.7-0.9c0.1-0.4,0.2-0.9,0.2-1.5v-1.3H684.4z
			"/>
		<path class="st0" d="M693.3,364.9v-23.4h5.2v23.4H693.3z"/>
		<path class="st0" d="M711,364.9V346h-9.8v-4.5h24.9v4.5h-9.8v18.9H711z"/>
		<path class="st0" d="M737.6,364.9c-1.7,0-3.1-0.1-4.3-0.4c-1.1-0.3-2.1-0.7-2.7-1.4c-0.7-0.6-1.2-1.5-1.5-2.5s-0.4-2.3-0.4-3.8
			v-7.3c0-1.5,0.1-2.7,0.4-3.7c0.3-1,0.8-1.9,1.5-2.5s1.6-1.1,2.7-1.4c1.1-0.3,2.6-0.4,4.3-0.4h8.9c1.7,0,3.2,0.1,4.3,0.4
			s2.1,0.7,2.7,1.4c0.7,0.6,1.2,1.5,1.5,2.5s0.4,2.3,0.4,3.7v7.3c0,1.5-0.1,2.7-0.4,3.8c-0.3,1-0.8,1.8-1.5,2.5
			c-0.7,0.6-1.6,1.1-2.7,1.4c-1.1,0.3-2.6,0.4-4.3,0.4H737.6z M750.2,349.7c0-0.7-0.1-1.3-0.2-1.8s-0.3-0.9-0.6-1.2
			c-0.3-0.3-0.7-0.5-1.2-0.6s-1.1-0.2-1.9-0.2h-8.4c-0.8,0-1.5,0.1-2,0.2s-0.9,0.3-1.2,0.6c-0.3,0.3-0.5,0.7-0.6,1.2
			s-0.2,1.1-0.2,1.8v6.9c0,0.8,0.1,1.4,0.2,1.9c0.1,0.5,0.3,0.9,0.6,1.2c0.3,0.3,0.7,0.5,1.2,0.6s1.2,0.2,2,0.2h8.4
			c0.8,0,1.4-0.1,1.9-0.2s0.9-0.3,1.2-0.6c0.3-0.3,0.5-0.7,0.6-1.2s0.2-1.1,0.2-1.9V349.7z"/>
		<path class="st0" d="M784,365.4c-0.5,0-1.1-0.1-1.5-0.3s-0.9-0.5-1.3-0.8l-17-16.1v16.6h-4.8v-21.7c0-0.7,0.3-1.3,0.8-1.6
			c0.5-0.4,1.2-0.5,2-0.5c0.6,0,1.1,0.1,1.5,0.2c0.4,0.2,0.7,0.4,1,0.6l17.2,16.6v-16.9h4.9v21.7c0,0.8-0.2,1.3-0.7,1.7
			C785.4,365.2,784.7,365.4,784,365.4z"/>
	</g>
	<g>
		<path class="st0" d="M701.6,337l-5.8-5.1v5.1h-2.3v-10.5h2.3v5l5.7-5h3.2l-6,5.1l6.2,5.4H701.6z"/>
		<path class="st0" d="M708.1,337c-0.6,0-1.1-0.1-1.5-0.2s-0.7-0.2-0.9-0.4c-0.2-0.2-0.4-0.4-0.5-0.7c-0.1-0.3-0.1-0.6-0.1-0.9V334
			c0-0.3,0-0.7,0.1-0.9c0.1-0.3,0.2-0.5,0.5-0.7c0.2-0.2,0.5-0.3,0.9-0.4s0.8-0.1,1.4-0.1h6.2v-0.3c0-0.5-0.1-0.9-0.3-1.1
			s-0.6-0.3-1.1-0.3h-2.3v-1.6h2.3c0.7,0,1.2,0.1,1.7,0.2s0.9,0.3,1.1,0.6c0.3,0.3,0.5,0.6,0.7,1c0.1,0.4,0.2,0.8,0.2,1.4v2
			c0,0.6-0.1,1.1-0.2,1.5c-0.1,0.4-0.3,0.7-0.6,1s-0.7,0.4-1.2,0.5s-1.1,0.2-1.8,0.2L708.1,337L708.1,337z M714.2,333.2h-5.9
			c-0.3,0-0.5,0.1-0.6,0.2c-0.2,0.1-0.2,0.3-0.2,0.7v0.6c0,0.3,0.1,0.5,0.2,0.6c0.2,0.1,0.4,0.2,0.7,0.2h4.3c0.3,0,0.5,0,0.7-0.1
			c0.2,0,0.4-0.1,0.5-0.2s0.2-0.3,0.3-0.5s0.1-0.4,0.1-0.8L714.2,333.2L714.2,333.2z"/>
		<path class="st0" d="M716.3,339.4v-2h0.5c0.3,0,0.5,0,0.7-0.1c0.2,0,0.4-0.1,0.5-0.2s0.2-0.2,0.3-0.4c0.1-0.2,0.1-0.4,0.1-0.6
			v-7.4h2.3v7.4c0,1.1-0.3,1.9-0.9,2.4c-0.6,0.5-1.5,0.8-2.9,0.8h-0.6V339.4z M719.1,328.1c-0.3,0-0.5-0.1-0.6-0.2s-0.2-0.3-0.2-0.5
			v-0.9c0-0.2,0.1-0.4,0.2-0.5c0.1-0.1,0.3-0.2,0.6-0.2h0.8c0.3,0,0.5,0.1,0.6,0.2s0.2,0.3,0.2,0.5v0.9c0,0.2-0.1,0.4-0.2,0.5
			c-0.1,0.1-0.3,0.2-0.6,0.2H719.1z"/>
		<path class="st0" d="M725.3,337c-0.6,0-1.1-0.1-1.5-0.2s-0.7-0.2-0.9-0.4c-0.2-0.2-0.4-0.4-0.5-0.7c-0.1-0.3-0.1-0.6-0.1-0.9V334
			c0-0.3,0-0.7,0.1-0.9c0.1-0.3,0.2-0.5,0.5-0.7c0.2-0.2,0.5-0.3,0.9-0.4s0.8-0.1,1.4-0.1h6.2v-0.3c0-0.5-0.1-0.9-0.3-1.1
			s-0.6-0.3-1.1-0.3h-2.3v-1.6h2.3c0.7,0,1.2,0.1,1.7,0.2s0.9,0.3,1.1,0.6c0.3,0.3,0.5,0.6,0.7,1c0.1,0.4,0.2,0.8,0.2,1.4v2
			c0,0.6-0.1,1.1-0.2,1.5c-0.1,0.4-0.3,0.7-0.6,1s-0.7,0.4-1.2,0.5s-1.1,0.2-1.8,0.2L725.3,337L725.3,337z M731.3,333.2h-5.9
			c-0.3,0-0.5,0.1-0.6,0.2c-0.2,0.1-0.2,0.3-0.2,0.7v0.6c0,0.3,0.1,0.5,0.2,0.6c0.2,0.1,0.4,0.2,0.7,0.2h4.3c0.3,0,0.5,0,0.7-0.1
			c0.2,0,0.4-0.1,0.5-0.2s0.2-0.3,0.3-0.5s0.1-0.4,0.1-0.8L731.3,333.2L731.3,333.2z"/>
		<path class="st0" d="M742.5,337l-4.8-3.9v3.9h-2.3v-11h2.3v6.6l4.8-3.9h3l-5.2,4l5.3,4.3H742.5z"/>
		<path class="st0" d="M753.4,328.6c0.8,0,1.4,0.1,1.9,0.2s0.9,0.3,1.2,0.6c0.3,0.3,0.5,0.7,0.7,1.1c0.1,0.5,0.2,1,0.2,1.7v1.1
			c0,0.7-0.1,1.2-0.2,1.7c-0.1,0.5-0.3,0.8-0.7,1.1c-0.3,0.3-0.7,0.5-1.2,0.6s-1.2,0.2-1.9,0.2h-4.6v2.5h-2.3v-7.2
			c0-0.7,0.1-1.2,0.2-1.7c0.1-0.5,0.3-0.8,0.7-1.1c0.3-0.3,0.7-0.5,1.2-0.6s1.2-0.2,1.9-0.2L753.4,328.6L753.4,328.6z M755.2,332.3
			c0-0.4,0-0.7-0.1-0.9c-0.1-0.2-0.2-0.4-0.3-0.5c-0.2-0.1-0.4-0.2-0.6-0.2c-0.3,0-0.6-0.1-1-0.1h-2.6c-0.4,0-0.7,0-0.9,0.1
			s-0.4,0.1-0.6,0.3c-0.1,0.1-0.2,0.3-0.3,0.5s-0.1,0.5-0.1,0.8v2.7h4.4c0.4,0,0.7,0,1-0.1c0.3,0,0.5-0.1,0.6-0.2
			c0.2-0.1,0.3-0.3,0.3-0.5c0.1-0.2,0.1-0.5,0.1-0.9L755.2,332.3L755.2,332.3z"/>
		<path class="st0" d="M763.1,337c-0.8,0-1.4-0.1-1.9-0.2s-0.9-0.3-1.2-0.6c-0.3-0.3-0.5-0.7-0.7-1.1c-0.1-0.5-0.2-1-0.2-1.7v-1.1
			c0-0.7,0.1-1.2,0.2-1.7c0.1-0.5,0.3-0.8,0.7-1.1c0.3-0.3,0.7-0.5,1.2-0.6s1.2-0.2,1.9-0.2h2.8c0.8,0,1.4,0.1,1.9,0.2
			s0.9,0.3,1.2,0.6s0.5,0.7,0.7,1.1c0.1,0.5,0.2,1,0.2,1.7v1.1c0,0.7-0.1,1.2-0.2,1.7c-0.1,0.5-0.3,0.8-0.7,1.1s-0.7,0.5-1.2,0.6
			s-1.2,0.2-1.9,0.2H763.1z M767.6,332.3c0-0.3,0-0.6-0.1-0.9c-0.1-0.2-0.2-0.4-0.3-0.5s-0.4-0.2-0.6-0.3c-0.3,0-0.6-0.1-1-0.1h-2.2
			c-0.4,0-0.7,0-1,0.1c-0.3,0-0.5,0.1-0.6,0.3c-0.1,0.1-0.3,0.3-0.3,0.5c-0.1,0.2-0.1,0.5-0.1,0.9v1c0,0.3,0,0.6,0.1,0.9
			c0.1,0.2,0.2,0.4,0.3,0.5s0.4,0.2,0.6,0.3c0.3,0.1,0.6,0.1,1,0.1h2.2c0.4,0,0.7,0,1-0.1c0.3,0,0.5-0.1,0.6-0.3
			c0.1-0.1,0.3-0.3,0.3-0.5c0.1-0.2,0.1-0.5,0.1-0.9V332.3z"/>
		<path class="st0" d="M771.7,337v-11h2.3v11H771.7z"/>
		<path class="st0" d="M779.7,337c-0.8,0-1.4-0.1-1.9-0.2s-0.9-0.3-1.2-0.6c-0.3-0.3-0.5-0.7-0.7-1.1c-0.1-0.5-0.2-1-0.2-1.7v-1.1
			c0-0.7,0.1-1.2,0.2-1.7c0.1-0.5,0.3-0.8,0.7-1.1c0.3-0.3,0.7-0.5,1.2-0.6s1.2-0.2,1.9-0.2h2.8c0.8,0,1.4,0.1,1.9,0.2
			s0.9,0.3,1.2,0.6s0.5,0.7,0.7,1.1c0.1,0.5,0.2,1,0.2,1.7v1.1c0,0.7-0.1,1.2-0.2,1.7c-0.1,0.5-0.3,0.8-0.7,1.1s-0.7,0.5-1.2,0.6
			s-1.2,0.2-1.9,0.2H779.7z M784.3,332.3c0-0.3,0-0.6-0.1-0.9c-0.1-0.2-0.2-0.4-0.3-0.5s-0.4-0.2-0.6-0.3c-0.3,0-0.6-0.1-1-0.1H780
			c-0.4,0-0.7,0-1,0.1c-0.3,0-0.5,0.1-0.6,0.3c-0.1,0.1-0.3,0.3-0.3,0.5c-0.1,0.2-0.1,0.5-0.1,0.9v1c0,0.3,0,0.6,0.1,0.9
			c0.1,0.2,0.2,0.4,0.3,0.5s0.4,0.2,0.6,0.3c0.3,0.1,0.6,0.1,1,0.1h2.2c0.4,0,0.7,0,1-0.1c0.3,0,0.5-0.1,0.6-0.3
			c0.1-0.1,0.3-0.3,0.3-0.5c0.1-0.2,0.1-0.5,0.1-0.9v-1H784.3z"/>
	</g>
</g>
</svg>
