<?xml version="1.0" encoding="utf-8"?>
<!-- Generator: Adobe Illustrator 22.0.0, SVG Export Plug-In . SVG Version: 6.00 Build 0)  -->
<svg version="1.1" id="Laag_1" xmlns="http://www.w3.org/2000/svg" xmlns:xlink="http://www.w3.org/1999/xlink" x="0px" y="0px"
	 viewBox="0 0 841.9 383.3" style="enable-background:new 0 0 841.9 383.3;" xml:space="preserve">
<style type="text/css">
	.st0{fill:#FCCD42;}
	.st1{fill:#1B69A0;}
	.st2{fill:#FFFFFF;}
</style>
<rect x="35.6" y="6.1" class="st0" width="768" height="366"/>
<rect x="378.4" y="6.1" class="st1" width="427.6" height="366"/>
<g>
	<path class="st2" d="M79.7,264.4c0-0.9,0.2-1.7,0.5-2.5s0.7-1.6,1.3-2.3c0.6-0.7,1.3-1.2,2.1-1.6c0.8-0.4,1.8-0.6,2.9-0.6
		c1.3,0,2.4,0.3,3.3,0.9s1.6,1.3,2,2.2l-1.4,0.9c-0.2-0.5-0.5-0.8-0.8-1.1c-0.3-0.3-0.6-0.6-1-0.7c-0.4-0.2-0.7-0.3-1.1-0.4
		c-0.4-0.1-0.7-0.1-1.1-0.1c-0.8,0-1.5,0.2-2.1,0.5c-0.6,0.3-1.1,0.8-1.5,1.3c-0.4,0.5-0.7,1.1-0.9,1.8c-0.2,0.7-0.3,1.3-0.3,2
		c0,0.7,0.1,1.5,0.4,2.1c0.2,0.7,0.6,1.3,1,1.8c0.4,0.5,1,0.9,1.6,1.2s1.3,0.5,2,0.5c0.4,0,0.8,0,1.1-0.1c0.4-0.1,0.8-0.2,1.1-0.5
		c0.4-0.2,0.7-0.5,1-0.8c0.3-0.3,0.6-0.7,0.8-1.1l1.5,0.8c-0.2,0.5-0.5,1-1,1.4c-0.4,0.4-0.9,0.8-1.4,1c-0.5,0.3-1.1,0.5-1.6,0.6
		c-0.6,0.1-1.1,0.2-1.7,0.2c-1,0-1.9-0.2-2.7-0.6c-0.8-0.4-1.5-1-2.1-1.7c-0.6-0.7-1.1-1.5-1.4-2.3
		C79.9,266.2,79.7,265.4,79.7,264.4z"/>
	<path class="st2" d="M106.6,271.6v-11l-4.7,8.4h-1l-4.7-8.4v11h-1.8v-14.2h1.9l5.1,9.2l5.2-9.2h1.9v14.2H106.6z"/>
	<path class="st2" d="M112.3,257.4l4.3,7.4l4.3-7.4h2l-5.4,9v5.2h-1.8v-5.2l-5.4-9H112.3z"/>
	<path class="st2" d="M124.9,271.6v-14.2h1.8v7.8l7.3-7.9h1.9l-5.7,6.3l6,7.9h-2l-5.2-6.9l-2.5,2.6v4.3H124.9z"/>
	<path class="st2" d="M137.5,263.5v-2.2h1.5v2.2H137.5z M137.5,271.6v-2.2h1.5v2.2H137.5z"/>
	<path class="st2" d="M156.5,265.8c0,0.9-0.1,1.7-0.4,2.4c-0.3,0.7-0.6,1.4-1.1,1.9s-1,1-1.6,1.3s-1.3,0.5-2,0.5
		c-0.7,0-1.4-0.2-2-0.5c-0.6-0.3-1.2-0.7-1.6-1.3s-0.8-1.2-1-1.9c-0.3-0.7-0.4-1.6-0.4-2.4s0.1-1.7,0.4-2.4c0.3-0.7,0.6-1.4,1-1.9
		s1-1,1.6-1.3c0.6-0.3,1.3-0.5,2-0.5c0.7,0,1.4,0.2,2,0.5c0.6,0.3,1.2,0.7,1.6,1.3s0.8,1.2,1.1,1.9S156.5,264.9,156.5,265.8z
		 M154.7,265.8c0-0.7-0.1-1.3-0.2-1.8c-0.2-0.5-0.4-1-0.7-1.4c-0.3-0.4-0.6-0.7-1-0.9c-0.4-0.2-0.8-0.3-1.3-0.3
		c-0.5,0-0.9,0.1-1.4,0.3c-0.4,0.2-0.8,0.5-1,0.9c-0.3,0.4-0.5,0.9-0.7,1.4s-0.2,1.1-0.2,1.8c0,0.7,0.1,1.3,0.2,1.8s0.4,1,0.7,1.4
		c0.3,0.4,0.6,0.7,1,0.9s0.9,0.3,1.4,0.3c0.5,0,0.9-0.1,1.3-0.3s0.7-0.5,1-0.9c0.3-0.4,0.5-0.8,0.7-1.4
		C154.6,267.1,154.7,266.5,154.7,265.8z"/>
	<path class="st2" d="M158.9,267v-1.6h5.9v1.6H158.9z"/>
	<path class="st2" d="M174.6,270v1.6h-7.2V270h2.8v-7.8c-0.1,0.2-0.3,0.3-0.6,0.5c-0.3,0.2-0.5,0.3-0.9,0.5c-0.3,0.2-0.6,0.3-1,0.4
		c-0.3,0.1-0.6,0.2-0.9,0.2v-1.7c0.3,0,0.6-0.1,1-0.3c0.4-0.2,0.7-0.4,1-0.6c0.3-0.2,0.6-0.4,0.8-0.6c0.2-0.2,0.4-0.3,0.4-0.4h1.8
		v9.8H174.6z"/>
	<path class="st2" d="M186.3,266.9c0,0.7-0.1,1.3-0.4,1.9c-0.3,0.6-0.6,1.1-1.1,1.6c-0.5,0.4-1,0.8-1.6,1.1c-0.6,0.3-1.3,0.4-2,0.4
		c-0.8,0-1.5-0.1-2.1-0.4c-0.6-0.3-1.2-0.7-1.6-1.2c-0.5-0.5-0.8-1.2-1-1.9c-0.2-0.8-0.4-1.6-0.4-2.6c0-1.4,0.1-2.6,0.4-3.7
		s0.6-1.9,1.1-2.6s1-1.2,1.7-1.6c0.7-0.3,1.4-0.5,2.2-0.5c0.9,0,1.8,0.2,2.5,0.7c0.8,0.4,1.3,1.1,1.8,1.9l-1.1,1.1
		c-0.3-0.6-0.7-1.1-1.3-1.5c-0.6-0.4-1.2-0.5-1.9-0.5c-0.5,0-1,0.1-1.5,0.4c-0.4,0.2-0.8,0.6-1.1,1.1c-0.3,0.5-0.6,1.1-0.7,1.8
		s-0.3,1.5-0.3,2.3c0.3-0.7,0.8-1.2,1.4-1.7c0.7-0.4,1.4-0.6,2.2-0.6c0.7,0,1.3,0.1,1.9,0.4c0.6,0.2,1.1,0.6,1.6,1s0.8,0.9,1,1.5
		S186.3,266.3,186.3,266.9z M181.2,270.3c0.5,0,0.9-0.1,1.3-0.3c0.4-0.2,0.8-0.4,1.1-0.7c0.3-0.3,0.5-0.7,0.7-1.1
		c0.2-0.4,0.3-0.8,0.3-1.3c0-0.5-0.1-0.9-0.3-1.3s-0.4-0.8-0.7-1.1c-0.3-0.3-0.7-0.5-1.1-0.7c-0.4-0.2-0.8-0.3-1.3-0.3
		c-0.5,0-0.9,0.1-1.3,0.3c-0.4,0.2-0.8,0.4-1.1,0.7c-0.3,0.3-0.5,0.7-0.7,1.1c-0.2,0.4-0.3,0.8-0.3,1.3c0,0.5,0.1,0.9,0.3,1.3
		c0.2,0.4,0.4,0.8,0.7,1.1c0.3,0.3,0.7,0.6,1.1,0.7C180.3,270.2,180.8,270.3,181.2,270.3z"/>
	<path class="st2" d="M188.4,267v-1.6h5.9v1.6H188.4z"/>
	<path class="st2" d="M204.1,270v1.6H197V270h2.8v-7.8c-0.1,0.2-0.3,0.3-0.6,0.5c-0.3,0.2-0.5,0.3-0.9,0.5c-0.3,0.2-0.6,0.3-1,0.4
		c-0.3,0.1-0.6,0.2-0.9,0.2v-1.7c0.3,0,0.6-0.1,1-0.3c0.4-0.2,0.7-0.4,1-0.6c0.3-0.2,0.6-0.4,0.8-0.6c0.2-0.2,0.4-0.3,0.4-0.4h1.8
		v9.8H204.1z"/>
	<path class="st2" d="M215.8,265.8c0,0.9-0.1,1.7-0.4,2.4c-0.3,0.7-0.6,1.4-1.1,1.9s-1,1-1.6,1.3s-1.3,0.5-2,0.5
		c-0.7,0-1.4-0.2-2-0.5c-0.6-0.3-1.2-0.7-1.6-1.3s-0.8-1.2-1-1.9c-0.3-0.7-0.4-1.6-0.4-2.4s0.1-1.7,0.4-2.4c0.3-0.7,0.6-1.4,1-1.9
		s1-1,1.6-1.3c0.6-0.3,1.3-0.5,2-0.5c0.7,0,1.4,0.2,2,0.5c0.6,0.3,1.2,0.7,1.6,1.3s0.8,1.2,1.1,1.9S215.8,264.9,215.8,265.8z
		 M214,265.8c0-0.7-0.1-1.3-0.2-1.8c-0.2-0.5-0.4-1-0.7-1.4c-0.3-0.4-0.6-0.7-1-0.9c-0.4-0.2-0.8-0.3-1.3-0.3
		c-0.5,0-0.9,0.1-1.4,0.3c-0.4,0.2-0.8,0.5-1,0.9c-0.3,0.4-0.5,0.9-0.7,1.4s-0.2,1.1-0.2,1.8c0,0.7,0.1,1.3,0.2,1.8s0.4,1,0.7,1.4
		c0.3,0.4,0.6,0.7,1,0.9s0.9,0.3,1.4,0.3c0.5,0,0.9-0.1,1.3-0.3s0.7-0.5,1-0.9c0.3-0.4,0.5-0.8,0.7-1.4
		C214,267.1,214,266.5,214,265.8z"/>
	<path class="st2" d="M228.1,265.8c0,0.9-0.1,1.7-0.4,2.4c-0.3,0.7-0.6,1.4-1.1,1.9s-1,1-1.6,1.3s-1.3,0.5-2,0.5
		c-0.7,0-1.4-0.2-2-0.5c-0.6-0.3-1.2-0.7-1.6-1.3s-0.8-1.2-1-1.9c-0.3-0.7-0.4-1.6-0.4-2.4s0.1-1.7,0.4-2.4c0.3-0.7,0.6-1.4,1-1.9
		s1-1,1.6-1.3c0.6-0.3,1.3-0.5,2-0.5c0.7,0,1.4,0.2,2,0.5c0.6,0.3,1.2,0.7,1.6,1.3s0.8,1.2,1.1,1.9S228.1,264.9,228.1,265.8z
		 M226.3,265.8c0-0.7-0.1-1.3-0.2-1.8c-0.2-0.5-0.4-1-0.7-1.4c-0.3-0.4-0.6-0.7-1-0.9c-0.4-0.2-0.8-0.3-1.3-0.3
		c-0.5,0-0.9,0.1-1.4,0.3c-0.4,0.2-0.8,0.5-1,0.9c-0.3,0.4-0.5,0.9-0.7,1.4s-0.2,1.1-0.2,1.8c0,0.7,0.1,1.3,0.2,1.8s0.4,1,0.7,1.4
		c0.3,0.4,0.6,0.7,1,0.9s0.9,0.3,1.4,0.3c0.5,0,0.9-0.1,1.3-0.3s0.7-0.5,1-0.9c0.3-0.4,0.5-0.8,0.7-1.4
		C226.2,267.1,226.3,266.5,226.3,265.8z"/>
	<path class="st2" d="M230.5,267v-1.6h5.9v1.6H230.5z"/>
	<path class="st2" d="M248.8,265.8c0,0.9-0.1,1.7-0.4,2.4c-0.3,0.7-0.6,1.4-1.1,1.9s-1,1-1.6,1.3s-1.3,0.5-2,0.5
		c-0.7,0-1.4-0.2-2-0.5c-0.6-0.3-1.2-0.7-1.6-1.3s-0.8-1.2-1-1.9c-0.3-0.7-0.4-1.6-0.4-2.4s0.1-1.7,0.4-2.4c0.3-0.7,0.6-1.4,1-1.9
		s1-1,1.6-1.3c0.6-0.3,1.3-0.5,2-0.5c0.7,0,1.4,0.2,2,0.5c0.6,0.3,1.2,0.7,1.6,1.3s0.8,1.2,1.1,1.9S248.8,264.9,248.8,265.8z
		 M247.1,265.8c0-0.7-0.1-1.3-0.2-1.8c-0.2-0.5-0.4-1-0.7-1.4c-0.3-0.4-0.6-0.7-1-0.9c-0.4-0.2-0.8-0.3-1.3-0.3
		c-0.5,0-0.9,0.1-1.4,0.3c-0.4,0.2-0.8,0.5-1,0.9c-0.3,0.4-0.5,0.9-0.7,1.4s-0.2,1.1-0.2,1.8c0,0.7,0.1,1.3,0.2,1.8s0.4,1,0.7,1.4
		c0.3,0.4,0.6,0.7,1,0.9s0.9,0.3,1.4,0.3c0.5,0,0.9-0.1,1.3-0.3s0.7-0.5,1-0.9c0.3-0.4,0.5-0.8,0.7-1.4
		C247,267.1,247.1,266.5,247.1,265.8z"/>
	<path class="st2" d="M80.7,296.6v-14.2h6.1c0.6,0,1.2,0.1,1.7,0.4c0.5,0.3,1,0.6,1.4,1c0.4,0.4,0.7,0.9,0.9,1.5s0.3,1.1,0.3,1.6
		c0,0.5-0.1,1-0.2,1.4c-0.1,0.5-0.3,0.9-0.6,1.3c-0.3,0.4-0.6,0.7-0.9,1c-0.4,0.3-0.8,0.5-1.2,0.6l3.4,5.4h-2l-3.2-5.1h-3.8v5.1
		H80.7z M82.5,289.9h4.3c0.4,0,0.7-0.1,1-0.2c0.3-0.2,0.6-0.4,0.8-0.6c0.2-0.3,0.4-0.6,0.5-1s0.2-0.7,0.2-1.1c0-0.4-0.1-0.8-0.2-1.1
		c-0.1-0.4-0.3-0.7-0.6-0.9c-0.2-0.3-0.5-0.5-0.8-0.6c-0.3-0.2-0.6-0.2-1-0.2h-4.2V289.9z"/>
	<path class="st2" d="M103.8,294.7c-1.3,1.3-2.7,2-4.3,2c-0.9,0-1.8-0.2-2.6-0.6c-0.8-0.4-1.5-1-2.1-1.6c-0.6-0.7-1.1-1.4-1.4-2.3
		c-0.3-0.9-0.5-1.8-0.5-2.7c0-1,0.2-1.9,0.5-2.7c0.3-0.9,0.8-1.6,1.4-2.3c0.6-0.7,1.3-1.2,2.1-1.6c0.8-0.4,1.7-0.6,2.6-0.6
		c1.4,0,2.5,0.3,3.4,0.9c0.9,0.6,1.6,1.3,2,2.2l-1.4,1c-0.4-0.8-1-1.4-1.7-1.8c-0.7-0.4-1.5-0.6-2.4-0.6c-0.7,0-1.4,0.2-2,0.5
		c-0.6,0.3-1.1,0.7-1.5,1.2c-0.4,0.5-0.7,1.1-1,1.8c-0.2,0.7-0.3,1.4-0.3,2.1c0,0.8,0.1,1.5,0.4,2.1c0.3,0.7,0.6,1.3,1,1.8
		s1,0.9,1.6,1.2s1.3,0.4,2,0.4c1.5,0,2.9-0.7,4.2-2.2v-2h-3.1v-1.4h4.6v7.1h-1.5V294.7z"/>
	<path class="st2" d="M119,293c0,0.5-0.1,1-0.3,1.5s-0.5,0.8-0.9,1.2s-0.8,0.6-1.3,0.7c-0.5,0.2-1,0.3-1.6,0.3h-6.7v-14.2h7.1
		c0.5,0,0.9,0.1,1.3,0.3s0.7,0.5,1,0.8c0.3,0.3,0.5,0.7,0.6,1.2c0.2,0.4,0.2,0.9,0.2,1.3c0,0.7-0.2,1.4-0.5,2
		c-0.4,0.6-0.9,1-1.5,1.3c0.8,0.2,1.5,0.7,1.9,1.3C118.7,291.3,119,292.1,119,293z M109.9,284v4.7h4.5c0.3,0,0.6-0.1,0.9-0.2
		s0.5-0.3,0.7-0.5c0.2-0.2,0.3-0.5,0.5-0.8c0.1-0.3,0.2-0.6,0.2-0.9c0-0.3-0.1-0.6-0.2-0.9c-0.1-0.3-0.3-0.5-0.4-0.8
		c-0.2-0.2-0.4-0.4-0.7-0.5c-0.3-0.1-0.5-0.2-0.8-0.2H109.9z M117.2,292.7c0-0.3-0.1-0.6-0.2-0.9s-0.3-0.6-0.5-0.8
		c-0.2-0.2-0.4-0.4-0.7-0.5c-0.3-0.1-0.6-0.2-0.9-0.2h-5.1v4.9h4.9c0.3,0,0.6-0.1,0.9-0.2c0.3-0.1,0.5-0.3,0.7-0.5
		c0.2-0.2,0.4-0.5,0.5-0.8C117.1,293.3,117.2,293,117.2,292.7z"/>
	<path class="st2" d="M121.1,288.5v-2.2h1.5v2.2H121.1z M121.1,296.6v-2.2h1.5v2.2H121.1z"/>
	<path class="st2" d="M129.7,296.6c0-0.5,0-1,0.1-1.5c0.1-0.5,0.3-0.9,0.5-1.3c0.2-0.4,0.6-0.8,1-1.2c0.4-0.4,1-0.8,1.6-1.2
		c0.4-0.2,0.8-0.4,1.2-0.6c0.4-0.2,0.8-0.4,1.1-0.7c0.3-0.2,0.6-0.5,0.8-0.8c0.2-0.3,0.3-0.6,0.3-0.9c0-0.2-0.1-0.5-0.2-0.7
		c-0.1-0.2-0.3-0.4-0.5-0.6c-0.2-0.2-0.5-0.3-0.8-0.4c-0.3-0.1-0.6-0.2-1-0.2c-0.4,0-0.8,0.1-1.1,0.2s-0.6,0.3-0.9,0.4
		s-0.5,0.3-0.7,0.5c-0.2,0.2-0.3,0.4-0.5,0.5l-1.1-1.3c0.1-0.1,0.3-0.3,0.5-0.5c0.3-0.2,0.6-0.4,1-0.6s0.8-0.4,1.3-0.5
		s1.1-0.2,1.7-0.2c0.6,0,1.2,0.1,1.7,0.3c0.5,0.2,0.9,0.4,1.3,0.7c0.3,0.3,0.6,0.6,0.8,1c0.2,0.4,0.3,0.8,0.3,1.3
		c0,0.5-0.1,1-0.3,1.4c-0.2,0.4-0.5,0.7-0.8,1c-0.3,0.3-0.7,0.5-1.1,0.8c-0.4,0.2-0.7,0.4-1,0.5c-0.3,0.1-0.6,0.3-1,0.5
		c-0.4,0.2-0.7,0.4-1.1,0.7c-0.3,0.3-0.6,0.5-0.9,0.9c-0.2,0.3-0.4,0.7-0.5,1h6.8v1.6H129.7z"/>
	<path class="st2" d="M145.2,290.4c0.7,0,1.3,0.1,1.8,0.3c0.6,0.2,1.1,0.5,1.5,0.9c0.4,0.4,0.7,0.9,1,1.4c0.2,0.6,0.4,1.2,0.4,1.8
		c0,0.7-0.1,1.4-0.4,1.9c-0.3,0.6-0.6,1.1-1.1,1.5s-1,0.7-1.6,1c-0.6,0.2-1.3,0.3-2,0.3c-1,0-1.9-0.2-2.7-0.7
		c-0.8-0.5-1.4-1.1-1.8-1.9l1.1-1c0.4,0.6,0.9,1.1,1.5,1.5c0.6,0.4,1.3,0.6,2,0.6c0.5,0,0.9-0.1,1.3-0.2c0.4-0.2,0.7-0.4,1-0.6
		s0.5-0.6,0.7-1c0.2-0.4,0.2-0.8,0.2-1.3c0-0.4-0.1-0.8-0.2-1.2c-0.2-0.4-0.4-0.7-0.7-1c-0.3-0.3-0.6-0.5-1-0.6
		c-0.4-0.1-0.8-0.2-1.2-0.2c-0.6,0-1.1,0.1-1.6,0.4c-0.5,0.3-0.9,0.6-1.2,1.1h-1.6c0-0.1,0-0.2,0.1-0.5c0.1-0.3,0.1-0.6,0.2-1
		c0.1-0.4,0.2-0.8,0.3-1.3c0.1-0.5,0.2-1,0.3-1.5c0.2-1.1,0.5-2.4,0.8-3.9h6.9v1.6h-5.6l-0.9,4.5c0.3-0.3,0.7-0.5,1.1-0.7
		C144.1,290.5,144.6,290.4,145.2,290.4z"/>
	<path class="st2" d="M156.2,290.4c0.7,0,1.3,0.1,1.8,0.3c0.6,0.2,1.1,0.5,1.5,0.9c0.4,0.4,0.7,0.9,1,1.4c0.2,0.6,0.4,1.2,0.4,1.8
		c0,0.7-0.1,1.4-0.4,1.9c-0.3,0.6-0.6,1.1-1.1,1.5s-1,0.7-1.6,1c-0.6,0.2-1.3,0.3-2,0.3c-1,0-1.9-0.2-2.7-0.7
		c-0.8-0.5-1.4-1.1-1.8-1.9l1.1-1c0.4,0.6,0.9,1.1,1.5,1.5c0.6,0.4,1.3,0.6,2,0.6c0.5,0,0.9-0.1,1.3-0.2c0.4-0.2,0.7-0.4,1-0.6
		s0.5-0.6,0.7-1c0.2-0.4,0.2-0.8,0.2-1.3c0-0.4-0.1-0.8-0.2-1.2c-0.2-0.4-0.4-0.7-0.7-1c-0.3-0.3-0.6-0.5-1-0.6
		c-0.4-0.1-0.8-0.2-1.2-0.2c-0.6,0-1.1,0.1-1.6,0.4c-0.5,0.3-0.9,0.6-1.2,1.1h-1.6c0-0.1,0-0.2,0.1-0.5c0.1-0.3,0.1-0.6,0.2-1
		c0.1-0.4,0.2-0.8,0.3-1.3c0.1-0.5,0.2-1,0.3-1.5c0.2-1.1,0.5-2.4,0.8-3.9h6.9v1.6h-5.6l-0.9,4.5c0.3-0.3,0.7-0.5,1.1-0.7
		C155.1,290.5,155.6,290.4,156.2,290.4z"/>
	<path class="st2" d="M162.8,292v-1.6h5.9v1.6H162.8z"/>
	<path class="st2" d="M170.8,296.6c0-0.5,0-1,0.1-1.5c0.1-0.5,0.3-0.9,0.5-1.3c0.2-0.4,0.6-0.8,1-1.2c0.4-0.4,1-0.8,1.6-1.2
		c0.4-0.2,0.8-0.4,1.2-0.6c0.4-0.2,0.8-0.4,1.1-0.7c0.3-0.2,0.6-0.5,0.8-0.8c0.2-0.3,0.3-0.6,0.3-0.9c0-0.2-0.1-0.5-0.2-0.7
		c-0.1-0.2-0.3-0.4-0.5-0.6c-0.2-0.2-0.5-0.3-0.8-0.4c-0.3-0.1-0.6-0.2-1-0.2c-0.4,0-0.8,0.1-1.1,0.2s-0.6,0.3-0.9,0.4
		s-0.5,0.3-0.7,0.5c-0.2,0.2-0.3,0.4-0.5,0.5l-1.1-1.3c0.1-0.1,0.3-0.3,0.5-0.5c0.3-0.2,0.6-0.4,1-0.6s0.8-0.4,1.3-0.5
		s1.1-0.2,1.7-0.2c0.6,0,1.2,0.1,1.7,0.3c0.5,0.2,0.9,0.4,1.3,0.7c0.3,0.3,0.6,0.6,0.8,1c0.2,0.4,0.3,0.8,0.3,1.3
		c0,0.5-0.1,1-0.3,1.4c-0.2,0.4-0.5,0.7-0.8,1c-0.3,0.3-0.7,0.5-1.1,0.8c-0.4,0.2-0.7,0.4-1,0.5c-0.3,0.1-0.6,0.3-1,0.5
		c-0.4,0.2-0.7,0.4-1.1,0.7c-0.3,0.3-0.6,0.5-0.9,0.9c-0.2,0.3-0.4,0.7-0.5,1h6.8v1.6H170.8z"/>
	<path class="st2" d="M189.2,295v1.6H182V295h2.8v-7.8c-0.1,0.2-0.3,0.3-0.6,0.5c-0.3,0.2-0.5,0.3-0.9,0.5c-0.3,0.2-0.6,0.3-1,0.4
		c-0.3,0.1-0.6,0.2-0.9,0.2v-1.7c0.3,0,0.6-0.1,1-0.3c0.4-0.2,0.7-0.4,1-0.6c0.3-0.2,0.6-0.4,0.8-0.6c0.2-0.2,0.4-0.3,0.4-0.4h1.8
		v9.8H189.2z"/>
	<path class="st2" d="M198.2,295v1.6H191V295h2.8v-7.8c-0.1,0.2-0.3,0.3-0.6,0.5c-0.3,0.2-0.5,0.3-0.9,0.5c-0.3,0.2-0.6,0.3-1,0.4
		c-0.3,0.1-0.6,0.2-0.9,0.2v-1.7c0.3,0,0.6-0.1,1-0.3c0.4-0.2,0.7-0.4,1-0.6c0.3-0.2,0.6-0.4,0.8-0.6c0.2-0.2,0.4-0.3,0.4-0.4h1.8
		v9.8H198.2z"/>
	<path class="st2" d="M199.7,292v-1.6h5.9v1.6H199.7z"/>
	<path class="st2" d="M218.1,290.8c0,0.9-0.1,1.7-0.4,2.4c-0.3,0.7-0.6,1.4-1.1,1.9s-1,1-1.6,1.3s-1.3,0.5-2,0.5
		c-0.7,0-1.4-0.2-2-0.5c-0.6-0.3-1.2-0.7-1.6-1.3s-0.8-1.2-1-1.9c-0.3-0.7-0.4-1.6-0.4-2.4s0.1-1.7,0.4-2.4c0.3-0.7,0.6-1.4,1-1.9
		s1-1,1.6-1.3c0.6-0.3,1.3-0.5,2-0.5c0.7,0,1.4,0.2,2,0.5c0.6,0.3,1.2,0.7,1.6,1.3s0.8,1.2,1.1,1.9S218.1,289.9,218.1,290.8z
		 M216.3,290.8c0-0.7-0.1-1.3-0.2-1.8c-0.2-0.5-0.4-1-0.7-1.4c-0.3-0.4-0.6-0.7-1-0.9c-0.4-0.2-0.8-0.3-1.3-0.3
		c-0.5,0-0.9,0.1-1.4,0.3c-0.4,0.2-0.8,0.5-1,0.9c-0.3,0.4-0.5,0.9-0.7,1.4s-0.2,1.1-0.2,1.8c0,0.7,0.1,1.3,0.2,1.8s0.4,1,0.7,1.4
		c0.3,0.4,0.6,0.7,1,0.9s0.9,0.3,1.4,0.3c0.5,0,0.9-0.1,1.3-0.3s0.7-0.5,1-0.9c0.3-0.4,0.5-0.8,0.7-1.4
		C216.3,292.1,216.3,291.5,216.3,290.8z"/>
	<path class="st2" d="M80.7,321.6v-14.2h5.9c0.6,0,1.2,0.1,1.7,0.4c0.5,0.3,1,0.6,1.4,1c0.4,0.4,0.7,0.9,0.9,1.5
		c0.2,0.5,0.3,1.1,0.3,1.6c0,0.6-0.1,1.2-0.3,1.7c-0.2,0.5-0.5,1-0.9,1.5s-0.8,0.8-1.3,1c-0.5,0.3-1.1,0.4-1.7,0.4h-4.2v5.1H80.7z
		 M82.5,314.9h4.1c0.4,0,0.7-0.1,1-0.2c0.3-0.2,0.6-0.4,0.8-0.6c0.2-0.3,0.4-0.6,0.5-0.9c0.1-0.4,0.2-0.7,0.2-1.1
		c0-0.4-0.1-0.8-0.2-1.2c-0.1-0.4-0.3-0.7-0.6-0.9c-0.2-0.3-0.5-0.5-0.8-0.6c-0.3-0.1-0.6-0.2-1-0.2h-4V314.9z"/>
	<path class="st2" d="M96.4,307.4h1.5l5.8,14.2h-1.9l-1.7-4.2h-6l-1.7,4.2h-1.9L96.4,307.4z M99.7,316.1l-2.6-6.6l-2.6,6.6H99.7z"/>
	<path class="st2" d="M107.4,310.8v10.8h-1.8v-14.2h1.4l8.8,11.1v-11h1.8v14.2h-1.5L107.4,310.8z"/>
	<path class="st2" d="M131.3,309h-4.9v12.6h-1.8V309h-4.9v-1.6h11.6V309z"/>
	<path class="st2" d="M138.7,321.7c-1,0-1.9-0.2-2.7-0.6c-0.8-0.4-1.5-0.9-2.1-1.6c-0.6-0.7-1-1.4-1.4-2.3c-0.3-0.9-0.5-1.8-0.5-2.7
		c0-0.9,0.2-1.9,0.5-2.7c0.3-0.9,0.8-1.6,1.4-2.3c0.6-0.7,1.3-1.2,2.1-1.6c0.8-0.4,1.7-0.6,2.7-0.6c1,0,1.9,0.2,2.7,0.6
		c0.8,0.4,1.5,1,2.1,1.7c0.6,0.7,1,1.4,1.4,2.3c0.3,0.9,0.5,1.7,0.5,2.6c0,0.9-0.2,1.9-0.5,2.7c-0.3,0.9-0.8,1.6-1.4,2.3
		s-1.3,1.2-2.1,1.6C140.5,321.5,139.6,321.7,138.7,321.7z M133.8,314.5c0,0.7,0.1,1.4,0.4,2.1c0.2,0.7,0.6,1.3,1,1.8
		c0.4,0.5,0.9,0.9,1.5,1.2c0.6,0.3,1.3,0.5,2,0.5c0.8,0,1.4-0.2,2-0.5c0.6-0.3,1.1-0.8,1.5-1.3c0.4-0.5,0.7-1.1,1-1.8
		c0.2-0.7,0.3-1.3,0.3-2c0-0.7-0.1-1.4-0.3-2.1c-0.2-0.7-0.6-1.3-1-1.8c-0.4-0.5-0.9-0.9-1.5-1.2c-0.6-0.3-1.3-0.5-2-0.5
		c-0.8,0-1.4,0.2-2,0.5c-0.6,0.3-1.1,0.7-1.5,1.3c-0.4,0.5-0.7,1.1-1,1.8C133.9,313.2,133.8,313.9,133.8,314.5z"/>
	<path class="st2" d="M149.7,310.8v10.8h-1.8v-14.2h1.4l8.8,11.1v-11h1.8v14.2h-1.5L149.7,310.8z"/>
	<path class="st2" d="M172.9,320v1.6h-9.6v-14.2h9.5v1.6h-7.7v4.6h6.7v1.5h-6.7v4.9H172.9z"/>
	<path class="st2" d="M174.9,313.5v-2.2h1.5v2.2H174.9z M174.9,321.6v-2.2h1.5v2.2H174.9z"/>
	<path class="st2" d="M191.3,320v1.6h-7.2V320h2.8v-7.8c-0.1,0.2-0.3,0.3-0.6,0.5c-0.3,0.2-0.5,0.3-0.9,0.5c-0.3,0.2-0.6,0.3-1,0.4
		c-0.3,0.1-0.6,0.2-0.9,0.2v-1.7c0.3,0,0.6-0.1,1-0.3c0.4-0.2,0.7-0.4,1-0.6c0.3-0.2,0.6-0.4,0.8-0.6c0.2-0.2,0.4-0.3,0.4-0.4h1.8
		v9.8H191.3z"/>
	<path class="st2" d="M200.3,320v1.6h-7.2V320h2.8v-7.8c-0.1,0.2-0.3,0.3-0.6,0.5c-0.3,0.2-0.5,0.3-0.9,0.5c-0.3,0.2-0.6,0.3-1,0.4
		c-0.3,0.1-0.6,0.2-0.9,0.2v-1.7c0.3,0,0.6-0.1,1-0.3c0.4-0.2,0.7-0.4,1-0.6c0.3-0.2,0.6-0.4,0.8-0.6c0.2-0.2,0.4-0.3,0.4-0.4h1.8
		v9.8H200.3z"/>
	<path class="st2" d="M206.4,315.4c0.7,0,1.3,0.1,1.8,0.3c0.6,0.2,1.1,0.5,1.5,0.9c0.4,0.4,0.7,0.9,1,1.4c0.2,0.6,0.4,1.2,0.4,1.8
		c0,0.7-0.1,1.4-0.4,1.9c-0.3,0.6-0.6,1.1-1.1,1.5s-1,0.7-1.6,1c-0.6,0.2-1.3,0.3-2,0.3c-1,0-1.9-0.2-2.7-0.7
		c-0.8-0.5-1.4-1.1-1.8-1.9l1.1-1c0.4,0.6,0.9,1.1,1.5,1.5c0.6,0.4,1.3,0.6,2,0.6c0.5,0,0.9-0.1,1.3-0.2c0.4-0.2,0.7-0.4,1-0.6
		s0.5-0.6,0.7-1c0.2-0.4,0.2-0.8,0.2-1.3c0-0.4-0.1-0.8-0.2-1.2c-0.2-0.4-0.4-0.7-0.7-1c-0.3-0.3-0.6-0.5-1-0.6
		c-0.4-0.1-0.8-0.2-1.2-0.2c-0.6,0-1.1,0.1-1.6,0.4c-0.5,0.3-0.9,0.6-1.2,1.1h-1.6c0-0.1,0-0.2,0.1-0.5c0.1-0.3,0.1-0.6,0.2-1
		c0.1-0.4,0.2-0.8,0.3-1.3c0.1-0.5,0.2-1,0.3-1.5c0.2-1.1,0.5-2.4,0.8-3.9h6.9v1.6h-5.6l-0.9,4.5c0.3-0.3,0.7-0.5,1.1-0.7
		C205.3,315.5,205.8,315.4,206.4,315.4z"/>
	<path class="st2" d="M219.2,320.1c0.8,0,1.5-0.2,2.1-0.5c0.5-0.3,1-0.7,1.3-1.3c0.3-0.5,0.6-1.1,0.7-1.8c0.1-0.7,0.2-1.3,0.2-2
		v-7.2h1.8v7.2c0,1-0.1,1.9-0.3,2.7s-0.6,1.6-1,2.3s-1.1,1.2-1.9,1.5c-0.8,0.4-1.7,0.6-2.8,0.6c-1.1,0-2.1-0.2-2.9-0.6
		c-0.8-0.4-1.4-0.9-1.9-1.6c-0.5-0.7-0.8-1.4-1-2.3c-0.2-0.9-0.3-1.7-0.3-2.6v-7.2h1.8v7.2c0,0.7,0.1,1.4,0.2,2
		c0.1,0.7,0.4,1.2,0.7,1.8s0.8,0.9,1.3,1.2C217.8,320,218.4,320.1,219.2,320.1z"/>
	<path class="st2" d="M92.1,332.4v14.2h-1.8v-6.5h-7.8v6.5h-1.8v-14.2h1.8v6.1h7.8v-6.1H92.1z"/>
	<path class="st2" d="M105.1,345v1.6h-9.6v-14.2h9.5v1.6h-7.7v4.6h6.7v1.5h-6.7v4.9H105.1z"/>
	<path class="st2" d="M107.9,332.4l4.3,5.9l4.3-5.9h2l-5.3,7.2l5.2,7h-2l-4.2-5.7l-4.2,5.7h-2l5.2-7l-5.3-7.2H107.9z"/>
	<path class="st2" d="M119.9,338.5v-2.2h1.5v2.2H119.9z M119.9,346.6v-2.2h1.5v2.2H119.9z"/>
	<path class="st2" d="M140.8,337.7h-2.7l-0.9,3.6h2.7v1.4h-3l-1,4h-1.5l1-4h-3.4l-1,4h-1.5l1-4h-2.3v-1.4h2.6l0.9-3.6h-2.6v-1.3h2.9
		l1-4h1.5l-1,4h3.4l1-4h1.5l-1,4h2.4V337.7z M135.8,341.3l0.9-3.6h-3.4l-0.9,3.6H135.8z"/>
	<path class="st2" d="M152.2,333.4c-0.4,0-0.7,0.1-1,0.2c-0.3,0.2-0.5,0.3-0.6,0.6c-0.2,0.2-0.3,0.5-0.4,0.8s-0.1,0.6-0.1,0.9v0.3
		h3.1v1.4h-3.1v9.1h-1.8v-9.1h-3v9.1h-1.8v-9.1h-1.4v-1.4h1.4v-0.1c0-0.5,0.1-0.9,0.2-1.3s0.3-0.8,0.6-1.1c0.3-0.3,0.6-0.6,1-0.8
		c0.4-0.2,0.9-0.3,1.4-0.3c0.5,0,0.9,0.1,1.3,0.2s0.7,0.2,1.1,0.4c0.3-0.4,0.7-0.7,1.1-0.9c0.4-0.2,1-0.4,1.6-0.4
		c0.6,0,1.1,0.1,1.4,0.3s0.6,0.3,0.8,0.4l-0.4,1.3c-0.2-0.1-0.3-0.2-0.6-0.3C152.8,333.4,152.5,333.4,152.2,333.4z M148.3,336.2
		c0-0.3,0-0.5,0.1-0.9s0.1-0.6,0.2-0.8c-0.2-0.1-0.5-0.2-0.8-0.3c-0.3,0-0.5-0.1-0.8-0.1c-0.7,0-1.1,0.2-1.4,0.6s-0.4,0.9-0.4,1.4
		v0.1H148.3z"/>
	<path class="st2" d="M159.1,346.8c-0.7,0-1.4-0.1-2-0.4c-0.6-0.3-1.1-0.7-1.6-1.2s-0.8-1.1-1-1.7s-0.4-1.3-0.4-2.1
		c0-0.7,0.1-1.4,0.3-2.1s0.6-1.2,1-1.7c0.4-0.5,0.9-0.9,1.5-1.2c0.6-0.3,1.2-0.4,1.9-0.4c0.8,0,1.6,0.2,2.3,0.7s1.2,1,1.6,1.6V332
		h1.8v12.4c0,0.4,0.2,0.6,0.6,0.6v1.5c-0.2,0-0.3,0-0.5,0.1c-0.1,0-0.2,0-0.3,0c-0.3,0-0.6-0.1-0.9-0.3c-0.3-0.2-0.4-0.5-0.4-0.8
		v-0.9c-0.4,0.7-1,1.2-1.6,1.6C160.6,346.7,159.9,346.8,159.1,346.8z M159.5,345.3c0.3,0,0.6-0.1,1-0.2c0.3-0.1,0.7-0.3,1-0.5
		c0.3-0.2,0.6-0.5,0.8-0.8c0.2-0.3,0.4-0.6,0.4-0.9v-3c-0.1-0.3-0.3-0.6-0.5-1c-0.2-0.3-0.5-0.6-0.8-0.8c-0.3-0.2-0.6-0.4-1-0.5
		c-0.3-0.1-0.7-0.2-1-0.2c-0.5,0-1,0.1-1.4,0.3c-0.4,0.2-0.8,0.5-1.1,0.9c-0.3,0.4-0.5,0.8-0.7,1.3c-0.2,0.5-0.2,1-0.2,1.5
		c0,0.5,0.1,1,0.3,1.5c0.2,0.5,0.4,0.9,0.8,1.2c0.3,0.3,0.7,0.6,1.1,0.8C158.5,345.2,159,345.3,159.5,345.3z"/>
	<path class="st2" d="M173.1,341.9c0.9,0.1,1.5,0.5,2,1.2s0.8,1.4,0.8,2.4c0,0.6-0.1,1.2-0.3,1.7c-0.2,0.5-0.6,0.9-1,1.3
		c-0.4,0.4-0.9,0.6-1.5,0.8c-0.6,0.2-1.2,0.3-2,0.3c-1,0-1.9-0.2-2.7-0.6c-0.8-0.4-1.4-0.9-1.8-1.6l1.2-1.2c0.3,0.5,0.7,1,1.2,1.3
		s1.2,0.5,2,0.5c0.9,0,1.6-0.2,2.2-0.6c0.5-0.4,0.8-1,0.8-1.9s-0.3-1.5-0.9-2c-0.6-0.5-1.4-0.8-2.5-0.8h-0.5v-1.5h0.6
		c1,0,1.7-0.2,2.2-0.7s0.8-1,0.8-1.8s-0.2-1.2-0.7-1.6c-0.5-0.3-1.1-0.5-1.9-0.5c-0.7,0-1.4,0.2-1.9,0.5c-0.6,0.3-1,0.8-1.3,1.3
		l-1.1-1.1c0.2-0.3,0.4-0.6,0.7-0.9c0.3-0.3,0.6-0.5,1-0.7c0.4-0.2,0.8-0.4,1.3-0.5c0.5-0.1,0.9-0.2,1.4-0.2c0.6,0,1.2,0.1,1.7,0.3
		c0.5,0.2,1,0.4,1.4,0.7c0.4,0.3,0.7,0.7,0.9,1.1c0.2,0.4,0.3,0.9,0.3,1.5c0,0.4-0.1,0.8-0.2,1.1c-0.1,0.4-0.3,0.7-0.5,1
		c-0.2,0.3-0.5,0.5-0.8,0.7C173.9,341.7,173.5,341.9,173.1,341.9z"/>
	<path class="st2" d="M188,340.8c0,0.9-0.1,1.7-0.4,2.4c-0.3,0.7-0.6,1.4-1.1,1.9s-1,1-1.6,1.3s-1.3,0.5-2,0.5c-0.7,0-1.4-0.2-2-0.5
		c-0.6-0.3-1.2-0.7-1.6-1.3s-0.8-1.2-1-1.9c-0.3-0.7-0.4-1.6-0.4-2.4s0.1-1.7,0.4-2.4c0.3-0.7,0.6-1.4,1-1.9s1-1,1.6-1.3
		c0.6-0.3,1.3-0.5,2-0.5c0.7,0,1.4,0.2,2,0.5c0.6,0.3,1.2,0.7,1.6,1.3s0.8,1.2,1.1,1.9S188,339.9,188,340.8z M186.2,340.8
		c0-0.7-0.1-1.3-0.2-1.8c-0.2-0.5-0.4-1-0.7-1.4c-0.3-0.4-0.6-0.7-1-0.9c-0.4-0.2-0.8-0.3-1.3-0.3c-0.5,0-0.9,0.1-1.4,0.3
		c-0.4,0.2-0.8,0.5-1,0.9c-0.3,0.4-0.5,0.9-0.7,1.4s-0.2,1.1-0.2,1.8c0,0.7,0.1,1.3,0.2,1.8s0.4,1,0.7,1.4c0.3,0.4,0.6,0.7,1,0.9
		s0.9,0.3,1.4,0.3c0.5,0,0.9-0.1,1.3-0.3s0.7-0.5,1-0.9c0.3-0.4,0.5-0.8,0.7-1.4C186.1,342.1,186.2,341.5,186.2,340.8z"/>
	<path class="st2" d="M200.2,340.8c0,0.9-0.1,1.7-0.4,2.4c-0.3,0.7-0.6,1.4-1.1,1.9s-1,1-1.6,1.3s-1.3,0.5-2,0.5
		c-0.7,0-1.4-0.2-2-0.5c-0.6-0.3-1.2-0.7-1.6-1.3s-0.8-1.2-1-1.9c-0.3-0.7-0.4-1.6-0.4-2.4s0.1-1.7,0.4-2.4c0.3-0.7,0.6-1.4,1-1.9
		s1-1,1.6-1.3c0.6-0.3,1.3-0.5,2-0.5c0.7,0,1.4,0.2,2,0.5c0.6,0.3,1.2,0.7,1.6,1.3s0.8,1.2,1.1,1.9S200.2,339.9,200.2,340.8z
		 M198.5,340.8c0-0.7-0.1-1.3-0.2-1.8c-0.2-0.5-0.4-1-0.7-1.4c-0.3-0.4-0.6-0.7-1-0.9c-0.4-0.2-0.8-0.3-1.3-0.3
		c-0.5,0-0.9,0.1-1.4,0.3c-0.4,0.2-0.8,0.5-1,0.9c-0.3,0.4-0.5,0.9-0.7,1.4s-0.2,1.1-0.2,1.8c0,0.7,0.1,1.3,0.2,1.8s0.4,1,0.7,1.4
		c0.3,0.4,0.6,0.7,1,0.9s0.9,0.3,1.4,0.3c0.5,0,0.9-0.1,1.3-0.3s0.7-0.5,1-0.9c0.3-0.4,0.5-0.8,0.7-1.4
		C198.4,342.1,198.5,341.5,198.5,340.8z"/>
</g>
<g>
	<g>
		<path class="st2" d="M435.5,266.9c0-0.9,0.1-1.7,0.5-2.5c0.3-0.8,0.7-1.6,1.3-2.3c0.6-0.7,1.3-1.2,2.1-1.6
			c0.8-0.4,1.8-0.6,2.9-0.6c1.3,0,2.4,0.3,3.3,0.9c0.9,0.6,1.6,1.3,2,2.2l-1.4,0.9c-0.2-0.5-0.5-0.8-0.8-1.1c-0.3-0.3-0.6-0.6-1-0.7
			c-0.4-0.2-0.7-0.3-1.1-0.4c-0.4-0.1-0.7-0.1-1.1-0.1c-0.8,0-1.5,0.2-2.1,0.5c-0.6,0.3-1.1,0.8-1.5,1.3c-0.4,0.5-0.7,1.1-0.9,1.8
			c-0.2,0.7-0.3,1.3-0.3,2c0,0.7,0.1,1.5,0.4,2.1c0.2,0.7,0.6,1.3,1,1.8c0.4,0.5,1,0.9,1.6,1.2c0.6,0.3,1.3,0.5,2,0.5
			c0.4,0,0.8,0,1.2-0.1c0.4-0.1,0.8-0.2,1.1-0.5c0.4-0.2,0.7-0.5,1-0.8s0.6-0.7,0.8-1.1l1.5,0.8c-0.2,0.5-0.5,1-1,1.4
			c-0.4,0.4-0.9,0.8-1.4,1c-0.5,0.3-1.1,0.5-1.6,0.6s-1.1,0.2-1.7,0.2c-1,0-1.9-0.2-2.7-0.6s-1.5-1-2.1-1.7
			c-0.6-0.7-1.1-1.5-1.4-2.3C435.7,268.7,435.5,267.8,435.5,266.9z"/>
		<path class="st2" d="M462.3,274.1v-11l-4.7,8.4h-1l-4.7-8.4v11h-1.8v-14.2h1.9l5.1,9.2l5.2-9.2h1.9v14.2H462.3z"/>
		<path class="st2" d="M468.1,259.9l4.3,7.4l4.3-7.4h2l-5.4,9v5.2h-1.8v-5.2l-5.4-9H468.1z"/>
		<path class="st2" d="M480.6,274.1v-14.2h1.8v7.8l7.3-7.9h1.9l-5.7,6.3l6,7.9h-2l-5.2-6.9l-2.5,2.6v4.3H480.6z"/>
		<path class="st2" d="M493.3,266v-2.2h1.5v2.2H493.3z M493.3,274.1v-2.2h1.5v2.2H493.3z"/>
		<path class="st2" d="M509.6,272.5v1.6h-7.2v-1.6h2.8v-7.8c-0.1,0.2-0.3,0.3-0.6,0.5c-0.3,0.2-0.5,0.3-0.9,0.5
			c-0.3,0.2-0.6,0.3-1,0.4s-0.6,0.2-0.9,0.2v-1.7c0.3,0,0.6-0.1,1-0.3c0.4-0.2,0.7-0.4,1-0.6c0.3-0.2,0.6-0.4,0.8-0.6
			c0.2-0.2,0.4-0.3,0.4-0.4h1.8v9.8H509.6z"/>
		<path class="st2" d="M521.3,268.2c0,0.9-0.1,1.7-0.4,2.4c-0.3,0.7-0.6,1.4-1.1,1.9s-1,1-1.6,1.3c-0.6,0.3-1.3,0.5-2,0.5
			c-0.7,0-1.4-0.2-2-0.5s-1.2-0.7-1.6-1.3c-0.4-0.5-0.8-1.2-1-1.9c-0.3-0.7-0.4-1.6-0.4-2.4s0.1-1.7,0.4-2.4s0.6-1.4,1-1.9
			c0.4-0.5,1-1,1.6-1.3c0.6-0.3,1.3-0.5,2-0.5c0.7,0,1.4,0.2,2,0.5c0.6,0.3,1.2,0.7,1.6,1.3s0.8,1.2,1.1,1.9
			C521.1,266.5,521.3,267.3,521.3,268.2z M519.5,268.2c0-0.7-0.1-1.3-0.2-1.8s-0.4-1-0.7-1.4c-0.3-0.4-0.6-0.7-1-0.9
			c-0.4-0.2-0.8-0.3-1.3-0.3c-0.5,0-0.9,0.1-1.3,0.3c-0.4,0.2-0.8,0.5-1,0.9c-0.3,0.4-0.5,0.9-0.7,1.4s-0.2,1.1-0.2,1.8
			c0,0.7,0.1,1.3,0.2,1.8s0.4,1,0.7,1.4c0.3,0.4,0.6,0.7,1,0.9c0.4,0.2,0.9,0.3,1.3,0.3c0.5,0,0.9-0.1,1.3-0.3s0.7-0.5,1-0.9
			s0.5-0.8,0.7-1.4S519.5,268.9,519.5,268.2z"/>
		<path class="st2" d="M533.5,268.2c0,0.9-0.1,1.7-0.4,2.4c-0.3,0.7-0.6,1.4-1.1,1.9s-1,1-1.6,1.3c-0.6,0.3-1.3,0.5-2,0.5
			c-0.7,0-1.4-0.2-2-0.5s-1.2-0.7-1.6-1.3c-0.4-0.5-0.8-1.2-1-1.9c-0.3-0.7-0.4-1.6-0.4-2.4s0.1-1.7,0.4-2.4s0.6-1.4,1-1.9
			c0.4-0.5,1-1,1.6-1.3c0.6-0.3,1.3-0.5,2-0.5c0.7,0,1.4,0.2,2,0.5c0.6,0.3,1.2,0.7,1.6,1.3s0.8,1.2,1.1,1.9
			C533.4,266.5,533.5,267.3,533.5,268.2z M531.8,268.2c0-0.7-0.1-1.3-0.2-1.8s-0.4-1-0.7-1.4c-0.3-0.4-0.6-0.7-1-0.9
			c-0.4-0.2-0.8-0.3-1.3-0.3c-0.5,0-0.9,0.1-1.3,0.3c-0.4,0.2-0.8,0.5-1,0.9c-0.3,0.4-0.5,0.9-0.7,1.4s-0.2,1.1-0.2,1.8
			c0,0.7,0.1,1.3,0.2,1.8s0.4,1,0.7,1.4c0.3,0.4,0.6,0.7,1,0.9c0.4,0.2,0.9,0.3,1.3,0.3c0.5,0,0.9-0.1,1.3-0.3s0.7-0.5,1-0.9
			s0.5-0.8,0.7-1.4S531.8,268.9,531.8,268.2z"/>
		<path class="st2" d="M535.9,269.4v-1.6h5.9v1.6H535.9z"/>
		<path class="st2" d="M548.7,267.8c0.7,0,1.3,0.1,1.8,0.3c0.6,0.2,1.1,0.5,1.5,0.9c0.4,0.4,0.7,0.9,1,1.4c0.2,0.6,0.4,1.2,0.4,1.8
			c0,0.7-0.1,1.4-0.4,1.9c-0.3,0.6-0.6,1.1-1.1,1.5s-1,0.7-1.6,1s-1.3,0.3-2,0.3c-1,0-1.9-0.2-2.7-0.7c-0.8-0.5-1.4-1.1-1.8-1.9
			l1.1-1c0.4,0.6,0.9,1.1,1.5,1.5c0.6,0.4,1.3,0.6,2,0.6c0.5,0,0.9-0.1,1.3-0.2c0.4-0.2,0.7-0.4,1-0.6s0.5-0.6,0.7-1
			c0.2-0.4,0.2-0.8,0.2-1.3c0-0.4-0.1-0.8-0.2-1.2c-0.2-0.4-0.4-0.7-0.6-1c-0.3-0.3-0.6-0.5-1-0.6c-0.4-0.1-0.8-0.2-1.2-0.2
			c-0.6,0-1.1,0.1-1.6,0.4c-0.5,0.3-0.9,0.6-1.2,1.1h-1.6c0-0.1,0-0.2,0.1-0.5c0.1-0.3,0.1-0.6,0.2-1s0.2-0.8,0.3-1.3
			c0.1-0.5,0.2-1,0.3-1.5c0.2-1.1,0.5-2.4,0.8-3.9h6.9v1.6H547l-0.9,4.5c0.3-0.3,0.7-0.5,1.1-0.7
			C547.6,267.9,548.1,267.8,548.7,267.8z"/>
		<path class="st2" d="M565.2,268.2c0,0.9-0.1,1.7-0.4,2.4c-0.3,0.7-0.6,1.4-1.1,1.9s-1,1-1.6,1.3c-0.6,0.3-1.3,0.5-2,0.5
			c-0.7,0-1.4-0.2-2-0.5s-1.2-0.7-1.6-1.3c-0.4-0.5-0.8-1.2-1-1.9c-0.3-0.7-0.4-1.6-0.4-2.4s0.1-1.7,0.4-2.4s0.6-1.4,1-1.9
			c0.4-0.5,1-1,1.6-1.3c0.6-0.3,1.3-0.5,2-0.5c0.7,0,1.4,0.2,2,0.5c0.6,0.3,1.2,0.7,1.6,1.3s0.8,1.2,1.1,1.9
			C565.1,266.5,565.2,267.3,565.2,268.2z M563.5,268.2c0-0.7-0.1-1.3-0.2-1.8s-0.4-1-0.7-1.4c-0.3-0.4-0.6-0.7-1-0.9
			c-0.4-0.2-0.8-0.3-1.3-0.3c-0.5,0-0.9,0.1-1.3,0.3c-0.4,0.2-0.8,0.5-1,0.9c-0.3,0.4-0.5,0.9-0.7,1.4s-0.2,1.1-0.2,1.8
			c0,0.7,0.1,1.3,0.2,1.8s0.4,1,0.7,1.4c0.3,0.4,0.6,0.7,1,0.9c0.4,0.2,0.9,0.3,1.3,0.3c0.5,0,0.9-0.1,1.3-0.3s0.7-0.5,1-0.9
			s0.5-0.8,0.7-1.4S563.5,268.9,563.5,268.2z"/>
		<path class="st2" d="M567.6,269.4v-1.6h5.9v1.6H567.6z"/>
		<path class="st2" d="M583.3,272.5v1.6h-7.2v-1.6h2.8v-7.8c-0.1,0.2-0.3,0.3-0.6,0.5c-0.3,0.2-0.5,0.3-0.9,0.5
			c-0.3,0.2-0.6,0.3-1,0.4s-0.6,0.2-0.9,0.2v-1.7c0.3,0,0.6-0.1,1-0.3c0.4-0.2,0.7-0.4,1-0.6c0.3-0.2,0.6-0.4,0.8-0.6
			c0.2-0.2,0.4-0.3,0.4-0.4h1.8v9.8H583.3z"/>
		<path class="st2" d="M589.4,267.8c0.7,0,1.3,0.1,1.8,0.3c0.6,0.2,1.1,0.5,1.5,0.9c0.4,0.4,0.7,0.9,1,1.4c0.2,0.6,0.4,1.2,0.4,1.8
			c0,0.7-0.1,1.4-0.4,1.9c-0.3,0.6-0.6,1.1-1.1,1.5s-1,0.7-1.6,1s-1.3,0.3-2,0.3c-1,0-1.9-0.2-2.7-0.7c-0.8-0.5-1.4-1.1-1.8-1.9
			l1.1-1c0.4,0.6,0.9,1.1,1.5,1.5c0.6,0.4,1.3,0.6,2,0.6c0.5,0,0.9-0.1,1.3-0.2c0.4-0.2,0.7-0.4,1-0.6s0.5-0.6,0.7-1
			c0.2-0.4,0.2-0.8,0.2-1.3c0-0.4-0.1-0.8-0.2-1.2c-0.2-0.4-0.4-0.7-0.6-1c-0.3-0.3-0.6-0.5-1-0.6c-0.4-0.1-0.8-0.2-1.2-0.2
			c-0.6,0-1.1,0.1-1.6,0.4c-0.5,0.3-0.9,0.6-1.2,1.1h-1.6c0-0.1,0-0.2,0.1-0.5c0.1-0.3,0.1-0.6,0.2-1s0.2-0.8,0.3-1.3
			c0.1-0.5,0.2-1,0.3-1.5c0.2-1.1,0.5-2.4,0.8-3.9h6.9v1.6h-5.6l-0.9,4.5c0.3-0.3,0.7-0.5,1.1-0.7
			C588.3,267.9,588.8,267.8,589.4,267.8z"/>
		<path class="st2" d="M596,269.4v-1.6h5.9v1.6H596z"/>
		<path class="st2" d="M614.4,268.2c0,0.9-0.1,1.7-0.4,2.4c-0.3,0.7-0.6,1.4-1.1,1.9s-1,1-1.6,1.3c-0.6,0.3-1.3,0.5-2,0.5
			c-0.7,0-1.4-0.2-2-0.5s-1.2-0.7-1.6-1.3c-0.4-0.5-0.8-1.2-1-1.9c-0.3-0.7-0.4-1.6-0.4-2.4s0.1-1.7,0.4-2.4s0.6-1.4,1-1.9
			c0.4-0.5,1-1,1.6-1.3c0.6-0.3,1.3-0.5,2-0.5c0.7,0,1.4,0.2,2,0.5c0.6,0.3,1.2,0.7,1.6,1.3s0.8,1.2,1.1,1.9
			C614.3,266.5,614.4,267.3,614.4,268.2z M612.6,268.2c0-0.7-0.1-1.3-0.2-1.8s-0.4-1-0.7-1.4c-0.3-0.4-0.6-0.7-1-0.9
			c-0.4-0.2-0.8-0.3-1.3-0.3c-0.5,0-0.9,0.1-1.3,0.3c-0.4,0.2-0.8,0.5-1,0.9c-0.3,0.4-0.5,0.9-0.7,1.4s-0.2,1.1-0.2,1.8
			c0,0.7,0.1,1.3,0.2,1.8s0.4,1,0.7,1.4c0.3,0.4,0.6,0.7,1,0.9c0.4,0.2,0.9,0.3,1.3,0.3c0.5,0,0.9-0.1,1.3-0.3s0.7-0.5,1-0.9
			s0.5-0.8,0.7-1.4S612.6,268.9,612.6,268.2z"/>
		<path class="st2" d="M436.4,299.1v-14.2h6.1c0.6,0,1.2,0.1,1.7,0.4c0.5,0.3,1,0.6,1.4,1c0.4,0.4,0.7,0.9,0.9,1.5s0.3,1.1,0.3,1.6
			c0,0.5-0.1,1-0.2,1.4c-0.1,0.5-0.3,0.9-0.6,1.3c-0.3,0.4-0.6,0.7-0.9,1c-0.4,0.3-0.8,0.5-1.2,0.6l3.4,5.4h-2L442,294h-3.8v5.1
			H436.4z M438.2,292.4h4.3c0.4,0,0.7-0.1,1-0.2c0.3-0.2,0.6-0.4,0.8-0.6c0.2-0.3,0.4-0.6,0.5-1s0.2-0.7,0.2-1.1
			c0-0.4-0.1-0.8-0.2-1.1c-0.1-0.4-0.3-0.7-0.6-0.9c-0.2-0.3-0.5-0.5-0.8-0.6s-0.6-0.2-1-0.2h-4.2V292.4z"/>
		<path class="st2" d="M459.6,297.2c-1.3,1.3-2.7,2-4.3,2c-0.9,0-1.8-0.2-2.6-0.6c-0.8-0.4-1.5-1-2.1-1.6c-0.6-0.7-1-1.4-1.4-2.3
			c-0.3-0.9-0.5-1.8-0.5-2.7c0-1,0.2-1.9,0.5-2.7c0.3-0.9,0.8-1.6,1.4-2.3c0.6-0.7,1.3-1.2,2.1-1.6s1.7-0.6,2.6-0.6
			c1.4,0,2.5,0.3,3.4,0.9c0.9,0.6,1.6,1.3,2,2.2l-1.4,1c-0.4-0.8-1-1.4-1.7-1.8c-0.7-0.4-1.5-0.6-2.4-0.6c-0.7,0-1.4,0.2-2,0.5
			c-0.6,0.3-1.1,0.7-1.5,1.2c-0.4,0.5-0.7,1.1-1,1.8c-0.2,0.7-0.3,1.4-0.3,2.1c0,0.8,0.1,1.5,0.4,2.1c0.3,0.7,0.6,1.3,1,1.8
			c0.4,0.5,1,0.9,1.6,1.2s1.3,0.4,2,0.4c1.5,0,2.9-0.7,4.2-2.2v-2h-3.1V292h4.6v7.1h-1.5V297.2z"/>
		<path class="st2" d="M474.7,295.4c0,0.5-0.1,1-0.3,1.5c-0.2,0.5-0.5,0.8-0.9,1.2s-0.8,0.6-1.3,0.7c-0.5,0.2-1,0.3-1.6,0.3h-6.7
			v-14.2h7.1c0.5,0,0.9,0.1,1.3,0.3c0.4,0.2,0.7,0.5,1,0.8s0.5,0.7,0.6,1.2c0.2,0.4,0.2,0.9,0.2,1.3c0,0.7-0.2,1.4-0.5,2
			c-0.4,0.6-0.9,1-1.5,1.3c0.8,0.2,1.5,0.7,1.9,1.3C474.5,293.8,474.7,294.5,474.7,295.4z M465.6,286.4v4.7h4.5
			c0.3,0,0.6-0.1,0.9-0.2c0.3-0.1,0.5-0.3,0.7-0.5c0.2-0.2,0.3-0.5,0.5-0.8c0.1-0.3,0.2-0.6,0.2-0.9c0-0.3-0.1-0.6-0.2-0.9
			c-0.1-0.3-0.3-0.5-0.4-0.8c-0.2-0.2-0.4-0.4-0.7-0.5c-0.3-0.1-0.5-0.2-0.8-0.2H465.6z M472.9,295.1c0-0.3-0.1-0.6-0.2-0.9
			c-0.1-0.3-0.3-0.6-0.5-0.8c-0.2-0.2-0.4-0.4-0.7-0.5c-0.3-0.1-0.6-0.2-0.9-0.2h-5.1v4.9h4.9c0.3,0,0.6-0.1,0.9-0.2
			c0.3-0.1,0.5-0.3,0.7-0.5c0.2-0.2,0.4-0.5,0.5-0.8C472.9,295.7,472.9,295.4,472.9,295.1z"/>
		<path class="st2" d="M476.8,291v-2.2h1.5v2.2H476.8z M476.8,299.1v-2.2h1.5v2.2H476.8z"/>
		<path class="st2" d="M495.8,293.2c0,0.9-0.1,1.7-0.4,2.4c-0.3,0.7-0.6,1.4-1.1,1.9s-1,1-1.6,1.3c-0.6,0.3-1.3,0.5-2,0.5
			c-0.7,0-1.4-0.2-2-0.5s-1.2-0.7-1.6-1.3c-0.4-0.5-0.8-1.2-1-1.9c-0.3-0.7-0.4-1.6-0.4-2.4s0.1-1.7,0.4-2.4s0.6-1.4,1-1.9
			c0.4-0.5,1-1,1.6-1.3c0.6-0.3,1.3-0.5,2-0.5c0.7,0,1.4,0.2,2,0.5c0.6,0.3,1.2,0.7,1.6,1.3s0.8,1.2,1.1,1.9
			C495.7,291.5,495.8,292.3,495.8,293.2z M494.1,293.2c0-0.7-0.1-1.3-0.2-1.8s-0.4-1-0.7-1.4c-0.3-0.4-0.6-0.7-1-0.9
			c-0.4-0.2-0.8-0.3-1.3-0.3c-0.5,0-0.9,0.1-1.3,0.3c-0.4,0.2-0.8,0.5-1,0.9c-0.3,0.4-0.5,0.9-0.7,1.4s-0.2,1.1-0.2,1.8
			c0,0.7,0.1,1.3,0.2,1.8s0.4,1,0.7,1.4c0.3,0.4,0.6,0.7,1,0.9c0.4,0.2,0.9,0.3,1.3,0.3c0.5,0,0.9-0.1,1.3-0.3s0.7-0.5,1-0.9
			s0.5-0.8,0.7-1.4S494.1,293.9,494.1,293.2z"/>
		<path class="st2" d="M498.2,294.4v-1.6h5.9v1.6H498.2z"/>
		<path class="st2" d="M513.9,297.5v1.6h-7.2v-1.6h2.8v-7.8c-0.1,0.2-0.3,0.3-0.6,0.5c-0.3,0.2-0.5,0.3-0.9,0.5
			c-0.3,0.2-0.6,0.3-1,0.4s-0.6,0.2-0.9,0.2v-1.7c0.3,0,0.6-0.1,1-0.3c0.4-0.2,0.7-0.4,1-0.6c0.3-0.2,0.6-0.4,0.8-0.6
			c0.2-0.2,0.4-0.3,0.4-0.4h1.8v9.8H513.9z"/>
		<path class="st2" d="M525.6,293.2c0,0.9-0.1,1.7-0.4,2.4c-0.3,0.7-0.6,1.4-1.1,1.9s-1,1-1.6,1.3c-0.6,0.3-1.3,0.5-2,0.5
			c-0.7,0-1.4-0.2-2-0.5s-1.2-0.7-1.6-1.3c-0.4-0.5-0.8-1.2-1-1.9c-0.3-0.7-0.4-1.6-0.4-2.4s0.1-1.7,0.4-2.4s0.6-1.4,1-1.9
			c0.4-0.5,1-1,1.6-1.3c0.6-0.3,1.3-0.5,2-0.5c0.7,0,1.4,0.2,2,0.5c0.6,0.3,1.2,0.7,1.6,1.3s0.8,1.2,1.1,1.9
			C525.5,291.5,525.6,292.3,525.6,293.2z M523.8,293.2c0-0.7-0.1-1.3-0.2-1.8s-0.4-1-0.7-1.4c-0.3-0.4-0.6-0.7-1-0.9
			c-0.4-0.2-0.8-0.3-1.3-0.3c-0.5,0-0.9,0.1-1.3,0.3c-0.4,0.2-0.8,0.5-1,0.9c-0.3,0.4-0.5,0.9-0.7,1.4s-0.2,1.1-0.2,1.8
			c0,0.7,0.1,1.3,0.2,1.8s0.4,1,0.7,1.4c0.3,0.4,0.6,0.7,1,0.9c0.4,0.2,0.9,0.3,1.3,0.3c0.5,0,0.9-0.1,1.3-0.3s0.7-0.5,1-0.9
			s0.5-0.8,0.7-1.4S523.8,293.9,523.8,293.2z"/>
		<path class="st2" d="M532.3,292.8c0.7,0,1.3,0.1,1.8,0.3c0.6,0.2,1.1,0.5,1.5,0.9c0.4,0.4,0.7,0.9,1,1.4c0.2,0.6,0.4,1.2,0.4,1.8
			c0,0.7-0.1,1.4-0.4,1.9c-0.3,0.6-0.6,1.1-1.1,1.5s-1,0.7-1.6,1s-1.3,0.3-2,0.3c-1,0-1.9-0.2-2.7-0.7c-0.8-0.5-1.4-1.1-1.8-1.9
			l1.1-1c0.4,0.6,0.9,1.1,1.5,1.5c0.6,0.4,1.3,0.6,2,0.6c0.5,0,0.9-0.1,1.3-0.2c0.4-0.2,0.7-0.4,1-0.6s0.5-0.6,0.7-1
			c0.2-0.4,0.2-0.8,0.2-1.3c0-0.4-0.1-0.8-0.2-1.2c-0.2-0.4-0.4-0.7-0.6-1c-0.3-0.3-0.6-0.5-1-0.6c-0.4-0.1-0.8-0.2-1.2-0.2
			c-0.6,0-1.1,0.1-1.6,0.4c-0.5,0.3-0.9,0.6-1.2,1.1h-1.6c0-0.1,0-0.2,0.1-0.5c0.1-0.3,0.1-0.6,0.2-1s0.2-0.8,0.3-1.3
			c0.1-0.5,0.2-1,0.3-1.5c0.2-1.1,0.5-2.4,0.8-3.9h6.9v1.6h-5.6l-0.9,4.5c0.3-0.3,0.7-0.5,1.1-0.7
			C531.2,292.9,531.7,292.8,532.3,292.8z"/>
		<path class="st2" d="M538.9,294.4v-1.6h5.9v1.6H538.9z"/>
		<path class="st2" d="M554.6,297.5v1.6h-7.2v-1.6h2.8v-7.8c-0.1,0.2-0.3,0.3-0.6,0.5c-0.3,0.2-0.5,0.3-0.9,0.5
			c-0.3,0.2-0.6,0.3-1,0.4s-0.6,0.2-0.9,0.2v-1.7c0.3,0,0.6-0.1,1-0.3c0.4-0.2,0.7-0.4,1-0.6c0.3-0.2,0.6-0.4,0.8-0.6
			c0.2-0.2,0.4-0.3,0.4-0.4h1.8v9.8H554.6z"/>
		<path class="st2" d="M566.3,294.4c0,0.7-0.1,1.3-0.4,1.9c-0.3,0.6-0.6,1.1-1.1,1.6c-0.5,0.4-1,0.8-1.6,1.1c-0.6,0.3-1.3,0.4-2,0.4
			c-0.8,0-1.5-0.1-2.1-0.4c-0.6-0.3-1.2-0.7-1.6-1.2c-0.5-0.5-0.8-1.2-1.1-1.9c-0.2-0.8-0.4-1.6-0.4-2.6c0-1.4,0.1-2.6,0.4-3.7
			c0.3-1,0.6-1.9,1.1-2.6c0.5-0.7,1-1.2,1.7-1.6s1.4-0.5,2.2-0.5c0.9,0,1.8,0.2,2.5,0.7c0.8,0.4,1.3,1.1,1.8,1.9l-1.1,1.1
			c-0.3-0.6-0.7-1.1-1.3-1.5c-0.6-0.4-1.2-0.5-1.9-0.5c-0.5,0-1,0.1-1.5,0.4c-0.4,0.2-0.8,0.6-1.1,1.1c-0.3,0.5-0.6,1.1-0.7,1.8
			c-0.2,0.7-0.3,1.5-0.3,2.3c0.3-0.7,0.8-1.2,1.4-1.7c0.7-0.4,1.4-0.6,2.2-0.6c0.7,0,1.3,0.1,1.9,0.4c0.6,0.2,1.1,0.6,1.6,1
			c0.4,0.4,0.8,0.9,1,1.5C566.2,293.1,566.3,293.7,566.3,294.4z M561.3,297.8c0.5,0,0.9-0.1,1.3-0.3c0.4-0.2,0.8-0.4,1.1-0.7
			c0.3-0.3,0.6-0.7,0.7-1.1c0.2-0.4,0.3-0.8,0.3-1.3c0-0.5-0.1-0.9-0.3-1.3s-0.4-0.8-0.7-1.1c-0.3-0.3-0.7-0.5-1.1-0.7
			c-0.4-0.2-0.8-0.3-1.3-0.3c-0.5,0-0.9,0.1-1.3,0.3c-0.4,0.2-0.8,0.4-1.1,0.7c-0.3,0.3-0.5,0.7-0.7,1.1c-0.2,0.4-0.3,0.8-0.3,1.3
			c0,0.5,0.1,0.9,0.3,1.3c0.2,0.4,0.4,0.8,0.7,1.1c0.3,0.3,0.7,0.6,1.1,0.7C560.4,297.7,560.8,297.8,561.3,297.8z"/>
		<path class="st2" d="M574.4,294.4c0.9,0.1,1.5,0.5,2,1.2s0.8,1.4,0.8,2.4c0,0.6-0.1,1.2-0.3,1.7s-0.5,0.9-1,1.3
			c-0.4,0.4-0.9,0.6-1.5,0.8c-0.6,0.2-1.2,0.3-2,0.3c-1,0-1.9-0.2-2.7-0.6c-0.8-0.4-1.4-0.9-1.8-1.6l1.2-1.2c0.3,0.5,0.7,1,1.2,1.3
			c0.5,0.3,1.2,0.5,2,0.5c0.9,0,1.6-0.2,2.2-0.6c0.5-0.4,0.8-1,0.8-1.9s-0.3-1.5-0.9-2c-0.6-0.5-1.4-0.8-2.5-0.8h-0.5v-1.5h0.6
			c1,0,1.7-0.2,2.2-0.7s0.8-1,0.8-1.8s-0.2-1.2-0.7-1.6s-1.1-0.5-1.9-0.5c-0.7,0-1.4,0.2-1.9,0.5c-0.6,0.3-1,0.8-1.3,1.3l-1.1-1.1
			c0.2-0.3,0.4-0.6,0.7-0.9c0.3-0.3,0.6-0.5,1-0.7c0.4-0.2,0.8-0.4,1.3-0.5c0.5-0.1,0.9-0.2,1.5-0.2c0.6,0,1.2,0.1,1.7,0.3
			c0.5,0.2,1,0.4,1.4,0.7s0.7,0.7,0.9,1.1c0.2,0.4,0.3,0.9,0.3,1.5c0,0.4-0.1,0.8-0.2,1.1c-0.1,0.4-0.3,0.7-0.5,1
			c-0.2,0.3-0.5,0.5-0.8,0.7C575.1,294.2,574.8,294.3,574.4,294.4z"/>
		<path class="st2" d="M436.4,324.1v-14.2h5.9c0.6,0,1.2,0.1,1.7,0.4c0.5,0.3,1,0.6,1.4,1c0.4,0.4,0.7,0.9,0.9,1.5
			c0.2,0.5,0.3,1.1,0.3,1.6c0,0.6-0.1,1.2-0.3,1.7s-0.5,1-0.9,1.5c-0.4,0.4-0.8,0.8-1.3,1c-0.5,0.3-1.1,0.4-1.7,0.4h-4.2v5.1H436.4z
			 M438.2,317.4h4.1c0.4,0,0.7-0.1,1-0.2c0.3-0.2,0.6-0.4,0.8-0.6c0.2-0.3,0.4-0.6,0.5-0.9c0.1-0.4,0.2-0.7,0.2-1.1
			c0-0.4-0.1-0.8-0.2-1.2c-0.1-0.4-0.3-0.7-0.6-0.9s-0.5-0.5-0.8-0.6s-0.6-0.2-1-0.2h-4V317.4z"/>
		<path class="st2" d="M452.2,309.9h1.5l5.8,14.2h-1.9l-1.7-4.2h-6l-1.7,4.2h-1.9L452.2,309.9z M455.5,318.5l-2.6-6.6l-2.6,6.6
			H455.5z"/>
		<path class="st2" d="M463.2,313.2v10.8h-1.8v-14.2h1.4l8.8,11.1v-11h1.8v14.2h-1.5L463.2,313.2z"/>
		<path class="st2" d="M487,311.5h-4.9v12.6h-1.8v-12.6h-4.9v-1.6H487V311.5z"/>
		<path class="st2" d="M494.4,324.2c-1,0-1.9-0.2-2.7-0.6c-0.8-0.4-1.5-0.9-2.1-1.6s-1-1.4-1.4-2.3c-0.3-0.9-0.5-1.8-0.5-2.7
			c0-0.9,0.2-1.9,0.5-2.7c0.3-0.9,0.8-1.6,1.4-2.3c0.6-0.7,1.3-1.2,2.1-1.6s1.7-0.6,2.7-0.6c1,0,1.9,0.2,2.7,0.6s1.5,1,2.1,1.7
			c0.6,0.7,1,1.4,1.4,2.3c0.3,0.9,0.5,1.7,0.5,2.6c0,0.9-0.2,1.9-0.5,2.7c-0.3,0.9-0.8,1.6-1.4,2.3c-0.6,0.7-1.3,1.2-2.1,1.6
			C496.3,324,495.4,324.2,494.4,324.2z M489.6,317c0,0.7,0.1,1.4,0.4,2.1c0.2,0.7,0.6,1.3,1,1.8c0.4,0.5,0.9,0.9,1.5,1.2
			c0.6,0.3,1.3,0.5,2,0.5c0.8,0,1.4-0.2,2-0.5c0.6-0.3,1.1-0.8,1.5-1.3c0.4-0.5,0.7-1.1,1-1.8c0.2-0.7,0.3-1.3,0.3-2
			c0-0.7-0.1-1.4-0.3-2.1c-0.2-0.7-0.6-1.3-1-1.8c-0.4-0.5-0.9-0.9-1.5-1.2c-0.6-0.3-1.3-0.5-2-0.5c-0.8,0-1.4,0.2-2,0.5
			c-0.6,0.3-1.1,0.7-1.5,1.3c-0.4,0.5-0.7,1.1-1,1.8C489.7,315.6,489.6,316.3,489.6,317z"/>
		<path class="st2" d="M505.4,313.2v10.8h-1.8v-14.2h1.4l8.8,11.1v-11h1.8v14.2h-1.5L505.4,313.2z"/>
		<path class="st2" d="M528.7,322.5v1.6H519v-14.2h9.5v1.6h-7.7v4.6h6.7v1.5h-6.7v4.9H528.7z"/>
		<path class="st2" d="M530.7,316v-2.2h1.5v2.2H530.7z M530.7,324.1v-2.2h1.5v2.2H530.7z"/>
		<path class="st2" d="M545.7,319.4c0.9,0.1,1.5,0.5,2,1.2s0.8,1.4,0.8,2.4c0,0.6-0.1,1.2-0.3,1.7s-0.5,0.9-1,1.3
			c-0.4,0.4-0.9,0.6-1.5,0.8c-0.6,0.2-1.2,0.3-2,0.3c-1,0-1.9-0.2-2.7-0.6c-0.8-0.4-1.4-0.9-1.8-1.6l1.2-1.2c0.3,0.5,0.7,1,1.2,1.3
			c0.5,0.3,1.2,0.5,2,0.5c0.9,0,1.6-0.2,2.2-0.6c0.5-0.4,0.8-1,0.8-1.9s-0.3-1.5-0.9-2c-0.6-0.5-1.4-0.8-2.5-0.8h-0.5v-1.5h0.6
			c1,0,1.7-0.2,2.2-0.7s0.8-1,0.8-1.8s-0.2-1.2-0.7-1.6s-1.1-0.5-1.9-0.5c-0.7,0-1.4,0.2-1.9,0.5c-0.6,0.3-1,0.8-1.3,1.3l-1.1-1.1
			c0.2-0.3,0.4-0.6,0.7-0.9c0.3-0.3,0.6-0.5,1-0.7c0.4-0.2,0.8-0.4,1.3-0.5c0.5-0.1,0.9-0.2,1.5-0.2c0.6,0,1.2,0.1,1.7,0.3
			c0.5,0.2,1,0.4,1.4,0.7s0.7,0.7,0.9,1.1c0.2,0.4,0.3,0.9,0.3,1.5c0,0.4-0.1,0.8-0.2,1.1c-0.1,0.4-0.3,0.7-0.5,1
			c-0.2,0.3-0.5,0.5-0.8,0.7C546.4,319.2,546.1,319.3,545.7,319.4z"/>
		<path class="st2" d="M560.5,318.2c0,0.9-0.1,1.7-0.4,2.4c-0.3,0.7-0.6,1.4-1.1,1.9s-1,1-1.6,1.3c-0.6,0.3-1.3,0.5-2,0.5
			c-0.7,0-1.4-0.2-2-0.5s-1.2-0.7-1.6-1.3c-0.4-0.5-0.8-1.2-1-1.9c-0.3-0.7-0.4-1.6-0.4-2.4s0.1-1.7,0.4-2.4s0.6-1.4,1-1.9
			c0.4-0.5,1-1,1.6-1.3c0.6-0.3,1.3-0.5,2-0.5c0.7,0,1.4,0.2,2,0.5c0.6,0.3,1.2,0.7,1.6,1.3s0.8,1.2,1.1,1.9
			C560.4,316.5,560.5,317.3,560.5,318.2z M558.7,318.2c0-0.7-0.1-1.3-0.2-1.8s-0.4-1-0.7-1.4c-0.3-0.4-0.6-0.7-1-0.9
			c-0.4-0.2-0.8-0.3-1.3-0.3c-0.5,0-0.9,0.1-1.3,0.3c-0.4,0.2-0.8,0.5-1,0.9c-0.3,0.4-0.5,0.9-0.7,1.4s-0.2,1.1-0.2,1.8
			c0,0.7,0.1,1.3,0.2,1.8s0.4,1,0.7,1.4c0.3,0.4,0.6,0.7,1,0.9c0.4,0.2,0.9,0.3,1.3,0.3c0.5,0,0.9-0.1,1.3-0.3s0.7-0.5,1-0.9
			s0.5-0.8,0.7-1.4S558.7,318.9,558.7,318.2z"/>
		<path class="st2" d="M570.1,322.5v1.6h-7.2v-1.6h2.8v-7.8c-0.1,0.2-0.3,0.3-0.6,0.5c-0.3,0.2-0.5,0.3-0.9,0.5
			c-0.3,0.2-0.6,0.3-1,0.4s-0.6,0.2-0.9,0.2v-1.7c0.3,0,0.6-0.1,1-0.3c0.4-0.2,0.7-0.4,1-0.6c0.3-0.2,0.6-0.4,0.8-0.6
			c0.2-0.2,0.4-0.3,0.4-0.4h1.8v9.8H570.1z"/>
		<path class="st2" d="M576.2,317.8c0.7,0,1.3,0.1,1.8,0.3c0.6,0.2,1.1,0.5,1.5,0.9c0.4,0.4,0.7,0.9,1,1.4c0.2,0.6,0.4,1.2,0.4,1.8
			c0,0.7-0.1,1.4-0.4,1.9c-0.3,0.6-0.6,1.1-1.1,1.5s-1,0.7-1.6,1s-1.3,0.3-2,0.3c-1,0-1.9-0.2-2.7-0.7c-0.8-0.5-1.4-1.1-1.8-1.9
			l1.1-1c0.4,0.6,0.9,1.1,1.5,1.5c0.6,0.4,1.3,0.6,2,0.6c0.5,0,0.9-0.1,1.3-0.2c0.4-0.2,0.7-0.4,1-0.6s0.5-0.6,0.7-1
			c0.2-0.4,0.2-0.8,0.2-1.3c0-0.4-0.1-0.8-0.2-1.2c-0.2-0.4-0.4-0.7-0.6-1c-0.3-0.3-0.6-0.5-1-0.6c-0.4-0.1-0.8-0.2-1.2-0.2
			c-0.6,0-1.1,0.1-1.6,0.4c-0.5,0.3-0.9,0.6-1.2,1.1h-1.6c0-0.1,0-0.2,0.1-0.5c0.1-0.3,0.1-0.6,0.2-1s0.2-0.8,0.3-1.3
			c0.1-0.5,0.2-1,0.3-1.5c0.2-1.1,0.5-2.4,0.8-3.9h6.9v1.6h-5.6l-0.9,4.5c0.3-0.3,0.7-0.5,1.1-0.7
			C575.1,317.9,575.6,317.8,576.2,317.8z"/>
		<path class="st2" d="M589.1,322.6c0.8,0,1.5-0.2,2.1-0.5s1-0.7,1.3-1.3c0.3-0.5,0.6-1.1,0.7-1.8c0.1-0.7,0.2-1.3,0.2-2v-7.2h1.8
			v7.2c0,1-0.1,1.9-0.3,2.7c-0.2,0.9-0.6,1.6-1,2.3c-0.5,0.7-1.1,1.2-1.9,1.5s-1.7,0.6-2.8,0.6c-1.1,0-2.1-0.2-2.9-0.6
			c-0.8-0.4-1.4-0.9-1.9-1.6c-0.5-0.7-0.8-1.4-1-2.3c-0.2-0.9-0.3-1.7-0.3-2.6v-7.2h1.8v7.2c0,0.7,0.1,1.4,0.2,2
			c0.1,0.7,0.4,1.2,0.7,1.8c0.3,0.5,0.8,0.9,1.3,1.2C587.6,322.4,588.3,322.6,589.1,322.6z"/>
		<path class="st2" d="M447.8,334.9v14.2H446v-6.5h-7.8v6.5h-1.8v-14.2h1.8v6.1h7.8v-6.1H447.8z"/>
		<path class="st2" d="M460.9,347.5v1.6h-9.6v-14.2h9.5v1.6H453v4.6h6.7v1.5H453v4.9H460.9z"/>
		<path class="st2" d="M463.7,334.9l4.3,5.9l4.3-5.9h2l-5.3,7.2l5.2,7h-2l-4.2-5.7l-4.2,5.7h-2l5.2-7l-5.3-7.2H463.7z"/>
		<path class="st2" d="M475.7,341v-2.2h1.5v2.2H475.7z M475.7,349.1v-2.2h1.5v2.2H475.7z"/>
		<path class="st2" d="M496.6,340.1h-2.7l-0.9,3.6h2.7v1.4h-3l-1,4h-1.5l1-4h-3.4l-1,4h-1.5l1-4h-2.3v-1.4h2.6l0.9-3.6h-2.6v-1.3
			h2.9l1-4h1.5l-1,4h3.4l1-4h1.5l-1,4h2.4V340.1z M491.6,343.7l0.9-3.6h-3.4l-0.9,3.6H491.6z"/>
		<path class="st2" d="M508.5,343.2c0,0.9-0.1,1.7-0.4,2.4c-0.3,0.7-0.6,1.4-1.1,1.9s-1,1-1.6,1.3c-0.6,0.3-1.3,0.5-2,0.5
			c-0.7,0-1.4-0.2-2-0.5s-1.2-0.7-1.6-1.3c-0.4-0.5-0.8-1.2-1-1.9c-0.3-0.7-0.4-1.6-0.4-2.4s0.1-1.7,0.4-2.4s0.6-1.4,1-1.9
			c0.4-0.5,1-1,1.6-1.3c0.6-0.3,1.3-0.5,2-0.5c0.7,0,1.4,0.2,2,0.5c0.6,0.3,1.2,0.7,1.6,1.3s0.8,1.2,1.1,1.9
			C508.4,341.5,508.5,342.3,508.5,343.2z M506.7,343.2c0-0.7-0.1-1.3-0.2-1.8s-0.4-1-0.7-1.4c-0.3-0.4-0.6-0.7-1-0.9
			c-0.4-0.2-0.8-0.3-1.3-0.3c-0.5,0-0.9,0.1-1.3,0.3c-0.4,0.2-0.8,0.5-1,0.9c-0.3,0.4-0.5,0.9-0.7,1.4s-0.2,1.1-0.2,1.8
			c0,0.7,0.1,1.3,0.2,1.8s0.4,1,0.7,1.4c0.3,0.4,0.6,0.7,1,0.9c0.4,0.2,0.9,0.3,1.3,0.3c0.5,0,0.9-0.1,1.3-0.3s0.7-0.5,1-0.9
			s0.5-0.8,0.7-1.4S506.7,343.9,506.7,343.2z"/>
		<path class="st2" d="M520.8,343.2c0,0.9-0.1,1.7-0.4,2.4c-0.3,0.7-0.6,1.4-1.1,1.9s-1,1-1.6,1.3c-0.6,0.3-1.3,0.5-2,0.5
			c-0.7,0-1.4-0.2-2-0.5s-1.2-0.7-1.6-1.3c-0.4-0.5-0.8-1.2-1-1.9c-0.3-0.7-0.4-1.6-0.4-2.4s0.1-1.7,0.4-2.4s0.6-1.4,1-1.9
			c0.4-0.5,1-1,1.6-1.3c0.6-0.3,1.3-0.5,2-0.5c0.7,0,1.4,0.2,2,0.5c0.6,0.3,1.2,0.7,1.6,1.3s0.8,1.2,1.1,1.9
			C520.7,341.5,520.8,342.3,520.8,343.2z M519,343.2c0-0.7-0.1-1.3-0.2-1.8s-0.4-1-0.7-1.4c-0.3-0.4-0.6-0.7-1-0.9
			c-0.4-0.2-0.8-0.3-1.3-0.3c-0.5,0-0.9,0.1-1.3,0.3c-0.4,0.2-0.8,0.5-1,0.9c-0.3,0.4-0.5,0.9-0.7,1.4s-0.2,1.1-0.2,1.8
			c0,0.7,0.1,1.3,0.2,1.8s0.4,1,0.7,1.4c0.3,0.4,0.6,0.7,1,0.9c0.4,0.2,0.9,0.3,1.3,0.3c0.5,0,0.9-0.1,1.3-0.3s0.7-0.5,1-0.9
			s0.5-0.8,0.7-1.4S519,343.9,519,343.2z"/>
		<path class="st2" d="M533.1,344.4c0,0.7-0.1,1.3-0.4,1.9c-0.3,0.6-0.6,1.1-1.1,1.6c-0.5,0.4-1,0.8-1.6,1.1c-0.6,0.3-1.3,0.4-2,0.4
			c-0.8,0-1.5-0.1-2.1-0.4c-0.6-0.3-1.2-0.7-1.6-1.2c-0.5-0.5-0.8-1.2-1.1-1.9c-0.2-0.8-0.4-1.6-0.4-2.6c0-1.4,0.1-2.6,0.4-3.7
			c0.3-1,0.6-1.9,1.1-2.6c0.5-0.7,1-1.2,1.7-1.6s1.4-0.5,2.2-0.5c0.9,0,1.8,0.2,2.5,0.7c0.8,0.4,1.3,1.1,1.8,1.9l-1.1,1.1
			c-0.3-0.6-0.7-1.1-1.3-1.5c-0.6-0.4-1.2-0.5-1.9-0.5c-0.5,0-1,0.1-1.5,0.4c-0.4,0.2-0.8,0.6-1.1,1.1c-0.3,0.5-0.6,1.1-0.7,1.8
			c-0.2,0.7-0.3,1.5-0.3,2.3c0.3-0.7,0.8-1.2,1.4-1.7c0.7-0.4,1.4-0.6,2.2-0.6c0.7,0,1.3,0.1,1.9,0.4c0.6,0.2,1.1,0.6,1.6,1
			c0.4,0.4,0.8,0.9,1,1.5C533,343.1,533.1,343.7,533.1,344.4z M528,347.8c0.5,0,0.9-0.1,1.3-0.3c0.4-0.2,0.8-0.4,1.1-0.7
			c0.3-0.3,0.6-0.7,0.7-1.1c0.2-0.4,0.3-0.8,0.3-1.3c0-0.5-0.1-0.9-0.3-1.3s-0.4-0.8-0.7-1.1c-0.3-0.3-0.7-0.5-1.1-0.7
			c-0.4-0.2-0.8-0.3-1.3-0.3c-0.5,0-0.9,0.1-1.3,0.3c-0.4,0.2-0.8,0.4-1.1,0.7c-0.3,0.3-0.5,0.7-0.7,1.1c-0.2,0.4-0.3,0.8-0.3,1.3
			c0,0.5,0.1,0.9,0.3,1.3c0.2,0.4,0.4,0.8,0.7,1.1c0.3,0.3,0.7,0.6,1.1,0.7C527.1,347.7,527.6,347.8,528,347.8z"/>
		<path class="st2" d="M545,345.1c0,0.6-0.1,1.2-0.4,1.7c-0.3,0.5-0.6,1-1.1,1.3c-0.5,0.4-1,0.6-1.6,0.8c-0.6,0.2-1.3,0.3-1.9,0.3
			c-0.7,0-1.4-0.1-2-0.3s-1.1-0.5-1.6-0.9c-0.4-0.4-0.8-0.8-1-1.3c-0.3-0.5-0.4-1.1-0.4-1.7c0-0.4,0.1-0.8,0.2-1.2
			c0.2-0.4,0.4-0.7,0.6-1c0.2-0.3,0.5-0.5,0.8-0.8c0.3-0.2,0.6-0.4,1-0.5c-0.3-0.1-0.6-0.3-0.8-0.5c-0.3-0.2-0.5-0.4-0.7-0.7
			c-0.2-0.2-0.4-0.5-0.5-0.8c-0.1-0.3-0.2-0.6-0.2-0.9c0-0.6,0.1-1.1,0.4-1.6s0.6-0.8,1.1-1.2c0.4-0.3,0.9-0.6,1.5-0.7
			s1.1-0.2,1.6-0.2c0.5,0,1.1,0.1,1.6,0.2s1,0.4,1.5,0.7s0.8,0.7,1.1,1.2c0.3,0.5,0.4,1,0.4,1.6c0,0.7-0.2,1.3-0.7,1.8
			c-0.4,0.5-1,0.9-1.6,1.1c0.4,0.1,0.7,0.3,1,0.6c0.3,0.2,0.6,0.5,0.8,0.8c0.2,0.3,0.4,0.6,0.6,1C544.9,344.2,545,344.6,545,345.1z
			 M543.2,344.9c0-0.4-0.1-0.8-0.3-1.2s-0.4-0.6-0.8-0.9c-0.3-0.2-0.7-0.4-1-0.5s-0.8-0.2-1.2-0.2c-0.4,0-0.8,0.1-1.2,0.2
			s-0.7,0.3-1,0.5c-0.3,0.2-0.5,0.5-0.7,0.9c-0.2,0.3-0.3,0.7-0.3,1.1c0,0.4,0.1,0.8,0.3,1.1c0.2,0.3,0.4,0.6,0.8,0.8
			c0.3,0.2,0.6,0.4,1,0.5c0.4,0.1,0.8,0.2,1.2,0.2c0.4,0,0.8-0.1,1.2-0.2c0.4-0.1,0.7-0.3,1-0.6c0.3-0.2,0.5-0.5,0.7-0.9
			S543.2,345.3,543.2,344.9z M537.2,338.7c0,0.4,0.1,0.7,0.3,1c0.2,0.3,0.4,0.5,0.6,0.7c0.3,0.2,0.6,0.3,0.9,0.4
			c0.3,0.1,0.6,0.1,1,0.1c0.3,0,0.6,0,1-0.2c0.3-0.1,0.6-0.2,0.9-0.4c0.3-0.2,0.5-0.4,0.6-0.7s0.3-0.6,0.3-1c0-0.3-0.1-0.6-0.2-0.9
			c-0.2-0.3-0.4-0.5-0.6-0.7s-0.5-0.3-0.9-0.4c-0.3-0.1-0.7-0.2-1-0.2s-0.7,0-1,0.2c-0.3,0.1-0.6,0.2-0.9,0.4
			c-0.2,0.2-0.4,0.4-0.6,0.7S537.2,338.3,537.2,338.7z"/>
		<path class="st2" d="M550,349.3c-0.5,0-1-0.1-1.4-0.3c-0.4-0.2-0.8-0.4-1.1-0.7c-0.3-0.3-0.6-0.6-0.7-1c-0.2-0.4-0.3-0.8-0.3-1.3
			c0-0.5,0.1-0.9,0.3-1.3c0.2-0.4,0.5-0.7,0.9-1c0.4-0.3,0.9-0.5,1.4-0.7c0.5-0.2,1.1-0.2,1.8-0.2c0.5,0,1,0,1.5,0.1
			c0.5,0.1,1,0.2,1.4,0.4v-0.8c0-0.9-0.2-1.5-0.7-2c-0.5-0.5-1.2-0.7-2-0.7c-1.1,0-2.2,0.4-3.3,1.2l-0.6-1.1
			c1.3-0.9,2.7-1.4,4.1-1.4c1.4,0,2.4,0.4,3.2,1.1c0.8,0.7,1.1,1.8,1.1,3.1v4.3c0,0.4,0.2,0.6,0.6,0.6v1.5c-0.2,0-0.3,0-0.5,0.1
			c-0.1,0-0.2,0-0.4,0c-0.3,0-0.6-0.1-0.8-0.3c-0.2-0.2-0.3-0.5-0.4-0.8l0-0.7c-0.5,0.6-1.1,1.1-1.8,1.4
			C551.6,349.1,550.9,349.3,550,349.3z M550.5,348c0.6,0,1.2-0.1,1.8-0.3s1-0.5,1.2-0.9c0.3-0.3,0.4-0.5,0.4-0.8v-1.5
			c-0.9-0.3-1.7-0.5-2.7-0.5c-0.9,0-1.6,0.2-2.1,0.6c-0.6,0.4-0.8,0.9-0.8,1.5c0,0.3,0.1,0.6,0.2,0.8s0.3,0.5,0.5,0.7
			s0.5,0.3,0.7,0.4C549.9,347.9,550.2,348,550.5,348z"/>
		<path class="st2" d="M564.2,344.4c0.9,0.1,1.5,0.5,2,1.2s0.8,1.4,0.8,2.4c0,0.6-0.1,1.2-0.3,1.7s-0.5,0.9-1,1.3
			c-0.4,0.4-0.9,0.6-1.5,0.8c-0.6,0.2-1.2,0.3-2,0.3c-1,0-1.9-0.2-2.7-0.6c-0.8-0.4-1.4-0.9-1.8-1.6l1.2-1.2c0.3,0.5,0.7,1,1.2,1.3
			c0.5,0.3,1.2,0.5,2,0.5c0.9,0,1.6-0.2,2.2-0.6c0.5-0.4,0.8-1,0.8-1.9s-0.3-1.5-0.9-2c-0.6-0.5-1.4-0.8-2.5-0.8h-0.5v-1.5h0.6
			c1,0,1.7-0.2,2.2-0.7s0.8-1,0.8-1.8s-0.2-1.2-0.7-1.6s-1.1-0.5-1.9-0.5c-0.7,0-1.4,0.2-1.9,0.5c-0.6,0.3-1,0.8-1.3,1.3l-1.1-1.1
			c0.2-0.3,0.4-0.6,0.7-0.9c0.3-0.3,0.6-0.5,1-0.7c0.4-0.2,0.8-0.4,1.3-0.5c0.5-0.1,0.9-0.2,1.5-0.2c0.6,0,1.2,0.1,1.7,0.3
			c0.5,0.2,1,0.4,1.4,0.7s0.7,0.7,0.9,1.1c0.2,0.4,0.3,0.9,0.3,1.5c0,0.4-0.1,0.8-0.2,1.1c-0.1,0.4-0.3,0.7-0.5,1
			c-0.2,0.3-0.5,0.5-0.8,0.7C564.9,344.2,564.6,344.3,564.2,344.4z"/>
	</g>
</g>
</svg>
