<?xml version="1.0" encoding="utf-8"?>
<!-- Generator: Adobe Illustrator 22.0.0, SVG Export Plug-In . SVG Version: 6.00 Build 0)  -->
<svg version="1.1" id="Laag_1" xmlns="http://www.w3.org/2000/svg" xmlns:xlink="http://www.w3.org/1999/xlink" x="0px" y="0px"
	 viewBox="0 0 841.9 341.3" style="enable-background:new 0 0 841.9 341.3;" xml:space="preserve">
<style type="text/css">
	.st0{fill:#6F6F6E;}
	.st1{fill:#C5C5C5;}
	.st2{fill:#FBFBFB;}
	.st3{fill:none;stroke:#F6F6F6;stroke-width:2.3403;stroke-miterlimit:10;}
	.st4{fill:#FFFFFF;}
</style>
<rect x="11" y="20" class="st0" width="207.3" height="300"/>
<rect x="214.2" y="20" class="st1" width="207.3" height="300"/>
<rect x="417.4" y="20" class="st2" width="207.3" height="300"/>
<rect x="620.6" y="20" class="st3" width="207.3" height="300"/>
<g>
	<g>
		<path class="st4" d="M38.8,238c0-0.6,0.1-1.2,0.3-1.8s0.5-1.1,0.9-1.6s0.9-0.9,1.5-1.1c0.6-0.3,1.3-0.4,2-0.4
			c0.9,0,1.6,0.2,2.3,0.6s1.1,0.9,1.4,1.6l-1,0.6c-0.1-0.3-0.3-0.6-0.5-0.8c-0.2-0.2-0.4-0.4-0.7-0.5s-0.5-0.2-0.8-0.3
			c-0.3-0.1-0.5-0.1-0.8-0.1c-0.6,0-1,0.1-1.5,0.3c-0.4,0.2-0.8,0.5-1.1,0.9s-0.5,0.8-0.7,1.2s-0.2,0.9-0.2,1.4s0.1,1,0.3,1.5
			s0.4,0.9,0.7,1.3s0.7,0.7,1.1,0.9s0.9,0.3,1.4,0.3c0.3,0,0.5,0,0.8-0.1s0.5-0.2,0.8-0.3s0.5-0.3,0.7-0.5s0.4-0.5,0.5-0.8l1,0.6
			c-0.2,0.4-0.4,0.7-0.7,1s-0.6,0.5-1,0.7s-0.7,0.3-1.1,0.4s-0.8,0.2-1.2,0.2c-0.7,0-1.3-0.1-1.9-0.4c-0.6-0.3-1.1-0.7-1.5-1.2
			s-0.7-1-1-1.6S38.8,238.7,38.8,238z"/>
		<path class="st4" d="M57.5,243.1v-7.7l-3.3,5.9h-0.7l-3.3-5.9v7.7h-1.3v-9.9h1.3l3.6,6.5l3.6-6.5h1.3v9.9H57.5z"/>
		<path class="st4" d="M61.6,233.1l3,5.2l3-5.2H69l-3.8,6.3v3.6h-1.3v-3.7l-3.8-6.3h1.5V233.1z"/>
		<path class="st4" d="M70.3,243.1v-9.9h1.3v5.5l5.1-5.5h1.4l-4,4.4l4.2,5.6h-1.4l-3.6-4.8l-1.7,1.8v3h-1.3V243.1z"/>
		<path class="st4" d="M79.2,237.4v-1.6h1v1.6H79.2z M79.2,243.1v-1.6h1v1.6H79.2z"/>
		<path class="st4" d="M92.5,239c0,0.6-0.1,1.2-0.3,1.7c-0.2,0.5-0.4,1-0.7,1.3s-0.7,0.7-1.1,0.9s-0.9,0.3-1.4,0.3s-1-0.1-1.4-0.3
			s-0.8-0.5-1.1-0.9s-0.6-0.8-0.7-1.3c-0.2-0.5-0.3-1.1-0.3-1.7s0.1-1.2,0.3-1.7c0.2-0.5,0.4-1,0.7-1.3c0.3-0.4,0.7-0.7,1.1-0.9
			s0.9-0.3,1.4-0.3s1,0.1,1.4,0.3s0.8,0.5,1.1,0.9c0.3,0.4,0.6,0.8,0.7,1.3C92.4,237.8,92.5,238.4,92.5,239z M91.2,239
			c0-0.5-0.1-0.9-0.2-1.3s-0.3-0.7-0.5-1s-0.4-0.5-0.7-0.6c-0.3-0.1-0.6-0.2-0.9-0.2s-0.7,0.1-0.9,0.2c-0.3,0.1-0.5,0.4-0.7,0.6
			c-0.2,0.3-0.4,0.6-0.5,1s-0.2,0.8-0.2,1.3s0.1,0.9,0.2,1.3s0.3,0.7,0.5,1s0.4,0.5,0.7,0.6c0.3,0.1,0.6,0.2,0.9,0.2
			s0.6-0.1,0.9-0.2s0.5-0.4,0.7-0.6c0.2-0.3,0.4-0.6,0.5-1C91.2,239.9,91.2,239.4,91.2,239z"/>
		<path class="st4" d="M94.1,239.8v-1.1h4.1v1.1H94.1z"/>
		<path class="st4" d="M107,239c0,0.6-0.1,1.2-0.3,1.7c-0.2,0.5-0.4,1-0.7,1.3s-0.7,0.7-1.1,0.9s-0.9,0.3-1.4,0.3s-1-0.1-1.4-0.3
			s-0.8-0.5-1.1-0.9s-0.6-0.8-0.7-1.3c-0.2-0.5-0.3-1.1-0.3-1.7s0.1-1.2,0.3-1.7c0.2-0.5,0.4-1,0.7-1.3c0.3-0.4,0.7-0.7,1.1-0.9
			s0.9-0.3,1.4-0.3s1,0.1,1.4,0.3s0.8,0.5,1.1,0.9c0.3,0.4,0.6,0.8,0.7,1.3C106.9,237.8,107,238.4,107,239z M105.8,239
			c0-0.5-0.1-0.9-0.2-1.3s-0.3-0.7-0.5-1s-0.4-0.5-0.7-0.6c-0.3-0.1-0.6-0.2-0.9-0.2s-0.7,0.1-0.9,0.2c-0.3,0.1-0.5,0.4-0.7,0.6
			c-0.2,0.3-0.4,0.6-0.5,1s-0.2,0.8-0.2,1.3s0.1,0.9,0.2,1.3s0.3,0.7,0.5,1s0.4,0.5,0.7,0.6c0.3,0.1,0.6,0.2,0.9,0.2
			s0.6-0.1,0.9-0.2s0.5-0.4,0.7-0.6c0.2-0.3,0.4-0.6,0.5-1C105.7,239.9,105.8,239.4,105.8,239z"/>
		<path class="st4" d="M108.7,239.8v-1.1h4.1v1.1H108.7z"/>
		<path class="st4" d="M121.5,239c0,0.6-0.1,1.2-0.3,1.7c-0.2,0.5-0.4,1-0.7,1.3s-0.7,0.7-1.1,0.9s-0.9,0.3-1.4,0.3s-1-0.1-1.4-0.3
			s-0.8-0.5-1.1-0.9s-0.6-0.8-0.7-1.3c-0.2-0.5-0.3-1.1-0.3-1.7s0.1-1.2,0.3-1.7c0.2-0.5,0.4-1,0.7-1.3c0.3-0.4,0.7-0.7,1.1-0.9
			s0.9-0.3,1.4-0.3s1,0.1,1.4,0.3s0.8,0.5,1.1,0.9c0.3,0.4,0.6,0.8,0.7,1.3C121.4,237.8,121.5,238.4,121.5,239z M120.3,239
			c0-0.5-0.1-0.9-0.2-1.3s-0.3-0.7-0.5-1s-0.4-0.5-0.7-0.6c-0.3-0.1-0.6-0.2-0.9-0.2s-0.7,0.1-0.9,0.2c-0.3,0.1-0.5,0.4-0.7,0.6
			c-0.2,0.3-0.4,0.6-0.5,1s-0.2,0.8-0.2,1.3s0.1,0.9,0.2,1.3s0.3,0.7,0.5,1s0.4,0.5,0.7,0.6c0.3,0.1,0.6,0.2,0.9,0.2
			s0.6-0.1,0.9-0.2s0.5-0.4,0.7-0.6c0.2-0.3,0.4-0.6,0.5-1C120.2,239.9,120.3,239.4,120.3,239z"/>
		<path class="st4" d="M123.2,239.8v-1.1h4.1v1.1H123.2z"/>
		<path class="st4" d="M133.2,236h-5.1v-1.1h7.1l-5,9.9h-1.4L133.2,236z"/>
		<path class="st4" d="M143,239c0,0.6-0.1,1.2-0.3,1.7s-0.4,1-0.7,1.3s-0.7,0.7-1.1,0.9s-0.9,0.3-1.4,0.3s-1-0.1-1.4-0.3
			s-0.8-0.5-1.1-0.9s-0.6-0.8-0.7-1.3c-0.2-0.5-0.3-1.1-0.3-1.7s0.1-1.2,0.3-1.7s0.4-1,0.7-1.3c0.3-0.4,0.7-0.7,1.1-0.9
			s0.9-0.3,1.4-0.3s1,0.1,1.4,0.3s0.8,0.5,1.1,0.9s0.6,0.8,0.7,1.3C142.9,237.8,143,238.4,143,239z M141.8,239
			c0-0.5-0.1-0.9-0.2-1.3c-0.1-0.4-0.3-0.7-0.5-1s-0.4-0.5-0.7-0.6s-0.6-0.2-0.9-0.2c-0.3,0-0.7,0.1-0.9,0.2
			c-0.3,0.1-0.5,0.4-0.7,0.6c-0.2,0.3-0.4,0.6-0.5,1s-0.2,0.8-0.2,1.3s0.1,0.9,0.2,1.3c0.1,0.4,0.3,0.7,0.5,1s0.4,0.5,0.7,0.6
			s0.6,0.2,0.9,0.2c0.3,0,0.6-0.1,0.9-0.2c0.3-0.1,0.5-0.4,0.7-0.6c0.2-0.3,0.4-0.6,0.5-1C141.7,239.9,141.8,239.4,141.8,239z"/>
		<path class="st4" d="M39.4,263.1v-9.9h4.3c0.4,0,0.8,0.1,1.2,0.3c0.4,0.2,0.7,0.4,1,0.7c0.3,0.3,0.5,0.6,0.6,1s0.2,0.8,0.2,1.2
			c0,0.3,0,0.7-0.1,1s-0.2,0.6-0.4,0.9s-0.4,0.5-0.7,0.7s-0.5,0.3-0.9,0.4l2.4,3.8h-1.4l-2.3-3.6h-2.6v3.6h-1.3V263.1z M40.7,258.4
			h3c0.3,0,0.5-0.1,0.7-0.2s0.4-0.3,0.5-0.5s0.3-0.4,0.3-0.7c0.1-0.3,0.1-0.5,0.1-0.8c0-0.3,0-0.5-0.1-0.8c-0.1-0.2-0.2-0.5-0.4-0.7
			s-0.4-0.3-0.6-0.4c-0.2-0.1-0.5-0.2-0.7-0.2h-2.9v4.3H40.7z"/>
		<path class="st4" d="M55.6,261.7c-0.9,0.9-1.9,1.4-3,1.4c-0.7,0-1.3-0.1-1.8-0.4c-0.6-0.3-1.1-0.7-1.5-1.1c-0.4-0.5-0.7-1-1-1.6
			c-0.2-0.6-0.4-1.2-0.4-1.9c0-0.7,0.1-1.3,0.4-1.9c0.2-0.6,0.6-1.1,1-1.6s0.9-0.8,1.5-1.1c0.6-0.3,1.2-0.4,1.8-0.4
			c1,0,1.8,0.2,2.4,0.6c0.6,0.4,1.1,0.9,1.4,1.6l-1,0.7c-0.3-0.6-0.7-1-1.2-1.3s-1.1-0.4-1.7-0.4c-0.5,0-1,0.1-1.4,0.3
			c-0.4,0.2-0.8,0.5-1,0.9c-0.3,0.4-0.5,0.8-0.7,1.2c-0.2,0.5-0.2,1-0.2,1.5s0.1,1,0.3,1.5s0.4,0.9,0.7,1.2c0.3,0.4,0.7,0.6,1.1,0.8
			s0.9,0.3,1.4,0.3c1.1,0,2.1-0.5,2.9-1.6V259h-2.1v-1h3.2v5h-1.1C55.6,263,55.6,261.7,55.6,261.7z"/>
		<path class="st4" d="M66.2,260.5c0,0.4-0.1,0.7-0.2,1s-0.4,0.6-0.6,0.8c-0.3,0.2-0.6,0.4-0.9,0.5c-0.4,0.1-0.7,0.2-1.1,0.2h-4.7
			v-9.9h4.9c0.3,0,0.7,0.1,0.9,0.2c0.3,0.1,0.5,0.3,0.7,0.6c0.2,0.2,0.3,0.5,0.5,0.8c0.1,0.3,0.2,0.6,0.2,0.9c0,0.5-0.1,1-0.4,1.4
			c-0.2,0.4-0.6,0.7-1.1,0.9c0.6,0.2,1,0.5,1.4,0.9C66.1,259.4,66.2,259.9,66.2,260.5z M59.8,254.2v3.3H63c0.2,0,0.4,0,0.6-0.1
			c0.2-0.1,0.3-0.2,0.5-0.4c0.2-0.2,0.2-0.3,0.3-0.5c0.1-0.2,0.1-0.4,0.1-0.6c0-0.2,0-0.5-0.1-0.7s-0.2-0.4-0.3-0.5
			s-0.3-0.3-0.5-0.3c-0.2-0.1-0.4-0.1-0.6-0.1L59.8,254.2L59.8,254.2z M64.9,260.3c0-0.2,0-0.4-0.1-0.7c-0.1-0.2-0.2-0.4-0.3-0.6
			c-0.1-0.2-0.3-0.3-0.5-0.4c-0.2-0.1-0.4-0.1-0.6-0.1h-3.6v3.4h3.5c0.2,0,0.4,0,0.6-0.1s0.4-0.2,0.5-0.4c0.1-0.2,0.3-0.3,0.3-0.5
			C64.9,260.7,64.9,260.5,64.9,260.3z"/>
		<path class="st4" d="M67.7,257.4v-1.6h1v1.6H67.7z M67.7,263.1v-1.6h1v1.6H67.7z"/>
		<path class="st4" d="M79.1,262v1.1h-5V262h2v-5.5c-0.1,0.1-0.2,0.2-0.4,0.4c-0.2,0.1-0.4,0.2-0.6,0.3c-0.2,0.1-0.4,0.2-0.7,0.3
			c-0.2,0.1-0.4,0.1-0.6,0.1v-1.2c0.2,0,0.4-0.1,0.7-0.2c0.3-0.1,0.5-0.3,0.7-0.4s0.4-0.3,0.6-0.4s0.3-0.2,0.3-0.3h1.3v6.9L79.1,262
			L79.1,262z"/>
		<path class="st4" d="M85.4,262v1.1h-5V262h2v-5.5c-0.1,0.1-0.2,0.2-0.4,0.4c-0.2,0.1-0.4,0.2-0.6,0.3c-0.2,0.1-0.4,0.2-0.7,0.3
			c-0.2,0.1-0.4,0.1-0.6,0.1v-1.2c0.2,0,0.4-0.1,0.7-0.2c0.3-0.1,0.5-0.3,0.7-0.4s0.4-0.3,0.6-0.4s0.3-0.2,0.3-0.3h1.3v6.9L85.4,262
			L85.4,262z"/>
		<path class="st4" d="M86.3,263.1c0-0.4,0-0.7,0.1-1s0.2-0.6,0.3-0.9c0.2-0.3,0.4-0.6,0.7-0.9c0.3-0.3,0.7-0.5,1.2-0.8
			c0.3-0.1,0.6-0.3,0.9-0.4s0.6-0.3,0.8-0.5c0.2-0.2,0.4-0.3,0.6-0.5s0.2-0.4,0.2-0.7c0-0.2,0-0.3-0.1-0.5s-0.2-0.3-0.3-0.4
			s-0.3-0.2-0.5-0.3c-0.2-0.1-0.5-0.1-0.7-0.1c-0.3,0-0.5,0-0.8,0.1c-0.2,0.1-0.4,0.2-0.6,0.3c-0.2,0.1-0.3,0.2-0.5,0.4
			s-0.2,0.2-0.3,0.3l-0.8-0.9c0.1-0.1,0.2-0.2,0.4-0.3c0.2-0.1,0.4-0.3,0.7-0.4s0.6-0.3,0.9-0.4s0.8-0.2,1.2-0.2
			c0.4,0,0.8,0.1,1.2,0.2c0.3,0.1,0.6,0.3,0.9,0.5c0.2,0.2,0.4,0.4,0.6,0.7c0.1,0.3,0.2,0.6,0.2,0.9c0,0.4-0.1,0.7-0.2,1
			c-0.2,0.3-0.4,0.5-0.6,0.7s-0.5,0.4-0.7,0.5c-0.3,0.1-0.5,0.3-0.7,0.4s-0.4,0.2-0.7,0.4c-0.3,0.1-0.5,0.3-0.7,0.5
			s-0.4,0.4-0.6,0.6s-0.3,0.5-0.3,0.7h4.8v1.1h-6.6V263.1z"/>
		<path class="st4" d="M94.1,259.8v-1.1h4.1v1.1H94.1z"/>
		<path class="st4" d="M105.1,262v1.1h-5V262h2v-5.5c-0.1,0.1-0.2,0.2-0.4,0.4c-0.2,0.1-0.4,0.2-0.6,0.3c-0.2,0.1-0.4,0.2-0.7,0.3
			c-0.2,0.1-0.4,0.1-0.6,0.1v-1.2c0.2,0,0.4-0.1,0.7-0.2c0.3-0.1,0.5-0.3,0.7-0.4s0.4-0.3,0.6-0.4s0.3-0.2,0.3-0.3h1.3v6.9
			L105.1,262L105.1,262z"/>
		<path class="st4" d="M111.4,262v1.1h-5V262h2v-5.5c-0.1,0.1-0.2,0.2-0.4,0.4c-0.2,0.1-0.4,0.2-0.6,0.3c-0.2,0.1-0.4,0.2-0.7,0.3
			c-0.2,0.1-0.4,0.1-0.6,0.1v-1.2c0.2,0,0.4-0.1,0.7-0.2c0.3-0.1,0.5-0.3,0.7-0.4s0.4-0.3,0.6-0.4s0.3-0.2,0.3-0.3h1.3v6.9
			L111.4,262L111.4,262z"/>
		<path class="st4" d="M117.7,262v1.1h-5V262h2v-5.5c-0.1,0.1-0.2,0.2-0.4,0.4c-0.2,0.1-0.4,0.2-0.6,0.3c-0.2,0.1-0.4,0.2-0.7,0.3
			c-0.2,0.1-0.4,0.1-0.6,0.1v-1.2c0.2,0,0.4-0.1,0.7-0.2c0.3-0.1,0.5-0.3,0.7-0.4s0.4-0.3,0.6-0.4s0.3-0.2,0.3-0.3h1.3v6.9
			L117.7,262L117.7,262z"/>
		<path class="st4" d="M118.8,259.8v-1.1h4.1v1.1H118.8z"/>
		<path class="st4" d="M129.8,262v1.1h-5V262h2v-5.5c-0.1,0.1-0.2,0.2-0.4,0.4c-0.2,0.1-0.4,0.2-0.6,0.3c-0.2,0.1-0.4,0.2-0.7,0.3
			c-0.2,0.1-0.4,0.1-0.6,0.1v-1.2c0.2,0,0.4-0.1,0.7-0.2c0.3-0.1,0.5-0.3,0.7-0.4s0.4-0.3,0.6-0.4s0.3-0.2,0.3-0.3h1.3v6.9
			L129.8,262L129.8,262z"/>
		<path class="st4" d="M136.1,262v1.1h-5V262h2v-5.5c-0.1,0.1-0.2,0.2-0.4,0.4c-0.2,0.1-0.4,0.2-0.6,0.3c-0.2,0.1-0.4,0.2-0.7,0.3
			c-0.2,0.1-0.4,0.1-0.6,0.1v-1.2c0.2,0,0.4-0.1,0.7-0.2s0.5-0.3,0.7-0.4s0.4-0.3,0.6-0.4c0.2-0.1,0.3-0.2,0.3-0.3h1.3v6.9
			L136.1,262L136.1,262z"/>
		<path class="st4" d="M142.4,262v1.1h-5V262h2v-5.5c-0.1,0.1-0.2,0.2-0.4,0.4c-0.2,0.1-0.4,0.2-0.6,0.3c-0.2,0.1-0.4,0.2-0.7,0.3
			c-0.2,0.1-0.4,0.1-0.6,0.1v-1.2c0.2,0,0.4-0.1,0.7-0.2s0.5-0.3,0.7-0.4s0.4-0.3,0.6-0.4c0.2-0.1,0.3-0.2,0.3-0.3h1.3v6.9
			L142.4,262L142.4,262z"/>
		<path class="st4" d="M39.4,283.1v-9.9h4.1c0.4,0,0.8,0.1,1.2,0.3s0.7,0.4,1,0.7c0.3,0.3,0.5,0.6,0.6,1s0.2,0.8,0.2,1.2
			c0,0.4-0.1,0.8-0.2,1.2c-0.1,0.4-0.3,0.7-0.6,1s-0.6,0.5-0.9,0.7s-0.8,0.3-1.2,0.3h-3v3.6h-1.2V283.1z M40.7,278.4h2.9
			c0.3,0,0.5-0.1,0.7-0.2s0.4-0.3,0.5-0.4s0.3-0.4,0.4-0.7s0.1-0.5,0.1-0.8s0-0.6-0.1-0.8c-0.1-0.3-0.2-0.5-0.4-0.7
			s-0.4-0.3-0.6-0.4c-0.2-0.1-0.5-0.2-0.7-0.2h-2.8C40.7,274.2,40.7,278.4,40.7,278.4z"/>
		<path class="st4" d="M50.4,273.1h1.1l4.1,9.9h-1.3l-1.2-2.9h-4.2l-1.2,2.9h-1.3L50.4,273.1z M52.8,279.2l-1.8-4.6l-1.8,4.6H52.8z"
			/>
		<path class="st4" d="M58.1,275.5v7.6h-1.3v-9.9h1l6.2,7.7v-7.7h1.3v9.9h-1.1L58.1,275.5z"/>
		<path class="st4" d="M74.8,274.3h-3.4v8.8h-1.3v-8.8h-3.4v-1.1h8.1C74.8,273.2,74.8,274.3,74.8,274.3z"/>
		<path class="st4" d="M80,283.1c-0.7,0-1.3-0.1-1.9-0.4s-1.1-0.7-1.5-1.1c-0.4-0.5-0.7-1-1-1.6c-0.2-0.6-0.3-1.2-0.3-1.9
			c0-0.7,0.1-1.3,0.4-1.9c0.2-0.6,0.6-1.1,1-1.6s0.9-0.8,1.5-1.1s1.2-0.4,1.9-0.4c0.7,0,1.3,0.1,1.9,0.4s1.1,0.7,1.5,1.2
			s0.7,1,1,1.6c0.2,0.6,0.3,1.2,0.3,1.8c0,0.7-0.1,1.3-0.4,1.9c-0.2,0.6-0.6,1.1-1,1.6s-0.9,0.8-1.5,1.1S80.7,283.1,80,283.1z
			 M76.6,278.1c0,0.5,0.1,1,0.2,1.5c0.2,0.5,0.4,0.9,0.7,1.3s0.7,0.7,1.1,0.9s0.9,0.3,1.4,0.3s1-0.1,1.4-0.3
			c0.4-0.2,0.8-0.5,1.1-0.9c0.3-0.4,0.5-0.8,0.7-1.3s0.2-0.9,0.2-1.4s-0.1-1-0.2-1.5c-0.2-0.5-0.4-0.9-0.7-1.2
			c-0.3-0.4-0.7-0.6-1.1-0.9c-0.4-0.2-0.9-0.3-1.4-0.3s-1,0.1-1.4,0.3c-0.4,0.2-0.8,0.5-1.1,0.9c-0.3,0.4-0.5,0.8-0.7,1.2
			C76.7,277.1,76.6,277.6,76.6,278.1z"/>
		<path class="st4" d="M87.7,275.5v7.6h-1.3v-9.9h1l6.2,7.7v-7.7h1.3v9.9h-1.1L87.7,275.5z"/>
		<path class="st4" d="M104,282v1.1h-6.7v-9.9h6.6v1.1h-5.4v3.2h4.7v1h-4.7v3.4L104,282L104,282z"/>
		<path class="st4" d="M105.4,277.4v-1.6h1v1.6H105.4z M105.4,283.1v-1.6h1v1.6H105.4z"/>
		<path class="st4" d="M115.7,284.9v-2.4h-4.5v-1.1l4.9-6.3h0.8v6.3h1.2v1.1h-1.2v2.4H115.7z M112.5,281.4h3.3V277L112.5,281.4z"/>
		<path class="st4" d="M119.3,283.1c0-0.4,0-0.7,0.1-1s0.2-0.6,0.3-0.9c0.2-0.3,0.4-0.6,0.7-0.9c0.3-0.3,0.7-0.5,1.2-0.8
			c0.3-0.1,0.6-0.3,0.9-0.4s0.6-0.3,0.8-0.5c0.2-0.2,0.4-0.3,0.6-0.5s0.2-0.4,0.2-0.7c0-0.2,0-0.3-0.1-0.5s-0.2-0.3-0.3-0.4
			s-0.3-0.2-0.5-0.3c-0.2-0.1-0.5-0.1-0.7-0.1c-0.3,0-0.5,0-0.8,0.1c-0.2,0.1-0.4,0.2-0.6,0.3c-0.2,0.1-0.3,0.2-0.5,0.4
			s-0.2,0.2-0.3,0.3l-0.8-0.9c0.1-0.1,0.2-0.2,0.4-0.3c0.2-0.1,0.4-0.3,0.7-0.4s0.6-0.3,0.9-0.4s0.8-0.2,1.2-0.2
			c0.4,0,0.8,0.1,1.2,0.2c0.3,0.1,0.6,0.3,0.9,0.5c0.2,0.2,0.4,0.4,0.6,0.7c0.1,0.3,0.2,0.6,0.2,0.9c0,0.4-0.1,0.7-0.2,1
			c-0.2,0.3-0.4,0.5-0.6,0.7s-0.5,0.4-0.7,0.5c-0.3,0.1-0.5,0.3-0.7,0.4s-0.4,0.2-0.7,0.4c-0.3,0.1-0.5,0.3-0.7,0.5
			s-0.4,0.4-0.6,0.6s-0.3,0.5-0.3,0.7h4.8v1.1h-6.6V283.1z"/>
		<path class="st4" d="M134,279.8c0,0.5-0.1,0.9-0.3,1.3s-0.4,0.8-0.8,1.1c-0.3,0.3-0.7,0.6-1.1,0.7s-0.9,0.3-1.4,0.3
			s-1-0.1-1.5-0.3c-0.4-0.2-0.8-0.5-1.1-0.8c-0.3-0.4-0.6-0.8-0.7-1.3s-0.3-1.1-0.3-1.8c0-1,0.1-1.8,0.3-2.6
			c0.2-0.7,0.4-1.3,0.8-1.8c0.3-0.5,0.7-0.9,1.2-1.1s1-0.4,1.5-0.4c0.6,0,1.2,0.2,1.8,0.5c0.5,0.3,0.9,0.7,1.2,1.3l-0.8,0.7
			c-0.2-0.4-0.5-0.8-0.9-1s-0.8-0.4-1.3-0.4c-0.4,0-0.7,0.1-1,0.3c-0.3,0.2-0.6,0.4-0.8,0.8c-0.2,0.3-0.4,0.7-0.5,1.2
			s-0.2,1-0.2,1.6c0.2-0.5,0.5-0.9,1-1.2c0.5-0.3,1-0.4,1.6-0.4c0.5,0,0.9,0.1,1.3,0.3s0.8,0.4,1.1,0.7c0.3,0.3,0.6,0.7,0.7,1.1
			C133.9,278.9,134,279.3,134,279.8z M130.5,282.2c0.3,0,0.6-0.1,0.9-0.2c0.3-0.1,0.5-0.3,0.8-0.5s0.4-0.5,0.5-0.7
			c0.1-0.3,0.2-0.6,0.2-0.9s-0.1-0.6-0.2-0.9c-0.1-0.3-0.3-0.5-0.5-0.7s-0.5-0.4-0.8-0.5s-0.6-0.2-0.9-0.2c-0.3,0-0.6,0.1-0.9,0.2
			c-0.3,0.1-0.5,0.3-0.7,0.5s-0.4,0.5-0.5,0.7c-0.1,0.3-0.2,0.6-0.2,0.9s0.1,0.6,0.2,0.9c0.1,0.3,0.3,0.5,0.5,0.7s0.5,0.4,0.7,0.5
			S130.1,282.2,130.5,282.2z"/>
		<path class="st4" d="M139.9,282c0.6,0,1.1-0.1,1.4-0.3c0.4-0.2,0.7-0.5,0.9-0.9s0.4-0.8,0.5-1.2c0.1-0.5,0.1-0.9,0.1-1.4v-5h1.3v5
			c0,0.7-0.1,1.3-0.2,1.9c-0.2,0.6-0.4,1.1-0.7,1.6s-0.8,0.8-1.3,1.1c-0.5,0.3-1.2,0.4-2,0.4s-1.5-0.1-2-0.4s-1-0.7-1.3-1.1
			c-0.3-0.5-0.6-1-0.7-1.6c-0.1-0.6-0.2-1.2-0.2-1.9v-5h1.3v5c0,0.5,0,1,0.1,1.4c0.1,0.5,0.3,0.9,0.5,1.2c0.2,0.4,0.5,0.6,0.9,0.9
			C138.9,281.9,139.3,282,139.9,282z"/>
		<path class="st4" d="M47.4,293.1v9.9h-1.3v-4.5h-5.5v4.5h-1.3v-9.9h1.3v4.3h5.5v-4.3H47.4z"/>
		<path class="st4" d="M56.5,302v1.1h-6.7v-9.9h6.6v1.1H51v3.2h4.7v1H51v3.4L56.5,302L56.5,302z"/>
		<path class="st4" d="M58.5,293.1l3,4.1l3-4.1h1.4l-3.7,5l3.6,4.9h-1.4l-2.9-4l-2.9,4h-1.4l3.6-4.9l-3.7-5H58.5z"/>
		<path class="st4" d="M66.9,297.4v-1.6h1v1.6H66.9z M66.9,303.1v-1.6h1v1.6H66.9z"/>
		<path class="st4" d="M81.5,296.8h-1.9l-0.6,2.5h1.9v1h-2.1l-0.7,2.8h-1l0.7-2.8h-2.4l-0.7,2.8h-1l0.7-2.8h-1.6v-1h1.8l0.6-2.5
			h-1.8v-0.9h2l0.7-2.8h1l-0.7,2.8h2.4l0.7-2.8h1l-0.7,2.8h1.7V296.8z M78,299.3l0.6-2.5h-2.4l-0.6,2.5H78z"/>
		<path class="st4" d="M89.9,299.8c0,0.5-0.1,0.9-0.3,1.3c-0.2,0.4-0.4,0.8-0.8,1.1c-0.3,0.3-0.7,0.6-1.1,0.7s-0.9,0.3-1.4,0.3
			s-1-0.1-1.5-0.3c-0.4-0.2-0.8-0.5-1.1-0.8c-0.3-0.4-0.6-0.8-0.7-1.3s-0.3-1.1-0.3-1.8c0-1,0.1-1.8,0.3-2.6
			c0.2-0.7,0.4-1.3,0.8-1.8c0.3-0.5,0.7-0.9,1.2-1.1s1-0.4,1.5-0.4c0.6,0,1.2,0.2,1.8,0.5c0.5,0.3,0.9,0.7,1.2,1.3l-0.8,0.7
			c-0.2-0.4-0.5-0.8-0.9-1s-0.8-0.4-1.3-0.4c-0.4,0-0.7,0.1-1,0.3c-0.3,0.2-0.6,0.4-0.8,0.8c-0.2,0.3-0.4,0.7-0.5,1.2
			s-0.2,1-0.2,1.6c0.2-0.5,0.5-0.9,1-1.2c0.5-0.3,1-0.4,1.6-0.4c0.5,0,0.9,0.1,1.3,0.3s0.8,0.4,1.1,0.7c0.3,0.3,0.6,0.7,0.7,1.1
			C89.8,298.9,89.9,299.3,89.9,299.8z M86.3,302.2c0.3,0,0.6-0.1,0.9-0.2s0.5-0.3,0.8-0.5s0.4-0.5,0.5-0.7c0.1-0.3,0.2-0.6,0.2-0.9
			s-0.1-0.6-0.2-0.9s-0.3-0.5-0.5-0.7s-0.5-0.4-0.8-0.5s-0.6-0.2-0.9-0.2s-0.6,0.1-0.9,0.2s-0.5,0.3-0.7,0.5s-0.4,0.5-0.5,0.7
			c-0.1,0.3-0.2,0.6-0.2,0.9s0.1,0.6,0.2,0.9s0.3,0.5,0.5,0.7s0.5,0.4,0.7,0.5C85.7,302.1,86,302.2,86.3,302.2z"/>
		<path class="st4" d="M91.9,303.1v-6.3h-1v-1h1v-0.2c0-0.9,0.2-1.6,0.6-2.1s0.9-0.8,1.6-0.8c0.3,0,0.6,0,0.9,0.1s0.5,0.2,0.8,0.3
			l-0.3,0.9c-0.1-0.1-0.3-0.2-0.5-0.2c-0.2-0.1-0.4-0.1-0.6-0.1c-0.4,0-0.7,0.2-0.9,0.5c-0.2,0.3-0.3,0.8-0.3,1.3v0.2h1.9v1h-1.9
			v6.3h-1.3V303.1z"/>
		<path class="st4" d="M103.2,299.8c0,0.5-0.1,0.9-0.3,1.3c-0.2,0.4-0.4,0.8-0.8,1.1c-0.3,0.3-0.7,0.6-1.1,0.7s-0.9,0.3-1.4,0.3
			s-1-0.1-1.5-0.3c-0.4-0.2-0.8-0.5-1.1-0.8c-0.3-0.4-0.6-0.8-0.7-1.3S96,299.7,96,299c0-1,0.1-1.8,0.3-2.6c0.2-0.7,0.4-1.3,0.8-1.8
			c0.3-0.5,0.7-0.9,1.2-1.1s1-0.4,1.5-0.4c0.6,0,1.2,0.2,1.8,0.5c0.5,0.3,0.9,0.7,1.2,1.3l-0.8,0.7c-0.2-0.4-0.5-0.8-0.9-1
			s-0.8-0.4-1.3-0.4c-0.4,0-0.7,0.1-1,0.3c-0.3,0.2-0.6,0.4-0.8,0.8c-0.2,0.3-0.4,0.7-0.5,1.2s-0.2,1-0.2,1.6c0.2-0.5,0.5-0.9,1-1.2
			c0.5-0.3,1-0.4,1.6-0.4c0.5,0,0.9,0.1,1.3,0.3s0.8,0.4,1.1,0.7c0.3,0.3,0.6,0.7,0.7,1.1C103.1,298.9,103.2,299.3,103.2,299.8z
			 M99.6,302.2c0.3,0,0.6-0.1,0.9-0.2s0.5-0.3,0.8-0.5s0.4-0.5,0.5-0.7c0.1-0.3,0.2-0.6,0.2-0.9s-0.1-0.6-0.2-0.9s-0.3-0.5-0.5-0.7
			s-0.5-0.4-0.8-0.5s-0.6-0.2-0.9-0.2s-0.6,0.1-0.9,0.2s-0.5,0.3-0.7,0.5s-0.4,0.5-0.5,0.7c-0.1,0.3-0.2,0.6-0.2,0.9
			s0.1,0.6,0.2,0.9s0.3,0.5,0.5,0.7s0.5,0.4,0.7,0.5C99,302.1,99.3,302.2,99.6,302.2z"/>
		<path class="st4" d="M105.2,303.1v-6.3h-1v-1h1v-0.2c0-0.9,0.2-1.6,0.6-2.1s0.9-0.8,1.6-0.8c0.3,0,0.6,0,0.9,0.1s0.5,0.2,0.8,0.3
			l-0.3,0.9c-0.1-0.1-0.3-0.2-0.5-0.2c-0.2-0.1-0.4-0.1-0.6-0.1c-0.4,0-0.7,0.2-0.9,0.5c-0.2,0.3-0.3,0.8-0.3,1.3v0.2h1.9v1h-1.9
			v6.3h-1.3V303.1z"/>
		<path class="st4" d="M116.4,299.8c0,0.5-0.1,0.9-0.3,1.3c-0.2,0.4-0.4,0.8-0.8,1.1c-0.3,0.3-0.7,0.6-1.1,0.7s-0.9,0.3-1.4,0.3
			s-1-0.1-1.5-0.3c-0.4-0.2-0.8-0.5-1.1-0.8c-0.3-0.4-0.6-0.8-0.7-1.3s-0.3-1.1-0.3-1.8c0-1,0.1-1.8,0.3-2.6
			c0.2-0.7,0.4-1.3,0.8-1.8c0.3-0.5,0.7-0.9,1.2-1.1s1-0.4,1.5-0.4c0.6,0,1.2,0.2,1.8,0.5c0.5,0.3,0.9,0.7,1.2,1.3l-0.8,0.7
			c-0.2-0.4-0.5-0.8-0.9-1s-0.8-0.4-1.3-0.4c-0.4,0-0.7,0.1-1,0.3c-0.3,0.2-0.6,0.4-0.8,0.8c-0.2,0.3-0.4,0.7-0.5,1.2
			s-0.2,1-0.2,1.6c0.2-0.5,0.5-0.9,1-1.2c0.5-0.3,1-0.4,1.6-0.4c0.5,0,0.9,0.1,1.3,0.3s0.8,0.4,1.1,0.7c0.3,0.3,0.6,0.7,0.7,1.1
			C116.4,298.9,116.4,299.3,116.4,299.8z M112.9,302.2c0.3,0,0.6-0.1,0.9-0.2s0.5-0.3,0.8-0.5s0.4-0.5,0.5-0.7
			c0.1-0.3,0.2-0.6,0.2-0.9s-0.1-0.6-0.2-0.9s-0.3-0.5-0.5-0.7s-0.5-0.4-0.8-0.5s-0.6-0.2-0.9-0.2s-0.6,0.1-0.9,0.2
			s-0.5,0.3-0.7,0.5s-0.4,0.5-0.5,0.7c-0.1,0.3-0.2,0.6-0.2,0.9s0.1,0.6,0.2,0.9s0.3,0.5,0.5,0.7s0.5,0.4,0.7,0.5
			C112.3,302.1,112.6,302.2,112.9,302.2z"/>
		<path class="st4" d="M121.3,303.2c-0.6,0-1.1-0.1-1.5-0.3c-0.5-0.2-0.8-0.5-1.2-0.8c-0.3-0.3-0.6-0.7-0.8-1.2
			c-0.2-0.5-0.3-0.9-0.3-1.5c0-0.5,0.1-1,0.3-1.5c0.2-0.5,0.4-0.9,0.8-1.2c0.3-0.3,0.7-0.6,1.2-0.8c0.5-0.2,1-0.3,1.5-0.3
			s1.1,0.1,1.5,0.3c0.5,0.2,0.8,0.5,1.2,0.8c0.3,0.3,0.6,0.7,0.7,1.2c0.2,0.5,0.3,0.9,0.3,1.4c0,0.1,0,0.2,0,0.3s0,0.1,0,0.2h-6.1
			c0,0.4,0.1,0.7,0.3,1c0.1,0.3,0.3,0.6,0.5,0.8c0.2,0.2,0.5,0.4,0.8,0.5s0.6,0.2,0.9,0.2c0.2,0,0.4,0,0.7-0.1s0.4-0.1,0.6-0.2
			s0.4-0.2,0.5-0.4c0.1-0.1,0.3-0.3,0.3-0.5l1.1,0.3c-0.1,0.3-0.3,0.5-0.5,0.7s-0.5,0.4-0.7,0.6c-0.3,0.2-0.6,0.3-0.9,0.4
			S121.7,303.2,121.3,303.2z M123.8,298.9c0-0.3-0.1-0.7-0.3-1c-0.1-0.3-0.3-0.5-0.5-0.7s-0.5-0.4-0.8-0.5s-0.6-0.2-0.9-0.2
			s-0.6,0.1-0.9,0.2s-0.5,0.3-0.8,0.5c-0.2,0.2-0.4,0.5-0.5,0.7c-0.1,0.3-0.2,0.6-0.2,1H123.8z"/>
	</g>
</g>
<g>
	<g>
		<path class="st4" d="M239.2,238c0-0.6,0.1-1.2,0.3-1.8s0.5-1.1,0.9-1.6s0.9-0.9,1.5-1.1c0.6-0.3,1.3-0.4,2-0.4
			c0.9,0,1.6,0.2,2.3,0.6s1.1,0.9,1.4,1.6l-1,0.6c-0.1-0.3-0.3-0.6-0.5-0.8c-0.2-0.2-0.4-0.4-0.7-0.5s-0.5-0.2-0.8-0.3
			c-0.3-0.1-0.5-0.1-0.8-0.1c-0.6,0-1,0.1-1.5,0.3c-0.4,0.2-0.8,0.5-1.1,0.9s-0.5,0.8-0.7,1.2s-0.2,0.9-0.2,1.4s0.1,1,0.3,1.5
			s0.4,0.9,0.7,1.3s0.7,0.7,1.1,0.9s0.9,0.3,1.4,0.3c0.3,0,0.5,0,0.8-0.1s0.5-0.2,0.8-0.3s0.5-0.3,0.7-0.5s0.4-0.5,0.5-0.8l1,0.6
			c-0.2,0.4-0.4,0.7-0.7,1s-0.6,0.5-1,0.7s-0.7,0.3-1.1,0.4s-0.8,0.2-1.2,0.2c-0.7,0-1.3-0.1-1.9-0.4c-0.6-0.3-1.1-0.7-1.5-1.2
			s-0.7-1-1-1.6S239.2,238.7,239.2,238z"/>
		<path class="st4" d="M258,243.1v-7.7l-3.3,5.9H254l-3.3-5.9v7.7h-1.3v-9.9h1.3l3.6,6.5l3.6-6.5h1.3v9.9H258z"/>
		<path class="st4" d="M262.1,233.1l3,5.2l3-5.2h1.4l-3.8,6.3v3.6h-1.3v-3.7l-3.8-6.3h1.5V233.1z"/>
		<path class="st4" d="M270.8,243.1v-9.9h1.3v5.5l5.1-5.5h1.4l-4,4.4l4.2,5.6h-1.4l-3.6-4.8l-1.7,1.8v3h-1.3V243.1z"/>
		<path class="st4" d="M279.7,237.4v-1.6h1v1.6H279.7z M279.7,243.1v-1.6h1v1.6H279.7z"/>
		<path class="st4" d="M293,239c0,0.6-0.1,1.2-0.3,1.7c-0.2,0.5-0.4,1-0.7,1.3s-0.7,0.7-1.1,0.9s-0.9,0.3-1.4,0.3s-1-0.1-1.4-0.3
			s-0.8-0.5-1.1-0.9s-0.6-0.8-0.7-1.3c-0.2-0.5-0.3-1.1-0.3-1.7s0.1-1.2,0.3-1.7c0.2-0.5,0.4-1,0.7-1.3c0.3-0.4,0.7-0.7,1.1-0.9
			s0.9-0.3,1.4-0.3s1,0.1,1.4,0.3s0.8,0.5,1.1,0.9c0.3,0.4,0.6,0.8,0.7,1.3C292.9,237.8,293,238.4,293,239z M291.7,239
			c0-0.5-0.1-0.9-0.2-1.3s-0.3-0.7-0.5-1s-0.4-0.5-0.7-0.6c-0.3-0.1-0.6-0.2-0.9-0.2s-0.7,0.1-0.9,0.2c-0.3,0.1-0.5,0.4-0.7,0.6
			c-0.2,0.3-0.4,0.6-0.5,1s-0.2,0.8-0.2,1.3s0.1,0.9,0.2,1.3s0.3,0.7,0.5,1s0.4,0.5,0.7,0.6c0.3,0.1,0.6,0.2,0.9,0.2
			s0.6-0.1,0.9-0.2s0.5-0.4,0.7-0.6c0.2-0.3,0.4-0.6,0.5-1C291.7,239.9,291.7,239.4,291.7,239z"/>
		<path class="st4" d="M294.6,239.8v-1.1h4.1v1.1H294.6z"/>
		<path class="st4" d="M307.5,239c0,0.6-0.1,1.2-0.3,1.7c-0.2,0.5-0.4,1-0.7,1.3s-0.7,0.7-1.1,0.9s-0.9,0.3-1.4,0.3s-1-0.1-1.4-0.3
			s-0.8-0.5-1.1-0.9s-0.6-0.8-0.7-1.3c-0.2-0.5-0.3-1.1-0.3-1.7s0.1-1.2,0.3-1.7c0.2-0.5,0.4-1,0.7-1.3c0.3-0.4,0.7-0.7,1.1-0.9
			s0.9-0.3,1.4-0.3s1,0.1,1.4,0.3s0.8,0.5,1.1,0.9c0.3,0.4,0.6,0.8,0.7,1.3C307.4,237.8,307.5,238.4,307.5,239z M306.2,239
			c0-0.5-0.1-0.9-0.2-1.3s-0.3-0.7-0.5-1s-0.4-0.5-0.7-0.6c-0.3-0.1-0.6-0.2-0.9-0.2s-0.7,0.1-0.9,0.2c-0.3,0.1-0.5,0.4-0.7,0.6
			c-0.2,0.3-0.4,0.6-0.5,1s-0.2,0.8-0.2,1.3s0.1,0.9,0.2,1.3s0.3,0.7,0.5,1s0.4,0.5,0.7,0.6c0.3,0.1,0.6,0.2,0.9,0.2
			s0.6-0.1,0.9-0.2s0.5-0.4,0.7-0.6c0.2-0.3,0.4-0.6,0.5-1C306.2,239.9,306.2,239.4,306.2,239z"/>
		<path class="st4" d="M309.1,239.8v-1.1h4.1v1.1H309.1z"/>
		<path class="st4" d="M322,239c0,0.6-0.1,1.2-0.3,1.7c-0.2,0.5-0.4,1-0.7,1.3s-0.7,0.7-1.1,0.9s-0.9,0.3-1.4,0.3s-1-0.1-1.4-0.3
			s-0.8-0.5-1.1-0.9s-0.6-0.8-0.7-1.3c-0.2-0.5-0.3-1.1-0.3-1.7s0.1-1.2,0.3-1.7c0.2-0.5,0.4-1,0.7-1.3c0.3-0.4,0.7-0.7,1.1-0.9
			s0.9-0.3,1.4-0.3s1,0.1,1.4,0.3s0.8,0.5,1.1,0.9c0.3,0.4,0.6,0.8,0.7,1.3C321.9,237.8,322,238.4,322,239z M320.8,239
			c0-0.5-0.1-0.9-0.2-1.3s-0.3-0.7-0.5-1s-0.4-0.5-0.7-0.6c-0.3-0.1-0.6-0.2-0.9-0.2s-0.7,0.1-0.9,0.2c-0.3,0.1-0.5,0.4-0.7,0.6
			c-0.2,0.3-0.4,0.6-0.5,1s-0.2,0.8-0.2,1.3s0.1,0.9,0.2,1.3s0.3,0.7,0.5,1s0.4,0.5,0.7,0.6c0.3,0.1,0.6,0.2,0.9,0.2
			s0.6-0.1,0.9-0.2s0.5-0.4,0.7-0.6c0.2-0.3,0.4-0.6,0.5-1C320.7,239.9,320.8,239.4,320.8,239z"/>
		<path class="st4" d="M323.7,239.8v-1.1h4.1v1.1H323.7z"/>
		<path class="st4" d="M333.3,239.8c0.6,0.1,1.1,0.4,1.4,0.8c0.4,0.4,0.5,1,0.5,1.7c0,0.4-0.1,0.8-0.2,1.2c-0.2,0.4-0.4,0.7-0.7,0.9
			s-0.6,0.4-1.1,0.6c-0.4,0.1-0.9,0.2-1.4,0.2c-0.7,0-1.3-0.1-1.9-0.4c-0.5-0.3-1-0.6-1.3-1.1l0.8-0.8c0.2,0.4,0.5,0.7,0.9,0.9
			c0.4,0.2,0.8,0.3,1.4,0.3s1.1-0.1,1.5-0.4s0.6-0.7,0.6-1.3c0-0.6-0.2-1.1-0.6-1.4c-0.4-0.4-1-0.5-1.7-0.5h-0.4v-1h0.4
			c0.7,0,1.2-0.2,1.5-0.5c0.4-0.3,0.5-0.7,0.5-1.2s-0.2-0.9-0.5-1.1s-0.8-0.4-1.3-0.4s-1,0.1-1.4,0.3c-0.4,0.2-0.7,0.5-0.9,0.9
			l-0.8-0.8c0.1-0.2,0.3-0.4,0.5-0.6s0.5-0.4,0.7-0.5s0.6-0.2,0.9-0.3c0.3-0.1,0.7-0.1,1-0.1c0.4,0,0.8,0.1,1.2,0.2
			c0.4,0.1,0.7,0.3,1,0.5s0.5,0.5,0.6,0.8s0.2,0.6,0.2,1c0,0.3,0,0.5-0.1,0.8s-0.2,0.5-0.4,0.7c-0.2,0.2-0.3,0.4-0.6,0.5
			C333.8,239.6,333.6,239.7,333.3,239.8z"/>
		<path class="st4" d="M343.7,239c0,0.6-0.1,1.2-0.3,1.7c-0.2,0.5-0.4,1-0.7,1.3s-0.7,0.7-1.1,0.9s-0.9,0.3-1.4,0.3s-1-0.1-1.4-0.3
			s-0.8-0.5-1.1-0.9s-0.6-0.8-0.7-1.3c-0.2-0.5-0.3-1.1-0.3-1.7s0.1-1.2,0.3-1.7c0.2-0.5,0.4-1,0.7-1.3c0.3-0.4,0.7-0.7,1.1-0.9
			s0.9-0.3,1.4-0.3s1,0.1,1.4,0.3s0.8,0.5,1.1,0.9c0.3,0.4,0.6,0.8,0.7,1.3C343.6,237.8,343.7,238.4,343.7,239z M342.4,239
			c0-0.5-0.1-0.9-0.2-1.3s-0.3-0.7-0.5-1s-0.4-0.5-0.7-0.6c-0.3-0.1-0.6-0.2-0.9-0.2s-0.7,0.1-0.9,0.2c-0.3,0.1-0.5,0.4-0.7,0.6
			c-0.2,0.3-0.4,0.6-0.5,1s-0.2,0.8-0.2,1.3s0.1,0.9,0.2,1.3s0.3,0.7,0.5,1s0.4,0.5,0.7,0.6c0.3,0.1,0.6,0.2,0.9,0.2
			s0.6-0.1,0.9-0.2s0.5-0.4,0.7-0.6c0.2-0.3,0.4-0.6,0.5-1C342.4,239.9,342.4,239.4,342.4,239z"/>
		<path class="st4" d="M239.9,263.1v-9.9h4.3c0.4,0,0.8,0.1,1.2,0.3c0.4,0.2,0.7,0.4,1,0.7c0.3,0.3,0.5,0.6,0.6,1s0.2,0.8,0.2,1.2
			c0,0.3,0,0.7-0.1,1s-0.2,0.6-0.4,0.9s-0.4,0.5-0.7,0.7s-0.5,0.3-0.9,0.4l2.4,3.8H246l-2.3-3.6h-2.6v3.6h-1.2V263.1z M241.1,258.4
			h3c0.3,0,0.5-0.1,0.7-0.2s0.4-0.3,0.5-0.5s0.3-0.4,0.3-0.7c0.1-0.3,0.1-0.5,0.1-0.8c0-0.3,0-0.5-0.1-0.8c-0.1-0.2-0.2-0.5-0.4-0.7
			s-0.4-0.3-0.6-0.4c-0.2-0.1-0.5-0.2-0.7-0.2H241L241.1,258.4L241.1,258.4z"/>
		<path class="st4" d="M256.1,261.7c-0.9,0.9-1.9,1.4-3,1.4c-0.7,0-1.3-0.1-1.8-0.4c-0.6-0.3-1.1-0.7-1.5-1.1c-0.4-0.5-0.7-1-1-1.6
			c-0.2-0.6-0.4-1.2-0.4-1.9c0-0.7,0.1-1.3,0.4-1.9c0.2-0.6,0.6-1.1,1-1.6s0.9-0.8,1.5-1.1c0.6-0.3,1.2-0.4,1.8-0.4
			c1,0,1.8,0.2,2.4,0.6c0.6,0.4,1.1,0.9,1.4,1.6l-1,0.7c-0.3-0.6-0.7-1-1.2-1.3s-1.1-0.4-1.7-0.4c-0.5,0-1,0.1-1.4,0.3
			c-0.4,0.2-0.8,0.5-1,0.9c-0.3,0.4-0.5,0.8-0.7,1.2c-0.2,0.5-0.2,1-0.2,1.5s0.1,1,0.3,1.5s0.4,0.9,0.7,1.2c0.3,0.4,0.7,0.6,1.1,0.8
			s0.9,0.3,1.4,0.3c1.1,0,2.1-0.5,2.9-1.6V259H254v-1h3.2v5h-1.1V261.7z"/>
		<path class="st4" d="M266.7,260.5c0,0.4-0.1,0.7-0.2,1s-0.4,0.6-0.6,0.8c-0.3,0.2-0.6,0.4-0.9,0.5c-0.4,0.1-0.7,0.2-1.1,0.2h-4.7
			v-9.9h4.9c0.3,0,0.7,0.1,0.9,0.2c0.3,0.1,0.5,0.3,0.7,0.6c0.2,0.2,0.3,0.5,0.5,0.8c0.1,0.3,0.2,0.6,0.2,0.9c0,0.5-0.1,1-0.4,1.4
			c-0.2,0.4-0.6,0.7-1.1,0.9c0.6,0.2,1,0.5,1.4,0.9C266.5,259.4,266.7,259.9,266.7,260.5z M260.3,254.2v3.3h3.2c0.2,0,0.4,0,0.6-0.1
			s0.3-0.2,0.5-0.4s0.2-0.3,0.3-0.5c0.1-0.2,0.1-0.4,0.1-0.6c0-0.2,0-0.5-0.1-0.7s-0.2-0.4-0.3-0.5s-0.3-0.3-0.5-0.3
			c-0.2-0.1-0.4-0.1-0.6-0.1L260.3,254.2L260.3,254.2z M265.4,260.3c0-0.2,0-0.4-0.1-0.7c-0.1-0.2-0.2-0.4-0.3-0.6
			c-0.1-0.2-0.3-0.3-0.5-0.4s-0.4-0.1-0.6-0.1h-3.6v3.4h3.5c0.2,0,0.4,0,0.6-0.1s0.4-0.2,0.5-0.4c0.1-0.2,0.3-0.3,0.3-0.5
			C265.4,260.7,265.4,260.5,265.4,260.3z"/>
		<path class="st4" d="M268.2,257.4v-1.6h1v1.6H268.2z M268.2,263.1v-1.6h1v1.6H268.2z"/>
		<path class="st4" d="M279.6,262v1.1h-5V262h2v-5.5c-0.1,0.1-0.2,0.2-0.4,0.4c-0.2,0.1-0.4,0.2-0.6,0.3c-0.2,0.1-0.4,0.2-0.7,0.3
			c-0.2,0.1-0.4,0.1-0.6,0.1v-1.2c0.2,0,0.4-0.1,0.7-0.2c0.3-0.1,0.5-0.3,0.7-0.4s0.4-0.3,0.6-0.4s0.3-0.2,0.3-0.3h1.3v6.9
			L279.6,262L279.6,262z"/>
		<path class="st4" d="M280.4,258.5c0-0.5,0.1-0.9,0.3-1.3c0.2-0.4,0.4-0.8,0.8-1.1c0.4-0.3,0.7-0.6,1.1-0.7
			c0.4-0.2,0.9-0.3,1.4-0.3s1,0.1,1.5,0.3c0.4,0.2,0.8,0.5,1.1,0.8c0.3,0.4,0.6,0.8,0.7,1.3c0.2,0.5,0.3,1.1,0.3,1.8
			c0,1-0.1,1.8-0.3,2.6c-0.2,0.7-0.4,1.3-0.8,1.8c-0.3,0.5-0.7,0.9-1.2,1.1s-1,0.4-1.5,0.4c-0.6,0-1.2-0.2-1.8-0.5
			c-0.5-0.3-0.9-0.7-1.2-1.3l0.8-0.7c0.2,0.4,0.5,0.8,0.9,1c0.4,0.3,0.8,0.4,1.3,0.4c0.8,0,1.4-0.3,1.8-1c0.5-0.7,0.7-1.6,0.7-2.9
			c-0.2,0.5-0.5,0.9-1,1.2c-0.5,0.3-1,0.4-1.6,0.4c-0.5,0-0.9-0.1-1.3-0.3s-0.8-0.4-1.1-0.7s-0.6-0.7-0.7-1.1
			C280.5,259.4,280.4,259,280.4,258.5z M284,256.1c-0.3,0-0.6,0.1-0.9,0.2s-0.5,0.3-0.7,0.5s-0.4,0.5-0.5,0.7
			c-0.1,0.3-0.2,0.6-0.2,0.9s0.1,0.6,0.2,0.9s0.3,0.5,0.5,0.7s0.5,0.4,0.7,0.5s0.6,0.2,0.9,0.2s0.6-0.1,0.9-0.2s0.5-0.3,0.7-0.5
			s0.4-0.5,0.5-0.7c0.1-0.3,0.2-0.6,0.2-0.9s-0.1-0.6-0.2-0.9s-0.3-0.5-0.5-0.8c-0.2-0.2-0.5-0.4-0.8-0.5S284.3,256.1,284,256.1z"/>
		<path class="st4" d="M293.7,256h-5.1v-1.1h7.1l-5,9.9h-1.4L293.7,256z"/>
		<path class="st4" d="M296.2,259.8v-1.1h4.1v1.1H296.2z"/>
		<path class="st4" d="M307.2,262v1.1h-5V262h2v-5.5c-0.1,0.1-0.2,0.2-0.4,0.4c-0.2,0.1-0.4,0.2-0.6,0.3c-0.2,0.1-0.4,0.2-0.7,0.3
			c-0.2,0.1-0.4,0.1-0.6,0.1v-1.2c0.2,0,0.4-0.1,0.7-0.2c0.3-0.1,0.5-0.3,0.7-0.4s0.4-0.3,0.6-0.4s0.3-0.2,0.3-0.3h1.3v6.9
			L307.2,262L307.2,262z"/>
		<path class="st4" d="M308.1,258.5c0-0.5,0.1-0.9,0.3-1.3c0.2-0.4,0.4-0.8,0.8-1.1c0.4-0.3,0.7-0.6,1.1-0.7
			c0.4-0.2,0.9-0.3,1.4-0.3s1,0.1,1.5,0.3c0.4,0.2,0.8,0.5,1.1,0.8c0.3,0.4,0.6,0.8,0.7,1.3c0.2,0.5,0.3,1.1,0.3,1.8
			c0,1-0.1,1.8-0.3,2.6c-0.2,0.7-0.4,1.3-0.8,1.8c-0.3,0.5-0.7,0.9-1.2,1.1s-1,0.4-1.5,0.4c-0.6,0-1.2-0.2-1.8-0.5
			c-0.5-0.3-0.9-0.7-1.2-1.3l0.8-0.7c0.2,0.4,0.5,0.8,0.9,1c0.4,0.3,0.8,0.4,1.3,0.4c0.8,0,1.4-0.3,1.8-1c0.5-0.7,0.7-1.6,0.7-2.9
			c-0.2,0.5-0.5,0.9-1,1.2c-0.5,0.3-1,0.4-1.6,0.4c-0.5,0-0.9-0.1-1.3-0.3s-0.8-0.4-1.1-0.7s-0.6-0.7-0.7-1.1
			C308.1,259.4,308.1,259,308.1,258.5z M311.6,256.1c-0.3,0-0.6,0.1-0.9,0.2s-0.5,0.3-0.7,0.5s-0.4,0.5-0.5,0.7
			c-0.1,0.3-0.2,0.6-0.2,0.9s0.1,0.6,0.2,0.9s0.3,0.5,0.5,0.7s0.5,0.4,0.7,0.5s0.6,0.2,0.9,0.2s0.6-0.1,0.9-0.2s0.5-0.3,0.7-0.5
			s0.4-0.5,0.5-0.7c0.1-0.3,0.2-0.6,0.2-0.9s-0.1-0.6-0.2-0.9s-0.3-0.5-0.5-0.8c-0.2-0.2-0.5-0.4-0.8-0.5S311.9,256.1,311.6,256.1z"
			/>
		<path class="st4" d="M321.3,256h-5.1v-1.1h7.1l-5,9.9h-1.4L321.3,256z"/>
		<path class="st4" d="M323.8,259.8v-1.1h4.1v1.1H323.8z"/>
		<path class="st4" d="M334.8,262v1.1h-5V262h2v-5.5c-0.1,0.1-0.2,0.2-0.4,0.4c-0.2,0.1-0.4,0.2-0.6,0.3c-0.2,0.1-0.4,0.2-0.7,0.3
			c-0.2,0.1-0.4,0.1-0.6,0.1v-1.2c0.2,0,0.4-0.1,0.7-0.2c0.3-0.1,0.5-0.3,0.7-0.4s0.4-0.3,0.6-0.4s0.3-0.2,0.3-0.3h1.3v6.9
			L334.8,262L334.8,262z"/>
		<path class="st4" d="M335.7,258.5c0-0.5,0.1-0.9,0.3-1.3c0.2-0.4,0.4-0.8,0.8-1.1c0.4-0.3,0.7-0.6,1.1-0.7
			c0.4-0.2,0.9-0.3,1.4-0.3s1,0.1,1.5,0.3c0.4,0.2,0.8,0.5,1.1,0.8c0.3,0.4,0.6,0.8,0.7,1.3c0.2,0.5,0.3,1.1,0.3,1.8
			c0,1-0.1,1.8-0.3,2.6c-0.2,0.7-0.4,1.3-0.8,1.8c-0.3,0.5-0.7,0.9-1.2,1.1s-1,0.4-1.5,0.4c-0.6,0-1.2-0.2-1.8-0.5
			c-0.5-0.3-0.9-0.7-1.2-1.3l0.8-0.7c0.2,0.4,0.5,0.8,0.9,1c0.4,0.3,0.8,0.4,1.3,0.4c0.8,0,1.4-0.3,1.8-1c0.5-0.7,0.7-1.6,0.7-2.9
			c-0.2,0.5-0.5,0.9-1,1.2c-0.5,0.3-1,0.4-1.6,0.4c-0.5,0-0.9-0.1-1.3-0.3s-0.8-0.4-1.1-0.7s-0.6-0.7-0.7-1.1
			C335.8,259.4,335.7,259,335.7,258.5z M339.2,256.1c-0.3,0-0.6,0.1-0.9,0.2s-0.5,0.3-0.7,0.5s-0.4,0.5-0.5,0.7
			c-0.1,0.3-0.2,0.6-0.2,0.9s0.1,0.6,0.2,0.9s0.3,0.5,0.5,0.7s0.5,0.4,0.7,0.5s0.6,0.2,0.9,0.2s0.6-0.1,0.9-0.2s0.5-0.3,0.7-0.5
			s0.4-0.5,0.5-0.7c0.1-0.3,0.2-0.6,0.2-0.9s-0.1-0.6-0.2-0.9s-0.3-0.5-0.5-0.8c-0.2-0.2-0.5-0.4-0.8-0.5S339.5,256.1,339.2,256.1z"
			/>
		<path class="st4" d="M348.9,256h-5.1v-1.1h7.1l-5,9.9h-1.4L348.9,256z"/>
		<path class="st4" d="M239.9,283.1v-9.9h4.1c0.4,0,0.8,0.1,1.2,0.3s0.7,0.4,1,0.7c0.3,0.3,0.5,0.6,0.6,1s0.2,0.8,0.2,1.2
			c0,0.4-0.1,0.8-0.2,1.2c-0.1,0.4-0.3,0.7-0.6,1s-0.6,0.5-0.9,0.7s-0.8,0.3-1.2,0.3h-3v3.6h-1.2V283.1z M241.1,278.4h2.9
			c0.3,0,0.5-0.1,0.7-0.2s0.4-0.3,0.5-0.4s0.3-0.4,0.4-0.7s0.1-0.5,0.1-0.8s0-0.6-0.1-0.8c-0.1-0.3-0.2-0.5-0.4-0.7
			s-0.4-0.3-0.6-0.4c-0.2-0.1-0.5-0.2-0.7-0.2h-2.8L241.1,278.4L241.1,278.4z"/>
		<path class="st4" d="M250.9,273.1h1.1l4.1,9.9h-1.3l-1.2-2.9h-4.2l-1.2,2.9h-1.3L250.9,273.1z M253.2,279.2l-1.8-4.6l-1.8,4.6
			H253.2z"/>
		<path class="st4" d="M258.6,275.5v7.6h-1.3v-9.9h1l6.2,7.7v-7.7h1.3v9.9h-1.1L258.6,275.5z"/>
		<path class="st4" d="M275.3,274.3h-3.4v8.8h-1.3v-8.8h-3.4v-1.1h8.1L275.3,274.3L275.3,274.3z"/>
		<path class="st4" d="M280.5,283.1c-0.7,0-1.3-0.1-1.9-0.4s-1.1-0.7-1.5-1.1c-0.4-0.5-0.7-1-1-1.6c-0.2-0.6-0.3-1.2-0.3-1.9
			c0-0.7,0.1-1.3,0.4-1.9c0.2-0.6,0.6-1.1,1-1.6s0.9-0.8,1.5-1.1s1.2-0.4,1.9-0.4c0.7,0,1.3,0.1,1.9,0.4s1.1,0.7,1.5,1.2
			s0.7,1,1,1.6c0.2,0.6,0.3,1.2,0.3,1.8c0,0.7-0.1,1.3-0.4,1.9c-0.2,0.6-0.6,1.1-1,1.6s-0.9,0.8-1.5,1.1S281.2,283.1,280.5,283.1z
			 M277.1,278.1c0,0.5,0.1,1,0.2,1.5c0.2,0.5,0.4,0.9,0.7,1.3s0.7,0.7,1.1,0.9s0.9,0.3,1.4,0.3s1-0.1,1.4-0.3
			c0.4-0.2,0.8-0.5,1.1-0.9c0.3-0.4,0.5-0.8,0.7-1.3s0.2-0.9,0.2-1.4s-0.1-1-0.2-1.5c-0.2-0.5-0.4-0.9-0.7-1.2
			c-0.3-0.4-0.7-0.6-1.1-0.9c-0.4-0.2-0.9-0.3-1.4-0.3s-1,0.1-1.4,0.3c-0.4,0.2-0.8,0.5-1.1,0.9c-0.3,0.4-0.5,0.8-0.7,1.2
			C277.2,277.1,277.1,277.6,277.1,278.1z"/>
		<path class="st4" d="M288.2,275.5v7.6h-1.3v-9.9h1l6.2,7.7v-7.7h1.3v9.9h-1.1L288.2,275.5z"/>
		<path class="st4" d="M304.5,282v1.1h-6.7v-9.9h6.6v1.1H299v3.2h4.7v1H299v3.4L304.5,282L304.5,282z"/>
		<path class="st4" d="M305.9,277.4v-1.6h1v1.6H305.9z M305.9,283.1v-1.6h1v1.6H305.9z"/>
		<path class="st4" d="M316.2,284.9v-2.4h-4.5v-1.1l4.9-6.3h0.8v6.3h1.2v1.1h-1.2v2.4H316.2z M313,281.4h3.3V277L313,281.4z"/>
		<path class="st4" d="M319.8,283.1c0-0.4,0-0.7,0.1-1s0.2-0.6,0.3-0.9c0.2-0.3,0.4-0.6,0.7-0.9c0.3-0.3,0.7-0.5,1.2-0.8
			c0.3-0.1,0.6-0.3,0.9-0.4s0.6-0.3,0.8-0.5c0.2-0.2,0.4-0.3,0.6-0.5s0.2-0.4,0.2-0.7c0-0.2,0-0.3-0.1-0.5s-0.2-0.3-0.3-0.4
			s-0.3-0.2-0.5-0.3c-0.2-0.1-0.5-0.1-0.7-0.1c-0.3,0-0.5,0-0.8,0.1c-0.2,0.1-0.4,0.2-0.6,0.3c-0.2,0.1-0.3,0.2-0.5,0.4
			s-0.2,0.2-0.3,0.3l-0.8-0.9c0.1-0.1,0.2-0.2,0.4-0.3c0.2-0.1,0.4-0.3,0.7-0.4s0.6-0.3,0.9-0.4s0.8-0.2,1.2-0.2
			c0.4,0,0.8,0.1,1.2,0.2c0.3,0.1,0.6,0.3,0.9,0.5c0.2,0.2,0.4,0.4,0.6,0.7c0.1,0.3,0.2,0.6,0.2,0.9c0,0.4-0.1,0.7-0.2,1
			c-0.2,0.3-0.4,0.5-0.6,0.7s-0.5,0.4-0.7,0.5c-0.3,0.1-0.5,0.3-0.7,0.4s-0.4,0.2-0.7,0.4c-0.3,0.1-0.5,0.3-0.7,0.5
			s-0.4,0.4-0.6,0.6s-0.3,0.5-0.3,0.7h4.8v1.1h-6.6V283.1z"/>
		<path class="st4" d="M334.5,279c0,0.6-0.1,1.2-0.3,1.7c-0.2,0.5-0.4,1-0.7,1.3s-0.7,0.7-1.1,0.9s-0.9,0.3-1.4,0.3s-1-0.1-1.4-0.3
			s-0.8-0.5-1.1-0.9s-0.6-0.8-0.7-1.3c-0.2-0.5-0.3-1.1-0.3-1.7s0.1-1.2,0.3-1.7c0.2-0.5,0.4-1,0.7-1.3c0.3-0.4,0.7-0.7,1.1-0.9
			s0.9-0.3,1.4-0.3s1,0.1,1.4,0.3s0.8,0.5,1.1,0.9c0.3,0.4,0.6,0.8,0.7,1.3C334.4,277.8,334.5,278.4,334.5,279z M333.2,279
			c0-0.5-0.1-0.9-0.2-1.3s-0.3-0.7-0.5-1s-0.4-0.5-0.7-0.6c-0.3-0.1-0.6-0.2-0.9-0.2s-0.7,0.1-0.9,0.2c-0.3,0.1-0.5,0.4-0.7,0.6
			c-0.2,0.3-0.4,0.6-0.5,1s-0.2,0.8-0.2,1.3s0.1,0.9,0.2,1.3s0.3,0.7,0.5,1s0.4,0.5,0.7,0.6c0.3,0.1,0.6,0.2,0.9,0.2
			s0.6-0.1,0.9-0.2s0.5-0.4,0.7-0.6c0.2-0.3,0.4-0.6,0.5-1C333.2,279.9,333.2,279.4,333.2,279z"/>
		<path class="st4" d="M340.5,282c0.6,0,1.1-0.1,1.4-0.3c0.4-0.2,0.7-0.5,0.9-0.9c0.2-0.4,0.4-0.8,0.5-1.2c0.1-0.5,0.1-0.9,0.1-1.4
			v-5h1.3v5c0,0.7-0.1,1.3-0.2,1.9c-0.2,0.6-0.4,1.1-0.7,1.6s-0.8,0.8-1.3,1.1c-0.5,0.3-1.2,0.4-2,0.4s-1.5-0.1-2-0.4
			s-1-0.7-1.3-1.1c-0.3-0.5-0.6-1-0.7-1.6s-0.2-1.2-0.2-1.9v-5h1.3v5c0,0.5,0,1,0.1,1.4c0.1,0.5,0.3,0.9,0.5,1.2
			c0.2,0.4,0.5,0.6,0.9,0.9C339.5,281.9,340,282,340.5,282z"/>
		<path class="st4" d="M247.9,293.1v9.9h-1.3v-4.5h-5.5v4.5h-1.3v-9.9h1.3v4.3h5.5v-4.3H247.9z"/>
		<path class="st4" d="M257,302v1.1h-6.7v-9.9h6.6v1.1h-5.4v3.2h4.7v1h-4.7v3.4L257,302L257,302z"/>
		<path class="st4" d="M259,293.1l3,4.1l3-4.1h1.4l-3.7,5l3.6,4.9h-1.4l-2.9-4l-2.9,4h-1.4l3.6-4.9l-3.7-5H259z"/>
		<path class="st4" d="M267.4,297.4v-1.6h1v1.6H267.4z M267.4,303.1v-1.6h1v1.6H267.4z"/>
		<path class="st4" d="M282,296.8h-1.9l-0.6,2.5h1.9v1h-2.1l-0.7,2.8h-1l0.7-2.8h-2.4l-0.7,2.8h-1l0.7-2.8h-1.6v-1h1.8l0.6-2.5H274
			v-0.9h2l0.7-2.8h1l-0.7,2.8h2.4l0.7-2.8h1l-0.7,2.8h1.7v0.9H282z M278.5,299.3l0.6-2.5h-2.4l-0.6,2.5H278.5z"/>
		<path class="st4" d="M283,299.4c0-0.5,0.1-1,0.3-1.5c0.2-0.5,0.4-0.9,0.8-1.2c0.3-0.3,0.7-0.6,1.2-0.8c0.5-0.2,1-0.3,1.5-0.3
			c0.7,0,1.4,0.2,1.9,0.5s0.9,0.8,1.2,1.3l-1.2,0.4c-0.2-0.3-0.4-0.6-0.8-0.8s-0.7-0.3-1.1-0.3c-0.3,0-0.7,0.1-1,0.2
			s-0.6,0.3-0.8,0.6c-0.2,0.2-0.4,0.5-0.5,0.9c-0.1,0.3-0.2,0.7-0.2,1.1s0.1,0.7,0.2,1.1s0.3,0.6,0.5,0.9c0.2,0.2,0.5,0.4,0.8,0.6
			c0.3,0.1,0.6,0.2,0.9,0.2c0.2,0,0.4,0,0.6-0.1s0.4-0.1,0.6-0.2s0.3-0.2,0.5-0.4c0.1-0.1,0.2-0.3,0.3-0.4l1.2,0.4
			c-0.1,0.3-0.3,0.5-0.5,0.7s-0.4,0.4-0.7,0.6c-0.3,0.2-0.6,0.3-0.9,0.4s-0.7,0.1-1,0.1c-0.6,0-1.1-0.1-1.5-0.3s-0.8-0.5-1.2-0.8
			c-0.3-0.3-0.6-0.7-0.8-1.2C283.1,300.4,283,299.9,283,299.4z"/>
		<path class="st4" d="M294.2,298.7c0.5,0,0.9,0.1,1.3,0.2s0.7,0.4,1,0.7c0.3,0.3,0.5,0.6,0.7,1s0.3,0.8,0.3,1.3s-0.1,0.9-0.3,1.4
			c-0.2,0.4-0.4,0.8-0.7,1s-0.7,0.5-1.1,0.7s-0.9,0.2-1.4,0.2c-0.7,0-1.3-0.2-1.9-0.5s-1-0.8-1.3-1.3l0.8-0.7c0.3,0.4,0.6,0.8,1,1
			c0.4,0.3,0.9,0.4,1.4,0.4c0.3,0,0.6-0.1,0.9-0.2s0.5-0.3,0.7-0.4c0.2-0.2,0.4-0.4,0.5-0.7s0.2-0.6,0.2-0.9s-0.1-0.6-0.2-0.9
			s-0.3-0.5-0.5-0.7s-0.4-0.3-0.7-0.4c-0.3-0.1-0.5-0.2-0.8-0.2c-0.4,0-0.8,0.1-1.1,0.3c-0.4,0.2-0.6,0.4-0.9,0.8H291
			c0,0,0-0.2,0.1-0.4c0-0.2,0.1-0.4,0.1-0.7c0.1-0.3,0.1-0.6,0.2-0.9s0.1-0.7,0.2-1c0.2-0.8,0.3-1.7,0.5-2.7h4.8v1.1H293l-0.6,3.2
			c0.2-0.2,0.5-0.4,0.8-0.5C293.5,298.7,293.8,298.7,294.2,298.7z"/>
		<path class="st4" d="M298.4,299.4c0-0.5,0.1-1,0.3-1.5c0.2-0.5,0.4-0.9,0.8-1.2c0.3-0.3,0.7-0.6,1.2-0.8c0.5-0.2,1-0.3,1.5-0.3
			c0.7,0,1.4,0.2,1.9,0.5s0.9,0.8,1.2,1.3l-1.2,0.4c-0.2-0.3-0.4-0.6-0.8-0.8s-0.7-0.3-1.1-0.3c-0.3,0-0.7,0.1-1,0.2
			s-0.6,0.3-0.8,0.6c-0.2,0.2-0.4,0.5-0.5,0.9c-0.1,0.3-0.2,0.7-0.2,1.1s0.1,0.7,0.2,1.1s0.3,0.6,0.5,0.9c0.2,0.2,0.5,0.4,0.8,0.6
			c0.3,0.1,0.6,0.2,0.9,0.2c0.2,0,0.4,0,0.6-0.1s0.4-0.1,0.6-0.2s0.3-0.2,0.5-0.4c0.1-0.1,0.2-0.3,0.3-0.4l1.2,0.4
			c-0.1,0.3-0.3,0.5-0.5,0.7s-0.4,0.4-0.7,0.6c-0.3,0.2-0.6,0.3-0.9,0.4s-0.7,0.1-1,0.1c-0.6,0-1.1-0.1-1.5-0.3s-0.8-0.5-1.2-0.8
			c-0.3-0.3-0.6-0.7-0.8-1.2C298.5,300.4,298.4,299.9,298.4,299.4z"/>
		<path class="st4" d="M309.6,298.7c0.5,0,0.9,0.1,1.3,0.2s0.7,0.4,1,0.7c0.3,0.3,0.5,0.6,0.7,1s0.3,0.8,0.3,1.3s-0.1,0.9-0.3,1.4
			c-0.2,0.4-0.4,0.8-0.7,1s-0.7,0.5-1.1,0.7s-0.9,0.2-1.4,0.2c-0.7,0-1.3-0.2-1.9-0.5s-1-0.8-1.3-1.3l0.8-0.7c0.3,0.4,0.6,0.8,1,1
			c0.4,0.3,0.9,0.4,1.4,0.4c0.3,0,0.6-0.1,0.9-0.2s0.5-0.3,0.7-0.4c0.2-0.2,0.4-0.4,0.5-0.7s0.2-0.6,0.2-0.9s-0.1-0.6-0.2-0.9
			s-0.3-0.5-0.5-0.7s-0.4-0.3-0.7-0.4c-0.3-0.1-0.5-0.2-0.8-0.2c-0.4,0-0.8,0.1-1.1,0.3c-0.4,0.2-0.6,0.4-0.9,0.8h-1.1
			c0,0,0-0.2,0.1-0.4c0-0.2,0.1-0.4,0.1-0.7c0.1-0.3,0.1-0.6,0.2-0.9s0.1-0.7,0.2-1c0.2-0.8,0.3-1.7,0.5-2.7h4.8v1.1h-3.9l-0.6,3.2
			c0.2-0.2,0.5-0.4,0.8-0.5C308.9,298.7,309.2,298.7,309.6,298.7z"/>
		<path class="st4" d="M313.9,299.4c0-0.5,0.1-1,0.3-1.5c0.2-0.5,0.4-0.9,0.8-1.2c0.3-0.3,0.7-0.6,1.2-0.8c0.5-0.2,1-0.3,1.5-0.3
			c0.7,0,1.4,0.2,1.9,0.5s0.9,0.8,1.2,1.3l-1.2,0.4c-0.2-0.3-0.4-0.6-0.8-0.8s-0.7-0.3-1.1-0.3c-0.3,0-0.7,0.1-1,0.2
			s-0.6,0.3-0.8,0.6c-0.2,0.2-0.4,0.5-0.5,0.9c-0.1,0.3-0.2,0.7-0.2,1.1s0.1,0.7,0.2,1.1s0.3,0.6,0.5,0.9c0.2,0.2,0.5,0.4,0.8,0.6
			c0.3,0.1,0.6,0.2,0.9,0.2c0.2,0,0.4,0,0.6-0.1s0.4-0.1,0.6-0.2s0.3-0.2,0.5-0.4c0.1-0.1,0.2-0.3,0.3-0.4l1.2,0.4
			c-0.1,0.3-0.3,0.5-0.5,0.7s-0.4,0.4-0.7,0.6c-0.3,0.2-0.6,0.3-0.9,0.4s-0.7,0.1-1,0.1c-0.6,0-1.1-0.1-1.5-0.3s-0.8-0.5-1.2-0.8
			c-0.3-0.3-0.6-0.7-0.8-1.2C314,300.4,313.9,299.9,313.9,299.4z"/>
		<path class="st4" d="M325,298.7c0.5,0,0.9,0.1,1.3,0.2s0.7,0.4,1,0.7c0.3,0.3,0.5,0.6,0.7,1s0.3,0.8,0.3,1.3s-0.1,0.9-0.3,1.4
			c-0.2,0.4-0.4,0.8-0.7,1s-0.7,0.5-1.1,0.7s-0.9,0.2-1.4,0.2c-0.7,0-1.3-0.2-1.9-0.5s-1-0.8-1.3-1.3l0.8-0.7c0.3,0.4,0.6,0.8,1,1
			c0.4,0.3,0.9,0.4,1.4,0.4c0.3,0,0.6-0.1,0.9-0.2s0.5-0.3,0.7-0.4c0.2-0.2,0.4-0.4,0.5-0.7s0.2-0.6,0.2-0.9s-0.1-0.6-0.2-0.9
			s-0.3-0.5-0.5-0.7s-0.4-0.3-0.7-0.4c-0.3-0.1-0.5-0.2-0.8-0.2c-0.4,0-0.8,0.1-1.1,0.3c-0.4,0.2-0.6,0.4-0.9,0.8h-1.1
			c0,0,0-0.2,0.1-0.4c0-0.2,0.1-0.4,0.1-0.7c0.1-0.3,0.1-0.6,0.2-0.9s0.1-0.7,0.2-1c0.2-0.8,0.3-1.7,0.5-2.7h4.8v1.1h-3.9l-0.6,3.2
			c0.2-0.2,0.5-0.4,0.8-0.5C324.3,298.7,324.7,298.7,325,298.7z"/>
	</g>
</g>
<g>
	<g>
		<path class="st0" d="M452.7,238c0-0.6,0.1-1.2,0.3-1.8s0.5-1.1,0.9-1.6s0.9-0.9,1.5-1.1c0.6-0.3,1.3-0.4,2-0.4
			c0.9,0,1.6,0.2,2.3,0.6s1.1,0.9,1.4,1.6l-1,0.6c-0.1-0.3-0.3-0.6-0.5-0.8c-0.2-0.2-0.4-0.4-0.7-0.5s-0.5-0.2-0.8-0.3
			c-0.3-0.1-0.5-0.1-0.8-0.1c-0.6,0-1,0.1-1.5,0.3c-0.4,0.2-0.8,0.5-1.1,0.9c-0.3,0.4-0.5,0.8-0.7,1.2s-0.2,0.9-0.2,1.4
			s0.1,1,0.3,1.5c0.2,0.5,0.4,0.9,0.7,1.3c0.3,0.4,0.7,0.7,1.1,0.9s0.9,0.3,1.4,0.3c0.3,0,0.5,0,0.8-0.1s0.5-0.2,0.8-0.3
			s0.5-0.3,0.7-0.5s0.4-0.5,0.5-0.8l1,0.6c-0.2,0.4-0.4,0.7-0.7,1c-0.3,0.3-0.6,0.5-1,0.7s-0.7,0.3-1.1,0.4s-0.8,0.2-1.2,0.2
			c-0.7,0-1.3-0.1-1.9-0.4s-1.1-0.7-1.5-1.2s-0.7-1-1-1.6S452.7,238.7,452.7,238z"/>
		<path class="st0" d="M471.5,243.1v-7.7l-3.3,5.9h-0.7l-3.3-5.9v7.7h-1.3v-9.9h1.3l3.6,6.5l3.6-6.5h1.3v9.9H471.5z"/>
		<path class="st0" d="M475.5,233.1l3,5.2l3-5.2h1.4l-3.8,6.3v3.6h-1.3v-3.7L474,233h1.5V233.1z"/>
		<path class="st0" d="M484.3,243.1v-9.9h1.3v5.5l5.1-5.5h1.4l-4,4.4l4.2,5.6h-1.4l-3.6-4.8l-1.7,1.8v3h-1.3V243.1z"/>
		<path class="st0" d="M493.2,237.4v-1.6h1v1.6H493.2z M493.2,243.1v-1.6h1v1.6H493.2z"/>
		<path class="st0" d="M506.5,239c0,0.6-0.1,1.2-0.3,1.7c-0.2,0.5-0.4,1-0.7,1.3s-0.7,0.7-1.1,0.9s-0.9,0.3-1.4,0.3s-1-0.1-1.4-0.3
			s-0.8-0.5-1.1-0.9s-0.6-0.8-0.7-1.3c-0.2-0.5-0.3-1.1-0.3-1.7s0.1-1.2,0.3-1.7c0.2-0.5,0.4-1,0.7-1.3c0.3-0.4,0.7-0.7,1.1-0.9
			s0.9-0.3,1.4-0.3s1,0.1,1.4,0.3s0.8,0.5,1.1,0.9c0.3,0.4,0.6,0.8,0.7,1.3C506.4,237.8,506.5,238.4,506.5,239z M505.2,239
			c0-0.5-0.1-0.9-0.2-1.3s-0.3-0.7-0.5-1s-0.4-0.5-0.7-0.6c-0.3-0.1-0.6-0.2-0.9-0.2s-0.7,0.1-0.9,0.2c-0.3,0.1-0.5,0.4-0.7,0.6
			c-0.2,0.3-0.4,0.6-0.5,1s-0.2,0.8-0.2,1.3s0.1,0.9,0.2,1.3s0.3,0.7,0.5,1s0.4,0.5,0.7,0.6c0.3,0.1,0.6,0.2,0.9,0.2
			s0.6-0.1,0.9-0.2s0.5-0.4,0.7-0.6c0.2-0.3,0.4-0.6,0.5-1C505.2,239.9,505.2,239.4,505.2,239z"/>
		<path class="st0" d="M508.1,239.8v-1.1h4.1v1.1H508.1z"/>
		<path class="st0" d="M521,239c0,0.6-0.1,1.2-0.3,1.7s-0.4,1-0.7,1.3s-0.7,0.7-1.1,0.9s-0.9,0.3-1.4,0.3s-1-0.1-1.4-0.3
			s-0.8-0.5-1.1-0.9s-0.6-0.8-0.7-1.3c-0.2-0.5-0.3-1.1-0.3-1.7s0.1-1.2,0.3-1.7s0.4-1,0.7-1.3c0.3-0.4,0.7-0.7,1.1-0.9
			s0.9-0.3,1.4-0.3s1,0.1,1.4,0.3s0.8,0.5,1.1,0.9s0.6,0.8,0.7,1.3C520.9,237.8,521,238.4,521,239z M519.7,239
			c0-0.5-0.1-0.9-0.2-1.3c-0.1-0.4-0.3-0.7-0.5-1s-0.4-0.5-0.7-0.6s-0.6-0.2-0.9-0.2c-0.3,0-0.7,0.1-0.9,0.2
			c-0.3,0.1-0.5,0.4-0.7,0.6c-0.2,0.3-0.4,0.6-0.5,1s-0.2,0.8-0.2,1.3s0.1,0.9,0.2,1.3c0.1,0.4,0.3,0.7,0.5,1s0.4,0.5,0.7,0.6
			s0.6,0.2,0.9,0.2c0.3,0,0.6-0.1,0.9-0.2c0.3-0.1,0.5-0.4,0.7-0.6c0.2-0.3,0.4-0.6,0.5-1C519.7,239.9,519.7,239.4,519.7,239z"/>
		<path class="st0" d="M522.6,239.8v-1.1h4.1v1.1H522.6z"/>
		<path class="st0" d="M535.5,239c0,0.6-0.1,1.2-0.3,1.7s-0.4,1-0.7,1.3s-0.7,0.7-1.1,0.9s-0.9,0.3-1.4,0.3s-1-0.1-1.4-0.3
			s-0.8-0.5-1.1-0.9s-0.6-0.8-0.7-1.3c-0.2-0.5-0.3-1.1-0.3-1.7s0.1-1.2,0.3-1.7s0.4-1,0.7-1.3c0.3-0.4,0.7-0.7,1.1-0.9
			s0.9-0.3,1.4-0.3s1,0.1,1.4,0.3s0.8,0.5,1.1,0.9s0.6,0.8,0.7,1.3C535.4,237.8,535.5,238.4,535.5,239z M534.3,239
			c0-0.5-0.1-0.9-0.2-1.3c-0.1-0.4-0.3-0.7-0.5-1s-0.4-0.5-0.7-0.6s-0.6-0.2-0.9-0.2c-0.3,0-0.7,0.1-0.9,0.2
			c-0.3,0.1-0.5,0.4-0.7,0.6c-0.2,0.3-0.4,0.6-0.5,1s-0.2,0.8-0.2,1.3s0.1,0.9,0.2,1.3c0.1,0.4,0.3,0.7,0.5,1s0.4,0.5,0.7,0.6
			s0.6,0.2,0.9,0.2c0.3,0,0.6-0.1,0.9-0.2c0.3-0.1,0.5-0.4,0.7-0.6c0.2-0.3,0.4-0.6,0.5-1C534.2,239.9,534.3,239.4,534.3,239z"/>
		<path class="st0" d="M537.2,239.8v-1.1h4.1v1.1H537.2z"/>
		<path class="st0" d="M546.1,238.7c0.5,0,0.9,0.1,1.3,0.2s0.7,0.4,1,0.7c0.3,0.3,0.5,0.6,0.7,1s0.3,0.8,0.3,1.3s-0.1,0.9-0.3,1.4
			c-0.2,0.4-0.4,0.8-0.7,1s-0.7,0.5-1.1,0.7c-0.4,0.2-0.9,0.2-1.4,0.2c-0.7,0-1.3-0.2-1.9-0.5s-1-0.8-1.3-1.3l0.8-0.7
			c0.3,0.4,0.6,0.8,1,1c0.4,0.3,0.9,0.4,1.4,0.4c0.3,0,0.6-0.1,0.9-0.2c0.3-0.1,0.5-0.3,0.7-0.4c0.2-0.2,0.4-0.4,0.5-0.7
			s0.2-0.6,0.2-0.9s-0.1-0.6-0.2-0.9c-0.1-0.3-0.3-0.5-0.5-0.7s-0.4-0.3-0.7-0.4s-0.5-0.2-0.8-0.2c-0.4,0-0.8,0.1-1.1,0.3
			c-0.4,0.2-0.6,0.4-0.9,0.8h-1.1c0,0,0-0.2,0.1-0.4c0-0.2,0.1-0.4,0.1-0.7c0.1-0.3,0.1-0.6,0.2-0.9c0.1-0.3,0.1-0.7,0.2-1
			c0.2-0.8,0.3-1.7,0.5-2.7h4.8v1.1h-3.9l-0.6,3.2c0.2-0.2,0.5-0.4,0.8-0.5C545.4,238.7,545.7,238.7,546.1,238.7z"/>
		<path class="st0" d="M453.4,263.1v-9.9h4.3c0.4,0,0.8,0.1,1.2,0.3c0.4,0.2,0.7,0.4,1,0.7c0.3,0.3,0.5,0.6,0.6,1s0.2,0.8,0.2,1.2
			c0,0.3,0,0.7-0.1,1s-0.2,0.6-0.4,0.9c-0.2,0.3-0.4,0.5-0.7,0.7c-0.3,0.2-0.5,0.3-0.9,0.4l2.4,3.8h-1.4l-2.3-3.6h-2.6v3.6h-1.3
			V263.1z M454.6,258.4h3c0.3,0,0.5-0.1,0.7-0.2s0.4-0.3,0.5-0.5s0.3-0.4,0.3-0.7c0.1-0.3,0.1-0.5,0.1-0.8c0-0.3,0-0.5-0.1-0.8
			c-0.1-0.2-0.2-0.5-0.4-0.7c-0.2-0.2-0.4-0.3-0.6-0.4s-0.5-0.2-0.7-0.2h-2.9v4.3H454.6z"/>
		<path class="st0" d="M469.6,261.7c-0.9,0.9-1.9,1.4-3,1.4c-0.7,0-1.3-0.1-1.8-0.4c-0.6-0.3-1.1-0.7-1.5-1.1c-0.4-0.5-0.7-1-1-1.6
			c-0.2-0.6-0.4-1.2-0.4-1.9c0-0.7,0.1-1.3,0.4-1.9c0.2-0.6,0.6-1.1,1-1.6s0.9-0.8,1.5-1.1c0.6-0.3,1.2-0.4,1.8-0.4
			c1,0,1.8,0.2,2.4,0.6s1.1,0.9,1.4,1.6l-1,0.7c-0.3-0.6-0.7-1-1.2-1.3s-1.1-0.4-1.7-0.4c-0.5,0-1,0.1-1.4,0.3
			c-0.4,0.2-0.8,0.5-1,0.9c-0.3,0.4-0.5,0.8-0.7,1.2c-0.2,0.5-0.2,1-0.2,1.5s0.1,1,0.3,1.5s0.4,0.9,0.7,1.2c0.3,0.4,0.7,0.6,1.1,0.8
			s0.9,0.3,1.4,0.3c1.1,0,2.1-0.5,2.9-1.6V259h-2.1v-1h3.2v5h-1.1L469.6,261.7L469.6,261.7z"/>
		<path class="st0" d="M480.2,260.5c0,0.4-0.1,0.7-0.2,1s-0.4,0.6-0.6,0.8c-0.3,0.2-0.6,0.4-0.9,0.5c-0.4,0.1-0.7,0.2-1.1,0.2h-4.7
			v-9.9h4.9c0.3,0,0.7,0.1,0.9,0.2c0.3,0.1,0.5,0.3,0.7,0.6c0.2,0.2,0.3,0.5,0.5,0.8c0.1,0.3,0.2,0.6,0.2,0.9c0,0.5-0.1,1-0.4,1.4
			c-0.2,0.4-0.6,0.7-1.1,0.9c0.6,0.2,1,0.5,1.4,0.9C480,259.4,480.2,259.9,480.2,260.5z M473.8,254.2v3.3h3.2c0.2,0,0.4,0,0.6-0.1
			s0.3-0.2,0.5-0.4s0.2-0.3,0.3-0.5c0.1-0.2,0.1-0.4,0.1-0.6c0-0.2,0-0.5-0.1-0.7s-0.2-0.4-0.3-0.5s-0.3-0.3-0.5-0.3
			c-0.2-0.1-0.4-0.1-0.6-0.1L473.8,254.2L473.8,254.2z M478.9,260.3c0-0.2,0-0.4-0.1-0.7c-0.1-0.2-0.2-0.4-0.3-0.6
			c-0.1-0.2-0.3-0.3-0.5-0.4s-0.4-0.1-0.6-0.1h-3.6v3.4h3.5c0.2,0,0.4,0,0.6-0.1s0.4-0.2,0.5-0.4c0.1-0.2,0.3-0.3,0.3-0.5
			C478.9,260.7,478.9,260.5,478.9,260.3z"/>
		<path class="st0" d="M481.7,257.4v-1.6h1v1.6H481.7z M481.7,263.1v-1.6h1v1.6H481.7z"/>
		<path class="st0" d="M487.7,263.1c0-0.4,0-0.7,0.1-1s0.2-0.6,0.3-0.9c0.2-0.3,0.4-0.6,0.7-0.9c0.3-0.3,0.7-0.5,1.2-0.8
			c0.3-0.1,0.6-0.3,0.9-0.4s0.6-0.3,0.8-0.5c0.2-0.2,0.4-0.3,0.6-0.5s0.2-0.4,0.2-0.7c0-0.2,0-0.3-0.1-0.5s-0.2-0.3-0.3-0.4
			s-0.3-0.2-0.5-0.3c-0.2-0.1-0.5-0.1-0.7-0.1c-0.3,0-0.5,0-0.8,0.1c-0.2,0.1-0.4,0.2-0.6,0.3c-0.2,0.1-0.3,0.2-0.5,0.4
			s-0.2,0.2-0.3,0.3l-0.8-0.9c0.1-0.1,0.2-0.2,0.4-0.3c0.2-0.1,0.4-0.3,0.7-0.4s0.6-0.3,0.9-0.4s0.8-0.2,1.2-0.2
			c0.4,0,0.8,0.1,1.2,0.2c0.3,0.1,0.6,0.3,0.9,0.5c0.2,0.2,0.4,0.4,0.6,0.7c0.1,0.3,0.2,0.6,0.2,0.9c0,0.4-0.1,0.7-0.2,1
			c-0.2,0.3-0.4,0.5-0.6,0.7s-0.5,0.4-0.7,0.5c-0.3,0.1-0.5,0.3-0.7,0.4s-0.4,0.2-0.7,0.4c-0.3,0.1-0.5,0.3-0.7,0.5
			s-0.4,0.4-0.6,0.6s-0.3,0.5-0.3,0.7h4.8v1.1h-6.6V263.1z"/>
		<path class="st0" d="M499.5,264.9v-2.4H495v-1.1l4.9-6.3h0.8v6.3h1.2v1.1h-1.2v2.4H499.5z M496.2,261.4h3.3V257L496.2,261.4z"/>
		<path class="st0" d="M510.3,259.8c0,0.5-0.1,0.9-0.3,1.3c-0.2,0.4-0.4,0.8-0.8,1.1c-0.3,0.3-0.7,0.6-1.1,0.7s-0.9,0.3-1.4,0.3
			s-1-0.1-1.5-0.3c-0.4-0.2-0.8-0.5-1.1-0.8c-0.3-0.4-0.6-0.8-0.7-1.3s-0.3-1.1-0.3-1.8c0-1,0.1-1.8,0.3-2.6
			c0.2-0.7,0.4-1.3,0.8-1.8c0.3-0.5,0.7-0.9,1.2-1.1s1-0.4,1.5-0.4c0.6,0,1.2,0.2,1.8,0.5c0.5,0.3,0.9,0.7,1.2,1.3l-0.8,0.7
			c-0.2-0.4-0.5-0.8-0.9-1s-0.8-0.4-1.3-0.4c-0.4,0-0.7,0.1-1,0.3c-0.3,0.2-0.6,0.4-0.8,0.8c-0.2,0.3-0.4,0.7-0.5,1.2
			s-0.2,1-0.2,1.6c0.2-0.5,0.5-0.9,1-1.2c0.5-0.3,1-0.4,1.6-0.4c0.5,0,0.9,0.1,1.3,0.3s0.8,0.4,1.1,0.7c0.3,0.3,0.6,0.7,0.7,1.1
			C510.2,258.9,510.3,259.3,510.3,259.8z M506.8,262.2c0.3,0,0.6-0.1,0.9-0.2s0.5-0.3,0.8-0.5s0.4-0.5,0.5-0.7
			c0.1-0.3,0.2-0.6,0.2-0.9s-0.1-0.6-0.2-0.9s-0.3-0.5-0.5-0.7s-0.5-0.4-0.8-0.5s-0.6-0.2-0.9-0.2s-0.6,0.1-0.9,0.2
			s-0.5,0.3-0.7,0.5s-0.4,0.5-0.5,0.7c-0.1,0.3-0.2,0.6-0.2,0.9s0.1,0.6,0.2,0.9s0.3,0.5,0.5,0.7s0.5,0.4,0.7,0.5
			S506.4,262.2,506.8,262.2z"/>
		<path class="st0" d="M511.8,259.8v-1.1h4.1v1.1H511.8z"/>
		<path class="st0" d="M517.4,263.1c0-0.4,0-0.7,0.1-1s0.2-0.6,0.3-0.9c0.2-0.3,0.4-0.6,0.7-0.9s0.7-0.5,1.2-0.8
			c0.3-0.1,0.6-0.3,0.9-0.4c0.3-0.1,0.6-0.3,0.8-0.5s0.4-0.3,0.6-0.5s0.2-0.4,0.2-0.7c0-0.2,0-0.3-0.1-0.5s-0.2-0.3-0.3-0.4
			s-0.3-0.2-0.5-0.3c-0.2-0.1-0.5-0.1-0.7-0.1c-0.3,0-0.5,0-0.8,0.1c-0.2,0.1-0.4,0.2-0.6,0.3c-0.2,0.1-0.3,0.2-0.5,0.4
			s-0.2,0.2-0.3,0.3l-0.8-0.9c0.1-0.1,0.2-0.2,0.4-0.3c0.2-0.1,0.4-0.3,0.7-0.4s0.6-0.3,0.9-0.4s0.8-0.2,1.2-0.2s0.8,0.1,1.2,0.2
			c0.3,0.1,0.6,0.3,0.9,0.5c0.2,0.2,0.4,0.4,0.6,0.7c0.1,0.3,0.2,0.6,0.2,0.9c0,0.4-0.1,0.7-0.2,1c-0.2,0.3-0.4,0.5-0.6,0.7
			c-0.2,0.2-0.5,0.4-0.7,0.5c-0.3,0.1-0.5,0.3-0.7,0.4s-0.4,0.2-0.7,0.4c-0.3,0.1-0.5,0.3-0.7,0.5s-0.4,0.4-0.6,0.6
			c-0.2,0.2-0.3,0.5-0.3,0.7h4.8v1.1h-6.6V263.1z"/>
		<path class="st0" d="M529.2,264.9v-2.4h-4.5v-1.1l4.9-6.3h0.8v6.3h1.2v1.1h-1.2v2.4H529.2z M525.9,261.4h3.3V257L525.9,261.4z"/>
		<path class="st0" d="M540,259.8c0,0.5-0.1,0.9-0.3,1.3s-0.4,0.8-0.8,1.1c-0.3,0.3-0.7,0.6-1.1,0.7s-0.9,0.3-1.4,0.3
			s-1-0.1-1.5-0.3c-0.4-0.2-0.8-0.5-1.1-0.8c-0.3-0.4-0.6-0.8-0.7-1.3s-0.3-1.1-0.3-1.8c0-1,0.1-1.8,0.3-2.6
			c0.2-0.7,0.4-1.3,0.8-1.8c0.3-0.5,0.7-0.9,1.2-1.1s1-0.4,1.5-0.4c0.6,0,1.2,0.2,1.8,0.5c0.5,0.3,0.9,0.7,1.2,1.3l-0.8,0.7
			c-0.2-0.4-0.5-0.8-0.9-1s-0.8-0.4-1.3-0.4c-0.4,0-0.7,0.1-1,0.3c-0.3,0.2-0.6,0.4-0.8,0.8c-0.2,0.3-0.4,0.7-0.5,1.2
			s-0.2,1-0.2,1.6c0.2-0.5,0.5-0.9,1-1.2c0.5-0.3,1-0.4,1.6-0.4c0.5,0,0.9,0.1,1.3,0.3s0.8,0.4,1.1,0.7c0.3,0.3,0.6,0.7,0.7,1.1
			C539.9,258.9,540,259.3,540,259.8z M536.5,262.2c0.3,0,0.6-0.1,0.9-0.2c0.3-0.1,0.5-0.3,0.8-0.5s0.4-0.5,0.5-0.7
			c0.1-0.3,0.2-0.6,0.2-0.9s-0.1-0.6-0.2-0.9c-0.1-0.3-0.3-0.5-0.5-0.7s-0.5-0.4-0.8-0.5s-0.6-0.2-0.9-0.2c-0.3,0-0.6,0.1-0.9,0.2
			c-0.3,0.1-0.5,0.3-0.7,0.5s-0.4,0.5-0.5,0.7c-0.1,0.3-0.2,0.6-0.2,0.9s0.1,0.6,0.2,0.9c0.1,0.3,0.3,0.5,0.5,0.7s0.5,0.4,0.7,0.5
			S536.1,262.2,536.5,262.2z"/>
		<path class="st0" d="M541.5,259.8v-1.1h4.1v1.1H541.5z"/>
		<path class="st0" d="M547.2,263.1c0-0.4,0-0.7,0.1-1s0.2-0.6,0.3-0.9c0.2-0.3,0.4-0.6,0.7-0.9s0.7-0.5,1.2-0.8
			c0.3-0.1,0.6-0.3,0.9-0.4c0.3-0.1,0.6-0.3,0.8-0.5s0.4-0.3,0.6-0.5s0.2-0.4,0.2-0.7c0-0.2,0-0.3-0.1-0.5s-0.2-0.3-0.3-0.4
			s-0.3-0.2-0.5-0.3c-0.2-0.1-0.5-0.1-0.7-0.1c-0.3,0-0.5,0-0.8,0.1c-0.2,0.1-0.4,0.2-0.6,0.3c-0.2,0.1-0.3,0.2-0.5,0.4
			s-0.2,0.2-0.3,0.3l-0.8-0.9c0.1-0.1,0.2-0.2,0.4-0.3c0.2-0.1,0.4-0.3,0.7-0.4s0.6-0.3,0.9-0.4s0.8-0.2,1.2-0.2s0.8,0.1,1.2,0.2
			c0.3,0.1,0.6,0.3,0.9,0.5c0.2,0.2,0.4,0.4,0.6,0.7c0.1,0.3,0.2,0.6,0.2,0.9c0,0.4-0.1,0.7-0.2,1c-0.2,0.3-0.4,0.5-0.6,0.7
			c-0.2,0.2-0.5,0.4-0.7,0.5c-0.3,0.1-0.5,0.3-0.7,0.4s-0.4,0.2-0.7,0.4c-0.3,0.1-0.5,0.3-0.7,0.5s-0.4,0.4-0.6,0.6
			c-0.2,0.2-0.3,0.5-0.3,0.7h4.8v1.1h-6.6V263.1z"/>
		<path class="st0" d="M558.9,264.9v-2.4h-4.5v-1.1l4.9-6.3h0.8v6.3h1.2v1.1h-1.2v2.4H558.9z M555.7,261.4h3.3V257L555.7,261.4z"/>
		<path class="st0" d="M569.7,259.8c0,0.5-0.1,0.9-0.3,1.3s-0.4,0.8-0.8,1.1c-0.3,0.3-0.7,0.6-1.1,0.7s-0.9,0.3-1.4,0.3
			s-1-0.1-1.5-0.3c-0.4-0.2-0.8-0.5-1.1-0.8c-0.3-0.4-0.6-0.8-0.7-1.3s-0.3-1.1-0.3-1.8c0-1,0.1-1.8,0.3-2.6
			c0.2-0.7,0.4-1.3,0.8-1.8c0.3-0.5,0.7-0.9,1.2-1.1s1-0.4,1.5-0.4c0.6,0,1.2,0.2,1.8,0.5c0.5,0.3,0.9,0.7,1.2,1.3l-0.8,0.7
			c-0.2-0.4-0.5-0.8-0.9-1s-0.8-0.4-1.3-0.4c-0.4,0-0.7,0.1-1,0.3c-0.3,0.2-0.6,0.4-0.8,0.8c-0.2,0.3-0.4,0.7-0.5,1.2
			s-0.2,1-0.2,1.6c0.2-0.5,0.5-0.9,1-1.2c0.5-0.3,1-0.4,1.6-0.4c0.5,0,0.9,0.1,1.3,0.3s0.8,0.4,1.1,0.7c0.3,0.3,0.6,0.7,0.7,1.1
			C569.6,258.9,569.7,259.3,569.7,259.8z M566.2,262.2c0.3,0,0.6-0.1,0.9-0.2c0.3-0.1,0.5-0.3,0.8-0.5s0.4-0.5,0.5-0.7
			c0.1-0.3,0.2-0.6,0.2-0.9s-0.1-0.6-0.2-0.9c-0.1-0.3-0.3-0.5-0.5-0.7s-0.5-0.4-0.8-0.5s-0.6-0.2-0.9-0.2c-0.3,0-0.6,0.1-0.9,0.2
			c-0.3,0.1-0.5,0.3-0.7,0.5s-0.4,0.5-0.5,0.7c-0.1,0.3-0.2,0.6-0.2,0.9s0.1,0.6,0.2,0.9c0.1,0.3,0.3,0.5,0.5,0.7s0.5,0.4,0.7,0.5
			S565.9,262.2,566.2,262.2z"/>
		<path class="st0" d="M453.4,283.1v-9.9h4.1c0.4,0,0.8,0.1,1.2,0.3s0.7,0.4,1,0.7c0.3,0.3,0.5,0.6,0.6,1s0.2,0.8,0.2,1.2
			c0,0.4-0.1,0.8-0.2,1.2c-0.1,0.4-0.3,0.7-0.6,1s-0.6,0.5-0.9,0.7s-0.8,0.3-1.2,0.3h-3v3.6h-1.2V283.1z M454.6,278.4h2.9
			c0.3,0,0.5-0.1,0.7-0.2s0.4-0.3,0.5-0.4s0.3-0.4,0.4-0.7s0.1-0.5,0.1-0.8s0-0.6-0.1-0.8c-0.1-0.3-0.2-0.5-0.4-0.7
			c-0.2-0.2-0.4-0.3-0.6-0.4s-0.5-0.2-0.7-0.2h-2.8V278.4z"/>
		<path class="st0" d="M464.4,273.1h1.1l4.1,9.9h-1.3l-1.2-2.9h-4.2l-1.2,2.9h-1.3L464.4,273.1z M466.7,279.2l-1.8-4.6l-1.8,4.6
			H466.7z"/>
		<path class="st0" d="M472.1,275.5v7.6h-1.3v-9.9h1l6.2,7.7v-7.7h1.3v9.9h-1.1L472.1,275.5z"/>
		<path class="st0" d="M488.8,274.3h-3.4v8.8h-1.3v-8.8h-3.4v-1.1h8.1L488.8,274.3L488.8,274.3z"/>
		<path class="st0" d="M494,283.1c-0.7,0-1.3-0.1-1.9-0.4s-1.1-0.7-1.5-1.1c-0.4-0.5-0.7-1-1-1.6c-0.2-0.6-0.3-1.2-0.3-1.9
			c0-0.7,0.1-1.3,0.4-1.9c0.2-0.6,0.6-1.1,1-1.6s0.9-0.8,1.5-1.1s1.2-0.4,1.9-0.4c0.7,0,1.3,0.1,1.9,0.4s1.1,0.7,1.5,1.2
			s0.7,1,1,1.6c0.2,0.6,0.3,1.2,0.3,1.8c0,0.7-0.1,1.3-0.4,1.9c-0.2,0.6-0.6,1.1-1,1.6s-0.9,0.8-1.5,1.1S494.7,283.1,494,283.1z
			 M490.6,278.1c0,0.5,0.1,1,0.2,1.5c0.2,0.5,0.4,0.9,0.7,1.3s0.7,0.7,1.1,0.9s0.9,0.3,1.4,0.3s1-0.1,1.4-0.3
			c0.4-0.2,0.8-0.5,1.1-0.9c0.3-0.4,0.5-0.8,0.7-1.3s0.2-0.9,0.2-1.4s-0.1-1-0.2-1.5c-0.2-0.5-0.4-0.9-0.7-1.2
			c-0.3-0.4-0.7-0.6-1.1-0.9c-0.4-0.2-0.9-0.3-1.4-0.3s-1,0.1-1.4,0.3c-0.4,0.2-0.8,0.5-1.1,0.9c-0.3,0.4-0.5,0.8-0.7,1.2
			C490.7,277.1,490.6,277.6,490.6,278.1z"/>
		<path class="st0" d="M501.7,275.5v7.6h-1.3v-9.9h1l6.2,7.7v-7.7h1.3v9.9h-1.1L501.7,275.5z"/>
		<path class="st0" d="M518,282v1.1h-6.7v-9.9h6.6v1.1h-5.4v3.2h4.7v1h-4.7v3.4L518,282L518,282z"/>
		<path class="st0" d="M519.4,277.4v-1.6h1v1.6H519.4z M519.4,283.1v-1.6h1v1.6H519.4z"/>
		<path class="st0" d="M530.8,282v1.1h-5V282h2v-5.5c-0.1,0.1-0.2,0.2-0.4,0.4c-0.2,0.1-0.4,0.2-0.6,0.3c-0.2,0.1-0.4,0.2-0.7,0.3
			c-0.2,0.1-0.4,0.1-0.6,0.1v-1.2c0.2,0,0.4-0.1,0.7-0.2s0.5-0.3,0.7-0.4s0.4-0.3,0.6-0.4c0.2-0.1,0.3-0.2,0.3-0.3h1.3v6.9
			L530.8,282L530.8,282z"/>
		<path class="st0" d="M536.6,276h-5.1v-1.1h7.1l-5,9.9h-1.4L536.6,276z"/>
		<path class="st0" d="M539.1,278.5c0-0.5,0.1-0.9,0.3-1.3s0.4-0.8,0.8-1.1s0.7-0.6,1.1-0.7c0.4-0.2,0.9-0.3,1.4-0.3s1,0.1,1.5,0.3
			c0.4,0.2,0.8,0.5,1.1,0.8c0.3,0.4,0.6,0.8,0.7,1.3c0.2,0.5,0.3,1.1,0.3,1.8c0,1-0.1,1.8-0.3,2.6c-0.2,0.7-0.4,1.3-0.8,1.8
			c-0.3,0.5-0.7,0.9-1.2,1.1s-1,0.4-1.5,0.4c-0.6,0-1.2-0.2-1.8-0.5c-0.5-0.3-0.9-0.7-1.2-1.3l0.8-0.7c0.2,0.4,0.5,0.8,0.9,1
			c0.4,0.3,0.8,0.4,1.3,0.4c0.8,0,1.4-0.3,1.8-1c0.5-0.7,0.7-1.6,0.7-2.9c-0.2,0.5-0.5,0.9-1,1.2c-0.5,0.3-1,0.4-1.6,0.4
			c-0.5,0-0.9-0.1-1.3-0.3s-0.8-0.4-1.1-0.7s-0.6-0.7-0.7-1.1C539.2,279.4,539.1,279,539.1,278.5z M542.7,276.1
			c-0.3,0-0.6,0.1-0.9,0.2s-0.5,0.3-0.7,0.5s-0.4,0.5-0.5,0.7c-0.1,0.3-0.2,0.6-0.2,0.9s0.1,0.6,0.2,0.9c0.1,0.3,0.3,0.5,0.5,0.7
			s0.5,0.4,0.7,0.5s0.6,0.2,0.9,0.2s0.6-0.1,0.9-0.2s0.5-0.3,0.7-0.5s0.4-0.5,0.5-0.7c0.1-0.3,0.2-0.6,0.2-0.9s-0.1-0.6-0.2-0.9
			c-0.1-0.3-0.3-0.5-0.5-0.8c-0.2-0.2-0.5-0.4-0.8-0.5S543,276.1,542.7,276.1z"/>
		<path class="st0" d="M547.8,279.8v-1.1h4.1v1.1H547.8z"/>
		<path class="st0" d="M558.8,282v1.1h-5V282h2v-5.5c-0.1,0.1-0.2,0.2-0.4,0.4c-0.2,0.1-0.4,0.2-0.6,0.3c-0.2,0.1-0.4,0.2-0.7,0.3
			c-0.2,0.1-0.4,0.1-0.6,0.1v-1.2c0.2,0,0.4-0.1,0.7-0.2s0.5-0.3,0.7-0.4s0.4-0.3,0.6-0.4c0.2-0.1,0.3-0.2,0.3-0.3h1.3v6.9
			L558.8,282L558.8,282z"/>
		<path class="st0" d="M564.2,282c0.6,0,1.1-0.1,1.4-0.3c0.4-0.2,0.7-0.5,0.9-0.9s0.4-0.8,0.5-1.2c0.1-0.5,0.1-0.9,0.1-1.4v-5h1.3v5
			c0,0.7-0.1,1.3-0.2,1.9c-0.2,0.6-0.4,1.1-0.7,1.6s-0.8,0.8-1.3,1.1c-0.5,0.3-1.2,0.4-2,0.4s-1.5-0.1-2-0.4s-1-0.7-1.3-1.1
			c-0.3-0.5-0.6-1-0.7-1.6c-0.1-0.6-0.2-1.2-0.2-1.9v-5h1.3v5c0,0.5,0,1,0.1,1.4c0.1,0.5,0.3,0.9,0.5,1.2c0.2,0.4,0.5,0.6,0.9,0.9
			C563.2,281.9,563.6,282,564.2,282z"/>
		<path class="st0" d="M461.4,293.1v9.9h-1.3v-4.5h-5.5v4.5h-1.3v-9.9h1.3v4.3h5.5v-4.3H461.4z"/>
		<path class="st0" d="M470.5,302v1.1h-6.7v-9.9h6.6v1.1H465v3.2h4.7v1H465v3.4L470.5,302L470.5,302z"/>
		<path class="st0" d="M472.5,293.1l3,4.1l3-4.1h1.4l-3.7,5l3.6,4.9h-1.4l-2.9-4l-2.9,4h-1.4l3.6-4.9l-3.7-5H472.5z"/>
		<path class="st0" d="M480.9,297.4v-1.6h1v1.6H480.9z M480.9,303.1v-1.6h1v1.6H480.9z"/>
		<path class="st0" d="M495.5,296.8h-1.9l-0.6,2.5h1.9v1h-2.1l-0.7,2.8h-1l0.7-2.8h-2.4l-0.7,2.8h-1l0.7-2.8h-1.6v-1h1.8l0.6-2.5
			h-1.8v-0.9h2l0.7-2.8h1l-0.7,2.8h2.4l0.7-2.8h1l-0.7,2.8h1.7V296.8z M492,299.3l0.6-2.5h-2.4l-0.6,2.5H492z"/>
		<path class="st0" d="M497.4,303.1v-6.3h-1v-1h1v-0.2c0-0.9,0.2-1.6,0.6-2.1s0.9-0.8,1.6-0.8c0.3,0,0.6,0,0.9,0.1s0.5,0.2,0.8,0.3
			L501,294c-0.1-0.1-0.3-0.2-0.5-0.2c-0.2-0.1-0.4-0.1-0.6-0.1c-0.4,0-0.7,0.2-0.9,0.5c-0.2,0.3-0.3,0.8-0.3,1.3v0.2h1.9v1h-1.9v6.3
			h-1.3V303.1z"/>
		<path class="st0" d="M504.7,298.7c0.5,0,0.9,0.1,1.3,0.2s0.7,0.4,1,0.7c0.3,0.3,0.5,0.6,0.7,1s0.3,0.8,0.3,1.3s-0.1,0.9-0.3,1.4
			c-0.2,0.4-0.4,0.8-0.7,1s-0.7,0.5-1.1,0.7s-0.9,0.2-1.4,0.2c-0.7,0-1.3-0.2-1.9-0.5s-1-0.8-1.3-1.3l0.8-0.7c0.3,0.4,0.6,0.8,1,1
			c0.4,0.3,0.9,0.4,1.4,0.4c0.3,0,0.6-0.1,0.9-0.2s0.5-0.3,0.7-0.4c0.2-0.2,0.4-0.4,0.5-0.7s0.2-0.6,0.2-0.9s-0.1-0.6-0.2-0.9
			s-0.3-0.5-0.5-0.7s-0.4-0.3-0.7-0.4c-0.3-0.1-0.5-0.2-0.8-0.2c-0.4,0-0.8,0.1-1.1,0.3c-0.4,0.2-0.6,0.4-0.9,0.8h-1.1
			c0,0,0-0.2,0.1-0.4c0-0.2,0.1-0.4,0.1-0.7c0.1-0.3,0.1-0.6,0.2-0.9s0.1-0.7,0.2-1c0.2-0.8,0.3-1.7,0.5-2.7h4.8v1.1h-3.9l-0.6,3.2
			c0.2-0.2,0.5-0.4,0.8-0.5C504,298.7,504.3,298.7,504.7,298.7z"/>
		<path class="st0" d="M509.9,303.1v-6.3h-1v-1h1v-0.2c0-0.9,0.2-1.6,0.6-2.1s0.9-0.8,1.6-0.8c0.3,0,0.6,0,0.9,0.1
			c0.3,0.1,0.5,0.2,0.8,0.3l-0.3,0.9c-0.1-0.1-0.3-0.2-0.5-0.2c-0.2-0.1-0.4-0.1-0.6-0.1c-0.4,0-0.7,0.2-0.9,0.5
			c-0.2,0.3-0.3,0.8-0.3,1.3v0.2h1.9v1h-1.9v6.3h-1.3V303.1z"/>
		<path class="st0" d="M517.2,298.7c0.5,0,0.9,0.1,1.3,0.2s0.7,0.4,1,0.7c0.3,0.3,0.5,0.6,0.7,1s0.3,0.8,0.3,1.3s-0.1,0.9-0.3,1.4
			c-0.2,0.4-0.4,0.8-0.7,1s-0.7,0.5-1.1,0.7c-0.4,0.2-0.9,0.2-1.4,0.2c-0.7,0-1.3-0.2-1.9-0.5s-1-0.8-1.3-1.3l0.8-0.7
			c0.3,0.4,0.6,0.8,1,1c0.4,0.3,0.9,0.4,1.4,0.4c0.3,0,0.6-0.1,0.9-0.2c0.3-0.1,0.5-0.3,0.7-0.4c0.2-0.2,0.4-0.4,0.5-0.7
			s0.2-0.6,0.2-0.9s-0.1-0.6-0.2-0.9c-0.1-0.3-0.3-0.5-0.5-0.7s-0.4-0.3-0.7-0.4s-0.5-0.2-0.8-0.2c-0.4,0-0.8,0.1-1.1,0.3
			c-0.4,0.2-0.6,0.4-0.9,0.8H514c0,0,0-0.2,0.1-0.4c0-0.2,0.1-0.4,0.1-0.7c0.1-0.3,0.1-0.6,0.2-0.9c0.1-0.3,0.1-0.7,0.2-1
			c0.2-0.8,0.3-1.7,0.5-2.7h4.8v1.1H516l-0.6,3.2c0.2-0.2,0.5-0.4,0.8-0.5C516.5,298.7,516.8,298.7,517.2,298.7z"/>
		<path class="st0" d="M522.3,303.1v-6.3h-1v-1h1v-0.2c0-0.9,0.2-1.6,0.6-2.1s0.9-0.8,1.6-0.8c0.3,0,0.6,0,0.9,0.1
			c0.3,0.1,0.5,0.2,0.8,0.3l-0.3,0.9c-0.1-0.1-0.3-0.2-0.5-0.2c-0.2-0.1-0.4-0.1-0.6-0.1c-0.4,0-0.7,0.2-0.9,0.5s-0.3,0.8-0.3,1.3
			v0.2h1.9v1h-1.9v6.3h-1.3V303.1z"/>
		<path class="st0" d="M529.7,298.7c0.5,0,0.9,0.1,1.3,0.2s0.7,0.4,1,0.7c0.3,0.3,0.5,0.6,0.7,1s0.3,0.8,0.3,1.3s-0.1,0.9-0.3,1.4
			c-0.2,0.4-0.4,0.8-0.7,1s-0.7,0.5-1.1,0.7c-0.4,0.2-0.9,0.2-1.4,0.2c-0.7,0-1.3-0.2-1.9-0.5s-1-0.8-1.3-1.3l0.8-0.7
			c0.3,0.4,0.6,0.8,1,1c0.4,0.3,0.9,0.4,1.4,0.4c0.3,0,0.6-0.1,0.9-0.2c0.3-0.1,0.5-0.3,0.7-0.4c0.2-0.2,0.4-0.4,0.5-0.7
			s0.2-0.6,0.2-0.9s-0.1-0.6-0.2-0.9c-0.1-0.3-0.3-0.5-0.5-0.7s-0.4-0.3-0.7-0.4s-0.5-0.2-0.8-0.2c-0.4,0-0.8,0.1-1.1,0.3
			c-0.4,0.2-0.6,0.4-0.9,0.8h-1.1c0,0,0-0.2,0.1-0.4c0-0.2,0.1-0.4,0.1-0.7c0.1-0.3,0.1-0.6,0.2-0.9c0.1-0.3,0.1-0.7,0.2-1
			c0.2-0.8,0.3-1.7,0.5-2.7h4.8v1.1h-3.9l-0.6,3.2c0.2-0.2,0.5-0.4,0.8-0.5C528.9,298.7,529.3,298.7,529.7,298.7z"/>
	</g>
</g>
<g>
	<g>
		<path class="st0" d="M665.2,238c0-0.6,0.1-1.2,0.3-1.8s0.5-1.1,0.9-1.6s0.9-0.9,1.5-1.1c0.6-0.3,1.3-0.4,2-0.4
			c0.9,0,1.6,0.2,2.3,0.6s1.1,0.9,1.4,1.6l-1,0.6c-0.1-0.3-0.3-0.6-0.5-0.8c-0.2-0.2-0.4-0.4-0.7-0.5s-0.5-0.2-0.8-0.3
			c-0.3-0.1-0.5-0.1-0.8-0.1c-0.6,0-1,0.1-1.5,0.3c-0.4,0.2-0.8,0.5-1.1,0.9s-0.5,0.8-0.7,1.2s-0.2,0.9-0.2,1.4s0.1,1,0.3,1.5
			s0.4,0.9,0.7,1.3s0.7,0.7,1.1,0.9s0.9,0.3,1.4,0.3c0.3,0,0.5,0,0.8-0.1s0.5-0.2,0.8-0.3s0.5-0.3,0.7-0.5s0.4-0.5,0.5-0.8l1,0.6
			c-0.2,0.4-0.4,0.7-0.7,1s-0.6,0.5-1,0.7s-0.7,0.3-1.1,0.4s-0.8,0.2-1.2,0.2c-0.7,0-1.3-0.1-1.9-0.4c-0.6-0.3-1.1-0.7-1.5-1.2
			s-0.7-1-1-1.6S665.2,238.7,665.2,238z"/>
		<path class="st0" d="M684,243.1v-7.7l-3.3,5.9H680l-3.3-5.9v7.7h-1.3v-9.9h1.3l3.6,6.5l3.6-6.5h1.3v9.9H684z"/>
		<path class="st0" d="M688,233.1l3,5.2l3-5.2h1.4l-3.8,6.3v3.6h-1.3v-3.7l-3.8-6.3h1.5V233.1z"/>
		<path class="st0" d="M696.8,243.1v-9.9h1.3v5.5l5.1-5.5h1.4l-4,4.4l4.2,5.6h-1.4l-3.6-4.8l-1.7,1.8v3h-1.3V243.1z"/>
		<path class="st0" d="M705.7,237.4v-1.6h1v1.6H705.7z M705.7,243.1v-1.6h1v1.6H705.7z"/>
		<path class="st0" d="M719,239c0,0.6-0.1,1.2-0.3,1.7s-0.4,1-0.7,1.3s-0.7,0.7-1.1,0.9s-0.9,0.3-1.4,0.3s-1-0.1-1.4-0.3
			s-0.8-0.5-1.1-0.9s-0.6-0.8-0.7-1.3c-0.2-0.5-0.3-1.1-0.3-1.7s0.1-1.2,0.3-1.7s0.4-1,0.7-1.3c0.3-0.4,0.7-0.7,1.1-0.9
			s0.9-0.3,1.4-0.3s1,0.1,1.4,0.3s0.8,0.5,1.1,0.9s0.6,0.8,0.7,1.3C718.9,237.8,719,238.4,719,239z M717.7,239
			c0-0.5-0.1-0.9-0.2-1.3c-0.1-0.4-0.3-0.7-0.5-1s-0.4-0.5-0.7-0.6s-0.6-0.2-0.9-0.2c-0.3,0-0.7,0.1-0.9,0.2
			c-0.3,0.1-0.5,0.4-0.7,0.6c-0.2,0.3-0.4,0.6-0.5,1s-0.2,0.8-0.2,1.3s0.1,0.9,0.2,1.3c0.1,0.4,0.3,0.7,0.5,1s0.4,0.5,0.7,0.6
			s0.6,0.2,0.9,0.2c0.3,0,0.6-0.1,0.9-0.2c0.3-0.1,0.5-0.4,0.7-0.6c0.2-0.3,0.4-0.6,0.5-1C717.7,239.9,717.7,239.4,717.7,239z"/>
		<path class="st0" d="M720.6,239.8v-1.1h4.1v1.1H720.6z"/>
		<path class="st0" d="M733.5,239c0,0.6-0.1,1.2-0.3,1.7s-0.4,1-0.7,1.3s-0.7,0.7-1.1,0.9s-0.9,0.3-1.4,0.3s-1-0.1-1.4-0.3
			s-0.8-0.5-1.1-0.9s-0.6-0.8-0.7-1.3c-0.2-0.5-0.3-1.1-0.3-1.7s0.1-1.2,0.3-1.7s0.4-1,0.7-1.3c0.3-0.4,0.7-0.7,1.1-0.9
			s0.9-0.3,1.4-0.3s1,0.1,1.4,0.3s0.8,0.5,1.1,0.9s0.6,0.8,0.7,1.3C733.4,237.8,733.5,238.4,733.5,239z M732.2,239
			c0-0.5-0.1-0.9-0.2-1.3c-0.1-0.4-0.3-0.7-0.5-1s-0.4-0.5-0.7-0.6s-0.6-0.2-0.9-0.2c-0.3,0-0.7,0.1-0.9,0.2
			c-0.3,0.1-0.5,0.4-0.7,0.6c-0.2,0.3-0.4,0.6-0.5,1s-0.2,0.8-0.2,1.3s0.1,0.9,0.2,1.3c0.1,0.4,0.3,0.7,0.5,1s0.4,0.5,0.7,0.6
			s0.6,0.2,0.9,0.2c0.3,0,0.6-0.1,0.9-0.2c0.3-0.1,0.5-0.4,0.7-0.6c0.2-0.3,0.4-0.6,0.5-1C732.2,239.9,732.2,239.4,732.2,239z"/>
		<path class="st0" d="M735.1,239.8v-1.1h4.1v1.1H735.1z"/>
		<path class="st0" d="M748,239c0,0.6-0.1,1.2-0.3,1.7s-0.4,1-0.7,1.3s-0.7,0.7-1.1,0.9s-0.9,0.3-1.4,0.3s-1-0.1-1.4-0.3
			s-0.8-0.5-1.1-0.9s-0.6-0.8-0.7-1.3c-0.2-0.5-0.3-1.1-0.3-1.7s0.1-1.2,0.3-1.7s0.4-1,0.7-1.3c0.3-0.4,0.7-0.7,1.1-0.9
			s0.9-0.3,1.4-0.3s1,0.1,1.4,0.3s0.8,0.5,1.1,0.9s0.6,0.8,0.7,1.3C747.9,237.8,748,238.4,748,239z M746.8,239
			c0-0.5-0.1-0.9-0.2-1.3c-0.1-0.4-0.3-0.7-0.5-1s-0.4-0.5-0.7-0.6s-0.6-0.2-0.9-0.2c-0.3,0-0.7,0.1-0.9,0.2
			c-0.3,0.1-0.5,0.4-0.7,0.6c-0.2,0.3-0.4,0.6-0.5,1s-0.2,0.8-0.2,1.3s0.1,0.9,0.2,1.3c0.1,0.4,0.3,0.7,0.5,1s0.4,0.5,0.7,0.6
			s0.6,0.2,0.9,0.2c0.3,0,0.6-0.1,0.9-0.2c0.3-0.1,0.5-0.4,0.7-0.6c0.2-0.3,0.4-0.6,0.5-1C746.7,239.9,746.8,239.4,746.8,239z"/>
		<path class="st0" d="M749.7,239.8v-1.1h4.1v1.1H749.7z"/>
		<path class="st0" d="M762.5,239c0,0.6-0.1,1.2-0.3,1.7s-0.4,1-0.7,1.3s-0.7,0.7-1.1,0.9s-0.9,0.3-1.4,0.3s-1-0.1-1.4-0.3
			s-0.8-0.5-1.1-0.9s-0.6-0.8-0.7-1.3c-0.2-0.5-0.3-1.1-0.3-1.7s0.1-1.2,0.3-1.7s0.4-1,0.7-1.3c0.3-0.4,0.7-0.7,1.1-0.9
			s0.9-0.3,1.4-0.3s1,0.1,1.4,0.3s0.8,0.5,1.1,0.9s0.6,0.8,0.7,1.3C762.4,237.8,762.5,238.4,762.5,239z M761.3,239
			c0-0.5-0.1-0.9-0.2-1.3c-0.1-0.4-0.3-0.7-0.5-1s-0.4-0.5-0.7-0.6s-0.6-0.2-0.9-0.2c-0.3,0-0.7,0.1-0.9,0.2
			c-0.3,0.1-0.5,0.4-0.7,0.6c-0.2,0.3-0.4,0.6-0.5,1s-0.2,0.8-0.2,1.3s0.1,0.9,0.2,1.3c0.1,0.4,0.3,0.7,0.5,1s0.4,0.5,0.7,0.6
			s0.6,0.2,0.9,0.2c0.3,0,0.6-0.1,0.9-0.2c0.3-0.1,0.5-0.4,0.7-0.6c0.2-0.3,0.4-0.6,0.5-1C761.2,239.9,761.3,239.4,761.3,239z"/>
		<path class="st0" d="M665.9,263.1v-9.9h4.3c0.4,0,0.8,0.1,1.2,0.3c0.4,0.2,0.7,0.4,1,0.7c0.3,0.3,0.5,0.6,0.6,1s0.2,0.8,0.2,1.2
			c0,0.3,0,0.7-0.1,1s-0.2,0.6-0.4,0.9s-0.4,0.5-0.7,0.7s-0.5,0.3-0.9,0.4l2.4,3.8H672l-2.3-3.6h-2.6v3.6h-1.2V263.1z M667.1,258.4
			h3c0.3,0,0.5-0.1,0.7-0.2s0.4-0.3,0.5-0.5s0.3-0.4,0.3-0.7c0.1-0.3,0.1-0.5,0.1-0.8c0-0.3,0-0.5-0.1-0.8c-0.1-0.2-0.2-0.5-0.4-0.7
			s-0.4-0.3-0.6-0.4c-0.2-0.1-0.5-0.2-0.7-0.2H667v4.3H667.1z"/>
		<path class="st0" d="M682.1,261.7c-0.9,0.9-1.9,1.4-3,1.4c-0.7,0-1.3-0.1-1.8-0.4c-0.6-0.3-1.1-0.7-1.5-1.1c-0.4-0.5-0.7-1-1-1.6
			c-0.2-0.6-0.4-1.2-0.4-1.9c0-0.7,0.1-1.3,0.4-1.9c0.2-0.6,0.6-1.1,1-1.6s0.9-0.8,1.5-1.1c0.6-0.3,1.2-0.4,1.8-0.4
			c1,0,1.8,0.2,2.4,0.6c0.6,0.4,1.1,0.9,1.4,1.6l-1,0.7c-0.3-0.6-0.7-1-1.2-1.3s-1.1-0.4-1.7-0.4c-0.5,0-1,0.1-1.4,0.3
			c-0.4,0.2-0.8,0.5-1,0.9c-0.3,0.4-0.5,0.8-0.7,1.2c-0.2,0.5-0.2,1-0.2,1.5s0.1,1,0.3,1.5s0.4,0.9,0.7,1.2c0.3,0.4,0.7,0.6,1.1,0.8
			s0.9,0.3,1.4,0.3c1.1,0,2.1-0.5,2.9-1.6V259H680v-1h3.2v5h-1.1L682.1,261.7L682.1,261.7z"/>
		<path class="st0" d="M692.7,260.5c0,0.4-0.1,0.7-0.2,1s-0.4,0.6-0.6,0.8c-0.3,0.2-0.6,0.4-0.9,0.5c-0.4,0.1-0.7,0.2-1.1,0.2h-4.7
			v-9.9h4.9c0.3,0,0.7,0.1,0.9,0.2c0.3,0.1,0.5,0.3,0.7,0.6c0.2,0.2,0.3,0.5,0.5,0.8c0.1,0.3,0.2,0.6,0.2,0.9c0,0.5-0.1,1-0.4,1.4
			c-0.2,0.4-0.6,0.7-1.1,0.9c0.6,0.2,1,0.5,1.4,0.9C692.5,259.4,692.7,259.9,692.7,260.5z M686.3,254.2v3.3h3.2c0.2,0,0.4,0,0.6-0.1
			c0.2-0.1,0.3-0.2,0.5-0.4s0.2-0.3,0.3-0.5s0.1-0.4,0.1-0.6c0-0.2,0-0.5-0.1-0.7s-0.2-0.4-0.3-0.5s-0.3-0.3-0.5-0.3
			c-0.2-0.1-0.4-0.1-0.6-0.1L686.3,254.2L686.3,254.2z M691.4,260.3c0-0.2,0-0.4-0.1-0.7c-0.1-0.2-0.2-0.4-0.3-0.6s-0.3-0.3-0.5-0.4
			s-0.4-0.1-0.6-0.1h-3.6v3.4h3.5c0.2,0,0.4,0,0.6-0.1c0.2-0.1,0.4-0.2,0.5-0.4c0.1-0.2,0.3-0.3,0.3-0.5
			C691.4,260.7,691.4,260.5,691.4,260.3z"/>
		<path class="st0" d="M694.2,257.4v-1.6h1v1.6H694.2z M694.2,263.1v-1.6h1v1.6H694.2z"/>
		<path class="st0" d="M700.2,263.1c0-0.4,0-0.7,0.1-1s0.2-0.6,0.3-0.9c0.2-0.3,0.4-0.6,0.7-0.9s0.7-0.5,1.2-0.8
			c0.3-0.1,0.6-0.3,0.9-0.4c0.3-0.1,0.6-0.3,0.8-0.5s0.4-0.3,0.6-0.5s0.2-0.4,0.2-0.7c0-0.2,0-0.3-0.1-0.5s-0.2-0.3-0.3-0.4
			s-0.3-0.2-0.5-0.3c-0.2-0.1-0.5-0.1-0.7-0.1c-0.3,0-0.5,0-0.8,0.1c-0.2,0.1-0.4,0.2-0.6,0.3c-0.2,0.1-0.3,0.2-0.5,0.4
			s-0.2,0.2-0.3,0.3l-0.8-0.9c0.1-0.1,0.2-0.2,0.4-0.3c0.2-0.1,0.4-0.3,0.7-0.4s0.6-0.3,0.9-0.4s0.8-0.2,1.2-0.2s0.8,0.1,1.2,0.2
			c0.3,0.1,0.6,0.3,0.9,0.5c0.2,0.2,0.4,0.4,0.6,0.7c0.1,0.3,0.2,0.6,0.2,0.9c0,0.4-0.1,0.7-0.2,1c-0.2,0.3-0.4,0.5-0.6,0.7
			c-0.2,0.2-0.5,0.4-0.7,0.5c-0.3,0.1-0.5,0.3-0.7,0.4s-0.4,0.2-0.7,0.4c-0.3,0.1-0.5,0.3-0.7,0.5s-0.4,0.4-0.6,0.6
			c-0.2,0.2-0.3,0.5-0.3,0.7h4.8v1.1h-6.6V263.1z"/>
		<path class="st0" d="M711.1,258.7c0.5,0,0.9,0.1,1.3,0.2s0.7,0.4,1,0.7c0.3,0.3,0.5,0.6,0.7,1s0.3,0.8,0.3,1.3s-0.1,0.9-0.3,1.4
			c-0.2,0.4-0.4,0.8-0.7,1s-0.7,0.5-1.1,0.7c-0.4,0.2-0.9,0.2-1.4,0.2c-0.7,0-1.3-0.2-1.9-0.5s-1-0.8-1.3-1.3l0.8-0.7
			c0.3,0.4,0.6,0.8,1,1c0.4,0.3,0.9,0.4,1.4,0.4c0.3,0,0.6-0.1,0.9-0.2c0.3-0.1,0.5-0.3,0.7-0.4c0.2-0.2,0.4-0.4,0.5-0.7
			s0.2-0.6,0.2-0.9s-0.1-0.6-0.2-0.9c-0.1-0.3-0.3-0.5-0.5-0.7s-0.4-0.3-0.7-0.4s-0.5-0.2-0.8-0.2c-0.4,0-0.8,0.1-1.1,0.3
			c-0.4,0.2-0.6,0.4-0.9,0.8h-1.1c0,0,0-0.2,0.1-0.4c0-0.2,0.1-0.4,0.1-0.7c0.1-0.3,0.1-0.6,0.2-0.9c0.1-0.3,0.1-0.7,0.2-1
			c0.2-0.8,0.3-1.7,0.5-2.7h4.8v1.1h-3.9l-0.6,3.2c0.2-0.2,0.5-0.4,0.8-0.5C710.3,258.7,710.7,258.7,711.1,258.7z"/>
		<path class="st0" d="M718.7,258.7c0.5,0,0.9,0.1,1.3,0.2s0.7,0.4,1,0.7c0.3,0.3,0.5,0.6,0.7,1s0.3,0.8,0.3,1.3s-0.1,0.9-0.3,1.4
			c-0.2,0.4-0.4,0.8-0.7,1s-0.7,0.5-1.1,0.7c-0.4,0.2-0.9,0.2-1.4,0.2c-0.7,0-1.3-0.2-1.9-0.5s-1-0.8-1.3-1.3l0.8-0.7
			c0.3,0.4,0.6,0.8,1,1c0.4,0.3,0.9,0.4,1.4,0.4c0.3,0,0.6-0.1,0.9-0.2c0.3-0.1,0.5-0.3,0.7-0.4c0.2-0.2,0.4-0.4,0.5-0.7
			s0.2-0.6,0.2-0.9s-0.1-0.6-0.2-0.9c-0.1-0.3-0.3-0.5-0.5-0.7s-0.4-0.3-0.7-0.4s-0.5-0.2-0.8-0.2c-0.4,0-0.8,0.1-1.1,0.3
			c-0.4,0.2-0.6,0.4-0.9,0.8h-1.1c0,0,0-0.2,0.1-0.4c0-0.2,0.1-0.4,0.1-0.7c0.1-0.3,0.1-0.6,0.2-0.9c0.1-0.3,0.1-0.7,0.2-1
			c0.2-0.8,0.3-1.7,0.5-2.7h4.8v1.1h-3.9l-0.6,3.2c0.2-0.2,0.5-0.4,0.8-0.5C718,258.7,718.3,258.7,718.7,258.7z"/>
		<path class="st0" d="M723.4,259.8v-1.1h4.1v1.1H723.4z"/>
		<path class="st0" d="M729,263.1c0-0.4,0-0.7,0.1-1s0.2-0.6,0.3-0.9c0.2-0.3,0.4-0.6,0.7-0.9s0.7-0.5,1.2-0.8
			c0.3-0.1,0.6-0.3,0.9-0.4c0.3-0.1,0.6-0.3,0.8-0.5s0.4-0.3,0.6-0.5s0.2-0.4,0.2-0.7c0-0.2,0-0.3-0.1-0.5s-0.2-0.3-0.3-0.4
			s-0.3-0.2-0.5-0.3c-0.2-0.1-0.5-0.1-0.7-0.1c-0.3,0-0.5,0-0.8,0.1c-0.2,0.1-0.4,0.2-0.6,0.3c-0.2,0.1-0.3,0.2-0.5,0.4
			s-0.2,0.2-0.3,0.3l-0.8-0.9c0.1-0.1,0.2-0.2,0.4-0.3c0.2-0.1,0.4-0.3,0.7-0.4s0.6-0.3,0.9-0.4s0.8-0.2,1.2-0.2s0.8,0.1,1.2,0.2
			c0.3,0.1,0.6,0.3,0.9,0.5c0.2,0.2,0.4,0.4,0.6,0.7c0.1,0.3,0.2,0.6,0.2,0.9c0,0.4-0.1,0.7-0.2,1c-0.2,0.3-0.4,0.5-0.6,0.7
			c-0.2,0.2-0.5,0.4-0.7,0.5c-0.3,0.1-0.5,0.3-0.7,0.4s-0.4,0.2-0.7,0.4c-0.3,0.1-0.5,0.3-0.7,0.5s-0.4,0.4-0.6,0.6
			c-0.2,0.2-0.3,0.5-0.3,0.7h4.8v1.1H729V263.1z"/>
		<path class="st0" d="M739.8,258.7c0.5,0,0.9,0.1,1.3,0.2s0.7,0.4,1,0.7c0.3,0.3,0.5,0.6,0.7,1s0.3,0.8,0.3,1.3s-0.1,0.9-0.3,1.4
			c-0.2,0.4-0.4,0.8-0.7,1s-0.7,0.5-1.1,0.7c-0.4,0.2-0.9,0.2-1.4,0.2c-0.7,0-1.3-0.2-1.9-0.5s-1-0.8-1.3-1.3l0.8-0.7
			c0.3,0.4,0.6,0.8,1,1c0.4,0.3,0.9,0.4,1.4,0.4c0.3,0,0.6-0.1,0.9-0.2c0.3-0.1,0.5-0.3,0.7-0.4c0.2-0.2,0.4-0.4,0.5-0.7
			s0.2-0.6,0.2-0.9s-0.1-0.6-0.2-0.9c-0.1-0.3-0.3-0.5-0.5-0.7s-0.4-0.3-0.7-0.4s-0.5-0.2-0.8-0.2c-0.4,0-0.8,0.1-1.1,0.3
			c-0.4,0.2-0.6,0.4-0.9,0.8h-1.1c0,0,0-0.2,0.1-0.4c0-0.2,0.1-0.4,0.1-0.7c0.1-0.3,0.1-0.6,0.2-0.9c0.1-0.3,0.1-0.7,0.2-1
			c0.2-0.8,0.3-1.7,0.5-2.7h4.8v1.1h-3.9l-0.6,3.2c0.2-0.2,0.5-0.4,0.8-0.5C739.1,258.7,739.4,258.7,739.8,258.7z"/>
		<path class="st0" d="M747.5,258.7c0.5,0,0.9,0.1,1.3,0.2s0.7,0.4,1,0.7c0.3,0.3,0.5,0.6,0.7,1s0.3,0.8,0.3,1.3s-0.1,0.9-0.3,1.4
			c-0.2,0.4-0.4,0.8-0.7,1s-0.7,0.5-1.1,0.7c-0.4,0.2-0.9,0.2-1.4,0.2c-0.7,0-1.3-0.2-1.9-0.5s-1-0.8-1.3-1.3l0.8-0.7
			c0.3,0.4,0.6,0.8,1,1c0.4,0.3,0.9,0.4,1.4,0.4c0.3,0,0.6-0.1,0.9-0.2c0.3-0.1,0.5-0.3,0.7-0.4c0.2-0.2,0.4-0.4,0.5-0.7
			s0.2-0.6,0.2-0.9s-0.1-0.6-0.2-0.9c-0.1-0.3-0.3-0.5-0.5-0.7s-0.4-0.3-0.7-0.4s-0.5-0.2-0.8-0.2c-0.4,0-0.8,0.1-1.1,0.3
			c-0.4,0.2-0.6,0.4-0.9,0.8h-1.1c0,0,0-0.2,0.1-0.4c0-0.2,0.1-0.4,0.1-0.7c0.1-0.3,0.1-0.6,0.2-0.9c0.1-0.3,0.1-0.7,0.2-1
			c0.2-0.8,0.3-1.7,0.5-2.7h4.8v1.1h-3.9l-0.6,3.2c0.2-0.2,0.5-0.4,0.8-0.5C746.7,258.7,747.1,258.7,747.5,258.7z"/>
		<path class="st0" d="M752.1,259.8v-1.1h4.1v1.1H752.1z"/>
		<path class="st0" d="M757.7,263.1c0-0.4,0-0.7,0.1-1s0.2-0.6,0.3-0.9c0.2-0.3,0.4-0.6,0.7-0.9s0.7-0.5,1.2-0.8
			c0.3-0.1,0.6-0.3,0.9-0.4c0.3-0.1,0.6-0.3,0.8-0.5s0.4-0.3,0.6-0.5s0.2-0.4,0.2-0.7c0-0.2,0-0.3-0.1-0.5s-0.2-0.3-0.3-0.4
			s-0.3-0.2-0.5-0.3c-0.2-0.1-0.5-0.1-0.7-0.1c-0.3,0-0.5,0-0.8,0.1c-0.2,0.1-0.4,0.2-0.6,0.3c-0.2,0.1-0.3,0.2-0.5,0.4
			s-0.2,0.2-0.3,0.3l-0.8-0.9c0.1-0.1,0.2-0.2,0.4-0.3c0.2-0.1,0.4-0.3,0.7-0.4s0.6-0.3,0.9-0.4s0.8-0.2,1.2-0.2s0.8,0.1,1.2,0.2
			c0.3,0.1,0.6,0.3,0.9,0.5c0.2,0.2,0.4,0.4,0.6,0.7c0.1,0.3,0.2,0.6,0.2,0.9c0,0.4-0.1,0.7-0.2,1c-0.2,0.3-0.4,0.5-0.6,0.7
			c-0.2,0.2-0.5,0.4-0.7,0.5c-0.3,0.1-0.5,0.3-0.7,0.4s-0.4,0.2-0.7,0.4c-0.3,0.1-0.5,0.3-0.7,0.5s-0.4,0.4-0.6,0.6
			c-0.2,0.2-0.3,0.5-0.3,0.7h4.8v1.1h-6.6V263.1z"/>
		<path class="st0" d="M768.6,258.7c0.5,0,0.9,0.1,1.3,0.2s0.7,0.4,1,0.7c0.3,0.3,0.5,0.6,0.7,1s0.3,0.8,0.3,1.3s-0.1,0.9-0.3,1.4
			c-0.2,0.4-0.4,0.8-0.7,1s-0.7,0.5-1.1,0.7c-0.4,0.2-0.9,0.2-1.4,0.2c-0.7,0-1.3-0.2-1.9-0.5s-1-0.8-1.3-1.3l0.8-0.7
			c0.3,0.4,0.6,0.8,1,1c0.4,0.3,0.9,0.4,1.4,0.4c0.3,0,0.6-0.1,0.9-0.2c0.3-0.1,0.5-0.3,0.7-0.4c0.2-0.2,0.4-0.4,0.5-0.7
			s0.2-0.6,0.2-0.9s-0.1-0.6-0.2-0.9c-0.1-0.3-0.3-0.5-0.5-0.7s-0.4-0.3-0.7-0.4s-0.5-0.2-0.8-0.2c-0.4,0-0.8,0.1-1.1,0.3
			c-0.4,0.2-0.6,0.4-0.9,0.8h-1.1c0,0,0-0.2,0.1-0.4c0-0.2,0.1-0.4,0.1-0.7c0.1-0.3,0.1-0.6,0.2-0.9c0.1-0.3,0.1-0.7,0.2-1
			c0.2-0.8,0.3-1.7,0.5-2.7h4.8v1.1h-3.9l-0.6,3.2c0.2-0.2,0.5-0.4,0.8-0.5C767.8,258.7,768.2,258.7,768.6,258.7z"/>
		<path class="st0" d="M776.2,258.7c0.5,0,0.9,0.1,1.3,0.2s0.7,0.4,1,0.7c0.3,0.3,0.5,0.6,0.7,1s0.3,0.8,0.3,1.3s-0.1,0.9-0.3,1.4
			c-0.2,0.4-0.4,0.8-0.7,1s-0.7,0.5-1.1,0.7c-0.4,0.2-0.9,0.2-1.4,0.2c-0.7,0-1.3-0.2-1.9-0.5s-1-0.8-1.3-1.3l0.8-0.7
			c0.3,0.4,0.6,0.8,1,1c0.4,0.3,0.9,0.4,1.4,0.4c0.3,0,0.6-0.1,0.9-0.2c0.3-0.1,0.5-0.3,0.7-0.4c0.2-0.2,0.4-0.4,0.5-0.7
			s0.2-0.6,0.2-0.9s-0.1-0.6-0.2-0.9c-0.1-0.3-0.3-0.5-0.5-0.7s-0.4-0.3-0.7-0.4s-0.5-0.2-0.8-0.2c-0.4,0-0.8,0.1-1.1,0.3
			c-0.4,0.2-0.6,0.4-0.9,0.8H773c0,0,0-0.2,0.1-0.4c0-0.2,0.1-0.4,0.1-0.7c0.1-0.3,0.1-0.6,0.2-0.9c0.1-0.3,0.1-0.7,0.2-1
			c0.2-0.8,0.3-1.7,0.5-2.7h4.8v1.1H775l-0.6,3.2c0.2-0.2,0.5-0.4,0.8-0.5C775.5,258.7,775.8,258.7,776.2,258.7z"/>
		<path class="st0" d="M673.9,293.1v9.9h-1.3v-4.5h-5.5v4.5h-1.3v-9.9h1.3v4.3h5.5v-4.3H673.9z"/>
		<path class="st0" d="M683,302v1.1h-6.7v-9.9h6.6v1.1h-5.4v3.2h4.7v1h-4.7v3.4L683,302L683,302z"/>
		<path class="st0" d="M685,293.1l3,4.1l3-4.1h1.4l-3.7,5l3.6,4.9h-1.4l-2.9-4l-2.9,4h-1.4l3.6-4.9l-3.7-5H685z"/>
		<path class="st0" d="M693.3,297.4v-1.6h1v1.6H693.3z M693.3,303.1v-1.6h1v1.6H693.3z"/>
		<path class="st0" d="M708,296.8h-1.9l-0.6,2.5h1.9v1h-2.1l-0.7,2.8h-1l0.7-2.8h-2.4l-0.7,2.8h-1l0.7-2.8h-1.6v-1h1.8l0.6-2.5h-1.8
			v-0.9h2l0.7-2.8h1l-0.7,2.8h2.4l0.7-2.8h1l-0.7,2.8h1.7L708,296.8L708,296.8z M704.5,299.3l0.6-2.5h-2.4l-0.6,2.5H704.5z"/>
		<path class="st0" d="M715.9,293.8c-0.3,0-0.5,0.1-0.7,0.2s-0.3,0.2-0.4,0.4c-0.1,0.2-0.2,0.4-0.3,0.6s-0.1,0.4-0.1,0.6v0.2h2.2v1
			h-2.2v6.3h-1.2v-6.3h-2.1v6.3h-1.2v-6.3h-1v-1h1v-0.1c0-0.3,0.1-0.6,0.2-0.9s0.2-0.6,0.4-0.8c0.2-0.2,0.4-0.4,0.7-0.5
			s0.6-0.2,1-0.2c0.3,0,0.6,0,0.9,0.1c0.3,0.1,0.5,0.2,0.7,0.3c0.2-0.3,0.5-0.5,0.8-0.7s0.7-0.3,1.1-0.3c0.4,0,0.7,0.1,1,0.2
			c0.2,0.1,0.4,0.2,0.6,0.3l-0.3,0.9c-0.1-0.1-0.2-0.1-0.4-0.2S716.2,293.8,715.9,293.8z M713.2,295.8c0-0.2,0-0.4,0.1-0.6
			c0-0.2,0.1-0.4,0.2-0.6c-0.1-0.1-0.3-0.2-0.5-0.2s-0.4,0-0.5,0c-0.5,0-0.8,0.1-1,0.4s-0.3,0.6-0.3,1v0.1L713.2,295.8L713.2,295.8z
			"/>
		<path class="st0" d="M718.3,303.1v-6.3h-1v-1h1v-0.2c0-0.9,0.2-1.6,0.6-2.1s0.9-0.8,1.6-0.8c0.3,0,0.6,0,0.9,0.1
			c0.3,0.1,0.5,0.2,0.8,0.3l-0.3,0.9c-0.1-0.1-0.3-0.2-0.5-0.2c-0.2-0.1-0.4-0.1-0.6-0.1c-0.4,0-0.7,0.2-0.9,0.5s-0.3,0.8-0.3,1.3
			v0.2h1.9v1h-1.9v6.3h-1.3V303.1z"/>
	</g>
</g>
</svg>
