<?xml version="1.0" encoding="utf-8"?>
<!-- Generator: Adobe Illustrator 22.0.0, SVG Export Plug-In . SVG Version: 6.00 Build 0)  -->
<svg version="1.1" id="Laag_1" xmlns="http://www.w3.org/2000/svg" xmlns:xlink="http://www.w3.org/1999/xlink" x="0px" y="0px"
	 viewBox="0 0 841.9 112.3" style="enable-background:new 0 0 841.9 112.3;" xml:space="preserve">
<style type="text/css">
	.st0{fill:#4D4D4D;}
	.st1{fill:#FCCD42;}
</style>
<g>
	<path class="st0" d="M462.4,31.7l4.7-12.2h1.7l5,12.2H472l-1.4-3.7h-5.1l-1.3,3.7H462.4z M465.9,26.7h4.1l-1.3-3.4
		c-0.4-1-0.7-1.9-0.9-2.5c-0.2,0.8-0.4,1.6-0.7,2.3L465.9,26.7z"/>
	<path class="st0" d="M475.1,31.7V19.5h5.4c1.1,0,1.9,0.1,2.5,0.3s1,0.6,1.4,1.2c0.3,0.6,0.5,1.2,0.5,1.8c0,0.9-0.3,1.6-0.8,2.2
		c-0.6,0.6-1.4,1-2.6,1.1c0.4,0.2,0.8,0.4,1,0.6c0.5,0.4,0.9,1,1.3,1.6l2.1,3.3h-2l-1.6-2.5c-0.5-0.7-0.9-1.3-1.2-1.7
		c-0.3-0.4-0.6-0.7-0.8-0.8c-0.2-0.2-0.5-0.3-0.7-0.3s-0.5-0.1-0.9-0.1h-1.9v5.4h-1.7V31.7z M476.7,24.9h3.5c0.7,0,1.3-0.1,1.7-0.2
		s0.7-0.4,0.9-0.7s0.3-0.7,0.3-1.1c0-0.6-0.2-1-0.6-1.4s-1.1-0.6-2-0.6h-3.9v4H476.7z"/>
	<path class="st0" d="M487.6,31.7V19.5h1.6v12.2H487.6z"/>
	<path class="st0" d="M490.7,31.7l4.7-12.2h1.7l5,12.2h-1.8l-1.4-3.7h-5.1l-1.3,3.7H490.7z M494.2,26.7h4.1l-1.3-3.4
		c-0.4-1-0.7-1.9-0.9-2.5c-0.2,0.8-0.4,1.6-0.7,2.3L494.2,26.7z"/>
	<path class="st0" d="M503.3,31.7V19.5h1.6v10.7h6v1.4h-7.6V31.7z"/>
	<path class="st0" d="M517,31.7V19.5h5.4c1.1,0,1.9,0.1,2.5,0.3s1,0.6,1.4,1.2c0.3,0.6,0.5,1.2,0.5,1.8c0,0.9-0.3,1.6-0.8,2.2
		c-0.6,0.6-1.4,1-2.6,1.1c0.4,0.2,0.8,0.4,1,0.6c0.5,0.4,0.9,1,1.3,1.6l2.1,3.3h-2l-1.6-2.5c-0.5-0.7-0.9-1.3-1.2-1.7
		c-0.3-0.4-0.6-0.7-0.8-0.8c-0.2-0.2-0.5-0.3-0.7-0.3s-0.5-0.1-0.9-0.1h-1.9v5.4H517V31.7z M518.6,24.9h3.5c0.7,0,1.3-0.1,1.7-0.2
		s0.7-0.4,0.9-0.7s0.3-0.7,0.3-1.1c0-0.6-0.2-1-0.6-1.4c-0.4-0.4-1.1-0.6-2-0.6h-3.9L518.6,24.9L518.6,24.9z"/>
	<path class="st0" d="M535.1,28.9l1.5,0.2c-0.2,0.9-0.7,1.6-1.4,2.1s-1.5,0.7-2.5,0.7c-1.3,0-2.3-0.4-3.1-1.2s-1.1-1.9-1.1-3.3
		c0-1.5,0.4-2.6,1.1-3.5s1.8-1.2,3-1.2s2.1,0.4,2.9,1.2c0.7,0.8,1.1,1.9,1.1,3.4c0,0.1,0,0.2,0,0.4H530c0.1,1,0.3,1.7,0.8,2.2
		s1.1,0.8,1.8,0.8c0.5,0,1-0.1,1.4-0.4S534.8,29.5,535.1,28.9z M530.2,26.4h4.9c-0.1-0.7-0.3-1.3-0.6-1.7c-0.5-0.6-1.1-0.9-1.9-0.9
		c-0.7,0-1.3,0.2-1.7,0.7C530.5,25.1,530.2,25.7,530.2,26.4z"/>
	<path class="st0" d="M538.2,32.4l1.5,0.2c0.1,0.4,0.2,0.8,0.5,1c0.4,0.3,0.9,0.4,1.5,0.4c0.7,0,1.2-0.1,1.6-0.4s0.6-0.7,0.8-1.2
		c0.1-0.3,0.1-0.9,0.1-1.9c-0.7,0.8-1.5,1.2-2.4,1.2c-1.2,0-2.1-0.4-2.8-1.3s-1-1.9-1-3.1c0-0.8,0.2-1.6,0.5-2.3
		c0.3-0.7,0.7-1.3,1.3-1.6s1.3-0.6,2-0.6c1,0,1.9,0.4,2.6,1.3V23h1.4v7.6c0,1.4-0.1,2.3-0.4,2.9c-0.3,0.6-0.7,1-1.3,1.4
		c-0.6,0.3-1.4,0.5-2.2,0.5c-1.1,0-1.9-0.2-2.5-0.7C538.5,34.1,538.2,33.4,538.2,32.4z M539.4,27.1c0,1.2,0.2,2,0.7,2.5
		s1,0.8,1.7,0.8s1.3-0.3,1.7-0.8s0.7-1.4,0.7-2.5s-0.2-1.9-0.7-2.4s-1.1-0.8-1.7-0.8c-0.7,0-1.2,0.3-1.7,0.8
		C539.7,25.3,539.4,26.1,539.4,27.1z"/>
	<path class="st0" d="M553.7,31.7v-1.3c-0.7,1-1.6,1.5-2.8,1.5c-0.5,0-1-0.1-1.5-0.3c-0.5-0.2-0.8-0.4-1-0.8s-0.4-0.7-0.5-1.1
		c-0.1-0.3-0.1-0.8-0.1-1.4v-5.5h1.5v4.9c0,0.8,0,1.3,0.1,1.6c0.1,0.4,0.3,0.7,0.6,0.9c0.3,0.2,0.7,0.3,1.1,0.3
		c0.4,0,0.9-0.1,1.3-0.3c0.4-0.2,0.7-0.5,0.8-0.9c0.2-0.4,0.2-1,0.2-1.7v-4.7h1.5v8.8H553.7z"/>
	<path class="st0" d="M557.4,31.7V19.5h1.5v12.2H557.4z"/>
	<path class="st0" d="M566.9,30.6c-0.6,0.5-1.1,0.8-1.6,1s-1.1,0.3-1.6,0.3c-1,0-1.7-0.2-2.2-0.7s-0.8-1.1-0.8-1.8
		c0-0.4,0.1-0.8,0.3-1.2c0.2-0.4,0.5-0.6,0.8-0.9s0.7-0.4,1.1-0.5c0.3-0.1,0.7-0.2,1.3-0.2c1.2-0.1,2.1-0.3,2.7-0.5
		c0-0.2,0-0.3,0-0.4c0-0.6-0.1-1-0.4-1.3c-0.4-0.3-0.9-0.5-1.7-0.5c-0.7,0-1.2,0.1-1.6,0.4c-0.3,0.2-0.6,0.7-0.7,1.3l-1.5-0.2
		c0.1-0.6,0.4-1.1,0.7-1.5s0.7-0.7,1.3-0.9c0.6-0.2,1.2-0.3,2-0.3s1.4,0.1,1.8,0.3s0.8,0.4,1,0.7c0.2,0.3,0.4,0.6,0.5,1
		c0,0.3,0.1,0.7,0.1,1.4v2c0,1.4,0,2.3,0.1,2.6c0.1,0.4,0.2,0.7,0.4,1.1h-1.6C567.1,31.4,567,31,566.9,30.6z M566.8,27.3
		c-0.5,0.2-1.4,0.4-2.4,0.6c-0.6,0.1-1,0.2-1.3,0.3c-0.3,0.1-0.5,0.3-0.6,0.5s-0.2,0.4-0.2,0.7c0,0.4,0.2,0.7,0.5,1s0.7,0.4,1.3,0.4
		s1.1-0.1,1.5-0.4s0.8-0.6,1-1c0.2-0.3,0.2-0.8,0.2-1.5V27.3z"/>
	<path class="st0" d="M570.6,31.7v-8.8h1.3v1.3c0.3-0.6,0.7-1,1-1.2s0.6-0.3,1-0.3c0.5,0,1,0.2,1.5,0.5l-0.5,1.4
		c-0.4-0.2-0.7-0.3-1.1-0.3c-0.3,0-0.6,0.1-0.9,0.3s-0.4,0.5-0.6,0.8c-0.2,0.5-0.3,1.1-0.3,1.7v4.6H570.6z"/>
	<path class="st0" d="M462.4,61.7l3.3-8.6h1.2l3.5,8.6h-1.3l-1-2.6h-3.6l-0.9,2.6C463.6,61.7,462.4,61.7,462.4,61.7z M464.9,58.2
		h2.9l-0.9-2.4c-0.3-0.7-0.5-1.3-0.6-1.8c-0.1,0.6-0.3,1.1-0.5,1.6L464.9,58.2z"/>
	<path class="st0" d="M471.2,61.7v-6.2h0.9v0.9c0.2-0.4,0.5-0.7,0.7-0.9s0.4-0.2,0.7-0.2c0.4,0,0.7,0.1,1.1,0.3l-0.4,1
		c-0.3-0.2-0.5-0.2-0.8-0.2c-0.2,0-0.4,0.1-0.6,0.2s-0.3,0.3-0.4,0.6c-0.1,0.4-0.2,0.8-0.2,1.2v3.3
		C472.2,61.7,471.2,61.7,471.2,61.7z"/>
	<path class="st0" d="M475.2,54.3v-1.2h1.1v1.2H475.2z M475.2,61.7v-6.2h1.1v6.2H475.2z"/>
	<path class="st0" d="M481.9,60.9c-0.4,0.3-0.8,0.6-1.1,0.7s-0.7,0.2-1.2,0.2c-0.7,0-1.2-0.2-1.6-0.5s-0.6-0.8-0.6-1.3
		c0-0.3,0.1-0.6,0.2-0.8s0.3-0.5,0.5-0.6s0.5-0.3,0.8-0.3c0.2-0.1,0.5-0.1,0.9-0.2c0.9-0.1,1.5-0.2,1.9-0.4c0-0.1,0-0.2,0-0.3
		c0-0.4-0.1-0.7-0.3-0.9c-0.3-0.2-0.7-0.4-1.2-0.4s-0.9,0.1-1.1,0.3s-0.4,0.5-0.5,0.9l-1-0.1c0.1-0.4,0.2-0.8,0.5-1.1
		s0.5-0.5,0.9-0.6s0.9-0.2,1.4-0.2s1,0.1,1.3,0.2s0.6,0.3,0.7,0.5s0.3,0.4,0.3,0.7c0,0.2,0.1,0.5,0.1,1v1.4c0,1,0,1.6,0.1,1.9
		s0.1,0.5,0.3,0.7h-1.1C482,61.5,482,61.2,481.9,60.9z M481.8,58.6c-0.4,0.2-1,0.3-1.7,0.4c-0.4,0.1-0.7,0.1-0.9,0.2
		s-0.3,0.2-0.4,0.3s-0.1,0.3-0.1,0.5c0,0.3,0.1,0.5,0.3,0.7s0.5,0.3,0.9,0.3s0.8-0.1,1.1-0.3s0.5-0.4,0.7-0.7
		c0.1-0.2,0.2-0.6,0.2-1.1v-0.3H481.8z"/>
	<path class="st0" d="M484.5,61.7v-8.6h1.1v8.6C485.6,61.7,484.5,61.7,484.5,61.7z"/>
	<path class="st0" d="M490.5,61.7v-6.2h0.9v0.9c0.2-0.4,0.5-0.7,0.7-0.9s0.4-0.2,0.7-0.2c0.4,0,0.7,0.1,1.1,0.3l-0.4,1
		c-0.3-0.2-0.5-0.2-0.8-0.2c-0.2,0-0.4,0.1-0.6,0.2s-0.3,0.3-0.4,0.6c-0.1,0.4-0.2,0.8-0.2,1.2v3.3
		C491.5,61.7,490.5,61.7,490.5,61.7z"/>
	<path class="st0" d="M498.8,59.7l1.1,0.1c-0.2,0.6-0.5,1.1-1,1.5s-1.1,0.5-1.8,0.5c-0.9,0-1.6-0.3-2.2-0.8s-0.8-1.3-0.8-2.4
		c0-1,0.3-1.9,0.8-2.4s1.2-0.9,2.1-0.9c0.8,0,1.5,0.3,2,0.8s0.8,1.4,0.8,2.4c0,0.1,0,0.2,0,0.3h-4.6c0,0.7,0.2,1.2,0.6,1.6
		s0.8,0.5,1.3,0.5c0.4,0,0.7-0.1,1-0.3S498.6,60.1,498.8,59.7z M495.3,58h3.5c0-0.5-0.2-0.9-0.4-1.2c-0.3-0.4-0.8-0.6-1.3-0.6
		s-0.9,0.2-1.2,0.5S495.4,57.4,495.3,58z"/>
	<path class="st0" d="M501,62.2l1,0.2c0,0.3,0.2,0.5,0.4,0.7c0.3,0.2,0.6,0.3,1.1,0.3s0.9-0.1,1.1-0.3s0.4-0.5,0.5-0.8
		c0.1-0.2,0.1-0.7,0.1-1.4c-0.5,0.5-1,0.8-1.7,0.8c-0.9,0-1.5-0.3-2-0.9s-0.7-1.4-0.7-2.2c0-0.6,0.1-1.1,0.3-1.6s0.5-0.9,0.9-1.2
		s0.9-0.4,1.4-0.4c0.7,0,1.3,0.3,1.8,0.9v-0.8h1v5.4c0,1-0.1,1.7-0.3,2.1s-0.5,0.7-0.9,1c-0.4,0.2-1,0.4-1.6,0.4
		c-0.7,0-1.3-0.2-1.8-0.5C501.2,63.4,501,62.9,501,62.2z M501.9,58.5c0,0.8,0.2,1.4,0.5,1.8s0.7,0.6,1.2,0.6s0.9-0.2,1.2-0.6
		s0.5-1,0.5-1.8s-0.2-1.3-0.5-1.7s-0.7-0.6-1.2-0.6s-0.9,0.2-1.2,0.6S501.9,57.7,501.9,58.5z"/>
	<path class="st0" d="M512,61.7v-0.9c-0.5,0.7-1.1,1.1-2,1.1c-0.4,0-0.7-0.1-1-0.2s-0.6-0.3-0.7-0.5s-0.3-0.5-0.3-0.8
		c0-0.2-0.1-0.5-0.1-1v-3.9h1.1V59c0,0.6,0,0.9,0.1,1.1c0.1,0.3,0.2,0.5,0.4,0.7s0.5,0.2,0.8,0.2s0.6-0.1,0.9-0.2s0.5-0.4,0.6-0.7
		s0.2-0.7,0.2-1.2v-3.3h1.1v6.2L512,61.7L512,61.7z"/>
	<path class="st0" d="M514.5,61.7v-8.6h1.1v8.6C515.6,61.7,514.5,61.7,514.5,61.7z"/>
	<path class="st0" d="M521.3,60.9c-0.4,0.3-0.8,0.6-1.1,0.7s-0.7,0.2-1.2,0.2c-0.7,0-1.2-0.2-1.6-0.5s-0.6-0.8-0.6-1.3
		c0-0.3,0.1-0.6,0.2-0.8s0.3-0.5,0.5-0.6s0.5-0.3,0.8-0.3c0.2-0.1,0.5-0.1,0.9-0.2c0.9-0.1,1.5-0.2,1.9-0.4c0-0.1,0-0.2,0-0.3
		c0-0.4-0.1-0.7-0.3-0.9c-0.3-0.2-0.7-0.4-1.2-0.4s-0.9,0.1-1.1,0.3s-0.4,0.5-0.5,0.9l-1-0.1c0.1-0.4,0.2-0.8,0.5-1.1
		s0.5-0.5,0.9-0.6s0.9-0.2,1.4-0.2s1,0.1,1.3,0.2s0.6,0.3,0.7,0.5s0.3,0.4,0.3,0.7c0,0.2,0.1,0.5,0.1,1v1.4c0,1,0,1.6,0.1,1.9
		s0.1,0.5,0.3,0.7h-1.1C521.4,61.5,521.3,61.2,521.3,60.9z M521.2,58.6c-0.4,0.2-1,0.3-1.7,0.4c-0.4,0.1-0.7,0.1-0.9,0.2
		s-0.3,0.2-0.4,0.3S518,59.8,518,60c0,0.3,0.1,0.5,0.3,0.7s0.5,0.3,0.9,0.3s0.8-0.1,1.1-0.3s0.5-0.4,0.7-0.7
		c0.1-0.2,0.2-0.6,0.2-1.1V58.6z"/>
	<path class="st0" d="M523.9,61.7v-6.2h0.9v0.9c0.2-0.4,0.5-0.7,0.7-0.9s0.4-0.2,0.7-0.2c0.4,0,0.7,0.1,1.1,0.3l-0.4,1
		c-0.3-0.2-0.5-0.2-0.8-0.2c-0.2,0-0.4,0.1-0.6,0.2s-0.3,0.3-0.4,0.6c-0.1,0.4-0.2,0.8-0.2,1.2v3.3
		C524.9,61.7,523.9,61.7,523.9,61.7z"/>
	<path class="st0" d="M530.6,54.3v-1.2h1.1v1.2H530.6z M530.6,61.7v-6.2h1.1v6.2H530.6z"/>
	<path class="st0" d="M532.8,59.8l1-0.2c0.1,0.4,0.2,0.7,0.5,1s0.6,0.3,1.1,0.3s0.8-0.1,1.1-0.3s0.4-0.4,0.4-0.7
		c0-0.2-0.1-0.4-0.3-0.6c-0.1-0.1-0.5-0.2-1.1-0.4c-0.8-0.2-1.3-0.4-1.6-0.5s-0.5-0.3-0.7-0.6S533,57.3,533,57s0.1-0.5,0.2-0.8
		s0.3-0.4,0.5-0.6c0.2-0.1,0.4-0.2,0.7-0.3s0.6-0.1,0.9-0.1c0.5,0,0.9,0.1,1.3,0.2s0.6,0.3,0.8,0.6s0.3,0.6,0.4,1l-1,0.1
		c0-0.3-0.2-0.6-0.4-0.8s-0.5-0.3-1-0.3s-0.8,0.1-1,0.2S534,56.8,534,57c0,0.1,0,0.3,0.1,0.4c0.1,0.1,0.2,0.2,0.4,0.3
		c0.1,0,0.4,0.1,0.9,0.3c0.7,0.2,1.3,0.4,1.6,0.5s0.5,0.3,0.7,0.6s0.3,0.5,0.3,0.9s-0.1,0.7-0.3,1s-0.5,0.6-0.9,0.7S536,62,535.5,62
		c-0.8,0-1.4-0.2-1.8-0.5S532.9,60.5,532.8,59.8z"/>
	<path class="st0" d="M546.8,59.7l1.1,0.1c-0.2,0.6-0.5,1.1-1,1.5s-1.1,0.5-1.8,0.5c-0.9,0-1.6-0.3-2.2-0.8s-0.8-1.3-0.8-2.4
		c0-1,0.3-1.9,0.8-2.4s1.2-0.9,2.1-0.9c0.8,0,1.5,0.3,2,0.8s0.8,1.4,0.8,2.4c0,0.1,0,0.2,0,0.3h-4.6c0,0.7,0.2,1.2,0.6,1.6
		s0.8,0.5,1.3,0.5c0.4,0,0.7-0.1,1-0.3S546.7,60.1,546.8,59.7z M543.4,58h3.5c0-0.5-0.2-0.9-0.4-1.2c-0.3-0.4-0.8-0.6-1.3-0.6
		s-0.9,0.2-1.2,0.5S543.4,57.4,543.4,58z"/>
	<path class="st0" d="M553.5,59.7l1.1,0.1c-0.2,0.6-0.5,1.1-1,1.5s-1.1,0.5-1.8,0.5c-0.9,0-1.6-0.3-2.2-0.8s-0.8-1.3-0.8-2.4
		c0-1,0.3-1.9,0.8-2.4s1.2-0.9,2.1-0.9c0.8,0,1.5,0.3,2,0.8s0.8,1.4,0.8,2.4c0,0.1,0,0.2,0,0.3H550c0,0.7,0.2,1.2,0.6,1.6
		s0.8,0.5,1.3,0.5c0.4,0,0.7-0.1,1-0.3S553.3,60.1,553.5,59.7z M550,58h3.5c0-0.5-0.2-0.9-0.4-1.2c-0.3-0.4-0.8-0.6-1.3-0.6
		s-0.9,0.2-1.2,0.5S550.1,57.4,550,58z"/>
	<path class="st0" d="M555.9,61.7v-6.2h0.9v0.9c0.5-0.7,1.1-1,2-1c0.4,0,0.7,0.1,1,0.2s0.5,0.3,0.7,0.5s0.3,0.5,0.3,0.8
		c0,0.2,0.1,0.5,0.1,1v3.8h-1.1v-3.8c0-0.4,0-0.8-0.1-1s-0.2-0.4-0.4-0.5s-0.5-0.2-0.7-0.2c-0.4,0-0.8,0.1-1.2,0.4s-0.5,0.8-0.5,1.6
		v3.4L555.9,61.7L555.9,61.7z"/>
	<path class="st0" d="M565.4,61.7v-0.9l4-4.5c-0.4,0-0.8,0-1.2,0h-2.5v-0.9h5.1v0.7l-3.4,3.9l-0.7,0.7c0.5,0,0.9-0.1,1.3-0.1h2.9
		v0.9h-5.5V61.7z"/>
	<path class="st0" d="M576.2,59.7l1.1,0.1c-0.2,0.6-0.5,1.1-1,1.5s-1.1,0.5-1.8,0.5c-0.9,0-1.6-0.3-2.2-0.8s-0.8-1.3-0.8-2.4
		c0-1,0.3-1.9,0.8-2.4s1.2-0.9,2.1-0.9c0.8,0,1.5,0.3,2,0.8s0.8,1.4,0.8,2.4c0,0.1,0,0.2,0,0.3h-4.6c0,0.7,0.2,1.2,0.6,1.6
		s0.8,0.5,1.3,0.5c0.4,0,0.7-0.1,1-0.3S576,60.1,576.2,59.7z M572.7,58h3.5c0-0.5-0.2-0.9-0.4-1.2c-0.3-0.4-0.8-0.6-1.3-0.6
		s-0.9,0.2-1.2,0.5S572.7,57.4,572.7,58z"/>
	<path class="st0" d="M582.8,59.7l1.1,0.1c-0.2,0.6-0.5,1.1-1,1.5s-1.1,0.5-1.8,0.5c-0.9,0-1.6-0.3-2.2-0.8s-0.8-1.3-0.8-2.4
		c0-1,0.3-1.9,0.8-2.4s1.2-0.9,2.1-0.9c0.8,0,1.5,0.3,2,0.8s0.8,1.4,0.8,2.4c0,0.1,0,0.2,0,0.3h-4.6c0,0.7,0.2,1.2,0.6,1.6
		s0.8,0.5,1.3,0.5c0.4,0,0.7-0.1,1-0.3S582.7,60.1,582.8,59.7z M579.4,58h3.5c0-0.5-0.2-0.9-0.4-1.2c-0.3-0.4-0.8-0.6-1.3-0.6
		s-0.9,0.2-1.2,0.5S579.4,57.4,579.4,58z"/>
	<path class="st0" d="M585.2,61.7v-6.2h0.9v0.9c0.2-0.4,0.5-0.7,0.7-0.9s0.4-0.2,0.7-0.2c0.4,0,0.7,0.1,1.1,0.3l-0.4,1
		c-0.3-0.2-0.5-0.2-0.8-0.2c-0.2,0-0.4,0.1-0.6,0.2s-0.3,0.3-0.4,0.6c-0.1,0.4-0.2,0.8-0.2,1.2v3.3
		C586.2,61.7,585.2,61.7,585.2,61.7z"/>
	<path class="st0" d="M592.4,62.2l1,0.2c0,0.3,0.2,0.5,0.4,0.7c0.3,0.2,0.6,0.3,1.1,0.3s0.9-0.1,1.1-0.3s0.4-0.5,0.5-0.8
		c0.1-0.2,0.1-0.7,0.1-1.4c-0.5,0.5-1,0.8-1.7,0.8c-0.9,0-1.5-0.3-2-0.9s-0.7-1.4-0.7-2.2c0-0.6,0.1-1.1,0.3-1.6s0.5-0.9,0.9-1.2
		s0.9-0.4,1.4-0.4c0.7,0,1.3,0.3,1.8,0.9v-0.8h1v5.4c0,1-0.1,1.7-0.3,2.1s-0.5,0.7-0.9,1c-0.4,0.2-1,0.4-1.6,0.4
		c-0.7,0-1.3-0.2-1.8-0.5C592.6,63.4,592.4,62.9,592.4,62.2z M593.3,58.5c0,0.8,0.2,1.4,0.5,1.8s0.7,0.6,1.2,0.6s0.9-0.2,1.2-0.6
		s0.5-1,0.5-1.8s-0.2-1.3-0.5-1.7s-0.7-0.6-1.2-0.6s-0.9,0.2-1.2,0.6S593.3,57.7,593.3,58.5z"/>
	<path class="st0" d="M603.5,59.7l1.1,0.1c-0.2,0.6-0.5,1.1-1,1.5s-1.1,0.5-1.8,0.5c-0.9,0-1.6-0.3-2.2-0.8s-0.8-1.3-0.8-2.4
		c0-1,0.3-1.9,0.8-2.4s1.2-0.9,2.1-0.9c0.8,0,1.5,0.3,2,0.8s0.8,1.4,0.8,2.4c0,0.1,0,0.2,0,0.3H600c0,0.7,0.2,1.2,0.6,1.6
		s0.8,0.5,1.3,0.5c0.4,0,0.7-0.1,1-0.3S603.4,60.1,603.5,59.7z M600.1,58h3.5c0-0.5-0.2-0.9-0.4-1.2c-0.3-0.4-0.8-0.6-1.3-0.6
		s-0.9,0.2-1.2,0.5S600.1,57.4,600.1,58z"/>
	<path class="st0" d="M605.9,61.7v-8.6h1.1V58l2.5-2.5h1.4l-2.4,2.3l2.6,3.9h-1.3l-2.1-3.2l-0.7,0.7v2.5H605.9z"/>
	<path class="st0" d="M616.2,59.7l1.1,0.1c-0.2,0.6-0.5,1.1-1,1.5s-1.1,0.5-1.8,0.5c-0.9,0-1.6-0.3-2.2-0.8s-0.8-1.3-0.8-2.4
		c0-1,0.3-1.9,0.8-2.4s1.2-0.9,2.1-0.9c0.8,0,1.5,0.3,2,0.8s0.8,1.4,0.8,2.4c0,0.1,0,0.2,0,0.3h-4.6c0,0.7,0.2,1.2,0.6,1.6
		s0.8,0.5,1.3,0.5c0.4,0,0.7-0.1,1-0.3S616,60.1,616.2,59.7z M612.7,58h3.5c0-0.5-0.2-0.9-0.4-1.2c-0.3-0.4-0.8-0.6-1.3-0.6
		s-0.9,0.2-1.2,0.5S612.8,57.4,612.7,58z"/>
	<path class="st0" d="M618.6,61.7v-6.2h0.9v0.9c0.5-0.7,1.1-1,2-1c0.4,0,0.7,0.1,1,0.2s0.5,0.3,0.7,0.5s0.3,0.5,0.3,0.8
		c0,0.2,0.1,0.5,0.1,1v3.8h-1.1v-3.8c0-0.4,0-0.8-0.1-1s-0.2-0.4-0.4-0.5s-0.5-0.2-0.7-0.2c-0.4,0-0.8,0.1-1.2,0.4s-0.5,0.8-0.5,1.6
		v3.4L618.6,61.7L618.6,61.7z"/>
	<path class="st0" d="M629.3,61.7v-0.8c-0.4,0.6-1,0.9-1.7,0.9c-0.5,0-1-0.1-1.4-0.4s-0.7-0.7-1-1.1s-0.3-1.1-0.3-1.7
		c0-0.6,0.1-1.2,0.3-1.7s0.5-0.9,0.9-1.2s0.9-0.4,1.4-0.4c0.4,0,0.7,0.1,1,0.2s0.5,0.4,0.7,0.6V53h1v8.6h-0.9V61.7z M626,58.6
		c0,0.8,0.2,1.4,0.5,1.8s0.7,0.6,1.2,0.6s0.9-0.2,1.2-0.6s0.5-1,0.5-1.7c0-0.9-0.2-1.5-0.5-1.9s-0.7-0.6-1.2-0.6s-0.9,0.2-1.2,0.6
		S626,57.8,626,58.6z"/>
	<path class="st0" d="M635.3,61.7v-8.6h1.1v8.6C636.4,61.7,635.3,61.7,635.3,61.7z"/>
	<path class="st0" d="M642.2,59.7l1.1,0.1c-0.2,0.6-0.5,1.1-1,1.5s-1.1,0.5-1.8,0.5c-0.9,0-1.6-0.3-2.2-0.8s-0.8-1.3-0.8-2.4
		c0-1,0.3-1.9,0.8-2.4s1.2-0.9,2.1-0.9c0.8,0,1.5,0.3,2,0.8s0.8,1.4,0.8,2.4c0,0.1,0,0.2,0,0.3h-4.6c0,0.7,0.2,1.2,0.6,1.6
		s0.8,0.5,1.3,0.5c0.4,0,0.7-0.1,1-0.3S642.1,60.1,642.2,59.7z M638.8,58h3.5c0-0.5-0.2-0.9-0.4-1.2c-0.3-0.4-0.8-0.6-1.3-0.6
		s-0.9,0.2-1.2,0.5S638.8,57.4,638.8,58z"/>
	<path class="st0" d="M646.9,60.8l0.2,0.9c-0.3,0.1-0.6,0.1-0.8,0.1c-0.4,0-0.7-0.1-0.9-0.2s-0.4-0.3-0.4-0.5s-0.1-0.6-0.1-1.2v-3.6
		h-0.8v-0.8h0.8V54l1-0.6v2.2h1.1v0.8h-1.1V60c0,0.3,0,0.5,0.1,0.6s0.1,0.2,0.2,0.2s0.2,0.1,0.4,0.1
		C646.6,60.8,646.7,60.8,646.9,60.8z"/>
	<path class="st0" d="M650.3,60.8l0.2,0.9c-0.3,0.1-0.6,0.1-0.8,0.1c-0.4,0-0.7-0.1-0.9-0.2s-0.4-0.3-0.4-0.5s-0.1-0.6-0.1-1.2v-3.6
		h-0.8v-0.8h0.8V54l1-0.6v2.2h1.1v0.8h-1.1V60c0,0.3,0,0.5,0.1,0.6s0.1,0.2,0.2,0.2s0.2,0.1,0.4,0.1
		C649.9,60.8,650.1,60.8,650.3,60.8z"/>
	<path class="st0" d="M655.6,59.7l1.1,0.1c-0.2,0.6-0.5,1.1-1,1.5s-1.1,0.5-1.8,0.5c-0.9,0-1.6-0.3-2.2-0.8s-0.8-1.3-0.8-2.4
		c0-1,0.3-1.9,0.8-2.4s1.2-0.9,2.1-0.9c0.8,0,1.5,0.3,2,0.8s0.8,1.4,0.8,2.4c0,0.1,0,0.2,0,0.3H652c0,0.7,0.2,1.2,0.6,1.6
		s0.8,0.5,1.3,0.5c0.4,0,0.7-0.1,1-0.3S655.4,60.1,655.6,59.7z M652.1,58h3.5c0-0.5-0.2-0.9-0.4-1.2c-0.3-0.4-0.8-0.6-1.3-0.6
		s-0.9,0.2-1.2,0.5S652.1,57.4,652.1,58z"/>
	<path class="st0" d="M658,61.7v-6.2h0.9v0.9c0.2-0.4,0.5-0.7,0.7-0.9s0.4-0.2,0.7-0.2c0.4,0,0.7,0.1,1.1,0.3l-0.4,1
		c-0.3-0.2-0.5-0.2-0.8-0.2c-0.2,0-0.4,0.1-0.6,0.2s-0.3,0.3-0.4,0.6c-0.1,0.4-0.2,0.8-0.2,1.2v3.3C659,61.7,658,61.7,658,61.7z"/>
	<path class="st0" d="M664.3,60.8l0.2,0.9c-0.3,0.1-0.6,0.1-0.8,0.1c-0.4,0-0.7-0.1-0.9-0.2s-0.4-0.3-0.4-0.5s-0.1-0.6-0.1-1.2v-3.6
		h-0.8v-0.8h0.8V54l1-0.6v2.2h1.1v0.8h-1.1V60c0,0.3,0,0.5,0.1,0.6s0.1,0.2,0.2,0.2s0.2,0.1,0.4,0.1
		C663.9,60.8,664.1,60.8,664.3,60.8z"/>
	<path class="st0" d="M665.3,64.1l-0.1-1c0.2,0.1,0.4,0.1,0.6,0.1c0.2,0,0.4,0,0.6-0.1s0.3-0.2,0.3-0.3c0.1-0.1,0.2-0.4,0.3-0.8
		c0-0.1,0.1-0.1,0.1-0.3l-2.4-6.2h1.1l1.3,3.6c0.2,0.5,0.3,0.9,0.5,1.4c0.1-0.5,0.3-1,0.4-1.4l1.3-3.6h1.1l-2.4,6.3
		c-0.3,0.7-0.5,1.2-0.6,1.4c-0.2,0.3-0.4,0.6-0.6,0.8c-0.2,0.2-0.5,0.2-0.9,0.2C665.7,64.2,665.5,64.2,665.3,64.1z"/>
	<path class="st0" d="M675.6,59.7l1.1,0.1c-0.2,0.6-0.5,1.1-1,1.5s-1.1,0.5-1.8,0.5c-0.9,0-1.6-0.3-2.2-0.8s-0.8-1.3-0.8-2.4
		c0-1,0.3-1.9,0.8-2.4s1.2-0.9,2.1-0.9c0.8,0,1.5,0.3,2,0.8s0.8,1.4,0.8,2.4c0,0.1,0,0.2,0,0.3H672c0,0.7,0.2,1.2,0.6,1.6
		s0.8,0.5,1.3,0.5c0.4,0,0.7-0.1,1-0.3S675.4,60.1,675.6,59.7z M672.1,58h3.5c0-0.5-0.2-0.9-0.4-1.2c-0.3-0.4-0.8-0.6-1.3-0.6
		s-0.9,0.2-1.2,0.5S672.1,57.4,672.1,58z"/>
	<path class="st0" d="M678.3,61.7v-1.2h1.2v1.2c0,0.4-0.1,0.8-0.2,1.1s-0.4,0.5-0.7,0.6l-0.3-0.5c0.2-0.1,0.4-0.2,0.5-0.4
		s0.2-0.5,0.2-0.8C679,61.7,678.3,61.7,678.3,61.7z"/>
	<path class="st0" d="M684.6,61.7v-6.2h0.9v0.9c0.2-0.3,0.5-0.5,0.8-0.7s0.7-0.3,1.1-0.3c0.5,0,0.8,0.1,1.1,0.3s0.5,0.5,0.6,0.8
		c0.5-0.7,1.1-1.1,1.9-1.1c0.6,0,1.1,0.2,1.4,0.5s0.5,0.9,0.5,1.6v4.3h-1v-3.9c0-0.4,0-0.7-0.1-0.9s-0.2-0.3-0.4-0.4
		s-0.4-0.2-0.6-0.2c-0.4,0-0.8,0.1-1.1,0.4s-0.4,0.8-0.4,1.4v3.6h-1.1v-4c0-0.5-0.1-0.8-0.3-1.1s-0.5-0.4-0.8-0.4s-0.6,0.1-0.8,0.2
		s-0.4,0.4-0.5,0.7s-0.2,0.7-0.2,1.3v3.2C685.6,61.7,684.6,61.7,684.6,61.7z"/>
	<path class="st0" d="M698.9,59.7l1.1,0.1c-0.2,0.6-0.5,1.1-1,1.5s-1.1,0.5-1.8,0.5c-0.9,0-1.6-0.3-2.2-0.8s-0.8-1.3-0.8-2.4
		c0-1,0.3-1.9,0.8-2.4s1.2-0.9,2.1-0.9c0.8,0,1.5,0.3,2,0.8s0.8,1.4,0.8,2.4c0,0.1,0,0.2,0,0.3h-4.6c0,0.7,0.2,1.2,0.6,1.6
		s0.8,0.5,1.3,0.5c0.4,0,0.7-0.1,1-0.3S698.7,60.1,698.9,59.7z M695.4,58h3.5c0-0.5-0.2-0.9-0.4-1.2c-0.3-0.4-0.8-0.6-1.3-0.6
		s-0.9,0.2-1.2,0.5S695.5,57.4,695.4,58z"/>
	<path class="st0" d="M705.4,61.7v-0.8c-0.4,0.6-1,0.9-1.7,0.9c-0.5,0-1-0.1-1.4-0.4s-0.7-0.7-1-1.1s-0.3-1.1-0.3-1.7
		c0-0.6,0.1-1.2,0.3-1.7s0.5-0.9,0.9-1.2s0.9-0.4,1.4-0.4c0.4,0,0.7,0.1,1,0.2s0.5,0.4,0.7,0.6V53h1v8.6h-0.9V61.7z M702,58.6
		c0,0.8,0.2,1.4,0.5,1.8s0.7,0.6,1.2,0.6s0.9-0.2,1.2-0.6s0.5-1,0.5-1.7c0-0.9-0.2-1.5-0.5-1.9s-0.7-0.6-1.2-0.6s-0.9,0.2-1.2,0.6
		S702,57.8,702,58.6z"/>
	<path class="st0" d="M712.3,59.7l1.1,0.1c-0.2,0.6-0.5,1.1-1,1.5s-1.1,0.5-1.8,0.5c-0.9,0-1.6-0.3-2.2-0.8s-0.8-1.3-0.8-2.4
		c0-1,0.3-1.9,0.8-2.4s1.2-0.9,2.1-0.9c0.8,0,1.5,0.3,2,0.8s0.8,1.4,0.8,2.4c0,0.1,0,0.2,0,0.3h-4.6c0,0.7,0.2,1.2,0.6,1.6
		s0.8,0.5,1.3,0.5c0.4,0,0.7-0.1,1-0.3S712.1,60.1,712.3,59.7z M708.8,58h3.5c0-0.5-0.2-0.9-0.4-1.2c-0.3-0.4-0.8-0.6-1.3-0.6
		s-0.9,0.2-1.2,0.5S708.8,57.4,708.8,58z"/>
	<path class="st0" d="M717.6,58.6c0-1.2,0.3-2,1-2.6c0.5-0.5,1.2-0.7,2-0.7c0.9,0,1.6,0.3,2.1,0.8s0.8,1.3,0.8,2.3
		c0,0.8-0.1,1.4-0.4,1.9s-0.6,0.8-1,1.1s-1,0.4-1.5,0.4c-0.9,0-1.6-0.3-2.1-0.8S717.6,59.6,717.6,58.6z M718.7,58.6
		c0,0.8,0.2,1.4,0.5,1.8s0.8,0.6,1.3,0.6s1-0.2,1.3-0.6s0.5-1,0.5-1.8s-0.2-1.4-0.5-1.7s-0.8-0.6-1.3-0.6s-1,0.2-1.3,0.6
		S718.7,57.8,718.7,58.6z"/>
	<path class="st0" d="M724.7,61.7v-6.2h0.9v0.9c0.2-0.3,0.5-0.5,0.8-0.7s0.7-0.3,1.1-0.3c0.5,0,0.8,0.1,1.1,0.3s0.5,0.5,0.6,0.8
		c0.5-0.7,1.1-1.1,1.9-1.1c0.6,0,1.1,0.2,1.4,0.5s0.5,0.9,0.5,1.6v4.3h-1v-3.9c0-0.4,0-0.7-0.1-0.9s-0.2-0.3-0.4-0.4
		s-0.4-0.2-0.6-0.2c-0.4,0-0.8,0.1-1.1,0.4s-0.4,0.8-0.4,1.4v3.6h-1.1v-4c0-0.5-0.1-0.8-0.3-1.1s-0.5-0.4-0.8-0.4s-0.6,0.1-0.8,0.2
		s-0.4,0.4-0.5,0.7s-0.2,0.7-0.2,1.3v3.2C725.7,61.7,724.7,61.7,724.7,61.7z"/>
	<path class="st0" d="M735.8,61.7l-1.9-6.2h1.1l1,3.6l0.4,1.3c0-0.1,0.1-0.5,0.3-1.3l1-3.6h1.1l0.9,3.6l0.3,1.2l0.4-1.2l1.1-3.6h1
		l-1.9,6.2h-1.1l-1-3.7l-0.2-1.1l-1.3,4.8H735.8z"/>
	<path class="st0" d="M743.3,54.3v-1.2h1.1v1.2H743.3z M743.3,61.7v-6.2h1.1v6.2H743.3z"/>
	<path class="st0" d="M746,61.7v-8.6h1.1v8.6C747.1,61.7,746,61.7,746,61.7z"/>
	<path class="st0" d="M748.6,61.7v-8.6h1.1v8.6C749.7,61.7,748.6,61.7,748.6,61.7z"/>
	<path class="st0" d="M755.6,59.7l1.1,0.1c-0.2,0.6-0.5,1.1-1,1.5s-1.1,0.5-1.8,0.5c-0.9,0-1.6-0.3-2.2-0.8s-0.8-1.3-0.8-2.4
		c0-1,0.3-1.9,0.8-2.4s1.2-0.9,2.1-0.9c0.8,0,1.5,0.3,2,0.8s0.8,1.4,0.8,2.4c0,0.1,0,0.2,0,0.3H752c0,0.7,0.2,1.2,0.6,1.6
		s0.8,0.5,1.3,0.5c0.4,0,0.7-0.1,1-0.3S755.4,60.1,755.6,59.7z M752.1,58h3.5c0-0.5-0.2-0.9-0.4-1.2c-0.3-0.4-0.8-0.6-1.3-0.6
		s-0.9,0.2-1.2,0.5S752.2,57.4,752.1,58z"/>
	<path class="st0" d="M464.9,76.7l-2.4-6.2h1.1l1.3,3.7c0.1,0.4,0.3,0.8,0.4,1.3c0.1-0.3,0.2-0.7,0.4-1.2l1.4-3.8h1.1l-2.4,6.2
		H464.9z"/>
	<path class="st0" d="M473.3,75.9c-0.4,0.3-0.8,0.6-1.1,0.7s-0.7,0.2-1.2,0.2c-0.7,0-1.2-0.2-1.6-0.5s-0.6-0.8-0.6-1.3
		c0-0.3,0.1-0.6,0.2-0.8s0.3-0.5,0.5-0.6s0.5-0.3,0.8-0.3c0.2-0.1,0.5-0.1,0.9-0.2c0.9-0.1,1.5-0.2,1.9-0.4c0-0.1,0-0.2,0-0.3
		c0-0.4-0.1-0.7-0.3-0.9c-0.3-0.2-0.7-0.4-1.2-0.4s-0.9,0.1-1.1,0.3s-0.4,0.5-0.5,0.9l-1-0.1c0.1-0.4,0.2-0.8,0.5-1.1
		s0.5-0.5,0.9-0.6s0.9-0.2,1.4-0.2s1,0.1,1.3,0.2s0.6,0.3,0.7,0.5s0.3,0.4,0.3,0.7c0,0.2,0.1,0.5,0.1,1v1.4c0,1,0,1.6,0.1,1.9
		s0.1,0.5,0.3,0.7h-1.1C473.4,76.5,473.3,76.2,473.3,75.9z M473.2,73.6c-0.4,0.2-1,0.3-1.7,0.4c-0.4,0.1-0.7,0.1-0.9,0.2
		s-0.3,0.2-0.4,0.3S470,74.8,470,75c0,0.3,0.1,0.5,0.3,0.7s0.5,0.3,0.9,0.3s0.8-0.1,1.1-0.3s0.5-0.4,0.7-0.7
		c0.1-0.2,0.2-0.6,0.2-1.1V73.6z"/>
	<path class="st0" d="M475.9,76.7v-6.2h0.9v0.9c0.5-0.7,1.1-1,2-1c0.4,0,0.7,0.1,1,0.2s0.5,0.3,0.7,0.5s0.3,0.5,0.3,0.8
		c0,0.2,0.1,0.5,0.1,1v3.8h-1.1v-3.8c0-0.4,0-0.8-0.1-1s-0.2-0.4-0.4-0.5s-0.5-0.2-0.7-0.2c-0.4,0-0.8,0.1-1.2,0.4s-0.5,0.8-0.5,1.6
		v3.4L475.9,76.7L475.9,76.7z"/>
	<path class="st0" d="M485.3,76.7v-0.9l4-4.5c-0.4,0-0.8,0-1.2,0h-2.5v-0.9h5.1v0.7l-3.4,3.9l-0.7,0.7c0.5,0,0.9-0.1,1.3-0.1h2.9
		v0.9h-5.5V76.7z"/>
	<path class="st0" d="M491.9,69.3v-1.2h1.1v1.2H491.9z M491.9,76.7v-6.2h1.1v6.2H491.9z"/>
	<path class="st0" d="M493.2,79.1l0.2-0.9c0.2,0.1,0.4,0.1,0.5,0.1c0.2,0,0.4-0.1,0.5-0.2s0.2-0.5,0.2-1.1v-6.5h1.1V77
		c0,0.8-0.1,1.3-0.3,1.6c-0.3,0.4-0.7,0.6-1.3,0.6C493.7,79.2,493.5,79.2,493.2,79.1z M494.5,69.3v-1.2h1.1v1.2H494.5z"/>
	<path class="st0" d="M497.2,76.7v-6.2h0.9v0.9c0.5-0.7,1.1-1,2-1c0.4,0,0.7,0.1,1,0.2s0.5,0.3,0.7,0.5s0.3,0.5,0.3,0.8
		c0,0.2,0.1,0.5,0.1,1v3.8h-1.1v-3.8c0-0.4,0-0.8-0.1-1s-0.2-0.4-0.4-0.5s-0.5-0.2-0.7-0.2c-0.4,0-0.8,0.1-1.2,0.4s-0.5,0.8-0.5,1.6
		v3.4L497.2,76.7L497.2,76.7z"/>
	<path class="st0" d="M507,77.2l1,0.2c0,0.3,0.2,0.5,0.4,0.7c0.3,0.2,0.6,0.3,1.1,0.3s0.9-0.1,1.1-0.3s0.4-0.5,0.5-0.8
		c0.1-0.2,0.1-0.7,0.1-1.4c-0.5,0.5-1,0.8-1.7,0.8c-0.9,0-1.5-0.3-2-0.9s-0.7-1.4-0.7-2.2c0-0.6,0.1-1.1,0.3-1.6s0.5-0.9,0.9-1.2
		s0.9-0.4,1.4-0.4c0.7,0,1.3,0.3,1.8,0.9v-0.8h1v5.4c0,1-0.1,1.7-0.3,2.1s-0.5,0.7-0.9,1s-1,0.4-1.6,0.4c-0.7,0-1.3-0.2-1.8-0.5
		S507,77.9,507,77.2z M507.9,73.5c0,0.8,0.2,1.4,0.5,1.8s0.7,0.6,1.2,0.6s0.9-0.2,1.2-0.6s0.5-1,0.5-1.8s-0.2-1.3-0.5-1.7
		s-0.7-0.6-1.2-0.6s-0.9,0.2-1.2,0.6S507.9,72.7,507.9,73.5z"/>
	<path class="st0" d="M513.5,73.6c0-1.2,0.3-2,1-2.6c0.5-0.5,1.2-0.7,2-0.7c0.9,0,1.6,0.3,2.1,0.8s0.8,1.3,0.8,2.3
		c0,0.8-0.1,1.4-0.4,1.9s-0.6,0.8-1,1.1s-1,0.4-1.5,0.4c-0.9,0-1.6-0.3-2.1-0.8S513.5,74.6,513.5,73.6z M514.6,73.6
		c0,0.8,0.2,1.4,0.5,1.8s0.8,0.6,1.3,0.6s1-0.2,1.3-0.6s0.5-1,0.5-1.8s-0.2-1.4-0.5-1.7s-0.8-0.6-1.3-0.6s-1,0.2-1.3,0.6
		S514.6,72.8,514.6,73.6z"/>
	<path class="st0" d="M524.8,74.7l1.1,0.1c-0.2,0.6-0.5,1.1-1,1.5s-1.1,0.5-1.8,0.5c-0.9,0-1.6-0.3-2.2-0.8s-0.8-1.3-0.8-2.4
		c0-1,0.3-1.9,0.8-2.4s1.2-0.9,2.1-0.9c0.8,0,1.5,0.3,2,0.8s0.8,1.4,0.8,2.4c0,0.1,0,0.2,0,0.3h-4.6c0,0.7,0.2,1.2,0.6,1.6
		s0.8,0.5,1.3,0.5c0.4,0,0.7-0.1,1-0.3S524.7,75.1,524.8,74.7z M521.4,73h3.5c0-0.5-0.2-0.9-0.4-1.2c-0.3-0.4-0.8-0.6-1.3-0.6
		s-0.9,0.2-1.2,0.5S521.4,72.4,521.4,73z"/>
	<path class="st0" d="M531.3,76.7v-0.8c-0.4,0.6-1,0.9-1.7,0.9c-0.5,0-1-0.1-1.4-0.4s-0.7-0.7-1-1.1s-0.3-1.1-0.3-1.7
		s0.1-1.2,0.3-1.7s0.5-0.9,0.9-1.2s0.9-0.4,1.4-0.4c0.4,0,0.7,0.1,1,0.2s0.5,0.4,0.7,0.6V68h1v8.6L531.3,76.7L531.3,76.7z
		 M527.9,73.6c0,0.8,0.2,1.4,0.5,1.8s0.7,0.6,1.2,0.6s0.9-0.2,1.2-0.6s0.5-1,0.5-1.7c0-0.9-0.2-1.5-0.5-1.9s-0.7-0.6-1.2-0.6
		s-0.9,0.2-1.2,0.6S527.9,72.8,527.9,73.6z"/>
	<path class="st0" d="M538.2,74.7l1.1,0.1c-0.2,0.6-0.5,1.1-1,1.5s-1.1,0.5-1.8,0.5c-0.9,0-1.6-0.3-2.2-0.8s-0.8-1.3-0.8-2.4
		c0-1,0.3-1.9,0.8-2.4s1.2-0.9,2.1-0.9c0.8,0,1.5,0.3,2,0.8s0.8,1.4,0.8,2.4c0,0.1,0,0.2,0,0.3h-4.6c0,0.7,0.2,1.2,0.6,1.6
		s0.8,0.5,1.3,0.5c0.4,0,0.7-0.1,1-0.3S538,75.1,538.2,74.7z M534.7,73h3.5c0-0.5-0.2-0.9-0.4-1.2c-0.3-0.4-0.8-0.6-1.3-0.6
		s-0.9,0.2-1.2,0.5S534.7,72.4,534.7,73z"/>
	<path class="st0" d="M543.9,76.7v-8.6h1.1v8.6H543.9z"/>
	<path class="st0" d="M550.8,74.7l1.1,0.1c-0.2,0.6-0.5,1.1-1,1.5s-1.1,0.5-1.8,0.5c-0.9,0-1.6-0.3-2.2-0.8s-0.8-1.3-0.8-2.4
		c0-1,0.3-1.9,0.8-2.4s1.2-0.9,2.1-0.9c0.8,0,1.5,0.3,2,0.8s0.8,1.4,0.8,2.4c0,0.1,0,0.2,0,0.3h-4.6c0,0.7,0.2,1.2,0.6,1.6
		s0.8,0.5,1.3,0.5c0.4,0,0.7-0.1,1-0.3S550.7,75.1,550.8,74.7z M547.4,73h3.5c0-0.5-0.2-0.9-0.4-1.2c-0.3-0.4-0.8-0.6-1.3-0.6
		s-0.9,0.2-1.2,0.5S547.4,72.4,547.4,73z"/>
	<path class="st0" d="M557.5,74.7l1.1,0.1c-0.2,0.6-0.5,1.1-1,1.5s-1.1,0.5-1.8,0.5c-0.9,0-1.6-0.3-2.2-0.8s-0.8-1.3-0.8-2.4
		c0-1,0.3-1.9,0.8-2.4s1.2-0.9,2.1-0.9c0.8,0,1.5,0.3,2,0.8s0.8,1.4,0.8,2.4c0,0.1,0,0.2,0,0.3H554c0,0.7,0.2,1.2,0.6,1.6
		s0.8,0.5,1.3,0.5c0.4,0,0.7-0.1,1-0.3S557.4,75.1,557.5,74.7z M554.1,73h3.5c0-0.5-0.2-0.9-0.4-1.2c-0.3-0.4-0.8-0.6-1.3-0.6
		s-0.9,0.2-1.2,0.5S554.1,72.4,554.1,73z"/>
	<path class="st0" d="M559.5,74.8l1-0.2c0.1,0.4,0.2,0.7,0.5,1s0.6,0.3,1.1,0.3s0.8-0.1,1.1-0.3s0.4-0.4,0.4-0.7
		c0-0.2-0.1-0.4-0.3-0.6c-0.1-0.1-0.5-0.2-1.1-0.4c-0.8-0.2-1.3-0.4-1.6-0.5s-0.5-0.3-0.7-0.6s-0.2-0.5-0.2-0.8s0.1-0.5,0.2-0.8
		s0.3-0.4,0.5-0.6c0.2-0.1,0.4-0.2,0.7-0.3s0.6-0.1,0.9-0.1c0.5,0,0.9,0.1,1.3,0.2s0.6,0.3,0.8,0.6s0.3,0.6,0.4,1l-1,0.1
		c0-0.3-0.2-0.6-0.4-0.8s-0.5-0.3-1-0.3s-0.8,0.1-1,0.2s-0.3,0.3-0.3,0.6c0,0.1,0,0.3,0.1,0.4s0.2,0.2,0.4,0.3
		c0.1,0,0.4,0.1,0.9,0.3c0.7,0.2,1.3,0.4,1.6,0.5s0.5,0.3,0.7,0.6s0.3,0.5,0.3,0.9s-0.1,0.7-0.3,1s-0.5,0.6-0.9,0.7
		s-0.8,0.3-1.3,0.3c-0.8,0-1.4-0.2-1.8-0.5S559.6,75.5,559.5,74.8z"/>
	<path class="st0" d="M566.9,76.7h-1v-8.6h1.1v3.1c0.4-0.6,1-0.8,1.7-0.8c0.4,0,0.7,0.1,1.1,0.2s0.6,0.4,0.8,0.7s0.4,0.6,0.5,1
		s0.2,0.8,0.2,1.3c0,1.1-0.3,1.9-0.8,2.5s-1.2,0.9-1.9,0.9s-1.3-0.3-1.7-0.9L566.9,76.7L566.9,76.7z M566.9,73.5
		c0,0.7,0.1,1.3,0.3,1.6c0.3,0.5,0.8,0.8,1.3,0.8s0.9-0.2,1.2-0.6s0.5-1,0.5-1.8s-0.2-1.4-0.5-1.8s-0.7-0.6-1.2-0.6
		s-0.9,0.2-1.2,0.6S566.9,72.8,566.9,73.5z"/>
	<path class="st0" d="M576.7,75.9c-0.4,0.3-0.8,0.6-1.1,0.7s-0.7,0.2-1.2,0.2c-0.7,0-1.2-0.2-1.6-0.5s-0.6-0.8-0.6-1.3
		c0-0.3,0.1-0.6,0.2-0.8s0.3-0.5,0.5-0.6s0.5-0.3,0.8-0.3c0.2-0.1,0.5-0.1,0.9-0.2c0.9-0.1,1.5-0.2,1.9-0.4c0-0.1,0-0.2,0-0.3
		c0-0.4-0.1-0.7-0.3-0.9c-0.3-0.2-0.7-0.4-1.2-0.4s-0.9,0.1-1.1,0.3s-0.4,0.5-0.5,0.9l-1-0.1c0.1-0.4,0.2-0.8,0.5-1.1
		s0.5-0.5,0.9-0.6s0.9-0.2,1.4-0.2s1,0.1,1.3,0.2s0.6,0.3,0.7,0.5s0.3,0.4,0.3,0.7c0,0.2,0.1,0.5,0.1,1v1.4c0,1,0,1.6,0.1,1.9
		s0.1,0.5,0.3,0.7h-1.1C576.8,76.5,576.7,76.2,576.7,75.9z M576.6,73.6c-0.4,0.2-1,0.3-1.7,0.4c-0.4,0.1-0.7,0.1-0.9,0.2
		s-0.3,0.2-0.4,0.3s-0.1,0.3-0.1,0.5c0,0.3,0.1,0.5,0.3,0.7s0.5,0.3,0.9,0.3s0.8-0.1,1.1-0.3s0.5-0.4,0.7-0.7
		c0.1-0.2,0.2-0.6,0.2-1.1L576.6,73.6L576.6,73.6z"/>
	<path class="st0" d="M583.3,75.9c-0.4,0.3-0.8,0.6-1.1,0.7s-0.7,0.2-1.2,0.2c-0.7,0-1.2-0.2-1.6-0.5s-0.6-0.8-0.6-1.3
		c0-0.3,0.1-0.6,0.2-0.8s0.3-0.5,0.5-0.6s0.5-0.3,0.8-0.3c0.2-0.1,0.5-0.1,0.9-0.2c0.9-0.1,1.5-0.2,1.9-0.4c0-0.1,0-0.2,0-0.3
		c0-0.4-0.1-0.7-0.3-0.9c-0.3-0.2-0.7-0.4-1.2-0.4s-0.9,0.1-1.1,0.3s-0.4,0.5-0.5,0.9l-1-0.1c0.1-0.4,0.2-0.8,0.5-1.1
		s0.5-0.5,0.9-0.6s0.9-0.2,1.4-0.2s1,0.1,1.3,0.2s0.6,0.3,0.7,0.5s0.3,0.4,0.3,0.7c0,0.2,0.1,0.5,0.1,1v1.4c0,1,0,1.6,0.1,1.9
		s0.1,0.5,0.3,0.7h-1.1C583.4,76.5,583.4,76.2,583.3,75.9z M583.3,73.6c-0.4,0.2-1,0.3-1.7,0.4c-0.4,0.1-0.7,0.1-0.9,0.2
		s-0.3,0.2-0.4,0.3S580,74.8,580,75c0,0.3,0.1,0.5,0.3,0.7s0.5,0.3,0.9,0.3s0.8-0.1,1.1-0.3s0.5-0.4,0.7-0.7
		c0.1-0.2,0.2-0.6,0.2-1.1L583.3,73.6L583.3,73.6z"/>
	<path class="st0" d="M585.9,76.7v-6.2h0.9v0.9c0.2-0.4,0.5-0.7,0.7-0.9s0.4-0.2,0.7-0.2c0.4,0,0.7,0.1,1.1,0.3l-0.4,1
		c-0.3-0.2-0.5-0.2-0.8-0.2c-0.2,0-0.4,0.1-0.6,0.2s-0.3,0.3-0.4,0.6c-0.1,0.4-0.2,0.8-0.2,1.2v3.3
		C586.9,76.7,585.9,76.7,585.9,76.7z"/>
	<path class="st0" d="M590,76.7v-8.6h1.1v3.1c0.5-0.6,1.1-0.9,1.9-0.9c0.5,0,0.9,0.1,1.2,0.3s0.6,0.4,0.7,0.8s0.2,0.8,0.2,1.4v3.9
		H594v-3.9c0-0.5-0.1-0.9-0.3-1.2s-0.6-0.4-1-0.4c-0.3,0-0.6,0.1-0.9,0.2s-0.5,0.4-0.6,0.7s-0.2,0.7-0.2,1.1v3.4L590,76.7L590,76.7z
		"/>
	<path class="st0" d="M600.9,74.7l1.1,0.1c-0.2,0.6-0.5,1.1-1,1.5s-1.1,0.5-1.8,0.5c-0.9,0-1.6-0.3-2.2-0.8s-0.8-1.3-0.8-2.4
		c0-1,0.3-1.9,0.8-2.4s1.2-0.9,2.1-0.9c0.8,0,1.5,0.3,2,0.8s0.8,1.4,0.8,2.4c0,0.1,0,0.2,0,0.3h-4.6c0,0.7,0.2,1.2,0.6,1.6
		s0.8,0.5,1.3,0.5c0.4,0,0.7-0.1,1-0.3S600.7,75.1,600.9,74.7z M597.4,73h3.5c0-0.5-0.2-0.9-0.4-1.2c-0.3-0.4-0.8-0.6-1.3-0.6
		s-0.9,0.2-1.2,0.5S597.5,72.4,597.4,73z"/>
	<path class="st0" d="M603.3,69.3v-1.2h1.1v1.2H603.3z M603.3,76.7v-6.2h1.1v6.2H603.3z"/>
	<path class="st0" d="M610,76.7v-0.8c-0.4,0.6-1,0.9-1.7,0.9c-0.5,0-1-0.1-1.4-0.4s-0.7-0.7-1-1.1s-0.3-1.1-0.3-1.7s0.1-1.2,0.3-1.7
		s0.5-0.9,0.9-1.2s0.9-0.4,1.4-0.4c0.4,0,0.7,0.1,1,0.2s0.5,0.4,0.7,0.6V68h1v8.6L610,76.7L610,76.7z M606.7,73.6
		c0,0.8,0.2,1.4,0.5,1.8s0.7,0.6,1.2,0.6s0.9-0.2,1.2-0.6s0.5-1,0.5-1.7c0-0.9-0.2-1.5-0.5-1.9s-0.7-0.6-1.2-0.6s-0.9,0.2-1.2,0.6
		S606.7,72.8,606.7,73.6z"/>
	<path class="st0" d="M612.9,76.7v-1.2h1.2v1.2H612.9z"/>
	<path class="st0" d="M742.9,91.7v-1.2h1.2v1.2H742.9z"/>
	<path class="st0" d="M619.1,72.5c0-1.4,0.4-2.5,1.1-3.3s1.8-1.2,3-1.2c0.8,0,1.5,0.2,2.1,0.6s1.1,0.9,1.5,1.6s0.5,1.4,0.5,2.3
		s-0.2,1.7-0.5,2.3s-0.8,1.2-1.5,1.6s-1.3,0.5-2.1,0.5s-1.5-0.2-2.2-0.6s-1.1-0.9-1.4-1.6S619.1,73.3,619.1,72.5z M620.3,72.5
		c0,1,0.3,1.9,0.8,2.4s1.3,0.9,2.1,0.9c0.9,0,1.6-0.3,2.1-0.9s0.8-1.5,0.8-2.6c0-0.7-0.1-1.3-0.4-1.8s-0.6-0.9-1-1.2s-1-0.4-1.5-0.4
		c-0.8,0-1.5,0.3-2.1,0.8S620.3,71.2,620.3,72.5z"/>
	<path class="st0" d="M628.6,76.7v-6.2h0.9v0.9c0.2-0.3,0.5-0.5,0.8-0.7s0.7-0.3,1.1-0.3c0.5,0,0.8,0.1,1.1,0.3s0.5,0.5,0.6,0.8
		c0.5-0.7,1.1-1.1,1.9-1.1c0.6,0,1.1,0.2,1.4,0.5s0.5,0.9,0.5,1.6v4.3h-1v-3.9c0-0.4,0-0.7-0.1-0.9s-0.2-0.3-0.4-0.4
		s-0.4-0.2-0.6-0.2c-0.4,0-0.8,0.1-1.1,0.4s-0.4,0.8-0.4,1.4v3.6h-1.1v-4c0-0.5-0.1-0.8-0.3-1.1s-0.5-0.4-0.8-0.4s-0.6,0.1-0.8,0.2
		s-0.4,0.4-0.5,0.7s-0.2,0.7-0.2,1.3v3.2C629.6,76.7,628.6,76.7,628.6,76.7z"/>
	<path class="st0" d="M642.7,76.7v-0.8c-0.4,0.6-1,0.9-1.7,0.9c-0.5,0-1-0.1-1.4-0.4s-0.7-0.7-1-1.1s-0.3-1.1-0.3-1.7
		s0.1-1.2,0.3-1.7s0.5-0.9,0.9-1.2s0.9-0.4,1.4-0.4c0.4,0,0.7,0.1,1,0.2s0.5,0.4,0.7,0.6V68h1v8.6L642.7,76.7L642.7,76.7z
		 M639.3,73.6c0,0.8,0.2,1.4,0.5,1.8s0.7,0.6,1.2,0.6s0.9-0.2,1.2-0.6s0.5-1,0.5-1.7c0-0.9-0.2-1.5-0.5-1.9s-0.7-0.6-1.2-0.6
		s-0.9,0.2-1.2,0.6S639.3,72.8,639.3,73.6z"/>
	<path class="st0" d="M649.4,75.9c-0.4,0.3-0.8,0.6-1.1,0.7s-0.7,0.2-1.2,0.2c-0.7,0-1.2-0.2-1.6-0.5s-0.6-0.8-0.6-1.3
		c0-0.3,0.1-0.6,0.2-0.8s0.3-0.5,0.5-0.6s0.5-0.3,0.8-0.3c0.2-0.1,0.5-0.1,0.9-0.2c0.9-0.1,1.5-0.2,1.9-0.4c0-0.1,0-0.2,0-0.3
		c0-0.4-0.1-0.7-0.3-0.9c-0.3-0.2-0.7-0.4-1.2-0.4s-0.9,0.1-1.1,0.3s-0.4,0.5-0.5,0.9l-1-0.1c0.1-0.4,0.2-0.8,0.5-1.1
		s0.5-0.5,0.9-0.6s0.9-0.2,1.4-0.2s1,0.1,1.3,0.2s0.6,0.3,0.7,0.5s0.3,0.4,0.3,0.7c0,0.2,0.1,0.5,0.1,1v1.4c0,1,0,1.6,0.1,1.9
		s0.1,0.5,0.3,0.7h-1.1C649.5,76.5,649.4,76.2,649.4,75.9z M649.3,73.6c-0.4,0.2-1,0.3-1.7,0.4c-0.4,0.1-0.7,0.1-0.9,0.2
		s-0.3,0.2-0.4,0.3s-0.1,0.3-0.1,0.5c0,0.3,0.1,0.5,0.3,0.7s0.5,0.3,0.9,0.3s0.8-0.1,1.1-0.3s0.5-0.4,0.7-0.7
		c0.1-0.2,0.2-0.6,0.2-1.1L649.3,73.6L649.3,73.6z"/>
	<path class="st0" d="M654.3,75.8l0.2,0.9c-0.3,0.1-0.6,0.1-0.8,0.1c-0.4,0-0.7-0.1-0.9-0.2s-0.4-0.3-0.4-0.5s-0.1-0.6-0.1-1.2v-3.6
		h-0.8v-0.8h0.8V69l1-0.6v2.2h1.1v0.8h-1.1V75c0,0.3,0,0.5,0.1,0.6s0.1,0.2,0.2,0.2s0.2,0.1,0.4,0.1
		C653.9,75.8,654.1,75.8,654.3,75.8z"/>
	<path class="st0" d="M658.7,76.7v-8.6h1.1v3.1c0.5-0.6,1.1-0.9,1.9-0.9c0.5,0,0.9,0.1,1.2,0.3s0.6,0.4,0.7,0.8s0.2,0.8,0.2,1.4v3.9
		h-1.1v-3.9c0-0.5-0.1-0.9-0.3-1.2s-0.6-0.4-1-0.4c-0.3,0-0.6,0.1-0.9,0.2s-0.5,0.4-0.6,0.7s-0.2,0.7-0.2,1.1v3.4L658.7,76.7
		L658.7,76.7z"/>
	<path class="st0" d="M669.6,74.7l1.1,0.1c-0.2,0.6-0.5,1.1-1,1.5s-1.1,0.5-1.8,0.5c-0.9,0-1.6-0.3-2.2-0.8s-0.8-1.3-0.8-2.4
		c0-1,0.3-1.9,0.8-2.4s1.2-0.9,2.1-0.9c0.8,0,1.5,0.3,2,0.8s0.8,1.4,0.8,2.4c0,0.1,0,0.2,0,0.3H666c0,0.7,0.2,1.2,0.6,1.6
		s0.8,0.5,1.3,0.5c0.4,0,0.7-0.1,1-0.3S669.4,75.1,669.6,74.7z M666.1,73h3.5c0-0.5-0.2-0.9-0.4-1.2c-0.3-0.4-0.8-0.6-1.3-0.6
		s-0.9,0.2-1.2,0.5S666.2,72.4,666.1,73z"/>
	<path class="st0" d="M674.3,75.8l0.2,0.9c-0.3,0.1-0.6,0.1-0.8,0.1c-0.4,0-0.7-0.1-0.9-0.2s-0.4-0.3-0.4-0.5s-0.1-0.6-0.1-1.2v-3.6
		h-0.8v-0.8h0.8V69l1-0.6v2.2h1.1v0.8h-1.1V75c0,0.3,0,0.5,0.1,0.6s0.1,0.2,0.2,0.2s0.2,0.1,0.4,0.1C674,75.8,674.1,75.8,674.3,75.8
		z"/>
	<path class="st0" d="M678.5,77.2l1,0.2c0,0.3,0.2,0.5,0.4,0.7c0.3,0.2,0.6,0.3,1.1,0.3s0.9-0.1,1.1-0.3s0.4-0.5,0.5-0.8
		c0.1-0.2,0.1-0.7,0.1-1.4c-0.5,0.5-1,0.8-1.7,0.8c-0.9,0-1.5-0.3-2-0.9s-0.7-1.4-0.7-2.2c0-0.6,0.1-1.1,0.3-1.6s0.5-0.9,0.9-1.2
		s0.9-0.4,1.4-0.4c0.7,0,1.3,0.3,1.8,0.9v-0.8h1v5.4c0,1-0.1,1.7-0.3,2.1s-0.5,0.7-0.9,1s-1,0.4-1.6,0.4c-0.7,0-1.3-0.2-1.8-0.5
		S678.5,77.9,678.5,77.2z M679.3,73.5c0,0.8,0.2,1.4,0.5,1.8s0.7,0.6,1.2,0.6s0.9-0.2,1.2-0.6s0.5-1,0.5-1.8s-0.2-1.3-0.5-1.7
		s-0.7-0.6-1.2-0.6s-0.9,0.2-1.2,0.6S679.3,72.7,679.3,73.5z"/>
	<path class="st0" d="M689.6,74.7l1.1,0.1c-0.2,0.6-0.5,1.1-1,1.5s-1.1,0.5-1.8,0.5c-0.9,0-1.6-0.3-2.2-0.8s-0.8-1.3-0.8-2.4
		c0-1,0.3-1.9,0.8-2.4s1.2-0.9,2.1-0.9c0.8,0,1.5,0.3,2,0.8s0.8,1.4,0.8,2.4c0,0.1,0,0.2,0,0.3H686c0,0.7,0.2,1.2,0.6,1.6
		s0.8,0.5,1.3,0.5c0.4,0,0.7-0.1,1-0.3S689.4,75.1,689.6,74.7z M686.1,73h3.5c0-0.5-0.2-0.9-0.4-1.2c-0.3-0.4-0.8-0.6-1.3-0.6
		s-0.9,0.2-1.2,0.5S686.2,72.4,686.1,73z"/>
	<path class="st0" d="M692,76.7v-8.6h1.1v8.6H692z"/>
	<path class="st0" d="M694.7,69.3v-1.2h1.1v1.2H694.7z M694.7,76.7v-6.2h1.1v6.2H694.7z"/>
	<path class="st0" d="M696,79.1l0.2-0.9c0.2,0.1,0.4,0.1,0.5,0.1c0.2,0,0.4-0.1,0.5-0.2s0.2-0.5,0.2-1.1v-6.5h1.1V77
		c0,0.8-0.1,1.3-0.3,1.6c-0.3,0.4-0.7,0.6-1.3,0.6C696.5,79.2,696.3,79.2,696,79.1z M697.3,69.3v-1.2h1.1v1.2H697.3z"/>
	<path class="st0" d="M700,76.7v-8.6h1.1V73l2.5-2.5h1.4l-2.4,2.3l2.6,3.9h-1.3l-2.1-3.2l-0.7,0.7v2.5C701.1,76.7,700,76.7,700,76.7
		z"/>
	<path class="st0" d="M710.3,74.7l1.1,0.1c-0.2,0.6-0.5,1.1-1,1.5s-1.1,0.5-1.8,0.5c-0.9,0-1.6-0.3-2.2-0.8s-0.8-1.3-0.8-2.4
		c0-1,0.3-1.9,0.8-2.4s1.2-0.9,2.1-0.9c0.8,0,1.5,0.3,2,0.8s0.8,1.4,0.8,2.4c0,0.1,0,0.2,0,0.3h-4.6c0,0.7,0.2,1.2,0.6,1.6
		s0.8,0.5,1.3,0.5c0.4,0,0.7-0.1,1-0.3S710.1,75.1,710.3,74.7z M706.8,73h3.5c0-0.5-0.2-0.9-0.4-1.2c-0.3-0.4-0.8-0.6-1.3-0.6
		s-0.9,0.2-1.2,0.5S706.8,72.4,706.8,73z"/>
	<path class="st0" d="M712.7,76.7v-6.2h0.9v0.9c0.5-0.7,1.1-1,2-1c0.4,0,0.7,0.1,1,0.2s0.5,0.3,0.7,0.5s0.3,0.5,0.3,0.8
		c0,0.2,0.1,0.5,0.1,1v3.8h-1.1v-3.8c0-0.4,0-0.8-0.1-1s-0.2-0.4-0.4-0.5s-0.5-0.2-0.7-0.2c-0.4,0-0.8,0.1-1.2,0.4s-0.5,0.8-0.5,1.6
		v3.4L712.7,76.7L712.7,76.7z"/>
	<path class="st0" d="M719.4,69.3v-1.2h1.1v1.2H719.4z M719.4,76.7v-6.2h1.1v6.2H719.4z"/>
	<path class="st0" d="M721.6,74.8l1-0.2c0.1,0.4,0.2,0.7,0.5,1s0.6,0.3,1.1,0.3s0.8-0.1,1.1-0.3s0.4-0.4,0.4-0.7
		c0-0.2-0.1-0.4-0.3-0.6c-0.1-0.1-0.5-0.2-1.1-0.4c-0.8-0.2-1.3-0.4-1.6-0.5s-0.5-0.3-0.7-0.6s-0.2-0.5-0.2-0.8s0.1-0.5,0.2-0.8
		s0.3-0.4,0.5-0.6c0.2-0.1,0.4-0.2,0.7-0.3s0.6-0.1,0.9-0.1c0.5,0,0.9,0.1,1.3,0.2s0.6,0.3,0.8,0.6s0.3,0.6,0.4,1l-1,0.1
		c0-0.3-0.2-0.6-0.4-0.8s-0.5-0.3-1-0.3s-0.8,0.1-1,0.2s-0.3,0.3-0.3,0.6c0,0.1,0,0.3,0.1,0.4s0.2,0.2,0.4,0.3
		c0.1,0,0.4,0.1,0.9,0.3c0.7,0.2,1.3,0.4,1.6,0.5s0.5,0.3,0.7,0.6s0.3,0.5,0.3,0.9s-0.1,0.7-0.3,1s-0.5,0.6-0.9,0.7
		s-0.8,0.3-1.3,0.3c-0.8,0-1.4-0.2-1.8-0.5S721.7,75.5,721.6,74.8z"/>
	<path class="st0" d="M727.6,74.8l1-0.2c0.1,0.4,0.2,0.7,0.5,1s0.6,0.3,1.1,0.3s0.8-0.1,1.1-0.3s0.4-0.4,0.4-0.7
		c0-0.2-0.1-0.4-0.3-0.6c-0.1-0.1-0.5-0.2-1.1-0.4c-0.8-0.2-1.3-0.4-1.6-0.5s-0.5-0.3-0.7-0.6s-0.2-0.5-0.2-0.8s0.1-0.5,0.2-0.8
		s0.3-0.4,0.5-0.6c0.2-0.1,0.4-0.2,0.7-0.3s0.6-0.1,0.9-0.1c0.5,0,0.9,0.1,1.3,0.2s0.6,0.3,0.8,0.6s0.3,0.6,0.4,1l-1,0.1
		c0-0.3-0.2-0.6-0.4-0.8s-0.5-0.3-1-0.3s-0.8,0.1-1,0.2s-0.3,0.3-0.3,0.6c0,0.1,0,0.3,0.1,0.4s0.2,0.2,0.4,0.3
		c0.1,0,0.4,0.1,0.9,0.3c0.7,0.2,1.3,0.4,1.6,0.5s0.5,0.3,0.7,0.6s0.3,0.5,0.3,0.9s-0.1,0.7-0.3,1s-0.5,0.6-0.9,0.7
		s-0.8,0.3-1.3,0.3c-0.8,0-1.4-0.2-1.8-0.5S727.7,75.5,727.6,74.8z"/>
	<path class="st0" d="M738.3,74.7l1.1,0.1c-0.2,0.6-0.5,1.1-1,1.5s-1.1,0.5-1.8,0.5c-0.9,0-1.6-0.3-2.2-0.8s-0.8-1.3-0.8-2.4
		c0-1,0.3-1.9,0.8-2.4s1.2-0.9,2.1-0.9c0.8,0,1.5,0.3,2,0.8s0.8,1.4,0.8,2.4c0,0.1,0,0.2,0,0.3h-4.6c0,0.7,0.2,1.2,0.6,1.6
		s0.8,0.5,1.3,0.5c0.4,0,0.7-0.1,1-0.3S738.1,75.1,738.3,74.7z M734.8,73h3.5c0-0.5-0.2-0.9-0.4-1.2c-0.3-0.4-0.8-0.6-1.3-0.6
		s-0.9,0.2-1.2,0.5S734.9,72.4,734.8,73z"/>
	<path class="st0" d="M740.7,76.7v-6.2h0.9v0.9c0.5-0.7,1.1-1,2-1c0.4,0,0.7,0.1,1,0.2s0.5,0.3,0.7,0.5s0.3,0.5,0.3,0.8
		c0,0.2,0.1,0.5,0.1,1v3.8h-1.1v-3.8c0-0.4,0-0.8-0.1-1s-0.2-0.4-0.4-0.5s-0.5-0.2-0.7-0.2c-0.4,0-0.8,0.1-1.2,0.4s-0.5,0.8-0.5,1.6
		v3.4L740.7,76.7L740.7,76.7z"/>
	<path class="st0" d="M750.7,76.7v-8.6h1.1v3.1c0.5-0.6,1.1-0.9,1.9-0.9c0.5,0,0.9,0.1,1.2,0.3s0.6,0.4,0.7,0.8s0.2,0.8,0.2,1.4v3.9
		h-1.1v-3.9c0-0.5-0.1-0.9-0.3-1.2s-0.6-0.4-1-0.4c-0.3,0-0.6,0.1-0.9,0.2s-0.5,0.4-0.6,0.7s-0.2,0.7-0.2,1.1v3.4L750.7,76.7
		L750.7,76.7z"/>
	<path class="st0" d="M761.6,74.7l1.1,0.1c-0.2,0.6-0.5,1.1-1,1.5s-1.1,0.5-1.8,0.5c-0.9,0-1.6-0.3-2.2-0.8s-0.8-1.3-0.8-2.4
		c0-1,0.3-1.9,0.8-2.4s1.2-0.9,2.1-0.9c0.8,0,1.5,0.3,2,0.8s0.8,1.4,0.8,2.4c0,0.1,0,0.2,0,0.3H758c0,0.7,0.2,1.2,0.6,1.6
		s0.8,0.5,1.3,0.5c0.4,0,0.7-0.1,1-0.3S761.5,75.1,761.6,74.7z M758.2,73h3.5c0-0.5-0.2-0.9-0.4-1.2c-0.3-0.4-0.8-0.6-1.3-0.6
		s-0.9,0.2-1.2,0.5S758.2,72.4,758.2,73z"/>
	<path class="st0" d="M768.3,74.7l1.1,0.1c-0.2,0.6-0.5,1.1-1,1.5s-1.1,0.5-1.8,0.5c-0.9,0-1.6-0.3-2.2-0.8s-0.8-1.3-0.8-2.4
		c0-1,0.3-1.9,0.8-2.4s1.2-0.9,2.1-0.9c0.8,0,1.5,0.3,2,0.8s0.8,1.4,0.8,2.4c0,0.1,0,0.2,0,0.3h-4.6c0,0.7,0.2,1.2,0.6,1.6
		s0.8,0.5,1.3,0.5c0.4,0,0.7-0.1,1-0.3S768.2,75.1,768.3,74.7z M764.9,73h3.5c0-0.5-0.2-0.9-0.4-1.2c-0.3-0.4-0.8-0.6-1.3-0.6
		s-0.9,0.2-1.2,0.5S764.9,72.4,764.9,73z"/>
	<path class="st0" d="M771,76.7v-5.4h-0.9v-0.8h0.9v-0.7c0-0.4,0-0.7,0.1-0.9c0.1-0.3,0.3-0.5,0.5-0.7s0.6-0.3,1.1-0.3
		c0.3,0,0.6,0,1,0.1l-0.2,0.9c-0.2,0-0.4-0.1-0.6-0.1c-0.3,0-0.5,0.1-0.7,0.2s-0.2,0.4-0.2,0.8v0.6h1.2v0.8H772v5.4L771,76.7
		L771,76.7z"/>
	<path class="st0" d="M776.4,75.8l0.2,0.9c-0.3,0.1-0.6,0.1-0.8,0.1c-0.4,0-0.7-0.1-0.9-0.2s-0.4-0.3-0.4-0.5s-0.1-0.6-0.1-1.2v-3.6
		h-0.8v-0.8h0.8V69l1-0.6v2.2h1.1v0.8h-1.1V75c0,0.3,0,0.5,0.1,0.6s0.1,0.2,0.2,0.2s0.2,0.1,0.4,0.1C776,75.8,776.2,75.8,776.4,75.8
		z"/>
	<path class="st0" d="M463.2,91.7v-6.2h0.9v0.9c0.2-0.3,0.5-0.5,0.8-0.7s0.7-0.3,1.1-0.3c0.5,0,0.8,0.1,1.1,0.3s0.5,0.5,0.6,0.8
		c0.5-0.7,1.1-1.1,1.9-1.1c0.6,0,1.1,0.2,1.4,0.5s0.5,0.9,0.5,1.6v4.3h-1v-3.9c0-0.4,0-0.7-0.1-0.9s-0.2-0.3-0.4-0.4
		s-0.4-0.2-0.6-0.2c-0.4,0-0.8,0.1-1.1,0.4s-0.4,0.8-0.4,1.4v3.6h-1.1v-4c0-0.5-0.1-0.8-0.3-1.1s-0.5-0.4-0.8-0.4s-0.6,0.1-0.8,0.2
		s-0.4,0.4-0.5,0.7s-0.2,0.7-0.2,1.3v3.2C464.2,91.7,463.2,91.7,463.2,91.7z"/>
	<path class="st0" d="M477.5,89.7l1.1,0.1c-0.2,0.6-0.5,1.1-1,1.5s-1.1,0.5-1.8,0.5c-0.9,0-1.6-0.3-2.2-0.8s-0.8-1.3-0.8-2.4
		c0-1,0.3-1.9,0.8-2.4s1.2-0.9,2.1-0.9c0.8,0,1.5,0.3,2,0.8s0.8,1.4,0.8,2.4c0,0.1,0,0.2,0,0.3h-4.6c0,0.7,0.2,1.2,0.6,1.6
		s0.8,0.5,1.3,0.5c0.4,0,0.7-0.1,1-0.3S477.3,90.1,477.5,89.7z M474,88h3.5c0-0.5-0.2-0.9-0.4-1.2c-0.3-0.4-0.8-0.6-1.3-0.6
		s-0.9,0.2-1.2,0.5S474,87.4,474,88z"/>
	<path class="st0" d="M482.2,90.8l0.2,0.9c-0.3,0.1-0.6,0.1-0.8,0.1c-0.4,0-0.7-0.1-0.9-0.2s-0.4-0.3-0.4-0.5s-0.1-0.6-0.1-1.2v-3.6
		h-0.8v-0.8h0.8V84l1-0.6v2.2h1.1v0.8h-1.1V90c0,0.3,0,0.5,0.1,0.6s0.1,0.2,0.2,0.2s0.2,0.1,0.4,0.1C481.8,90.8,482,90.8,482.2,90.8
		z"/>
	<path class="st0" d="M486.5,91.7v-6.2h0.9v0.9c0.2-0.4,0.5-0.7,0.7-0.9s0.4-0.2,0.7-0.2c0.4,0,0.7,0.1,1.1,0.3l-0.4,1
		c-0.3-0.2-0.5-0.2-0.8-0.2c-0.2,0-0.4,0.1-0.6,0.2s-0.3,0.3-0.4,0.6c-0.1,0.4-0.2,0.8-0.2,1.2v3.3
		C487.5,91.7,486.5,91.7,486.5,91.7z"/>
	<path class="st0" d="M494.6,90.9c-0.4,0.3-0.8,0.6-1.1,0.7s-0.7,0.2-1.2,0.2c-0.7,0-1.2-0.2-1.6-0.5s-0.6-0.8-0.6-1.3
		c0-0.3,0.1-0.6,0.2-0.8s0.3-0.5,0.5-0.6s0.5-0.3,0.8-0.3c0.2-0.1,0.5-0.1,0.9-0.2c0.9-0.1,1.5-0.2,1.9-0.4c0-0.1,0-0.2,0-0.3
		c0-0.4-0.1-0.7-0.3-0.9c-0.3-0.2-0.7-0.4-1.2-0.4s-0.9,0.1-1.1,0.3s-0.4,0.5-0.5,0.9l-1-0.1c0.1-0.4,0.2-0.8,0.5-1.1
		s0.5-0.5,0.9-0.6s0.9-0.2,1.4-0.2s1,0.1,1.3,0.2s0.6,0.3,0.7,0.5s0.3,0.4,0.3,0.7c0,0.2,0.1,0.5,0.1,1v1.4c0,1,0,1.6,0.1,1.9
		s0.1,0.5,0.3,0.7h-1.1C494.7,91.5,494.6,91.2,494.6,90.9z M494.5,88.6c-0.4,0.2-1,0.3-1.7,0.4c-0.4,0.1-0.7,0.1-0.9,0.2
		s-0.3,0.2-0.4,0.3s-0.1,0.3-0.1,0.5c0,0.3,0.1,0.5,0.3,0.7s0.5,0.3,0.9,0.3s0.8-0.1,1.1-0.3s0.5-0.4,0.7-0.7
		c0.1-0.2,0.2-0.6,0.2-1.1v-0.3H494.5z"/>
	<path class="st0" d="M497.2,91.7v-8.6h1.1v8.6H497.2z"/>
	<path class="st0" d="M504.1,89.7l1.1,0.1c-0.2,0.6-0.5,1.1-1,1.5s-1.1,0.5-1.8,0.5c-0.9,0-1.6-0.3-2.2-0.8s-0.8-1.3-0.8-2.4
		c0-1,0.3-1.9,0.8-2.4s1.2-0.9,2.1-0.9c0.8,0,1.5,0.3,2,0.8s0.8,1.4,0.8,2.4c0,0.1,0,0.2,0,0.3h-4.6c0,0.7,0.2,1.2,0.6,1.6
		s0.8,0.5,1.3,0.5c0.4,0,0.7-0.1,1-0.3S504,90.1,504.1,89.7z M500.7,88h3.5c0-0.5-0.2-0.9-0.4-1.2c-0.3-0.4-0.8-0.6-1.3-0.6
		s-0.9,0.2-1.2,0.5S500.7,87.4,500.7,88z"/>
	<path class="st0" d="M507.7,91.7l-1.9-6.2h1.1l1,3.6l0.4,1.3c0-0.1,0.1-0.5,0.3-1.3l1-3.6h1.1l0.9,3.6l0.3,1.2l0.4-1.2l1.1-3.6h1
		l-1.9,6.2h-1.1l-1-3.7l-0.2-1.1l-1.3,4.8C508.9,91.7,507.7,91.7,507.7,91.7z"/>
	<path class="st0" d="M519.3,90.9c-0.4,0.3-0.8,0.6-1.1,0.7s-0.7,0.2-1.2,0.2c-0.7,0-1.2-0.2-1.6-0.5s-0.6-0.8-0.6-1.3
		c0-0.3,0.1-0.6,0.2-0.8s0.3-0.5,0.5-0.6s0.5-0.3,0.8-0.3c0.2-0.1,0.5-0.1,0.9-0.2c0.9-0.1,1.5-0.2,1.9-0.4c0-0.1,0-0.2,0-0.3
		c0-0.4-0.1-0.7-0.3-0.9c-0.3-0.2-0.7-0.4-1.2-0.4s-0.9,0.1-1.1,0.3s-0.4,0.5-0.5,0.9l-1-0.1c0.1-0.4,0.2-0.8,0.5-1.1
		s0.5-0.5,0.9-0.6s0.9-0.2,1.4-0.2s1,0.1,1.3,0.2s0.6,0.3,0.7,0.5s0.3,0.4,0.3,0.7c0,0.2,0.1,0.5,0.1,1v1.4c0,1,0,1.6,0.1,1.9
		s0.1,0.5,0.3,0.7h-1.1C519.4,91.5,519.3,91.2,519.3,90.9z M519.2,88.6c-0.4,0.2-1,0.3-1.7,0.4c-0.4,0.1-0.7,0.1-0.9,0.2
		s-0.3,0.2-0.4,0.3S516,89.8,516,90c0,0.3,0.1,0.5,0.3,0.7s0.5,0.3,0.9,0.3s0.8-0.1,1.1-0.3s0.5-0.4,0.7-0.7
		c0.1-0.2,0.2-0.6,0.2-1.1V88.6z"/>
	<path class="st0" d="M521.8,94.1l-0.1-1c0.2,0.1,0.4,0.1,0.6,0.1c0.2,0,0.4,0,0.6-0.1s0.3-0.2,0.3-0.3c0.1-0.1,0.2-0.4,0.3-0.8
		c0-0.1,0.1-0.1,0.1-0.3l-2.4-6.2h1.1l1.3,3.6c0.2,0.5,0.3,0.9,0.5,1.4c0.1-0.5,0.3-1,0.4-1.4l1.3-3.6h1.1l-2.4,6.3
		c-0.3,0.7-0.5,1.2-0.6,1.4c-0.2,0.3-0.4,0.6-0.6,0.8s-0.5,0.2-0.9,0.2C522.3,94.2,522.1,94.2,521.8,94.1z"/>
	<path class="st0" d="M527.3,91.7v-1.2h1.2v1.2c0,0.4-0.1,0.8-0.2,1.1s-0.4,0.5-0.7,0.6l-0.3-0.5c0.2-0.1,0.4-0.2,0.5-0.4
		s0.2-0.5,0.2-0.8C528,91.7,527.3,91.7,527.3,91.7z"/>
	<path class="st0" d="M533.5,92.2l1,0.2c0,0.3,0.2,0.5,0.4,0.7c0.3,0.2,0.6,0.3,1.1,0.3s0.9-0.1,1.1-0.3s0.4-0.5,0.5-0.8
		c0.1-0.2,0.1-0.7,0.1-1.4c-0.5,0.5-1,0.8-1.7,0.8c-0.9,0-1.5-0.3-2-0.9s-0.7-1.4-0.7-2.2c0-0.6,0.1-1.1,0.3-1.6s0.5-0.9,0.9-1.2
		s0.9-0.4,1.4-0.4c0.7,0,1.3,0.3,1.8,0.9v-0.8h1v5.4c0,1-0.1,1.7-0.3,2.1s-0.5,0.7-0.9,1s-1,0.4-1.6,0.4c-0.7,0-1.3-0.2-1.8-0.5
		S533.5,92.9,533.5,92.2z M534.3,88.5c0,0.8,0.2,1.4,0.5,1.8s0.7,0.6,1.2,0.6s0.9-0.2,1.2-0.6s0.5-1,0.5-1.8s-0.2-1.3-0.5-1.7
		s-0.7-0.6-1.2-0.6s-0.9,0.2-1.2,0.6S534.3,87.7,534.3,88.5z"/>
	<path class="st0" d="M544.6,89.7l1.1,0.1c-0.2,0.6-0.5,1.1-1,1.5s-1.1,0.5-1.8,0.5c-0.9,0-1.6-0.3-2.2-0.8s-0.8-1.3-0.8-2.4
		c0-1,0.3-1.9,0.8-2.4s1.2-0.9,2.1-0.9c0.8,0,1.5,0.3,2,0.8s0.8,1.4,0.8,2.4c0,0.1,0,0.2,0,0.3H541c0,0.7,0.2,1.2,0.6,1.6
		s0.8,0.5,1.3,0.5c0.4,0,0.7-0.1,1-0.3S544.4,90.1,544.6,89.7z M541.1,88h3.5c0-0.5-0.2-0.9-0.4-1.2c-0.3-0.4-0.8-0.6-1.3-0.6
		s-0.9,0.2-1.2,0.5S541.2,87.4,541.1,88z"/>
	<path class="st0" d="M548,91.7h-1v-8.6h1.1v3.1c0.4-0.6,1-0.8,1.7-0.8c0.4,0,0.7,0.1,1.1,0.2s0.6,0.4,0.8,0.7s0.4,0.6,0.5,1
		s0.2,0.8,0.2,1.3c0,1.1-0.3,1.9-0.8,2.5s-1.2,0.9-1.9,0.9s-1.3-0.3-1.7-0.9L548,91.7L548,91.7z M548,88.5c0,0.7,0.1,1.3,0.3,1.6
		c0.3,0.5,0.8,0.8,1.3,0.8s0.9-0.2,1.2-0.6s0.5-1,0.5-1.8s-0.2-1.4-0.5-1.8s-0.7-0.6-1.2-0.6s-0.9,0.2-1.2,0.6S548,87.8,548,88.5z"
		/>
	<path class="st0" d="M553.7,91.7v-6.2h0.9v0.9c0.2-0.4,0.5-0.7,0.7-0.9s0.4-0.2,0.7-0.2c0.4,0,0.7,0.1,1.1,0.3l-0.4,1
		c-0.3-0.2-0.5-0.2-0.8-0.2c-0.2,0-0.4,0.1-0.6,0.2s-0.3,0.3-0.4,0.6c-0.1,0.4-0.2,0.8-0.2,1.2v3.3
		C554.7,91.7,553.7,91.7,553.7,91.7z"/>
	<path class="st0" d="M561.8,91.7v-0.9c-0.5,0.7-1.1,1.1-2,1.1c-0.4,0-0.7-0.1-1-0.2s-0.6-0.3-0.7-0.5s-0.3-0.5-0.3-0.8
		c0-0.2-0.1-0.5-0.1-1v-3.9h1.1V89c0,0.6,0,0.9,0.1,1.1c0.1,0.3,0.2,0.5,0.4,0.7s0.5,0.2,0.8,0.2s0.6-0.1,0.9-0.2s0.5-0.4,0.6-0.7
		s0.2-0.7,0.2-1.2v-3.3h1.1v6.2L561.8,91.7L561.8,91.7z"/>
	<path class="st0" d="M564.4,84.3v-1.2h1.1v1.2H564.4z M564.4,91.7v-6.2h1.1v6.2H564.4z"/>
	<path class="st0" d="M567,91.7v-8.6h1.1V88l2.5-2.5h1.4l-2.4,2.3l2.6,3.9h-1.3l-2.1-3.2l-0.7,0.7v2.5C568.1,91.7,567,91.7,567,91.7
		z"/>
	<path class="st0" d="M577.3,89.7l1.1,0.1c-0.2,0.6-0.5,1.1-1,1.5s-1.1,0.5-1.8,0.5c-0.9,0-1.6-0.3-2.2-0.8s-0.8-1.3-0.8-2.4
		c0-1,0.3-1.9,0.8-2.4s1.2-0.9,2.1-0.9c0.8,0,1.5,0.3,2,0.8s0.8,1.4,0.8,2.4c0,0.1,0,0.2,0,0.3h-4.6c0,0.7,0.2,1.2,0.6,1.6
		s0.8,0.5,1.3,0.5c0.4,0,0.7-0.1,1-0.3S577.1,90.1,577.3,89.7z M573.8,88h3.5c0-0.5-0.2-0.9-0.4-1.2c-0.3-0.4-0.8-0.6-1.3-0.6
		s-0.9,0.2-1.2,0.5S573.9,87.4,573.8,88z"/>
	<path class="st0" d="M579.7,91.7v-6.2h0.9v0.9c0.5-0.7,1.1-1,2-1c0.4,0,0.7,0.1,1,0.2s0.5,0.3,0.7,0.5s0.3,0.5,0.3,0.8
		c0,0.2,0.1,0.5,0.1,1v3.8h-1.1v-3.8c0-0.4,0-0.8-0.1-1s-0.2-0.4-0.4-0.5s-0.5-0.2-0.7-0.2c-0.4,0-0.8,0.1-1.2,0.4s-0.5,0.8-0.5,1.6
		v3.4L579.7,91.7L579.7,91.7z"/>
	<path class="st0" d="M590.8,91.7l-1.9-6.2h1.1l1,3.6l0.4,1.3c0-0.1,0.1-0.5,0.3-1.3l1-3.6h1.1l0.9,3.6l0.3,1.2l0.4-1.2l1.1-3.6h1
		l-1.9,6.2h-1.1l-1-3.7l-0.2-1.1l-1.3,4.8C592,91.7,590.8,91.7,590.8,91.7z"/>
	<path class="st0" d="M602.6,89.7l1.1,0.1c-0.2,0.6-0.5,1.1-1,1.5s-1.1,0.5-1.8,0.5c-0.9,0-1.6-0.3-2.2-0.8s-0.8-1.3-0.8-2.4
		c0-1,0.3-1.9,0.8-2.4s1.2-0.9,2.1-0.9c0.8,0,1.5,0.3,2,0.8s0.8,1.4,0.8,2.4c0,0.1,0,0.2,0,0.3H599c0,0.7,0.2,1.2,0.6,1.6
		s0.8,0.5,1.3,0.5c0.4,0,0.7-0.1,1-0.3S602.5,90.1,602.6,89.7z M599.2,88h3.5c0-0.5-0.2-0.9-0.4-1.2c-0.3-0.4-0.8-0.6-1.3-0.6
		s-0.9,0.2-1.2,0.5S599.2,87.4,599.2,88z"/>
	<path class="st0" d="M612.4,91.7v-0.8c-0.4,0.6-1,0.9-1.7,0.9c-0.5,0-1-0.1-1.4-0.4s-0.7-0.7-1-1.1s-0.3-1.1-0.3-1.7
		s0.1-1.2,0.3-1.7s0.5-0.9,0.9-1.2s0.9-0.4,1.4-0.4c0.4,0,0.7,0.1,1,0.2s0.5,0.4,0.7,0.6V83h1v8.6L612.4,91.7L612.4,91.7z
		 M609.1,88.6c0,0.8,0.2,1.4,0.5,1.8s0.7,0.6,1.2,0.6s0.9-0.2,1.2-0.6s0.5-1,0.5-1.7c0-0.9-0.2-1.5-0.5-1.9s-0.7-0.6-1.2-0.6
		s-0.9,0.2-1.2,0.6S609.1,87.8,609.1,88.6z"/>
	<path class="st0" d="M619.3,89.7l1.1,0.1c-0.2,0.6-0.5,1.1-1,1.5s-1.1,0.5-1.8,0.5c-0.9,0-1.6-0.3-2.2-0.8s-0.8-1.3-0.8-2.4
		c0-1,0.3-1.9,0.8-2.4s1.2-0.9,2.1-0.9c0.8,0,1.5,0.3,2,0.8s0.8,1.4,0.8,2.4c0,0.1,0,0.2,0,0.3h-4.6c0,0.7,0.2,1.2,0.6,1.6
		s0.8,0.5,1.3,0.5c0.4,0,0.7-0.1,1-0.3S619.1,90.1,619.3,89.7z M615.8,88h3.5c0-0.5-0.2-0.9-0.4-1.2c-0.3-0.4-0.8-0.6-1.3-0.6
		s-0.9,0.2-1.2,0.5S615.9,87.4,615.8,88z"/>
	<path class="st0" d="M621.2,91.7v-0.9l4-4.5c-0.4,0-0.8,0-1.2,0h-2.5v-0.9h5.1v0.7l-3.4,3.9l-0.7,0.7c0.5,0,0.9-0.1,1.3-0.1h2.9
		v0.9h-5.5V91.7z"/>
	<path class="st0" d="M632,89.7l1.1,0.1c-0.2,0.6-0.5,1.1-1,1.5s-1.1,0.5-1.8,0.5c-0.9,0-1.6-0.3-2.2-0.8s-0.8-1.3-0.8-2.4
		c0-1,0.3-1.9,0.8-2.4s1.2-0.9,2.1-0.9c0.8,0,1.5,0.3,2,0.8s0.8,1.4,0.8,2.4c0,0.1,0,0.2,0,0.3h-4.6c0,0.7,0.2,1.2,0.6,1.6
		s0.8,0.5,1.3,0.5c0.4,0,0.7-0.1,1-0.3S631.8,90.1,632,89.7z M628.5,88h3.5c0-0.5-0.2-0.9-0.4-1.2c-0.3-0.4-0.8-0.6-1.3-0.6
		s-0.9,0.2-1.2,0.5S628.6,87.4,628.5,88z"/>
	<path class="st0" d="M639.5,91.7l-2.4-6.2h1.1l1.3,3.7c0.1,0.4,0.3,0.8,0.4,1.3c0.1-0.3,0.2-0.7,0.4-1.2l1.4-3.8h1.1l-2.4,6.2
		H639.5z"/>
	<path class="st0" d="M643.3,88.6c0-1.2,0.3-2,1-2.6c0.5-0.5,1.2-0.7,2-0.7c0.9,0,1.6,0.3,2.1,0.8s0.8,1.3,0.8,2.3
		c0,0.8-0.1,1.4-0.4,1.9s-0.6,0.8-1,1.1s-1,0.4-1.5,0.4c-0.9,0-1.6-0.3-2.1-0.8S643.3,89.6,643.3,88.6z M644.4,88.6
		c0,0.8,0.2,1.4,0.5,1.8s0.8,0.6,1.3,0.6s1-0.2,1.3-0.6s0.5-1,0.5-1.8s-0.2-1.4-0.5-1.7s-0.8-0.6-1.3-0.6s-1,0.2-1.3,0.6
		S644.4,87.8,644.4,88.6z"/>
	<path class="st0" d="M650,88.6c0-1.2,0.3-2,1-2.6c0.5-0.5,1.2-0.7,2-0.7c0.9,0,1.6,0.3,2.1,0.8s0.8,1.3,0.8,2.3
		c0,0.8-0.1,1.4-0.4,1.9s-0.6,0.8-1,1.1s-1,0.4-1.5,0.4c-0.9,0-1.6-0.3-2.1-0.8S650,89.6,650,88.6z M651.1,88.6
		c0,0.8,0.2,1.4,0.5,1.8s0.8,0.6,1.3,0.6s1-0.2,1.3-0.6s0.5-1,0.5-1.8s-0.2-1.4-0.5-1.7s-0.8-0.6-1.3-0.6s-1,0.2-1.3,0.6
		S651.1,87.8,651.1,88.6z"/>
	<path class="st0" d="M657.1,91.7v-6.2h0.9v0.9c0.2-0.4,0.5-0.7,0.7-0.9s0.4-0.2,0.7-0.2c0.4,0,0.7,0.1,1.1,0.3l-0.4,1
		c-0.3-0.2-0.5-0.2-0.8-0.2c-0.2,0-0.4,0.1-0.6,0.2s-0.3,0.3-0.4,0.6c-0.1,0.4-0.2,0.8-0.2,1.2v3.3
		C658.1,91.7,657.1,91.7,657.1,91.7z"/>
	<path class="st0" d="M668.4,91.7v-0.8c-0.4,0.6-1,0.9-1.7,0.9c-0.5,0-1-0.1-1.4-0.4s-0.7-0.7-1-1.1s-0.3-1.1-0.3-1.7
		s0.1-1.2,0.3-1.7s0.5-0.9,0.9-1.2s0.9-0.4,1.4-0.4c0.4,0,0.7,0.1,1,0.2s0.5,0.4,0.7,0.6V83h1v8.6L668.4,91.7L668.4,91.7z
		 M665.1,88.6c0,0.8,0.2,1.4,0.5,1.8s0.7,0.6,1.2,0.6s0.9-0.2,1.2-0.6s0.5-1,0.5-1.7c0-0.9-0.2-1.5-0.5-1.9s-0.7-0.6-1.2-0.6
		s-0.9,0.2-1.2,0.6S665.1,87.8,665.1,88.6z"/>
	<path class="st0" d="M675.3,89.7l1.1,0.1c-0.2,0.6-0.5,1.1-1,1.5s-1.1,0.5-1.8,0.5c-0.9,0-1.6-0.3-2.2-0.8s-0.8-1.3-0.8-2.4
		c0-1,0.3-1.9,0.8-2.4s1.2-0.9,2.1-0.9c0.8,0,1.5,0.3,2,0.8s0.8,1.4,0.8,2.4c0,0.1,0,0.2,0,0.3h-4.6c0,0.7,0.2,1.2,0.6,1.6
		s0.8,0.5,1.3,0.5c0.4,0,0.7-0.1,1-0.3S675.2,90.1,675.3,89.7z M671.9,88h3.5c0-0.5-0.2-0.9-0.4-1.2c-0.3-0.4-0.8-0.6-1.3-0.6
		s-0.9,0.2-1.2,0.5S671.9,87.4,671.9,88z"/>
	<path class="st0" d="M681.1,91.7v-6.2h0.9v0.9c0.5-0.7,1.1-1,2-1c0.4,0,0.7,0.1,1,0.2s0.5,0.3,0.7,0.5s0.3,0.5,0.3,0.8
		c0,0.2,0.1,0.5,0.1,1v3.8H685v-3.8c0-0.4,0-0.8-0.1-1s-0.2-0.4-0.4-0.5s-0.5-0.2-0.7-0.2c-0.4,0-0.8,0.1-1.2,0.4s-0.5,0.8-0.5,1.6
		v3.4L681.1,91.7L681.1,91.7z"/>
	<path class="st0" d="M687.8,84.3v-1.2h1.1v1.2H687.8z M687.8,91.7v-6.2h1.1v6.2H687.8z"/>
	<path class="st0" d="M694.7,89.7l1.1,0.1c-0.2,0.6-0.5,1.1-1,1.5s-1.1,0.5-1.8,0.5c-0.9,0-1.6-0.3-2.2-0.8s-0.8-1.3-0.8-2.4
		c0-1,0.3-1.9,0.8-2.4s1.2-0.9,2.1-0.9c0.8,0,1.5,0.3,2,0.8s0.8,1.4,0.8,2.4c0,0.1,0,0.2,0,0.3h-4.6c0,0.7,0.2,1.2,0.6,1.6
		s0.8,0.5,1.3,0.5c0.4,0,0.7-0.1,1-0.3S694.5,90.1,694.7,89.7z M691.2,88h3.5c0-0.5-0.2-0.9-0.4-1.2c-0.3-0.4-0.8-0.6-1.3-0.6
		s-0.9,0.2-1.2,0.5S691.3,87.4,691.2,88z"/>
	<path class="st0" d="M701.2,91.7v-0.9c-0.5,0.7-1.1,1.1-2,1.1c-0.4,0-0.7-0.1-1-0.2s-0.6-0.3-0.7-0.5s-0.3-0.5-0.3-0.8
		c0-0.2-0.1-0.5-0.1-1v-3.9h1.1V89c0,0.6,0,0.9,0.1,1.1c0.1,0.3,0.2,0.5,0.4,0.7s0.5,0.2,0.8,0.2s0.6-0.1,0.9-0.2s0.5-0.4,0.6-0.7
		s0.2-0.7,0.2-1.2v-3.3h1.1v6.2L701.2,91.7L701.2,91.7z"/>
	<path class="st0" d="M704.9,91.7l-1.9-6.2h1.1l1,3.6l0.4,1.3c0-0.1,0.1-0.5,0.3-1.3l1-3.6h1.1l0.9,3.6l0.3,1.2l0.4-1.2l1.1-3.6h1
		l-1.9,6.2h-1.1l-1-3.7l-0.2-1.1l-1.3,4.8C706.1,91.7,704.9,91.7,704.9,91.7z"/>
	<path class="st0" d="M712,89.8l1-0.2c0.1,0.4,0.2,0.7,0.5,1s0.6,0.3,1.1,0.3s0.8-0.1,1.1-0.3s0.4-0.4,0.4-0.7
		c0-0.2-0.1-0.4-0.3-0.6c-0.1-0.1-0.5-0.2-1.1-0.4c-0.8-0.2-1.3-0.4-1.6-0.5s-0.5-0.3-0.7-0.6s-0.2-0.5-0.2-0.8s0.1-0.5,0.2-0.8
		s0.3-0.4,0.5-0.6c0.2-0.1,0.4-0.2,0.7-0.3s0.6-0.1,0.9-0.1c0.5,0,0.9,0.1,1.3,0.2s0.6,0.3,0.8,0.6s0.3,0.6,0.4,1l-1,0.1
		c0-0.3-0.2-0.6-0.4-0.8s-0.5-0.3-1-0.3s-0.8,0.1-1,0.2s-0.3,0.3-0.3,0.6c0,0.1,0,0.3,0.1,0.4s0.2,0.2,0.4,0.3
		c0.1,0,0.4,0.1,0.9,0.3c0.7,0.2,1.3,0.4,1.6,0.5s0.5,0.3,0.7,0.6s0.3,0.5,0.3,0.9s-0.1,0.7-0.3,1s-0.5,0.6-0.9,0.7
		s-0.8,0.3-1.3,0.3c-0.8,0-1.4-0.2-1.8-0.5S712.1,90.5,712,89.8z"/>
	<path class="st0" d="M719.4,91.7h-1v-8.6h1.1v3.1c0.4-0.6,1-0.8,1.7-0.8c0.4,0,0.7,0.1,1.1,0.2s0.6,0.4,0.8,0.7s0.4,0.6,0.5,1
		s0.2,0.8,0.2,1.3c0,1.1-0.3,1.9-0.8,2.5s-1.2,0.9-1.9,0.9s-1.3-0.3-1.7-0.9L719.4,91.7L719.4,91.7z M719.4,88.5
		c0,0.7,0.1,1.3,0.3,1.6c0.3,0.5,0.8,0.8,1.3,0.8s0.9-0.2,1.2-0.6s0.5-1,0.5-1.8s-0.2-1.4-0.5-1.8s-0.7-0.6-1.2-0.6
		s-0.9,0.2-1.2,0.6S719.4,87.8,719.4,88.5z"/>
	<path class="st0" d="M725.1,91.7v-6.2h0.9v0.9c0.2-0.4,0.5-0.7,0.7-0.9s0.4-0.2,0.7-0.2c0.4,0,0.7,0.1,1.1,0.3l-0.4,1
		c-0.3-0.2-0.5-0.2-0.8-0.2c-0.2,0-0.4,0.1-0.6,0.2s-0.3,0.3-0.4,0.6c-0.1,0.4-0.2,0.8-0.2,1.2v3.3
		C726.1,91.7,725.1,91.7,725.1,91.7z"/>
	<path class="st0" d="M729.1,84.3v-1.2h1.1v1.2H729.1z M729.1,91.7v-6.2h1.1v6.2H729.1z"/>
	<path class="st0" d="M736,89.7l1.1,0.1c-0.2,0.6-0.5,1.1-1,1.5s-1.1,0.5-1.8,0.5c-0.9,0-1.6-0.3-2.2-0.8s-0.8-1.3-0.8-2.4
		c0-1,0.3-1.9,0.8-2.4s1.2-0.9,2.1-0.9c0.8,0,1.5,0.3,2,0.8s0.8,1.4,0.8,2.4c0,0.1,0,0.2,0,0.3h-4.6c0,0.7,0.2,1.2,0.6,1.6
		s0.8,0.5,1.3,0.5c0.4,0,0.7-0.1,1-0.3S735.9,90.1,736,89.7z M732.6,88h3.5c0-0.5-0.2-0.9-0.4-1.2c-0.3-0.4-0.8-0.6-1.3-0.6
		s-0.9,0.2-1.2,0.5S732.6,87.4,732.6,88z"/>
	<path class="st0" d="M738.7,91.7v-5.4h-0.9v-0.8h0.9v-0.7c0-0.4,0-0.7,0.1-0.9c0.1-0.3,0.3-0.5,0.5-0.7s0.6-0.3,1.1-0.3
		c0.3,0,0.6,0,1,0.1l-0.2,0.9c-0.2,0-0.4-0.1-0.6-0.1c-0.3,0-0.5,0.1-0.7,0.2s-0.2,0.4-0.2,0.8v0.6h1.2v0.8h-1.2v5.4L738.7,91.7
		L738.7,91.7z"/>
</g>
<g>
	<path class="st1" d="M90.7,74.9c0,4.7-1.2,8.4-3.5,10.9s-5.7,3.8-10.1,3.8s-7.7-1.3-10.1-3.8s-3.5-6.2-3.5-10.9
		c0-4.8,1.2-8.4,3.5-10.9c2.4-2.5,5.7-3.8,10.1-3.8s7.7,1.3,10.1,3.8C89.5,66.5,90.7,70.2,90.7,74.9z M69.8,74.9
		c0,3.2,0.6,5.6,1.8,7.2s3,2.4,5.4,2.4c4.8,0,7.2-3.2,7.2-9.6s-2.4-9.6-7.2-9.6c-2.4,0-4.2,0.8-5.4,2.4S69.8,71.7,69.8,74.9z"/>
	<path class="st1" d="M116.3,69.6c0,3.1-1,5.4-2.9,7.1c-1.9,1.6-4.7,2.4-8.2,2.4h-2.6v10.2h-6.1V60.7h9.1c3.5,0,6.1,0.7,7.9,2.2
		C115.4,64.4,116.3,66.6,116.3,69.6z M102.6,74.1h2c1.9,0,3.3-0.4,4.2-1.1c0.9-0.7,1.4-1.8,1.4-3.2c0-1.4-0.4-2.5-1.2-3.1
		c-0.8-0.7-2-1-3.6-1h-2.8V74.1z"/>
	<path class="st1" d="M138.1,89.2h-16.4V60.7h16.4v5h-10.4V72h9.7v5h-9.7v7.4h10.4V89.2z"/>
	<path class="st1" d="M169.4,89.2h-7.7l-12.4-21.6h-0.2c0.2,3.8,0.4,6.5,0.4,8.2v13.4h-5.4V60.7h7.6l12.4,21.4h0.1
		c-0.2-3.7-0.3-6.3-0.3-7.9V60.7h5.4L169.4,89.2L169.4,89.2z"/>
	<path class="st1" d="M203.9,81.3c0,2.6-0.9,4.6-2.8,6.1s-4.4,2.2-7.7,2.2c-3,0-5.7-0.6-8.1-1.7v-5.6c1.9,0.9,3.6,1.5,4.9,1.8
		c1.3,0.4,2.6,0.5,3.7,0.5c1.3,0,2.3-0.3,3.1-0.8c0.7-0.5,1.1-1.3,1.1-2.3c0-0.6-0.2-1.1-0.5-1.5s-0.8-0.9-1.4-1.3s-1.8-1-3.7-1.9
		c-1.7-0.8-3.1-1.6-3.9-2.4c-0.9-0.8-1.6-1.6-2.1-2.6s-0.8-2.2-0.8-3.5c0-2.5,0.9-4.5,2.6-6c1.7-1.4,4.1-2.2,7.1-2.2
		c1.5,0,2.9,0.2,4.2,0.5s2.8,0.8,4.2,1.5l-2,4.7c-1.5-0.6-2.8-1.1-3.8-1.3s-2-0.4-2.9-0.4c-1.1,0-2,0.3-2.6,0.8s-0.9,1.2-0.9,2.1
		c0,0.5,0.1,1,0.4,1.4c0.2,0.4,0.6,0.8,1.2,1.2c0.5,0.4,1.8,1,3.8,2c2.7,1.3,4.5,2.6,5.5,3.8C203.4,77.9,203.9,79.4,203.9,81.3z"/>
	<path class="st1" d="M226.5,89.2l-2.1-6.8H214l-2.1,6.8h-6.5l10.1-28.7h7.4L233,89.2H226.5z M223,77.4c-1.9-6.2-3-9.6-3.2-10.4
		s-0.4-1.4-0.5-1.9c-0.4,1.7-1.7,5.8-3.7,12.4L223,77.4L223,77.4z"/>
	<path class="st1" d="M262,89.2h-7.7l-12.4-21.6h-0.2c0.2,3.8,0.4,6.5,0.4,8.2v13.4h-5.4V60.7h7.6l12.4,21.4h0.1
		c-0.2-3.7-0.3-6.3-0.3-7.9V60.7h5.4L262,89.2L262,89.2z"/>
	<path class="st1" d="M286,81.3c0,2.6-0.9,4.6-2.8,6.1s-4.4,2.2-7.7,2.2c-3,0-5.7-0.6-8.1-1.7v-5.6c1.9,0.9,3.6,1.5,4.9,1.8
		c1.3,0.4,2.6,0.5,3.7,0.5c1.3,0,2.3-0.3,3.1-0.8c0.7-0.5,1.1-1.3,1.1-2.3c0-0.6-0.2-1.1-0.5-1.5s-0.8-0.9-1.4-1.3s-1.8-1-3.7-1.9
		c-1.7-0.8-3.1-1.6-3.9-2.4c-0.9-0.8-1.6-1.6-2.1-2.6s-0.8-2.2-0.8-3.5c0-2.5,0.9-4.5,2.6-6c1.7-1.4,4.1-2.2,7.1-2.2
		c1.5,0,2.9,0.2,4.2,0.5s2.8,0.8,4.2,1.5l-2,4.7c-1.5-0.6-2.8-1.1-3.8-1.3s-2-0.4-2.9-0.4c-1.1,0-2,0.3-2.6,0.8s-0.9,1.2-0.9,2.1
		c0,0.5,0.1,1,0.4,1.4c0.2,0.4,0.6,0.8,1.2,1.2c0.5,0.4,1.8,1,3.8,2c2.7,1.3,4.5,2.6,5.5,3.8C285.5,77.9,286,79.4,286,81.3z"/>
	<path class="st1" d="M301.6,60.7h8.9c4,0,7,0.6,8.8,1.7c1.8,1.2,2.7,3,2.7,5.5c0,1.7-0.4,3.1-1.2,4.2s-1.9,1.8-3.2,2v0.2
		c1.8,0.4,3.1,1.2,3.9,2.3c0.8,1.1,1.2,2.6,1.2,4.4c0,2.6-0.9,4.6-2.8,6.1s-4.4,2.2-7.7,2.2h-10.7V60.7H301.6z M307.6,72h3.5
		c1.6,0,2.8-0.3,3.6-0.8c0.7-0.5,1.1-1.3,1.1-2.5c0-1.1-0.4-1.9-1.2-2.4s-2.1-0.7-3.8-0.7h-3.2V72z M307.6,76.8v7.4h3.9
		c1.7,0,2.9-0.3,3.7-1c0.8-0.6,1.2-1.6,1.2-2.9c0-2.4-1.7-3.6-5.1-3.6L307.6,76.8L307.6,76.8z"/>
	<path class="st1" d="M354.4,74.9c0,4.7-1.2,8.4-3.5,10.9s-5.7,3.8-10.1,3.8s-7.7-1.3-10.1-3.8s-3.5-6.2-3.5-10.9
		c0-4.8,1.2-8.4,3.5-10.9c2.4-2.5,5.7-3.8,10.1-3.8s7.7,1.3,10.1,3.8C353.2,66.5,354.4,70.2,354.4,74.9z M333.5,74.9
		c0,3.2,0.6,5.6,1.8,7.2s3,2.4,5.4,2.4c4.8,0,7.2-3.2,7.2-9.6s-2.4-9.6-7.2-9.6c-2.4,0-4.2,0.8-5.4,2.4
		C334.2,69.3,333.5,71.7,333.5,74.9z"/>
	<path class="st1" d="M360.3,89.2V60.7h6.1v23.6H378v5h-17.7V89.2z"/>
	<path class="st1" d="M406.6,74.7c0,4.7-1.3,8.3-4,10.8s-6.5,3.8-11.6,3.8h-8.1V60.7h9c4.7,0,8.3,1.2,10.9,3.7
		C405.3,66.8,406.6,70.3,406.6,74.7z M400.3,74.8c0-6.1-2.7-9.2-8.1-9.2H389v18.6h2.6C397.4,84.2,400.3,81.1,400.3,74.8z"/>
</g>
</svg>
