<?xml version="1.0" encoding="utf-8"?>
<!-- Generator: Adobe Illustrator 22.0.0, SVG Export Plug-In . SVG Version: 6.00 Build 0)  -->
<svg version="1.1" id="Laag_1" xmlns="http://www.w3.org/2000/svg" xmlns:xlink="http://www.w3.org/1999/xlink" x="0px" y="0px"
	 viewBox="0 0 841.9 148.3" style="enable-background:new 0 0 841.9 148.3;" xml:space="preserve">
<style type="text/css">
	.st0{fill:#4D4D4D;}
	.st1{font-family:'Raleway-Medium';}
	.st2{font-size:12px;}
	.st3{fill:#FCCD42;}
</style>
<g>
	<path class="st0" d="M597.3,33V20.9h5.3c0.6,0,1.1,0.1,1.5,0.3c0.5,0.2,0.9,0.5,1.2,0.9s0.6,0.8,0.8,1.3s0.3,1,0.3,1.5
		c0,0.8-0.2,1.5-0.6,2.1c-0.4,0.6-0.9,1.1-1.6,1.4l2.8,4.5h-2.6l-2.5-4h-2.3v4h-2.3V33z M599.7,26.9h2.9c0.2,0,0.4-0.1,0.6-0.2
		c0.2-0.1,0.3-0.2,0.5-0.4c0.1-0.2,0.2-0.4,0.3-0.6s0.1-0.5,0.1-0.8s0-0.5-0.1-0.8c-0.1-0.2-0.2-0.4-0.4-0.6s-0.3-0.3-0.5-0.4
		s-0.4-0.1-0.6-0.1h-2.8V26.9z"/>
	<path class="st0" d="M611.9,20.9h2.1l4.6,12.1h-2.4l-1.1-3h-4.2l-1.1,3h-2.4L611.9,20.9z M614.6,28.3l-1.7-4.7l-1.7,4.7H614.6z"/>
	<path class="st0" d="M619.8,33V20.9h2.3v10h6.2V33H619.8z"/>
	<path class="st0" d="M638.2,30.9V33h-8.4V20.9h8.2V23h-5.9v2.9h5.1v1.9h-5.1v3.1H638.2z"/>
	<path class="st0" d="M644.2,20.9h2.2l1.4,4l1.4-4h2.2l-2.1,5.5l1.5,3.9l3.4-9.4h2.5l-5,12.1h-2l-2.1-5.1l-2.1,5.1h-2l-4.9-12.1h2.5
		l3.4,9.4l1.5-3.9L644.2,20.9z"/>
	<path class="st0" d="M660.3,20.9h2.1L667,33h-2.4l-1.1-3h-4.2l-1.1,3h-2.4L660.3,20.9z M663,28.3l-1.7-4.7l-1.7,4.7H663z"/>
	<path class="st0" d="M668.2,20.9l3,5.8l3-5.8h2.5l-4.4,7.9V33H670v-4.2l-4.4-7.8h2.6V20.9z"/>
	<path class="st0" d="M691.3,29.9c0,0.5-0.1,1-0.3,1.3c-0.2,0.4-0.5,0.7-0.8,1c-0.4,0.3-0.8,0.5-1.2,0.6c-0.5,0.1-1,0.2-1.5,0.2
		h-5.8V20.9h6.5c0.4,0,0.8,0.1,1.1,0.3s0.6,0.4,0.9,0.7s0.4,0.6,0.6,1s0.2,0.7,0.2,1.1c0,0.6-0.1,1.1-0.4,1.7
		c-0.3,0.5-0.7,0.9-1.3,1.1c0.7,0.2,1.2,0.6,1.6,1.1C691.1,28.4,691.3,29.1,691.3,29.9z M683.9,22.9v3h3.1c0.4,0,0.7-0.1,1-0.4
		s0.4-0.6,0.4-1.1s-0.1-0.8-0.4-1.1c-0.3-0.3-0.6-0.4-0.9-0.4H683.9z M689,29.4c0-0.2,0-0.4-0.1-0.6s-0.2-0.4-0.3-0.5
		s-0.3-0.3-0.4-0.3c-0.2-0.1-0.4-0.1-0.6-0.1H684V31h3.5c0.2,0,0.4,0,0.6-0.1c0.2-0.1,0.3-0.2,0.5-0.3c0.1-0.1,0.2-0.3,0.3-0.5
		C688.9,29.8,689,29.6,689,29.4z"/>
	<path class="st0" d="M697,33.1c-0.7,0-1.4-0.1-2-0.4c-0.6-0.2-1.1-0.6-1.5-1c-0.4-0.4-0.7-0.9-0.9-1.5s-0.3-1.1-0.3-1.8
		c0-0.6,0.1-1.2,0.3-1.8c0.2-0.6,0.5-1,0.9-1.5c0.4-0.4,0.9-0.8,1.5-1c0.6-0.3,1.2-0.4,2-0.4s1.4,0.1,1.9,0.4c0.6,0.2,1.1,0.6,1.5,1
		s0.7,0.9,0.9,1.5s0.3,1.1,0.3,1.8c0,0.6-0.1,1.2-0.3,1.8c-0.2,0.6-0.5,1-0.9,1.5c-0.4,0.4-0.9,0.8-1.5,1S697.8,33.1,697,33.1z
		 M694.7,28.5c0,0.4,0.1,0.8,0.2,1.1s0.3,0.6,0.5,0.8c0.2,0.2,0.5,0.4,0.7,0.6c0.3,0.1,0.6,0.2,0.9,0.2s0.6-0.1,0.9-0.2
		c0.3-0.1,0.5-0.3,0.7-0.6c0.2-0.2,0.4-0.5,0.5-0.9c0.1-0.3,0.2-0.7,0.2-1.1s-0.1-0.7-0.2-1.1c-0.1-0.3-0.3-0.6-0.5-0.8
		c-0.2-0.2-0.5-0.4-0.7-0.6c-0.3-0.1-0.6-0.2-0.9-0.2s-0.6,0.1-0.9,0.2s-0.5,0.3-0.7,0.6c-0.2,0.2-0.4,0.5-0.5,0.9
		S694.7,28.1,694.7,28.5z"/>
	<path class="st0" d="M703.2,20.6h2.3v9.6c0,0.3,0.1,0.6,0.2,0.8s0.4,0.3,0.7,0.3c0.1,0,0.3,0,0.5-0.1c0.2,0,0.3-0.1,0.5-0.2
		l0.3,1.7c-0.3,0.1-0.7,0.3-1.1,0.3c-0.4,0.1-0.8,0.1-1.1,0.1c-0.7,0-1.3-0.2-1.7-0.6c-0.4-0.4-0.6-0.9-0.6-1.6L703.2,20.6
		L703.2,20.6z"/>
	<path class="st0" d="M712.3,33.1c-0.6,0-1.2-0.1-1.7-0.4c-0.5-0.2-1-0.6-1.3-1c-0.4-0.4-0.7-0.9-0.9-1.5s-0.3-1.2-0.3-1.8
		c0-0.6,0.1-1.2,0.3-1.8s0.5-1,0.8-1.5c0.4-0.4,0.8-0.7,1.3-1c0.5-0.2,1-0.4,1.6-0.4c0.7,0,1.3,0.2,1.8,0.5s0.9,0.7,1.2,1.2v-5.1
		h2.3v9.8c0,0.2,0,0.4,0.1,0.5s0.2,0.2,0.4,0.2V33c-0.4,0.1-0.7,0.1-1,0.1c-0.4,0-0.7-0.1-1-0.3s-0.4-0.5-0.4-0.8l-0.1-0.6
		c-0.3,0.6-0.8,1-1.3,1.3C713.5,33,712.9,33.1,712.3,33.1z M712.9,31.2c0.2,0,0.4,0,0.7-0.1c0.2-0.1,0.4-0.2,0.6-0.3
		c0.2-0.1,0.4-0.3,0.5-0.5c0.2-0.2,0.3-0.4,0.3-0.6v-2.1c-0.1-0.2-0.2-0.5-0.4-0.7s-0.4-0.4-0.6-0.5c-0.2-0.2-0.4-0.3-0.7-0.4
		c-0.2-0.1-0.5-0.1-0.7-0.1c-0.3,0-0.7,0.1-0.9,0.2c-0.3,0.1-0.5,0.3-0.7,0.6c-0.2,0.3-0.4,0.5-0.5,0.9s-0.2,0.7-0.2,1
		c0,0.4,0.1,0.7,0.2,1c0.1,0.3,0.3,0.6,0.5,0.8c0.2,0.2,0.5,0.4,0.8,0.6C712.2,31.1,712.5,31.2,712.9,31.2z"/>
	<path class="st0" d="M597.1,63v-8.5h3.6c0.4,0,0.7,0.1,1,0.2s0.6,0.4,0.8,0.6c0.2,0.3,0.4,0.6,0.5,0.9c0.1,0.3,0.2,0.7,0.2,1
		s0,0.6-0.1,0.9c-0.1,0.3-0.2,0.5-0.4,0.8c-0.2,0.2-0.3,0.4-0.6,0.6c-0.2,0.2-0.5,0.3-0.7,0.3l2.1,3.3h-1.2l-1.9-3.1h-2.3v3H597.1z
		 M598.2,59h2.6c0.2,0,0.4,0,0.6-0.1s0.3-0.2,0.5-0.4s0.2-0.4,0.3-0.6s0.1-0.4,0.1-0.7c0-0.2,0-0.5-0.1-0.7s-0.2-0.4-0.3-0.6
		c-0.1-0.2-0.3-0.3-0.5-0.4s-0.4-0.1-0.6-0.1h-2.5L598.2,59L598.2,59z"/>
	<path class="st0" d="M606.3,63.1c-0.3,0-0.6,0-0.8-0.2c-0.3-0.1-0.5-0.2-0.7-0.4s-0.3-0.4-0.4-0.6c-0.1-0.2-0.2-0.5-0.2-0.8
		s0.1-0.5,0.2-0.8c0.1-0.2,0.3-0.4,0.5-0.6c0.2-0.2,0.5-0.3,0.8-0.4s0.7-0.1,1.1-0.1c0.3,0,0.6,0,0.9,0.1c0.3,0.1,0.6,0.1,0.8,0.2
		V59c0-0.5-0.1-0.9-0.4-1.2s-0.7-0.4-1.2-0.4c-0.6,0-1.3,0.2-2,0.7l-0.3-0.7c0.8-0.5,1.6-0.8,2.4-0.8c0.8,0,1.5,0.2,1.9,0.7
		c0.5,0.4,0.7,1.1,0.7,1.9v2.6c0,0.2,0.1,0.4,0.3,0.4V63c-0.1,0-0.2,0-0.3,0s-0.1,0-0.2,0c-0.2,0-0.4-0.1-0.5-0.2s-0.2-0.3-0.2-0.5
		v-0.4c-0.3,0.4-0.6,0.7-1.1,0.9C607.2,63,606.8,63.1,606.3,63.1z M606.6,62.3c0.4,0,0.7-0.1,1-0.2s0.6-0.3,0.7-0.6
		c0.2-0.2,0.2-0.3,0.2-0.5v-0.9c-0.5-0.2-1-0.3-1.6-0.3c-0.5,0-1,0.1-1.3,0.3s-0.5,0.5-0.5,0.9c0,0.2,0,0.3,0.1,0.5s0.2,0.3,0.3,0.4
		c0.1,0.1,0.3,0.2,0.4,0.3C606.2,62.3,606.4,62.3,606.6,62.3z"/>
	<path class="st0" d="M611.4,54.2h1.1v7.1c0,0.2,0.1,0.4,0.2,0.5s0.3,0.2,0.5,0.2c0.1,0,0.2,0,0.3,0s0.2-0.1,0.3-0.1l0.2,0.9
		c-0.2,0.1-0.4,0.1-0.6,0.2c-0.2,0-0.5,0.1-0.6,0.1c-0.4,0-0.7-0.1-1-0.3c-0.2-0.2-0.4-0.6-0.4-1V54.2z"/>
	<path class="st0" d="M617.5,63.1c-0.5,0-0.9-0.1-1.3-0.3c-0.4-0.2-0.7-0.4-1-0.7s-0.5-0.6-0.7-1s-0.2-0.8-0.2-1.3
		c0-0.4,0.1-0.9,0.2-1.2c0.2-0.4,0.4-0.7,0.7-1s0.6-0.5,1-0.7s0.8-0.3,1.3-0.3s0.9,0.1,1.3,0.3c0.4,0.2,0.7,0.4,1,0.7s0.5,0.6,0.6,1
		s0.2,0.8,0.2,1.2c0,0.1,0,0.2,0,0.2c0,0.1,0,0.1,0,0.2h-5.2c0,0.3,0.1,0.6,0.2,0.9c0.1,0.3,0.3,0.5,0.5,0.7s0.4,0.3,0.7,0.4
		c0.2,0.1,0.5,0.2,0.8,0.2c0.2,0,0.4,0,0.6-0.1c0.2-0.1,0.4-0.1,0.5-0.2c0.2-0.1,0.3-0.2,0.4-0.3c0.1-0.1,0.2-0.3,0.3-0.4l0.9,0.3
		c-0.1,0.2-0.2,0.4-0.4,0.6c-0.2,0.2-0.4,0.4-0.6,0.5c-0.2,0.1-0.5,0.3-0.8,0.3S617.9,63.1,617.5,63.1z M619.7,59.4
		c0-0.3-0.1-0.6-0.2-0.8c-0.1-0.3-0.3-0.5-0.5-0.6c-0.2-0.2-0.4-0.3-0.7-0.4c-0.2-0.1-0.5-0.2-0.8-0.2s-0.5,0-0.8,0.2
		c-0.2,0.1-0.5,0.2-0.7,0.4s-0.3,0.4-0.5,0.6s-0.2,0.5-0.2,0.8H619.7z"/>
	<path class="st0" d="M629.5,56.7h1l-2.7,6.3H627l-1.3-3.1l-1.2,3.1h-0.9l-2.7-6.3h1l2.2,5.2l1.1-2.6l-1.1-2.6h0.9l0.8,2l0.8-2h0.9
		l-1.1,2.6l1.1,2.6L629.5,56.7z"/>
	<path class="st0" d="M633,63.1c-0.3,0-0.6,0-0.8-0.2c-0.3-0.1-0.5-0.2-0.7-0.4s-0.3-0.4-0.4-0.6c-0.1-0.2-0.2-0.5-0.2-0.8
		s0.1-0.5,0.2-0.8c0.1-0.2,0.3-0.4,0.5-0.6c0.2-0.2,0.5-0.3,0.8-0.4s0.7-0.1,1.1-0.1c0.3,0,0.6,0,0.9,0.1c0.3,0.1,0.6,0.1,0.8,0.2
		V59c0-0.5-0.1-0.9-0.4-1.2c-0.3-0.3-0.7-0.4-1.2-0.4c-0.6,0-1.3,0.2-2,0.7l-0.3-0.7c0.8-0.5,1.6-0.8,2.4-0.8c0.8,0,1.5,0.2,1.9,0.7
		c0.5,0.4,0.7,1.1,0.7,1.9v2.6c0,0.2,0.1,0.4,0.3,0.4V63c-0.1,0-0.2,0-0.3,0s-0.1,0-0.2,0c-0.2,0-0.4-0.1-0.5-0.2s-0.2-0.3-0.2-0.5
		v-0.4c-0.3,0.4-0.6,0.7-1.1,0.9C633.9,63,633.5,63.1,633,63.1z M633.3,62.3c0.4,0,0.7-0.1,1.1-0.2c0.3-0.1,0.6-0.3,0.7-0.6
		c0.2-0.2,0.2-0.3,0.2-0.5v-0.9c-0.5-0.2-1-0.3-1.6-0.3c-0.5,0-1,0.1-1.3,0.3s-0.5,0.5-0.5,0.9c0,0.2,0,0.3,0.1,0.5s0.2,0.3,0.3,0.4
		c0.1,0.1,0.3,0.2,0.4,0.3C632.9,62.3,633.1,62.3,633.3,62.3z"/>
	<path class="st0" d="M638.1,64.7c0.1,0,0.2,0,0.3,0s0.2,0,0.2,0c0.1,0,0.2,0,0.3-0.1s0.2-0.1,0.2-0.3s0.2-0.3,0.3-0.5
		s0.2-0.5,0.4-0.9l-2.7-6.3h1.1l2.1,5.3l1.9-5.3h1l-3,7.9c-0.1,0.3-0.3,0.5-0.6,0.7s-0.6,0.3-1.1,0.3c-0.1,0-0.1,0-0.2,0
		c-0.1,0-0.2,0-0.3,0L638.1,64.7L638.1,64.7z"/>
	<path class="st0" d="M650.4,57.6c-0.5,0-1,0.2-1.4,0.4c-0.4,0.3-0.7,0.6-0.9,1.1V63H647v-6.3h1v1.5c0.2-0.4,0.5-0.8,0.9-1.1
		s0.7-0.4,1.1-0.4c0.1,0,0.1,0,0.2,0c0.1,0,0.1,0,0.1,0v0.9H650.4z"/>
	<path class="st0" d="M654.1,63.1c-0.5,0-0.9-0.1-1.3-0.3c-0.4-0.2-0.7-0.4-1-0.7s-0.5-0.6-0.7-1s-0.2-0.8-0.2-1.3
		c0-0.4,0.1-0.9,0.2-1.2s0.4-0.7,0.7-1s0.6-0.5,1-0.7s0.8-0.3,1.3-0.3s0.9,0.1,1.3,0.3c0.4,0.2,0.7,0.4,1,0.7s0.5,0.6,0.6,1
		s0.2,0.8,0.2,1.2c0,0.1,0,0.2,0,0.2c0,0.1,0,0.1,0,0.2H652c0,0.3,0.1,0.6,0.2,0.9s0.3,0.5,0.5,0.7s0.4,0.3,0.7,0.4
		c0.2,0.1,0.5,0.2,0.8,0.2c0.2,0,0.4,0,0.6-0.1s0.4-0.1,0.5-0.2s0.3-0.2,0.4-0.3c0.1-0.1,0.2-0.3,0.3-0.4l0.9,0.3
		c-0.1,0.2-0.2,0.4-0.4,0.6c-0.2,0.2-0.4,0.4-0.6,0.5c-0.2,0.1-0.5,0.3-0.8,0.3S654.4,63.1,654.1,63.1z M656.2,59.4
		c0-0.3-0.1-0.6-0.2-0.8c-0.1-0.3-0.3-0.5-0.5-0.6c-0.2-0.2-0.4-0.3-0.7-0.4c-0.2-0.1-0.5-0.2-0.8-0.2s-0.5,0-0.8,0.2
		c-0.2,0.1-0.5,0.2-0.7,0.4s-0.3,0.4-0.5,0.6c-0.1,0.2-0.2,0.5-0.2,0.8H656.2z"/>
	<path class="st0" d="M660.9,63c-0.4,0-0.8-0.1-1.2-0.3s-0.7-0.4-0.9-0.7c-0.3-0.3-0.5-0.6-0.6-1s-0.2-0.8-0.2-1.2s0.1-0.9,0.2-1.3
		c0.1-0.4,0.3-0.7,0.6-1s0.6-0.5,0.9-0.7c0.4-0.2,0.8-0.3,1.2-0.3c0.5,0,1,0.1,1.4,0.4c0.4,0.3,0.7,0.6,1,1v-1.2h0.9v6.2
		c0,0.4-0.1,0.8-0.3,1.2c-0.2,0.3-0.4,0.6-0.7,0.9c-0.3,0.2-0.6,0.4-1,0.5s-0.8,0.2-1.2,0.2c-0.7,0-1.3-0.1-1.7-0.4
		c-0.4-0.2-0.8-0.6-1.1-1l0.6-0.5c0.2,0.4,0.6,0.6,1,0.8c0.4,0.2,0.8,0.3,1.3,0.3c0.3,0,0.6,0,0.8-0.1c0.3-0.1,0.5-0.2,0.7-0.4
		s0.3-0.4,0.5-0.6c0.1-0.2,0.2-0.5,0.2-0.9v-1.1c-0.1,0.2-0.3,0.4-0.4,0.5c-0.2,0.2-0.3,0.3-0.5,0.4c-0.2,0.1-0.4,0.2-0.6,0.2
		C661.3,63,661.1,63,660.9,63z M661.2,62.2c0.2,0,0.4,0,0.6-0.1s0.4-0.2,0.6-0.3c0.2-0.1,0.3-0.3,0.4-0.4c0.1-0.2,0.2-0.3,0.2-0.5
		V59c-0.1-0.2-0.2-0.4-0.3-0.6c-0.1-0.2-0.3-0.3-0.5-0.5c-0.2-0.1-0.4-0.2-0.6-0.3c-0.2-0.1-0.4-0.1-0.6-0.1c-0.3,0-0.6,0.1-0.9,0.2
		s-0.5,0.3-0.6,0.5s-0.3,0.5-0.4,0.8c-0.1,0.3-0.1,0.6-0.1,0.9c0,0.3,0.1,0.6,0.2,0.9s0.3,0.5,0.5,0.7s0.4,0.4,0.7,0.5
		S660.9,62.2,661.2,62.2z"/>
	<path class="st0" d="M667.8,63.1c-0.7,0-1.2-0.2-1.5-0.7c-0.3-0.4-0.5-1.1-0.5-2v-3.8h1.1v3.6c0,1.3,0.4,1.9,1.3,1.9
		c0.4,0,0.8-0.1,1.2-0.4c0.4-0.3,0.7-0.7,0.8-1.1v-3.9h1.1v5c0,0.2,0.1,0.4,0.3,0.4V63c-0.1,0-0.2,0-0.3,0s-0.1,0-0.2,0
		c-0.2,0-0.4-0.1-0.5-0.2c-0.1-0.1-0.2-0.3-0.2-0.5v-0.7c-0.3,0.5-0.6,0.8-1.1,1.1S668.4,63.1,667.8,63.1z"/>
	<path class="st0" d="M673.1,54.2h1.1v7.1c0,0.2,0.1,0.4,0.2,0.5c0.1,0.1,0.3,0.2,0.5,0.2c0.1,0,0.2,0,0.3,0s0.2-0.1,0.3-0.1
		l0.2,0.9c-0.2,0.1-0.4,0.1-0.6,0.2c-0.2,0-0.5,0.1-0.6,0.1c-0.4,0-0.7-0.1-1-0.3c-0.2-0.2-0.4-0.6-0.4-1V54.2z"/>
	<path class="st0" d="M678.1,63.1c-0.3,0-0.6,0-0.8-0.2c-0.3-0.1-0.5-0.2-0.7-0.4s-0.3-0.4-0.4-0.6c-0.1-0.2-0.2-0.5-0.2-0.8
		s0.1-0.5,0.2-0.8c0.1-0.2,0.3-0.4,0.5-0.6c0.2-0.2,0.5-0.3,0.8-0.4s0.7-0.1,1.1-0.1c0.3,0,0.6,0,0.9,0.1c0.3,0.1,0.6,0.1,0.8,0.2
		V59c0-0.5-0.1-0.9-0.4-1.2s-0.7-0.4-1.2-0.4c-0.6,0-1.3,0.2-2,0.7l-0.3-0.7c0.8-0.5,1.6-0.8,2.4-0.8c0.8,0,1.5,0.2,1.9,0.7
		c0.5,0.4,0.7,1.1,0.7,1.9v2.6c0,0.2,0.1,0.4,0.3,0.4V63c-0.1,0-0.2,0-0.3,0s-0.1,0-0.2,0c-0.2,0-0.4-0.1-0.5-0.2s-0.2-0.3-0.2-0.5
		v-0.4c-0.3,0.4-0.6,0.7-1.1,0.9C679.1,63,678.6,63.1,678.1,63.1z M678.4,62.3c0.4,0,0.7-0.1,1-0.2s0.6-0.3,0.7-0.6
		c0.2-0.2,0.2-0.3,0.2-0.5v-0.9c-0.5-0.2-1-0.3-1.6-0.3c-0.5,0-1,0.1-1.3,0.3s-0.5,0.5-0.5,0.9c0,0.2,0,0.3,0.1,0.5s0.2,0.3,0.3,0.4
		c0.1,0.1,0.3,0.2,0.4,0.3C678,62.3,678.2,62.3,678.4,62.3z"/>
	<path class="st0" d="M686.5,57.6c-0.5,0-1,0.2-1.4,0.4c-0.4,0.3-0.7,0.6-0.9,1.1V63h-1.1v-6.3h1v1.5c0.2-0.4,0.5-0.8,0.9-1.1
		s0.7-0.4,1.1-0.4c0.1,0,0.1,0,0.2,0c0.1,0,0.1,0,0.1,0v0.9H686.5z"/>
	<path class="st0" d="M690.3,55.5v-1.3h1.1v1.3H690.3z M690.3,63v-6.3h1.1V63H690.3z"/>
	<path class="st0" d="M695.2,63.1c-0.5,0-1-0.1-1.5-0.2c-0.5-0.2-0.9-0.4-1.3-0.7l0.5-0.7c0.4,0.3,0.7,0.5,1.1,0.6
		c0.4,0.1,0.8,0.2,1.2,0.2c0.5,0,0.8-0.1,1.1-0.3s0.4-0.4,0.4-0.8c0-0.2,0-0.3-0.1-0.4c-0.1-0.1-0.2-0.2-0.3-0.3s-0.3-0.2-0.6-0.2
		c-0.2-0.1-0.5-0.1-0.8-0.2c-0.4-0.1-0.7-0.2-1-0.3s-0.5-0.2-0.7-0.3s-0.3-0.3-0.4-0.4c-0.1-0.2-0.1-0.4-0.1-0.6
		c0-0.3,0.1-0.6,0.2-0.8c0.1-0.2,0.3-0.4,0.5-0.6c0.2-0.2,0.5-0.3,0.8-0.4s0.6-0.1,0.9-0.1c0.5,0,0.9,0.1,1.3,0.2
		c0.4,0.2,0.8,0.4,1,0.6l-0.5,0.6c-0.3-0.2-0.6-0.4-0.9-0.5s-0.7-0.2-1-0.2c-0.4,0-0.7,0.1-1,0.2c-0.3,0.2-0.4,0.4-0.4,0.8
		c0,0.1,0,0.3,0.1,0.4c0.1,0.1,0.1,0.2,0.3,0.3c0.1,0.1,0.3,0.1,0.5,0.2c0.2,0.1,0.4,0.1,0.7,0.2c0.4,0.1,0.8,0.2,1.1,0.3
		s0.6,0.2,0.8,0.4c0.2,0.1,0.4,0.3,0.5,0.5s0.2,0.4,0.2,0.7c0,0.6-0.2,1-0.7,1.4C696.6,62.9,696,63.1,695.2,63.1z"/>
	<path class="st0" d="M704.8,63.1c-0.5,0-0.9-0.1-1.3-0.3c-0.4-0.2-0.7-0.4-1-0.7s-0.5-0.6-0.7-1s-0.2-0.8-0.2-1.3
		c0-0.4,0.1-0.9,0.2-1.2s0.4-0.7,0.7-1s0.6-0.5,1-0.7s0.8-0.3,1.3-0.3s0.9,0.1,1.3,0.3c0.4,0.2,0.7,0.4,1,0.7s0.5,0.6,0.6,1
		s0.2,0.8,0.2,1.2c0,0.1,0,0.2,0,0.2c0,0.1,0,0.1,0,0.2h-5.2c0,0.3,0.1,0.6,0.2,0.9s0.3,0.5,0.5,0.7s0.4,0.3,0.7,0.4
		c0.2,0.1,0.5,0.2,0.8,0.2c0.2,0,0.4,0,0.6-0.1s0.4-0.1,0.5-0.2s0.3-0.2,0.4-0.3c0.1-0.1,0.2-0.3,0.3-0.4l0.9,0.3
		c-0.1,0.2-0.2,0.4-0.4,0.6c-0.2,0.2-0.4,0.4-0.6,0.5c-0.2,0.1-0.5,0.3-0.8,0.3S705.1,63.1,704.8,63.1z M706.9,59.4
		c0-0.3-0.1-0.6-0.2-0.8c-0.1-0.3-0.3-0.5-0.5-0.6c-0.2-0.2-0.4-0.3-0.7-0.4c-0.2-0.1-0.5-0.2-0.8-0.2s-0.5,0-0.8,0.2
		c-0.2,0.1-0.5,0.2-0.7,0.4s-0.3,0.4-0.5,0.6c-0.1,0.2-0.2,0.5-0.2,0.8H706.9z"/>
	<path class="st0" d="M711.9,63.1c-0.5,0-0.9-0.1-1.3-0.3c-0.4-0.2-0.7-0.4-1-0.7s-0.5-0.6-0.7-1s-0.2-0.8-0.2-1.3
		c0-0.4,0.1-0.9,0.2-1.2s0.4-0.7,0.7-1s0.6-0.5,1-0.7s0.8-0.3,1.3-0.3s0.9,0.1,1.3,0.3c0.4,0.2,0.7,0.4,1,0.7s0.5,0.6,0.6,1
		s0.2,0.8,0.2,1.2c0,0.1,0,0.2,0,0.2c0,0.1,0,0.1,0,0.2h-5.2c0,0.3,0.1,0.6,0.2,0.9s0.3,0.5,0.5,0.7s0.4,0.3,0.7,0.4
		c0.2,0.1,0.5,0.2,0.8,0.2c0.2,0,0.4,0,0.6-0.1s0.4-0.1,0.5-0.2s0.3-0.2,0.4-0.3c0.1-0.1,0.2-0.3,0.3-0.4l0.9,0.3
		c-0.1,0.2-0.2,0.4-0.4,0.6c-0.2,0.2-0.4,0.4-0.6,0.5c-0.2,0.1-0.5,0.3-0.8,0.3S712.2,63.1,711.9,63.1z M714,59.4
		c0-0.3-0.1-0.6-0.2-0.8c-0.1-0.3-0.3-0.5-0.5-0.6c-0.2-0.2-0.4-0.3-0.7-0.4c-0.2-0.1-0.5-0.2-0.8-0.2s-0.5,0-0.8,0.2
		c-0.2,0.1-0.5,0.2-0.7,0.4s-0.3,0.4-0.5,0.6c-0.1,0.2-0.2,0.5-0.2,0.8H714z"/>
	<path class="st0" d="M721.6,63h-1.1v-3.5c0-0.7-0.1-1.2-0.3-1.5s-0.5-0.5-0.9-0.5c-0.2,0-0.4,0-0.6,0.1s-0.4,0.2-0.6,0.3
		c-0.2,0.1-0.4,0.3-0.5,0.5s-0.3,0.4-0.3,0.7V63h-1.1v-6.3h1V58c0.2-0.4,0.6-0.8,1.1-1.1s1-0.4,1.5-0.4c0.4,0,0.7,0.1,0.9,0.2
		s0.4,0.3,0.6,0.6c0.1,0.2,0.2,0.5,0.3,0.8s0.1,0.7,0.1,1V63H721.6z"/>
	<path class="st0" d="M726.3,54.2h1.1v7.1c0,0.2,0.1,0.4,0.2,0.5s0.3,0.2,0.5,0.2c0.1,0,0.2,0,0.3,0s0.2-0.1,0.3-0.1l0.2,0.9
		c-0.2,0.1-0.4,0.1-0.6,0.2c-0.2,0-0.5,0.1-0.6,0.1c-0.4,0-0.7-0.1-1-0.3c-0.2-0.2-0.4-0.6-0.4-1V54.2z"/>
	<path class="st0" d="M731.7,63.1c-0.7,0-1.2-0.2-1.5-0.7c-0.3-0.4-0.5-1.1-0.5-2v-3.8h1.1v3.6c0,1.3,0.4,1.9,1.3,1.9
		c0.4,0,0.8-0.1,1.2-0.4s0.7-0.7,0.8-1.1v-3.9h1.1v5c0,0.2,0.1,0.4,0.3,0.4V63c-0.1,0-0.2,0-0.3,0s-0.1,0-0.2,0
		c-0.2,0-0.4-0.1-0.5-0.2c-0.1-0.1-0.2-0.3-0.2-0.5v-0.7c-0.3,0.5-0.6,0.8-1.1,1.1C732.7,63,732.2,63.1,731.7,63.1z"/>
	<path class="st0" d="M736.5,59.8c0-0.4,0.1-0.9,0.2-1.2c0.2-0.4,0.4-0.7,0.6-1c0.3-0.3,0.6-0.5,1-0.7s0.8-0.3,1.3-0.3
		c0.6,0,1.2,0.1,1.6,0.4c0.5,0.3,0.8,0.6,1,1.1l-1,0.3c-0.2-0.3-0.4-0.5-0.7-0.7s-0.6-0.2-1-0.2c-0.3,0-0.6,0.1-0.8,0.2
		s-0.5,0.3-0.7,0.5s-0.3,0.5-0.4,0.7c-0.1,0.3-0.2,0.6-0.2,0.9c0,0.3,0.1,0.6,0.2,0.9s0.3,0.5,0.5,0.8c0.2,0.2,0.4,0.4,0.7,0.5
		s0.5,0.2,0.8,0.2c0.2,0,0.4,0,0.5-0.1s0.3-0.1,0.5-0.2s0.3-0.2,0.4-0.3s0.2-0.2,0.2-0.4l1,0.3c-0.1,0.2-0.2,0.4-0.4,0.6
		c-0.2,0.2-0.4,0.4-0.6,0.5c-0.2,0.1-0.5,0.2-0.8,0.3s-0.6,0.1-0.9,0.1c-0.5,0-0.9-0.1-1.3-0.3c-0.4-0.2-0.7-0.4-1-0.7
		s-0.5-0.6-0.7-1C736.6,60.7,736.5,60.3,736.5,59.8z"/>
	<text transform="matrix(1 0 0 1 741.75 62.8898)" class="st0 st1 st2">h</text>
	<rect x="733.3" y="-21.9" style="fill:none;" width="13.8" height="3"/>
	<path class="st0" d="M751.8,62.7c-0.1,0-0.1,0.1-0.3,0.1c-0.1,0-0.2,0.1-0.4,0.1c-0.1,0-0.3,0.1-0.4,0.1s-0.3,0-0.5,0
		c-0.4,0-0.7-0.1-1-0.3s-0.4-0.5-0.4-1v-4.2H748v-0.8h0.9v-2.1h1.1v2.1h1.4v0.8H750v3.9c0,0.2,0.1,0.4,0.2,0.5
		c0.1,0.1,0.3,0.2,0.5,0.2s0.4,0,0.6-0.1c0.2-0.1,0.3-0.1,0.4-0.2L751.8,62.7z"/>
	<path class="st0" d="M752.8,55.5v-1.3h1.1v1.3H752.8z M752.8,63v-6.3h1.1V63H752.8z"/>
	<path class="st0" d="M758.1,63c-0.4,0-0.8-0.1-1.2-0.3s-0.7-0.4-0.9-0.7c-0.3-0.3-0.5-0.6-0.6-1s-0.2-0.8-0.2-1.2s0.1-0.9,0.2-1.3
		c0.1-0.4,0.3-0.7,0.6-1s0.6-0.5,0.9-0.7c0.4-0.2,0.8-0.3,1.2-0.3c0.5,0,1,0.1,1.4,0.4c0.4,0.3,0.7,0.6,1,1v-1.2h0.9v6.2
		c0,0.4-0.1,0.8-0.3,1.2c-0.2,0.3-0.4,0.6-0.7,0.9c-0.3,0.2-0.6,0.4-1,0.5s-0.8,0.2-1.2,0.2c-0.7,0-1.3-0.1-1.7-0.4
		c-0.4-0.2-0.8-0.6-1.1-1l0.6-0.5c0.2,0.4,0.6,0.6,1,0.8c0.4,0.2,0.8,0.3,1.3,0.3c0.3,0,0.6,0,0.8-0.1s0.5-0.2,0.7-0.4
		c0.2-0.2,0.3-0.4,0.5-0.6c0.1-0.2,0.2-0.5,0.2-0.9v-1.1c-0.1,0.2-0.3,0.4-0.4,0.5c-0.2,0.2-0.3,0.3-0.5,0.4
		c-0.2,0.1-0.4,0.2-0.6,0.2C758.5,63,758.3,63,758.1,63z M758.4,62.2c0.2,0,0.4,0,0.6-0.1s0.4-0.2,0.6-0.3c0.2-0.1,0.3-0.3,0.4-0.4
		c0.1-0.2,0.2-0.3,0.2-0.5V59c-0.1-0.2-0.2-0.4-0.3-0.6s-0.3-0.3-0.5-0.5s-0.4-0.2-0.6-0.3c-0.2-0.1-0.4-0.1-0.6-0.1
		c-0.3,0-0.6,0.1-0.9,0.2c-0.3,0.1-0.5,0.3-0.6,0.5c-0.2,0.2-0.3,0.5-0.4,0.8c-0.1,0.3-0.1,0.6-0.1,0.9c0,0.3,0.1,0.6,0.2,0.9
		s0.3,0.5,0.5,0.7s0.4,0.4,0.7,0.5C757.8,62.1,758.1,62.2,758.4,62.2z"/>
	<path class="st0" d="M596.9,69.2h1.1v7.1c0,0.2,0.1,0.4,0.2,0.5c0.1,0.1,0.3,0.2,0.5,0.2c0.1,0,0.2,0,0.3,0s0.2-0.1,0.3-0.1
		l0.2,0.9c-0.2,0.1-0.4,0.1-0.6,0.2c-0.2,0-0.5,0.1-0.6,0.1c-0.4,0-0.7-0.1-1-0.3c-0.2-0.2-0.4-0.6-0.4-1V69.2z"/>
	<path class="st0" d="M603.1,78.1c-0.5,0-0.9-0.1-1.3-0.3c-0.4-0.2-0.7-0.4-1-0.7s-0.5-0.6-0.7-1s-0.2-0.8-0.2-1.3
		c0-0.4,0.1-0.9,0.2-1.2c0.2-0.4,0.4-0.7,0.7-1s0.6-0.5,1-0.7s0.8-0.3,1.3-0.3s0.9,0.1,1.3,0.3c0.4,0.2,0.7,0.4,1,0.7
		c0.3,0.3,0.5,0.6,0.6,1s0.2,0.8,0.2,1.2c0,0.1,0,0.2,0,0.2c0,0.1,0,0.1,0,0.2H601c0,0.3,0.1,0.6,0.2,0.9c0.1,0.3,0.3,0.5,0.5,0.7
		s0.4,0.3,0.7,0.4c0.2,0.1,0.5,0.2,0.8,0.2c0.2,0,0.4,0,0.6-0.1c0.2-0.1,0.4-0.1,0.5-0.2c0.2-0.1,0.3-0.2,0.4-0.3
		c0.1-0.1,0.2-0.3,0.3-0.4l0.9,0.3c-0.1,0.2-0.2,0.4-0.4,0.6s-0.4,0.4-0.6,0.5c-0.2,0.1-0.5,0.3-0.8,0.3S603.4,78.1,603.1,78.1z
		 M605.3,74.4c0-0.3-0.1-0.6-0.2-0.8c-0.1-0.3-0.3-0.5-0.5-0.6c-0.2-0.2-0.4-0.3-0.7-0.4c-0.2-0.1-0.5-0.2-0.8-0.2s-0.5,0-0.8,0.2
		c-0.2,0.1-0.5,0.2-0.7,0.4c-0.2,0.2-0.3,0.4-0.5,0.6s-0.2,0.5-0.2,0.8H605.3z"/>
	<path class="st0" d="M610.6,77.7c-0.1,0-0.1,0.1-0.3,0.1s-0.2,0.1-0.4,0.1c-0.1,0-0.3,0.1-0.4,0.1c-0.2,0-0.3,0-0.5,0
		c-0.4,0-0.7-0.1-1-0.3c-0.3-0.2-0.4-0.5-0.4-1v-4.2h-0.9v-0.8h0.9v-2.1h1.1v2.1h1.4v0.8h-1.4v3.9c0,0.2,0.1,0.4,0.2,0.5
		c0.1,0.1,0.3,0.2,0.5,0.2s0.4,0,0.6-0.1c0.2-0.1,0.3-0.1,0.4-0.2L610.6,77.7z"/>
	<path class="st0" d="M614.8,77.7c-0.1,0-0.1,0.1-0.3,0.1s-0.2,0.1-0.4,0.1c-0.1,0-0.3,0.1-0.4,0.1s-0.3,0-0.5,0
		c-0.4,0-0.7-0.1-1-0.3c-0.3-0.2-0.4-0.5-0.4-1v-4.2H611v-0.8h0.9v-2.1h1.1v2.1h1.4v0.8H613v3.9c0,0.2,0.1,0.4,0.2,0.5
		c0.1,0.1,0.3,0.2,0.5,0.2s0.4,0,0.6-0.1c0.2-0.1,0.3-0.1,0.4-0.2L614.8,77.7z"/>
	<path class="st0" d="M618.5,78.1c-0.5,0-0.9-0.1-1.3-0.3c-0.4-0.2-0.7-0.4-1-0.7c-0.3-0.3-0.5-0.6-0.7-1s-0.2-0.8-0.2-1.3
		c0-0.4,0.1-0.9,0.2-1.2s0.4-0.7,0.7-1s0.6-0.5,1-0.7s0.8-0.3,1.3-0.3s0.9,0.1,1.3,0.3c0.4,0.2,0.7,0.4,1,0.7c0.3,0.3,0.5,0.6,0.6,1
		s0.2,0.8,0.2,1.2c0,0.1,0,0.2,0,0.2c0,0.1,0,0.1,0,0.2h-5.2c0,0.3,0.1,0.6,0.2,0.9s0.3,0.5,0.5,0.7s0.4,0.3,0.7,0.4
		c0.2,0.1,0.5,0.2,0.8,0.2c0.2,0,0.4,0,0.6-0.1s0.4-0.1,0.5-0.2s0.3-0.2,0.4-0.3c0.1-0.1,0.2-0.3,0.3-0.4l0.9,0.3
		c-0.1,0.2-0.2,0.4-0.4,0.6s-0.4,0.4-0.6,0.5c-0.2,0.1-0.5,0.3-0.8,0.3S618.8,78.1,618.5,78.1z M620.6,74.4c0-0.3-0.1-0.6-0.2-0.8
		c-0.1-0.3-0.3-0.5-0.5-0.6c-0.2-0.2-0.4-0.3-0.7-0.4c-0.2-0.1-0.5-0.2-0.8-0.2s-0.5,0-0.8,0.2c-0.2,0.1-0.5,0.2-0.7,0.4
		c-0.2,0.2-0.3,0.4-0.5,0.6c-0.1,0.2-0.2,0.5-0.2,0.8H620.6z"/>
	<path class="st0" d="M626.1,72.6c-0.5,0-1,0.2-1.4,0.4c-0.4,0.3-0.7,0.6-0.9,1.1V78h-1.1v-6.3h1v1.5c0.2-0.4,0.5-0.8,0.9-1.1
		c0.4-0.3,0.7-0.4,1.1-0.4c0.1,0,0.1,0,0.2,0s0.1,0,0.1,0v0.9H626.1z"/>
	<path class="st0" d="M630.4,77.7c-0.1,0-0.1,0.1-0.3,0.1s-0.2,0.1-0.4,0.1c-0.1,0-0.3,0.1-0.4,0.1s-0.3,0-0.5,0
		c-0.4,0-0.7-0.1-1-0.3c-0.3-0.2-0.4-0.5-0.4-1v-4.2h-0.9v-0.8h0.9v-2.1h1.1v2.1h1.4v0.8h-1.4v3.9c0,0.2,0.1,0.4,0.2,0.5
		c0.1,0.1,0.3,0.2,0.5,0.2s0.4,0,0.6-0.1c0.2-0.1,0.3-0.1,0.4-0.2L630.4,77.7z"/>
	<path class="st0" d="M631.7,79.7c0.1,0,0.2,0,0.3,0s0.2,0,0.2,0c0.1,0,0.2,0,0.3-0.1c0.1,0,0.2-0.1,0.2-0.3
		c0.1-0.1,0.2-0.3,0.3-0.5s0.2-0.5,0.4-0.9l-2.7-6.3h1.1l2.1,5.3l1.9-5.3h1l-3,7.9c-0.1,0.3-0.3,0.5-0.6,0.7s-0.6,0.3-1.1,0.3
		c-0.1,0-0.1,0-0.2,0c-0.1,0-0.2,0-0.3,0L631.7,79.7L631.7,79.7z"/>
	<path class="st0" d="M641.3,78.1c-0.5,0-1-0.1-1.4-0.4s-0.7-0.6-0.9-1v3.8h-1.1v-8.8h0.9v1.2c0.2-0.4,0.6-0.7,1-0.9
		c0.4-0.2,0.8-0.4,1.3-0.4c0.4,0,0.8,0.1,1.2,0.3c0.4,0.2,0.7,0.4,0.9,0.7c0.3,0.3,0.5,0.6,0.6,1s0.2,0.8,0.2,1.2
		c0,0.4-0.1,0.9-0.2,1.3c-0.1,0.4-0.3,0.7-0.6,1s-0.5,0.5-0.9,0.7S641.7,78.1,641.3,78.1z M641,77.2c0.3,0,0.6-0.1,0.8-0.2
		s0.5-0.3,0.6-0.5c0.2-0.2,0.3-0.5,0.4-0.8c0.1-0.3,0.1-0.6,0.1-0.9s-0.1-0.6-0.2-0.9c-0.1-0.3-0.3-0.5-0.5-0.7s-0.4-0.4-0.7-0.5
		s-0.5-0.2-0.8-0.2c-0.2,0-0.4,0-0.6,0.1c-0.2,0.1-0.4,0.2-0.6,0.3c-0.2,0.1-0.3,0.3-0.5,0.4c-0.1,0.2-0.2,0.4-0.3,0.5v1.8
		c0.1,0.2,0.2,0.4,0.3,0.6s0.3,0.3,0.5,0.5s0.4,0.2,0.6,0.3C640.6,77.1,640.8,77.2,641,77.2z"/>
	<path class="st0" d="M648.2,78.1c-0.5,0-0.9-0.1-1.3-0.3c-0.4-0.2-0.7-0.4-1-0.7c-0.3-0.3-0.5-0.6-0.7-1s-0.2-0.8-0.2-1.3
		c0-0.4,0.1-0.9,0.2-1.2s0.4-0.7,0.7-1s0.6-0.5,1-0.7s0.8-0.3,1.3-0.3s0.9,0.1,1.3,0.3c0.4,0.2,0.7,0.4,1,0.7c0.3,0.3,0.5,0.6,0.6,1
		s0.2,0.8,0.2,1.2c0,0.1,0,0.2,0,0.2c0,0.1,0,0.1,0,0.2h-5.2c0,0.3,0.1,0.6,0.2,0.9s0.3,0.5,0.5,0.7s0.4,0.3,0.7,0.4
		c0.2,0.1,0.5,0.2,0.8,0.2c0.2,0,0.4,0,0.6-0.1s0.4-0.1,0.5-0.2s0.3-0.2,0.4-0.3c0.1-0.1,0.2-0.3,0.3-0.4l0.9,0.3
		c-0.1,0.2-0.2,0.4-0.4,0.6s-0.4,0.4-0.6,0.5c-0.2,0.1-0.5,0.3-0.8,0.3S648.5,78.1,648.2,78.1z M650.3,74.4c0-0.3-0.1-0.6-0.2-0.8
		c-0.1-0.3-0.3-0.5-0.5-0.6c-0.2-0.2-0.4-0.3-0.7-0.4c-0.2-0.1-0.5-0.2-0.8-0.2s-0.5,0-0.8,0.2c-0.2,0.1-0.5,0.2-0.7,0.4
		c-0.2,0.2-0.3,0.4-0.5,0.6c-0.1,0.2-0.2,0.5-0.2,0.8H650.3z"/>
	<path class="st0" d="M665,78h-1.1v-3.5c0-0.7-0.1-1.1-0.3-1.5c-0.2-0.3-0.5-0.5-0.9-0.5s-0.8,0.2-1.2,0.5c-0.3,0.3-0.6,0.7-0.7,1.2
		V78h-1.1v-3.5c0-0.7-0.1-1.2-0.3-1.5s-0.5-0.5-0.9-0.5s-0.8,0.1-1.2,0.5c-0.3,0.3-0.6,0.7-0.7,1.2V78h-1.1v-6.3h1V73
		c0.3-0.5,0.6-0.8,1-1.1c0.4-0.3,0.9-0.4,1.4-0.4s0.9,0.1,1.3,0.4c0.3,0.3,0.5,0.7,0.6,1.1c0.6-1,1.4-1.5,2.4-1.5
		c0.4,0,0.7,0.1,0.9,0.2s0.4,0.3,0.6,0.6c0.1,0.2,0.2,0.5,0.3,0.8s0.1,0.7,0.1,1L665,78L665,78z"/>
	<path class="st0" d="M669.4,78.1c-0.5,0-0.9-0.1-1.3-0.3c-0.4-0.2-0.7-0.4-1-0.7s-0.5-0.6-0.7-1s-0.2-0.8-0.2-1.3
		c0-0.4,0.1-0.9,0.2-1.2c0.2-0.4,0.4-0.7,0.7-1s0.6-0.5,1-0.7s0.8-0.3,1.3-0.3s0.9,0.1,1.3,0.3c0.4,0.2,0.7,0.4,1,0.7
		c0.3,0.3,0.5,0.6,0.6,1s0.2,0.8,0.2,1.2c0,0.1,0,0.2,0,0.2c0,0.1,0,0.1,0,0.2h-5.2c0,0.3,0.1,0.6,0.2,0.9c0.1,0.3,0.3,0.5,0.5,0.7
		s0.4,0.3,0.7,0.4c0.2,0.1,0.5,0.2,0.8,0.2c0.2,0,0.4,0,0.6-0.1c0.2-0.1,0.4-0.1,0.5-0.2c0.2-0.1,0.3-0.2,0.4-0.3
		c0.1-0.1,0.2-0.3,0.3-0.4l0.9,0.3c-0.1,0.2-0.2,0.4-0.4,0.6s-0.4,0.4-0.6,0.5c-0.2,0.1-0.5,0.3-0.8,0.3S669.7,78.1,669.4,78.1z
		 M671.6,74.4c0-0.3-0.1-0.6-0.2-0.8c-0.1-0.3-0.3-0.5-0.5-0.6c-0.2-0.2-0.4-0.3-0.7-0.4c-0.2-0.1-0.5-0.2-0.8-0.2s-0.5,0-0.8,0.2
		c-0.2,0.1-0.5,0.2-0.7,0.4c-0.2,0.2-0.3,0.4-0.5,0.6s-0.2,0.5-0.2,0.8H671.6z"/>
	<path class="st0" d="M676.9,77.7c-0.1,0-0.1,0.1-0.3,0.1s-0.2,0.1-0.4,0.1c-0.1,0-0.3,0.1-0.4,0.1c-0.2,0-0.3,0-0.5,0
		c-0.4,0-0.7-0.1-1-0.3c-0.3-0.2-0.4-0.5-0.4-1v-4.2H673v-0.8h0.9v-2.1h1.1v2.1h1.4v0.8H675v3.9c0,0.2,0.1,0.4,0.2,0.5
		c0.1,0.1,0.3,0.2,0.5,0.2s0.4,0,0.6-0.1c0.2-0.1,0.3-0.1,0.4-0.2L676.9,77.7z"/>
	<path class="st0" d="M683.4,78c-0.4,0-0.8-0.1-1.2-0.3c-0.4-0.2-0.7-0.4-0.9-0.7c-0.3-0.3-0.5-0.6-0.6-1s-0.2-0.8-0.2-1.2
		c0-0.4,0.1-0.9,0.2-1.3c0.1-0.4,0.3-0.7,0.6-1s0.6-0.5,0.9-0.7c0.4-0.2,0.8-0.3,1.2-0.3c0.5,0,1,0.1,1.4,0.4s0.7,0.6,1,1v-1.2h0.9
		v6.2c0,0.4-0.1,0.8-0.3,1.2c-0.2,0.3-0.4,0.6-0.7,0.9c-0.3,0.2-0.6,0.4-1,0.5s-0.8,0.2-1.2,0.2c-0.7,0-1.3-0.1-1.7-0.4
		s-0.8-0.6-1.1-1l0.6-0.5c0.2,0.4,0.6,0.6,1,0.8c0.4,0.2,0.8,0.3,1.3,0.3c0.3,0,0.6,0,0.8-0.1s0.5-0.2,0.7-0.4
		c0.2-0.2,0.3-0.4,0.5-0.6c0.1-0.2,0.2-0.5,0.2-0.9v-1.1c-0.1,0.2-0.3,0.4-0.4,0.5c-0.2,0.2-0.3,0.3-0.5,0.4s-0.4,0.2-0.6,0.2
		C683.9,78,683.6,78,683.4,78z M683.7,77.2c0.2,0,0.4,0,0.6-0.1c0.2-0.1,0.4-0.2,0.6-0.3c0.2-0.1,0.3-0.3,0.4-0.4
		c0.1-0.2,0.2-0.3,0.2-0.5V74c-0.1-0.2-0.2-0.4-0.3-0.6s-0.3-0.3-0.5-0.5s-0.4-0.2-0.6-0.3c-0.2-0.1-0.4-0.1-0.6-0.1
		c-0.3,0-0.6,0.1-0.9,0.2c-0.3,0.1-0.5,0.3-0.6,0.5s-0.3,0.5-0.4,0.8s-0.1,0.6-0.1,0.9s0.1,0.6,0.2,0.9c0.1,0.3,0.3,0.5,0.5,0.7
		s0.4,0.4,0.7,0.5S683.4,77.2,683.7,77.2z"/>
	<path class="st0" d="M691.7,72.6c-0.5,0-1,0.2-1.4,0.4s-0.7,0.6-0.9,1.1V78h-1.1v-6.3h1v1.5c0.2-0.4,0.5-0.8,0.9-1.1
		c0.4-0.3,0.7-0.4,1.1-0.4c0.1,0,0.1,0,0.2,0c0.1,0,0.1,0,0.1,0v0.9H691.7z"/>
	<path class="st0" d="M695.4,78.1c-0.5,0-0.9-0.1-1.3-0.3c-0.4-0.2-0.7-0.4-1-0.7c-0.3-0.3-0.5-0.6-0.6-1s-0.2-0.8-0.2-1.2
		c0-0.4,0.1-0.9,0.2-1.2c0.2-0.4,0.4-0.7,0.6-1c0.3-0.3,0.6-0.5,1-0.7s0.8-0.3,1.3-0.3s0.9,0.1,1.3,0.3c0.4,0.2,0.7,0.4,1,0.7
		c0.3,0.3,0.5,0.6,0.6,1c0.2,0.4,0.2,0.8,0.2,1.2c0,0.4-0.1,0.8-0.2,1.2s-0.4,0.7-0.6,1c-0.3,0.3-0.6,0.5-1,0.7
		C696.3,78,695.8,78.1,695.4,78.1z M693.3,74.9c0,0.3,0.1,0.6,0.2,0.9c0.1,0.3,0.3,0.5,0.4,0.7c0.2,0.2,0.4,0.4,0.7,0.5
		s0.5,0.2,0.8,0.2s0.6-0.1,0.8-0.2s0.5-0.3,0.7-0.5s0.3-0.5,0.5-0.7s0.2-0.6,0.2-0.9s-0.1-0.6-0.2-0.9s-0.3-0.5-0.5-0.7
		s-0.4-0.4-0.7-0.5s-0.5-0.2-0.8-0.2s-0.6,0.1-0.8,0.2c-0.3,0.1-0.5,0.3-0.7,0.5s-0.3,0.5-0.4,0.7C693.3,74.2,693.3,74.5,693.3,74.9
		z"/>
	<path class="st0" d="M703,77.7c-0.1,0-0.1,0.1-0.3,0.1s-0.2,0.1-0.4,0.1c-0.1,0-0.3,0.1-0.4,0.1s-0.3,0-0.5,0c-0.4,0-0.7-0.1-1-0.3
		c-0.3-0.2-0.4-0.5-0.4-1v-4.2h-0.9v-0.8h0.9v-2.1h1.1v2.1h1.4v0.8h-1.4v3.9c0,0.2,0.1,0.4,0.2,0.5c0.1,0.1,0.3,0.2,0.5,0.2
		s0.4,0,0.6-0.1c0.2-0.1,0.3-0.1,0.4-0.2L703,77.7z"/>
	<path class="st0" d="M706.6,78.1c-0.5,0-0.9-0.1-1.3-0.3c-0.4-0.2-0.7-0.4-1-0.7c-0.3-0.3-0.5-0.6-0.7-1s-0.2-0.8-0.2-1.3
		c0-0.4,0.1-0.9,0.2-1.2s0.4-0.7,0.7-1s0.6-0.5,1-0.7s0.8-0.3,1.3-0.3s0.9,0.1,1.3,0.3c0.4,0.2,0.7,0.4,1,0.7c0.3,0.3,0.5,0.6,0.6,1
		s0.2,0.8,0.2,1.2c0,0.1,0,0.2,0,0.2c0,0.1,0,0.1,0,0.2h-5.2c0,0.3,0.1,0.6,0.2,0.9s0.3,0.5,0.5,0.7s0.4,0.3,0.7,0.4
		c0.2,0.1,0.5,0.2,0.8,0.2c0.2,0,0.4,0,0.6-0.1s0.4-0.1,0.5-0.2s0.3-0.2,0.4-0.3c0.1-0.1,0.2-0.3,0.3-0.4l0.9,0.3
		c-0.1,0.2-0.2,0.4-0.4,0.6s-0.4,0.4-0.6,0.5c-0.2,0.1-0.5,0.3-0.8,0.3S706.9,78.1,706.6,78.1z M708.8,74.4c0-0.3-0.1-0.6-0.2-0.8
		c-0.1-0.3-0.3-0.5-0.5-0.6c-0.2-0.2-0.4-0.3-0.7-0.4c-0.2-0.1-0.5-0.2-0.8-0.2s-0.5,0-0.8,0.2c-0.2,0.1-0.5,0.2-0.7,0.4
		c-0.2,0.2-0.3,0.4-0.5,0.6c-0.1,0.2-0.2,0.5-0.2,0.8H708.8z"/>
	<path class="st0" d="M714,69.2h1.1v7.1c0,0.2,0.1,0.4,0.2,0.5s0.3,0.2,0.5,0.2c0.1,0,0.2,0,0.3,0s0.2-0.1,0.3-0.1l0.2,0.9
		c-0.2,0.1-0.4,0.1-0.6,0.2c-0.2,0-0.5,0.1-0.6,0.1c-0.4,0-0.7-0.1-1-0.3c-0.2-0.2-0.4-0.6-0.4-1V69.2z"/>
	<path class="st0" d="M720.2,78.1c-0.5,0-0.9-0.1-1.3-0.3c-0.4-0.2-0.7-0.4-1-0.7c-0.3-0.3-0.5-0.6-0.7-1s-0.2-0.8-0.2-1.3
		c0-0.4,0.1-0.9,0.2-1.2s0.4-0.7,0.7-1s0.6-0.5,1-0.7s0.8-0.3,1.3-0.3s0.9,0.1,1.3,0.3c0.4,0.2,0.7,0.4,1,0.7s0.5,0.6,0.6,1
		s0.2,0.8,0.2,1.2c0,0.1,0,0.2,0,0.2c0,0.1,0,0.1,0,0.2h-5.2c0,0.3,0.1,0.6,0.2,0.9c0.1,0.3,0.3,0.5,0.5,0.7s0.4,0.3,0.7,0.4
		c0.2,0.1,0.5,0.2,0.8,0.2c0.2,0,0.4,0,0.6-0.1c0.2-0.1,0.4-0.1,0.5-0.2s0.3-0.2,0.4-0.3s0.2-0.3,0.3-0.4l0.9,0.3
		c-0.1,0.2-0.2,0.4-0.4,0.6s-0.4,0.4-0.6,0.5c-0.2,0.1-0.5,0.3-0.8,0.3C720.8,78.1,720.5,78.1,720.2,78.1z M722.3,74.4
		c0-0.3-0.1-0.6-0.2-0.8s-0.3-0.5-0.5-0.6s-0.4-0.3-0.7-0.4c-0.2-0.1-0.5-0.2-0.8-0.2s-0.5,0-0.8,0.2c-0.2,0.1-0.5,0.2-0.7,0.4
		c-0.2,0.2-0.3,0.4-0.5,0.6c-0.1,0.2-0.2,0.5-0.2,0.8H722.3z"/>
	<path class="st0" d="M727.7,77.7c-0.1,0-0.1,0.1-0.3,0.1c-0.1,0-0.2,0.1-0.4,0.1c-0.1,0-0.3,0.1-0.4,0.1s-0.3,0-0.5,0
		c-0.4,0-0.7-0.1-1-0.3c-0.3-0.2-0.4-0.5-0.4-1v-4.2h-0.9v-0.8h0.9v-2.1h1.1v2.1h1.4v0.8h-1.4v3.9c0,0.2,0.1,0.4,0.2,0.5
		c0.1,0.1,0.3,0.2,0.5,0.2s0.4,0,0.6-0.1c0.2-0.1,0.3-0.1,0.4-0.2L727.7,77.7z"/>
	<path class="st0" d="M731.9,77.7c-0.1,0-0.1,0.1-0.3,0.1s-0.2,0.1-0.4,0.1c-0.1,0-0.3,0.1-0.4,0.1c-0.2,0-0.3,0-0.5,0
		c-0.4,0-0.7-0.1-1-0.3c-0.3-0.2-0.4-0.5-0.4-1v-4.2H728v-0.8h0.9v-2.1h1.1v2.1h1.4v0.8H730v3.9c0,0.2,0.1,0.4,0.2,0.5
		c0.1,0.1,0.3,0.2,0.5,0.2s0.4,0,0.6-0.1c0.2-0.1,0.3-0.1,0.4-0.2L731.9,77.7z"/>
	<path class="st0" d="M735.6,78.1c-0.5,0-0.9-0.1-1.3-0.3c-0.4-0.2-0.7-0.4-1-0.7s-0.5-0.6-0.7-1s-0.2-0.8-0.2-1.3
		c0-0.4,0.1-0.9,0.2-1.2c0.2-0.4,0.4-0.7,0.7-1s0.6-0.5,1-0.7s0.8-0.3,1.3-0.3s0.9,0.1,1.3,0.3c0.4,0.2,0.7,0.4,1,0.7
		c0.3,0.3,0.5,0.6,0.6,1s0.2,0.8,0.2,1.2c0,0.1,0,0.2,0,0.2c0,0.1,0,0.1,0,0.2h-5.2c0,0.3,0.1,0.6,0.2,0.9c0.1,0.3,0.3,0.5,0.5,0.7
		s0.4,0.3,0.7,0.4c0.2,0.1,0.5,0.2,0.8,0.2c0.2,0,0.4,0,0.6-0.1c0.2-0.1,0.4-0.1,0.5-0.2c0.2-0.1,0.3-0.2,0.4-0.3
		c0.1-0.1,0.2-0.3,0.3-0.4l0.9,0.3c-0.1,0.2-0.2,0.4-0.4,0.6s-0.4,0.4-0.6,0.5c-0.2,0.1-0.5,0.3-0.8,0.3S735.9,78.1,735.6,78.1z
		 M737.7,74.4c0-0.3-0.1-0.6-0.2-0.8c-0.1-0.3-0.3-0.5-0.5-0.6c-0.2-0.2-0.4-0.3-0.7-0.4c-0.2-0.1-0.5-0.2-0.8-0.2s-0.5,0-0.8,0.2
		c-0.2,0.1-0.5,0.2-0.7,0.4c-0.2,0.2-0.3,0.4-0.5,0.6s-0.2,0.5-0.2,0.8H737.7z"/>
	<path class="st0" d="M743.2,72.6c-0.5,0-1,0.2-1.4,0.4s-0.7,0.6-0.9,1.1V78h-1.1v-6.3h1v1.5c0.2-0.4,0.5-0.8,0.9-1.1
		c0.4-0.3,0.7-0.4,1.1-0.4c0.1,0,0.1,0,0.2,0c0.1,0,0.1,0,0.1,0v0.9H743.2z"/>
	<path class="st0" d="M746.9,78.1c-0.5,0-0.9-0.1-1.3-0.3c-0.4-0.2-0.7-0.4-1-0.7c-0.3-0.3-0.5-0.6-0.6-1s-0.2-0.8-0.2-1.2
		c0-0.4,0.1-0.9,0.2-1.2c0.2-0.4,0.4-0.7,0.6-1c0.3-0.3,0.6-0.5,1-0.7s0.8-0.3,1.3-0.3s0.9,0.1,1.3,0.3c0.4,0.2,0.7,0.4,1,0.7
		c0.3,0.3,0.5,0.6,0.6,1c0.2,0.4,0.2,0.8,0.2,1.2c0,0.4-0.1,0.8-0.2,1.2s-0.4,0.7-0.6,1c-0.3,0.3-0.6,0.5-1,0.7
		C747.8,78,747.3,78.1,746.9,78.1z M744.8,74.9c0,0.3,0.1,0.6,0.2,0.9c0.1,0.3,0.3,0.5,0.4,0.7c0.2,0.2,0.4,0.4,0.7,0.5
		s0.5,0.2,0.8,0.2s0.6-0.1,0.8-0.2s0.5-0.3,0.7-0.5s0.3-0.5,0.5-0.7s0.2-0.6,0.2-0.9s-0.1-0.6-0.2-0.9s-0.3-0.5-0.5-0.7
		s-0.4-0.4-0.7-0.5s-0.5-0.2-0.8-0.2s-0.6,0.1-0.8,0.2c-0.3,0.1-0.5,0.3-0.7,0.5s-0.3,0.5-0.4,0.7C744.8,74.2,744.8,74.5,744.8,74.9
		z"/>
	<path class="st0" d="M753.7,78c-0.4,0-0.8-0.1-1.2-0.3c-0.4-0.2-0.7-0.4-0.9-0.7c-0.3-0.3-0.5-0.6-0.6-1s-0.2-0.8-0.2-1.2
		c0-0.4,0.1-0.9,0.2-1.3c0.1-0.4,0.3-0.7,0.6-1s0.6-0.5,0.9-0.7c0.4-0.2,0.8-0.3,1.2-0.3c0.5,0,1,0.1,1.4,0.4s0.7,0.6,1,1v-1.2h0.9
		v6.2c0,0.4-0.1,0.8-0.3,1.2c-0.2,0.3-0.4,0.6-0.7,0.9c-0.3,0.2-0.6,0.4-1,0.5s-0.8,0.2-1.2,0.2c-0.7,0-1.3-0.1-1.7-0.4
		s-0.8-0.6-1.1-1l0.6-0.5c0.2,0.4,0.6,0.6,1,0.8c0.4,0.2,0.8,0.3,1.3,0.3c0.3,0,0.6,0,0.8-0.1c0.3-0.1,0.5-0.2,0.7-0.4
		c0.2-0.2,0.3-0.4,0.5-0.6c0.1-0.2,0.2-0.5,0.2-0.9v-1.1c-0.1,0.2-0.3,0.4-0.4,0.5c-0.2,0.2-0.3,0.3-0.5,0.4s-0.4,0.2-0.6,0.2
		C754.1,78,753.9,78,753.7,78z M754,77.2c0.2,0,0.4,0,0.6-0.1c0.2-0.1,0.4-0.2,0.6-0.3c0.2-0.1,0.3-0.3,0.4-0.4s0.2-0.3,0.2-0.5V74
		c-0.1-0.2-0.2-0.4-0.3-0.6s-0.3-0.3-0.5-0.5c-0.2-0.1-0.4-0.2-0.6-0.3c-0.2-0.1-0.4-0.1-0.6-0.1c-0.3,0-0.6,0.1-0.9,0.2
		s-0.5,0.3-0.6,0.5c-0.2,0.2-0.3,0.5-0.4,0.8s-0.1,0.6-0.1,0.9s0.1,0.6,0.2,0.9c0.1,0.3,0.3,0.5,0.5,0.7s0.4,0.4,0.7,0.5
		C753.4,77.1,753.7,77.2,754,77.2z"/>
	<path class="st0" d="M761.5,78.1c-0.5,0-0.9-0.1-1.3-0.3c-0.4-0.2-0.7-0.4-1-0.7c-0.3-0.3-0.5-0.6-0.7-1s-0.2-0.8-0.2-1.3
		c0-0.4,0.1-0.9,0.2-1.2s0.4-0.7,0.7-1s0.6-0.5,1-0.7s0.8-0.3,1.3-0.3s0.9,0.1,1.3,0.3c0.4,0.2,0.7,0.4,1,0.7c0.3,0.3,0.5,0.6,0.6,1
		s0.2,0.8,0.2,1.2c0,0.1,0,0.2,0,0.2c0,0.1,0,0.1,0,0.2h-5.2c0,0.3,0.1,0.6,0.2,0.9s0.3,0.5,0.5,0.7s0.4,0.3,0.7,0.4
		c0.2,0.1,0.5,0.2,0.8,0.2c0.2,0,0.4,0,0.6-0.1s0.4-0.1,0.5-0.2s0.3-0.2,0.4-0.3c0.1-0.1,0.2-0.3,0.3-0.4l0.9,0.3
		c-0.1,0.2-0.2,0.4-0.4,0.6s-0.4,0.4-0.6,0.5c-0.2,0.1-0.5,0.3-0.8,0.3S761.8,78.1,761.5,78.1z M763.6,74.4c0-0.3-0.1-0.6-0.2-0.8
		c-0.1-0.3-0.3-0.5-0.5-0.6c-0.2-0.2-0.4-0.3-0.7-0.4c-0.2-0.1-0.5-0.2-0.8-0.2s-0.5,0-0.8,0.2c-0.2,0.1-0.5,0.2-0.7,0.4
		c-0.2,0.2-0.3,0.4-0.5,0.6c-0.1,0.2-0.2,0.5-0.2,0.8H763.6z"/>
	<path class="st0" d="M771.2,78h-1.1v-3.5c0-0.7-0.1-1.2-0.3-1.5s-0.5-0.5-0.9-0.5c-0.2,0-0.4,0-0.6,0.1s-0.4,0.2-0.6,0.3
		c-0.2,0.1-0.4,0.3-0.5,0.5s-0.3,0.4-0.3,0.7V78h-1.1v-6.3h1V73c0.2-0.4,0.6-0.8,1.1-1.1c0.5-0.3,1-0.4,1.5-0.4
		c0.4,0,0.7,0.1,0.9,0.2s0.4,0.3,0.6,0.6c0.1,0.2,0.2,0.5,0.3,0.8s0.1,0.7,0.1,1V78H771.2z"/>
	<path class="st0" d="M772.8,78v-1.3h0.9V78H772.8z"/>
	<path class="st0" d="M729.8,138v-1.3h0.9v1.3H729.8z"/>
	<path class="st0" d="M597.2,93v-8.5h3c0.7,0,1.3,0.1,1.8,0.3c0.5,0.2,0.9,0.5,1.3,0.9c0.3,0.4,0.6,0.8,0.8,1.4
		c0.2,0.5,0.3,1.1,0.3,1.6c0,0.6-0.1,1.2-0.3,1.8c-0.2,0.5-0.5,1-0.8,1.3s-0.8,0.7-1.3,0.9s-1.1,0.3-1.7,0.3L597.2,93L597.2,93z
		 M603.2,88.7c0-0.5-0.1-0.9-0.2-1.3c-0.1-0.4-0.3-0.8-0.6-1s-0.6-0.5-1-0.7s-0.8-0.2-1.3-0.2h-1.9V92h1.9c0.5,0,0.9-0.1,1.3-0.3
		s0.7-0.4,0.9-0.7s0.4-0.6,0.6-1S603.2,89.2,603.2,88.7z"/>
	<path class="st0" d="M605.6,85.5v-1.3h1.1v1.3H605.6z M605.6,93v-6.3h1.1V93H605.6z"/>
	<path class="st0" d="M611.6,92.7c-0.1,0-0.1,0.1-0.3,0.1c-0.1,0-0.2,0.1-0.4,0.1c-0.1,0-0.3,0.1-0.4,0.1c-0.2,0-0.3,0-0.5,0
		c-0.4,0-0.7-0.1-1-0.3c-0.3-0.2-0.4-0.5-0.4-1v-4.2h-0.9v-0.8h0.9v-2.1h1.1v2.1h1.4v0.8h-1.4v3.9c0,0.2,0.1,0.4,0.2,0.5
		c0.1,0.1,0.3,0.2,0.5,0.2s0.4,0,0.6-0.1c0.2-0.1,0.3-0.1,0.4-0.2L611.6,92.7z"/>
	<path class="st0" d="M615.1,92.3l4-4.8h-3.9v-0.8h5v0.7l-4,4.8h4V93h-5.1V92.3z"/>
	<path class="st0" d="M624.2,93.1c-0.5,0-0.9-0.1-1.3-0.3c-0.4-0.2-0.7-0.4-1-0.7c-0.3-0.3-0.5-0.6-0.6-1s-0.2-0.8-0.2-1.2
		c0-0.4,0.1-0.9,0.2-1.2c0.2-0.4,0.4-0.7,0.6-1c0.3-0.3,0.6-0.5,1-0.7s0.8-0.3,1.3-0.3s0.9,0.1,1.3,0.3c0.4,0.2,0.7,0.4,1,0.7
		c0.3,0.3,0.5,0.6,0.6,1c0.2,0.4,0.2,0.8,0.2,1.2c0,0.4-0.1,0.8-0.2,1.2s-0.4,0.7-0.6,1c-0.3,0.3-0.6,0.5-1,0.7
		C625.1,93,624.6,93.1,624.2,93.1z M622.1,89.9c0,0.3,0.1,0.6,0.2,0.9c0.1,0.3,0.3,0.5,0.4,0.7c0.2,0.2,0.4,0.4,0.7,0.5
		s0.5,0.2,0.8,0.2s0.6-0.1,0.8-0.2s0.5-0.3,0.7-0.5s0.3-0.5,0.5-0.7s0.2-0.6,0.2-0.9s-0.1-0.6-0.2-0.9s-0.3-0.5-0.5-0.7
		s-0.4-0.4-0.7-0.5s-0.5-0.2-0.8-0.2s-0.6,0.1-0.8,0.2c-0.3,0.1-0.5,0.3-0.7,0.5s-0.3,0.5-0.4,0.7C622.1,89.2,622.1,89.5,622.1,89.9
		z"/>
	<path class="st0" d="M631.9,87.6c-0.5,0-1,0.2-1.4,0.4c-0.4,0.3-0.7,0.6-0.9,1.1V93h-1.1v-6.3h1v1.5c0.2-0.4,0.5-0.8,0.9-1.1
		c0.4-0.3,0.7-0.4,1.1-0.4c0.1,0,0.1,0,0.2,0c0.1,0,0.1,0,0.1,0v0.9H631.9z"/>
	<path class="st0" d="M635.4,93c-0.4,0-0.8-0.1-1.2-0.3c-0.4-0.2-0.7-0.4-0.9-0.7c-0.3-0.3-0.5-0.6-0.6-1s-0.2-0.8-0.2-1.2
		c0-0.4,0.1-0.9,0.2-1.3c0.1-0.4,0.3-0.7,0.6-1s0.6-0.5,0.9-0.7c0.4-0.2,0.8-0.3,1.2-0.3c0.5,0,1,0.1,1.4,0.4s0.7,0.6,1,1v-1.2h0.9
		v6.2c0,0.4-0.1,0.8-0.3,1.2c-0.2,0.3-0.4,0.6-0.7,0.9c-0.3,0.2-0.6,0.4-1,0.5s-0.8,0.2-1.2,0.2c-0.7,0-1.3-0.1-1.7-0.4
		c-0.4-0.2-0.8-0.6-1.1-1l0.6-0.5c0.2,0.4,0.6,0.6,1,0.8c0.4,0.2,0.8,0.3,1.3,0.3c0.3,0,0.6,0,0.8-0.1s0.5-0.2,0.7-0.4
		c0.2-0.2,0.3-0.4,0.5-0.6c0.1-0.2,0.2-0.5,0.2-0.9v-1.1c-0.1,0.2-0.3,0.4-0.4,0.5c-0.2,0.2-0.3,0.3-0.5,0.4s-0.4,0.2-0.6,0.2
		C635.8,93,635.6,93,635.4,93z M635.7,92.2c0.2,0,0.4,0,0.6-0.1s0.4-0.2,0.6-0.3c0.2-0.1,0.3-0.3,0.4-0.4c0.1-0.2,0.2-0.3,0.2-0.5
		V89c-0.1-0.2-0.2-0.4-0.3-0.6s-0.3-0.3-0.5-0.5s-0.4-0.2-0.6-0.3c-0.2-0.1-0.4-0.1-0.6-0.1c-0.3,0-0.6,0.1-0.9,0.2
		c-0.3,0.1-0.5,0.3-0.6,0.5c-0.2,0.2-0.3,0.5-0.4,0.8c-0.1,0.3-0.1,0.6-0.1,0.9s0.1,0.6,0.2,0.9s0.3,0.5,0.5,0.7s0.4,0.4,0.7,0.5
		C635.1,92.1,635.4,92.2,635.7,92.2z"/>
	<path class="st0" d="M643.6,92.7c-0.1,0-0.1,0.1-0.3,0.1c-0.1,0-0.2,0.1-0.4,0.1c-0.1,0-0.3,0.1-0.4,0.1s-0.3,0-0.5,0
		c-0.4,0-0.7-0.1-1-0.3c-0.3-0.2-0.4-0.5-0.4-1v-4.2h-0.9v-0.8h0.9v-2.1h1.1v2.1h1.4v0.8h-1.4v3.9c0,0.2,0.1,0.4,0.2,0.5
		c0.1,0.1,0.3,0.2,0.5,0.2s0.4,0,0.6-0.1c0.2-0.1,0.3-0.1,0.4-0.2L643.6,92.7z"/>
	<path class="st0" d="M649.1,93l-2.5-6.3h1.1l2,5.3l2-5.3h1l-2.5,6.3H649.1z"/>
	<path class="st0" d="M656.3,93.1c-0.5,0-0.9-0.1-1.3-0.3c-0.4-0.2-0.7-0.4-1-0.7c-0.3-0.3-0.5-0.6-0.6-1c-0.2-0.4-0.2-0.8-0.2-1.2
		c0-0.4,0.1-0.9,0.2-1.2c0.2-0.4,0.4-0.7,0.6-1c0.3-0.3,0.6-0.5,1-0.7s0.8-0.3,1.3-0.3s0.9,0.1,1.3,0.3c0.4,0.2,0.7,0.4,1,0.7
		c0.3,0.3,0.5,0.6,0.6,1c0.2,0.4,0.2,0.8,0.2,1.2c0,0.4-0.1,0.8-0.2,1.2s-0.4,0.7-0.6,1c-0.3,0.3-0.6,0.5-1,0.7
		C657.2,93,656.7,93.1,656.3,93.1z M654.2,89.9c0,0.3,0.1,0.6,0.2,0.9c0.1,0.3,0.3,0.5,0.4,0.7s0.4,0.4,0.7,0.5s0.5,0.2,0.8,0.2
		s0.6-0.1,0.8-0.2s0.5-0.3,0.7-0.5s0.3-0.5,0.5-0.7c0.1-0.3,0.2-0.6,0.2-0.9s-0.1-0.6-0.2-0.9c-0.1-0.3-0.3-0.5-0.5-0.7
		s-0.4-0.4-0.7-0.5s-0.5-0.2-0.8-0.2s-0.6,0.1-0.8,0.2c-0.3,0.1-0.5,0.3-0.7,0.5s-0.3,0.5-0.4,0.7C654.2,89.2,654.2,89.5,654.2,89.9
		z"/>
	<path class="st0" d="M663.5,93.1c-0.5,0-0.9-0.1-1.3-0.3c-0.4-0.2-0.7-0.4-1-0.7s-0.5-0.6-0.6-1s-0.2-0.8-0.2-1.2
		c0-0.4,0.1-0.9,0.2-1.2c0.2-0.4,0.4-0.7,0.6-1c0.3-0.3,0.6-0.5,1-0.7s0.8-0.3,1.3-0.3s0.9,0.1,1.3,0.3c0.4,0.2,0.7,0.4,1,0.7
		c0.3,0.3,0.5,0.6,0.6,1c0.2,0.4,0.2,0.8,0.2,1.2c0,0.4-0.1,0.8-0.2,1.2c-0.2,0.4-0.4,0.7-0.6,1s-0.6,0.5-1,0.7
		C664.4,93,663.9,93.1,663.5,93.1z M661.4,89.9c0,0.3,0.1,0.6,0.2,0.9c0.1,0.3,0.3,0.5,0.4,0.7c0.2,0.2,0.4,0.4,0.7,0.5
		s0.5,0.2,0.8,0.2s0.6-0.1,0.8-0.2s0.5-0.3,0.7-0.5s0.3-0.5,0.4-0.7c0.1-0.3,0.2-0.6,0.2-0.9s-0.1-0.6-0.2-0.9
		c-0.1-0.3-0.3-0.5-0.4-0.7c-0.2-0.2-0.4-0.4-0.7-0.5s-0.5-0.2-0.8-0.2s-0.6,0.1-0.8,0.2c-0.3,0.1-0.5,0.3-0.7,0.5s-0.3,0.5-0.4,0.7
		C661.4,89.2,661.4,89.5,661.4,89.9z"/>
	<path class="st0" d="M671.2,87.6c-0.5,0-1,0.2-1.4,0.4c-0.4,0.3-0.7,0.6-0.9,1.1V93h-1.1v-6.3h1v1.5c0.2-0.4,0.5-0.8,0.9-1.1
		c0.4-0.3,0.7-0.4,1.1-0.4c0.1,0,0.1,0,0.2,0s0.1,0,0.1,0v0.9H671.2z"/>
	<path class="st0" d="M678.3,87.6c-0.5,0-1,0.2-1.4,0.4c-0.4,0.3-0.7,0.6-0.9,1.1V93h-1v-6.3h1v1.5c0.2-0.4,0.5-0.8,0.9-1.1
		c0.4-0.3,0.7-0.4,1.1-0.4c0.1,0,0.1,0,0.2,0c0.1,0,0.1,0,0.1,0V87.6z"/>
	<path class="st0" d="M681.3,93.1c-0.7,0-1.2-0.2-1.5-0.7c-0.3-0.4-0.5-1.1-0.5-2v-3.8h1.1v3.6c0,1.3,0.4,1.9,1.3,1.9
		c0.4,0,0.8-0.1,1.2-0.4s0.7-0.7,0.8-1.1v-3.9h1.1v5c0,0.2,0.1,0.4,0.3,0.4V93c-0.1,0-0.2,0-0.3,0s-0.1,0-0.2,0
		c-0.2,0-0.4-0.1-0.5-0.2s-0.2-0.3-0.2-0.5v-0.7c-0.3,0.5-0.6,0.8-1.1,1.1C682.4,93,681.9,93.1,681.3,93.1z"/>
	<path class="st0" d="M688.8,93.1c-0.5,0-1-0.1-1.5-0.2c-0.5-0.2-0.9-0.4-1.3-0.7l0.5-0.7c0.4,0.3,0.7,0.5,1.1,0.6
		c0.4,0.1,0.8,0.2,1.2,0.2c0.5,0,0.8-0.1,1.1-0.3c0.3-0.2,0.4-0.4,0.4-0.8c0-0.2,0-0.3-0.1-0.4s-0.2-0.2-0.3-0.3
		c-0.1-0.1-0.3-0.2-0.6-0.2c-0.2-0.1-0.5-0.1-0.8-0.2c-0.4-0.1-0.7-0.2-1-0.3s-0.5-0.2-0.7-0.3c-0.2-0.1-0.3-0.3-0.4-0.4
		s-0.1-0.4-0.1-0.6c0-0.3,0.1-0.6,0.2-0.8c0.1-0.2,0.3-0.4,0.5-0.6s0.5-0.3,0.8-0.4s0.6-0.1,0.9-0.1c0.5,0,0.9,0.1,1.3,0.2
		c0.4,0.2,0.8,0.4,1,0.6l-0.5,0.6c-0.3-0.2-0.6-0.4-0.9-0.5s-0.7-0.2-1-0.2c-0.4,0-0.7,0.1-1,0.2c-0.3,0.2-0.4,0.4-0.4,0.8
		c0,0.1,0,0.3,0.1,0.4s0.1,0.2,0.3,0.3s0.3,0.1,0.5,0.2s0.4,0.1,0.7,0.2c0.4,0.1,0.8,0.2,1.1,0.3c0.3,0.1,0.6,0.2,0.8,0.4
		c0.2,0.1,0.4,0.3,0.5,0.5s0.2,0.4,0.2,0.7c0,0.6-0.2,1-0.7,1.4C690.1,92.9,689.5,93.1,688.8,93.1z"/>
	<path class="st0" d="M695.8,92.7c-0.1,0-0.1,0.1-0.3,0.1c-0.1,0-0.2,0.1-0.4,0.1c-0.1,0-0.3,0.1-0.4,0.1s-0.3,0-0.5,0
		c-0.4,0-0.7-0.1-1-0.3c-0.3-0.2-0.4-0.5-0.4-1v-4.2H692v-0.8h0.9v-2.1h1.1v2.1h1.4v0.8H694v3.9c0,0.2,0.1,0.4,0.2,0.5
		c0.1,0.1,0.3,0.2,0.5,0.2s0.4,0,0.6-0.1c0.2-0.1,0.3-0.1,0.4-0.2L695.8,92.7z"/>
	<path class="st0" d="M703,92.7c-0.1,0-0.1,0.1-0.3,0.1s-0.2,0.1-0.4,0.1c-0.1,0-0.3,0.1-0.4,0.1s-0.3,0-0.5,0c-0.4,0-0.7-0.1-1-0.3
		c-0.3-0.2-0.4-0.5-0.4-1v-4.2h-0.9v-0.8h0.9v-2.1h1.1v2.1h1.4v0.8h-1.4v3.9c0,0.2,0.1,0.4,0.2,0.5c0.1,0.1,0.3,0.2,0.5,0.2
		s0.4,0,0.6-0.1c0.2-0.1,0.3-0.1,0.4-0.2L703,92.7z"/>
	<path class="st0" d="M704,85.5v-1.3h1.1v1.3H704z M704,93v-6.3h1.1V93H704z"/>
	<path class="st0" d="M706,95.2c-0.3,0-0.5,0-0.8-0.1c-0.2-0.1-0.5-0.2-0.7-0.4L705,94c0.1,0.1,0.2,0.2,0.4,0.2s0.3,0.1,0.4,0.1
		c0.1,0,0.3,0,0.4-0.1s0.2-0.1,0.3-0.2s0.2-0.2,0.2-0.3c0.1-0.1,0.1-0.3,0.1-0.4v-6.5h1.1v6.5c0,0.3-0.1,0.6-0.2,0.8
		s-0.3,0.5-0.4,0.6c-0.2,0.2-0.4,0.3-0.6,0.4C706.5,95.2,706.2,95.2,706,95.2z M706.8,85.5v-1.3h1.1v1.3H706.8z"/>
	<path class="st0" d="M712.2,93.1c-0.4,0-0.8-0.1-1.2-0.3c-0.4-0.2-0.7-0.4-0.9-0.7c-0.3-0.3-0.5-0.6-0.6-1s-0.2-0.8-0.2-1.2
		c0-0.4,0.1-0.9,0.2-1.3c0.1-0.4,0.3-0.7,0.6-1s0.6-0.5,0.9-0.7c0.3-0.2,0.7-0.3,1.1-0.3c0.5,0,1,0.1,1.4,0.4s0.7,0.6,0.9,1v-3.7
		h1.1v7.5c0,0.2,0.1,0.4,0.3,0.4V93c-0.1,0-0.2,0-0.3,0s-0.1,0-0.2,0c-0.2,0-0.4-0.1-0.5-0.2c-0.2-0.1-0.2-0.3-0.2-0.5v-0.5
		c-0.2,0.4-0.6,0.7-1,1C713.1,93,712.6,93.1,712.2,93.1z M712.4,92.2c0.2,0,0.4,0,0.6-0.1c0.2-0.1,0.4-0.2,0.6-0.3
		c0.2-0.1,0.3-0.3,0.5-0.5c0.1-0.2,0.2-0.4,0.3-0.5V89c-0.1-0.2-0.2-0.4-0.3-0.6s-0.3-0.3-0.5-0.5c-0.2-0.1-0.4-0.2-0.6-0.3
		c-0.2-0.1-0.4-0.1-0.6-0.1c-0.3,0-0.6,0.1-0.8,0.2s-0.5,0.3-0.6,0.5c-0.2,0.2-0.3,0.5-0.4,0.8c-0.1,0.3-0.1,0.6-0.1,0.9
		s0.1,0.6,0.2,0.9s0.3,0.5,0.5,0.7s0.4,0.4,0.7,0.5S712.1,92.2,712.4,92.2z"/>
	<path class="st0" d="M719.9,93.1c-0.5,0-0.9-0.1-1.3-0.3s-0.7-0.4-1-0.7c-0.3-0.3-0.5-0.6-0.7-1s-0.2-0.8-0.2-1.3
		c0-0.4,0.1-0.9,0.2-1.2c0.2-0.4,0.4-0.7,0.7-1s0.6-0.5,1-0.7s0.8-0.3,1.3-0.3s0.9,0.1,1.3,0.3c0.4,0.2,0.7,0.4,1,0.7s0.5,0.6,0.6,1
		s0.2,0.8,0.2,1.2c0,0.1,0,0.2,0,0.2c0,0.1,0,0.1,0,0.2h-5.2c0,0.3,0.1,0.6,0.2,0.9c0.1,0.3,0.3,0.5,0.5,0.7s0.4,0.3,0.7,0.4
		c0.2,0.1,0.5,0.2,0.8,0.2c0.2,0,0.4,0,0.6-0.1s0.4-0.1,0.5-0.2c0.2-0.1,0.3-0.2,0.4-0.3s0.2-0.3,0.3-0.4l0.9,0.3
		c-0.1,0.2-0.2,0.4-0.4,0.6s-0.4,0.4-0.6,0.5c-0.2,0.1-0.5,0.3-0.8,0.3C720.5,93.1,720.2,93.1,719.9,93.1z M722.1,89.4
		c0-0.3-0.1-0.6-0.2-0.8s-0.3-0.5-0.5-0.6s-0.4-0.3-0.7-0.4c-0.2-0.1-0.5-0.2-0.8-0.2s-0.5,0-0.8,0.2c-0.2,0.1-0.5,0.2-0.7,0.4
		c-0.2,0.2-0.3,0.4-0.5,0.6c-0.1,0.2-0.2,0.5-0.2,0.8H722.1z"/>
	<path class="st0" d="M729.7,93h-1.1v-3.5c0-0.7-0.1-1.2-0.3-1.5s-0.5-0.5-0.9-0.5c-0.2,0-0.4,0-0.6,0.1c-0.2,0.1-0.4,0.2-0.6,0.3
		c-0.2,0.1-0.4,0.3-0.5,0.5s-0.3,0.4-0.3,0.7V93h-1.1v-6.3h1V88c0.2-0.4,0.6-0.8,1.1-1.1c0.5-0.3,1-0.4,1.5-0.4
		c0.4,0,0.7,0.1,0.9,0.2s0.4,0.3,0.6,0.6c0.1,0.2,0.2,0.5,0.3,0.8s0.1,0.7,0.1,1V93H729.7z"/>
	<path class="st0" d="M733.5,93.1c-0.5,0-1-0.1-1.5-0.2c-0.5-0.2-0.9-0.4-1.3-0.7l0.5-0.7c0.4,0.3,0.7,0.5,1.1,0.6
		c0.4,0.1,0.8,0.2,1.2,0.2c0.5,0,0.8-0.1,1.1-0.3c0.3-0.2,0.4-0.4,0.4-0.8c0-0.2,0-0.3-0.1-0.4s-0.2-0.2-0.3-0.3s-0.3-0.2-0.6-0.2
		c-0.2-0.1-0.5-0.1-0.8-0.2c-0.4-0.1-0.7-0.2-1-0.3c-0.3-0.1-0.5-0.2-0.7-0.3c-0.2-0.1-0.3-0.3-0.4-0.4s-0.1-0.4-0.1-0.6
		c0-0.3,0.1-0.6,0.2-0.8s0.3-0.4,0.5-0.6s0.5-0.3,0.8-0.4s0.6-0.1,0.9-0.1c0.5,0,0.9,0.1,1.3,0.2c0.4,0.2,0.8,0.4,1,0.6l-0.5,0.6
		c-0.3-0.2-0.6-0.4-0.9-0.5s-0.7-0.2-1-0.2c-0.4,0-0.7,0.1-1,0.2c-0.3,0.2-0.4,0.4-0.4,0.8c0,0.1,0,0.3,0.1,0.4s0.1,0.2,0.3,0.3
		c0.1,0.1,0.3,0.1,0.5,0.2s0.4,0.1,0.7,0.2c0.4,0.1,0.8,0.2,1.1,0.3s0.6,0.2,0.8,0.4c0.2,0.1,0.4,0.3,0.5,0.5s0.2,0.4,0.2,0.7
		c0,0.6-0.2,1-0.7,1.4C734.9,92.9,734.3,93.1,733.5,93.1z"/>
	<path class="st0" d="M744.5,92.7h-1.1v-3.5c0-0.6-0.1-1.1-0.3-1.4s-0.6-0.5-1-0.5c-0.2,0-0.4,0-0.6,0.1s-0.4,0.2-0.6,0.3
		c-0.2,0.1-0.3,0.3-0.5,0.5c-0.1,0.2-0.2,0.4-0.3,0.7v3.8h-1.1v-8.8h1.1v3.8c0.2-0.5,0.6-0.8,1-1.1c0.4-0.3,0.9-0.4,1.4-0.4
		c0.4,0,0.7,0.1,0.9,0.2c0.3,0.1,0.5,0.3,0.6,0.6c0.2,0.2,0.3,0.5,0.3,0.8c0.1,0.3,0.1,0.7,0.1,1L744.5,92.7L744.5,92.7z"/>
	<path class="st0" d="M749,92.8c-0.5,0-0.9-0.1-1.3-0.3s-0.7-0.4-1-0.7c-0.3-0.3-0.5-0.6-0.7-1s-0.2-0.8-0.2-1.3
		c0-0.4,0.1-0.9,0.2-1.2c0.2-0.4,0.4-0.7,0.7-1s0.6-0.5,1-0.7s0.8-0.3,1.3-0.3s0.9,0.1,1.3,0.3c0.4,0.2,0.7,0.4,1,0.7s0.5,0.6,0.6,1
		s0.2,0.8,0.2,1.2c0,0.1,0,0.2,0,0.2c0,0.1,0,0.1,0,0.2h-5.2c0,0.3,0.1,0.6,0.2,0.9c0.1,0.3,0.3,0.5,0.5,0.7s0.4,0.3,0.7,0.4
		c0.2,0.1,0.5,0.2,0.8,0.2c0.2,0,0.4,0,0.6-0.1s0.4-0.1,0.5-0.2c0.2-0.1,0.3-0.2,0.4-0.3s0.2-0.3,0.3-0.4l0.9,0.3
		c-0.1,0.2-0.2,0.4-0.4,0.6s-0.4,0.4-0.6,0.5c-0.2,0.1-0.5,0.3-0.8,0.3C749.7,92.8,749.3,92.8,749,92.8z M751.2,89.1
		c0-0.3-0.1-0.6-0.2-0.8s-0.3-0.5-0.5-0.6s-0.4-0.3-0.7-0.4c-0.2-0.1-0.5-0.2-0.8-0.2s-0.5,0-0.8,0.2c-0.2,0.1-0.5,0.2-0.7,0.4
		c-0.2,0.2-0.3,0.4-0.5,0.6c-0.1,0.2-0.2,0.5-0.2,0.8H751.2z"/>
	<path class="st0" d="M756.5,92.4c-0.1,0-0.1,0.1-0.3,0.1c-0.1,0-0.2,0.1-0.4,0.1c-0.1,0-0.3,0.1-0.4,0.1c-0.2,0-0.3,0-0.5,0
		c-0.4,0-0.7-0.1-1-0.3c-0.3-0.2-0.4-0.5-0.4-1v-4.2h-0.9v-0.8h0.9v-2.1h1.1v2.1h1.4v0.8h-1.4v3.9c0,0.2,0.1,0.4,0.2,0.5
		c0.1,0.1,0.3,0.2,0.5,0.2s0.4,0,0.6-0.1c0.2-0.1,0.3-0.1,0.4-0.2L756.5,92.4z"/>
	<path class="st0" d="M597.3,99.2h1.1v7.1c0,0.2,0.1,0.4,0.2,0.5s0.3,0.2,0.5,0.2c0.1,0,0.2,0,0.3,0s0.2-0.1,0.3-0.1l0.2,0.9
		c-0.2,0.1-0.4,0.1-0.6,0.2s-0.5,0.1-0.6,0.1c-0.4,0-0.7-0.1-1-0.3c-0.2-0.2-0.4-0.6-0.4-1V99.2z"/>
	<path class="st0" d="M603.5,108.1c-0.5,0-0.9-0.1-1.3-0.3c-0.4-0.2-0.7-0.4-1-0.7c-0.3-0.3-0.5-0.6-0.7-1s-0.2-0.8-0.2-1.3
		c0-0.4,0.1-0.9,0.2-1.2s0.4-0.7,0.7-1s0.6-0.5,1-0.7s0.8-0.3,1.3-0.3s0.9,0.1,1.3,0.3c0.4,0.2,0.7,0.4,1,0.7c0.3,0.3,0.5,0.6,0.6,1
		s0.2,0.8,0.2,1.2c0,0.1,0,0.2,0,0.2c0,0.1,0,0.1,0,0.2h-5.2c0,0.3,0.1,0.6,0.2,0.9s0.3,0.5,0.5,0.7s0.4,0.3,0.7,0.4
		c0.2,0.1,0.5,0.2,0.8,0.2c0.2,0,0.4,0,0.6-0.1s0.4-0.1,0.5-0.2s0.3-0.2,0.4-0.3c0.1-0.1,0.2-0.3,0.3-0.4l0.9,0.3
		c-0.1,0.2-0.2,0.4-0.4,0.6s-0.4,0.4-0.6,0.5c-0.2,0.1-0.5,0.3-0.8,0.3S603.8,108.1,603.5,108.1z M605.6,104.4
		c0-0.3-0.1-0.6-0.2-0.8c-0.1-0.3-0.3-0.5-0.5-0.6c-0.2-0.2-0.4-0.3-0.7-0.4c-0.2-0.1-0.5-0.2-0.8-0.2s-0.5,0-0.8,0.2
		c-0.2,0.1-0.5,0.2-0.7,0.4c-0.2,0.2-0.3,0.4-0.5,0.6c-0.1,0.2-0.2,0.5-0.2,0.8H605.6z"/>
	<path class="st0" d="M607.2,107.3l4-4.8h-3.9v-0.8h5v0.7l-4,4.8h4v0.8h-5.1V107.3z"/>
	<path class="st0" d="M616.3,108.1c-0.5,0-0.9-0.1-1.3-0.3c-0.4-0.2-0.7-0.4-1-0.7c-0.3-0.3-0.5-0.6-0.7-1s-0.2-0.8-0.2-1.3
		c0-0.4,0.1-0.9,0.2-1.2s0.4-0.7,0.7-1s0.6-0.5,1-0.7s0.8-0.3,1.3-0.3s0.9,0.1,1.3,0.3c0.4,0.2,0.7,0.4,1,0.7s0.5,0.6,0.6,1
		s0.2,0.8,0.2,1.2c0,0.1,0,0.2,0,0.2c0,0.1,0,0.1,0,0.2h-5.2c0,0.3,0.1,0.6,0.2,0.9c0.1,0.3,0.3,0.5,0.5,0.7s0.4,0.3,0.7,0.4
		c0.2,0.1,0.5,0.2,0.8,0.2c0.2,0,0.4,0,0.6-0.1c0.2-0.1,0.4-0.1,0.5-0.2s0.3-0.2,0.4-0.3s0.2-0.3,0.3-0.4l0.9,0.3
		c-0.1,0.2-0.2,0.4-0.4,0.6s-0.4,0.4-0.6,0.5c-0.2,0.1-0.5,0.3-0.8,0.3C616.9,108.1,616.6,108.1,616.3,108.1z M618.4,104.4
		c0-0.3-0.1-0.6-0.2-0.8s-0.3-0.5-0.5-0.6s-0.4-0.3-0.7-0.4c-0.2-0.1-0.5-0.2-0.8-0.2s-0.5,0-0.8,0.2c-0.2,0.1-0.5,0.2-0.7,0.4
		c-0.2,0.2-0.3,0.4-0.5,0.6c-0.1,0.2-0.2,0.5-0.2,0.8H618.4z"/>
	<path class="st0" d="M626,108h-1v-3.5c0-0.7-0.1-1.2-0.3-1.5s-0.5-0.5-0.9-0.5c-0.2,0-0.4,0-0.6,0.1c-0.2,0.1-0.4,0.2-0.6,0.3
		c-0.2,0.1-0.4,0.3-0.5,0.5s-0.3,0.4-0.3,0.7v3.8h-1.1v-6.3h1v1.3c0.2-0.4,0.6-0.8,1.1-1.1c0.5-0.3,1-0.4,1.5-0.4
		c0.4,0,0.7,0.1,0.9,0.2s0.4,0.3,0.6,0.6c0.1,0.2,0.2,0.5,0.3,0.8s0.1,0.7,0.1,1v4H626z"/>
	<path class="st0" d="M627.6,108v-1.3h0.9v1.3H627.6z"/>
	<path class="st0" d="M640.2,99.5v8.5h-1.1v-3.9h-4.7v3.9h-1.1v-8.5h1.1v3.7h4.7v-3.7H640.2z"/>
	<path class="st0" d="M644.7,108.1c-0.5,0-0.9-0.1-1.3-0.3c-0.4-0.2-0.7-0.4-1-0.7s-0.5-0.6-0.7-1s-0.2-0.8-0.2-1.3
		c0-0.4,0.1-0.9,0.2-1.2c0.2-0.4,0.4-0.7,0.7-1s0.6-0.5,1-0.7s0.8-0.3,1.3-0.3s0.9,0.1,1.3,0.3c0.4,0.2,0.7,0.4,1,0.7
		c0.3,0.3,0.5,0.6,0.6,1s0.2,0.8,0.2,1.2c0,0.1,0,0.2,0,0.2c0,0.1,0,0.1,0,0.2h-5.2c0,0.3,0.1,0.6,0.2,0.9c0.1,0.3,0.3,0.5,0.5,0.7
		s0.4,0.3,0.7,0.4c0.2,0.1,0.5,0.2,0.8,0.2c0.2,0,0.4,0,0.6-0.1c0.2-0.1,0.4-0.1,0.5-0.2c0.2-0.1,0.3-0.2,0.4-0.3
		c0.1-0.1,0.2-0.3,0.3-0.4l0.9,0.3c-0.1,0.2-0.2,0.4-0.4,0.6s-0.4,0.4-0.6,0.5c-0.2,0.1-0.5,0.3-0.8,0.3S645,108.1,644.7,108.1z
		 M646.9,104.4c0-0.3-0.1-0.6-0.2-0.8c-0.1-0.3-0.3-0.5-0.5-0.6c-0.2-0.2-0.4-0.3-0.7-0.4c-0.2-0.1-0.5-0.2-0.8-0.2s-0.5,0-0.8,0.2
		c-0.2,0.1-0.5,0.2-0.7,0.4c-0.2,0.2-0.3,0.4-0.5,0.6s-0.2,0.5-0.2,0.8H646.9z"/>
	<path class="st0" d="M652.2,107.7c-0.1,0-0.1,0.1-0.3,0.1c-0.1,0-0.2,0.1-0.4,0.1c-0.1,0-0.3,0.1-0.4,0.1s-0.3,0-0.5,0
		c-0.4,0-0.7-0.1-1-0.3c-0.3-0.2-0.4-0.5-0.4-1v-4.2h-0.9v-0.8h0.9v-2.1h1.1v2.1h1.4v0.8h-1.4v3.9c0,0.2,0.1,0.4,0.2,0.5
		c0.1,0.1,0.3,0.2,0.5,0.2s0.4,0,0.6-0.1c0.2-0.1,0.3-0.1,0.4-0.2L652.2,107.7z"/>
	<path class="st0" d="M656.2,100.5v-1.3h1.1v1.3H656.2z M656.2,108v-6.3h1.1v6.3H656.2z"/>
	<path class="st0" d="M661.2,108.1c-0.5,0-1-0.1-1.5-0.2c-0.5-0.2-0.9-0.4-1.3-0.7l0.5-0.7c0.4,0.3,0.7,0.5,1.1,0.6
		c0.4,0.1,0.8,0.2,1.2,0.2c0.5,0,0.8-0.1,1.1-0.3c0.3-0.2,0.4-0.4,0.4-0.8c0-0.2,0-0.3-0.1-0.4s-0.2-0.2-0.3-0.3s-0.3-0.2-0.6-0.2
		c-0.2-0.1-0.5-0.1-0.8-0.2c-0.4-0.1-0.7-0.2-1-0.3c-0.3-0.1-0.5-0.2-0.7-0.3c-0.2-0.1-0.3-0.3-0.4-0.4s-0.1-0.4-0.1-0.6
		c0-0.3,0.1-0.6,0.2-0.8s0.3-0.4,0.5-0.6s0.5-0.3,0.8-0.4s0.6-0.1,0.9-0.1c0.5,0,0.9,0.1,1.3,0.2c0.4,0.2,0.8,0.4,1,0.6l-0.5,0.6
		c-0.3-0.2-0.6-0.4-0.9-0.5s-0.7-0.2-1-0.2c-0.4,0-0.7,0.1-1,0.2c-0.3,0.2-0.4,0.4-0.4,0.8c0,0.1,0,0.3,0.1,0.4s0.1,0.2,0.3,0.3
		c0.1,0.1,0.3,0.1,0.5,0.2s0.4,0.1,0.7,0.2c0.4,0.1,0.8,0.2,1.1,0.3s0.6,0.2,0.8,0.4c0.2,0.1,0.4,0.3,0.5,0.5s0.2,0.4,0.2,0.7
		c0,0.6-0.2,1-0.7,1.4C662.5,107.9,661.9,108.1,661.2,108.1z"/>
	<path class="st0" d="M670.7,108.1c-0.5,0-0.9-0.1-1.3-0.3c-0.4-0.2-0.7-0.4-1-0.7s-0.5-0.6-0.6-1s-0.2-0.8-0.2-1.2
		c0-0.4,0.1-0.9,0.2-1.2c0.2-0.4,0.4-0.7,0.6-1c0.3-0.3,0.6-0.5,1-0.7s0.8-0.3,1.3-0.3s0.9,0.1,1.3,0.3c0.4,0.2,0.7,0.4,1,0.7
		c0.3,0.3,0.5,0.6,0.6,1c0.2,0.4,0.2,0.8,0.2,1.2c0,0.4-0.1,0.8-0.2,1.2c-0.2,0.4-0.4,0.7-0.6,1s-0.6,0.5-1,0.7
		C671.6,108,671.2,108.1,670.7,108.1z M668.6,104.9c0,0.3,0.1,0.6,0.2,0.9c0.1,0.3,0.3,0.5,0.4,0.7c0.2,0.2,0.4,0.4,0.7,0.5
		s0.5,0.2,0.8,0.2s0.6-0.1,0.8-0.2s0.5-0.3,0.7-0.5s0.3-0.5,0.4-0.7c0.1-0.3,0.2-0.6,0.2-0.9s-0.1-0.6-0.2-0.9
		c-0.1-0.3-0.3-0.5-0.4-0.7c-0.2-0.2-0.4-0.4-0.7-0.5s-0.5-0.2-0.8-0.2s-0.6,0.1-0.8,0.2c-0.3,0.1-0.5,0.3-0.7,0.5s-0.3,0.5-0.4,0.7
		C668.7,104.2,668.6,104.5,668.6,104.9z"/>
	<path class="st0" d="M677.9,108.1c-0.5,0-0.9-0.1-1.3-0.3c-0.4-0.2-0.7-0.4-1-0.7c-0.3-0.3-0.5-0.6-0.6-1s-0.2-0.8-0.2-1.2
		c0-0.4,0.1-0.9,0.2-1.2c0.2-0.4,0.4-0.7,0.6-1c0.3-0.3,0.6-0.5,1-0.7s0.8-0.3,1.3-0.3s0.9,0.1,1.3,0.3c0.4,0.2,0.7,0.4,1,0.7
		c0.3,0.3,0.5,0.6,0.6,1c0.2,0.4,0.2,0.8,0.2,1.2c0,0.4-0.1,0.8-0.2,1.2s-0.4,0.7-0.6,1c-0.3,0.3-0.6,0.5-1,0.7
		C678.8,108,678.3,108.1,677.9,108.1z M675.8,104.9c0,0.3,0.1,0.6,0.2,0.9c0.1,0.3,0.3,0.5,0.4,0.7c0.2,0.2,0.4,0.4,0.7,0.5
		s0.5,0.2,0.8,0.2s0.6-0.1,0.8-0.2s0.5-0.3,0.7-0.5s0.3-0.5,0.5-0.7s0.2-0.6,0.2-0.9s-0.1-0.6-0.2-0.9s-0.3-0.5-0.5-0.7
		s-0.4-0.4-0.7-0.5s-0.5-0.2-0.8-0.2s-0.6,0.1-0.8,0.2c-0.3,0.1-0.5,0.3-0.7,0.5s-0.3,0.5-0.4,0.7
		C675.9,104.2,675.8,104.5,675.8,104.9z"/>
	<path class="st0" d="M686.7,108l-2.2-3.1l-1.2,1.1v1.9h-1.1v-8.8h1.1v5.8l3.2-3.3h1.2l-2.5,2.6l2.6,3.7h-1.1V108z"/>
	<path class="st0" d="M694.6,108.1c-0.5,0-0.9-0.1-1.3-0.3s-0.7-0.4-1-0.7c-0.3-0.3-0.5-0.6-0.7-1s-0.2-0.8-0.2-1.3
		c0-0.4,0.1-0.9,0.2-1.2c0.2-0.4,0.4-0.7,0.7-1s0.6-0.5,1-0.7s0.8-0.3,1.3-0.3s0.9,0.1,1.3,0.3c0.4,0.2,0.7,0.4,1,0.7s0.5,0.6,0.6,1
		s0.2,0.8,0.2,1.2c0,0.1,0,0.2,0,0.2c0,0.1,0,0.1,0,0.2h-5.2c0,0.3,0.1,0.6,0.2,0.9c0.1,0.3,0.3,0.5,0.5,0.7s0.4,0.3,0.7,0.4
		c0.2,0.1,0.5,0.2,0.8,0.2c0.2,0,0.4,0,0.6-0.1s0.4-0.1,0.5-0.2c0.2-0.1,0.3-0.2,0.4-0.3s0.2-0.3,0.3-0.4l0.9,0.3
		c-0.1,0.2-0.2,0.4-0.4,0.6s-0.4,0.4-0.6,0.5c-0.2,0.1-0.5,0.3-0.8,0.3C695.2,108.1,694.9,108.1,694.6,108.1z M696.8,104.4
		c0-0.3-0.1-0.6-0.2-0.8s-0.3-0.5-0.5-0.6s-0.4-0.3-0.7-0.4c-0.2-0.1-0.5-0.2-0.8-0.2s-0.5,0-0.8,0.2c-0.2,0.1-0.5,0.2-0.7,0.4
		c-0.2,0.2-0.3,0.4-0.5,0.6c-0.1,0.2-0.2,0.5-0.2,0.8H696.8z"/>
	<path class="st0" d="M701.7,108.1c-0.5,0-0.9-0.1-1.3-0.3s-0.7-0.4-1-0.7c-0.3-0.3-0.5-0.6-0.7-1s-0.2-0.8-0.2-1.3
		c0-0.4,0.1-0.9,0.2-1.2c0.2-0.4,0.4-0.7,0.7-1s0.6-0.5,1-0.7s0.8-0.3,1.3-0.3s0.9,0.1,1.3,0.3c0.4,0.2,0.7,0.4,1,0.7s0.5,0.6,0.6,1
		s0.2,0.8,0.2,1.2c0,0.1,0,0.2,0,0.2c0,0.1,0,0.1,0,0.2h-5.2c0,0.3,0.1,0.6,0.2,0.9c0.1,0.3,0.3,0.5,0.5,0.7s0.4,0.3,0.7,0.4
		c0.2,0.1,0.5,0.2,0.8,0.2c0.2,0,0.4,0,0.6-0.1s0.4-0.1,0.5-0.2c0.2-0.1,0.3-0.2,0.4-0.3s0.2-0.3,0.3-0.4l0.9,0.3
		c-0.1,0.2-0.2,0.4-0.4,0.6s-0.4,0.4-0.6,0.5c-0.2,0.1-0.5,0.3-0.8,0.3C702.3,108.1,702,108.1,701.7,108.1z M703.8,104.4
		c0-0.3-0.1-0.6-0.2-0.8s-0.3-0.5-0.5-0.6s-0.4-0.3-0.7-0.4c-0.2-0.1-0.5-0.2-0.8-0.2s-0.5,0-0.8,0.2c-0.2,0.1-0.5,0.2-0.7,0.4
		c-0.2,0.2-0.3,0.4-0.5,0.6c-0.1,0.2-0.2,0.5-0.2,0.8H703.8z"/>
	<path class="st0" d="M711.5,108h-1.1v-3.5c0-0.7-0.1-1.2-0.3-1.5s-0.5-0.5-0.9-0.5c-0.2,0-0.4,0-0.6,0.1c-0.2,0.1-0.4,0.2-0.6,0.3
		c-0.2,0.1-0.4,0.3-0.5,0.5s-0.3,0.4-0.3,0.7v3.8H706v-6.3h1v1.3c0.2-0.4,0.6-0.8,1.1-1.1c0.5-0.3,1-0.4,1.5-0.4
		c0.4,0,0.7,0.1,0.9,0.2s0.4,0.3,0.6,0.6c0.1,0.2,0.2,0.5,0.3,0.8s0.1,0.7,0.1,1L711.5,108L711.5,108z"/>
	<path class="st0" d="M718.7,108.1c-0.4,0-0.8-0.1-1.2-0.3c-0.4-0.2-0.7-0.4-0.9-0.7c-0.3-0.3-0.5-0.6-0.6-1s-0.2-0.8-0.2-1.2
		c0-0.4,0.1-0.9,0.2-1.3c0.1-0.4,0.3-0.7,0.6-1s0.6-0.5,0.9-0.7c0.3-0.2,0.7-0.3,1.1-0.3c0.5,0,1,0.1,1.4,0.4s0.7,0.6,0.9,1v-3.7
		h1.1v7.5c0,0.2,0.1,0.4,0.3,0.4v0.9c-0.1,0-0.2,0-0.3,0s-0.1,0-0.2,0c-0.2,0-0.4-0.1-0.5-0.2c-0.2-0.1-0.2-0.3-0.2-0.5v-0.5
		c-0.2,0.4-0.6,0.7-1,1C719.6,108,719.2,108.1,718.7,108.1z M719,107.2c0.2,0,0.4,0,0.6-0.1c0.2-0.1,0.4-0.2,0.6-0.3
		c0.2-0.1,0.3-0.3,0.5-0.5c0.1-0.2,0.2-0.4,0.3-0.5V104c-0.1-0.2-0.2-0.4-0.3-0.6s-0.3-0.3-0.5-0.5c-0.2-0.1-0.4-0.2-0.6-0.3
		c-0.2-0.1-0.4-0.1-0.6-0.1c-0.3,0-0.6,0.1-0.8,0.2s-0.5,0.3-0.6,0.5c-0.2,0.2-0.3,0.5-0.4,0.8c-0.1,0.3-0.1,0.6-0.1,0.9
		s0.1,0.6,0.2,0.9s0.3,0.5,0.5,0.7s0.4,0.4,0.7,0.5S718.7,107.2,719,107.2z"/>
	<path class="st0" d="M724,109.7c0.1,0,0.2,0,0.3,0s0.2,0,0.2,0c0.1,0,0.2,0,0.3-0.1s0.2-0.1,0.2-0.3c0.1-0.1,0.2-0.3,0.3-0.5
		s0.2-0.5,0.4-0.9l-2.7-6.3h1.1l2.1,5.3l1.9-5.3h1l-3,7.9c-0.1,0.3-0.3,0.5-0.6,0.7s-0.6,0.3-1.1,0.3c-0.1,0-0.1,0-0.2,0
		c-0.1,0-0.2,0-0.3,0L724,109.7L724,109.7z"/>
	<path class="st0" d="M735.7,108h-1.1v-3.5c0-0.7-0.1-1.2-0.3-1.5s-0.5-0.5-0.9-0.5c-0.2,0-0.4,0-0.6,0.1c-0.2,0.1-0.4,0.2-0.6,0.3
		c-0.2,0.1-0.4,0.3-0.5,0.5s-0.3,0.4-0.3,0.7v3.8h-1.1v-6.3h1v1.3c0.2-0.4,0.6-0.8,1.1-1.1c0.5-0.3,1-0.4,1.5-0.4
		c0.4,0,0.7,0.1,0.9,0.2s0.4,0.3,0.6,0.6c0.1,0.2,0.2,0.5,0.3,0.8s0.1,0.7,0.1,1v4H735.7z"/>
	<path class="st0" d="M738.9,108.1c-0.3,0-0.6,0-0.8-0.2c-0.3-0.1-0.5-0.2-0.7-0.4c-0.2-0.2-0.3-0.4-0.4-0.6
		c-0.1-0.2-0.2-0.5-0.2-0.8s0.1-0.5,0.2-0.8c0.1-0.2,0.3-0.4,0.5-0.6s0.5-0.3,0.8-0.4s0.7-0.1,1.1-0.1c0.3,0,0.6,0,0.9,0.1
		c0.3,0.1,0.6,0.1,0.8,0.2V104c0-0.5-0.1-0.9-0.4-1.2c-0.3-0.3-0.7-0.4-1.2-0.4c-0.6,0-1.3,0.2-2,0.7l-0.3-0.7
		c0.8-0.5,1.6-0.8,2.4-0.8c0.8,0,1.5,0.2,1.9,0.7s0.7,1.1,0.7,1.9v2.6c0,0.2,0.1,0.4,0.3,0.4v0.9c-0.1,0-0.2,0-0.3,0s-0.1,0-0.2,0
		c-0.2,0-0.4-0.1-0.5-0.2s-0.2-0.3-0.2-0.5V107c-0.3,0.4-0.6,0.7-1.1,0.9C739.9,108,739.4,108.1,738.9,108.1z M739.2,107.3
		c0.4,0,0.7-0.1,1-0.2s0.6-0.3,0.7-0.6c0.2-0.2,0.2-0.3,0.2-0.5v-0.9c-0.5-0.2-1-0.3-1.6-0.3c-0.5,0-1,0.1-1.3,0.3
		c-0.3,0.2-0.5,0.5-0.5,0.9c0,0.2,0,0.3,0.1,0.5s0.2,0.3,0.3,0.4s0.3,0.2,0.4,0.3C738.8,107.3,739,107.3,739.2,107.3z"/>
	<path class="st0" d="M753,108H752v-3.5c0-0.7-0.1-1.1-0.3-1.5c-0.2-0.3-0.5-0.5-0.9-0.5s-0.8,0.2-1.2,0.5c-0.3,0.3-0.6,0.7-0.7,1.2
		v3.8h-1.1v-3.5c0-0.7-0.1-1.2-0.3-1.5s-0.5-0.5-0.9-0.5s-0.8,0.1-1.2,0.5c-0.3,0.3-0.6,0.7-0.7,1.2v3.8h-1.1v-6.3h1v1.3
		c0.3-0.5,0.6-0.8,1-1.1s0.9-0.4,1.4-0.4s0.9,0.1,1.3,0.4c0.3,0.3,0.5,0.7,0.6,1.1c0.6-1,1.4-1.5,2.4-1.5c0.4,0,0.7,0.1,0.9,0.2
		s0.4,0.3,0.6,0.6c0.1,0.2,0.2,0.5,0.3,0.8s0.1,0.7,0.1,1L753,108L753,108z"/>
	<path class="st0" d="M754.8,100.5v-1.3h1.1v1.3H754.8z M754.8,108v-6.3h1.1v6.3H754.8z"/>
	<path class="st0" d="M759.7,108.1c-0.5,0-1-0.1-1.5-0.2c-0.5-0.2-0.9-0.4-1.3-0.7l0.5-0.7c0.4,0.3,0.7,0.5,1.1,0.6
		c0.4,0.1,0.8,0.2,1.2,0.2c0.5,0,0.8-0.1,1.1-0.3c0.3-0.2,0.4-0.4,0.4-0.8c0-0.2,0-0.3-0.1-0.4s-0.2-0.2-0.3-0.3s-0.3-0.2-0.6-0.2
		c-0.2-0.1-0.5-0.1-0.8-0.2c-0.4-0.1-0.7-0.2-1-0.3c-0.3-0.1-0.5-0.2-0.7-0.3c-0.2-0.1-0.3-0.3-0.4-0.4s-0.1-0.4-0.1-0.6
		c0-0.3,0.1-0.6,0.2-0.8s0.3-0.4,0.5-0.6s0.5-0.3,0.8-0.4s0.6-0.1,0.9-0.1c0.5,0,0.9,0.1,1.3,0.2c0.4,0.2,0.8,0.4,1,0.6l-0.5,0.6
		c-0.3-0.2-0.6-0.4-0.9-0.5s-0.7-0.2-1-0.2c-0.4,0-0.7,0.1-1,0.2c-0.3,0.2-0.4,0.4-0.4,0.8c0,0.1,0,0.3,0.1,0.4s0.1,0.2,0.3,0.3
		c0.1,0.1,0.3,0.1,0.5,0.2s0.4,0.1,0.7,0.2c0.4,0.1,0.8,0.2,1.1,0.3s0.6,0.2,0.8,0.4c0.2,0.1,0.4,0.3,0.5,0.5s0.2,0.4,0.2,0.7
		c0,0.6-0.2,1-0.7,1.4C761,107.9,760.5,108.1,759.7,108.1z"/>
	<path class="st0" d="M763,104.8c0-0.4,0.1-0.9,0.2-1.2c0.2-0.4,0.4-0.7,0.6-1c0.3-0.3,0.6-0.5,1-0.7s0.8-0.3,1.3-0.3
		c0.6,0,1.2,0.1,1.6,0.4c0.5,0.3,0.8,0.6,1,1.1l-1,0.3c-0.2-0.3-0.4-0.5-0.7-0.7s-0.6-0.2-1-0.2c-0.3,0-0.6,0.1-0.8,0.2
		s-0.5,0.3-0.7,0.5s-0.3,0.5-0.4,0.7c-0.1,0.3-0.2,0.6-0.2,0.9s0.1,0.6,0.2,0.9c0.1,0.3,0.3,0.5,0.4,0.8s0.4,0.4,0.7,0.5
		s0.5,0.2,0.8,0.2c0.2,0,0.4,0,0.5-0.1c0.2-0.1,0.3-0.1,0.5-0.2s0.3-0.2,0.4-0.3c0.1-0.1,0.2-0.2,0.2-0.4l1,0.3
		c-0.1,0.2-0.2,0.4-0.4,0.6s-0.4,0.4-0.6,0.5c-0.2,0.1-0.5,0.2-0.8,0.3c-0.3,0.1-0.6,0.1-0.9,0.1c-0.5,0-0.9-0.1-1.3-0.3
		c-0.4-0.2-0.7-0.4-1-0.7c-0.3-0.3-0.5-0.6-0.7-1C763,105.7,763,105.3,763,104.8z"/>
	<path class="st0" d="M775.5,108h-1.1v-3.5c0-0.6-0.1-1.1-0.3-1.4s-0.6-0.5-1-0.5c-0.2,0-0.4,0-0.6,0.1c-0.2,0.1-0.4,0.2-0.6,0.3
		c-0.2,0.1-0.3,0.3-0.5,0.5c-0.1,0.2-0.2,0.4-0.3,0.7v3.8h-1.1v-8.8h1.1v3.8c0.2-0.5,0.6-0.8,1-1.1c0.4-0.3,0.9-0.4,1.4-0.4
		c0.4,0,0.7,0.1,0.9,0.2s0.5,0.3,0.6,0.6c0.2,0.2,0.3,0.5,0.3,0.8s0.1,0.7,0.1,1L775.5,108L775.5,108z"/>
	<path class="st0" d="M780,108.1c-0.5,0-0.9-0.1-1.3-0.3c-0.4-0.2-0.7-0.4-1-0.7c-0.3-0.3-0.5-0.6-0.7-1s-0.2-0.8-0.2-1.3
		c0-0.4,0.1-0.9,0.2-1.2s0.4-0.7,0.7-1s0.6-0.5,1-0.7s0.8-0.3,1.3-0.3s0.9,0.1,1.3,0.3c0.4,0.2,0.7,0.4,1,0.7c0.3,0.3,0.5,0.6,0.6,1
		s0.2,0.8,0.2,1.2c0,0.1,0,0.2,0,0.2c0,0.1,0,0.1,0,0.2h-5.2c0,0.3,0.1,0.6,0.2,0.9s0.3,0.5,0.5,0.7s0.4,0.3,0.7,0.4
		c0.2,0.1,0.5,0.2,0.8,0.2c0.2,0,0.4,0,0.6-0.1s0.4-0.1,0.5-0.2s0.3-0.2,0.4-0.3c0.1-0.1,0.2-0.3,0.3-0.4l0.9,0.3
		c-0.1,0.2-0.2,0.4-0.4,0.6s-0.4,0.4-0.6,0.5c-0.2,0.1-0.5,0.3-0.8,0.3S780.3,108.1,780,108.1z M782,104.4c0-0.3-0.1-0.6-0.2-0.8
		c-0.1-0.3-0.3-0.5-0.5-0.6c-0.2-0.2-0.4-0.3-0.7-0.4c-0.2-0.1-0.5-0.2-0.8-0.2s-0.5,0-0.8,0.2c-0.2,0.1-0.5,0.2-0.7,0.4
		c-0.2,0.2-0.3,0.4-0.5,0.6c-0.1,0.2-0.2,0.5-0.2,0.8H782z"/>
	<path class="st0" d="M599,123l-2.5-6.3h1.1l2,5.3l2-5.3h1l-2.5,6.3H599z"/>
	<path class="st0" d="M606.2,123.1c-0.5,0-0.9-0.1-1.3-0.3c-0.4-0.2-0.7-0.4-1-0.7c-0.3-0.3-0.5-0.6-0.6-1c-0.2-0.4-0.2-0.8-0.2-1.2
		c0-0.4,0.1-0.9,0.2-1.2c0.2-0.4,0.4-0.7,0.6-1c0.3-0.3,0.6-0.5,1-0.7s0.8-0.3,1.3-0.3s0.9,0.1,1.3,0.3c0.4,0.2,0.7,0.4,1,0.7
		c0.3,0.3,0.5,0.6,0.6,1c0.2,0.4,0.2,0.8,0.2,1.2c0,0.4-0.1,0.8-0.2,1.2s-0.4,0.7-0.6,1c-0.3,0.3-0.6,0.5-1,0.7
		C607.1,123,606.7,123.1,606.2,123.1z M604.1,119.9c0,0.3,0.1,0.6,0.2,0.9c0.1,0.3,0.3,0.5,0.4,0.7s0.4,0.4,0.7,0.5s0.5,0.2,0.8,0.2
		s0.6-0.1,0.8-0.2s0.5-0.3,0.7-0.5s0.3-0.5,0.5-0.7c0.1-0.3,0.2-0.6,0.2-0.9s-0.1-0.6-0.2-0.9c-0.1-0.3-0.3-0.5-0.5-0.7
		s-0.4-0.4-0.7-0.5s-0.5-0.2-0.8-0.2s-0.6,0.1-0.8,0.2c-0.3,0.1-0.5,0.3-0.7,0.5s-0.3,0.5-0.4,0.7
		C604.2,119.2,604.1,119.5,604.1,119.9z"/>
	<path class="st0" d="M613.9,117.6c-0.5,0-1,0.2-1.4,0.4c-0.4,0.3-0.7,0.6-0.9,1.1v3.9h-1.1v-6.3h1v1.5c0.2-0.4,0.5-0.8,0.9-1.1
		c0.4-0.3,0.7-0.4,1.1-0.4c0.1,0,0.1,0,0.2,0s0.1,0,0.1,0v0.9H613.9z"/>
	<path class="st0" d="M624.4,123h-1.1v-3.5c0-0.7-0.1-1.1-0.3-1.5c-0.2-0.3-0.5-0.5-0.9-0.5s-0.8,0.2-1.2,0.5s-0.6,0.7-0.7,1.2v3.8
		h-1.1v-3.5c0-0.7-0.1-1.2-0.3-1.5s-0.5-0.5-0.9-0.5s-0.8,0.1-1.2,0.5c-0.3,0.3-0.6,0.7-0.7,1.2v3.8h-1v-6.3h1v1.3
		c0.3-0.5,0.6-0.8,1-1.1s0.9-0.4,1.4-0.4s0.9,0.1,1.3,0.4c0.3,0.3,0.5,0.7,0.6,1.1c0.6-1,1.4-1.5,2.4-1.5c0.4,0,0.7,0.1,0.9,0.2
		s0.4,0.3,0.6,0.6c0.1,0.2,0.2,0.5,0.3,0.8s0.1,0.7,0.1,1v3.9H624.4z"/>
	<path class="st0" d="M631.7,123.1c-0.4,0-0.8-0.1-1.2-0.3c-0.4-0.2-0.7-0.4-0.9-0.7s-0.5-0.6-0.6-1s-0.2-0.8-0.2-1.2
		c0-0.4,0.1-0.9,0.2-1.3c0.1-0.4,0.3-0.7,0.6-1s0.6-0.5,0.9-0.7c0.3-0.2,0.7-0.3,1.1-0.3c0.5,0,1,0.1,1.4,0.4s0.7,0.6,0.9,1v-3.7
		h1.1v7.5c0,0.2,0.1,0.4,0.3,0.4v0.9c-0.1,0-0.2,0-0.3,0s-0.1,0-0.2,0c-0.2,0-0.4-0.1-0.5-0.2c-0.2-0.1-0.2-0.3-0.2-0.5v-0.5
		c-0.2,0.4-0.6,0.7-1,1C632.6,123,632.2,123.1,631.7,123.1z M631.9,122.2c0.2,0,0.4,0,0.6-0.1c0.2-0.1,0.4-0.2,0.6-0.3
		s0.3-0.3,0.5-0.5c0.1-0.2,0.2-0.4,0.3-0.5V119c-0.1-0.2-0.2-0.4-0.3-0.6s-0.3-0.3-0.5-0.5s-0.4-0.2-0.6-0.3
		c-0.2-0.1-0.4-0.1-0.6-0.1c-0.3,0-0.6,0.1-0.8,0.2s-0.5,0.3-0.6,0.5c-0.2,0.2-0.3,0.5-0.4,0.8c-0.1,0.3-0.1,0.6-0.1,0.9
		s0.1,0.6,0.2,0.9c0.1,0.3,0.3,0.5,0.5,0.7s0.4,0.4,0.7,0.5S631.6,122.2,631.9,122.2z"/>
	<path class="st0" d="M636.7,115.5v-1.3h1.1v1.3H636.7z M636.7,123v-6.3h1.1v6.3H636.7z"/>
	<path class="st0" d="M642.2,123.1c-0.5,0-0.9-0.1-1.3-0.3c-0.4-0.2-0.7-0.4-1-0.7c-0.3-0.3-0.5-0.6-0.7-1s-0.2-0.8-0.2-1.3
		c0-0.4,0.1-0.9,0.2-1.2s0.4-0.7,0.7-1s0.6-0.5,1-0.7s0.8-0.3,1.3-0.3s0.9,0.1,1.3,0.3c0.4,0.2,0.7,0.4,1,0.7c0.3,0.3,0.5,0.6,0.6,1
		s0.2,0.8,0.2,1.2c0,0.1,0,0.2,0,0.2c0,0.1,0,0.1,0,0.2h-5.2c0,0.3,0.1,0.6,0.2,0.9s0.3,0.5,0.5,0.7s0.4,0.3,0.7,0.4
		c0.2,0.1,0.5,0.2,0.8,0.2c0.2,0,0.4,0,0.6-0.1s0.4-0.1,0.5-0.2s0.3-0.2,0.4-0.3c0.1-0.1,0.2-0.3,0.3-0.4l0.9,0.3
		c-0.1,0.2-0.2,0.4-0.4,0.6s-0.4,0.4-0.6,0.5c-0.2,0.1-0.5,0.3-0.8,0.3S642.5,123.1,642.2,123.1z M644.3,119.4
		c0-0.3-0.1-0.6-0.2-0.8c-0.1-0.3-0.3-0.5-0.5-0.6c-0.2-0.2-0.4-0.3-0.7-0.4c-0.2-0.1-0.5-0.2-0.8-0.2s-0.5,0-0.8,0.2
		c-0.2,0.1-0.5,0.2-0.7,0.4c-0.2,0.2-0.3,0.4-0.5,0.6c-0.1,0.2-0.2,0.5-0.2,0.8H644.3z"/>
	<path class="st0" d="M652.1,123.1c-0.4,0-0.8-0.1-1.2-0.3c-0.4-0.2-0.7-0.4-0.9-0.7s-0.5-0.6-0.6-1s-0.2-0.8-0.2-1.2
		c0-0.4,0.1-0.9,0.2-1.3c0.1-0.4,0.3-0.7,0.6-1s0.6-0.5,0.9-0.7c0.3-0.2,0.7-0.3,1.1-0.3c0.5,0,1,0.1,1.4,0.4s0.7,0.6,0.9,1v-3.7
		h1.1v7.5c0,0.2,0.1,0.4,0.3,0.4v0.9c-0.1,0-0.2,0-0.3,0s-0.1,0-0.2,0c-0.2,0-0.4-0.1-0.5-0.2c-0.2-0.1-0.2-0.3-0.2-0.5v-0.5
		c-0.2,0.4-0.6,0.7-1,1C653,123,652.6,123.1,652.1,123.1z M652.4,122.2c0.2,0,0.4,0,0.6-0.1c0.2-0.1,0.4-0.2,0.6-0.3
		s0.3-0.3,0.5-0.5c0.1-0.2,0.2-0.4,0.3-0.5V119c-0.1-0.2-0.2-0.4-0.3-0.6s-0.3-0.3-0.5-0.5s-0.4-0.2-0.6-0.3
		c-0.2-0.1-0.4-0.1-0.6-0.1c-0.3,0-0.6,0.1-0.8,0.2s-0.5,0.3-0.6,0.5c-0.2,0.2-0.3,0.5-0.4,0.8c-0.1,0.3-0.1,0.6-0.1,0.9
		s0.1,0.6,0.2,0.9c0.1,0.3,0.3,0.5,0.5,0.7s0.4,0.4,0.7,0.5S652.1,122.2,652.4,122.2z"/>
	<path class="st0" d="M659.9,123.1c-0.5,0-0.9-0.1-1.3-0.3c-0.4-0.2-0.7-0.4-1-0.7c-0.3-0.3-0.5-0.6-0.7-1s-0.2-0.8-0.2-1.3
		c0-0.4,0.1-0.9,0.2-1.2s0.4-0.7,0.7-1s0.6-0.5,1-0.7s0.8-0.3,1.3-0.3s0.9,0.1,1.3,0.3c0.4,0.2,0.7,0.4,1,0.7c0.3,0.3,0.5,0.6,0.6,1
		s0.2,0.8,0.2,1.2c0,0.1,0,0.2,0,0.2c0,0.1,0,0.1,0,0.2h-5.2c0,0.3,0.1,0.6,0.2,0.9s0.3,0.5,0.5,0.7s0.4,0.3,0.7,0.4
		c0.2,0.1,0.5,0.2,0.8,0.2c0.2,0,0.4,0,0.6-0.1s0.4-0.1,0.5-0.2s0.3-0.2,0.4-0.3c0.1-0.1,0.2-0.3,0.3-0.4l0.9,0.3
		c-0.1,0.2-0.2,0.4-0.4,0.6s-0.4,0.4-0.6,0.5c-0.2,0.1-0.5,0.3-0.8,0.3S660.2,123.1,659.9,123.1z M662,119.4c0-0.3-0.1-0.6-0.2-0.8
		c-0.1-0.3-0.3-0.5-0.5-0.6c-0.2-0.2-0.4-0.3-0.7-0.4c-0.2-0.1-0.5-0.2-0.8-0.2s-0.5,0-0.8,0.2c-0.2,0.1-0.5,0.2-0.7,0.4
		c-0.2,0.2-0.3,0.4-0.5,0.6c-0.1,0.2-0.2,0.5-0.2,0.8H662z"/>
	<path class="st0" d="M668.8,123.1c-0.3,0-0.6,0-0.8-0.2c-0.3-0.1-0.5-0.2-0.7-0.4c-0.2-0.2-0.3-0.4-0.4-0.6
		c-0.1-0.2-0.2-0.5-0.2-0.8s0.1-0.5,0.2-0.8c0.1-0.2,0.3-0.4,0.5-0.6s0.5-0.3,0.8-0.4s0.7-0.1,1.1-0.1c0.3,0,0.6,0,0.9,0.1
		c0.3,0.1,0.6,0.1,0.8,0.2V119c0-0.5-0.1-0.9-0.4-1.2s-0.7-0.4-1.2-0.4c-0.6,0-1.3,0.2-2,0.7l-0.3-0.7c0.8-0.5,1.6-0.8,2.4-0.8
		c0.8,0,1.5,0.2,1.9,0.7c0.5,0.4,0.7,1.1,0.7,1.9v2.6c0,0.2,0.1,0.4,0.3,0.4v0.9c-0.1,0-0.2,0-0.3,0s-0.1,0-0.2,0
		c-0.2,0-0.4-0.1-0.5-0.2s-0.2-0.3-0.2-0.5V122c-0.3,0.4-0.6,0.7-1.1,0.9C669.8,123,669.3,123.1,668.8,123.1z M669.1,122.3
		c0.4,0,0.7-0.1,1-0.2s0.6-0.3,0.7-0.6c0.2-0.2,0.2-0.3,0.2-0.5v-0.9c-0.5-0.2-1-0.3-1.6-0.3c-0.5,0-1,0.1-1.3,0.3s-0.5,0.5-0.5,0.9
		c0,0.2,0,0.3,0.1,0.5s0.2,0.3,0.3,0.4s0.3,0.2,0.4,0.3C668.7,122.3,668.9,122.3,669.1,122.3z"/>
	<path class="st0" d="M673.5,119.8c0-0.4,0.1-0.9,0.2-1.2c0.2-0.4,0.4-0.7,0.6-1s0.6-0.5,1-0.7s0.8-0.3,1.3-0.3
		c0.6,0,1.2,0.1,1.6,0.4s0.8,0.6,1,1.1l-1,0.3c-0.2-0.3-0.4-0.5-0.7-0.7s-0.6-0.2-1-0.2c-0.3,0-0.6,0.1-0.8,0.2s-0.5,0.3-0.7,0.5
		s-0.3,0.5-0.4,0.7c-0.1,0.3-0.2,0.6-0.2,0.9s0.1,0.6,0.2,0.9c0.1,0.3,0.3,0.5,0.4,0.8c0.2,0.2,0.4,0.4,0.7,0.5s0.5,0.2,0.8,0.2
		c0.2,0,0.4,0,0.5-0.1s0.3-0.1,0.5-0.2c0.1-0.1,0.3-0.2,0.4-0.3c0.1-0.1,0.2-0.2,0.2-0.4l1,0.3c-0.1,0.2-0.2,0.4-0.4,0.6
		s-0.4,0.4-0.6,0.5c-0.2,0.1-0.5,0.2-0.8,0.3c-0.3,0.1-0.6,0.1-0.9,0.1c-0.5,0-0.9-0.1-1.3-0.3c-0.4-0.2-0.7-0.4-1-0.7
		s-0.5-0.6-0.7-1C673.5,120.7,673.5,120.3,673.5,119.8z"/>
	<path class="st0" d="M683.8,122.7c-0.1,0-0.1,0.1-0.3,0.1c-0.1,0-0.2,0.1-0.4,0.1c-0.1,0-0.3,0.1-0.4,0.1s-0.3,0-0.5,0
		c-0.4,0-0.7-0.1-1-0.3c-0.3-0.2-0.4-0.5-0.4-1v-4.2H680v-0.8h0.9v-2.1h1.1v2.1h1.4v0.8H682v3.9c0,0.2,0.1,0.4,0.2,0.5
		c0.1,0.1,0.3,0.2,0.5,0.2s0.4,0,0.6-0.1c0.2-0.1,0.3-0.1,0.4-0.2L683.8,122.7z"/>
	<path class="st0" d="M684.7,115.5v-1.3h1.1v1.3H684.7z M684.7,123v-6.3h1.1v6.3H684.7z"/>
	<path class="st0" d="M689.3,123l-2.5-6.3h1.1l2,5.3l2-5.3h1l-2.5,6.3H689.3z"/>
	<path class="st0" d="M694,115.5v-1.3h1.1v1.3H694z M694,123v-6.3h1.1v6.3H694z"/>
	<path class="st0" d="M700,122.7c-0.1,0-0.1,0.1-0.3,0.1c-0.1,0-0.2,0.1-0.4,0.1c-0.1,0-0.3,0.1-0.4,0.1s-0.3,0-0.5,0
		c-0.4,0-0.7-0.1-1-0.3c-0.3-0.2-0.4-0.5-0.4-1v-4.2h-0.9v-0.8h0.9v-2.1h1.1v2.1h1.4v0.8h-1.4v3.9c0,0.2,0.1,0.4,0.2,0.5
		c0.1,0.1,0.3,0.2,0.5,0.2s0.4,0,0.6-0.1c0.2-0.1,0.3-0.1,0.4-0.2L700,122.7z"/>
	<path class="st0" d="M703.6,123.1c-0.5,0-0.9-0.1-1.3-0.3c-0.4-0.2-0.7-0.4-1-0.7c-0.3-0.3-0.5-0.6-0.7-1s-0.2-0.8-0.2-1.3
		c0-0.4,0.1-0.9,0.2-1.2s0.4-0.7,0.7-1s0.6-0.5,1-0.7s0.8-0.3,1.3-0.3s0.9,0.1,1.3,0.3c0.4,0.2,0.7,0.4,1,0.7s0.5,0.6,0.6,1
		s0.2,0.8,0.2,1.2c0,0.1,0,0.2,0,0.2c0,0.1,0,0.1,0,0.2h-5.2c0,0.3,0.1,0.6,0.2,0.9c0.1,0.3,0.3,0.5,0.5,0.7s0.4,0.3,0.7,0.4
		c0.2,0.1,0.5,0.2,0.8,0.2c0.2,0,0.4,0,0.6-0.1c0.2-0.1,0.4-0.1,0.5-0.2s0.3-0.2,0.4-0.3s0.2-0.3,0.3-0.4l0.9,0.3
		c-0.1,0.2-0.2,0.4-0.4,0.6s-0.4,0.4-0.6,0.5c-0.2,0.1-0.5,0.3-0.8,0.3C704.2,123.1,703.9,123.1,703.6,123.1z M705.8,119.4
		c0-0.3-0.1-0.6-0.2-0.8s-0.3-0.5-0.5-0.6s-0.4-0.3-0.7-0.4c-0.2-0.1-0.5-0.2-0.8-0.2s-0.5,0-0.8,0.2c-0.2,0.1-0.5,0.2-0.7,0.4
		c-0.2,0.2-0.3,0.4-0.5,0.6c-0.1,0.2-0.2,0.5-0.2,0.8H705.8z"/>
	<path class="st0" d="M708,115.5v-1.3h1.1v1.3H708z M708,123v-6.3h1.1v6.3H708z"/>
	<path class="st0" d="M714,122.7c-0.1,0-0.1,0.1-0.3,0.1s-0.2,0.1-0.4,0.1c-0.1,0-0.3,0.1-0.4,0.1c-0.2,0-0.3,0-0.5,0
		c-0.4,0-0.7-0.1-1-0.3c-0.3-0.2-0.4-0.5-0.4-1v-4.2h-0.9v-0.8h0.9v-2.1h1.1v2.1h1.4v0.8h-1.4v3.9c0,0.2,0.1,0.4,0.2,0.5
		c0.1,0.1,0.3,0.2,0.5,0.2s0.4,0,0.6-0.1c0.2-0.1,0.3-0.1,0.4-0.2L714,122.7z"/>
	<path class="st0" d="M721,122.7l-2.5-6.3h1.1l2,5.3l2-5.3h1l-2.5,6.3H721z"/>
	<path class="st0" d="M727,122.8c-0.3,0-0.6,0-0.8-0.2c-0.3-0.1-0.5-0.2-0.7-0.4s-0.3-0.4-0.4-0.6c-0.1-0.2-0.2-0.5-0.2-0.8
		s0.1-0.5,0.2-0.8c0.1-0.2,0.3-0.4,0.5-0.6c0.2-0.2,0.5-0.3,0.8-0.4s0.7-0.1,1.1-0.1c0.3,0,0.6,0,0.9,0.1c0.3,0.1,0.6,0.1,0.8,0.2
		v-0.5c0-0.5-0.1-0.9-0.4-1.2c-0.3-0.3-0.7-0.4-1.2-0.4c-0.6,0-1.3,0.2-2,0.7l-0.3-0.7c0.8-0.5,1.6-0.8,2.4-0.8
		c0.8,0,1.5,0.2,1.9,0.7c0.5,0.4,0.7,1.1,0.7,1.9v2.6c0,0.2,0.1,0.4,0.3,0.4v0.9c-0.1,0-0.2,0-0.3,0s-0.1,0-0.2,0
		c-0.2,0-0.4-0.1-0.5-0.2s-0.2-0.3-0.2-0.5v-0.4c-0.3,0.4-0.6,0.7-1.1,0.9C728,122.7,727.5,122.8,727,122.8z M727.3,122
		c0.4,0,0.7-0.1,1.1-0.2c0.3-0.1,0.6-0.3,0.7-0.6c0.2-0.2,0.2-0.3,0.2-0.5v-0.9c-0.5-0.2-1-0.3-1.6-0.3c-0.5,0-1,0.1-1.3,0.3
		s-0.5,0.5-0.5,0.9c0,0.2,0,0.3,0.1,0.5s0.2,0.3,0.3,0.4c0.1,0.1,0.3,0.2,0.4,0.3C727,122,727.2,122,727.3,122z"/>
	<path class="st0" d="M737.5,122.7h-1.1v-3.5c0-0.7-0.1-1.2-0.3-1.5s-0.5-0.5-0.9-0.5c-0.2,0-0.4,0-0.6,0.1
		c-0.2,0.1-0.4,0.2-0.6,0.3c-0.2,0.1-0.4,0.3-0.5,0.5s-0.3,0.4-0.3,0.7v3.8h-1.1v-6.3h1v1.3c0.2-0.4,0.6-0.8,1.1-1.1s1-0.4,1.5-0.4
		c0.4,0,0.7,0.1,0.9,0.2s0.4,0.3,0.6,0.6c0.1,0.2,0.2,0.5,0.3,0.8s0.1,0.7,0.1,1v4H737.5z"/>
	<path class="st0" d="M744.8,122.8c-0.4,0-0.8-0.1-1.2-0.3s-0.7-0.4-0.9-0.7s-0.5-0.6-0.6-1s-0.2-0.8-0.2-1.2s0.1-0.9,0.2-1.3
		c0.1-0.4,0.3-0.7,0.6-1s0.6-0.5,0.9-0.7c0.3-0.2,0.7-0.3,1.1-0.3c0.5,0,1,0.1,1.3,0.4c0.4,0.3,0.7,0.6,0.9,1V114h1.1v7.5
		c0,0.2,0.1,0.4,0.3,0.4v0.9c-0.1,0-0.2,0-0.3,0s-0.1,0-0.2,0c-0.2,0-0.4-0.1-0.5-0.2c-0.2-0.1-0.2-0.3-0.2-0.5v-0.5
		c-0.2,0.4-0.6,0.7-1,1C745.7,122.7,745.3,122.8,744.8,122.8z M745,121.9c0.2,0,0.4,0,0.6-0.1c0.2-0.1,0.4-0.2,0.6-0.3
		c0.2-0.1,0.3-0.3,0.5-0.5c0.1-0.2,0.2-0.4,0.3-0.5v-1.8c-0.1-0.2-0.2-0.4-0.3-0.6c-0.1-0.2-0.3-0.3-0.5-0.5
		c-0.2-0.1-0.4-0.2-0.6-0.3c-0.2-0.1-0.4-0.1-0.6-0.1c-0.3,0-0.6,0.1-0.8,0.2s-0.5,0.3-0.6,0.5c-0.2,0.2-0.3,0.5-0.4,0.8
		c-0.1,0.3-0.1,0.6-0.1,0.9c0,0.3,0.1,0.6,0.2,0.9c0.1,0.3,0.3,0.5,0.5,0.7s0.4,0.4,0.7,0.5S744.8,121.9,745,121.9z"/>
	<path class="st0" d="M752.5,122.8c-0.5,0-0.9-0.1-1.3-0.3c-0.4-0.2-0.7-0.4-1-0.7s-0.5-0.6-0.7-1s-0.2-0.8-0.2-1.3
		c0-0.4,0.1-0.9,0.2-1.2s0.4-0.7,0.7-1s0.6-0.5,1-0.7s0.8-0.3,1.3-0.3s0.9,0.1,1.3,0.3c0.4,0.2,0.7,0.4,1,0.7s0.5,0.6,0.6,1
		s0.2,0.8,0.2,1.2c0,0.1,0,0.2,0,0.2c0,0.1,0,0.1,0,0.2h-5.2c0,0.3,0.1,0.6,0.2,0.9c0.1,0.3,0.3,0.5,0.5,0.7s0.4,0.3,0.7,0.4
		c0.2,0.1,0.5,0.2,0.8,0.2c0.2,0,0.4,0,0.6-0.1c0.2-0.1,0.4-0.1,0.5-0.2s0.3-0.2,0.4-0.3s0.2-0.3,0.3-0.4l0.9,0.3
		c-0.1,0.2-0.2,0.4-0.4,0.6c-0.2,0.2-0.4,0.4-0.6,0.5c-0.2,0.1-0.5,0.3-0.8,0.3C753.2,122.8,752.8,122.8,752.5,122.8z M754.7,119.1
		c0-0.3-0.1-0.6-0.2-0.8s-0.3-0.5-0.5-0.6s-0.4-0.3-0.7-0.4c-0.2-0.1-0.5-0.2-0.8-0.2s-0.5,0-0.8,0.2c-0.2,0.1-0.5,0.2-0.7,0.4
		s-0.3,0.4-0.5,0.6c-0.1,0.2-0.2,0.5-0.2,0.8H754.7z"/>
	<path class="st0" d="M597.2,134.8c0-0.4,0.1-0.9,0.2-1.2c0.2-0.4,0.4-0.7,0.6-1c0.3-0.3,0.6-0.5,1-0.7s0.8-0.3,1.3-0.3
		c0.6,0,1.2,0.1,1.6,0.4c0.5,0.3,0.8,0.6,1,1.1l-1,0.3c-0.2-0.3-0.4-0.5-0.7-0.7s-0.6-0.2-1-0.2c-0.3,0-0.6,0.1-0.8,0.2
		s-0.5,0.3-0.7,0.5s-0.3,0.5-0.4,0.7c-0.1,0.3-0.2,0.6-0.2,0.9c0,0.3,0.1,0.6,0.2,0.9c0.1,0.3,0.3,0.5,0.4,0.8s0.4,0.4,0.7,0.5
		s0.5,0.2,0.8,0.2c0.2,0,0.4,0,0.5-0.1c0.2-0.1,0.3-0.1,0.5-0.2s0.3-0.2,0.4-0.3c0.1-0.1,0.2-0.2,0.2-0.4l1,0.3
		c-0.1,0.2-0.2,0.4-0.4,0.6c-0.2,0.2-0.4,0.4-0.6,0.5c-0.2,0.1-0.5,0.2-0.8,0.3s-0.6,0.1-0.9,0.1c-0.5,0-0.9-0.1-1.3-0.3
		c-0.4-0.2-0.7-0.4-1-0.7s-0.5-0.6-0.7-1C597.3,135.7,597.2,135.3,597.2,134.8z"/>
	<path class="st0" d="M604.3,129.2h1.1v7.1c0,0.2,0.1,0.4,0.2,0.5c0.1,0.1,0.3,0.2,0.5,0.2c0.1,0,0.2,0,0.3,0s0.2-0.1,0.3-0.1
		l0.2,0.9c-0.2,0.1-0.4,0.1-0.6,0.2s-0.5,0.1-0.6,0.1c-0.4,0-0.7-0.1-1-0.3c-0.2-0.2-0.4-0.6-0.4-1V129.2z"/>
	<path class="st0" d="M609.7,138.1c-0.7,0-1.2-0.2-1.5-0.7c-0.3-0.4-0.5-1.1-0.5-2v-3.8h1.1v3.6c0,1.3,0.4,1.9,1.3,1.9
		c0.4,0,0.8-0.1,1.2-0.4c0.4-0.3,0.7-0.7,0.8-1.1v-3.9h1.1v5c0,0.2,0.1,0.4,0.3,0.4v0.9c-0.1,0-0.2,0-0.3,0s-0.1,0-0.2,0
		c-0.2,0-0.4-0.1-0.5-0.2c-0.1-0.1-0.2-0.3-0.2-0.5v-0.7c-0.3,0.5-0.6,0.8-1.1,1.1S610.2,138.1,609.7,138.1z"/>
	<path class="st0" d="M618.2,138.1c-0.5,0-0.9-0.1-1.3-0.4c-0.4-0.2-0.7-0.6-0.9-0.9v1.2h-0.9v-8.8h1.1v3.7c0.3-0.4,0.6-0.7,1-1
		s0.8-0.4,1.3-0.4c0.4,0,0.8,0.1,1.2,0.3c0.3,0.2,0.6,0.4,0.9,0.7s0.4,0.6,0.6,1c0.1,0.4,0.2,0.8,0.2,1.2s-0.1,0.9-0.2,1.2
		c-0.2,0.4-0.4,0.7-0.6,1s-0.6,0.5-0.9,0.7C619,138,618.6,138.1,618.2,138.1z M617.9,137.2c0.3,0,0.6-0.1,0.9-0.2
		c0.3-0.1,0.5-0.3,0.7-0.5s0.3-0.5,0.4-0.7c0.1-0.3,0.2-0.6,0.2-0.9c0-0.3,0-0.6-0.2-0.9c-0.1-0.3-0.2-0.5-0.4-0.8
		c-0.2-0.2-0.4-0.4-0.6-0.5s-0.5-0.2-0.8-0.2c-0.2,0-0.4,0-0.6,0.1c-0.2,0.1-0.4,0.2-0.6,0.3c-0.2,0.1-0.3,0.3-0.5,0.5
		c-0.1,0.2-0.2,0.4-0.3,0.6v1.8c0,0.2,0.1,0.4,0.3,0.6s0.3,0.3,0.5,0.4c0.2,0.1,0.4,0.2,0.6,0.3
		C617.5,137.1,617.7,137.2,617.9,137.2z"/>
	<path class="st0" d="M626.9,138l-2.5-6.3h1.1l2,5.3l2-5.3h1L628,138H626.9z"/>
	<path class="st0" d="M634.1,138.1c-0.5,0-0.9-0.1-1.3-0.3c-0.4-0.2-0.7-0.4-1-0.7s-0.5-0.6-0.7-1s-0.2-0.8-0.2-1.3
		c0-0.4,0.1-0.9,0.2-1.2s0.4-0.7,0.7-1s0.6-0.5,1-0.7s0.8-0.3,1.3-0.3s0.9,0.1,1.3,0.3c0.4,0.2,0.7,0.4,1,0.7s0.5,0.6,0.6,1
		s0.2,0.8,0.2,1.2c0,0.1,0,0.2,0,0.2c0,0.1,0,0.1,0,0.2H632c0,0.3,0.1,0.6,0.2,0.9c0.1,0.3,0.3,0.5,0.5,0.7s0.4,0.3,0.7,0.4
		c0.2,0.1,0.5,0.2,0.8,0.2c0.2,0,0.4,0,0.6-0.1c0.2-0.1,0.4-0.1,0.5-0.2s0.3-0.2,0.4-0.3s0.2-0.3,0.3-0.4l0.9,0.3
		c-0.1,0.2-0.2,0.4-0.4,0.6c-0.2,0.2-0.4,0.4-0.6,0.5c-0.2,0.1-0.5,0.3-0.8,0.3C634.7,138.1,634.4,138.1,634.1,138.1z M636.3,134.4
		c0-0.3-0.1-0.6-0.2-0.8s-0.3-0.5-0.5-0.6s-0.4-0.3-0.7-0.4c-0.2-0.1-0.5-0.2-0.8-0.2s-0.5,0-0.8,0.2c-0.2,0.1-0.5,0.2-0.7,0.4
		s-0.3,0.4-0.5,0.6c-0.1,0.2-0.2,0.5-0.2,0.8H636.3z"/>
	<path class="st0" d="M641.8,132.6c-0.5,0-1,0.2-1.4,0.4s-0.7,0.6-0.9,1.1v3.9h-1.1v-6.3h1v1.5c0.2-0.4,0.5-0.8,0.9-1.1
		s0.7-0.4,1.1-0.4c0.1,0,0.1,0,0.2,0c0.1,0,0.1,0,0.1,0v0.9H641.8z"/>
	<path class="st0" d="M646,137.7c-0.1,0-0.1,0.1-0.3,0.1c-0.1,0-0.2,0.1-0.4,0.1c-0.1,0-0.3,0.1-0.4,0.1s-0.3,0-0.5,0
		c-0.4,0-0.7-0.1-1-0.3s-0.4-0.5-0.4-1v-4.2h-0.9v-0.8h0.9v-2.1h1.1v2.1h1.4v0.8h-1.4v3.9c0,0.2,0.1,0.4,0.2,0.5
		c0.1,0.1,0.3,0.2,0.5,0.2s0.4,0,0.6-0.1c0.2-0.1,0.3-0.1,0.4-0.2L646,137.7z"/>
	<path class="st0" d="M649.7,138.1c-0.5,0-0.9-0.1-1.3-0.3c-0.4-0.2-0.7-0.4-1-0.7s-0.5-0.6-0.7-1s-0.2-0.8-0.2-1.3
		c0-0.4,0.1-0.9,0.2-1.2s0.4-0.7,0.7-1s0.6-0.5,1-0.7s0.8-0.3,1.3-0.3s0.9,0.1,1.3,0.3c0.4,0.2,0.7,0.4,1,0.7s0.5,0.6,0.6,1
		s0.2,0.8,0.2,1.2c0,0.1,0,0.2,0,0.2c0,0.1,0,0.1,0,0.2h-5.2c0,0.3,0.1,0.6,0.2,0.9s0.3,0.5,0.5,0.7s0.4,0.3,0.7,0.4
		c0.2,0.1,0.5,0.2,0.8,0.2c0.2,0,0.4,0,0.6-0.1s0.4-0.1,0.5-0.2s0.3-0.2,0.4-0.3c0.1-0.1,0.2-0.3,0.3-0.4l0.9,0.3
		c-0.1,0.2-0.2,0.4-0.4,0.6c-0.2,0.2-0.4,0.4-0.6,0.5c-0.2,0.1-0.5,0.3-0.8,0.3S650,138.1,649.7,138.1z M651.9,134.4
		c0-0.3-0.1-0.6-0.2-0.8c-0.1-0.3-0.3-0.5-0.5-0.6c-0.2-0.2-0.4-0.3-0.7-0.4c-0.2-0.1-0.5-0.2-0.8-0.2s-0.5,0-0.8,0.2
		c-0.2,0.1-0.5,0.2-0.7,0.4s-0.3,0.4-0.5,0.6c-0.1,0.2-0.2,0.5-0.2,0.8H651.9z"/>
	<path class="st0" d="M656.5,138c-0.4,0-0.8-0.1-1.2-0.3s-0.7-0.4-0.9-0.7c-0.3-0.3-0.5-0.6-0.6-1s-0.2-0.8-0.2-1.2s0.1-0.9,0.2-1.3
		c0.1-0.4,0.3-0.7,0.6-1s0.6-0.5,0.9-0.7c0.4-0.2,0.8-0.3,1.2-0.3c0.5,0,1,0.1,1.4,0.4c0.4,0.3,0.7,0.6,1,1v-1.2h0.9v6.2
		c0,0.4-0.1,0.8-0.3,1.2c-0.2,0.3-0.4,0.6-0.7,0.9c-0.3,0.2-0.6,0.4-1,0.5s-0.8,0.2-1.2,0.2c-0.7,0-1.3-0.1-1.7-0.4
		c-0.4-0.2-0.8-0.6-1.1-1l0.6-0.5c0.2,0.4,0.6,0.6,1,0.8s0.8,0.3,1.3,0.3c0.3,0,0.6,0,0.8-0.1c0.3-0.1,0.5-0.2,0.7-0.4
		s0.3-0.4,0.5-0.6c0.1-0.2,0.2-0.5,0.2-0.9v-1.1c-0.1,0.2-0.3,0.4-0.4,0.5c-0.2,0.2-0.3,0.3-0.5,0.4c-0.2,0.1-0.4,0.2-0.6,0.2
		C657,138,656.8,138,656.5,138z M656.9,137.2c0.2,0,0.4,0,0.6-0.1s0.4-0.2,0.6-0.3c0.2-0.1,0.3-0.3,0.4-0.4c0.1-0.2,0.2-0.3,0.2-0.5
		V134c-0.1-0.2-0.2-0.4-0.3-0.6c-0.1-0.2-0.3-0.3-0.5-0.5c-0.2-0.1-0.4-0.2-0.6-0.3c-0.2-0.1-0.4-0.1-0.6-0.1
		c-0.3,0-0.6,0.1-0.9,0.2s-0.5,0.3-0.6,0.5s-0.3,0.5-0.4,0.8c-0.1,0.3-0.1,0.6-0.1,0.9c0,0.3,0.1,0.6,0.2,0.9s0.3,0.5,0.5,0.7
		s0.4,0.4,0.7,0.5S656.6,137.2,656.9,137.2z"/>
	<path class="st0" d="M664.3,138.1c-0.5,0-0.9-0.1-1.3-0.3c-0.4-0.2-0.7-0.4-1-0.7s-0.5-0.6-0.7-1s-0.2-0.8-0.2-1.3
		c0-0.4,0.1-0.9,0.2-1.2s0.4-0.7,0.7-1s0.6-0.5,1-0.7s0.8-0.3,1.3-0.3s0.9,0.1,1.3,0.3c0.4,0.2,0.7,0.4,1,0.7s0.5,0.6,0.6,1
		s0.2,0.8,0.2,1.2c0,0.1,0,0.2,0,0.2c0,0.1,0,0.1,0,0.2h-5.2c0,0.3,0.1,0.6,0.2,0.9c0.1,0.3,0.3,0.5,0.5,0.7s0.4,0.3,0.7,0.4
		c0.2,0.1,0.5,0.2,0.8,0.2c0.2,0,0.4,0,0.6-0.1c0.2-0.1,0.4-0.1,0.5-0.2s0.3-0.2,0.4-0.3s0.2-0.3,0.3-0.4l0.9,0.3
		c-0.1,0.2-0.2,0.4-0.4,0.6c-0.2,0.2-0.4,0.4-0.6,0.5c-0.2,0.1-0.5,0.3-0.8,0.3C664.9,138.1,664.6,138.1,664.3,138.1z M666.4,134.4
		c0-0.3-0.1-0.6-0.2-0.8s-0.3-0.5-0.5-0.6s-0.4-0.3-0.7-0.4c-0.2-0.1-0.5-0.2-0.8-0.2s-0.5,0-0.8,0.2c-0.2,0.1-0.5,0.2-0.7,0.4
		s-0.3,0.4-0.5,0.6c-0.1,0.2-0.2,0.5-0.2,0.8H666.4z"/>
	<path class="st0" d="M674.1,138H673v-3.5c0-0.7-0.1-1.2-0.3-1.5s-0.5-0.5-0.9-0.5c-0.2,0-0.4,0-0.6,0.1c-0.2,0.1-0.4,0.2-0.6,0.3
		c-0.2,0.1-0.4,0.3-0.5,0.5s-0.3,0.4-0.3,0.7v3.8h-1.1v-6.3h1v1.3c0.2-0.4,0.6-0.8,1.1-1.1s1-0.4,1.5-0.4c0.4,0,0.7,0.1,0.9,0.2
		s0.4,0.3,0.6,0.6c0.1,0.2,0.2,0.5,0.3,0.8s0.1,0.7,0.1,1v4H674.1z"/>
	<path class="st0" d="M683.4,131.7h1l-2.7,6.3h-0.9l-1.3-3.1l-1.2,3.1h-0.9l-2.7-6.3h1l2.2,5.2l1.1-2.6l-1.1-2.6h0.9l0.8,2l0.8-2
		h0.9l-1.1,2.6l1.1,2.6L683.4,131.7z"/>
	<path class="st0" d="M688,138.1c-0.5,0-0.9-0.1-1.3-0.3c-0.4-0.2-0.7-0.4-1-0.7s-0.5-0.6-0.6-1s-0.2-0.8-0.2-1.2s0.1-0.9,0.2-1.2
		c0.2-0.4,0.4-0.7,0.6-1c0.3-0.3,0.6-0.5,1-0.7s0.8-0.3,1.3-0.3s0.9,0.1,1.3,0.3c0.4,0.2,0.7,0.4,1,0.7s0.5,0.6,0.6,1
		c0.2,0.4,0.2,0.8,0.2,1.2s-0.1,0.8-0.2,1.2s-0.4,0.7-0.6,1c-0.3,0.3-0.6,0.5-1,0.7C688.9,138,688.4,138.1,688,138.1z M685.9,134.9
		c0,0.3,0.1,0.6,0.2,0.9c0.1,0.3,0.3,0.5,0.4,0.7c0.2,0.2,0.4,0.4,0.7,0.5s0.5,0.2,0.8,0.2s0.6-0.1,0.8-0.2s0.5-0.3,0.7-0.5
		s0.3-0.5,0.5-0.7s0.2-0.6,0.2-0.9c0-0.3-0.1-0.6-0.2-0.9s-0.3-0.5-0.5-0.7s-0.4-0.4-0.7-0.5s-0.5-0.2-0.8-0.2s-0.6,0.1-0.8,0.2
		c-0.3,0.1-0.5,0.3-0.7,0.5s-0.3,0.5-0.4,0.7C685.9,134.2,685.9,134.5,685.9,134.9z"/>
	<path class="st0" d="M695.1,138.1c-0.5,0-0.9-0.1-1.3-0.3c-0.4-0.2-0.7-0.4-1-0.7s-0.5-0.6-0.6-1c-0.2-0.4-0.2-0.8-0.2-1.2
		s0.1-0.9,0.2-1.2c0.2-0.4,0.4-0.7,0.6-1c0.3-0.3,0.6-0.5,1-0.7s0.8-0.3,1.3-0.3s0.9,0.1,1.3,0.3c0.4,0.2,0.7,0.4,1,0.7
		s0.5,0.6,0.6,1c0.2,0.4,0.2,0.8,0.2,1.2s-0.1,0.8-0.2,1.2c-0.2,0.4-0.4,0.7-0.6,1c-0.3,0.3-0.6,0.5-1,0.7
		C696,138,695.6,138.1,695.1,138.1z M693.1,134.9c0,0.3,0.1,0.6,0.2,0.9c0.1,0.3,0.3,0.5,0.4,0.7s0.4,0.4,0.7,0.5s0.5,0.2,0.8,0.2
		s0.6-0.1,0.8-0.2s0.5-0.3,0.7-0.5s0.3-0.5,0.5-0.7c0.1-0.3,0.2-0.6,0.2-0.9c0-0.3-0.1-0.6-0.2-0.9c-0.1-0.3-0.3-0.5-0.5-0.7
		s-0.4-0.4-0.7-0.5s-0.5-0.2-0.8-0.2s-0.6,0.1-0.8,0.2c-0.3,0.1-0.5,0.3-0.7,0.5s-0.3,0.5-0.4,0.7
		C693.1,134.2,693.1,134.5,693.1,134.9z"/>
	<path class="st0" d="M702.9,132.6c-0.5,0-1,0.2-1.4,0.4s-0.7,0.6-0.9,1.1v3.9h-1.1v-6.3h1v1.5c0.2-0.4,0.5-0.8,0.9-1.1
		s0.7-0.4,1.1-0.4c0.1,0,0.1,0,0.2,0c0.1,0,0.1,0,0.1,0v0.9H702.9z"/>
	<path class="st0" d="M706.4,138.1c-0.4,0-0.8-0.1-1.2-0.3s-0.7-0.4-0.9-0.7s-0.5-0.6-0.6-1s-0.2-0.8-0.2-1.2s0.1-0.9,0.2-1.3
		c0.1-0.4,0.3-0.7,0.6-1s0.6-0.5,0.9-0.7c0.3-0.2,0.7-0.3,1.1-0.3c0.5,0,1,0.1,1.4,0.4c0.4,0.3,0.7,0.6,0.9,1v-3.7h1.1v7.5
		c0,0.2,0.1,0.4,0.3,0.4v0.9c-0.1,0-0.2,0-0.3,0s-0.1,0-0.2,0c-0.2,0-0.4-0.1-0.5-0.2c-0.2-0.1-0.2-0.3-0.2-0.5v-0.5
		c-0.2,0.4-0.6,0.7-1,1C707.3,138,706.9,138.1,706.4,138.1z M706.7,137.2c0.2,0,0.4,0,0.6-0.1c0.2-0.1,0.4-0.2,0.6-0.3
		s0.3-0.3,0.5-0.5c0.1-0.2,0.2-0.4,0.3-0.5V134c-0.1-0.2-0.2-0.4-0.3-0.6c-0.1-0.2-0.3-0.3-0.5-0.5s-0.4-0.2-0.6-0.3
		c-0.2-0.1-0.4-0.1-0.6-0.1c-0.3,0-0.6,0.1-0.8,0.2s-0.5,0.3-0.6,0.5c-0.2,0.2-0.3,0.5-0.4,0.8c-0.1,0.3-0.1,0.6-0.1,0.9
		c0,0.3,0.1,0.6,0.2,0.9c0.1,0.3,0.3,0.5,0.5,0.7s0.4,0.4,0.7,0.5S706.4,137.2,706.7,137.2z"/>
	<path class="st0" d="M711.4,130.5v-1.3h1.1v1.3H711.4z M711.4,138v-6.3h1.1v6.3H711.4z"/>
	<path class="st0" d="M716.6,138c-0.4,0-0.8-0.1-1.2-0.3s-0.7-0.4-0.9-0.7c-0.3-0.3-0.5-0.6-0.6-1s-0.2-0.8-0.2-1.2s0.1-0.9,0.2-1.3
		c0.1-0.4,0.3-0.7,0.6-1s0.6-0.5,0.9-0.7c0.4-0.2,0.8-0.3,1.2-0.3c0.5,0,1,0.1,1.4,0.4c0.4,0.3,0.7,0.6,1,1v-1.2h0.9v6.2
		c0,0.4-0.1,0.8-0.3,1.2c-0.2,0.3-0.4,0.6-0.7,0.9c-0.3,0.2-0.6,0.4-1,0.5s-0.8,0.2-1.2,0.2c-0.7,0-1.3-0.1-1.7-0.4
		c-0.4-0.2-0.8-0.6-1.1-1l0.6-0.5c0.2,0.4,0.6,0.6,1,0.8s0.8,0.3,1.3,0.3c0.3,0,0.6,0,0.8-0.1c0.3-0.1,0.5-0.2,0.7-0.4
		s0.3-0.4,0.5-0.6c0.1-0.2,0.2-0.5,0.2-0.9v-1.1c-0.1,0.2-0.3,0.4-0.4,0.5c-0.2,0.2-0.3,0.3-0.5,0.4c-0.2,0.1-0.4,0.2-0.6,0.2
		C717.1,138,716.9,138,716.6,138z M717,137.2c0.2,0,0.4,0,0.6-0.1s0.4-0.2,0.6-0.3c0.2-0.1,0.3-0.3,0.4-0.4c0.1-0.2,0.2-0.3,0.2-0.5
		V134c-0.1-0.2-0.2-0.4-0.3-0.6c-0.1-0.2-0.3-0.3-0.5-0.5c-0.2-0.1-0.4-0.2-0.6-0.3c-0.2-0.1-0.4-0.1-0.6-0.1
		c-0.3,0-0.6,0.1-0.9,0.2s-0.5,0.3-0.6,0.5s-0.3,0.5-0.4,0.8c-0.1,0.3-0.1,0.6-0.1,0.9c0,0.3,0.1,0.6,0.2,0.9s0.3,0.5,0.5,0.7
		s0.4,0.4,0.7,0.5S716.7,137.2,717,137.2z"/>
	<path class="st0" d="M724.2,138.1c-0.4,0-0.8-0.1-1.2-0.3s-0.7-0.4-0.9-0.7c-0.3-0.3-0.5-0.6-0.6-1s-0.2-0.8-0.2-1.2
		s0.1-0.9,0.2-1.3c0.1-0.4,0.3-0.7,0.6-1s0.6-0.5,0.9-0.7c0.3-0.2,0.7-0.3,1.1-0.3c0.5,0,1,0.1,1.4,0.4c0.4,0.3,0.7,0.6,0.9,1v-3.7
		h1.1v7.5c0,0.2,0.1,0.4,0.3,0.4v0.9c-0.1,0-0.2,0-0.3,0s-0.1,0-0.2,0c-0.2,0-0.4-0.1-0.5-0.2c-0.2-0.1-0.2-0.3-0.2-0.5v-0.5
		c-0.2,0.4-0.6,0.7-1,1C725.1,138,724.7,138.1,724.2,138.1z M724.5,137.2c0.2,0,0.4,0,0.6-0.1c0.2-0.1,0.4-0.2,0.6-0.3
		c0.2-0.1,0.3-0.3,0.5-0.5c0.1-0.2,0.2-0.4,0.3-0.5V134c-0.1-0.2-0.2-0.4-0.3-0.6c-0.1-0.2-0.3-0.3-0.5-0.5
		c-0.2-0.1-0.4-0.2-0.6-0.3c-0.2-0.1-0.4-0.1-0.6-0.1c-0.3,0-0.6,0.1-0.8,0.2s-0.5,0.3-0.6,0.5c-0.2,0.2-0.3,0.5-0.4,0.8
		c-0.1,0.3-0.1,0.6-0.1,0.9c0,0.3,0.1,0.6,0.2,0.9s0.3,0.5,0.5,0.7s0.4,0.4,0.7,0.5S724.2,137.2,724.5,137.2z"/>
</g>
<g>
	<path class="st3" d="M76,28.9v9h-8.9V9.6h12.4c3.5,0,6.1,0.9,8,2.6c1.9,1.8,2.8,4.1,2.8,7.1c0,1.8-0.4,3.4-1.2,4.9
		c-0.8,1.5-2,2.6-3.7,3.5c-1.6,0.9-3.6,1.3-5.9,1.3H76V28.9z M81.3,19.3c0-1.7-0.9-2.6-2.8-2.6H76v5.2h2.5
		C80.4,21.9,81.3,21.1,81.3,19.3z"/>
	<path class="st3" d="M114.2,11c2.2,1.2,4,3,5.3,5.2s1.9,4.7,1.9,7.5s-0.6,5.3-1.9,7.5s-3.1,3.9-5.3,5.2c-2.2,1.3-4.7,1.9-7.3,1.9
		c-2.7,0-5.1-0.6-7.3-1.9c-2.2-1.3-4-3-5.3-5.2s-2-4.7-2-7.5s0.7-5.3,2-7.5s3.1-3.9,5.3-5.2c2.2-1.2,4.7-1.9,7.3-1.9
		S112,9.8,114.2,11z M102.8,19c-1,1.1-1.4,2.7-1.4,4.6s0.5,3.4,1.4,4.6c1,1.1,2.3,1.7,4.1,1.7c1.8,0,3.1-0.6,4.1-1.7
		s1.4-2.7,1.4-4.6s-0.5-3.5-1.4-4.6c-1-1.1-2.3-1.7-4.1-1.7C105.1,17.3,103.8,17.9,102.8,19z"/>
	<path class="st3" d="M133.5,28.9v9h-8.9V9.6H137c3.5,0,6.1,0.9,8,2.6c1.9,1.8,2.8,4.1,2.8,7.1c0,1.8-0.4,3.4-1.2,4.9
		s-2,2.6-3.7,3.5c-1.6,0.9-3.6,1.3-5.9,1.3h-3.5V28.9z M138.8,19.3c0-1.7-0.9-2.6-2.8-2.6h-2.5v5.2h2.5
		C137.9,21.9,138.8,21.1,138.8,19.3z"/>
	<path class="st3" d="M159.5,28.9v9h-8.9V9.6H163c3.5,0,6.1,0.9,8,2.6c1.9,1.8,2.8,4.1,2.8,7.1c0,1.8-0.4,3.4-1.2,4.9
		s-2,2.6-3.7,3.5c-1.6,0.9-3.6,1.3-5.9,1.3h-3.5V28.9z M164.8,19.3c0-1.7-0.9-2.6-2.8-2.6h-2.5v5.2h2.5
		C163.8,21.9,164.8,21.1,164.8,19.3z"/>
	<path class="st3" d="M185.4,9.6v28.3h-8.9V9.6H185.4z"/>
	<path class="st3" d="M216.6,37.9h-8.9l-9.4-14.2v14.2h-8.9V9.6h8.9l9.4,14.5V9.6h8.9V37.9z"/>
	<path class="st3" d="M241.2,34c-0.8,1.3-2.1,2.3-3.7,3.1c-1.6,0.8-3.5,1.1-5.7,1.1c-3.4,0-6.2-0.8-8.4-2.4c-2.2-1.6-3.4-3.9-3.6-7
		h9.4c0.1,1.6,0.9,2.4,2.2,2.4c0.5,0,0.8-0.1,1.1-0.4s0.4-0.6,0.4-1c0-0.7-0.3-1.2-1-1.6s-1.8-0.8-3.3-1.3c-1.8-0.6-3.3-1.2-4.5-1.8
		c-1.2-0.6-2.2-1.5-3.1-2.7c-0.9-1.2-1.3-2.8-1.3-4.7c0-1.8,0.5-3.4,1.4-4.7s2.2-2.3,3.9-2.9c1.6-0.7,3.5-1,5.5-1
		c3.4,0,6.1,0.8,8.1,2.4s3.1,3.8,3.3,6.8h-9.6c-0.1-1.5-0.7-2.2-1.8-2.2c-0.4,0-0.7,0.1-0.9,0.3c-0.2,0.2-0.4,0.6-0.4,1
		c0,0.6,0.3,1.1,1,1.5s1.7,0.8,3.2,1.3c1.8,0.6,3.3,1.3,4.5,1.9s2.2,1.5,3.1,2.8c0.9,1.2,1.3,2.8,1.3,4.7
		C242.5,31.2,242.1,32.7,241.2,34z"/>
	<path class="st3" d="M275.3,25.9c0.9,1.2,1.4,2.7,1.4,4.3c0,2.5-0.8,4.4-2.5,5.7s-4,2-7.1,2h-14.8V9.6h14.4c2.9,0,5.1,0.6,6.8,1.9
		c1.7,1.3,2.5,3.1,2.5,5.5c0,1.7-0.4,3-1.3,4.2c-0.9,1.1-2,1.9-3.5,2.3C273.1,23.8,274.4,24.6,275.3,25.9z M261.3,20.7h3.4
		c0.8,0,1.4-0.2,1.8-0.5s0.6-0.8,0.6-1.5s-0.2-1.2-0.6-1.5s-1-0.5-1.8-0.5h-3.4V20.7z M267.1,30.4c0.4-0.3,0.6-0.8,0.6-1.5
		c0-1.4-0.8-2-2.4-2h-4v4h4C266.1,30.8,266.7,30.7,267.1,30.4z"/>
	<path class="st3" d="M288.6,8.3v29.6h-8.9V8.3H288.6z"/>
	<path class="st3" d="M304.6,16c1.1,0.6,1.9,1.4,2.4,2.5v-3.1h8.8V38H307v-3.1c-0.6,1-1.4,1.9-2.4,2.5c-1.1,0.6-2.3,0.9-3.8,0.9
		c-1.8,0-3.3-0.5-4.8-1.4c-1.4-0.9-2.5-2.3-3.3-4s-1.2-3.8-1.2-6.2s0.4-4.4,1.2-6.2c0.8-1.7,1.9-3.1,3.3-4c1.4-0.9,3-1.4,4.8-1.4
		C302.2,15.1,303.5,15.4,304.6,16z M301.4,23.9c-0.6,0.7-0.9,1.6-0.9,2.8s0.3,2.1,0.9,2.8c0.6,0.7,1.4,1,2.4,1s1.7-0.3,2.4-1
		c0.6-0.7,0.9-1.6,0.9-2.8s-0.3-2.1-0.9-2.8c-0.6-0.7-1.4-1-2.4-1S302,23.2,301.4,23.9z"/>
	<path class="st3" d="M337.6,17.6c2,1.7,3.3,3.9,3.8,6.9H332c-0.3-1.2-1-1.8-2-1.8c-0.7,0-1.3,0.3-1.7,1c-0.4,0.7-0.6,1.7-0.6,3
		s0.2,2.3,0.6,3s1,1,1.7,1c1,0,1.7-0.6,2-1.8h9.4c-0.5,2.9-1.8,5.2-3.8,6.9s-4.5,2.5-7.4,2.5c-2.2,0-4.2-0.5-6-1.4
		c-1.7-0.9-3.1-2.3-4.1-4s-1.5-3.8-1.5-6.1s0.5-4.4,1.5-6.1s2.3-3.1,4.1-4c1.7-0.9,3.7-1.4,6-1.4C333.1,15.1,335.6,15.9,337.6,17.6z
		"/>
	<path class="st3" d="M358.6,37.9l-5.6-9v9h-8.9V8.3h8.9v15.5l5.6-8.4H369l-8.4,11.4l8.6,11.2L358.6,37.9L358.6,37.9z"/>
	<path class="st3" d="M72.5,75v11h-4.6V57.7h9.6c3.3,0,5.7,0.8,7.3,2.3c1.6,1.5,2.5,3.7,2.5,6.4c0,2.7-0.8,4.8-2.5,6.3
		S80.7,75,77.5,75C77.5,75,72.5,75,72.5,75z M82.7,66.4c0-1.6-0.4-2.8-1.3-3.7c-0.9-0.8-2.3-1.3-4.3-1.3h-4.6v9.8H77
		C80.8,71.3,82.7,69.6,82.7,66.4z"/>
	<path class="st3" d="M111.5,59.2c2.1,1.2,3.8,2.9,5,5.1c1.2,2.2,1.8,4.7,1.8,7.5s-0.6,5.3-1.8,7.5c-1.2,2.2-2.9,3.9-5,5.2
		s-4.5,1.9-7.1,1.9s-5-0.6-7.1-1.9c-2.1-1.2-3.8-3-5-5.2s-1.8-4.7-1.8-7.5s0.6-5.3,1.8-7.5c1.2-2.2,2.9-3.9,5-5.1
		c2.1-1.2,4.5-1.8,7.1-1.8C107,57.3,109.4,57.9,111.5,59.2z M99.6,62.8c-1.4,0.8-2.5,2-3.3,3.6c-0.8,1.5-1.2,3.3-1.2,5.4
		s0.4,3.9,1.2,5.4c0.8,1.5,1.9,2.7,3.3,3.6c1.4,0.8,3,1.2,4.8,1.2s3.4-0.4,4.8-1.2c1.4-0.8,2.5-2,3.3-3.6c0.8-1.5,1.2-3.3,1.2-5.4
		s-0.4-3.9-1.2-5.4c-0.8-1.5-1.9-2.7-3.3-3.6c-1.4-0.8-3-1.2-4.8-1.2C102.6,61.6,101,62,99.6,62.8z"/>
	<path class="st3" d="M127.5,75v11h-4.6V57.7h9.6c3.3,0,5.7,0.8,7.3,2.3s2.5,3.7,2.5,6.4c0,2.7-0.8,4.8-2.5,6.3s-4.1,2.3-7.3,2.3
		C132.5,75,127.5,75,127.5,75z M137.7,66.4c0-1.6-0.4-2.8-1.3-3.7c-0.9-0.8-2.3-1.3-4.3-1.3h-4.6v9.8h4.6
		C135.8,71.3,137.7,69.6,137.7,66.4z"/>
	<path class="st3" d="M150.9,75v11h-4.6V57.7h9.6c3.3,0,5.7,0.8,7.3,2.3s2.5,3.7,2.5,6.4c0,2.7-0.8,4.8-2.5,6.3s-4.1,2.3-7.3,2.3
		C155.9,75,150.9,75,150.9,75z M161.1,66.4c0-1.6-0.4-2.8-1.3-3.7c-0.9-0.8-2.3-1.3-4.3-1.3h-4.6v9.8h4.6
		C159.2,71.3,161.1,69.6,161.1,66.4z"/>
	<path class="st3" d="M174.3,57.7v28.2h-4.6V57.7H174.3z"/>
	<path class="st3" d="M202.6,85.9H198l-13.7-20.8v20.8h-4.6V57.7h4.6L198,78.6V57.7h4.6V85.9z"/>
	<path class="st3" d="M225.7,82.3c-0.7,1.2-1.7,2.1-3,2.9c-1.4,0.7-3,1.1-5,1.1c-1.9,0-3.6-0.3-5.2-1c-1.5-0.7-2.7-1.6-3.6-2.9
		c-0.9-1.2-1.4-2.6-1.6-4.2h4.9c0.1,1.2,0.7,2.3,1.6,3.2s2.2,1.3,3.7,1.3c1.4,0,2.5-0.4,3.2-1.1c0.8-0.7,1.1-1.7,1.1-2.9
		c0-1-0.3-1.8-0.8-2.5c-0.6-0.7-1.3-1.2-2.1-1.5c-0.8-0.4-2-0.8-3.4-1.3c-1.8-0.6-3.2-1.1-4.3-1.7s-2-1.4-2.8-2.4
		c-0.8-1.1-1.2-2.5-1.2-4.2c0-1.5,0.4-2.9,1.1-4c0.7-1.1,1.8-2,3.2-2.7c1.4-0.6,3-0.9,4.8-0.9c2.9,0,5.2,0.7,6.9,2.1
		s2.7,3.2,2.9,5.4h-4.9c-0.2-1.1-0.7-2-1.5-2.7c-0.8-0.8-1.9-1.1-3.3-1.1c-1.3,0-2.3,0.3-3.1,1s-1.2,1.6-1.2,2.8
		c0,1,0.3,1.8,0.8,2.4s1.2,1.1,2,1.5s1.9,0.8,3.3,1.3c1.8,0.6,3.2,1.1,4.4,1.7s2.1,1.4,2.9,2.5c0.8,1.1,1.2,2.5,1.2,4.3
		C226.7,79.8,226.4,81.1,225.7,82.3z"/>
	<path class="st3" d="M274.5,66c1.6,1.7,2.3,4,2.3,7.1v12.8h-4.6V73.6c0-1.9-0.5-3.4-1.4-4.5c-1-1.1-2.3-1.6-4-1.6
		c-1.8,0-3.2,0.6-4.3,1.7c-1.1,1.1-1.6,2.8-1.6,5v11.7h-4.6V73.6c0-1.9-0.5-3.4-1.4-4.5c-1-1.1-2.3-1.6-4-1.6
		c-1.8,0-3.2,0.6-4.3,1.7s-1.6,2.8-1.6,5v11.7h-4.6v-22h4.6v4.6c0.6-1.6,1.5-2.8,2.8-3.7c1.3-0.9,2.8-1.3,4.6-1.3s3.4,0.5,4.8,1.4
		c1.3,0.9,2.3,2.2,2.9,3.9c0.6-1.7,1.7-2.9,3.1-3.9c1.4-0.9,3-1.4,4.8-1.4C270.8,63.5,272.9,64.4,274.5,66z"/>
	<path class="st3" d="M302.4,75.8h-17c0.1,2.3,0.7,3.9,1.9,5c1.2,1.1,2.6,1.6,4.4,1.6c1.5,0,2.8-0.4,3.9-1.2
		c1.1-0.8,1.7-1.8,1.9-3.1h4.9c-0.3,1.5-0.9,2.9-1.8,4.1s-2.1,2.1-3.6,2.8c-1.5,0.7-3.2,1-5,1c-2.1,0-4-0.5-5.7-1.4
		c-1.6-0.9-2.9-2.2-3.9-3.9c-0.9-1.7-1.4-3.7-1.4-6s0.5-4.3,1.4-6s2.2-3,3.9-3.9c1.6-0.9,3.5-1.4,5.7-1.4s4,0.4,5.7,1.3
		c1.6,0.9,2.9,2.1,3.7,3.7c0.9,1.6,1.3,3.3,1.3,5.2C302.6,74.6,302.5,75.3,302.4,75.8z M297.3,70.1c-0.5-1-1.3-1.7-2.2-2.2
		c-0.9-0.5-2-0.7-3.1-0.7c-1.8,0-3.3,0.5-4.5,1.6s-1.9,2.7-2,4.8H298C298,72.3,297.8,71.1,297.3,70.1z"/>
	<path class="st3" d="M321,65.1c1.4,1,2.4,2.3,3,3.9V56.3h4.6v29.6H324v-5.1c-0.6,1.6-1.5,2.9-3,3.9c-1.4,1-3.1,1.5-5.1,1.5
		c-1.9,0-3.6-0.5-5.1-1.4s-2.7-2.2-3.5-3.9c-0.9-1.7-1.3-3.7-1.3-6s0.4-4.3,1.3-6s2-3,3.5-3.9s3.2-1.4,5.1-1.4S319.5,64.1,321,65.1z
		 M312.4,69.6c-1.2,1.3-1.8,3.1-1.8,5.3s0.6,4,1.8,5.3c1.2,1.3,2.8,1.9,4.9,1.9c1.3,0,2.4-0.3,3.4-0.9s1.8-1.4,2.4-2.5
		s0.9-2.4,0.9-3.8s-0.3-2.7-0.9-3.8c-0.6-1.1-1.4-2-2.4-2.6s-2.2-0.9-3.4-0.9C315.2,67.6,313.6,68.3,312.4,69.6z"/>
	<path class="st3" d="M334.2,55.6c0.5-0.5,1.2-0.8,2.1-0.8s1.6,0.3,2.1,0.8s0.8,1.1,0.8,1.9c0,0.8-0.3,1.4-0.8,1.9s-1.3,0.7-2.1,0.7
		s-1.6-0.2-2.1-0.7s-0.8-1.1-0.8-1.9C333.4,56.7,333.6,56.1,334.2,55.6z M338.6,63.9v22H334v-22H338.6z"/>
	<path class="st3" d="M364.4,63.9v22h-4.6v-4.8c-0.6,1.6-1.5,2.9-2.9,3.8s-3,1.3-4.8,1.3c-2.6,0-4.6-0.8-6.2-2.5
		c-1.5-1.7-2.3-4-2.3-7.1V63.9h4.6v12.3c0,2,0.5,3.5,1.5,4.6s2.4,1.6,4.2,1.6c1.8,0,3.3-0.6,4.4-1.8c1.1-1.2,1.6-2.9,1.6-5.1V63.9
		H364.4z"/>
	<path class="st3" d="M403.7,66c1.6,1.7,2.3,4,2.3,7.1v12.8h-4.6V73.6c0-1.9-0.5-3.4-1.4-4.5c-1-1.1-2.3-1.6-4-1.6
		c-1.8,0-3.2,0.6-4.3,1.7c-1.1,1.1-1.6,2.8-1.6,5v11.7h-4.6V73.6c0-1.9-0.5-3.4-1.4-4.5c-1-1.1-2.3-1.6-4-1.6
		c-1.8,0-3.2,0.6-4.3,1.7c-1.1,1.1-1.6,2.8-1.6,5v11.7h-4.6v-22h4.6v4.6c0.6-1.6,1.5-2.8,2.8-3.7c1.3-0.9,2.8-1.3,4.6-1.3
		c1.8,0,3.4,0.5,4.8,1.4c1.3,0.9,2.3,2.2,2.9,3.9c0.6-1.7,1.7-2.9,3.1-3.9c1.4-0.9,3-1.4,4.8-1.4C400,63.5,402.1,64.4,403.7,66z"/>
	<path class="st3" d="M75.1,124.9l-1.6,9h-8.9l5-28.3H82c3,0,5.3,0.7,6.9,2c1.6,1.4,2.4,3.2,2.4,5.6c0,0.6-0.1,1.3-0.2,2.1
		c-0.3,1.8-1,3.4-2.1,4.9s-2.5,2.6-4.3,3.5s-3.8,1.3-6.1,1.3L75.1,124.9L75.1,124.9z M82.1,115.3c0-0.2,0-0.4,0-0.6
		c0-1.3-0.8-2-2.4-2h-2.5l-0.9,5.2h2.5C80.7,117.9,81.8,117.1,82.1,115.3z"/>
	<path class="st3" d="M115,106.7c2,1.1,3.5,2.5,4.5,4.4s1.6,4.1,1.6,6.6c0,1-0.1,2.2-0.3,3.5c-0.5,2.5-1.4,4.8-2.8,6.7
		c-1.4,2-3.2,3.5-5.3,4.6c-2.2,1.1-4.6,1.6-7.4,1.6s-5.1-0.5-7.1-1.6c-2-1-3.5-2.5-4.5-4.4c-1-1.9-1.5-4.1-1.5-6.6
		c0-1.3,0.1-2.5,0.3-3.6c0.5-2.5,1.4-4.8,2.8-6.7s3.2-3.5,5.4-4.6c2.2-1.1,4.7-1.6,7.4-1.6C110.6,105.1,113,105.7,115,106.7z
		 M103.2,114.9c-1.1,1.1-1.8,2.5-2.1,4.3c-0.1,0.5-0.2,1.1-0.2,1.7c0,1.5,0.4,2.8,1.3,3.6s2.1,1.3,3.7,1.3s3-0.5,4.1-1.6
		s1.8-2.5,2.1-4.3c0.1-0.6,0.2-1.1,0.2-1.8c0-1.6-0.4-2.8-1.3-3.7c-0.8-0.9-2.1-1.3-3.7-1.3C105.6,113.3,104.3,113.9,103.2,114.9z"
		/>
	<path class="st3" d="M132,124.9l-1.6,9h-8.9l5-28.3h12.4c3,0,5.3,0.7,6.9,2c1.6,1.4,2.4,3.2,2.4,5.6c0,0.6-0.1,1.3-0.2,2.1
		c-0.3,1.8-1,3.4-2.1,4.9s-2.5,2.6-4.3,3.5s-3.8,1.3-6.1,1.3L132,124.9L132,124.9z M139,115.3c0-0.2,0-0.4,0-0.6c0-1.3-0.8-2-2.4-2
		h-2.5l-0.9,5.2h2.5C137.6,117.9,138.6,117.1,139,115.3z"/>
	<path class="st3" d="M157.9,124.9l-1.6,9h-8.9l5-28.3h12.4c3,0,5.3,0.7,6.9,2c1.6,1.4,2.4,3.2,2.4,5.6c0,0.6-0.1,1.3-0.2,2.1
		c-0.3,1.8-1,3.4-2.1,4.9s-2.5,2.6-4.3,3.5s-3.8,1.3-6.1,1.3L157.9,124.9L157.9,124.9z M164.9,115.3c0-0.2,0-0.4,0-0.6
		c0-1.3-0.8-2-2.4-2H160l-0.9,5.2h2.5C163.5,117.9,164.6,117.1,164.9,115.3z"/>
	<path class="st3" d="M187.3,105.6l-5,28.3h-8.9l5-28.3C178.4,105.6,187.3,105.6,187.3,105.6z"/>
	<path class="st3" d="M213.5,133.9h-8.9l-6.9-14.2l-2.5,14.2h-8.9l5-28.3h8.9l6.9,14.5l2.5-14.5h8.9L213.5,133.9z"/>
	<path class="st3" d="M238.9,130.6c-1,1.1-2.3,2-3.9,2.7c-1.6,0.7-3.5,1-5.6,1c-3.5,0-6.2-0.8-8.2-2.4c-1.9-1.6-2.9-3.9-3-6.9h9.4
		c-0.2,1.6,0.4,2.4,1.8,2.4c0.5,0,0.9-0.1,1.3-0.4c0.3-0.3,0.5-0.7,0.5-1.3c0-0.6-0.3-1.2-0.9-1.6c-0.6-0.4-1.6-0.9-3-1.5
		c-1.5-0.6-2.7-1.2-3.7-1.8c-1-0.6-1.9-1.4-2.6-2.5c-0.7-1.1-1.1-2.4-1.1-3.9c0-0.6,0.1-1.2,0.2-2c0.4-2.2,1.6-4,3.7-5.2
		c2.1-1.2,4.6-1.8,7.4-1.8c3.7,0,6.4,0.8,8.2,2.4s2.7,3.9,2.8,6.8h-9.6c0.1-1.5-0.3-2.2-1.4-2.2c-0.4,0-0.8,0.1-1.1,0.4
		s-0.5,0.7-0.5,1.2c0,0.6,0.3,1.1,0.9,1.5c0.6,0.4,1.6,0.8,2.9,1.4c1.5,0.6,2.8,1.2,3.8,1.8c1,0.6,1.9,1.4,2.6,2.4s1.1,2.4,1.1,4
		c0,0.6-0.1,1.2-0.2,2C240.5,128.2,239.9,129.4,238.9,130.6z"/>
	<path class="st3" d="M249.6,133.9l5.2-29.6h8.9l-1.8,10.1c0.7-1,1.7-1.9,2.9-2.5c1.2-0.6,2.5-0.9,3.9-0.9c2.3,0,4.1,0.8,5.5,2.3
		s2.1,3.6,2.1,6.3c0,1-0.1,2-0.3,3c-0.4,2.4-1.2,4.4-2.3,6.2c-1.1,1.7-2.5,3.1-4,4c-1.6,0.9-3.2,1.4-5,1.4c-1.5,0-2.7-0.3-3.6-0.9
		c-0.9-0.6-1.6-1.4-2-2.5l-0.6,3.1L249.6,133.9L249.6,133.9z M265.6,125.5c0.7-0.7,1.2-1.6,1.4-2.8c0.1-0.2,0.1-0.6,0.1-1
		c0-0.9-0.2-1.6-0.7-2.1s-1.1-0.7-2-0.7c-1,0-1.8,0.3-2.5,1s-1.2,1.6-1.4,2.8c-0.1,0.2-0.1,0.6-0.1,1c0,0.9,0.2,1.6,0.7,2.1
		s1.1,0.7,2,0.7S264.8,126.1,265.6,125.5z"/>
	<path class="st3" d="M291,104.3l-5.2,29.6h-8.9l5.2-29.6C282.1,104.3,291,104.3,291,104.3z"/>
	<path class="st3" d="M305.4,112c1,0.6,1.7,1.4,2.1,2.5l0.6-3.1h8.8l-4,22.6H304l0.6-3.1c-0.7,1-1.7,1.9-2.9,2.5
		c-1.2,0.6-2.5,0.9-4,0.9c-2.4,0-4.2-0.8-5.6-2.3c-1.3-1.6-2-3.7-2-6.5c0-1,0.1-2.1,0.3-3.5c0.4-2.2,1.1-4.1,2.2-5.8
		c1.1-1.6,2.4-2.9,3.9-3.7c1.5-0.9,3.1-1.3,4.8-1.3C303,111.1,304.3,111.4,305.4,112z M300.9,119.9c-0.7,0.7-1.2,1.6-1.4,2.8
		c-0.1,0.2-0.1,0.6-0.1,1c0,0.9,0.2,1.6,0.7,2.1s1.1,0.7,2,0.7c1,0,1.8-0.3,2.5-1s1.2-1.6,1.4-2.8c0.1-0.2,0.1-0.6,0.1-1
		c0-0.9-0.2-1.6-0.7-2.1s-1.1-0.7-2-0.7S301.6,119.2,300.9,119.9z"/>
	<path class="st3" d="M338.2,113.6c1.8,1.7,2.7,3.9,2.7,6.9h-9.4c-0.2-1.2-0.8-1.8-1.8-1.8c-0.7,0-1.3,0.3-1.9,1
		c-0.5,0.7-0.9,1.7-1.1,3c-0.1,0.7-0.2,1.2-0.2,1.5c0,0.8,0.2,1.4,0.5,1.9c0.3,0.4,0.8,0.6,1.3,0.6c1,0,1.8-0.6,2.3-1.8h9.4
		c-1,2.9-2.7,5.2-5,6.9s-4.9,2.5-7.9,2.5s-5.3-0.8-7.1-2.5s-2.7-4-2.7-7c0-0.7,0.1-1.7,0.3-2.8c0.4-2.2,1.2-4.1,2.5-5.7
		c1.2-1.6,2.8-2.9,4.6-3.7c1.9-0.9,3.9-1.3,6.1-1.3C334,111.1,336.4,111.9,338.2,113.6z"/>
	<path class="st3" d="M359.8,122.4l6.3,11.5H356l-3.9-9.3l-1.6,9.3h-8.9l5.2-29.6h8.9l-2.7,15.2l7.1-8.2h10.3L359.8,122.4z"/>
	<path class="st3" d="M388.7,105.6l-5,28.3h-8.9l5-28.3C379.8,105.6,388.7,105.6,388.7,105.6z"/>
	<path class="st3" d="M399.6,124.9c0,0.1,0,0.2,0,0.4c0,0.7,0.5,1.1,1.4,1.1h2.1l-1.4,7.6h-3.4c-5.3,0-7.9-2.2-7.9-6.7
		c0-0.8,0.1-1.7,0.2-2.6l1-5.9H389l1.3-7.4h2.8l1-5.4h8.9l-1,5.4h3.7l-1.3,7.4h-3.7L399.6,124.9z"/>
	<path class="st3" d="M421.5,112c1,0.6,1.7,1.4,2.1,2.5l0.6-3.1h8.8l-4,22.6h-8.8l0.6-3.1c-0.7,1-1.7,1.9-2.9,2.5
		c-1.2,0.6-2.5,0.9-4,0.9c-2.4,0-4.2-0.8-5.6-2.3c-1.3-1.6-2-3.7-2-6.5c0-1,0.1-2.1,0.3-3.5c0.4-2.2,1.1-4.1,2.2-5.8
		c1.1-1.6,2.4-2.9,3.9-3.7s3.1-1.3,4.8-1.3C419.1,111.1,420.4,111.4,421.5,112z M417,119.9c-0.7,0.7-1.2,1.6-1.4,2.8
		c-0.1,0.2-0.1,0.6-0.1,1c0,0.9,0.2,1.6,0.7,2.1s1.1,0.7,2,0.7c1,0,1.8-0.3,2.5-1s1.2-1.6,1.4-2.8c0.1-0.2,0.1-0.6,0.1-1
		c0-0.9-0.2-1.6-0.7-2.1s-1.1-0.7-2-0.7S417.7,119.2,417,119.9z"/>
	<path class="st3" d="M447.1,104.3l-5.2,29.6H433l5.2-29.6C438.2,104.3,447.1,104.3,447.1,104.3z"/>
	<path class="st3" d="M458.5,111.4l-4,22.6h-8.9l4-22.6H458.5z M450.8,103.4c0.5-0.8,1.2-1.4,2.2-1.9c0.9-0.5,1.9-0.7,3.1-0.7
		c1.4,0,2.4,0.3,3.2,1c0.8,0.7,1.2,1.6,1.2,2.6c0,0.9-0.3,1.8-0.8,2.6c-0.5,0.8-1.2,1.4-2.1,1.9s-1.9,0.7-3,0.7
		c-1.4,0-2.5-0.3-3.3-1s-1.2-1.6-1.2-2.6C450,105,450.3,104.1,450.8,103.4z"/>
	<path class="st3" d="M479.8,113.6c1.8,1.7,2.7,3.9,2.7,6.9h-9.4c-0.2-1.2-0.8-1.8-1.8-1.8c-0.7,0-1.3,0.3-1.9,1
		c-0.5,0.7-0.9,1.7-1.1,3c-0.1,0.7-0.2,1.2-0.2,1.5c0,0.8,0.2,1.4,0.5,1.9c0.3,0.4,0.8,0.6,1.3,0.6c1,0,1.8-0.6,2.3-1.8h9.4
		c-1,2.9-2.7,5.2-5,6.9s-4.9,2.5-7.9,2.5s-5.3-0.8-7.1-2.5s-2.7-4-2.7-7c0-0.7,0.1-1.7,0.3-2.8c0.4-2.2,1.2-4.1,2.5-5.7
		c1.2-1.6,2.8-2.9,4.6-3.7c1.9-0.9,3.9-1.3,6.1-1.3C475.6,111.1,478,111.9,479.8,113.6z"/>
</g>
</svg>
