<?xml version="1.0" encoding="utf-8"?>
<!-- Generator: Adobe Illustrator 22.0.0, SVG Export Plug-In . SVG Version: 6.00 Build 0)  -->
<svg version="1.1" id="Laag_1" xmlns="http://www.w3.org/2000/svg" xmlns:xlink="http://www.w3.org/1999/xlink" x="0px" y="0px"
	 viewBox="0 0 841.9 425.5" style="enable-background:new 0 0 841.9 425.5;" xml:space="preserve">
<style type="text/css">
	.st0{fill:#FFFFFF;}
	.st1{fill:#1B69A0;}
	.st2{opacity:0.36;fill:#FFFFFF;enable-background:new    ;}
</style>
<g>
	<g>
		<path class="st0" d="M667.5,384.1c0-14-11.4-25.4-25.4-25.4c-0.7,0-1.4,0-2,0.1c-1.9,0.1-4.4,0.6-7,1.4c-7,2.4-23.8,10.7-39.1,38
			c-0.5-1.4-1.3-4.4-1.3-7.7c-4.3,7.4-4.2,26.8-4.2,26.8l4.1-8.7c9.1-19.1,19.2-30.3,27.4-36.9c-1.9,3.3-3,7.1-3.2,11.2
			c-9.9,9.6-18.4,23.7-25.6,42.1l-1.7-4.7c-1.1,3.9-2.9,17-2.6,20.7c4.6-2.9,12.5-15.3,13.3-16.4c-2.7,0.8-4.6,1.5-5.9,2.1
			c7.3-19,15.5-31.2,22.7-39c0.4,2.7,1.2,5.3,2.4,7.6c-4,4.7-8.4,10.8-12.8,19.1l-4.3,9.1c0,0,14.3-10.1,18.1-15
			c-3.5,1.4-6.6,2.3-7.9,2.6c3.1-5.2,6.1-9.3,8.9-12.7c4.6,6.6,12.2,11,20.9,11c6.3,0,12.1-2.3,16.6-6.2c0.3-0.2,0.5-0.4,0.5-0.4
			C664.3,398.2,667.5,391.5,667.5,384.1z M657.3,399.8c-4.3-0.1-16.5-1.3-25.7-11.1c4.2-2.8,7.3-3.7,8.9-4c6.2,7.3,16,8.4,21,8.4
			c0.2,0,0.3,0,0.5,0C660.9,395.7,659.3,397.9,657.3,399.8z M650.9,387.9c-2.6-1-5.2-2.5-7.3-4.8c2.5-4.8,3-9.3,1.6-20.7
			c3.3,0.5,6.4,1.7,9,3.5C654.6,369.5,655,381.4,650.9,387.9z M664,384.1c0,1.9-0.3,3.8-0.7,5.6c-1.7,0.1-5.1,0.1-8.9-0.8
			c3.3-6,3.7-14.7,3.6-20C661.7,372.9,664,378.2,664,384.1z M640.3,362.2c0.9,0,1.4,0.1,1.5,0.1l0,0l0,0c0.3,2.6,0.5,4.8,0.7,6.7
			c-2.9,0.3-9.4,1.5-17.4,7c-1.5,1-2.9,2.1-4.3,3.3C622.8,370.1,630.6,363,640.3,362.2z M620.2,384.4c2.3-2.2,4.5-3.9,6.5-5.3
			c7.3-5.1,13.3-6.3,15.9-6.5c0,4-0.7,6.4-1.9,8.7c-2.6,0.3-9.8,1.9-18.9,11.3C620.8,390,620.2,387.3,620.2,384.4z M623.6,395.8
			c1.9-2,3.6-3.6,5.3-4.9c8,8.8,18,11.4,24.3,12.2c-3.2,1.9-7,3-11,3C634.3,406,627.5,401.9,623.6,395.8z"/>
	</g>
	<g>
		<path class="st0" d="M631.1,436.5v-18.1h-9.4v-4.3h23.9v4.3h-9.4v18.1H631.1z"/>
		<path class="st0" d="M666.2,436.5l-13.1-8.2v8.2h-5v-22.4h17.6c1.6,0,2.9,0.1,4,0.3c1.1,0.2,2,0.6,2.7,1.1s1.2,1.2,1.6,2.1
			c0.3,0.9,0.5,2,0.5,3.3v1.5c0,1.3-0.2,2.4-0.5,3.2c-0.4,0.8-0.9,1.5-1.6,2c-0.7,0.5-1.7,0.8-2.8,1s-2.4,0.3-4,0.3h-3.9l13.2,7.6
			H666.2z M669.5,421.1c0-0.6-0.1-1.1-0.2-1.4c-0.1-0.4-0.4-0.7-0.7-0.9c-0.3-0.2-0.7-0.3-1.3-0.4c-0.5-0.1-1.2-0.1-2-0.1H653v6.8
			h12.3c0.8,0,1.5,0,2-0.1s1-0.2,1.3-0.4c0.3-0.2,0.5-0.5,0.7-0.9c0.1-0.4,0.2-0.9,0.2-1.5V421.1z"/>
		<path class="st0" d="M678.1,436.5v-22.4h5v22.4H678.1z"/>
		<path class="st0" d="M695.1,436.5v-18.1h-9.4v-4.3h23.9v4.3h-9.4v18.1H695.1z"/>
		<path class="st0" d="M720.5,436.5c-1.6,0-3-0.1-4.1-0.4s-2-0.7-2.6-1.3c-0.7-0.6-1.1-1.4-1.4-2.4c-0.3-1-0.4-2.2-0.4-3.6v-7
			c0-1.4,0.1-2.6,0.4-3.6c0.3-1,0.7-1.8,1.4-2.4s1.5-1,2.6-1.3s2.5-0.4,4.1-0.4h8.5c1.7,0,3,0.1,4.1,0.4s2,0.7,2.6,1.3
			c0.7,0.6,1.1,1.4,1.4,2.4c0.3,1,0.4,2.2,0.4,3.6v7c0,1.4-0.1,2.6-0.4,3.6c-0.3,1-0.7,1.8-1.4,2.4s-1.5,1-2.6,1.3s-2.5,0.4-4.1,0.4
			H720.5z M732.6,422c0-0.7-0.1-1.3-0.2-1.7s-0.3-0.8-0.6-1.1c-0.3-0.3-0.7-0.5-1.2-0.6s-1.1-0.2-1.8-0.2h-8.1
			c-0.8,0-1.4,0.1-1.9,0.2s-0.9,0.3-1.2,0.6c-0.3,0.3-0.5,0.7-0.6,1.1c-0.1,0.5-0.1,1-0.1,1.7v6.6c0,0.7,0,1.3,0.1,1.8
			s0.3,0.8,0.6,1.1c0.3,0.3,0.7,0.5,1.2,0.6s1.1,0.1,1.9,0.1h8.1c0.7,0,1.3,0,1.8-0.1s0.9-0.3,1.2-0.6c0.3-0.3,0.5-0.6,0.6-1.1
			s0.2-1.1,0.2-1.8V422z"/>
		<path class="st0" d="M765.1,437c-0.5,0-1-0.1-1.5-0.2c-0.4-0.2-0.9-0.4-1.3-0.8L746,420.5v16h-4.6v-20.9c0-0.7,0.2-1.2,0.7-1.6
			c0.5-0.3,1.1-0.5,1.9-0.5c0.6,0,1,0.1,1.4,0.2c0.4,0.2,0.7,0.4,0.9,0.6l16.5,15.9V414h4.7v20.9c0,0.7-0.2,1.3-0.7,1.6
			C766.4,436.8,765.8,437,765.1,437z"/>
	</g>
	<g>
		<path class="st0" d="M686,409.7l-5.6-4.9v4.9h-2.2v-10.1h2.2v4.8l5.5-4.8h3l-5.8,4.9l5.9,5.2H686z"/>
		<path class="st0" d="M692.3,409.7c-0.6,0-1.1,0-1.4-0.1c-0.4-0.1-0.7-0.2-0.9-0.4c-0.2-0.2-0.4-0.4-0.5-0.7
			c-0.1-0.3-0.1-0.6-0.1-0.9v-0.8c0-0.3,0-0.6,0.1-0.9s0.2-0.5,0.4-0.7s0.5-0.3,0.8-0.4c0.4-0.1,0.8-0.1,1.4-0.1h5.9v-0.2
			c0-0.5-0.1-0.9-0.3-1c-0.2-0.2-0.6-0.3-1-0.3h-2.2v-1.6h2.2c0.6,0,1.2,0.1,1.6,0.2c0.4,0.1,0.8,0.3,1.1,0.5s0.5,0.5,0.6,0.9
			s0.2,0.8,0.2,1.3v1.9c0,0.6-0.1,1.1-0.2,1.5c-0.1,0.4-0.3,0.7-0.6,1c-0.3,0.2-0.7,0.4-1.1,0.5c-0.5,0.1-1.1,0.2-1.8,0.2h-4.2
			V409.7z M698.1,406.1h-5.7c-0.3,0-0.5,0.1-0.6,0.2s-0.2,0.3-0.2,0.6v0.5c0,0.3,0.1,0.5,0.2,0.6c0.2,0.1,0.4,0.2,0.7,0.2h4.1
			c0.3,0,0.5,0,0.7-0.1c0.2,0,0.3-0.1,0.5-0.2c0.1-0.1,0.2-0.2,0.3-0.4c0.1-0.2,0.1-0.4,0.1-0.7L698.1,406.1L698.1,406.1z"/>
		<path class="st0" d="M700.1,412.1v-1.9h0.5c0.3,0,0.5,0,0.7-0.1c0.2,0,0.3-0.1,0.4-0.2c0.1-0.1,0.2-0.2,0.2-0.4s0.1-0.4,0.1-0.6
			v-7.1h2.2v7.1c0,1.1-0.3,1.8-0.8,2.3c-0.6,0.5-1.5,0.7-2.7,0.7h-0.6V412.1z M702.8,401.3c-0.3,0-0.5-0.1-0.6-0.2s-0.2-0.3-0.2-0.5
			v-0.9c0-0.2,0.1-0.4,0.2-0.5c0.1-0.1,0.3-0.2,0.6-0.2h0.7c0.3,0,0.5,0,0.6,0.2c0.1,0.1,0.2,0.3,0.2,0.5v0.9c0,0.2-0.1,0.4-0.2,0.5
			c-0.1,0.1-0.3,0.2-0.6,0.2H702.8z"/>
		<path class="st0" d="M708.7,409.7c-0.6,0-1.1,0-1.4-0.1c-0.4-0.1-0.7-0.2-0.9-0.4c-0.2-0.2-0.4-0.4-0.5-0.7
			c-0.1-0.3-0.1-0.6-0.1-0.9v-0.8c0-0.3,0-0.6,0.1-0.9s0.2-0.5,0.4-0.7s0.5-0.3,0.8-0.4c0.4-0.1,0.8-0.1,1.4-0.1h5.9v-0.2
			c0-0.5-0.1-0.9-0.3-1c-0.2-0.2-0.6-0.3-1-0.3H711v-1.6h2.2c0.6,0,1.2,0.1,1.6,0.2c0.4,0.1,0.8,0.3,1.1,0.5s0.5,0.5,0.6,0.9
			s0.2,0.8,0.2,1.3v1.9c0,0.6-0.1,1.1-0.2,1.5c-0.1,0.4-0.3,0.7-0.6,1c-0.3,0.2-0.7,0.4-1.1,0.5c-0.5,0.1-1.1,0.2-1.8,0.2h-4.3
			V409.7z M714.5,406.1h-5.7c-0.3,0-0.5,0.1-0.6,0.2s-0.2,0.3-0.2,0.6v0.5c0,0.3,0.1,0.5,0.2,0.6c0.2,0.1,0.4,0.2,0.7,0.2h4.1
			c0.3,0,0.5,0,0.7-0.1c0.2,0,0.3-0.1,0.5-0.2c0.1-0.1,0.2-0.2,0.3-0.4c0.1-0.2,0.1-0.4,0.1-0.7L714.5,406.1L714.5,406.1z"/>
		<path class="st0" d="M725.3,409.7l-4.7-3.8v3.8h-2.2v-10.6h2.2v6.3l4.6-3.7h2.9l-5,3.9l5.1,4.1L725.3,409.7L725.3,409.7z"/>
		<path class="st0" d="M735.8,401.7c0.7,0,1.4,0.1,1.9,0.2s0.9,0.3,1.2,0.6c0.3,0.3,0.5,0.6,0.6,1.1c0.1,0.4,0.2,1,0.2,1.6v1.1
			c0,0.6-0.1,1.2-0.2,1.6c-0.1,0.4-0.3,0.8-0.6,1.1c-0.3,0.3-0.7,0.5-1.2,0.6s-1.1,0.2-1.9,0.2h-4.5v2.4h-2.2v-6.9
			c0-0.6,0.1-1.2,0.2-1.6c0.1-0.4,0.3-0.8,0.6-1.1c0.3-0.3,0.7-0.5,1.2-0.6s1.1-0.2,1.9-0.2h2.8V401.7z M737.4,405.2
			c0-0.4,0-0.6-0.1-0.9c-0.1-0.2-0.2-0.4-0.3-0.5s-0.3-0.2-0.6-0.2s-0.6-0.1-1-0.1h-2.5c-0.3,0-0.6,0-0.9,0.1
			c-0.2,0-0.4,0.1-0.5,0.3c-0.1,0.1-0.2,0.3-0.3,0.5c0,0.2-0.1,0.5-0.1,0.8v2.6h4.2c0.4,0,0.7,0,0.9-0.1c0.2,0,0.4-0.1,0.6-0.2
			c0.1-0.1,0.2-0.3,0.3-0.5s0.1-0.5,0.1-0.9v-0.9H737.4z"/>
		<path class="st0" d="M745.1,409.7c-0.7,0-1.4-0.1-1.8-0.2c-0.5-0.1-0.9-0.3-1.2-0.6c-0.3-0.3-0.5-0.6-0.6-1.1
			c-0.1-0.4-0.2-1-0.2-1.6v-1.1c0-0.6,0.1-1.2,0.2-1.6c0.1-0.4,0.3-0.8,0.6-1.1c0.3-0.3,0.7-0.5,1.2-0.6s1.1-0.2,1.8-0.2h2.7
			c0.7,0,1.4,0.1,1.9,0.2s0.9,0.3,1.2,0.6c0.3,0.3,0.5,0.6,0.6,1.1c0.1,0.4,0.2,1,0.2,1.6v1.1c0,0.6-0.1,1.2-0.2,1.6
			c-0.1,0.4-0.3,0.8-0.6,1.1c-0.3,0.3-0.7,0.5-1.2,0.6s-1.1,0.2-1.9,0.2H745.1z M749.4,405.3c0-0.3,0-0.6-0.1-0.8
			c-0.1-0.2-0.2-0.4-0.3-0.5s-0.3-0.2-0.6-0.3c-0.3,0-0.6-0.1-1-0.1h-2.1c-0.4,0-0.7,0-1,0.1c-0.3,0-0.4,0.1-0.6,0.3
			c-0.1,0.1-0.2,0.3-0.3,0.5s-0.1,0.5-0.1,0.8v0.9c0,0.3,0,0.6,0.1,0.8c0.1,0.2,0.2,0.4,0.3,0.5s0.3,0.2,0.6,0.3
			c0.3,0,0.6,0.1,1,0.1h2.1c0.4,0,0.7,0,1-0.1c0.3,0,0.5-0.1,0.6-0.3c0.1-0.1,0.2-0.3,0.3-0.5s0.1-0.5,0.1-0.8V405.3z"/>
		<path class="st0" d="M753.3,409.7v-10.6h2.2v10.6H753.3z"/>
		<path class="st0" d="M761,409.7c-0.7,0-1.4-0.1-1.8-0.2c-0.5-0.1-0.9-0.3-1.2-0.6c-0.3-0.3-0.5-0.6-0.6-1.1
			c-0.1-0.4-0.2-1-0.2-1.6v-1.1c0-0.6,0.1-1.2,0.2-1.6c0.1-0.4,0.3-0.8,0.6-1.1c0.3-0.3,0.7-0.5,1.2-0.6s1.1-0.2,1.8-0.2h2.7
			c0.7,0,1.4,0.1,1.9,0.2s0.9,0.3,1.2,0.6c0.3,0.3,0.5,0.6,0.6,1.1c0.1,0.4,0.2,1,0.2,1.6v1.1c0,0.6-0.1,1.2-0.2,1.6
			c-0.1,0.4-0.3,0.8-0.6,1.1c-0.3,0.3-0.7,0.5-1.2,0.6s-1.1,0.2-1.9,0.2H761z M765.4,405.3c0-0.3,0-0.6-0.1-0.8
			c-0.1-0.2-0.2-0.4-0.3-0.5s-0.3-0.2-0.6-0.3c-0.3,0-0.6-0.1-1-0.1h-2.1c-0.4,0-0.7,0-1,0.1c-0.3,0-0.4,0.1-0.6,0.3
			c-0.1,0.1-0.2,0.3-0.3,0.5s-0.1,0.5-0.1,0.8v0.9c0,0.3,0,0.6,0.1,0.8c0.1,0.2,0.2,0.4,0.3,0.5s0.3,0.2,0.6,0.3
			c0.3,0,0.6,0.1,1,0.1h2.1c0.4,0,0.7,0,1-0.1c0.3,0,0.5-0.1,0.6-0.3c0.1-0.1,0.2-0.3,0.3-0.5s0.1-0.5,0.1-0.8V405.3z"/>
	</g>
</g>
<rect x="-3.5" y="-59.6" class="st1" width="847.7" height="488.8"/>
<g>
	<path class="st2" d="M336.6-1.8c21,13.3,36.5,31.3,46.6,54.1v-69.2h116.5v382.3H383.2v-69.2c-10.1,22.8-25.6,40.9-46.6,54.1
		c-21,13.3-46.1,19.9-75.4,19.9c-31.5,0-59.7-7.9-84.6-23.6c-24.9-15.8-44.5-38.5-58.9-68.2c-14.4-29.7-21.6-64.4-21.6-104.1
		c0-40.2,7.2-75,21.6-104.5s34-52.1,58.9-67.8c24.9-15.8,53.2-23.7,84.7-23.7C290.5-21.7,315.6-15.1,336.6-1.8z M238.3,105.8
		c-15.3,16.4-23,39.3-23,68.5s7.6,52.1,23,68.5c15.3,16.4,35.5,24.7,60.6,24.7c24.7,0,44.9-8.4,60.6-25.4
		c15.8-16.9,23.6-39.5,23.6-67.8c0-28.8-7.9-51.5-23.6-68.2c-15.8-16.7-36-25-60.6-25C273.8,81.1,253.6,89.3,238.3,105.8z"/>
	<path class="st2" d="M880.7,277.1H699.1L669,365.4H545.6l177.5-481h135l177.5,481H910.8L880.7,277.1z M850.5,188L790.2,9.8
		l-61,178.2H850.5z"/>
</g>
<g>
	<g>
		<path class="st0" d="M684.8,310.5c0-14.8-12-26.8-26.8-26.8c-0.7,0-1.4,0-2.1,0.1c-2,0.1-4.6,0.6-7.4,1.5
			c-7.4,2.5-25.1,11.3-41.3,40.1c-0.5-1.5-1.4-4.7-1.3-8.1c-4.5,7.8-4.5,28.2-4.5,28.2l4.3-9.2c9.6-20.2,20.2-32,28.9-38.9
			c-2,3.5-3.2,7.5-3.4,11.8c-10.4,10.2-19.4,25-26.9,44.4l-1.8-4.9c-1.2,4.1-3.1,18-2.7,21.9c4.9-3.1,13.2-16.1,14-17.3
			c-2.8,0.9-4.8,1.6-6.2,2.2c7.7-20,16.3-32.9,24-41.1c0.4,2.9,1.3,5.6,2.5,8.1c-4.3,4.9-8.8,11.4-13.5,20.1l-4.6,9.6
			c0,0,15.1-10.6,19-15.8c-3.7,1.5-7,2.4-8.3,2.8c3.2-5.5,6.4-9.8,9.4-13.4c4.8,7,12.9,11.6,22,11.6c6.7,0,12.8-2.5,17.5-6.5
			c0.3-0.2,0.5-0.4,0.5-0.4C681.4,325.4,684.8,318.3,684.8,310.5z M674.1,327.1c-4.6-0.1-17.4-1.3-27.1-11.7c4.4-3,7.7-3.9,9.4-4.2
			c6.6,7.7,16.8,8.8,22.1,8.8c0.2,0,0.4,0,0.5,0C677.9,322.7,676.2,325.1,674.1,327.1z M667.4,314.5c-2.7-1-5.4-2.6-7.7-5
			c2.6-5.1,3.2-9.8,1.7-21.9c3.5,0.5,6.7,1.8,9.5,3.7C671.2,295.1,671.6,307.6,667.4,314.5z M681.2,310.5c0,2-0.3,4-0.8,5.9
			c-1.8,0.1-5.4,0.1-9.4-0.8c3.5-6.3,3.9-15.5,3.8-21.1C678.7,298.7,681.2,304.3,681.2,310.5z M656.1,287.4c0.9,0,1.4,0.1,1.6,0.1
			l0,0l0,0c0.3,2.7,0.6,5.1,0.7,7.1c-3.1,0.3-9.9,1.6-18.4,7.3c-1.5,1.1-3.1,2.2-4.6,3.4C637.7,295.7,646,288.3,656.1,287.4z
			 M634.9,310.8c2.4-2.3,4.8-4.2,6.9-5.6c7.7-5.4,14-6.6,16.7-6.9c0,4.3-0.7,6.8-2,9.2c-2.8,0.3-10.3,2-19.9,11.9
			C635.6,316.7,635,313.8,634.9,310.8z M638.5,322.8c2-2.1,3.8-3.8,5.6-5.2c8.5,9.2,19,12,25.6,12.8c-3.4,2-7.4,3.1-11.6,3.1
			C649.8,333.6,642.6,329.3,638.5,322.8z"/>
	</g>
	<g>
		<path class="st0" d="M646.4,365.8v-19.1h-9.9v-4.5h25.2v4.5h-9.9v19.1H646.4z"/>
		<path class="st0" d="M683.5,365.8l-13.8-8.6v8.6h-5.2v-23.7H683c1.7,0,3.1,0.1,4.3,0.3c1.2,0.2,2.1,0.6,2.9,1.1
			c0.8,0.5,1.3,1.3,1.6,2.2c0.3,0.9,0.5,2.1,0.5,3.5v1.6c0,1.4-0.2,2.5-0.6,3.4s-0.9,1.6-1.7,2.1s-1.8,0.9-2.9,1.1
			c-1.2,0.2-2.6,0.3-4.2,0.3h-4.2l13.9,8h-9.1V365.8z M687,349.5c0-0.6-0.1-1.1-0.2-1.5c-0.1-0.4-0.4-0.7-0.7-0.9
			c-0.3-0.2-0.8-0.3-1.4-0.4s-1.3-0.1-2.2-0.1h-12.9v7.2h12.9c0.9,0,1.6,0,2.1-0.1c0.6-0.1,1-0.2,1.4-0.4c0.3-0.2,0.6-0.5,0.7-0.9
			c0.1-0.4,0.2-0.9,0.2-1.6v-1.3H687z"/>
		<path class="st0" d="M696,365.8v-23.7h5.3v23.7H696z"/>
		<path class="st0" d="M713.9,365.8v-19.1H704v-4.5h25.2v4.5h-9.9v19.1H713.9z"/>
		<path class="st0" d="M740.8,365.8c-1.7,0-3.2-0.1-4.3-0.4c-1.2-0.3-2.1-0.8-2.8-1.4s-1.2-1.5-1.5-2.5s-0.4-2.3-0.4-3.8v-7.4
			c0-1.5,0.1-2.7,0.4-3.8c0.3-1,0.8-1.9,1.5-2.5s1.6-1.1,2.8-1.4s2.6-0.4,4.3-0.4h9c1.8,0,3.2,0.1,4.4,0.4s2.1,0.8,2.8,1.4
			s1.2,1.5,1.5,2.5s0.4,2.3,0.4,3.8v7.4c0,1.5-0.1,2.8-0.4,3.8c-0.3,1-0.8,1.9-1.5,2.5s-1.6,1.1-2.8,1.4s-2.6,0.4-4.4,0.4H740.8z
			 M753.5,350.5c0-0.7-0.1-1.4-0.2-1.8c-0.1-0.5-0.3-0.9-0.6-1.2c-0.3-0.3-0.7-0.5-1.2-0.6s-1.2-0.2-1.9-0.2H741
			c-0.8,0-1.5,0.1-2,0.2s-0.9,0.3-1.2,0.6s-0.5,0.7-0.6,1.2s-0.2,1.1-0.2,1.8v7c0,0.8,0.1,1.4,0.2,1.9c0.1,0.5,0.3,0.9,0.6,1.2
			s0.7,0.5,1.2,0.6s1.2,0.2,2,0.2h8.5c0.8,0,1.4-0.1,1.9-0.2s0.9-0.3,1.2-0.6c0.3-0.3,0.5-0.7,0.6-1.2s0.2-1.1,0.2-1.9L753.5,350.5
			L753.5,350.5z"/>
		<path class="st0" d="M787.7,366.3c-0.6,0-1.1-0.1-1.5-0.3c-0.5-0.2-0.9-0.5-1.3-0.8L767.7,349v16.8h-4.9v-22
			c0-0.7,0.3-1.3,0.8-1.6c0.5-0.4,1.2-0.5,2-0.5c0.6,0,1.1,0.1,1.5,0.2s0.7,0.4,1,0.6l17.4,16.8v-17.1h5v22c0,0.8-0.2,1.3-0.7,1.7
			C789.1,366.1,788.5,366.3,787.7,366.3z"/>
	</g>
	<g>
		<path class="st0" d="M704.4,337.5l-5.9-5.2v5.2h-2.4v-10.6h2.4v5.1l5.8-5.1h3.2l-6.1,5.2l6.2,5.5h-3.2V337.5z"/>
		<path class="st0" d="M711,337.5c-0.6,0-1.1-0.1-1.5-0.2s-0.7-0.3-0.9-0.4c-0.2-0.2-0.4-0.4-0.5-0.7c-0.1-0.3-0.1-0.6-0.1-0.9v-0.8
			c0-0.4,0-0.7,0.1-0.9c0.1-0.3,0.2-0.5,0.5-0.7c0.2-0.2,0.5-0.3,0.9-0.4s0.9-0.1,1.4-0.1h6.2v-0.2c0-0.5-0.1-0.9-0.3-1.1
			s-0.6-0.3-1.1-0.3h-2.3v-1.7h2.3c0.7,0,1.2,0.1,1.7,0.2s0.9,0.3,1.2,0.6c0.3,0.3,0.5,0.6,0.7,1c0.1,0.4,0.2,0.9,0.2,1.4v2.1
			c0,0.6-0.1,1.1-0.2,1.5c-0.1,0.4-0.3,0.8-0.6,1c-0.3,0.3-0.7,0.4-1.2,0.6c-0.5,0.1-1.1,0.2-1.9,0.2H711V337.5z M717.1,333.7h-6
			c-0.3,0-0.5,0.1-0.6,0.2c-0.2,0.1-0.2,0.3-0.2,0.7v0.6c0,0.3,0.1,0.5,0.3,0.6s0.4,0.2,0.7,0.2h4.4c0.3,0,0.5,0,0.7-0.1
			c0.2,0,0.4-0.1,0.5-0.2s0.2-0.3,0.3-0.5s0.1-0.5,0.1-0.8v-0.7H717.1z"/>
		<path class="st0" d="M719.2,340v-2h0.5c0.3,0,0.5,0,0.7-0.1c0.2,0,0.4-0.1,0.5-0.2s0.2-0.2,0.3-0.4s0.1-0.4,0.1-0.7v-7.3h2.3v7.5
			c0,1.1-0.3,1.9-0.9,2.5c-0.6,0.5-1.5,0.8-2.9,0.8L719.2,340L719.2,340z M722.1,328.6c-0.3,0-0.5-0.1-0.6-0.2s-0.2-0.3-0.2-0.5V327
			c0-0.2,0.1-0.4,0.2-0.5c0.1-0.1,0.3-0.2,0.6-0.2h0.8c0.3,0,0.5,0.1,0.6,0.2s0.2,0.3,0.2,0.5v0.9c0,0.3-0.1,0.4-0.2,0.5
			c-0.1,0.1-0.3,0.2-0.6,0.2H722.1z"/>
		<path class="st0" d="M728.3,337.5c-0.6,0-1.1-0.1-1.5-0.2s-0.7-0.3-0.9-0.4c-0.2-0.2-0.4-0.4-0.5-0.7c-0.1-0.3-0.1-0.6-0.1-0.9
			v-0.8c0-0.4,0-0.7,0.1-0.9c0.1-0.3,0.2-0.5,0.5-0.7c0.2-0.2,0.5-0.3,0.9-0.4s0.9-0.1,1.4-0.1h6.2v-0.2c0-0.5-0.1-0.9-0.3-1.1
			s-0.6-0.3-1.1-0.3h-2.3v-1.7h2.3c0.7,0,1.2,0.1,1.7,0.2s0.9,0.3,1.2,0.6c0.3,0.3,0.5,0.6,0.7,1c0.1,0.4,0.2,0.9,0.2,1.4v2.1
			c0,0.6-0.1,1.1-0.2,1.5c-0.1,0.4-0.3,0.8-0.6,1c-0.3,0.3-0.7,0.4-1.2,0.6c-0.5,0.1-1.1,0.2-1.9,0.2h-4.6V337.5z M734.4,333.7h-6
			c-0.3,0-0.5,0.1-0.6,0.2c-0.2,0.1-0.2,0.3-0.2,0.7v0.6c0,0.3,0.1,0.5,0.3,0.6s0.4,0.2,0.7,0.2h4.4c0.3,0,0.5,0,0.7-0.1
			c0.2,0,0.4-0.1,0.5-0.2s0.2-0.3,0.3-0.5s0.1-0.5,0.1-0.8v-0.7H734.4z"/>
		<path class="st0" d="M745.7,337.5l-4.9-4v4h-2.3v-11.2h2.3v6.6l4.9-3.9h3l-5.2,4.1l5.4,4.4H745.7z"/>
		<path class="st0" d="M756.8,329.1c0.8,0,1.4,0.1,2,0.2c0.5,0.1,0.9,0.3,1.2,0.6c0.3,0.3,0.5,0.7,0.7,1.1c0.1,0.5,0.2,1,0.2,1.7
			v1.1c0,0.7-0.1,1.2-0.2,1.7c-0.1,0.5-0.3,0.8-0.7,1.1c-0.3,0.3-0.7,0.5-1.2,0.6s-1.2,0.2-2,0.2h-4.7v2.5h-2.3v-7.3
			c0-0.7,0.1-1.2,0.2-1.7c0.1-0.5,0.3-0.8,0.7-1.1c0.3-0.3,0.7-0.5,1.2-0.6s1.2-0.2,2-0.2L756.8,329.1L756.8,329.1z M758.6,332.8
			c0-0.4,0-0.7-0.1-0.9s-0.2-0.4-0.3-0.5c-0.2-0.1-0.4-0.2-0.6-0.3c-0.3,0-0.6-0.1-1-0.1H754c-0.4,0-0.7,0-0.9,0.1s-0.4,0.1-0.6,0.3
			c-0.1,0.1-0.2,0.3-0.3,0.5s-0.1,0.5-0.1,0.8v2.8h4.4c0.4,0,0.7,0,1-0.1c0.3,0,0.5-0.1,0.6-0.2c0.2-0.1,0.3-0.3,0.3-0.5
			c0.1-0.2,0.1-0.5,0.1-0.9L758.6,332.8L758.6,332.8z"/>
		<path class="st0" d="M766.6,337.5c-0.8,0-1.4-0.1-1.9-0.2s-0.9-0.3-1.2-0.6c-0.3-0.3-0.5-0.7-0.7-1.1c-0.1-0.5-0.2-1-0.2-1.7v-1.1
			c0-0.7,0.1-1.2,0.2-1.7c0.1-0.5,0.3-0.8,0.7-1.1c0.3-0.3,0.7-0.5,1.2-0.6s1.2-0.2,1.9-0.2h2.8c0.8,0,1.4,0.1,2,0.2
			c0.5,0.1,0.9,0.3,1.2,0.6s0.5,0.7,0.7,1.1c0.1,0.5,0.2,1,0.2,1.7v1.1c0,0.7-0.1,1.2-0.2,1.7c-0.1,0.5-0.4,0.8-0.7,1.1
			c-0.3,0.3-0.7,0.5-1.2,0.6s-1.2,0.2-2,0.2H766.6z M771.2,332.8c0-0.4,0-0.6-0.1-0.9c-0.1-0.2-0.2-0.4-0.3-0.5s-0.4-0.2-0.6-0.3
			c-0.3,0-0.6-0.1-1-0.1H767c-0.4,0-0.8,0-1,0.1c-0.3,0-0.5,0.1-0.6,0.3c-0.1,0.1-0.3,0.3-0.3,0.5c-0.1,0.2-0.1,0.5-0.1,0.9v1
			c0,0.4,0,0.6,0.1,0.9c0.1,0.2,0.2,0.4,0.3,0.5c0.2,0.1,0.4,0.2,0.6,0.3c0.3,0.1,0.6,0.1,1,0.1h2.2c0.4,0,0.8,0,1-0.1
			c0.3-0.1,0.5-0.1,0.6-0.3c0.2-0.1,0.3-0.3,0.3-0.5c0.1-0.2,0.1-0.5,0.1-0.9V332.8z"/>
		<path class="st0" d="M775.3,337.5v-11.2h2.4v11.2H775.3z"/>
		<path class="st0" d="M783.5,337.5c-0.8,0-1.4-0.1-1.9-0.2s-0.9-0.3-1.2-0.6c-0.3-0.3-0.5-0.7-0.7-1.1c-0.1-0.5-0.2-1-0.2-1.7v-1.1
			c0-0.7,0.1-1.2,0.2-1.7c0.1-0.5,0.3-0.8,0.7-1.1c0.3-0.3,0.7-0.5,1.2-0.6s1.2-0.2,1.9-0.2h2.8c0.8,0,1.4,0.1,2,0.2
			c0.5,0.1,0.9,0.3,1.2,0.6s0.5,0.7,0.7,1.1c0.1,0.5,0.2,1,0.2,1.7v1.1c0,0.7-0.1,1.2-0.2,1.7c-0.1,0.5-0.4,0.8-0.7,1.1
			c-0.3,0.3-0.7,0.5-1.2,0.6s-1.2,0.2-2,0.2H783.5z M788,332.8c0-0.4,0-0.6-0.1-0.9c-0.1-0.2-0.2-0.4-0.3-0.5s-0.4-0.2-0.6-0.3
			c-0.3,0-0.6-0.1-1-0.1h-2.2c-0.4,0-0.8,0-1,0.1c-0.3,0-0.5,0.1-0.6,0.3c-0.1,0.1-0.3,0.3-0.3,0.5c-0.1,0.2-0.1,0.5-0.1,0.9v1
			c0,0.4,0,0.6,0.1,0.9c0.1,0.2,0.2,0.4,0.3,0.5c0.2,0.1,0.4,0.2,0.6,0.3c0.3,0.1,0.6,0.1,1,0.1h2.2c0.4,0,0.8,0,1-0.1
			c0.3-0.1,0.5-0.1,0.6-0.3c0.2-0.1,0.3-0.3,0.3-0.5c0.1-0.2,0.1-0.5,0.1-0.9V332.8z"/>
	</g>
</g>
</svg>
