<?xml version="1.0" encoding="utf-8"?>
<!-- Generator: Adobe Illustrator 22.0.0, SVG Export Plug-In . SVG Version: 6.00 Build 0)  -->
<svg version="1.1" id="Laag_1" xmlns="http://www.w3.org/2000/svg" xmlns:xlink="http://www.w3.org/1999/xlink" x="0px" y="0px"
	 viewBox="0 0 841.9 148.3" style="enable-background:new 0 0 841.9 148.3;" xml:space="preserve">
<style type="text/css">
	.st0{fill:#4D4D4D;}
	.st1{fill:#FCCD42;}
</style>
<g>
	<path class="st0" d="M597.3,33V20.9h5.3c0.6,0,1.1,0.1,1.5,0.3c0.5,0.2,0.9,0.5,1.2,0.9c0.3,0.4,0.6,0.8,0.8,1.3
		c0.2,0.5,0.3,1,0.3,1.5c0,0.8-0.2,1.5-0.6,2.1c-0.4,0.6-0.9,1.1-1.6,1.4l2.8,4.5h-2.6l-2.5-4h-2.3v4H597.3z M599.7,26.9h2.9
		c0.2,0,0.4-0.1,0.6-0.2c0.2-0.1,0.3-0.2,0.5-0.4c0.1-0.2,0.2-0.4,0.3-0.6c0.1-0.2,0.1-0.5,0.1-0.8c0-0.3,0-0.5-0.1-0.8
		c-0.1-0.2-0.2-0.4-0.4-0.6c-0.2-0.2-0.3-0.3-0.5-0.4c-0.2-0.1-0.4-0.1-0.6-0.1h-2.8V26.9z"/>
	<path class="st0" d="M611.9,20.9h2.1l4.6,12.1h-2.4l-1.1-3h-4.2l-1.1,3h-2.4L611.9,20.9z M614.6,28.3l-1.7-4.7l-1.7,4.7H614.6z"/>
	<path class="st0" d="M619.8,33V20.9h2.3v10h6.2V33H619.8z"/>
	<path class="st0" d="M638.2,30.9V33h-8.4V20.9h8.2V23h-5.9v2.9h5.1v1.9h-5.1v3.1H638.2z"/>
	<path class="st0" d="M644.2,20.9h2.2l1.4,4l1.4-4h2.2l-2.1,5.5l1.5,3.9l3.4-9.4h2.5L651.7,33h-2l-2.1-5.1l-2.1,5.1h-2l-4.9-12.1
		h2.5l3.4,9.4l1.5-3.9L644.2,20.9z"/>
	<path class="st0" d="M660.3,20.9h2.1L667,33h-2.4l-1.1-3h-4.2l-1.1,3h-2.4L660.3,20.9z M663,28.3l-1.7-4.7l-1.7,4.7H663z"/>
	<path class="st0" d="M668.2,20.9l3,5.8l3-5.8h2.5l-4.4,7.9V33h-2.3v-4.2l-4.4-7.8H668.2z"/>
	<path class="st0" d="M691.3,29.9c0,0.5-0.1,1-0.3,1.3c-0.2,0.4-0.5,0.7-0.8,1c-0.4,0.3-0.8,0.5-1.2,0.6c-0.5,0.1-1,0.2-1.5,0.2
		h-5.8V20.9h6.5c0.4,0,0.8,0.1,1.1,0.3s0.6,0.4,0.9,0.7s0.4,0.6,0.6,1s0.2,0.7,0.2,1.1c0,0.6-0.1,1.1-0.4,1.7
		c-0.3,0.5-0.7,0.9-1.3,1.1c0.7,0.2,1.2,0.6,1.6,1.1C691.1,28.4,691.3,29.1,691.3,29.9z M683.9,22.9v3h3.1c0.4,0,0.7-0.1,1-0.4
		c0.3-0.3,0.4-0.6,0.4-1.1c0-0.5-0.1-0.8-0.4-1.1c-0.3-0.3-0.6-0.4-0.9-0.4H683.9z M689,29.4c0-0.2,0-0.4-0.1-0.6
		c-0.1-0.2-0.2-0.4-0.3-0.5c-0.1-0.1-0.3-0.3-0.4-0.3c-0.2-0.1-0.4-0.1-0.6-0.1h-3.6V31h3.5c0.2,0,0.4,0,0.6-0.1
		c0.2-0.1,0.3-0.2,0.5-0.3c0.1-0.1,0.2-0.3,0.3-0.5C688.9,29.8,689,29.6,689,29.4z"/>
	<path class="st0" d="M697,33.1c-0.7,0-1.4-0.1-2-0.4c-0.6-0.2-1.1-0.6-1.5-1c-0.4-0.4-0.7-0.9-0.9-1.5c-0.2-0.6-0.3-1.1-0.3-1.8
		c0-0.6,0.1-1.2,0.3-1.8c0.2-0.6,0.5-1,0.9-1.5c0.4-0.4,0.9-0.8,1.5-1c0.6-0.3,1.2-0.4,2-0.4s1.4,0.1,1.9,0.4c0.6,0.2,1.1,0.6,1.5,1
		c0.4,0.4,0.7,0.9,0.9,1.5c0.2,0.6,0.3,1.1,0.3,1.8c0,0.6-0.1,1.2-0.3,1.8c-0.2,0.6-0.5,1-0.9,1.5c-0.4,0.4-0.9,0.8-1.5,1
		S697.8,33.1,697,33.1z M694.7,28.5c0,0.4,0.1,0.8,0.2,1.1s0.3,0.6,0.5,0.8c0.2,0.2,0.5,0.4,0.7,0.6c0.3,0.1,0.6,0.2,0.9,0.2
		s0.6-0.1,0.9-0.2c0.3-0.1,0.5-0.3,0.7-0.6c0.2-0.2,0.4-0.5,0.5-0.9c0.1-0.3,0.2-0.7,0.2-1.1c0-0.4-0.1-0.7-0.2-1.1
		c-0.1-0.3-0.3-0.6-0.5-0.8c-0.2-0.2-0.5-0.4-0.7-0.6c-0.3-0.1-0.6-0.2-0.9-0.2s-0.6,0.1-0.9,0.2s-0.5,0.3-0.7,0.6
		c-0.2,0.2-0.4,0.5-0.5,0.9S694.7,28.1,694.7,28.5z"/>
	<path class="st0" d="M703.2,20.6h2.3v9.6c0,0.3,0.1,0.6,0.2,0.8s0.4,0.3,0.7,0.3c0.1,0,0.3,0,0.5-0.1c0.2,0,0.3-0.1,0.5-0.2
		l0.3,1.7c-0.3,0.1-0.7,0.3-1.1,0.3c-0.4,0.1-0.8,0.1-1.1,0.1c-0.7,0-1.3-0.2-1.7-0.6c-0.4-0.4-0.6-0.9-0.6-1.6V20.6z"/>
	<path class="st0" d="M712.3,33.1c-0.6,0-1.2-0.1-1.7-0.4c-0.5-0.2-1-0.6-1.3-1c-0.4-0.4-0.7-0.9-0.9-1.5c-0.2-0.6-0.3-1.2-0.3-1.8
		c0-0.6,0.1-1.2,0.3-1.8s0.5-1,0.8-1.5c0.4-0.4,0.8-0.7,1.3-1c0.5-0.2,1-0.4,1.6-0.4c0.7,0,1.3,0.2,1.8,0.5s0.9,0.7,1.2,1.2v-5.1
		h2.3v9.8c0,0.2,0,0.4,0.1,0.5c0.1,0.1,0.2,0.2,0.4,0.2V33c-0.4,0.1-0.7,0.1-1,0.1c-0.4,0-0.7-0.1-1-0.3c-0.3-0.2-0.4-0.5-0.4-0.8
		l-0.1-0.6c-0.3,0.6-0.8,1-1.3,1.3C713.5,33,712.9,33.1,712.3,33.1z M712.9,31.2c0.2,0,0.4,0,0.7-0.1c0.2-0.1,0.4-0.2,0.6-0.3
		c0.2-0.1,0.4-0.3,0.5-0.5c0.2-0.2,0.3-0.4,0.3-0.6v-2.1c-0.1-0.2-0.2-0.5-0.4-0.7c-0.2-0.2-0.4-0.4-0.6-0.5
		c-0.2-0.2-0.4-0.3-0.7-0.4c-0.2-0.1-0.5-0.1-0.7-0.1c-0.3,0-0.7,0.1-0.9,0.2c-0.3,0.1-0.5,0.3-0.7,0.6c-0.2,0.3-0.4,0.5-0.5,0.9
		s-0.2,0.7-0.2,1c0,0.4,0.1,0.7,0.2,1c0.1,0.3,0.3,0.6,0.5,0.8c0.2,0.2,0.5,0.4,0.8,0.6C712.2,31.1,712.5,31.2,712.9,31.2z"/>
	<path class="st0" d="M597.1,63v-8.5h3.6c0.4,0,0.7,0.1,1,0.2s0.6,0.4,0.8,0.6c0.2,0.3,0.4,0.6,0.5,0.9c0.1,0.3,0.2,0.7,0.2,1
		c0,0.3,0,0.6-0.1,0.9c-0.1,0.3-0.2,0.5-0.4,0.8c-0.2,0.2-0.3,0.4-0.6,0.6c-0.2,0.2-0.5,0.3-0.7,0.3l2.1,3.3h-1.2l-1.9-3.1h-2.3V63
		H597.1z M598.2,59h2.6c0.2,0,0.4,0,0.6-0.1s0.3-0.2,0.5-0.4s0.2-0.4,0.3-0.6s0.1-0.4,0.1-0.7c0-0.2,0-0.5-0.1-0.7s-0.2-0.4-0.3-0.6
		c-0.1-0.2-0.3-0.3-0.5-0.4s-0.4-0.1-0.6-0.1h-2.5V59z"/>
	<path class="st0" d="M606.3,63.1c-0.3,0-0.6,0-0.8-0.2c-0.3-0.1-0.5-0.2-0.7-0.4c-0.2-0.2-0.3-0.4-0.4-0.6
		c-0.1-0.2-0.2-0.5-0.2-0.8c0-0.3,0.1-0.5,0.2-0.8c0.1-0.2,0.3-0.4,0.5-0.6c0.2-0.2,0.5-0.3,0.8-0.4s0.7-0.1,1.1-0.1
		c0.3,0,0.6,0,0.9,0.1c0.3,0.1,0.6,0.1,0.8,0.2V59c0-0.5-0.1-0.9-0.4-1.2s-0.7-0.4-1.2-0.4c-0.6,0-1.3,0.2-2,0.7l-0.3-0.7
		c0.8-0.5,1.6-0.8,2.4-0.8c0.8,0,1.5,0.2,1.9,0.7c0.5,0.4,0.7,1.1,0.7,1.9v2.6c0,0.2,0.1,0.4,0.3,0.4V63c-0.1,0-0.2,0-0.3,0
		s-0.1,0-0.2,0c-0.2,0-0.4-0.1-0.5-0.2s-0.2-0.3-0.2-0.5l0-0.4c-0.3,0.4-0.6,0.7-1.1,0.9C607.2,63,606.8,63.1,606.3,63.1z
		 M606.6,62.3c0.4,0,0.7-0.1,1-0.2s0.6-0.3,0.7-0.6c0.2-0.2,0.2-0.3,0.2-0.5v-0.9c-0.5-0.2-1-0.3-1.6-0.3c-0.5,0-1,0.1-1.3,0.3
		s-0.5,0.5-0.5,0.9c0,0.2,0,0.3,0.1,0.5c0.1,0.2,0.2,0.3,0.3,0.4c0.1,0.1,0.3,0.2,0.4,0.3C606.2,62.3,606.4,62.3,606.6,62.3z"/>
	<path class="st0" d="M611.4,54.2h1.1v7.1c0,0.2,0.1,0.4,0.2,0.5s0.3,0.2,0.5,0.2c0.1,0,0.2,0,0.3,0c0.1,0,0.2-0.1,0.3-0.1l0.2,0.9
		c-0.2,0.1-0.4,0.1-0.6,0.2c-0.2,0-0.5,0.1-0.6,0.1c-0.4,0-0.7-0.1-1-0.3c-0.2-0.2-0.4-0.6-0.4-1V54.2z"/>
	<path class="st0" d="M617.5,63.1c-0.5,0-0.9-0.1-1.3-0.3c-0.4-0.2-0.7-0.4-1-0.7s-0.5-0.6-0.7-1c-0.2-0.4-0.2-0.8-0.2-1.3
		c0-0.4,0.1-0.9,0.2-1.2c0.2-0.4,0.4-0.7,0.7-1c0.3-0.3,0.6-0.5,1-0.7c0.4-0.2,0.8-0.3,1.3-0.3s0.9,0.1,1.3,0.3
		c0.4,0.2,0.7,0.4,1,0.7c0.3,0.3,0.5,0.6,0.6,1c0.1,0.4,0.2,0.8,0.2,1.2c0,0.1,0,0.2,0,0.2c0,0.1,0,0.1,0,0.2h-5.2
		c0,0.3,0.1,0.6,0.2,0.9c0.1,0.3,0.3,0.5,0.5,0.7c0.2,0.2,0.4,0.3,0.7,0.4c0.2,0.1,0.5,0.2,0.8,0.2c0.2,0,0.4,0,0.6-0.1
		c0.2-0.1,0.4-0.1,0.5-0.2c0.2-0.1,0.3-0.2,0.4-0.3c0.1-0.1,0.2-0.3,0.3-0.4l0.9,0.3c-0.1,0.2-0.2,0.4-0.4,0.6
		c-0.2,0.2-0.4,0.4-0.6,0.5c-0.2,0.1-0.5,0.3-0.8,0.3S617.9,63.1,617.5,63.1z M619.7,59.4c0-0.3-0.1-0.6-0.2-0.8
		c-0.1-0.3-0.3-0.5-0.5-0.6c-0.2-0.2-0.4-0.3-0.7-0.4c-0.2-0.1-0.5-0.2-0.8-0.2s-0.5,0-0.8,0.2c-0.2,0.1-0.5,0.2-0.7,0.4
		c-0.2,0.2-0.3,0.4-0.5,0.6s-0.2,0.5-0.2,0.8H619.7z"/>
	<path class="st0" d="M629.5,56.7h1l-2.7,6.3H627l-1.3-3.1l-1.2,3.1h-0.9l-2.7-6.3h1l2.2,5.2l1.1-2.6l-1.1-2.6h0.9l0.8,2l0.8-2h0.9
		l-1.1,2.6l1.1,2.6L629.5,56.7z"/>
	<path class="st0" d="M633,63.1c-0.3,0-0.6,0-0.8-0.2c-0.3-0.1-0.5-0.2-0.7-0.4c-0.2-0.2-0.3-0.4-0.4-0.6c-0.1-0.2-0.2-0.5-0.2-0.8
		c0-0.3,0.1-0.5,0.2-0.8c0.1-0.2,0.3-0.4,0.5-0.6c0.2-0.2,0.5-0.3,0.8-0.4s0.7-0.1,1.1-0.1c0.3,0,0.6,0,0.9,0.1
		c0.3,0.1,0.6,0.1,0.8,0.2V59c0-0.5-0.1-0.9-0.4-1.2c-0.3-0.3-0.7-0.4-1.2-0.4c-0.6,0-1.3,0.2-2,0.7l-0.3-0.7
		c0.8-0.5,1.6-0.8,2.4-0.8c0.8,0,1.5,0.2,1.9,0.7c0.5,0.4,0.7,1.1,0.7,1.9v2.6c0,0.2,0.1,0.4,0.3,0.4V63c-0.1,0-0.2,0-0.3,0
		c-0.1,0-0.1,0-0.2,0c-0.2,0-0.4-0.1-0.5-0.2s-0.2-0.3-0.2-0.5l0-0.4c-0.3,0.4-0.6,0.7-1.1,0.9C633.9,63,633.5,63.1,633,63.1z
		 M633.3,62.3c0.4,0,0.7-0.1,1.1-0.2c0.3-0.1,0.6-0.3,0.7-0.6c0.2-0.2,0.2-0.3,0.2-0.5v-0.9c-0.5-0.2-1-0.3-1.6-0.3
		c-0.5,0-1,0.1-1.3,0.3c-0.3,0.2-0.5,0.5-0.5,0.9c0,0.2,0,0.3,0.1,0.5c0.1,0.2,0.2,0.3,0.3,0.4c0.1,0.1,0.3,0.2,0.4,0.3
		C632.9,62.3,633.1,62.3,633.3,62.3z"/>
	<path class="st0" d="M638.1,64.7c0.1,0,0.2,0,0.3,0s0.2,0,0.2,0c0.1,0,0.2,0,0.3-0.1s0.2-0.1,0.2-0.3s0.2-0.3,0.3-0.5
		c0.1-0.2,0.2-0.5,0.4-0.9l-2.7-6.3h1.1l2.1,5.3l1.9-5.3h1l-3,7.9c-0.1,0.3-0.3,0.5-0.6,0.7c-0.3,0.2-0.6,0.3-1.1,0.3
		c-0.1,0-0.1,0-0.2,0c-0.1,0-0.2,0-0.3,0V64.7z"/>
	<path class="st0" d="M650.4,57.6c-0.5,0-1,0.2-1.4,0.4c-0.4,0.3-0.7,0.6-0.9,1.1V63h-1.1v-6.3h1v1.5c0.2-0.4,0.5-0.8,0.9-1.1
		c0.4-0.3,0.7-0.4,1.1-0.4c0.1,0,0.1,0,0.2,0c0.1,0,0.1,0,0.1,0V57.6z"/>
	<path class="st0" d="M654.1,63.1c-0.5,0-0.9-0.1-1.3-0.3c-0.4-0.2-0.7-0.4-1-0.7c-0.3-0.3-0.5-0.6-0.7-1c-0.2-0.4-0.2-0.8-0.2-1.3
		c0-0.4,0.1-0.9,0.2-1.2s0.4-0.7,0.7-1c0.3-0.3,0.6-0.5,1-0.7c0.4-0.2,0.8-0.3,1.3-0.3c0.5,0,0.9,0.1,1.3,0.3c0.4,0.2,0.7,0.4,1,0.7
		c0.3,0.3,0.5,0.6,0.6,1c0.1,0.4,0.2,0.8,0.2,1.2c0,0.1,0,0.2,0,0.2c0,0.1,0,0.1,0,0.2H652c0,0.3,0.1,0.6,0.2,0.9s0.3,0.5,0.5,0.7
		c0.2,0.2,0.4,0.3,0.7,0.4c0.2,0.1,0.5,0.2,0.8,0.2c0.2,0,0.4,0,0.6-0.1s0.4-0.1,0.5-0.2s0.3-0.2,0.4-0.3c0.1-0.1,0.2-0.3,0.3-0.4
		l0.9,0.3c-0.1,0.2-0.2,0.4-0.4,0.6c-0.2,0.2-0.4,0.4-0.6,0.5c-0.2,0.1-0.5,0.3-0.8,0.3S654.4,63.1,654.1,63.1z M656.2,59.4
		c0-0.3-0.1-0.6-0.2-0.8c-0.1-0.3-0.3-0.5-0.5-0.6c-0.2-0.2-0.4-0.3-0.7-0.4c-0.2-0.1-0.5-0.2-0.8-0.2c-0.3,0-0.5,0-0.8,0.2
		c-0.2,0.1-0.5,0.2-0.7,0.4c-0.2,0.2-0.3,0.4-0.5,0.6c-0.1,0.2-0.2,0.5-0.2,0.8H656.2z"/>
	<path class="st0" d="M660.9,63c-0.4,0-0.8-0.1-1.2-0.3c-0.4-0.2-0.7-0.4-0.9-0.7c-0.3-0.3-0.5-0.6-0.6-1c-0.1-0.4-0.2-0.8-0.2-1.2
		c0-0.4,0.1-0.9,0.2-1.3c0.1-0.4,0.3-0.7,0.6-1c0.3-0.3,0.6-0.5,0.9-0.7c0.4-0.2,0.8-0.3,1.2-0.3c0.5,0,1,0.1,1.4,0.4
		c0.4,0.3,0.7,0.6,1,1v-1.2h0.9v6.2c0,0.4-0.1,0.8-0.3,1.2c-0.2,0.3-0.4,0.6-0.7,0.9c-0.3,0.2-0.6,0.4-1,0.5s-0.8,0.2-1.2,0.2
		c-0.7,0-1.3-0.1-1.7-0.4c-0.4-0.2-0.8-0.6-1.1-1l0.6-0.5c0.2,0.4,0.6,0.6,1,0.8c0.4,0.2,0.8,0.3,1.3,0.3c0.3,0,0.6,0,0.8-0.1
		c0.3-0.1,0.5-0.2,0.7-0.4s0.3-0.4,0.5-0.6c0.1-0.2,0.2-0.5,0.2-0.9v-1.1c-0.1,0.2-0.3,0.4-0.4,0.5c-0.2,0.2-0.3,0.3-0.5,0.4
		c-0.2,0.1-0.4,0.2-0.6,0.2C661.3,63,661.1,63,660.9,63z M661.2,62.2c0.2,0,0.4,0,0.6-0.1s0.4-0.2,0.6-0.3c0.2-0.1,0.3-0.3,0.4-0.4
		c0.1-0.2,0.2-0.3,0.2-0.5V59c-0.1-0.2-0.2-0.4-0.3-0.6c-0.1-0.2-0.3-0.3-0.5-0.5c-0.2-0.1-0.4-0.2-0.6-0.3
		c-0.2-0.1-0.4-0.1-0.6-0.1c-0.3,0-0.6,0.1-0.9,0.2s-0.5,0.3-0.6,0.5s-0.3,0.5-0.4,0.8c-0.1,0.3-0.1,0.6-0.1,0.9
		c0,0.3,0.1,0.6,0.2,0.9s0.3,0.5,0.5,0.7s0.4,0.4,0.7,0.5S660.9,62.2,661.2,62.2z"/>
	<path class="st0" d="M667.8,63.1c-0.7,0-1.2-0.2-1.5-0.7c-0.3-0.4-0.5-1.1-0.5-2v-3.8h1.1v3.6c0,1.3,0.4,1.9,1.3,1.9
		c0.4,0,0.8-0.1,1.2-0.4c0.4-0.3,0.7-0.7,0.8-1.1v-3.9h1.1v5c0,0.2,0.1,0.4,0.3,0.4V63c-0.1,0-0.2,0-0.3,0c-0.1,0-0.1,0-0.2,0
		c-0.2,0-0.4-0.1-0.5-0.2c-0.1-0.1-0.2-0.3-0.2-0.5l0-0.7c-0.3,0.5-0.6,0.8-1.1,1.1S668.4,63.1,667.8,63.1z"/>
	<path class="st0" d="M673.1,54.2h1.1v7.1c0,0.2,0.1,0.4,0.2,0.5c0.1,0.1,0.3,0.2,0.5,0.2c0.1,0,0.2,0,0.3,0c0.1,0,0.2-0.1,0.3-0.1
		l0.2,0.9c-0.2,0.1-0.4,0.1-0.6,0.2c-0.2,0-0.5,0.1-0.6,0.1c-0.4,0-0.7-0.1-1-0.3c-0.2-0.2-0.4-0.6-0.4-1V54.2z"/>
	<path class="st0" d="M678.1,63.1c-0.3,0-0.6,0-0.8-0.2c-0.3-0.1-0.5-0.2-0.7-0.4c-0.2-0.2-0.3-0.4-0.4-0.6
		c-0.1-0.2-0.2-0.5-0.2-0.8c0-0.3,0.1-0.5,0.2-0.8c0.1-0.2,0.3-0.4,0.5-0.6c0.2-0.2,0.5-0.3,0.8-0.4s0.7-0.1,1.1-0.1
		c0.3,0,0.6,0,0.9,0.1c0.3,0.1,0.6,0.1,0.8,0.2V59c0-0.5-0.1-0.9-0.4-1.2s-0.7-0.4-1.2-0.4c-0.6,0-1.3,0.2-2,0.7l-0.3-0.7
		c0.8-0.5,1.6-0.8,2.4-0.8c0.8,0,1.5,0.2,1.9,0.7c0.5,0.4,0.7,1.1,0.7,1.9v2.6c0,0.2,0.1,0.4,0.3,0.4V63c-0.1,0-0.2,0-0.3,0
		s-0.1,0-0.2,0c-0.2,0-0.4-0.1-0.5-0.2s-0.2-0.3-0.2-0.5l0-0.4c-0.3,0.4-0.6,0.7-1.1,0.9C679.1,63,678.6,63.1,678.1,63.1z
		 M678.4,62.3c0.4,0,0.7-0.1,1-0.2s0.6-0.3,0.7-0.6c0.2-0.2,0.2-0.3,0.2-0.5v-0.9c-0.5-0.2-1-0.3-1.6-0.3c-0.5,0-1,0.1-1.3,0.3
		s-0.5,0.5-0.5,0.9c0,0.2,0,0.3,0.1,0.5c0.1,0.2,0.2,0.3,0.3,0.4c0.1,0.1,0.3,0.2,0.4,0.3C678,62.3,678.2,62.3,678.4,62.3z"/>
	<path class="st0" d="M686.5,57.6c-0.5,0-1,0.2-1.4,0.4c-0.4,0.3-0.7,0.6-0.9,1.1V63h-1.1v-6.3h1v1.5c0.2-0.4,0.5-0.8,0.9-1.1
		c0.4-0.3,0.7-0.4,1.1-0.4c0.1,0,0.1,0,0.2,0c0.1,0,0.1,0,0.1,0V57.6z"/>
	<path class="st0" d="M690.3,55.5v-1.3h1.1v1.3H690.3z M690.3,63v-6.3h1.1V63H690.3z"/>
	<path class="st0" d="M695.2,63.1c-0.5,0-1-0.1-1.5-0.2c-0.5-0.2-0.9-0.4-1.3-0.7l0.5-0.7c0.4,0.3,0.7,0.5,1.1,0.6
		c0.4,0.1,0.8,0.2,1.2,0.2c0.5,0,0.8-0.1,1.1-0.3c0.3-0.2,0.4-0.4,0.4-0.8c0-0.2,0-0.3-0.1-0.4c-0.1-0.1-0.2-0.2-0.3-0.3
		c-0.1-0.1-0.3-0.2-0.6-0.2c-0.2-0.1-0.5-0.1-0.8-0.2c-0.4-0.1-0.7-0.2-1-0.3s-0.5-0.2-0.7-0.3s-0.3-0.3-0.4-0.4
		c-0.1-0.2-0.1-0.4-0.1-0.6c0-0.3,0.1-0.6,0.2-0.8c0.1-0.2,0.3-0.4,0.5-0.6c0.2-0.2,0.5-0.3,0.8-0.4s0.6-0.1,0.9-0.1
		c0.5,0,0.9,0.1,1.3,0.2c0.4,0.2,0.8,0.4,1,0.6l-0.5,0.6c-0.3-0.2-0.6-0.4-0.9-0.5s-0.7-0.2-1-0.2c-0.4,0-0.7,0.1-1,0.2
		c-0.3,0.2-0.4,0.4-0.4,0.8c0,0.1,0,0.3,0.1,0.4c0.1,0.1,0.1,0.2,0.3,0.3c0.1,0.1,0.3,0.1,0.5,0.2c0.2,0.1,0.4,0.1,0.7,0.2
		c0.4,0.1,0.8,0.2,1.1,0.3c0.3,0.1,0.6,0.2,0.8,0.4c0.2,0.1,0.4,0.3,0.5,0.5c0.1,0.2,0.2,0.4,0.2,0.7c0,0.6-0.2,1-0.7,1.4
		C696.6,62.9,696,63.1,695.2,63.1z"/>
	<path class="st0" d="M704.8,63.1c-0.5,0-0.9-0.1-1.3-0.3c-0.4-0.2-0.7-0.4-1-0.7c-0.3-0.3-0.5-0.6-0.7-1c-0.2-0.4-0.2-0.8-0.2-1.3
		c0-0.4,0.1-0.9,0.2-1.2s0.4-0.7,0.7-1c0.3-0.3,0.6-0.5,1-0.7c0.4-0.2,0.8-0.3,1.3-0.3c0.5,0,0.9,0.1,1.3,0.3c0.4,0.2,0.7,0.4,1,0.7
		c0.3,0.3,0.5,0.6,0.6,1c0.1,0.4,0.2,0.8,0.2,1.2c0,0.1,0,0.2,0,0.2c0,0.1,0,0.1,0,0.2h-5.2c0,0.3,0.1,0.6,0.2,0.9s0.3,0.5,0.5,0.7
		c0.2,0.2,0.4,0.3,0.7,0.4c0.2,0.1,0.5,0.2,0.8,0.2c0.2,0,0.4,0,0.6-0.1s0.4-0.1,0.5-0.2s0.3-0.2,0.4-0.3c0.1-0.1,0.2-0.3,0.3-0.4
		l0.9,0.3c-0.1,0.2-0.2,0.4-0.4,0.6c-0.2,0.2-0.4,0.4-0.6,0.5c-0.2,0.1-0.5,0.3-0.8,0.3S705.1,63.1,704.8,63.1z M706.9,59.4
		c0-0.3-0.1-0.6-0.2-0.8c-0.1-0.3-0.3-0.5-0.5-0.6c-0.2-0.2-0.4-0.3-0.7-0.4c-0.2-0.1-0.5-0.2-0.8-0.2c-0.3,0-0.5,0-0.8,0.2
		c-0.2,0.1-0.5,0.2-0.7,0.4c-0.2,0.2-0.3,0.4-0.5,0.6c-0.1,0.2-0.2,0.5-0.2,0.8H706.9z"/>
	<path class="st0" d="M711.9,63.1c-0.5,0-0.9-0.1-1.3-0.3c-0.4-0.2-0.7-0.4-1-0.7c-0.3-0.3-0.5-0.6-0.7-1c-0.2-0.4-0.2-0.8-0.2-1.3
		c0-0.4,0.1-0.9,0.2-1.2s0.4-0.7,0.7-1c0.3-0.3,0.6-0.5,1-0.7c0.4-0.2,0.8-0.3,1.3-0.3c0.5,0,0.9,0.1,1.3,0.3c0.4,0.2,0.7,0.4,1,0.7
		c0.3,0.3,0.5,0.6,0.6,1c0.1,0.4,0.2,0.8,0.2,1.2c0,0.1,0,0.2,0,0.2c0,0.1,0,0.1,0,0.2h-5.2c0,0.3,0.1,0.6,0.2,0.9s0.3,0.5,0.5,0.7
		c0.2,0.2,0.4,0.3,0.7,0.4c0.2,0.1,0.5,0.2,0.8,0.2c0.2,0,0.4,0,0.6-0.1s0.4-0.1,0.5-0.2s0.3-0.2,0.4-0.3c0.1-0.1,0.2-0.3,0.3-0.4
		l0.9,0.3c-0.1,0.2-0.2,0.4-0.4,0.6c-0.2,0.2-0.4,0.4-0.6,0.5c-0.2,0.1-0.5,0.3-0.8,0.3S712.2,63.1,711.9,63.1z M714,59.4
		c0-0.3-0.1-0.6-0.2-0.8c-0.1-0.3-0.3-0.5-0.5-0.6c-0.2-0.2-0.4-0.3-0.7-0.4c-0.2-0.1-0.5-0.2-0.8-0.2c-0.3,0-0.5,0-0.8,0.2
		c-0.2,0.1-0.5,0.2-0.7,0.4c-0.2,0.2-0.3,0.4-0.5,0.6c-0.1,0.2-0.2,0.5-0.2,0.8H714z"/>
	<path class="st0" d="M721.6,63h-1.1v-3.5c0-0.7-0.1-1.2-0.3-1.5c-0.2-0.3-0.5-0.5-0.9-0.5c-0.2,0-0.4,0-0.6,0.1s-0.4,0.2-0.6,0.3
		c-0.2,0.1-0.4,0.3-0.5,0.5c-0.1,0.2-0.3,0.4-0.3,0.7V63h-1.1v-6.3h1v1.3c0.2-0.4,0.6-0.8,1.1-1.1c0.5-0.3,1-0.4,1.5-0.4
		c0.4,0,0.7,0.1,0.9,0.2s0.4,0.3,0.6,0.6c0.1,0.2,0.2,0.5,0.3,0.8c0.1,0.3,0.1,0.7,0.1,1V63z"/>
	<path class="st0" d="M726.3,54.2h1.1v7.1c0,0.2,0.1,0.4,0.2,0.5s0.3,0.2,0.5,0.2c0.1,0,0.2,0,0.3,0c0.1,0,0.2-0.1,0.3-0.1l0.2,0.9
		c-0.2,0.1-0.4,0.1-0.6,0.2c-0.2,0-0.5,0.1-0.6,0.1c-0.4,0-0.7-0.1-1-0.3c-0.2-0.2-0.4-0.6-0.4-1V54.2z"/>
	<path class="st0" d="M731.7,63.1c-0.7,0-1.2-0.2-1.5-0.7c-0.3-0.4-0.5-1.1-0.5-2v-3.8h1.1v3.6c0,1.3,0.4,1.9,1.3,1.9
		c0.4,0,0.8-0.1,1.2-0.4s0.7-0.7,0.8-1.1v-3.9h1.1v5c0,0.2,0.1,0.4,0.3,0.4V63c-0.1,0-0.2,0-0.3,0c-0.1,0-0.1,0-0.2,0
		c-0.2,0-0.4-0.1-0.5-0.2c-0.1-0.1-0.2-0.3-0.2-0.5l0-0.7c-0.3,0.5-0.6,0.8-1.1,1.1C732.7,63,732.2,63.1,731.7,63.1z"/>
	<path class="st0" d="M736.5,59.8c0-0.4,0.1-0.9,0.2-1.2c0.2-0.4,0.4-0.7,0.6-1c0.3-0.3,0.6-0.5,1-0.7c0.4-0.2,0.8-0.3,1.3-0.3
		c0.6,0,1.2,0.1,1.6,0.4c0.5,0.3,0.8,0.6,1,1.1l-1,0.3c-0.2-0.3-0.4-0.5-0.7-0.7c-0.3-0.2-0.6-0.2-1-0.2c-0.3,0-0.6,0.1-0.8,0.2
		s-0.5,0.3-0.7,0.5s-0.3,0.5-0.4,0.7c-0.1,0.3-0.2,0.6-0.2,0.9c0,0.3,0.1,0.6,0.2,0.9s0.3,0.5,0.5,0.8c0.2,0.2,0.4,0.4,0.7,0.5
		s0.5,0.2,0.8,0.2c0.2,0,0.4,0,0.5-0.1s0.3-0.1,0.5-0.2s0.3-0.2,0.4-0.3s0.2-0.2,0.2-0.4l1,0.3c-0.1,0.2-0.2,0.4-0.4,0.6
		c-0.2,0.2-0.4,0.4-0.6,0.5c-0.2,0.1-0.5,0.2-0.8,0.3s-0.6,0.1-0.9,0.1c-0.5,0-0.9-0.1-1.3-0.3c-0.4-0.2-0.7-0.4-1-0.7
		c-0.3-0.3-0.5-0.6-0.7-1C736.6,60.7,736.5,60.3,736.5,59.8z"/>
	<path class="st0" d="M746.8,62.7c-0.1,0-0.1,0.1-0.3,0.1c-0.1,0-0.2,0.1-0.4,0.1c-0.1,0-0.3,0.1-0.4,0.1s-0.3,0-0.5,0
		c-0.4,0-0.7-0.1-1-0.3c-0.3-0.2-0.4-0.5-0.4-1v-4.2H743v-0.8h0.9v-2.1h1.1v2.1h1.4v0.8H745v3.9c0,0.2,0.1,0.4,0.2,0.5
		c0.1,0.1,0.3,0.2,0.5,0.2c0.2,0,0.4,0,0.6-0.1c0.2-0.1,0.3-0.1,0.4-0.2L746.8,62.7z"/>
	<path class="st0" d="M747.8,55.5v-1.3h1.1v1.3H747.8z M747.8,63v-6.3h1.1V63H747.8z"/>
	<path class="st0" d="M753.1,63c-0.4,0-0.8-0.1-1.2-0.3c-0.4-0.2-0.7-0.4-0.9-0.7c-0.3-0.3-0.5-0.6-0.6-1c-0.1-0.4-0.2-0.8-0.2-1.2
		c0-0.4,0.1-0.9,0.2-1.3c0.1-0.4,0.3-0.7,0.6-1s0.6-0.5,0.9-0.7c0.4-0.2,0.8-0.3,1.2-0.3c0.5,0,1,0.1,1.4,0.4c0.4,0.3,0.7,0.6,1,1
		v-1.2h0.9v6.2c0,0.4-0.1,0.8-0.3,1.2c-0.2,0.3-0.4,0.6-0.7,0.9c-0.3,0.2-0.6,0.4-1,0.5c-0.4,0.1-0.8,0.2-1.2,0.2
		c-0.7,0-1.3-0.1-1.7-0.4c-0.4-0.2-0.8-0.6-1.1-1l0.6-0.5c0.2,0.4,0.6,0.6,1,0.8c0.4,0.2,0.8,0.3,1.3,0.3c0.3,0,0.6,0,0.8-0.1
		s0.5-0.2,0.7-0.4c0.2-0.2,0.3-0.4,0.5-0.6c0.1-0.2,0.2-0.5,0.2-0.9v-1.1c-0.1,0.2-0.3,0.4-0.4,0.5c-0.2,0.2-0.3,0.3-0.5,0.4
		c-0.2,0.1-0.4,0.2-0.6,0.2C753.5,63,753.3,63,753.1,63z M753.4,62.2c0.2,0,0.4,0,0.6-0.1s0.4-0.2,0.6-0.3c0.2-0.1,0.3-0.3,0.4-0.4
		c0.1-0.2,0.2-0.3,0.2-0.5V59c-0.1-0.2-0.2-0.4-0.3-0.6s-0.3-0.3-0.5-0.5s-0.4-0.2-0.6-0.3c-0.2-0.1-0.4-0.1-0.6-0.1
		c-0.3,0-0.6,0.1-0.9,0.2c-0.3,0.1-0.5,0.3-0.6,0.5c-0.2,0.2-0.3,0.5-0.4,0.8c-0.1,0.3-0.1,0.6-0.1,0.9c0,0.3,0.1,0.6,0.2,0.9
		s0.3,0.5,0.5,0.7s0.4,0.4,0.7,0.5C752.8,62.1,753.1,62.2,753.4,62.2z"/>
	<path class="st0" d="M596.9,69.2h1.1v7.1c0,0.2,0.1,0.4,0.2,0.5c0.1,0.1,0.3,0.2,0.5,0.2c0.1,0,0.2,0,0.3,0c0.1,0,0.2-0.1,0.3-0.1
		l0.2,0.9c-0.2,0.1-0.4,0.1-0.6,0.2c-0.2,0-0.5,0.1-0.6,0.1c-0.4,0-0.7-0.1-1-0.3c-0.2-0.2-0.4-0.6-0.4-1V69.2z"/>
	<path class="st0" d="M603.1,78.1c-0.5,0-0.9-0.1-1.3-0.3c-0.4-0.2-0.7-0.4-1-0.7s-0.5-0.6-0.7-1c-0.2-0.4-0.2-0.8-0.2-1.3
		c0-0.4,0.1-0.9,0.2-1.2c0.2-0.4,0.4-0.7,0.7-1c0.3-0.3,0.6-0.5,1-0.7c0.4-0.2,0.8-0.3,1.3-0.3s0.9,0.1,1.3,0.3
		c0.4,0.2,0.7,0.4,1,0.7c0.3,0.3,0.5,0.6,0.6,1c0.1,0.4,0.2,0.8,0.2,1.2c0,0.1,0,0.2,0,0.2c0,0.1,0,0.1,0,0.2H601
		c0,0.3,0.1,0.6,0.2,0.9c0.1,0.3,0.3,0.5,0.5,0.7c0.2,0.2,0.4,0.3,0.7,0.4c0.2,0.1,0.5,0.2,0.8,0.2c0.2,0,0.4,0,0.6-0.1
		c0.2-0.1,0.4-0.1,0.5-0.2c0.2-0.1,0.3-0.2,0.4-0.3c0.1-0.1,0.2-0.3,0.3-0.4l0.9,0.3c-0.1,0.2-0.2,0.4-0.4,0.6
		c-0.2,0.2-0.4,0.4-0.6,0.5c-0.2,0.1-0.5,0.3-0.8,0.3S603.4,78.1,603.1,78.1z M605.3,74.4c0-0.3-0.1-0.6-0.2-0.8
		c-0.1-0.3-0.3-0.5-0.5-0.6c-0.2-0.2-0.4-0.3-0.7-0.4c-0.2-0.1-0.5-0.2-0.8-0.2s-0.5,0-0.8,0.2c-0.2,0.1-0.5,0.2-0.7,0.4
		c-0.2,0.2-0.3,0.4-0.5,0.6s-0.2,0.5-0.2,0.8H605.3z"/>
	<path class="st0" d="M610.6,77.7c-0.1,0-0.1,0.1-0.3,0.1s-0.2,0.1-0.4,0.1c-0.1,0-0.3,0.1-0.4,0.1c-0.2,0-0.3,0-0.5,0
		c-0.4,0-0.7-0.1-1-0.3c-0.3-0.2-0.4-0.5-0.4-1v-4.2h-0.9v-0.8h0.9v-2.1h1.1v2.1h1.4v0.8h-1.4v3.9c0,0.2,0.1,0.4,0.2,0.5
		c0.1,0.1,0.3,0.2,0.5,0.2c0.2,0,0.4,0,0.6-0.1c0.2-0.1,0.3-0.1,0.4-0.2L610.6,77.7z"/>
	<path class="st0" d="M614.8,77.7c-0.1,0-0.1,0.1-0.3,0.1s-0.2,0.1-0.4,0.1c-0.1,0-0.3,0.1-0.4,0.1s-0.3,0-0.5,0
		c-0.4,0-0.7-0.1-1-0.3c-0.3-0.2-0.4-0.5-0.4-1v-4.2H611v-0.8h0.9v-2.1h1.1v2.1h1.4v0.8h-1.4v3.9c0,0.2,0.1,0.4,0.2,0.5
		c0.1,0.1,0.3,0.2,0.5,0.2c0.2,0,0.4,0,0.6-0.1c0.2-0.1,0.3-0.1,0.4-0.2L614.8,77.7z"/>
	<path class="st0" d="M618.5,78.1c-0.5,0-0.9-0.1-1.3-0.3c-0.4-0.2-0.7-0.4-1-0.7c-0.3-0.3-0.5-0.6-0.7-1c-0.2-0.4-0.2-0.8-0.2-1.3
		c0-0.4,0.1-0.9,0.2-1.2s0.4-0.7,0.7-1c0.3-0.3,0.6-0.5,1-0.7c0.4-0.2,0.8-0.3,1.3-0.3c0.5,0,0.9,0.1,1.3,0.3c0.4,0.2,0.7,0.4,1,0.7
		c0.3,0.3,0.5,0.6,0.6,1c0.1,0.4,0.2,0.8,0.2,1.2c0,0.1,0,0.2,0,0.2c0,0.1,0,0.1,0,0.2h-5.2c0,0.3,0.1,0.6,0.2,0.9s0.3,0.5,0.5,0.7
		c0.2,0.2,0.4,0.3,0.7,0.4c0.2,0.1,0.5,0.2,0.8,0.2c0.2,0,0.4,0,0.6-0.1s0.4-0.1,0.5-0.2s0.3-0.2,0.4-0.3c0.1-0.1,0.2-0.3,0.3-0.4
		l0.9,0.3c-0.1,0.2-0.2,0.4-0.4,0.6c-0.2,0.2-0.4,0.4-0.6,0.5c-0.2,0.1-0.5,0.3-0.8,0.3S618.8,78.1,618.5,78.1z M620.6,74.4
		c0-0.3-0.1-0.6-0.2-0.8c-0.1-0.3-0.3-0.5-0.5-0.6c-0.2-0.2-0.4-0.3-0.7-0.4c-0.2-0.1-0.5-0.2-0.8-0.2c-0.3,0-0.5,0-0.8,0.2
		c-0.2,0.1-0.5,0.2-0.7,0.4c-0.2,0.2-0.3,0.4-0.5,0.6c-0.1,0.2-0.2,0.5-0.2,0.8H620.6z"/>
	<path class="st0" d="M626.1,72.6c-0.5,0-1,0.2-1.4,0.4c-0.4,0.3-0.7,0.6-0.9,1.1V78h-1.1v-6.3h1v1.5c0.2-0.4,0.5-0.8,0.9-1.1
		c0.4-0.3,0.7-0.4,1.1-0.4c0.1,0,0.1,0,0.2,0s0.1,0,0.1,0V72.6z"/>
	<path class="st0" d="M630.4,77.7c-0.1,0-0.1,0.1-0.3,0.1s-0.2,0.1-0.4,0.1c-0.1,0-0.3,0.1-0.4,0.1s-0.3,0-0.5,0
		c-0.4,0-0.7-0.1-1-0.3c-0.3-0.2-0.4-0.5-0.4-1v-4.2h-0.9v-0.8h0.9v-2.1h1.1v2.1h1.4v0.8h-1.4v3.9c0,0.2,0.1,0.4,0.2,0.5
		c0.1,0.1,0.3,0.2,0.5,0.2c0.2,0,0.4,0,0.6-0.1c0.2-0.1,0.3-0.1,0.4-0.2L630.4,77.7z"/>
	<path class="st0" d="M631.7,79.7c0.1,0,0.2,0,0.3,0c0.1,0,0.2,0,0.2,0c0.1,0,0.2,0,0.3-0.1c0.1,0,0.2-0.1,0.2-0.3
		c0.1-0.1,0.2-0.3,0.3-0.5c0.1-0.2,0.2-0.5,0.4-0.9l-2.7-6.3h1.1l2.1,5.3l1.9-5.3h1l-3,7.9c-0.1,0.3-0.3,0.5-0.6,0.7
		s-0.6,0.3-1.1,0.3c-0.1,0-0.1,0-0.2,0c-0.1,0-0.2,0-0.3,0V79.7z"/>
	<path class="st0" d="M641.3,78.1c-0.5,0-1-0.1-1.4-0.4s-0.7-0.6-0.9-1v3.8h-1.1v-8.8h0.9v1.2c0.2-0.4,0.6-0.7,1-0.9
		c0.4-0.2,0.8-0.4,1.3-0.4c0.4,0,0.8,0.1,1.2,0.3c0.4,0.2,0.7,0.4,0.9,0.7c0.3,0.3,0.5,0.6,0.6,1c0.1,0.4,0.2,0.8,0.2,1.2
		c0,0.4-0.1,0.9-0.2,1.3c-0.1,0.4-0.3,0.7-0.6,1s-0.5,0.5-0.9,0.7S641.7,78.1,641.3,78.1z M641,77.2c0.3,0,0.6-0.1,0.8-0.2
		s0.5-0.3,0.6-0.5c0.2-0.2,0.3-0.5,0.4-0.8c0.1-0.3,0.1-0.6,0.1-0.9c0-0.3-0.1-0.6-0.2-0.9c-0.1-0.3-0.3-0.5-0.5-0.7
		c-0.2-0.2-0.4-0.4-0.7-0.5c-0.3-0.1-0.5-0.2-0.8-0.2c-0.2,0-0.4,0-0.6,0.1c-0.2,0.1-0.4,0.2-0.6,0.3c-0.2,0.1-0.3,0.3-0.5,0.4
		c-0.1,0.2-0.2,0.4-0.3,0.5v1.8c0.1,0.2,0.2,0.4,0.3,0.6c0.1,0.2,0.3,0.3,0.5,0.5s0.4,0.2,0.6,0.3C640.6,77.1,640.8,77.2,641,77.2z"
		/>
	<path class="st0" d="M648.2,78.1c-0.5,0-0.9-0.1-1.3-0.3c-0.4-0.2-0.7-0.4-1-0.7c-0.3-0.3-0.5-0.6-0.7-1c-0.2-0.4-0.2-0.8-0.2-1.3
		c0-0.4,0.1-0.9,0.2-1.2s0.4-0.7,0.7-1c0.3-0.3,0.6-0.5,1-0.7c0.4-0.2,0.8-0.3,1.3-0.3c0.5,0,0.9,0.1,1.3,0.3c0.4,0.2,0.7,0.4,1,0.7
		c0.3,0.3,0.5,0.6,0.6,1c0.1,0.4,0.2,0.8,0.2,1.2c0,0.1,0,0.2,0,0.2c0,0.1,0,0.1,0,0.2h-5.2c0,0.3,0.1,0.6,0.2,0.9s0.3,0.5,0.5,0.7
		c0.2,0.2,0.4,0.3,0.7,0.4c0.2,0.1,0.5,0.2,0.8,0.2c0.2,0,0.4,0,0.6-0.1s0.4-0.1,0.5-0.2s0.3-0.2,0.4-0.3c0.1-0.1,0.2-0.3,0.3-0.4
		l0.9,0.3c-0.1,0.2-0.2,0.4-0.4,0.6c-0.2,0.2-0.4,0.4-0.6,0.5c-0.2,0.1-0.5,0.3-0.8,0.3S648.5,78.1,648.2,78.1z M650.3,74.4
		c0-0.3-0.1-0.6-0.2-0.8c-0.1-0.3-0.3-0.5-0.5-0.6c-0.2-0.2-0.4-0.3-0.7-0.4c-0.2-0.1-0.5-0.2-0.8-0.2c-0.3,0-0.5,0-0.8,0.2
		c-0.2,0.1-0.5,0.2-0.7,0.4c-0.2,0.2-0.3,0.4-0.5,0.6c-0.1,0.2-0.2,0.5-0.2,0.8H650.3z"/>
	<path class="st0" d="M665,78h-1.1v-3.5c0-0.7-0.1-1.1-0.3-1.5c-0.2-0.3-0.5-0.5-0.9-0.5c-0.4,0-0.8,0.2-1.2,0.5
		c-0.3,0.3-0.6,0.7-0.7,1.2V78h-1.1v-3.5c0-0.7-0.1-1.2-0.3-1.5s-0.5-0.5-0.9-0.5c-0.4,0-0.8,0.1-1.2,0.5c-0.3,0.3-0.6,0.7-0.7,1.2
		V78h-1.1v-6.3h1v1.3c0.3-0.5,0.6-0.8,1-1.1c0.4-0.3,0.9-0.4,1.4-0.4c0.5,0,0.9,0.1,1.3,0.4c0.3,0.3,0.5,0.7,0.6,1.1
		c0.6-1,1.4-1.5,2.4-1.5c0.4,0,0.7,0.1,0.9,0.2c0.2,0.1,0.4,0.3,0.6,0.6c0.1,0.2,0.2,0.5,0.3,0.8c0.1,0.3,0.1,0.7,0.1,1V78z"/>
	<path class="st0" d="M669.4,78.1c-0.5,0-0.9-0.1-1.3-0.3c-0.4-0.2-0.7-0.4-1-0.7s-0.5-0.6-0.7-1c-0.2-0.4-0.2-0.8-0.2-1.3
		c0-0.4,0.1-0.9,0.2-1.2c0.2-0.4,0.4-0.7,0.7-1c0.3-0.3,0.6-0.5,1-0.7c0.4-0.2,0.8-0.3,1.3-0.3s0.9,0.1,1.3,0.3
		c0.4,0.2,0.7,0.4,1,0.7c0.3,0.3,0.5,0.6,0.6,1c0.1,0.4,0.2,0.8,0.2,1.2c0,0.1,0,0.2,0,0.2c0,0.1,0,0.1,0,0.2h-5.2
		c0,0.3,0.1,0.6,0.2,0.9c0.1,0.3,0.3,0.5,0.5,0.7c0.2,0.2,0.4,0.3,0.7,0.4c0.2,0.1,0.5,0.2,0.8,0.2c0.2,0,0.4,0,0.6-0.1
		c0.2-0.1,0.4-0.1,0.5-0.2c0.2-0.1,0.3-0.2,0.4-0.3c0.1-0.1,0.2-0.3,0.3-0.4l0.9,0.3c-0.1,0.2-0.2,0.4-0.4,0.6
		c-0.2,0.2-0.4,0.4-0.6,0.5c-0.2,0.1-0.5,0.3-0.8,0.3S669.7,78.1,669.4,78.1z M671.6,74.4c0-0.3-0.1-0.6-0.2-0.8
		c-0.1-0.3-0.3-0.5-0.5-0.6c-0.2-0.2-0.4-0.3-0.7-0.4c-0.2-0.1-0.5-0.2-0.8-0.2s-0.5,0-0.8,0.2c-0.2,0.1-0.5,0.2-0.7,0.4
		c-0.2,0.2-0.3,0.4-0.5,0.6s-0.2,0.5-0.2,0.8H671.6z"/>
	<path class="st0" d="M676.9,77.7c-0.1,0-0.1,0.1-0.3,0.1s-0.2,0.1-0.4,0.1c-0.1,0-0.3,0.1-0.4,0.1c-0.2,0-0.3,0-0.5,0
		c-0.4,0-0.7-0.1-1-0.3c-0.3-0.2-0.4-0.5-0.4-1v-4.2h-0.9v-0.8h0.9v-2.1h1.1v2.1h1.4v0.8H675v3.9c0,0.2,0.1,0.4,0.2,0.5
		c0.1,0.1,0.3,0.2,0.5,0.2c0.2,0,0.4,0,0.6-0.1c0.2-0.1,0.3-0.1,0.4-0.2L676.9,77.7z"/>
	<path class="st0" d="M683.4,78c-0.4,0-0.8-0.1-1.2-0.3c-0.4-0.2-0.7-0.4-0.9-0.7c-0.3-0.3-0.5-0.6-0.6-1c-0.1-0.4-0.2-0.8-0.2-1.2
		c0-0.4,0.1-0.9,0.2-1.3c0.1-0.4,0.3-0.7,0.6-1s0.6-0.5,0.9-0.7c0.4-0.2,0.8-0.3,1.2-0.3c0.5,0,1,0.1,1.4,0.4c0.4,0.3,0.7,0.6,1,1
		v-1.2h0.9v6.2c0,0.4-0.1,0.8-0.3,1.2c-0.2,0.3-0.4,0.6-0.7,0.9c-0.3,0.2-0.6,0.4-1,0.5c-0.4,0.1-0.8,0.2-1.2,0.2
		c-0.7,0-1.3-0.1-1.7-0.4s-0.8-0.6-1.1-1l0.6-0.5c0.2,0.4,0.6,0.6,1,0.8c0.4,0.2,0.8,0.3,1.3,0.3c0.3,0,0.6,0,0.8-0.1
		s0.5-0.2,0.7-0.4c0.2-0.2,0.3-0.4,0.5-0.6c0.1-0.2,0.2-0.5,0.2-0.9v-1.1c-0.1,0.2-0.3,0.4-0.4,0.5c-0.2,0.2-0.3,0.3-0.5,0.4
		c-0.2,0.1-0.4,0.2-0.6,0.2C683.9,78,683.6,78,683.4,78z M683.7,77.2c0.2,0,0.4,0,0.6-0.1c0.2-0.1,0.4-0.2,0.6-0.3
		c0.2-0.1,0.3-0.3,0.4-0.4c0.1-0.2,0.2-0.3,0.2-0.5V74c-0.1-0.2-0.2-0.4-0.3-0.6c-0.1-0.2-0.3-0.3-0.5-0.5s-0.4-0.2-0.6-0.3
		c-0.2-0.1-0.4-0.1-0.6-0.1c-0.3,0-0.6,0.1-0.9,0.2c-0.3,0.1-0.5,0.3-0.6,0.5s-0.3,0.5-0.4,0.8s-0.1,0.6-0.1,0.9
		c0,0.3,0.1,0.6,0.2,0.9c0.1,0.3,0.3,0.5,0.5,0.7c0.2,0.2,0.4,0.4,0.7,0.5S683.4,77.2,683.7,77.2z"/>
	<path class="st0" d="M691.7,72.6c-0.5,0-1,0.2-1.4,0.4s-0.7,0.6-0.9,1.1V78h-1.1v-6.3h1v1.5c0.2-0.4,0.5-0.8,0.9-1.1
		c0.4-0.3,0.7-0.4,1.1-0.4c0.1,0,0.1,0,0.2,0c0.1,0,0.1,0,0.1,0V72.6z"/>
	<path class="st0" d="M695.4,78.1c-0.5,0-0.9-0.1-1.3-0.3c-0.4-0.2-0.7-0.4-1-0.7c-0.3-0.3-0.5-0.6-0.6-1s-0.2-0.8-0.2-1.2
		c0-0.4,0.1-0.9,0.2-1.2c0.2-0.4,0.4-0.7,0.6-1c0.3-0.3,0.6-0.5,1-0.7c0.4-0.2,0.8-0.3,1.3-0.3c0.5,0,0.9,0.1,1.3,0.3
		c0.4,0.2,0.7,0.4,1,0.7c0.3,0.3,0.5,0.6,0.6,1c0.2,0.4,0.2,0.8,0.2,1.2c0,0.4-0.1,0.8-0.2,1.2s-0.4,0.7-0.6,1
		c-0.3,0.3-0.6,0.5-1,0.7C696.3,78,695.8,78.1,695.4,78.1z M693.3,74.9c0,0.3,0.1,0.6,0.2,0.9c0.1,0.3,0.3,0.5,0.4,0.7
		c0.2,0.2,0.4,0.4,0.7,0.5s0.5,0.2,0.8,0.2c0.3,0,0.6-0.1,0.8-0.2s0.5-0.3,0.7-0.5s0.3-0.5,0.5-0.7s0.2-0.6,0.2-0.9
		c0-0.3-0.1-0.6-0.2-0.9s-0.3-0.5-0.5-0.7s-0.4-0.4-0.7-0.5s-0.5-0.2-0.8-0.2c-0.3,0-0.6,0.1-0.8,0.2c-0.3,0.1-0.5,0.3-0.7,0.5
		c-0.2,0.2-0.3,0.5-0.4,0.7C693.3,74.2,693.3,74.5,693.3,74.9z"/>
	<path class="st0" d="M703,77.7c-0.1,0-0.1,0.1-0.3,0.1s-0.2,0.1-0.4,0.1c-0.1,0-0.3,0.1-0.4,0.1s-0.3,0-0.5,0c-0.4,0-0.7-0.1-1-0.3
		c-0.3-0.2-0.4-0.5-0.4-1v-4.2h-0.9v-0.8h0.9v-2.1h1.1v2.1h1.4v0.8h-1.4v3.9c0,0.2,0.1,0.4,0.2,0.5c0.1,0.1,0.3,0.2,0.5,0.2
		c0.2,0,0.4,0,0.6-0.1c0.2-0.1,0.3-0.1,0.4-0.2L703,77.7z"/>
	<path class="st0" d="M706.6,78.1c-0.5,0-0.9-0.1-1.3-0.3c-0.4-0.2-0.7-0.4-1-0.7c-0.3-0.3-0.5-0.6-0.7-1c-0.2-0.4-0.2-0.8-0.2-1.3
		c0-0.4,0.1-0.9,0.2-1.2s0.4-0.7,0.7-1c0.3-0.3,0.6-0.5,1-0.7c0.4-0.2,0.8-0.3,1.3-0.3c0.5,0,0.9,0.1,1.3,0.3c0.4,0.2,0.7,0.4,1,0.7
		c0.3,0.3,0.5,0.6,0.6,1c0.1,0.4,0.2,0.8,0.2,1.2c0,0.1,0,0.2,0,0.2c0,0.1,0,0.1,0,0.2h-5.2c0,0.3,0.1,0.6,0.2,0.9s0.3,0.5,0.5,0.7
		c0.2,0.2,0.4,0.3,0.7,0.4c0.2,0.1,0.5,0.2,0.8,0.2c0.2,0,0.4,0,0.6-0.1s0.4-0.1,0.5-0.2s0.3-0.2,0.4-0.3c0.1-0.1,0.2-0.3,0.3-0.4
		l0.9,0.3c-0.1,0.2-0.2,0.4-0.4,0.6c-0.2,0.2-0.4,0.4-0.6,0.5c-0.2,0.1-0.5,0.3-0.8,0.3S706.9,78.1,706.6,78.1z M708.8,74.4
		c0-0.3-0.1-0.6-0.2-0.8c-0.1-0.3-0.3-0.5-0.5-0.6c-0.2-0.2-0.4-0.3-0.7-0.4c-0.2-0.1-0.5-0.2-0.8-0.2c-0.3,0-0.5,0-0.8,0.2
		c-0.2,0.1-0.5,0.2-0.7,0.4c-0.2,0.2-0.3,0.4-0.5,0.6c-0.1,0.2-0.2,0.5-0.2,0.8H708.8z"/>
	<path class="st0" d="M714,69.2h1.1v7.1c0,0.2,0.1,0.4,0.2,0.5s0.3,0.2,0.5,0.2c0.1,0,0.2,0,0.3,0c0.1,0,0.2-0.1,0.3-0.1l0.2,0.9
		c-0.2,0.1-0.4,0.1-0.6,0.2c-0.2,0-0.5,0.1-0.6,0.1c-0.4,0-0.7-0.1-1-0.3c-0.2-0.2-0.4-0.6-0.4-1V69.2z"/>
	<path class="st0" d="M720.2,78.1c-0.5,0-0.9-0.1-1.3-0.3c-0.4-0.2-0.7-0.4-1-0.7c-0.3-0.3-0.5-0.6-0.7-1c-0.2-0.4-0.2-0.8-0.2-1.3
		c0-0.4,0.1-0.9,0.2-1.2s0.4-0.7,0.7-1c0.3-0.3,0.6-0.5,1-0.7c0.4-0.2,0.8-0.3,1.3-0.3c0.5,0,0.9,0.1,1.3,0.3c0.4,0.2,0.7,0.4,1,0.7
		s0.5,0.6,0.6,1c0.1,0.4,0.2,0.8,0.2,1.2c0,0.1,0,0.2,0,0.2c0,0.1,0,0.1,0,0.2h-5.2c0,0.3,0.1,0.6,0.2,0.9c0.1,0.3,0.3,0.5,0.5,0.7
		c0.2,0.2,0.4,0.3,0.7,0.4c0.2,0.1,0.5,0.2,0.8,0.2c0.2,0,0.4,0,0.6-0.1c0.2-0.1,0.4-0.1,0.5-0.2s0.3-0.2,0.4-0.3s0.2-0.3,0.3-0.4
		l0.9,0.3c-0.1,0.2-0.2,0.4-0.4,0.6c-0.2,0.2-0.4,0.4-0.6,0.5c-0.2,0.1-0.5,0.3-0.8,0.3C720.8,78.1,720.5,78.1,720.2,78.1z
		 M722.3,74.4c0-0.3-0.1-0.6-0.2-0.8s-0.3-0.5-0.5-0.6s-0.4-0.3-0.7-0.4c-0.2-0.1-0.5-0.2-0.8-0.2c-0.3,0-0.5,0-0.8,0.2
		c-0.2,0.1-0.5,0.2-0.7,0.4c-0.2,0.2-0.3,0.4-0.5,0.6c-0.1,0.2-0.2,0.5-0.2,0.8H722.3z"/>
	<path class="st0" d="M727.7,77.7c-0.1,0-0.1,0.1-0.3,0.1c-0.1,0-0.2,0.1-0.4,0.1c-0.1,0-0.3,0.1-0.4,0.1s-0.3,0-0.5,0
		c-0.4,0-0.7-0.1-1-0.3c-0.3-0.2-0.4-0.5-0.4-1v-4.2h-0.9v-0.8h0.9v-2.1h1.1v2.1h1.4v0.8h-1.4v3.9c0,0.2,0.1,0.4,0.2,0.5
		c0.1,0.1,0.3,0.2,0.5,0.2c0.2,0,0.4,0,0.6-0.1c0.2-0.1,0.3-0.1,0.4-0.2L727.7,77.7z"/>
	<path class="st0" d="M731.9,77.7c-0.1,0-0.1,0.1-0.3,0.1s-0.2,0.1-0.4,0.1c-0.1,0-0.3,0.1-0.4,0.1c-0.2,0-0.3,0-0.5,0
		c-0.4,0-0.7-0.1-1-0.3c-0.3-0.2-0.4-0.5-0.4-1v-4.2h-0.9v-0.8h0.9v-2.1h1.1v2.1h1.4v0.8H730v3.9c0,0.2,0.1,0.4,0.2,0.5
		c0.1,0.1,0.3,0.2,0.5,0.2c0.2,0,0.4,0,0.6-0.1c0.2-0.1,0.3-0.1,0.4-0.2L731.9,77.7z"/>
	<path class="st0" d="M735.6,78.1c-0.5,0-0.9-0.1-1.3-0.3c-0.4-0.2-0.7-0.4-1-0.7s-0.5-0.6-0.7-1c-0.2-0.4-0.2-0.8-0.2-1.3
		c0-0.4,0.1-0.9,0.2-1.2c0.2-0.4,0.4-0.7,0.7-1c0.3-0.3,0.6-0.5,1-0.7c0.4-0.2,0.8-0.3,1.3-0.3s0.9,0.1,1.3,0.3
		c0.4,0.2,0.7,0.4,1,0.7c0.3,0.3,0.5,0.6,0.6,1c0.1,0.4,0.2,0.8,0.2,1.2c0,0.1,0,0.2,0,0.2c0,0.1,0,0.1,0,0.2h-5.2
		c0,0.3,0.1,0.6,0.2,0.9c0.1,0.3,0.3,0.5,0.5,0.7c0.2,0.2,0.4,0.3,0.7,0.4c0.2,0.1,0.5,0.2,0.8,0.2c0.2,0,0.4,0,0.6-0.1
		c0.2-0.1,0.4-0.1,0.5-0.2c0.2-0.1,0.3-0.2,0.4-0.3c0.1-0.1,0.2-0.3,0.3-0.4l0.9,0.3c-0.1,0.2-0.2,0.4-0.4,0.6
		c-0.2,0.2-0.4,0.4-0.6,0.5c-0.2,0.1-0.5,0.3-0.8,0.3S735.9,78.1,735.6,78.1z M737.7,74.4c0-0.3-0.1-0.6-0.2-0.8
		c-0.1-0.3-0.3-0.5-0.5-0.6c-0.2-0.2-0.4-0.3-0.7-0.4c-0.2-0.1-0.5-0.2-0.8-0.2s-0.5,0-0.8,0.2c-0.2,0.1-0.5,0.2-0.7,0.4
		c-0.2,0.2-0.3,0.4-0.5,0.6s-0.2,0.5-0.2,0.8H737.7z"/>
	<path class="st0" d="M743.2,72.6c-0.5,0-1,0.2-1.4,0.4s-0.7,0.6-0.9,1.1V78h-1.1v-6.3h1v1.5c0.2-0.4,0.5-0.8,0.9-1.1
		c0.4-0.3,0.7-0.4,1.1-0.4c0.1,0,0.1,0,0.2,0c0.1,0,0.1,0,0.1,0V72.6z"/>
	<path class="st0" d="M746.9,78.1c-0.5,0-0.9-0.1-1.3-0.3c-0.4-0.2-0.7-0.4-1-0.7c-0.3-0.3-0.5-0.6-0.6-1s-0.2-0.8-0.2-1.2
		c0-0.4,0.1-0.9,0.2-1.2c0.2-0.4,0.4-0.7,0.6-1c0.3-0.3,0.6-0.5,1-0.7c0.4-0.2,0.8-0.3,1.3-0.3c0.5,0,0.9,0.1,1.3,0.3
		c0.4,0.2,0.7,0.4,1,0.7c0.3,0.3,0.5,0.6,0.6,1c0.2,0.4,0.2,0.8,0.2,1.2c0,0.4-0.1,0.8-0.2,1.2s-0.4,0.7-0.6,1
		c-0.3,0.3-0.6,0.5-1,0.7C747.8,78,747.3,78.1,746.9,78.1z M744.8,74.9c0,0.3,0.1,0.6,0.2,0.9c0.1,0.3,0.3,0.5,0.4,0.7
		c0.2,0.2,0.4,0.4,0.7,0.5s0.5,0.2,0.8,0.2c0.3,0,0.6-0.1,0.8-0.2s0.5-0.3,0.7-0.5s0.3-0.5,0.5-0.7s0.2-0.6,0.2-0.9
		c0-0.3-0.1-0.6-0.2-0.9s-0.3-0.5-0.5-0.7s-0.4-0.4-0.7-0.5s-0.5-0.2-0.8-0.2c-0.3,0-0.6,0.1-0.8,0.2c-0.3,0.1-0.5,0.3-0.7,0.5
		c-0.2,0.2-0.3,0.5-0.4,0.7C744.8,74.2,744.8,74.5,744.8,74.9z"/>
	<path class="st0" d="M751.2,75.2v-1h3.5v1H751.2z"/>
	<path class="st0" d="M599.4,93c-0.4,0-0.8-0.1-1.2-0.3c-0.4-0.2-0.7-0.4-0.9-0.7c-0.3-0.3-0.5-0.6-0.6-1s-0.2-0.8-0.2-1.2
		c0-0.4,0.1-0.9,0.2-1.3c0.1-0.4,0.3-0.7,0.6-1c0.3-0.3,0.6-0.5,0.9-0.7c0.4-0.2,0.8-0.3,1.2-0.3c0.5,0,1,0.1,1.4,0.4
		c0.4,0.3,0.7,0.6,1,1v-1.2h0.9v6.2c0,0.4-0.1,0.8-0.3,1.2c-0.2,0.3-0.4,0.6-0.7,0.9c-0.3,0.2-0.6,0.4-1,0.5
		c-0.4,0.1-0.8,0.2-1.2,0.2c-0.7,0-1.3-0.1-1.7-0.4s-0.8-0.6-1.1-1l0.6-0.5c0.2,0.4,0.6,0.6,1,0.8c0.4,0.2,0.8,0.3,1.3,0.3
		c0.3,0,0.6,0,0.8-0.1c0.3-0.1,0.5-0.2,0.7-0.4c0.2-0.2,0.3-0.4,0.5-0.6c0.1-0.2,0.2-0.5,0.2-0.9v-1.1c-0.1,0.2-0.3,0.4-0.4,0.5
		c-0.2,0.2-0.3,0.3-0.5,0.4c-0.2,0.1-0.4,0.2-0.6,0.2C599.8,93,599.6,93,599.4,93z M599.7,92.2c0.2,0,0.4,0,0.6-0.1
		c0.2-0.1,0.4-0.2,0.6-0.3c0.2-0.1,0.3-0.3,0.4-0.4s0.2-0.3,0.2-0.5V89c-0.1-0.2-0.2-0.4-0.3-0.6c-0.1-0.2-0.3-0.3-0.5-0.5
		c-0.2-0.1-0.4-0.2-0.6-0.3c-0.2-0.1-0.4-0.1-0.6-0.1c-0.3,0-0.6,0.1-0.9,0.2s-0.5,0.3-0.6,0.5c-0.2,0.2-0.3,0.5-0.4,0.8
		s-0.1,0.6-0.1,0.9c0,0.3,0.1,0.6,0.2,0.9c0.1,0.3,0.3,0.5,0.5,0.7c0.2,0.2,0.4,0.4,0.7,0.5C599.1,92.1,599.4,92.2,599.7,92.2z"/>
	<path class="st0" d="M607.2,93.1c-0.5,0-0.9-0.1-1.3-0.3c-0.4-0.2-0.7-0.4-1-0.7c-0.3-0.3-0.5-0.6-0.7-1c-0.2-0.4-0.2-0.8-0.2-1.3
		c0-0.4,0.1-0.9,0.2-1.2s0.4-0.7,0.7-1c0.3-0.3,0.6-0.5,1-0.7c0.4-0.2,0.8-0.3,1.3-0.3c0.5,0,0.9,0.1,1.3,0.3c0.4,0.2,0.7,0.4,1,0.7
		c0.3,0.3,0.5,0.6,0.6,1c0.1,0.4,0.2,0.8,0.2,1.2c0,0.1,0,0.2,0,0.2c0,0.1,0,0.1,0,0.2h-5.2c0,0.3,0.1,0.6,0.2,0.9s0.3,0.5,0.5,0.7
		c0.2,0.2,0.4,0.3,0.7,0.4c0.2,0.1,0.5,0.2,0.8,0.2c0.2,0,0.4,0,0.6-0.1s0.4-0.1,0.5-0.2s0.3-0.2,0.4-0.3c0.1-0.1,0.2-0.3,0.3-0.4
		l0.9,0.3c-0.1,0.2-0.2,0.4-0.4,0.6c-0.2,0.2-0.4,0.4-0.6,0.5c-0.2,0.1-0.5,0.3-0.8,0.3S607.5,93.1,607.2,93.1z M609.3,89.4
		c0-0.3-0.1-0.6-0.2-0.8c-0.1-0.3-0.3-0.5-0.5-0.6c-0.2-0.2-0.4-0.3-0.7-0.4c-0.2-0.1-0.5-0.2-0.8-0.2c-0.3,0-0.5,0-0.8,0.2
		c-0.2,0.1-0.5,0.2-0.7,0.4c-0.2,0.2-0.3,0.4-0.5,0.6c-0.1,0.2-0.2,0.5-0.2,0.8H609.3z"/>
	<path class="st0" d="M616.9,93h-1.1v-3.5c0-0.7-0.1-1.2-0.3-1.5c-0.2-0.3-0.5-0.5-0.9-0.5c-0.2,0-0.4,0-0.6,0.1s-0.4,0.2-0.6,0.3
		c-0.2,0.1-0.4,0.3-0.5,0.5c-0.1,0.2-0.3,0.4-0.3,0.7V93h-1.1v-6.3h1v1.3c0.2-0.4,0.6-0.8,1.1-1.1c0.5-0.3,1-0.4,1.5-0.4
		c0.4,0,0.7,0.1,0.9,0.2s0.4,0.3,0.6,0.6c0.1,0.2,0.2,0.5,0.3,0.8c0.1,0.3,0.1,0.7,0.1,1V93z"/>
	<path class="st0" d="M618.5,93v-1.3h0.9V93H618.5z"/>
	<path class="st0" d="M624.2,93v-8.5h3c0.7,0,1.3,0.1,1.8,0.3c0.5,0.2,0.9,0.5,1.3,0.9c0.3,0.4,0.6,0.8,0.8,1.4
		c0.2,0.5,0.3,1.1,0.3,1.6c0,0.6-0.1,1.2-0.3,1.8c-0.2,0.5-0.5,1-0.8,1.3s-0.8,0.7-1.3,0.9s-1.1,0.3-1.7,0.3H624.2z M630.2,88.7
		c0-0.5-0.1-0.9-0.2-1.3c-0.1-0.4-0.3-0.8-0.6-1s-0.6-0.5-1-0.7c-0.4-0.2-0.8-0.2-1.3-0.2h-1.9V92h1.9c0.5,0,0.9-0.1,1.3-0.3
		s0.7-0.4,0.9-0.7s0.4-0.6,0.6-1C630.1,89.6,630.2,89.2,630.2,88.7z"/>
	<path class="st0" d="M632.6,85.5v-1.3h1.1v1.3H632.6z M632.6,93v-6.3h1.1V93H632.6z"/>
	<path class="st0" d="M638.6,92.7c-0.1,0-0.1,0.1-0.3,0.1c-0.1,0-0.2,0.1-0.4,0.1c-0.1,0-0.3,0.1-0.4,0.1c-0.2,0-0.3,0-0.5,0
		c-0.4,0-0.7-0.1-1-0.3c-0.3-0.2-0.4-0.5-0.4-1v-4.2h-0.9v-0.8h0.9v-2.1h1.1v2.1h1.4v0.8h-1.4v3.9c0,0.2,0.1,0.4,0.2,0.5
		c0.1,0.1,0.3,0.2,0.5,0.2c0.2,0,0.4,0,0.6-0.1c0.2-0.1,0.3-0.1,0.4-0.2L638.6,92.7z"/>
	<path class="st0" d="M642.1,92.3l4-4.8h-3.9v-0.8h5v0.7l-4,4.8h4V93h-5.1V92.3z"/>
	<path class="st0" d="M651.2,93.1c-0.5,0-0.9-0.1-1.3-0.3c-0.4-0.2-0.7-0.4-1-0.7c-0.3-0.3-0.5-0.6-0.6-1s-0.2-0.8-0.2-1.2
		c0-0.4,0.1-0.9,0.2-1.2c0.2-0.4,0.4-0.7,0.6-1c0.3-0.3,0.6-0.5,1-0.7c0.4-0.2,0.8-0.3,1.3-0.3c0.5,0,0.9,0.1,1.3,0.3
		c0.4,0.2,0.7,0.4,1,0.7c0.3,0.3,0.5,0.6,0.6,1c0.2,0.4,0.2,0.8,0.2,1.2c0,0.4-0.1,0.8-0.2,1.2s-0.4,0.7-0.6,1
		c-0.3,0.3-0.6,0.5-1,0.7C652.1,93,651.6,93.1,651.2,93.1z M649.1,89.9c0,0.3,0.1,0.6,0.2,0.9c0.1,0.3,0.3,0.5,0.4,0.7
		c0.2,0.2,0.4,0.4,0.7,0.5s0.5,0.2,0.8,0.2c0.3,0,0.6-0.1,0.8-0.2s0.5-0.3,0.7-0.5s0.3-0.5,0.5-0.7s0.2-0.6,0.2-0.9
		c0-0.3-0.1-0.6-0.2-0.9s-0.3-0.5-0.5-0.7s-0.4-0.4-0.7-0.5s-0.5-0.2-0.8-0.2c-0.3,0-0.6,0.1-0.8,0.2c-0.3,0.1-0.5,0.3-0.7,0.5
		c-0.2,0.2-0.3,0.5-0.4,0.7C649.1,89.2,649.1,89.5,649.1,89.9z"/>
	<path class="st0" d="M658.9,87.6c-0.5,0-1,0.2-1.4,0.4c-0.4,0.3-0.7,0.6-0.9,1.1V93h-1.1v-6.3h1v1.5c0.2-0.4,0.5-0.8,0.9-1.1
		c0.4-0.3,0.7-0.4,1.1-0.4c0.1,0,0.1,0,0.2,0c0.1,0,0.1,0,0.1,0V87.6z"/>
	<path class="st0" d="M662.4,93c-0.4,0-0.8-0.1-1.2-0.3c-0.4-0.2-0.7-0.4-0.9-0.7c-0.3-0.3-0.5-0.6-0.6-1c-0.1-0.4-0.2-0.8-0.2-1.2
		c0-0.4,0.1-0.9,0.2-1.3c0.1-0.4,0.3-0.7,0.6-1s0.6-0.5,0.9-0.7c0.4-0.2,0.8-0.3,1.2-0.3c0.5,0,1,0.1,1.4,0.4c0.4,0.3,0.7,0.6,1,1
		v-1.2h0.9v6.2c0,0.4-0.1,0.8-0.3,1.2c-0.2,0.3-0.4,0.6-0.7,0.9c-0.3,0.2-0.6,0.4-1,0.5c-0.4,0.1-0.8,0.2-1.2,0.2
		c-0.7,0-1.3-0.1-1.7-0.4c-0.4-0.2-0.8-0.6-1.1-1l0.6-0.5c0.2,0.4,0.6,0.6,1,0.8c0.4,0.2,0.8,0.3,1.3,0.3c0.3,0,0.6,0,0.8-0.1
		s0.5-0.2,0.7-0.4c0.2-0.2,0.3-0.4,0.5-0.6c0.1-0.2,0.2-0.5,0.2-0.9v-1.1c-0.1,0.2-0.3,0.4-0.4,0.5c-0.2,0.2-0.3,0.3-0.5,0.4
		c-0.2,0.1-0.4,0.2-0.6,0.2C662.8,93,662.6,93,662.4,93z M662.7,92.2c0.2,0,0.4,0,0.6-0.1s0.4-0.2,0.6-0.3c0.2-0.1,0.3-0.3,0.4-0.4
		c0.1-0.2,0.2-0.3,0.2-0.5V89c-0.1-0.2-0.2-0.4-0.3-0.6s-0.3-0.3-0.5-0.5s-0.4-0.2-0.6-0.3c-0.2-0.1-0.4-0.1-0.6-0.1
		c-0.3,0-0.6,0.1-0.9,0.2c-0.3,0.1-0.5,0.3-0.6,0.5c-0.2,0.2-0.3,0.5-0.4,0.8c-0.1,0.3-0.1,0.6-0.1,0.9c0,0.3,0.1,0.6,0.2,0.9
		s0.3,0.5,0.5,0.7s0.4,0.4,0.7,0.5C662.1,92.1,662.4,92.2,662.7,92.2z"/>
	<path class="st0" d="M670.6,92.7c-0.1,0-0.1,0.1-0.3,0.1c-0.1,0-0.2,0.1-0.4,0.1c-0.1,0-0.3,0.1-0.4,0.1s-0.3,0-0.5,0
		c-0.4,0-0.7-0.1-1-0.3c-0.3-0.2-0.4-0.5-0.4-1v-4.2h-0.9v-0.8h0.9v-2.1h1.1v2.1h1.4v0.8h-1.4v3.9c0,0.2,0.1,0.4,0.2,0.5
		c0.1,0.1,0.3,0.2,0.5,0.2c0.2,0,0.4,0,0.6-0.1c0.2-0.1,0.3-0.1,0.4-0.2L670.6,92.7z"/>
	<path class="st0" d="M676.1,93l-2.5-6.3h1.1l2,5.3l2-5.3h1l-2.5,6.3H676.1z"/>
	<path class="st0" d="M683.3,93.1c-0.5,0-0.9-0.1-1.3-0.3c-0.4-0.2-0.7-0.4-1-0.7c-0.3-0.3-0.5-0.6-0.6-1c-0.2-0.4-0.2-0.8-0.2-1.2
		c0-0.4,0.1-0.9,0.2-1.2c0.2-0.4,0.4-0.7,0.6-1c0.3-0.3,0.6-0.5,1-0.7c0.4-0.2,0.8-0.3,1.3-0.3c0.5,0,0.9,0.1,1.3,0.3
		c0.4,0.2,0.7,0.4,1,0.7c0.3,0.3,0.5,0.6,0.6,1c0.2,0.4,0.2,0.8,0.2,1.2c0,0.4-0.1,0.8-0.2,1.2s-0.4,0.7-0.6,1
		c-0.3,0.3-0.6,0.5-1,0.7C684.2,93,683.7,93.1,683.3,93.1z M681.2,89.9c0,0.3,0.1,0.6,0.2,0.9c0.1,0.3,0.3,0.5,0.4,0.7
		s0.4,0.4,0.7,0.5s0.5,0.2,0.8,0.2c0.3,0,0.6-0.1,0.8-0.2s0.5-0.3,0.7-0.5s0.3-0.5,0.5-0.7c0.1-0.3,0.2-0.6,0.2-0.9
		c0-0.3-0.1-0.6-0.2-0.9c-0.1-0.3-0.3-0.5-0.5-0.7s-0.4-0.4-0.7-0.5s-0.5-0.2-0.8-0.2c-0.3,0-0.6,0.1-0.8,0.2
		c-0.3,0.1-0.5,0.3-0.7,0.5s-0.3,0.5-0.4,0.7C681.2,89.2,681.2,89.5,681.2,89.9z"/>
	<path class="st0" d="M690.5,93.1c-0.5,0-0.9-0.1-1.3-0.3c-0.4-0.2-0.7-0.4-1-0.7s-0.5-0.6-0.6-1s-0.2-0.8-0.2-1.2
		c0-0.4,0.1-0.9,0.2-1.2c0.2-0.4,0.4-0.7,0.6-1c0.3-0.3,0.6-0.5,1-0.7c0.4-0.2,0.8-0.3,1.3-0.3s0.9,0.1,1.3,0.3
		c0.4,0.2,0.7,0.4,1,0.7c0.3,0.3,0.5,0.6,0.6,1c0.2,0.4,0.2,0.8,0.2,1.2c0,0.4-0.1,0.8-0.2,1.2c-0.2,0.4-0.4,0.7-0.6,1
		s-0.6,0.5-1,0.7C691.4,93,690.9,93.1,690.5,93.1z M688.4,89.9c0,0.3,0.1,0.6,0.2,0.9c0.1,0.3,0.3,0.5,0.4,0.7
		c0.2,0.2,0.4,0.4,0.7,0.5s0.5,0.2,0.8,0.2s0.6-0.1,0.8-0.2s0.5-0.3,0.7-0.5c0.2-0.2,0.3-0.5,0.4-0.7c0.1-0.3,0.2-0.6,0.2-0.9
		c0-0.3-0.1-0.6-0.2-0.9c-0.1-0.3-0.3-0.5-0.4-0.7c-0.2-0.2-0.4-0.4-0.7-0.5s-0.5-0.2-0.8-0.2s-0.6,0.1-0.8,0.2
		c-0.3,0.1-0.5,0.3-0.7,0.5c-0.2,0.2-0.3,0.5-0.4,0.7C688.4,89.2,688.4,89.5,688.4,89.9z"/>
	<path class="st0" d="M698.2,87.6c-0.5,0-1,0.2-1.4,0.4c-0.4,0.3-0.7,0.6-0.9,1.1V93h-1.1v-6.3h1v1.5c0.2-0.4,0.5-0.8,0.9-1.1
		c0.4-0.3,0.7-0.4,1.1-0.4c0.1,0,0.1,0,0.2,0s0.1,0,0.1,0V87.6z"/>
	<path class="st0" d="M705.3,87.6c-0.5,0-1,0.2-1.4,0.4c-0.4,0.3-0.7,0.6-0.9,1.1V93H702v-6.3h1v1.5c0.2-0.4,0.5-0.8,0.9-1.1
		c0.4-0.3,0.7-0.4,1.1-0.4c0.1,0,0.1,0,0.2,0c0.1,0,0.1,0,0.1,0V87.6z"/>
	<path class="st0" d="M708.3,93.1c-0.7,0-1.2-0.2-1.5-0.7c-0.3-0.4-0.5-1.1-0.5-2v-3.8h1.1v3.6c0,1.3,0.4,1.9,1.3,1.9
		c0.4,0,0.8-0.1,1.2-0.4s0.7-0.7,0.8-1.1v-3.9h1.1v5c0,0.2,0.1,0.4,0.3,0.4V93c-0.1,0-0.2,0-0.3,0c-0.1,0-0.1,0-0.2,0
		c-0.2,0-0.4-0.1-0.5-0.2c-0.1-0.1-0.2-0.3-0.2-0.5l0-0.7c-0.3,0.5-0.6,0.8-1.1,1.1C709.4,93,708.9,93.1,708.3,93.1z"/>
	<path class="st0" d="M715.8,93.1c-0.5,0-1-0.1-1.5-0.2c-0.5-0.2-0.9-0.4-1.3-0.7l0.5-0.7c0.4,0.3,0.7,0.5,1.1,0.6
		c0.4,0.1,0.8,0.2,1.2,0.2c0.5,0,0.8-0.1,1.1-0.3c0.3-0.2,0.4-0.4,0.4-0.8c0-0.2,0-0.3-0.1-0.4s-0.2-0.2-0.3-0.3
		c-0.1-0.1-0.3-0.2-0.6-0.2c-0.2-0.1-0.5-0.1-0.8-0.2c-0.4-0.1-0.7-0.2-1-0.3s-0.5-0.2-0.7-0.3c-0.2-0.1-0.3-0.3-0.4-0.4
		s-0.1-0.4-0.1-0.6c0-0.3,0.1-0.6,0.2-0.8c0.1-0.2,0.3-0.4,0.5-0.6c0.2-0.2,0.5-0.3,0.8-0.4s0.6-0.1,0.9-0.1c0.5,0,0.9,0.1,1.3,0.2
		c0.4,0.2,0.8,0.4,1,0.6l-0.5,0.6c-0.3-0.2-0.6-0.4-0.9-0.5s-0.7-0.2-1-0.2c-0.4,0-0.7,0.1-1,0.2c-0.3,0.2-0.4,0.4-0.4,0.8
		c0,0.1,0,0.3,0.1,0.4c0.1,0.1,0.1,0.2,0.3,0.3s0.3,0.1,0.5,0.2c0.2,0.1,0.4,0.1,0.7,0.2c0.4,0.1,0.8,0.2,1.1,0.3
		c0.3,0.1,0.6,0.2,0.8,0.4c0.2,0.1,0.4,0.3,0.5,0.5c0.1,0.2,0.2,0.4,0.2,0.7c0,0.6-0.2,1-0.7,1.4C717.1,92.9,716.5,93.1,715.8,93.1z
		"/>
	<path class="st0" d="M722.8,92.7c-0.1,0-0.1,0.1-0.3,0.1c-0.1,0-0.2,0.1-0.4,0.1c-0.1,0-0.3,0.1-0.4,0.1s-0.3,0-0.5,0
		c-0.4,0-0.7-0.1-1-0.3c-0.3-0.2-0.4-0.5-0.4-1v-4.2H719v-0.8h0.9v-2.1h1.1v2.1h1.4v0.8h-1.4v3.9c0,0.2,0.1,0.4,0.2,0.5
		c0.1,0.1,0.3,0.2,0.5,0.2c0.2,0,0.4,0,0.6-0.1c0.2-0.1,0.3-0.1,0.4-0.2L722.8,92.7z"/>
	<path class="st0" d="M730,92.7c-0.1,0-0.1,0.1-0.3,0.1s-0.2,0.1-0.4,0.1c-0.1,0-0.3,0.1-0.4,0.1s-0.3,0-0.5,0c-0.4,0-0.7-0.1-1-0.3
		c-0.3-0.2-0.4-0.5-0.4-1v-4.2h-0.9v-0.8h0.9v-2.1h1.1v2.1h1.4v0.8h-1.4v3.9c0,0.2,0.1,0.4,0.2,0.5c0.1,0.1,0.3,0.2,0.5,0.2
		c0.2,0,0.4,0,0.6-0.1c0.2-0.1,0.3-0.1,0.4-0.2L730,92.7z"/>
	<path class="st0" d="M731,85.5v-1.3h1.1v1.3H731z M731,93v-6.3h1.1V93H731z"/>
	<path class="st0" d="M733,95.2c-0.3,0-0.5,0-0.8-0.1c-0.2-0.1-0.5-0.2-0.7-0.4L732,94c0.1,0.1,0.2,0.2,0.4,0.2s0.3,0.1,0.4,0.1
		c0.1,0,0.3,0,0.4-0.1s0.2-0.1,0.3-0.2s0.2-0.2,0.2-0.3c0.1-0.1,0.1-0.3,0.1-0.4v-6.5h1.1v6.5c0,0.3-0.1,0.6-0.2,0.8
		s-0.3,0.5-0.4,0.6c-0.2,0.2-0.4,0.3-0.6,0.4C733.5,95.2,733.2,95.2,733,95.2z M733.8,85.5v-1.3h1.1v1.3H733.8z"/>
	<path class="st0" d="M739.2,93.1c-0.4,0-0.8-0.1-1.2-0.3c-0.4-0.2-0.7-0.4-0.9-0.7c-0.3-0.3-0.5-0.6-0.6-1s-0.2-0.8-0.2-1.2
		c0-0.4,0.1-0.9,0.2-1.3c0.1-0.4,0.3-0.7,0.6-1s0.6-0.5,0.9-0.7c0.3-0.2,0.7-0.3,1.1-0.3c0.5,0,1,0.1,1.4,0.4c0.4,0.3,0.7,0.6,0.9,1
		v-3.7h1.1v7.5c0,0.2,0.1,0.4,0.3,0.4V93c-0.1,0-0.2,0-0.3,0c-0.1,0-0.1,0-0.2,0c-0.2,0-0.4-0.1-0.5-0.2c-0.2-0.1-0.2-0.3-0.2-0.5
		v-0.5c-0.2,0.4-0.6,0.7-1,1C740.1,93,739.6,93.1,739.2,93.1z M739.4,92.2c0.2,0,0.4,0,0.6-0.1c0.2-0.1,0.4-0.2,0.6-0.3
		c0.2-0.1,0.3-0.3,0.5-0.5c0.1-0.2,0.2-0.4,0.3-0.5V89c-0.1-0.2-0.2-0.4-0.3-0.6c-0.1-0.2-0.3-0.3-0.5-0.5c-0.2-0.1-0.4-0.2-0.6-0.3
		c-0.2-0.1-0.4-0.1-0.6-0.1c-0.3,0-0.6,0.1-0.8,0.2s-0.5,0.3-0.6,0.5c-0.2,0.2-0.3,0.5-0.4,0.8c-0.1,0.3-0.1,0.6-0.1,0.9
		c0,0.3,0.1,0.6,0.2,0.9s0.3,0.5,0.5,0.7c0.2,0.2,0.4,0.4,0.7,0.5S739.1,92.2,739.4,92.2z"/>
	<path class="st0" d="M746.9,93.1c-0.5,0-0.9-0.1-1.3-0.3s-0.7-0.4-1-0.7c-0.3-0.3-0.5-0.6-0.7-1c-0.2-0.4-0.2-0.8-0.2-1.3
		c0-0.4,0.1-0.9,0.2-1.2c0.2-0.4,0.4-0.7,0.7-1s0.6-0.5,1-0.7c0.4-0.2,0.8-0.3,1.3-0.3c0.5,0,0.9,0.1,1.3,0.3c0.4,0.2,0.7,0.4,1,0.7
		s0.5,0.6,0.6,1c0.1,0.4,0.2,0.8,0.2,1.2c0,0.1,0,0.2,0,0.2c0,0.1,0,0.1,0,0.2h-5.2c0,0.3,0.1,0.6,0.2,0.9c0.1,0.3,0.3,0.5,0.5,0.7
		c0.2,0.2,0.4,0.3,0.7,0.4c0.2,0.1,0.5,0.2,0.8,0.2c0.2,0,0.4,0,0.6-0.1s0.4-0.1,0.5-0.2c0.2-0.1,0.3-0.2,0.4-0.3s0.2-0.3,0.3-0.4
		l0.9,0.3c-0.1,0.2-0.2,0.4-0.4,0.6c-0.2,0.2-0.4,0.4-0.6,0.5c-0.2,0.1-0.5,0.3-0.8,0.3C747.5,93.1,747.2,93.1,746.9,93.1z
		 M749.1,89.4c0-0.3-0.1-0.6-0.2-0.8s-0.3-0.5-0.5-0.6s-0.4-0.3-0.7-0.4c-0.2-0.1-0.5-0.2-0.8-0.2c-0.3,0-0.5,0-0.8,0.2
		c-0.2,0.1-0.5,0.2-0.7,0.4c-0.2,0.2-0.3,0.4-0.5,0.6c-0.1,0.2-0.2,0.5-0.2,0.8H749.1z"/>
	<path class="st0" d="M756.7,93h-1.1v-3.5c0-0.7-0.1-1.2-0.3-1.5s-0.5-0.5-0.9-0.5c-0.2,0-0.4,0-0.6,0.1c-0.2,0.1-0.4,0.2-0.6,0.3
		c-0.2,0.1-0.4,0.3-0.5,0.5c-0.1,0.2-0.3,0.4-0.3,0.7V93h-1.1v-6.3h1v1.3c0.2-0.4,0.6-0.8,1.1-1.1c0.5-0.3,1-0.4,1.5-0.4
		c0.4,0,0.7,0.1,0.9,0.2c0.2,0.1,0.4,0.3,0.6,0.6c0.1,0.2,0.2,0.5,0.3,0.8c0.1,0.3,0.1,0.7,0.1,1V93z"/>
	<path class="st0" d="M760.5,93.1c-0.5,0-1-0.1-1.5-0.2c-0.5-0.2-0.9-0.4-1.3-0.7l0.5-0.7c0.4,0.3,0.7,0.5,1.1,0.6
		c0.4,0.1,0.8,0.2,1.2,0.2c0.5,0,0.8-0.1,1.1-0.3c0.3-0.2,0.4-0.4,0.4-0.8c0-0.2,0-0.3-0.1-0.4c-0.1-0.1-0.2-0.2-0.3-0.3
		s-0.3-0.2-0.6-0.2c-0.2-0.1-0.5-0.1-0.8-0.2c-0.4-0.1-0.7-0.2-1-0.3c-0.3-0.1-0.5-0.2-0.7-0.3c-0.2-0.1-0.3-0.3-0.4-0.4
		s-0.1-0.4-0.1-0.6c0-0.3,0.1-0.6,0.2-0.8s0.3-0.4,0.5-0.6c0.2-0.2,0.5-0.3,0.8-0.4c0.3-0.1,0.6-0.1,0.9-0.1c0.5,0,0.9,0.1,1.3,0.2
		c0.4,0.2,0.8,0.4,1,0.6l-0.5,0.6c-0.3-0.2-0.6-0.4-0.9-0.5s-0.7-0.2-1-0.2c-0.4,0-0.7,0.1-1,0.2c-0.3,0.2-0.4,0.4-0.4,0.8
		c0,0.1,0,0.3,0.1,0.4s0.1,0.2,0.3,0.3c0.1,0.1,0.3,0.1,0.5,0.2c0.2,0.1,0.4,0.1,0.7,0.2c0.4,0.1,0.8,0.2,1.1,0.3s0.6,0.2,0.8,0.4
		c0.2,0.1,0.4,0.3,0.5,0.5c0.1,0.2,0.2,0.4,0.2,0.7c0,0.6-0.2,1-0.7,1.4C761.9,92.9,761.3,93.1,760.5,93.1z"/>
	<path class="st0" d="M602.3,108h-1.1v-3.5c0-0.6-0.1-1.1-0.3-1.4c-0.2-0.3-0.6-0.5-1-0.5c-0.2,0-0.4,0-0.6,0.1s-0.4,0.2-0.6,0.3
		c-0.2,0.1-0.3,0.3-0.5,0.5c-0.1,0.2-0.2,0.4-0.3,0.7v3.8h-1.1v-8.8h1.1v3.8c0.2-0.5,0.6-0.8,1-1.1c0.4-0.3,0.9-0.4,1.4-0.4
		c0.4,0,0.7,0.1,0.9,0.2c0.3,0.1,0.5,0.3,0.6,0.6c0.2,0.2,0.3,0.5,0.3,0.8c0.1,0.3,0.1,0.7,0.1,1V108z"/>
	<path class="st0" d="M606.8,108.1c-0.5,0-0.9-0.1-1.3-0.3s-0.7-0.4-1-0.7c-0.3-0.3-0.5-0.6-0.7-1c-0.2-0.4-0.2-0.8-0.2-1.3
		c0-0.4,0.1-0.9,0.2-1.2c0.2-0.4,0.4-0.7,0.7-1s0.6-0.5,1-0.7c0.4-0.2,0.8-0.3,1.3-0.3c0.5,0,0.9,0.1,1.3,0.3c0.4,0.2,0.7,0.4,1,0.7
		s0.5,0.6,0.6,1c0.1,0.4,0.2,0.8,0.2,1.2c0,0.1,0,0.2,0,0.2c0,0.1,0,0.1,0,0.2h-5.2c0,0.3,0.1,0.6,0.2,0.9c0.1,0.3,0.3,0.5,0.5,0.7
		c0.2,0.2,0.4,0.3,0.7,0.4c0.2,0.1,0.5,0.2,0.8,0.2c0.2,0,0.4,0,0.6-0.1s0.4-0.1,0.5-0.2c0.2-0.1,0.3-0.2,0.4-0.3s0.2-0.3,0.3-0.4
		l0.9,0.3c-0.1,0.2-0.2,0.4-0.4,0.6c-0.2,0.2-0.4,0.4-0.6,0.5c-0.2,0.1-0.5,0.3-0.8,0.3C607.4,108.1,607.1,108.1,606.8,108.1z
		 M608.9,104.4c0-0.3-0.1-0.6-0.2-0.8s-0.3-0.5-0.5-0.6s-0.4-0.3-0.7-0.4c-0.2-0.1-0.5-0.2-0.8-0.2c-0.3,0-0.5,0-0.8,0.2
		c-0.2,0.1-0.5,0.2-0.7,0.4c-0.2,0.2-0.3,0.4-0.5,0.6c-0.1,0.2-0.2,0.5-0.2,0.8H608.9z"/>
	<path class="st0" d="M614.3,107.7c-0.1,0-0.1,0.1-0.3,0.1c-0.1,0-0.2,0.1-0.4,0.1c-0.1,0-0.3,0.1-0.4,0.1c-0.2,0-0.3,0-0.5,0
		c-0.4,0-0.7-0.1-1-0.3c-0.3-0.2-0.4-0.5-0.4-1v-4.2h-0.9v-0.8h0.9v-2.1h1.1v2.1h1.4v0.8h-1.4v3.9c0,0.2,0.1,0.4,0.2,0.5
		c0.1,0.1,0.3,0.2,0.5,0.2c0.2,0,0.4,0,0.6-0.1c0.2-0.1,0.3-0.1,0.4-0.2L614.3,107.7z"/>
	<path class="st0" d="M618.3,99.2h1.1v7.1c0,0.2,0.1,0.4,0.2,0.5s0.3,0.2,0.5,0.2c0.1,0,0.2,0,0.3,0s0.2-0.1,0.3-0.1l0.2,0.9
		c-0.2,0.1-0.4,0.1-0.6,0.2s-0.5,0.1-0.6,0.1c-0.4,0-0.7-0.1-1-0.3c-0.2-0.2-0.4-0.6-0.4-1V99.2z"/>
	<path class="st0" d="M624.5,108.1c-0.5,0-0.9-0.1-1.3-0.3c-0.4-0.2-0.7-0.4-1-0.7c-0.3-0.3-0.5-0.6-0.7-1c-0.2-0.4-0.2-0.8-0.2-1.3
		c0-0.4,0.1-0.9,0.2-1.2s0.4-0.7,0.7-1c0.3-0.3,0.6-0.5,1-0.7c0.4-0.2,0.8-0.3,1.3-0.3c0.5,0,0.9,0.1,1.3,0.3c0.4,0.2,0.7,0.4,1,0.7
		c0.3,0.3,0.5,0.6,0.6,1c0.1,0.4,0.2,0.8,0.2,1.2c0,0.1,0,0.2,0,0.2c0,0.1,0,0.1,0,0.2h-5.2c0,0.3,0.1,0.6,0.2,0.9s0.3,0.5,0.5,0.7
		c0.2,0.2,0.4,0.3,0.7,0.4c0.2,0.1,0.5,0.2,0.8,0.2c0.2,0,0.4,0,0.6-0.1s0.4-0.1,0.5-0.2s0.3-0.2,0.4-0.3c0.1-0.1,0.2-0.3,0.3-0.4
		l0.9,0.3c-0.1,0.2-0.2,0.4-0.4,0.6c-0.2,0.2-0.4,0.4-0.6,0.5c-0.2,0.1-0.5,0.3-0.8,0.3S624.8,108.1,624.5,108.1z M626.6,104.4
		c0-0.3-0.1-0.6-0.2-0.8c-0.1-0.3-0.3-0.5-0.5-0.6c-0.2-0.2-0.4-0.3-0.7-0.4c-0.2-0.1-0.5-0.2-0.8-0.2c-0.3,0-0.5,0-0.8,0.2
		c-0.2,0.1-0.5,0.2-0.7,0.4c-0.2,0.2-0.3,0.4-0.5,0.6c-0.1,0.2-0.2,0.5-0.2,0.8H626.6z"/>
	<path class="st0" d="M628.2,107.3l4-4.8h-3.9v-0.8h5v0.7l-4,4.8h4v0.8h-5.1V107.3z"/>
	<path class="st0" d="M637.3,108.1c-0.5,0-0.9-0.1-1.3-0.3c-0.4-0.2-0.7-0.4-1-0.7c-0.3-0.3-0.5-0.6-0.7-1c-0.2-0.4-0.2-0.8-0.2-1.3
		c0-0.4,0.1-0.9,0.2-1.2s0.4-0.7,0.7-1c0.3-0.3,0.6-0.5,1-0.7c0.4-0.2,0.8-0.3,1.3-0.3c0.5,0,0.9,0.1,1.3,0.3c0.4,0.2,0.7,0.4,1,0.7
		s0.5,0.6,0.6,1c0.1,0.4,0.2,0.8,0.2,1.2c0,0.1,0,0.2,0,0.2c0,0.1,0,0.1,0,0.2h-5.2c0,0.3,0.1,0.6,0.2,0.9c0.1,0.3,0.3,0.5,0.5,0.7
		c0.2,0.2,0.4,0.3,0.7,0.4c0.2,0.1,0.5,0.2,0.8,0.2c0.2,0,0.4,0,0.6-0.1c0.2-0.1,0.4-0.1,0.5-0.2s0.3-0.2,0.4-0.3s0.2-0.3,0.3-0.4
		l0.9,0.3c-0.1,0.2-0.2,0.4-0.4,0.6c-0.2,0.2-0.4,0.4-0.6,0.5c-0.2,0.1-0.5,0.3-0.8,0.3C637.9,108.1,637.6,108.1,637.3,108.1z
		 M639.4,104.4c0-0.3-0.1-0.6-0.2-0.8s-0.3-0.5-0.5-0.6s-0.4-0.3-0.7-0.4c-0.2-0.1-0.5-0.2-0.8-0.2c-0.3,0-0.5,0-0.8,0.2
		c-0.2,0.1-0.5,0.2-0.7,0.4c-0.2,0.2-0.3,0.4-0.5,0.6c-0.1,0.2-0.2,0.5-0.2,0.8H639.4z"/>
	<path class="st0" d="M647,108H646v-3.5c0-0.7-0.1-1.2-0.3-1.5c-0.2-0.3-0.5-0.5-0.9-0.5c-0.2,0-0.4,0-0.6,0.1
		c-0.2,0.1-0.4,0.2-0.6,0.3c-0.2,0.1-0.4,0.3-0.5,0.5c-0.1,0.2-0.3,0.4-0.3,0.7v3.8h-1.1v-6.3h1v1.3c0.2-0.4,0.6-0.8,1.1-1.1
		c0.5-0.3,1-0.4,1.5-0.4c0.4,0,0.7,0.1,0.9,0.2s0.4,0.3,0.6,0.6c0.1,0.2,0.2,0.5,0.3,0.8c0.1,0.3,0.1,0.7,0.1,1V108z"/>
	<path class="st0" d="M648.6,108v-1.3h0.9v1.3H648.6z"/>
	<path class="st0" d="M661.2,99.5v8.5h-1.1v-3.9h-4.7v3.9h-1.1v-8.5h1.1v3.7h4.7v-3.7H661.2z"/>
	<path class="st0" d="M665.7,108.1c-0.5,0-0.9-0.1-1.3-0.3c-0.4-0.2-0.7-0.4-1-0.7s-0.5-0.6-0.7-1c-0.2-0.4-0.2-0.8-0.2-1.3
		c0-0.4,0.1-0.9,0.2-1.2c0.2-0.4,0.4-0.7,0.7-1c0.3-0.3,0.6-0.5,1-0.7c0.4-0.2,0.8-0.3,1.3-0.3s0.9,0.1,1.3,0.3
		c0.4,0.2,0.7,0.4,1,0.7c0.3,0.3,0.5,0.6,0.6,1c0.1,0.4,0.2,0.8,0.2,1.2c0,0.1,0,0.2,0,0.2c0,0.1,0,0.1,0,0.2h-5.2
		c0,0.3,0.1,0.6,0.2,0.9c0.1,0.3,0.3,0.5,0.5,0.7c0.2,0.2,0.4,0.3,0.7,0.4c0.2,0.1,0.5,0.2,0.8,0.2c0.2,0,0.4,0,0.6-0.1
		c0.2-0.1,0.4-0.1,0.5-0.2c0.2-0.1,0.3-0.2,0.4-0.3c0.1-0.1,0.2-0.3,0.3-0.4l0.9,0.3c-0.1,0.2-0.2,0.4-0.4,0.6
		c-0.2,0.2-0.4,0.4-0.6,0.5c-0.2,0.1-0.5,0.3-0.8,0.3S666,108.1,665.7,108.1z M667.9,104.4c0-0.3-0.1-0.6-0.2-0.8
		c-0.1-0.3-0.3-0.5-0.5-0.6c-0.2-0.2-0.4-0.3-0.7-0.4c-0.2-0.1-0.5-0.2-0.8-0.2s-0.5,0-0.8,0.2c-0.2,0.1-0.5,0.2-0.7,0.4
		c-0.2,0.2-0.3,0.4-0.5,0.6s-0.2,0.5-0.2,0.8H667.9z"/>
	<path class="st0" d="M673.2,107.7c-0.1,0-0.1,0.1-0.3,0.1c-0.1,0-0.2,0.1-0.4,0.1c-0.1,0-0.3,0.1-0.4,0.1s-0.3,0-0.5,0
		c-0.4,0-0.7-0.1-1-0.3c-0.3-0.2-0.4-0.5-0.4-1v-4.2h-0.9v-0.8h0.9v-2.1h1.1v2.1h1.4v0.8h-1.4v3.9c0,0.2,0.1,0.4,0.2,0.5
		c0.1,0.1,0.3,0.2,0.5,0.2c0.2,0,0.4,0,0.6-0.1c0.2-0.1,0.3-0.1,0.4-0.2L673.2,107.7z"/>
	<path class="st0" d="M677.2,100.5v-1.3h1.1v1.3H677.2z M677.2,108v-6.3h1.1v6.3H677.2z"/>
	<path class="st0" d="M682.2,108.1c-0.5,0-1-0.1-1.5-0.2c-0.5-0.2-0.9-0.4-1.3-0.7l0.5-0.7c0.4,0.3,0.7,0.5,1.1,0.6
		c0.4,0.1,0.8,0.2,1.2,0.2c0.5,0,0.8-0.1,1.1-0.3c0.3-0.2,0.4-0.4,0.4-0.8c0-0.2,0-0.3-0.1-0.4c-0.1-0.1-0.2-0.2-0.3-0.3
		s-0.3-0.2-0.6-0.2c-0.2-0.1-0.5-0.1-0.8-0.2c-0.4-0.1-0.7-0.2-1-0.3c-0.3-0.1-0.5-0.2-0.7-0.3c-0.2-0.1-0.3-0.3-0.4-0.4
		s-0.1-0.4-0.1-0.6c0-0.3,0.1-0.6,0.2-0.8s0.3-0.4,0.5-0.6c0.2-0.2,0.5-0.3,0.8-0.4c0.3-0.1,0.6-0.1,0.9-0.1c0.5,0,0.9,0.1,1.3,0.2
		c0.4,0.2,0.8,0.4,1,0.6l-0.5,0.6c-0.3-0.2-0.6-0.4-0.9-0.5s-0.7-0.2-1-0.2c-0.4,0-0.7,0.1-1,0.2c-0.3,0.2-0.4,0.4-0.4,0.8
		c0,0.1,0,0.3,0.1,0.4s0.1,0.2,0.3,0.3c0.1,0.1,0.3,0.1,0.5,0.2c0.2,0.1,0.4,0.1,0.7,0.2c0.4,0.1,0.8,0.2,1.1,0.3s0.6,0.2,0.8,0.4
		c0.2,0.1,0.4,0.3,0.5,0.5c0.1,0.2,0.2,0.4,0.2,0.7c0,0.6-0.2,1-0.7,1.4C683.5,107.9,682.9,108.1,682.2,108.1z"/>
	<path class="st0" d="M691.7,108.1c-0.5,0-0.9-0.1-1.3-0.3c-0.4-0.2-0.7-0.4-1-0.7s-0.5-0.6-0.6-1s-0.2-0.8-0.2-1.2
		c0-0.4,0.1-0.9,0.2-1.2c0.2-0.4,0.4-0.7,0.6-1c0.3-0.3,0.6-0.5,1-0.7c0.4-0.2,0.8-0.3,1.3-0.3s0.9,0.1,1.3,0.3
		c0.4,0.2,0.7,0.4,1,0.7c0.3,0.3,0.5,0.6,0.6,1c0.2,0.4,0.2,0.8,0.2,1.2c0,0.4-0.1,0.8-0.2,1.2c-0.2,0.4-0.4,0.7-0.6,1
		s-0.6,0.5-1,0.7C692.6,108,692.2,108.1,691.7,108.1z M689.6,104.9c0,0.3,0.1,0.6,0.2,0.9c0.1,0.3,0.3,0.5,0.4,0.7
		c0.2,0.2,0.4,0.4,0.7,0.5s0.5,0.2,0.8,0.2s0.6-0.1,0.8-0.2s0.5-0.3,0.7-0.5c0.2-0.2,0.3-0.5,0.4-0.7c0.1-0.3,0.2-0.6,0.2-0.9
		c0-0.3-0.1-0.6-0.2-0.9c-0.1-0.3-0.3-0.5-0.4-0.7c-0.2-0.2-0.4-0.4-0.7-0.5s-0.5-0.2-0.8-0.2s-0.6,0.1-0.8,0.2
		c-0.3,0.1-0.5,0.3-0.7,0.5c-0.2,0.2-0.3,0.5-0.4,0.7C689.7,104.2,689.6,104.5,689.6,104.9z"/>
	<path class="st0" d="M698.9,108.1c-0.5,0-0.9-0.1-1.3-0.3c-0.4-0.2-0.7-0.4-1-0.7c-0.3-0.3-0.5-0.6-0.6-1s-0.2-0.8-0.2-1.2
		c0-0.4,0.1-0.9,0.2-1.2c0.2-0.4,0.4-0.7,0.6-1c0.3-0.3,0.6-0.5,1-0.7c0.4-0.2,0.8-0.3,1.3-0.3c0.5,0,0.9,0.1,1.3,0.3
		c0.4,0.2,0.7,0.4,1,0.7c0.3,0.3,0.5,0.6,0.6,1c0.2,0.4,0.2,0.8,0.2,1.2c0,0.4-0.1,0.8-0.2,1.2s-0.4,0.7-0.6,1
		c-0.3,0.3-0.6,0.5-1,0.7C699.8,108,699.3,108.1,698.9,108.1z M696.8,104.9c0,0.3,0.1,0.6,0.2,0.9c0.1,0.3,0.3,0.5,0.4,0.7
		c0.2,0.2,0.4,0.4,0.7,0.5s0.5,0.2,0.8,0.2c0.3,0,0.6-0.1,0.8-0.2s0.5-0.3,0.7-0.5s0.3-0.5,0.5-0.7s0.2-0.6,0.2-0.9
		c0-0.3-0.1-0.6-0.2-0.9s-0.3-0.5-0.5-0.7s-0.4-0.4-0.7-0.5s-0.5-0.2-0.8-0.2c-0.3,0-0.6,0.1-0.8,0.2c-0.3,0.1-0.5,0.3-0.7,0.5
		c-0.2,0.2-0.3,0.5-0.4,0.7C696.9,104.2,696.8,104.5,696.8,104.9z"/>
	<path class="st0" d="M707.7,108l-2.2-3.1l-1.2,1.1v1.9h-1.1v-8.8h1.1v5.8l3.2-3.3h1.2l-2.5,2.6l2.6,3.7H707.7z"/>
	<path class="st0" d="M715.6,108.1c-0.5,0-0.9-0.1-1.3-0.3s-0.7-0.4-1-0.7c-0.3-0.3-0.5-0.6-0.7-1c-0.2-0.4-0.2-0.8-0.2-1.3
		c0-0.4,0.1-0.9,0.2-1.2c0.2-0.4,0.4-0.7,0.7-1s0.6-0.5,1-0.7c0.4-0.2,0.8-0.3,1.3-0.3c0.5,0,0.9,0.1,1.3,0.3c0.4,0.2,0.7,0.4,1,0.7
		s0.5,0.6,0.6,1c0.1,0.4,0.2,0.8,0.2,1.2c0,0.1,0,0.2,0,0.2c0,0.1,0,0.1,0,0.2h-5.2c0,0.3,0.1,0.6,0.2,0.9c0.1,0.3,0.3,0.5,0.5,0.7
		c0.2,0.2,0.4,0.3,0.7,0.4c0.2,0.1,0.5,0.2,0.8,0.2c0.2,0,0.4,0,0.6-0.1s0.4-0.1,0.5-0.2c0.2-0.1,0.3-0.2,0.4-0.3s0.2-0.3,0.3-0.4
		l0.9,0.3c-0.1,0.2-0.2,0.4-0.4,0.6c-0.2,0.2-0.4,0.4-0.6,0.5c-0.2,0.1-0.5,0.3-0.8,0.3C716.2,108.1,715.9,108.1,715.6,108.1z
		 M717.8,104.4c0-0.3-0.1-0.6-0.2-0.8s-0.3-0.5-0.5-0.6s-0.4-0.3-0.7-0.4c-0.2-0.1-0.5-0.2-0.8-0.2c-0.3,0-0.5,0-0.8,0.2
		c-0.2,0.1-0.5,0.2-0.7,0.4c-0.2,0.2-0.3,0.4-0.5,0.6c-0.1,0.2-0.2,0.5-0.2,0.8H717.8z"/>
	<path class="st0" d="M722.7,108.1c-0.5,0-0.9-0.1-1.3-0.3s-0.7-0.4-1-0.7c-0.3-0.3-0.5-0.6-0.7-1c-0.2-0.4-0.2-0.8-0.2-1.3
		c0-0.4,0.1-0.9,0.2-1.2c0.2-0.4,0.4-0.7,0.7-1s0.6-0.5,1-0.7c0.4-0.2,0.8-0.3,1.3-0.3c0.5,0,0.9,0.1,1.3,0.3c0.4,0.2,0.7,0.4,1,0.7
		s0.5,0.6,0.6,1c0.1,0.4,0.2,0.8,0.2,1.2c0,0.1,0,0.2,0,0.2c0,0.1,0,0.1,0,0.2h-5.2c0,0.3,0.1,0.6,0.2,0.9c0.1,0.3,0.3,0.5,0.5,0.7
		c0.2,0.2,0.4,0.3,0.7,0.4c0.2,0.1,0.5,0.2,0.8,0.2c0.2,0,0.4,0,0.6-0.1s0.4-0.1,0.5-0.2c0.2-0.1,0.3-0.2,0.4-0.3s0.2-0.3,0.3-0.4
		l0.9,0.3c-0.1,0.2-0.2,0.4-0.4,0.6c-0.2,0.2-0.4,0.4-0.6,0.5c-0.2,0.1-0.5,0.3-0.8,0.3C723.3,108.1,723,108.1,722.7,108.1z
		 M724.8,104.4c0-0.3-0.1-0.6-0.2-0.8s-0.3-0.5-0.5-0.6s-0.4-0.3-0.7-0.4c-0.2-0.1-0.5-0.2-0.8-0.2c-0.3,0-0.5,0-0.8,0.2
		c-0.2,0.1-0.5,0.2-0.7,0.4c-0.2,0.2-0.3,0.4-0.5,0.6c-0.1,0.2-0.2,0.5-0.2,0.8H724.8z"/>
	<path class="st0" d="M732.5,108h-1.1v-3.5c0-0.7-0.1-1.2-0.3-1.5s-0.5-0.5-0.9-0.5c-0.2,0-0.4,0-0.6,0.1c-0.2,0.1-0.4,0.2-0.6,0.3
		c-0.2,0.1-0.4,0.3-0.5,0.5c-0.1,0.2-0.3,0.4-0.3,0.7v3.8H727v-6.3h1v1.3c0.2-0.4,0.6-0.8,1.1-1.1c0.5-0.3,1-0.4,1.5-0.4
		c0.4,0,0.7,0.1,0.9,0.2c0.2,0.1,0.4,0.3,0.6,0.6c0.1,0.2,0.2,0.5,0.3,0.8c0.1,0.3,0.1,0.7,0.1,1V108z"/>
	<path class="st0" d="M739.7,108.1c-0.4,0-0.8-0.1-1.2-0.3c-0.4-0.2-0.7-0.4-0.9-0.7c-0.3-0.3-0.5-0.6-0.6-1s-0.2-0.8-0.2-1.2
		c0-0.4,0.1-0.9,0.2-1.3c0.1-0.4,0.3-0.7,0.6-1s0.6-0.5,0.9-0.7c0.3-0.2,0.7-0.3,1.1-0.3c0.5,0,1,0.1,1.4,0.4c0.4,0.3,0.7,0.6,0.9,1
		v-3.7h1.1v7.5c0,0.2,0.1,0.4,0.3,0.4v0.9c-0.1,0-0.2,0-0.3,0c-0.1,0-0.1,0-0.2,0c-0.2,0-0.4-0.1-0.5-0.2c-0.2-0.1-0.2-0.3-0.2-0.5
		v-0.5c-0.2,0.4-0.6,0.7-1,1C740.6,108,740.2,108.1,739.7,108.1z M740,107.2c0.2,0,0.4,0,0.6-0.1c0.2-0.1,0.4-0.2,0.6-0.3
		c0.2-0.1,0.3-0.3,0.5-0.5c0.1-0.2,0.2-0.4,0.3-0.5V104c-0.1-0.2-0.2-0.4-0.3-0.6c-0.1-0.2-0.3-0.3-0.5-0.5
		c-0.2-0.1-0.4-0.2-0.6-0.3c-0.2-0.1-0.4-0.1-0.6-0.1c-0.3,0-0.6,0.1-0.8,0.2s-0.5,0.3-0.6,0.5c-0.2,0.2-0.3,0.5-0.4,0.8
		c-0.1,0.3-0.1,0.6-0.1,0.9c0,0.3,0.1,0.6,0.2,0.9s0.3,0.5,0.5,0.7c0.2,0.2,0.4,0.4,0.7,0.5S739.7,107.2,740,107.2z"/>
	<path class="st0" d="M745,109.7c0.1,0,0.2,0,0.3,0s0.2,0,0.2,0c0.1,0,0.2,0,0.3-0.1s0.2-0.1,0.2-0.3c0.1-0.1,0.2-0.3,0.3-0.5
		c0.1-0.2,0.2-0.5,0.4-0.9l-2.7-6.3h1.1l2.1,5.3l1.9-5.3h1l-3,7.9c-0.1,0.3-0.3,0.5-0.6,0.7s-0.6,0.3-1.1,0.3c-0.1,0-0.1,0-0.2,0
		c-0.1,0-0.2,0-0.3,0V109.7z"/>
	<path class="st0" d="M756.7,108h-1.1v-3.5c0-0.7-0.1-1.2-0.3-1.5c-0.2-0.3-0.5-0.5-0.9-0.5c-0.2,0-0.4,0-0.6,0.1
		c-0.2,0.1-0.4,0.2-0.6,0.3c-0.2,0.1-0.4,0.3-0.5,0.5c-0.1,0.2-0.3,0.4-0.3,0.7v3.8h-1.1v-6.3h1v1.3c0.2-0.4,0.6-0.8,1.1-1.1
		c0.5-0.3,1-0.4,1.5-0.4c0.4,0,0.7,0.1,0.9,0.2s0.4,0.3,0.6,0.6c0.1,0.2,0.2,0.5,0.3,0.8c0.1,0.3,0.1,0.7,0.1,1V108z"/>
	<path class="st0" d="M759.9,108.1c-0.3,0-0.6,0-0.8-0.2c-0.3-0.1-0.5-0.2-0.7-0.4c-0.2-0.2-0.3-0.4-0.4-0.6
		c-0.1-0.2-0.2-0.5-0.2-0.8c0-0.3,0.1-0.5,0.2-0.8c0.1-0.2,0.3-0.4,0.5-0.6c0.2-0.2,0.5-0.3,0.8-0.4s0.7-0.1,1.1-0.1
		c0.3,0,0.6,0,0.9,0.1c0.3,0.1,0.6,0.1,0.8,0.2V104c0-0.5-0.1-0.9-0.4-1.2c-0.3-0.3-0.7-0.4-1.2-0.4c-0.6,0-1.3,0.2-2,0.7l-0.3-0.7
		c0.8-0.5,1.6-0.8,2.4-0.8c0.8,0,1.5,0.2,1.9,0.7s0.7,1.1,0.7,1.9v2.6c0,0.2,0.1,0.4,0.3,0.4v0.9c-0.1,0-0.2,0-0.3,0
		c-0.1,0-0.1,0-0.2,0c-0.2,0-0.4-0.1-0.5-0.2c-0.1-0.1-0.2-0.3-0.2-0.5l0-0.4c-0.3,0.4-0.6,0.7-1.1,0.9
		C760.9,108,760.4,108.1,759.9,108.1z M760.2,107.3c0.4,0,0.7-0.1,1-0.2c0.3-0.1,0.6-0.3,0.7-0.6c0.2-0.2,0.2-0.3,0.2-0.5v-0.9
		c-0.5-0.2-1-0.3-1.6-0.3c-0.5,0-1,0.1-1.3,0.3c-0.3,0.2-0.5,0.5-0.5,0.9c0,0.2,0,0.3,0.1,0.5c0.1,0.2,0.2,0.3,0.3,0.4
		c0.1,0.1,0.3,0.2,0.4,0.3C759.8,107.3,760,107.3,760.2,107.3z"/>
	<path class="st0" d="M764.9,105.2v-1h3.5v1H764.9z"/>
	<path class="st0" d="M606.3,123h-1.1v-3.5c0-0.7-0.1-1.1-0.3-1.5c-0.2-0.3-0.5-0.5-0.9-0.5c-0.4,0-0.8,0.2-1.2,0.5
		c-0.3,0.3-0.6,0.7-0.7,1.2v3.8h-1.1v-3.5c0-0.7-0.1-1.2-0.3-1.5c-0.2-0.3-0.5-0.5-0.9-0.5c-0.4,0-0.8,0.1-1.2,0.5
		c-0.3,0.3-0.6,0.7-0.7,1.2v3.8h-1.1v-6.3h1v1.3c0.3-0.5,0.6-0.8,1-1.1s0.9-0.4,1.4-0.4c0.5,0,0.9,0.1,1.3,0.4
		c0.3,0.3,0.5,0.7,0.6,1.1c0.6-1,1.4-1.5,2.4-1.5c0.4,0,0.7,0.1,0.9,0.2s0.4,0.3,0.6,0.6c0.1,0.2,0.2,0.5,0.3,0.8
		c0.1,0.3,0.1,0.7,0.1,1V123z"/>
	<path class="st0" d="M608,115.5v-1.3h1.1v1.3H608z M608,123v-6.3h1.1v6.3H608z"/>
	<path class="st0" d="M612.9,123.1c-0.5,0-1-0.1-1.5-0.2c-0.5-0.2-0.9-0.4-1.3-0.7l0.5-0.7c0.4,0.3,0.7,0.5,1.1,0.6
		c0.4,0.1,0.8,0.2,1.2,0.2c0.5,0,0.8-0.1,1.1-0.3c0.3-0.2,0.4-0.4,0.4-0.8c0-0.2,0-0.3-0.1-0.4c-0.1-0.1-0.2-0.2-0.3-0.3
		s-0.3-0.2-0.6-0.2c-0.2-0.1-0.5-0.1-0.8-0.2c-0.4-0.1-0.7-0.2-1-0.3c-0.3-0.1-0.5-0.2-0.7-0.3c-0.2-0.1-0.3-0.3-0.4-0.4
		s-0.1-0.4-0.1-0.6c0-0.3,0.1-0.6,0.2-0.8s0.3-0.4,0.5-0.6c0.2-0.2,0.5-0.3,0.8-0.4c0.3-0.1,0.6-0.1,0.9-0.1c0.5,0,0.9,0.1,1.3,0.2
		c0.4,0.2,0.8,0.4,1,0.6l-0.5,0.6c-0.3-0.2-0.6-0.4-0.9-0.5s-0.7-0.2-1-0.2c-0.4,0-0.7,0.1-1,0.2c-0.3,0.2-0.4,0.4-0.4,0.8
		c0,0.1,0,0.3,0.1,0.4s0.1,0.2,0.3,0.3c0.1,0.1,0.3,0.1,0.5,0.2c0.2,0.1,0.4,0.1,0.7,0.2c0.4,0.1,0.8,0.2,1.1,0.3s0.6,0.2,0.8,0.4
		c0.2,0.1,0.4,0.3,0.5,0.5c0.1,0.2,0.2,0.4,0.2,0.7c0,0.6-0.2,1-0.7,1.4C614.3,122.9,613.7,123.1,612.9,123.1z"/>
	<path class="st0" d="M616.3,119.8c0-0.4,0.1-0.9,0.2-1.2c0.2-0.4,0.4-0.7,0.6-1c0.3-0.3,0.6-0.5,1-0.7c0.4-0.2,0.8-0.3,1.3-0.3
		c0.6,0,1.2,0.1,1.6,0.4c0.5,0.3,0.8,0.6,1,1.1l-1,0.3c-0.2-0.3-0.4-0.5-0.7-0.7s-0.6-0.2-1-0.2c-0.3,0-0.6,0.1-0.8,0.2
		s-0.5,0.3-0.7,0.5c-0.2,0.2-0.3,0.5-0.4,0.7c-0.1,0.3-0.2,0.6-0.2,0.9c0,0.3,0.1,0.6,0.2,0.9c0.1,0.3,0.3,0.5,0.4,0.8
		s0.4,0.4,0.7,0.5s0.5,0.2,0.8,0.2c0.2,0,0.4,0,0.5-0.1c0.2-0.1,0.3-0.1,0.5-0.2s0.3-0.2,0.4-0.3c0.1-0.1,0.2-0.2,0.2-0.4l1,0.3
		c-0.1,0.2-0.2,0.4-0.4,0.6c-0.2,0.2-0.4,0.4-0.6,0.5c-0.2,0.1-0.5,0.2-0.8,0.3c-0.3,0.1-0.6,0.1-0.9,0.1c-0.5,0-0.9-0.1-1.3-0.3
		c-0.4-0.2-0.7-0.4-1-0.7c-0.3-0.3-0.5-0.6-0.7-1C616.3,120.7,616.3,120.3,616.3,119.8z"/>
	<path class="st0" d="M628.8,123h-1.1v-3.5c0-0.6-0.1-1.1-0.3-1.4c-0.2-0.3-0.6-0.5-1-0.5c-0.2,0-0.4,0-0.6,0.1
		c-0.2,0.1-0.4,0.2-0.6,0.3c-0.2,0.1-0.3,0.3-0.5,0.5c-0.1,0.2-0.2,0.4-0.3,0.7v3.8h-1.1v-8.8h1.1v3.8c0.2-0.5,0.6-0.8,1-1.1
		c0.4-0.3,0.9-0.4,1.4-0.4c0.4,0,0.7,0.1,0.9,0.2s0.5,0.3,0.6,0.6c0.2,0.2,0.3,0.5,0.3,0.8s0.1,0.7,0.1,1V123z"/>
	<path class="st0" d="M633.2,123.1c-0.5,0-0.9-0.1-1.3-0.3c-0.4-0.2-0.7-0.4-1-0.7c-0.3-0.3-0.5-0.6-0.7-1c-0.2-0.4-0.2-0.8-0.2-1.3
		c0-0.4,0.1-0.9,0.2-1.2s0.4-0.7,0.7-1c0.3-0.3,0.6-0.5,1-0.7c0.4-0.2,0.8-0.3,1.3-0.3c0.5,0,0.9,0.1,1.3,0.3c0.4,0.2,0.7,0.4,1,0.7
		c0.3,0.3,0.5,0.6,0.6,1c0.1,0.4,0.2,0.8,0.2,1.2c0,0.1,0,0.2,0,0.2c0,0.1,0,0.1,0,0.2h-5.2c0,0.3,0.1,0.6,0.2,0.9s0.3,0.5,0.5,0.7
		c0.2,0.2,0.4,0.3,0.7,0.4c0.2,0.1,0.5,0.2,0.8,0.2c0.2,0,0.4,0,0.6-0.1s0.4-0.1,0.5-0.2s0.3-0.2,0.4-0.3c0.1-0.1,0.2-0.3,0.3-0.4
		l0.9,0.3c-0.1,0.2-0.2,0.4-0.4,0.6c-0.2,0.2-0.4,0.4-0.6,0.5c-0.2,0.1-0.5,0.3-0.8,0.3S633.5,123.1,633.2,123.1z M635.3,119.4
		c0-0.3-0.1-0.6-0.2-0.8c-0.1-0.3-0.3-0.5-0.5-0.6c-0.2-0.2-0.4-0.3-0.7-0.4c-0.2-0.1-0.5-0.2-0.8-0.2c-0.3,0-0.5,0-0.8,0.2
		c-0.2,0.1-0.5,0.2-0.7,0.4c-0.2,0.2-0.3,0.4-0.5,0.6c-0.1,0.2-0.2,0.5-0.2,0.8H635.3z"/>
	<path class="st0" d="M642,123l-2.5-6.3h1.1l2,5.3l2-5.3h1l-2.5,6.3H642z"/>
	<path class="st0" d="M649.2,123.1c-0.5,0-0.9-0.1-1.3-0.3c-0.4-0.2-0.7-0.4-1-0.7c-0.3-0.3-0.5-0.6-0.6-1c-0.2-0.4-0.2-0.8-0.2-1.2
		c0-0.4,0.1-0.9,0.2-1.2c0.2-0.4,0.4-0.7,0.6-1c0.3-0.3,0.6-0.5,1-0.7c0.4-0.2,0.8-0.3,1.3-0.3c0.5,0,0.9,0.1,1.3,0.3
		c0.4,0.2,0.7,0.4,1,0.7c0.3,0.3,0.5,0.6,0.6,1c0.2,0.4,0.2,0.8,0.2,1.2c0,0.4-0.1,0.8-0.2,1.2s-0.4,0.7-0.6,1
		c-0.3,0.3-0.6,0.5-1,0.7C650.1,123,649.7,123.1,649.2,123.1z M647.1,119.9c0,0.3,0.1,0.6,0.2,0.9c0.1,0.3,0.3,0.5,0.4,0.7
		s0.4,0.4,0.7,0.5s0.5,0.2,0.8,0.2c0.3,0,0.6-0.1,0.8-0.2s0.5-0.3,0.7-0.5s0.3-0.5,0.5-0.7c0.1-0.3,0.2-0.6,0.2-0.9
		c0-0.3-0.1-0.6-0.2-0.9c-0.1-0.3-0.3-0.5-0.5-0.7s-0.4-0.4-0.7-0.5s-0.5-0.2-0.8-0.2c-0.3,0-0.6,0.1-0.8,0.2
		c-0.3,0.1-0.5,0.3-0.7,0.5s-0.3,0.5-0.4,0.7C647.2,119.2,647.1,119.5,647.1,119.9z"/>
	<path class="st0" d="M656.9,117.6c-0.5,0-1,0.2-1.4,0.4c-0.4,0.3-0.7,0.6-0.9,1.1v3.9h-1.1v-6.3h1v1.5c0.2-0.4,0.5-0.8,0.9-1.1
		c0.4-0.3,0.7-0.4,1.1-0.4c0.1,0,0.1,0,0.2,0s0.1,0,0.1,0V117.6z"/>
	<path class="st0" d="M667.4,123h-1.1v-3.5c0-0.7-0.1-1.1-0.3-1.5c-0.2-0.3-0.5-0.5-0.9-0.5c-0.4,0-0.8,0.2-1.2,0.5
		s-0.6,0.7-0.7,1.2v3.8h-1.1v-3.5c0-0.7-0.1-1.2-0.3-1.5s-0.5-0.5-0.9-0.5c-0.4,0-0.8,0.1-1.2,0.5c-0.3,0.3-0.6,0.7-0.7,1.2v3.8H658
		v-6.3h1v1.3c0.3-0.5,0.6-0.8,1-1.1s0.9-0.4,1.4-0.4c0.5,0,0.9,0.1,1.3,0.4c0.3,0.3,0.5,0.7,0.6,1.1c0.6-1,1.4-1.5,2.4-1.5
		c0.4,0,0.7,0.1,0.9,0.2s0.4,0.3,0.6,0.6c0.1,0.2,0.2,0.5,0.3,0.8c0.1,0.3,0.1,0.7,0.1,1V123z"/>
	<path class="st0" d="M674.7,123.1c-0.4,0-0.8-0.1-1.2-0.3c-0.4-0.2-0.7-0.4-0.9-0.7s-0.5-0.6-0.6-1c-0.1-0.4-0.2-0.8-0.2-1.2
		c0-0.4,0.1-0.9,0.2-1.3c0.1-0.4,0.3-0.7,0.6-1s0.6-0.5,0.9-0.7c0.3-0.2,0.7-0.3,1.1-0.3c0.5,0,1,0.1,1.4,0.4c0.4,0.3,0.7,0.6,0.9,1
		v-3.7h1.1v7.5c0,0.2,0.1,0.4,0.3,0.4v0.9c-0.1,0-0.2,0-0.3,0s-0.1,0-0.2,0c-0.2,0-0.4-0.1-0.5-0.2c-0.2-0.1-0.2-0.3-0.2-0.5v-0.5
		c-0.2,0.4-0.6,0.7-1,1C675.6,123,675.2,123.1,674.7,123.1z M674.9,122.2c0.2,0,0.4,0,0.6-0.1c0.2-0.1,0.4-0.2,0.6-0.3
		s0.3-0.3,0.5-0.5c0.1-0.2,0.2-0.4,0.3-0.5V119c-0.1-0.2-0.2-0.4-0.3-0.6c-0.1-0.2-0.3-0.3-0.5-0.5s-0.4-0.2-0.6-0.3
		c-0.2-0.1-0.4-0.1-0.6-0.1c-0.3,0-0.6,0.1-0.8,0.2s-0.5,0.3-0.6,0.5c-0.2,0.2-0.3,0.5-0.4,0.8c-0.1,0.3-0.1,0.6-0.1,0.9
		c0,0.3,0.1,0.6,0.2,0.9c0.1,0.3,0.3,0.5,0.5,0.7c0.2,0.2,0.4,0.4,0.7,0.5S674.6,122.2,674.9,122.2z"/>
	<path class="st0" d="M679.7,115.5v-1.3h1.1v1.3H679.7z M679.7,123v-6.3h1.1v6.3H679.7z"/>
	<path class="st0" d="M685.2,123.1c-0.5,0-0.9-0.1-1.3-0.3c-0.4-0.2-0.7-0.4-1-0.7c-0.3-0.3-0.5-0.6-0.7-1c-0.2-0.4-0.2-0.8-0.2-1.3
		c0-0.4,0.1-0.9,0.2-1.2s0.4-0.7,0.7-1c0.3-0.3,0.6-0.5,1-0.7c0.4-0.2,0.8-0.3,1.3-0.3c0.5,0,0.9,0.1,1.3,0.3c0.4,0.2,0.7,0.4,1,0.7
		c0.3,0.3,0.5,0.6,0.6,1c0.1,0.4,0.2,0.8,0.2,1.2c0,0.1,0,0.2,0,0.2c0,0.1,0,0.1,0,0.2h-5.2c0,0.3,0.1,0.6,0.2,0.9s0.3,0.5,0.5,0.7
		c0.2,0.2,0.4,0.3,0.7,0.4c0.2,0.1,0.5,0.2,0.8,0.2c0.2,0,0.4,0,0.6-0.1s0.4-0.1,0.5-0.2s0.3-0.2,0.4-0.3c0.1-0.1,0.2-0.3,0.3-0.4
		l0.9,0.3c-0.1,0.2-0.2,0.4-0.4,0.6c-0.2,0.2-0.4,0.4-0.6,0.5c-0.2,0.1-0.5,0.3-0.8,0.3S685.5,123.1,685.2,123.1z M687.3,119.4
		c0-0.3-0.1-0.6-0.2-0.8c-0.1-0.3-0.3-0.5-0.5-0.6c-0.2-0.2-0.4-0.3-0.7-0.4c-0.2-0.1-0.5-0.2-0.8-0.2c-0.3,0-0.5,0-0.8,0.2
		c-0.2,0.1-0.5,0.2-0.7,0.4c-0.2,0.2-0.3,0.4-0.5,0.6c-0.1,0.2-0.2,0.5-0.2,0.8H687.3z"/>
	<path class="st0" d="M695.1,123.1c-0.4,0-0.8-0.1-1.2-0.3c-0.4-0.2-0.7-0.4-0.9-0.7s-0.5-0.6-0.6-1c-0.1-0.4-0.2-0.8-0.2-1.2
		c0-0.4,0.1-0.9,0.2-1.3c0.1-0.4,0.3-0.7,0.6-1s0.6-0.5,0.9-0.7c0.3-0.2,0.7-0.3,1.1-0.3c0.5,0,1,0.1,1.4,0.4c0.4,0.3,0.7,0.6,0.9,1
		v-3.7h1.1v7.5c0,0.2,0.1,0.4,0.3,0.4v0.9c-0.1,0-0.2,0-0.3,0s-0.1,0-0.2,0c-0.2,0-0.4-0.1-0.5-0.2c-0.2-0.1-0.2-0.3-0.2-0.5v-0.5
		c-0.2,0.4-0.6,0.7-1,1C696,123,695.6,123.1,695.1,123.1z M695.4,122.2c0.2,0,0.4,0,0.6-0.1c0.2-0.1,0.4-0.2,0.6-0.3
		s0.3-0.3,0.5-0.5c0.1-0.2,0.2-0.4,0.3-0.5V119c-0.1-0.2-0.2-0.4-0.3-0.6c-0.1-0.2-0.3-0.3-0.5-0.5s-0.4-0.2-0.6-0.3
		c-0.2-0.1-0.4-0.1-0.6-0.1c-0.3,0-0.6,0.1-0.8,0.2s-0.5,0.3-0.6,0.5c-0.2,0.2-0.3,0.5-0.4,0.8c-0.1,0.3-0.1,0.6-0.1,0.9
		c0,0.3,0.1,0.6,0.2,0.9c0.1,0.3,0.3,0.5,0.5,0.7c0.2,0.2,0.4,0.4,0.7,0.5S695.1,122.2,695.4,122.2z"/>
	<path class="st0" d="M702.9,123.1c-0.5,0-0.9-0.1-1.3-0.3c-0.4-0.2-0.7-0.4-1-0.7c-0.3-0.3-0.5-0.6-0.7-1c-0.2-0.4-0.2-0.8-0.2-1.3
		c0-0.4,0.1-0.9,0.2-1.2s0.4-0.7,0.7-1c0.3-0.3,0.6-0.5,1-0.7c0.4-0.2,0.8-0.3,1.3-0.3c0.5,0,0.9,0.1,1.3,0.3c0.4,0.2,0.7,0.4,1,0.7
		c0.3,0.3,0.5,0.6,0.6,1c0.1,0.4,0.2,0.8,0.2,1.2c0,0.1,0,0.2,0,0.2c0,0.1,0,0.1,0,0.2h-5.2c0,0.3,0.1,0.6,0.2,0.9s0.3,0.5,0.5,0.7
		c0.2,0.2,0.4,0.3,0.7,0.4c0.2,0.1,0.5,0.2,0.8,0.2c0.2,0,0.4,0,0.6-0.1s0.4-0.1,0.5-0.2s0.3-0.2,0.4-0.3c0.1-0.1,0.2-0.3,0.3-0.4
		l0.9,0.3c-0.1,0.2-0.2,0.4-0.4,0.6c-0.2,0.2-0.4,0.4-0.6,0.5c-0.2,0.1-0.5,0.3-0.8,0.3S703.2,123.1,702.9,123.1z M705,119.4
		c0-0.3-0.1-0.6-0.2-0.8c-0.1-0.3-0.3-0.5-0.5-0.6c-0.2-0.2-0.4-0.3-0.7-0.4c-0.2-0.1-0.5-0.2-0.8-0.2c-0.3,0-0.5,0-0.8,0.2
		c-0.2,0.1-0.5,0.2-0.7,0.4c-0.2,0.2-0.3,0.4-0.5,0.6c-0.1,0.2-0.2,0.5-0.2,0.8H705z"/>
	<path class="st0" d="M711.8,123.1c-0.3,0-0.6,0-0.8-0.2c-0.3-0.1-0.5-0.2-0.7-0.4c-0.2-0.2-0.3-0.4-0.4-0.6
		c-0.1-0.2-0.2-0.5-0.2-0.8c0-0.3,0.1-0.5,0.2-0.8c0.1-0.2,0.3-0.4,0.5-0.6c0.2-0.2,0.5-0.3,0.8-0.4s0.7-0.1,1.1-0.1
		c0.3,0,0.6,0,0.9,0.1c0.3,0.1,0.6,0.1,0.8,0.2V119c0-0.5-0.1-0.9-0.4-1.2s-0.7-0.4-1.2-0.4c-0.6,0-1.3,0.2-2,0.7l-0.3-0.7
		c0.8-0.5,1.6-0.8,2.4-0.8c0.8,0,1.5,0.2,1.9,0.7c0.5,0.4,0.7,1.1,0.7,1.9v2.6c0,0.2,0.1,0.4,0.3,0.4v0.9c-0.1,0-0.2,0-0.3,0
		s-0.1,0-0.2,0c-0.2,0-0.4-0.1-0.5-0.2s-0.2-0.3-0.2-0.5l0-0.4c-0.3,0.4-0.6,0.7-1.1,0.9C712.8,123,712.3,123.1,711.8,123.1z
		 M712.1,122.3c0.4,0,0.7-0.1,1-0.2s0.6-0.3,0.7-0.6c0.2-0.2,0.2-0.3,0.2-0.5v-0.9c-0.5-0.2-1-0.3-1.6-0.3c-0.5,0-1,0.1-1.3,0.3
		s-0.5,0.5-0.5,0.9c0,0.2,0,0.3,0.1,0.5c0.1,0.2,0.2,0.3,0.3,0.4c0.1,0.1,0.3,0.2,0.4,0.3C711.7,122.3,711.9,122.3,712.1,122.3z"/>
	<path class="st0" d="M716.5,119.8c0-0.4,0.1-0.9,0.2-1.2c0.2-0.4,0.4-0.7,0.6-1s0.6-0.5,1-0.7c0.4-0.2,0.8-0.3,1.3-0.3
		c0.6,0,1.2,0.1,1.6,0.4s0.8,0.6,1,1.1l-1,0.3c-0.2-0.3-0.4-0.5-0.7-0.7c-0.3-0.2-0.6-0.2-1-0.2c-0.3,0-0.6,0.1-0.8,0.2
		s-0.5,0.3-0.7,0.5s-0.3,0.5-0.4,0.7c-0.1,0.3-0.2,0.6-0.2,0.9c0,0.3,0.1,0.6,0.2,0.9c0.1,0.3,0.3,0.5,0.4,0.8
		c0.2,0.2,0.4,0.4,0.7,0.5s0.5,0.2,0.8,0.2c0.2,0,0.4,0,0.5-0.1s0.3-0.1,0.5-0.2c0.1-0.1,0.3-0.2,0.4-0.3c0.1-0.1,0.2-0.2,0.2-0.4
		l1,0.3c-0.1,0.2-0.2,0.4-0.4,0.6c-0.2,0.2-0.4,0.4-0.6,0.5c-0.2,0.1-0.5,0.2-0.8,0.3c-0.3,0.1-0.6,0.1-0.9,0.1
		c-0.5,0-0.9-0.1-1.3-0.3c-0.4-0.2-0.7-0.4-1-0.7s-0.5-0.6-0.7-1C716.5,120.7,716.5,120.3,716.5,119.8z"/>
	<path class="st0" d="M726.8,122.7c-0.1,0-0.1,0.1-0.3,0.1c-0.1,0-0.2,0.1-0.4,0.1c-0.1,0-0.3,0.1-0.4,0.1s-0.3,0-0.5,0
		c-0.4,0-0.7-0.1-1-0.3c-0.3-0.2-0.4-0.5-0.4-1v-4.2H723v-0.8h0.9v-2.1h1.1v2.1h1.4v0.8h-1.4v3.9c0,0.2,0.1,0.4,0.2,0.5
		c0.1,0.1,0.3,0.2,0.5,0.2c0.2,0,0.4,0,0.6-0.1c0.2-0.1,0.3-0.1,0.4-0.2L726.8,122.7z"/>
	<path class="st0" d="M727.7,115.5v-1.3h1.1v1.3H727.7z M727.7,123v-6.3h1.1v6.3H727.7z"/>
	<path class="st0" d="M732.3,123l-2.5-6.3h1.1l2,5.3l2-5.3h1l-2.5,6.3H732.3z"/>
	<path class="st0" d="M737,115.5v-1.3h1.1v1.3H737z M737,123v-6.3h1.1v6.3H737z"/>
	<path class="st0" d="M743,122.7c-0.1,0-0.1,0.1-0.3,0.1c-0.1,0-0.2,0.1-0.4,0.1c-0.1,0-0.3,0.1-0.4,0.1s-0.3,0-0.5,0
		c-0.4,0-0.7-0.1-1-0.3c-0.3-0.2-0.4-0.5-0.4-1v-4.2h-0.9v-0.8h0.9v-2.1h1.1v2.1h1.4v0.8h-1.4v3.9c0,0.2,0.1,0.4,0.2,0.5
		c0.1,0.1,0.3,0.2,0.5,0.2c0.2,0,0.4,0,0.6-0.1c0.2-0.1,0.3-0.1,0.4-0.2L743,122.7z"/>
	<path class="st0" d="M746.6,123.1c-0.5,0-0.9-0.1-1.3-0.3c-0.4-0.2-0.7-0.4-1-0.7c-0.3-0.3-0.5-0.6-0.7-1c-0.2-0.4-0.2-0.8-0.2-1.3
		c0-0.4,0.1-0.9,0.2-1.2s0.4-0.7,0.7-1c0.3-0.3,0.6-0.5,1-0.7c0.4-0.2,0.8-0.3,1.3-0.3c0.5,0,0.9,0.1,1.3,0.3c0.4,0.2,0.7,0.4,1,0.7
		s0.5,0.6,0.6,1c0.1,0.4,0.2,0.8,0.2,1.2c0,0.1,0,0.2,0,0.2c0,0.1,0,0.1,0,0.2h-5.2c0,0.3,0.1,0.6,0.2,0.9c0.1,0.3,0.3,0.5,0.5,0.7
		c0.2,0.2,0.4,0.3,0.7,0.4c0.2,0.1,0.5,0.2,0.8,0.2c0.2,0,0.4,0,0.6-0.1c0.2-0.1,0.4-0.1,0.5-0.2s0.3-0.2,0.4-0.3s0.2-0.3,0.3-0.4
		l0.9,0.3c-0.1,0.2-0.2,0.4-0.4,0.6c-0.2,0.2-0.4,0.4-0.6,0.5c-0.2,0.1-0.5,0.3-0.8,0.3C747.2,123.1,746.9,123.1,746.6,123.1z
		 M748.8,119.4c0-0.3-0.1-0.6-0.2-0.8s-0.3-0.5-0.5-0.6s-0.4-0.3-0.7-0.4c-0.2-0.1-0.5-0.2-0.8-0.2c-0.3,0-0.5,0-0.8,0.2
		c-0.2,0.1-0.5,0.2-0.7,0.4c-0.2,0.2-0.3,0.4-0.5,0.6c-0.1,0.2-0.2,0.5-0.2,0.8H748.8z"/>
	<path class="st0" d="M751,115.5v-1.3h1.1v1.3H751z M751,123v-6.3h1.1v6.3H751z"/>
	<path class="st0" d="M757,122.7c-0.1,0-0.1,0.1-0.3,0.1s-0.2,0.1-0.4,0.1c-0.1,0-0.3,0.1-0.4,0.1c-0.2,0-0.3,0-0.5,0
		c-0.4,0-0.7-0.1-1-0.3c-0.3-0.2-0.4-0.5-0.4-1v-4.2h-0.9v-0.8h0.9v-2.1h1.1v2.1h1.4v0.8h-1.4v3.9c0,0.2,0.1,0.4,0.2,0.5
		c0.1,0.1,0.3,0.2,0.5,0.2c0.2,0,0.4,0,0.6-0.1c0.2-0.1,0.3-0.1,0.4-0.2L757,122.7z"/>
	<path class="st0" d="M598.7,138l-2.5-6.3h1.1l2,5.3l2-5.3h1l-2.5,6.3H598.7z"/>
	<path class="st0" d="M604.8,138.1c-0.3,0-0.6,0-0.8-0.2c-0.3-0.1-0.5-0.2-0.7-0.4c-0.2-0.2-0.3-0.4-0.4-0.6
		c-0.1-0.2-0.2-0.5-0.2-0.8c0-0.3,0.1-0.5,0.2-0.8c0.1-0.2,0.3-0.4,0.5-0.6c0.2-0.2,0.5-0.3,0.8-0.4s0.7-0.1,1.1-0.1
		c0.3,0,0.6,0,0.9,0.1c0.3,0.1,0.6,0.1,0.8,0.2V134c0-0.5-0.1-0.9-0.4-1.2c-0.3-0.3-0.7-0.4-1.2-0.4c-0.6,0-1.3,0.2-2,0.7l-0.3-0.7
		c0.8-0.5,1.6-0.8,2.4-0.8c0.8,0,1.5,0.2,1.9,0.7c0.5,0.4,0.7,1.1,0.7,1.9v2.6c0,0.2,0.1,0.4,0.3,0.4v0.9c-0.1,0-0.2,0-0.3,0
		c-0.1,0-0.1,0-0.2,0c-0.2,0-0.4-0.1-0.5-0.2s-0.2-0.3-0.2-0.5l0-0.4c-0.3,0.4-0.6,0.7-1.1,0.9C605.8,138,605.3,138.1,604.8,138.1z
		 M605.1,137.3c0.4,0,0.7-0.1,1.1-0.2c0.3-0.1,0.6-0.3,0.7-0.6c0.2-0.2,0.2-0.3,0.2-0.5v-0.9c-0.5-0.2-1-0.3-1.6-0.3
		c-0.5,0-1,0.1-1.3,0.3c-0.3,0.2-0.5,0.5-0.5,0.9c0,0.2,0,0.3,0.1,0.5c0.1,0.2,0.2,0.3,0.3,0.4c0.1,0.1,0.3,0.2,0.4,0.3
		C604.7,137.3,604.9,137.3,605.1,137.3z"/>
	<path class="st0" d="M615.3,138h-1.1v-3.5c0-0.7-0.1-1.2-0.3-1.5c-0.2-0.3-0.5-0.5-0.9-0.5c-0.2,0-0.4,0-0.6,0.1
		c-0.2,0.1-0.4,0.2-0.6,0.3c-0.2,0.1-0.4,0.3-0.5,0.5c-0.1,0.2-0.3,0.4-0.3,0.7v3.8h-1.1v-6.3h1v1.3c0.2-0.4,0.6-0.8,1.1-1.1
		c0.5-0.3,1-0.4,1.5-0.4c0.4,0,0.7,0.1,0.9,0.2s0.4,0.3,0.6,0.6c0.1,0.2,0.2,0.5,0.3,0.8c0.1,0.3,0.1,0.7,0.1,1V138z"/>
	<path class="st0" d="M622.5,138.1c-0.4,0-0.8-0.1-1.2-0.3c-0.4-0.2-0.7-0.4-0.9-0.7s-0.5-0.6-0.6-1s-0.2-0.8-0.2-1.2
		c0-0.4,0.1-0.9,0.2-1.3c0.1-0.4,0.3-0.7,0.6-1s0.6-0.5,0.9-0.7c0.3-0.2,0.7-0.3,1.1-0.3c0.5,0,1,0.1,1.3,0.4c0.4,0.3,0.7,0.6,0.9,1
		v-3.7h1.1v7.5c0,0.2,0.1,0.4,0.3,0.4v0.9c-0.1,0-0.2,0-0.3,0s-0.1,0-0.2,0c-0.2,0-0.4-0.1-0.5-0.2c-0.2-0.1-0.2-0.3-0.2-0.5v-0.5
		c-0.2,0.4-0.6,0.7-1,1C623.4,138,623,138.1,622.5,138.1z M622.8,137.2c0.2,0,0.4,0,0.6-0.1c0.2-0.1,0.4-0.2,0.6-0.3
		c0.2-0.1,0.3-0.3,0.5-0.5c0.1-0.2,0.2-0.4,0.3-0.5V134c-0.1-0.2-0.2-0.4-0.3-0.6c-0.1-0.2-0.3-0.3-0.5-0.5
		c-0.2-0.1-0.4-0.2-0.6-0.3c-0.2-0.1-0.4-0.1-0.6-0.1c-0.3,0-0.6,0.1-0.8,0.2s-0.5,0.3-0.6,0.5c-0.2,0.2-0.3,0.5-0.4,0.8
		c-0.1,0.3-0.1,0.6-0.1,0.9c0,0.3,0.1,0.6,0.2,0.9c0.1,0.3,0.3,0.5,0.5,0.7s0.4,0.4,0.7,0.5S622.5,137.2,622.8,137.2z"/>
	<path class="st0" d="M630.3,138.1c-0.5,0-0.9-0.1-1.3-0.3c-0.4-0.2-0.7-0.4-1-0.7c-0.3-0.3-0.5-0.6-0.7-1c-0.2-0.4-0.2-0.8-0.2-1.3
		c0-0.4,0.1-0.9,0.2-1.2s0.4-0.7,0.7-1c0.3-0.3,0.6-0.5,1-0.7c0.4-0.2,0.8-0.3,1.3-0.3c0.5,0,0.9,0.1,1.3,0.3c0.4,0.2,0.7,0.4,1,0.7
		s0.5,0.6,0.6,1c0.1,0.4,0.2,0.8,0.2,1.2c0,0.1,0,0.2,0,0.2c0,0.1,0,0.1,0,0.2h-5.2c0,0.3,0.1,0.6,0.2,0.9c0.1,0.3,0.3,0.5,0.5,0.7
		c0.2,0.2,0.4,0.3,0.7,0.4c0.2,0.1,0.5,0.2,0.8,0.2c0.2,0,0.4,0,0.6-0.1c0.2-0.1,0.4-0.1,0.5-0.2s0.3-0.2,0.4-0.3s0.2-0.3,0.3-0.4
		l0.9,0.3c-0.1,0.2-0.2,0.4-0.4,0.6c-0.2,0.2-0.4,0.4-0.6,0.5c-0.2,0.1-0.5,0.3-0.8,0.3C630.9,138.1,630.6,138.1,630.3,138.1z
		 M632.4,134.4c0-0.3-0.1-0.6-0.2-0.8s-0.3-0.5-0.5-0.6s-0.4-0.3-0.7-0.4c-0.2-0.1-0.5-0.2-0.8-0.2c-0.3,0-0.5,0-0.8,0.2
		c-0.2,0.1-0.5,0.2-0.7,0.4c-0.2,0.2-0.3,0.4-0.5,0.6c-0.1,0.2-0.2,0.5-0.2,0.8H632.4z"/>
	<path class="st0" d="M637.2,134.8c0-0.4,0.1-0.9,0.2-1.2c0.2-0.4,0.4-0.7,0.6-1c0.3-0.3,0.6-0.5,1-0.7c0.4-0.2,0.8-0.3,1.3-0.3
		c0.6,0,1.2,0.1,1.6,0.4c0.5,0.3,0.8,0.6,1,1.1l-1,0.3c-0.2-0.3-0.4-0.5-0.7-0.7s-0.6-0.2-1-0.2c-0.3,0-0.6,0.1-0.8,0.2
		s-0.5,0.3-0.7,0.5c-0.2,0.2-0.3,0.5-0.4,0.7c-0.1,0.3-0.2,0.6-0.2,0.9c0,0.3,0.1,0.6,0.2,0.9c0.1,0.3,0.3,0.5,0.4,0.8
		s0.4,0.4,0.7,0.5s0.5,0.2,0.8,0.2c0.2,0,0.4,0,0.5-0.1c0.2-0.1,0.3-0.1,0.5-0.2s0.3-0.2,0.4-0.3c0.1-0.1,0.2-0.2,0.2-0.4l1,0.3
		c-0.1,0.2-0.2,0.4-0.4,0.6c-0.2,0.2-0.4,0.4-0.6,0.5c-0.2,0.1-0.5,0.2-0.8,0.3c-0.3,0.1-0.6,0.1-0.9,0.1c-0.5,0-0.9-0.1-1.3-0.3
		c-0.4-0.2-0.7-0.4-1-0.7c-0.3-0.3-0.5-0.6-0.7-1C637.3,135.7,637.2,135.3,637.2,134.8z"/>
	<path class="st0" d="M644.3,129.2h1.1v7.1c0,0.2,0.1,0.4,0.2,0.5c0.1,0.1,0.3,0.2,0.5,0.2c0.1,0,0.2,0,0.3,0c0.1,0,0.2-0.1,0.3-0.1
		l0.2,0.9c-0.2,0.1-0.4,0.1-0.6,0.2s-0.5,0.1-0.6,0.1c-0.4,0-0.7-0.1-1-0.3c-0.2-0.2-0.4-0.6-0.4-1V129.2z"/>
	<path class="st0" d="M649.7,138.1c-0.7,0-1.2-0.2-1.5-0.7c-0.3-0.4-0.5-1.1-0.5-2v-3.8h1.1v3.6c0,1.3,0.4,1.9,1.3,1.9
		c0.4,0,0.8-0.1,1.2-0.4c0.4-0.3,0.7-0.7,0.8-1.1v-3.9h1.1v5c0,0.2,0.1,0.4,0.3,0.4v0.9c-0.1,0-0.2,0-0.3,0c-0.1,0-0.1,0-0.2,0
		c-0.2,0-0.4-0.1-0.5-0.2c-0.1-0.1-0.2-0.3-0.2-0.5l0-0.7c-0.3,0.5-0.6,0.8-1.1,1.1S650.2,138.1,649.7,138.1z"/>
	<path class="st0" d="M658.2,138.1c-0.5,0-0.9-0.1-1.3-0.4c-0.4-0.2-0.7-0.6-0.9-0.9v1.2h-0.9v-8.8h1.1v3.7c0.3-0.4,0.6-0.7,1-1
		s0.8-0.4,1.3-0.4c0.4,0,0.8,0.1,1.2,0.3c0.3,0.2,0.6,0.4,0.9,0.7s0.4,0.6,0.6,1c0.1,0.4,0.2,0.8,0.2,1.2c0,0.4-0.1,0.9-0.2,1.2
		c-0.2,0.4-0.4,0.7-0.6,1s-0.6,0.5-0.9,0.7C659,138,658.6,138.1,658.2,138.1z M657.9,137.2c0.3,0,0.6-0.1,0.9-0.2
		c0.3-0.1,0.5-0.3,0.7-0.5c0.2-0.2,0.3-0.5,0.4-0.7c0.1-0.3,0.2-0.6,0.2-0.9c0-0.3,0-0.6-0.2-0.9c-0.1-0.3-0.2-0.5-0.4-0.8
		c-0.2-0.2-0.4-0.4-0.6-0.5s-0.5-0.2-0.8-0.2c-0.2,0-0.4,0-0.6,0.1c-0.2,0.1-0.4,0.2-0.6,0.3c-0.2,0.1-0.3,0.3-0.5,0.5
		c-0.1,0.2-0.2,0.4-0.3,0.6v1.8c0,0.2,0.1,0.4,0.3,0.6s0.3,0.3,0.5,0.4c0.2,0.1,0.4,0.2,0.6,0.3
		C657.5,137.1,657.7,137.2,657.9,137.2z"/>
	<path class="st0" d="M666.9,138l-2.5-6.3h1.1l2,5.3l2-5.3h1l-2.5,6.3H666.9z"/>
	<path class="st0" d="M674.1,138.1c-0.5,0-0.9-0.1-1.3-0.3c-0.4-0.2-0.7-0.4-1-0.7c-0.3-0.3-0.5-0.6-0.7-1c-0.2-0.4-0.2-0.8-0.2-1.3
		c0-0.4,0.1-0.9,0.2-1.2s0.4-0.7,0.7-1c0.3-0.3,0.6-0.5,1-0.7c0.4-0.2,0.8-0.3,1.3-0.3c0.5,0,0.9,0.1,1.3,0.3c0.4,0.2,0.7,0.4,1,0.7
		s0.5,0.6,0.6,1c0.1,0.4,0.2,0.8,0.2,1.2c0,0.1,0,0.2,0,0.2c0,0.1,0,0.1,0,0.2h-5.2c0,0.3,0.1,0.6,0.2,0.9c0.1,0.3,0.3,0.5,0.5,0.7
		c0.2,0.2,0.4,0.3,0.7,0.4c0.2,0.1,0.5,0.2,0.8,0.2c0.2,0,0.4,0,0.6-0.1c0.2-0.1,0.4-0.1,0.5-0.2s0.3-0.2,0.4-0.3s0.2-0.3,0.3-0.4
		l0.9,0.3c-0.1,0.2-0.2,0.4-0.4,0.6c-0.2,0.2-0.4,0.4-0.6,0.5c-0.2,0.1-0.5,0.3-0.8,0.3C674.7,138.1,674.4,138.1,674.1,138.1z
		 M676.3,134.4c0-0.3-0.1-0.6-0.2-0.8s-0.3-0.5-0.5-0.6s-0.4-0.3-0.7-0.4c-0.2-0.1-0.5-0.2-0.8-0.2c-0.3,0-0.5,0-0.8,0.2
		c-0.2,0.1-0.5,0.2-0.7,0.4c-0.2,0.2-0.3,0.4-0.5,0.6c-0.1,0.2-0.2,0.5-0.2,0.8H676.3z"/>
	<path class="st0" d="M681.8,132.6c-0.5,0-1,0.2-1.4,0.4s-0.7,0.6-0.9,1.1v3.9h-1.1v-6.3h1v1.5c0.2-0.4,0.5-0.8,0.9-1.1
		c0.4-0.3,0.7-0.4,1.1-0.4c0.1,0,0.1,0,0.2,0c0.1,0,0.1,0,0.1,0V132.6z"/>
	<path class="st0" d="M686,137.7c-0.1,0-0.1,0.1-0.3,0.1c-0.1,0-0.2,0.1-0.4,0.1c-0.1,0-0.3,0.1-0.4,0.1s-0.3,0-0.5,0
		c-0.4,0-0.7-0.1-1-0.3c-0.3-0.2-0.4-0.5-0.4-1v-4.2h-0.9v-0.8h0.9v-2.1h1.1v2.1h1.4v0.8h-1.4v3.9c0,0.2,0.1,0.4,0.2,0.5
		c0.1,0.1,0.3,0.2,0.5,0.2c0.2,0,0.4,0,0.6-0.1c0.2-0.1,0.3-0.1,0.4-0.2L686,137.7z"/>
	<path class="st0" d="M689.7,138.1c-0.5,0-0.9-0.1-1.3-0.3c-0.4-0.2-0.7-0.4-1-0.7c-0.3-0.3-0.5-0.6-0.7-1c-0.2-0.4-0.2-0.8-0.2-1.3
		c0-0.4,0.1-0.9,0.2-1.2s0.4-0.7,0.7-1c0.3-0.3,0.6-0.5,1-0.7c0.4-0.2,0.8-0.3,1.3-0.3c0.5,0,0.9,0.1,1.3,0.3c0.4,0.2,0.7,0.4,1,0.7
		c0.3,0.3,0.5,0.6,0.6,1c0.1,0.4,0.2,0.8,0.2,1.2c0,0.1,0,0.2,0,0.2c0,0.1,0,0.1,0,0.2h-5.2c0,0.3,0.1,0.6,0.2,0.9s0.3,0.5,0.5,0.7
		c0.2,0.2,0.4,0.3,0.7,0.4c0.2,0.1,0.5,0.2,0.8,0.2c0.2,0,0.4,0,0.6-0.1s0.4-0.1,0.5-0.2s0.3-0.2,0.4-0.3c0.1-0.1,0.2-0.3,0.3-0.4
		l0.9,0.3c-0.1,0.2-0.2,0.4-0.4,0.6c-0.2,0.2-0.4,0.4-0.6,0.5c-0.2,0.1-0.5,0.3-0.8,0.3S690,138.1,689.7,138.1z M691.9,134.4
		c0-0.3-0.1-0.6-0.2-0.8c-0.1-0.3-0.3-0.5-0.5-0.6c-0.2-0.2-0.4-0.3-0.7-0.4c-0.2-0.1-0.5-0.2-0.8-0.2c-0.3,0-0.5,0-0.8,0.2
		c-0.2,0.1-0.5,0.2-0.7,0.4c-0.2,0.2-0.3,0.4-0.5,0.6c-0.1,0.2-0.2,0.5-0.2,0.8H691.9z"/>
	<path class="st0" d="M696.5,138c-0.4,0-0.8-0.1-1.2-0.3c-0.4-0.2-0.7-0.4-0.9-0.7c-0.3-0.3-0.5-0.6-0.6-1c-0.1-0.4-0.2-0.8-0.2-1.2
		c0-0.4,0.1-0.9,0.2-1.3c0.1-0.4,0.3-0.7,0.6-1c0.3-0.3,0.6-0.5,0.9-0.7c0.4-0.2,0.8-0.3,1.2-0.3c0.5,0,1,0.1,1.4,0.4
		c0.4,0.3,0.7,0.6,1,1v-1.2h0.9v6.2c0,0.4-0.1,0.8-0.3,1.2c-0.2,0.3-0.4,0.6-0.7,0.9c-0.3,0.2-0.6,0.4-1,0.5s-0.8,0.2-1.2,0.2
		c-0.7,0-1.3-0.1-1.7-0.4c-0.4-0.2-0.8-0.6-1.1-1l0.6-0.5c0.2,0.4,0.6,0.6,1,0.8c0.4,0.2,0.8,0.3,1.3,0.3c0.3,0,0.6,0,0.8-0.1
		c0.3-0.1,0.5-0.2,0.7-0.4s0.3-0.4,0.5-0.6c0.1-0.2,0.2-0.5,0.2-0.9v-1.1c-0.1,0.2-0.3,0.4-0.4,0.5c-0.2,0.2-0.3,0.3-0.5,0.4
		c-0.2,0.1-0.4,0.2-0.6,0.2C697,138,696.8,138,696.5,138z M696.9,137.2c0.2,0,0.4,0,0.6-0.1s0.4-0.2,0.6-0.3
		c0.2-0.1,0.3-0.3,0.4-0.4c0.1-0.2,0.2-0.3,0.2-0.5V134c-0.1-0.2-0.2-0.4-0.3-0.6c-0.1-0.2-0.3-0.3-0.5-0.5
		c-0.2-0.1-0.4-0.2-0.6-0.3c-0.2-0.1-0.4-0.1-0.6-0.1c-0.3,0-0.6,0.1-0.9,0.2s-0.5,0.3-0.6,0.5s-0.3,0.5-0.4,0.8
		c-0.1,0.3-0.1,0.6-0.1,0.9c0,0.3,0.1,0.6,0.2,0.9s0.3,0.5,0.5,0.7s0.4,0.4,0.7,0.5S696.6,137.2,696.9,137.2z"/>
	<path class="st0" d="M704.3,138.1c-0.5,0-0.9-0.1-1.3-0.3c-0.4-0.2-0.7-0.4-1-0.7c-0.3-0.3-0.5-0.6-0.7-1c-0.2-0.4-0.2-0.8-0.2-1.3
		c0-0.4,0.1-0.9,0.2-1.2s0.4-0.7,0.7-1c0.3-0.3,0.6-0.5,1-0.7c0.4-0.2,0.8-0.3,1.3-0.3c0.5,0,0.9,0.1,1.3,0.3c0.4,0.2,0.7,0.4,1,0.7
		s0.5,0.6,0.6,1c0.1,0.4,0.2,0.8,0.2,1.2c0,0.1,0,0.2,0,0.2c0,0.1,0,0.1,0,0.2h-5.2c0,0.3,0.1,0.6,0.2,0.9c0.1,0.3,0.3,0.5,0.5,0.7
		c0.2,0.2,0.4,0.3,0.7,0.4c0.2,0.1,0.5,0.2,0.8,0.2c0.2,0,0.4,0,0.6-0.1c0.2-0.1,0.4-0.1,0.5-0.2s0.3-0.2,0.4-0.3s0.2-0.3,0.3-0.4
		l0.9,0.3c-0.1,0.2-0.2,0.4-0.4,0.6c-0.2,0.2-0.4,0.4-0.6,0.5c-0.2,0.1-0.5,0.3-0.8,0.3C704.9,138.1,704.6,138.1,704.3,138.1z
		 M706.4,134.4c0-0.3-0.1-0.6-0.2-0.8s-0.3-0.5-0.5-0.6s-0.4-0.3-0.7-0.4c-0.2-0.1-0.5-0.2-0.8-0.2c-0.3,0-0.5,0-0.8,0.2
		c-0.2,0.1-0.5,0.2-0.7,0.4c-0.2,0.2-0.3,0.4-0.5,0.6c-0.1,0.2-0.2,0.5-0.2,0.8H706.4z"/>
	<path class="st0" d="M714.1,138H713v-3.5c0-0.7-0.1-1.2-0.3-1.5c-0.2-0.3-0.5-0.5-0.9-0.5c-0.2,0-0.4,0-0.6,0.1
		c-0.2,0.1-0.4,0.2-0.6,0.3c-0.2,0.1-0.4,0.3-0.5,0.5c-0.1,0.2-0.3,0.4-0.3,0.7v3.8h-1.1v-6.3h1v1.3c0.2-0.4,0.6-0.8,1.1-1.1
		c0.5-0.3,1-0.4,1.5-0.4c0.4,0,0.7,0.1,0.9,0.2s0.4,0.3,0.6,0.6c0.1,0.2,0.2,0.5,0.3,0.8c0.1,0.3,0.1,0.7,0.1,1V138z"/>
	<path class="st0" d="M723.4,131.7h1l-2.7,6.3h-0.9l-1.3-3.1l-1.2,3.1h-0.9l-2.7-6.3h1l2.2,5.2l1.1-2.6l-1.1-2.6h0.9l0.8,2l0.8-2
		h0.9l-1.1,2.6l1.1,2.6L723.4,131.7z"/>
	<path class="st0" d="M728,138.1c-0.5,0-0.9-0.1-1.3-0.3c-0.4-0.2-0.7-0.4-1-0.7c-0.3-0.3-0.5-0.6-0.6-1s-0.2-0.8-0.2-1.2
		c0-0.4,0.1-0.9,0.2-1.2c0.2-0.4,0.4-0.7,0.6-1c0.3-0.3,0.6-0.5,1-0.7c0.4-0.2,0.8-0.3,1.3-0.3c0.5,0,0.9,0.1,1.3,0.3
		c0.4,0.2,0.7,0.4,1,0.7c0.3,0.3,0.5,0.6,0.6,1c0.2,0.4,0.2,0.8,0.2,1.2c0,0.4-0.1,0.8-0.2,1.2s-0.4,0.7-0.6,1
		c-0.3,0.3-0.6,0.5-1,0.7C728.9,138,728.4,138.1,728,138.1z M725.9,134.9c0,0.3,0.1,0.6,0.2,0.9c0.1,0.3,0.3,0.5,0.4,0.7
		c0.2,0.2,0.4,0.4,0.7,0.5s0.5,0.2,0.8,0.2c0.3,0,0.6-0.1,0.8-0.2s0.5-0.3,0.7-0.5s0.3-0.5,0.5-0.7s0.2-0.6,0.2-0.9
		c0-0.3-0.1-0.6-0.2-0.9s-0.3-0.5-0.5-0.7s-0.4-0.4-0.7-0.5s-0.5-0.2-0.8-0.2c-0.3,0-0.6,0.1-0.8,0.2c-0.3,0.1-0.5,0.3-0.7,0.5
		c-0.2,0.2-0.3,0.5-0.4,0.7C725.9,134.2,725.9,134.5,725.9,134.9z"/>
	<path class="st0" d="M735.1,138.1c-0.5,0-0.9-0.1-1.3-0.3c-0.4-0.2-0.7-0.4-1-0.7c-0.3-0.3-0.5-0.6-0.6-1c-0.2-0.4-0.2-0.8-0.2-1.2
		c0-0.4,0.1-0.9,0.2-1.2c0.2-0.4,0.4-0.7,0.6-1c0.3-0.3,0.6-0.5,1-0.7c0.4-0.2,0.8-0.3,1.3-0.3s0.9,0.1,1.3,0.3
		c0.4,0.2,0.7,0.4,1,0.7c0.3,0.3,0.5,0.6,0.6,1c0.2,0.4,0.2,0.8,0.2,1.2c0,0.4-0.1,0.8-0.2,1.2c-0.2,0.4-0.4,0.7-0.6,1
		c-0.3,0.3-0.6,0.5-1,0.7C736,138,735.6,138.1,735.1,138.1z M733.1,134.9c0,0.3,0.1,0.6,0.2,0.9c0.1,0.3,0.3,0.5,0.4,0.7
		s0.4,0.4,0.7,0.5s0.5,0.2,0.8,0.2s0.6-0.1,0.8-0.2s0.5-0.3,0.7-0.5c0.2-0.2,0.3-0.5,0.5-0.7c0.1-0.3,0.2-0.6,0.2-0.9
		c0-0.3-0.1-0.6-0.2-0.9c-0.1-0.3-0.3-0.5-0.5-0.7c-0.2-0.2-0.4-0.4-0.7-0.5s-0.5-0.2-0.8-0.2s-0.6,0.1-0.8,0.2
		c-0.3,0.1-0.5,0.3-0.7,0.5s-0.3,0.5-0.4,0.7C733.1,134.2,733.1,134.5,733.1,134.9z"/>
	<path class="st0" d="M742.9,132.6c-0.5,0-1,0.2-1.4,0.4s-0.7,0.6-0.9,1.1v3.9h-1.1v-6.3h1v1.5c0.2-0.4,0.5-0.8,0.9-1.1
		c0.4-0.3,0.7-0.4,1.1-0.4c0.1,0,0.1,0,0.2,0c0.1,0,0.1,0,0.1,0V132.6z"/>
	<path class="st0" d="M746.4,138.1c-0.4,0-0.8-0.1-1.2-0.3c-0.4-0.2-0.7-0.4-0.9-0.7s-0.5-0.6-0.6-1c-0.1-0.4-0.2-0.8-0.2-1.2
		c0-0.4,0.1-0.9,0.2-1.3c0.1-0.4,0.3-0.7,0.6-1s0.6-0.5,0.9-0.7c0.3-0.2,0.7-0.3,1.1-0.3c0.5,0,1,0.1,1.4,0.4c0.4,0.3,0.7,0.6,0.9,1
		v-3.7h1.1v7.5c0,0.2,0.1,0.4,0.3,0.4v0.9c-0.1,0-0.2,0-0.3,0s-0.1,0-0.2,0c-0.2,0-0.4-0.1-0.5-0.2c-0.2-0.1-0.2-0.3-0.2-0.5v-0.5
		c-0.2,0.4-0.6,0.7-1,1C747.3,138,746.9,138.1,746.4,138.1z M746.7,137.2c0.2,0,0.4,0,0.6-0.1c0.2-0.1,0.4-0.2,0.6-0.3
		s0.3-0.3,0.5-0.5c0.1-0.2,0.2-0.4,0.3-0.5V134c-0.1-0.2-0.2-0.4-0.3-0.6c-0.1-0.2-0.3-0.3-0.5-0.5s-0.4-0.2-0.6-0.3
		c-0.2-0.1-0.4-0.1-0.6-0.1c-0.3,0-0.6,0.1-0.8,0.2s-0.5,0.3-0.6,0.5c-0.2,0.2-0.3,0.5-0.4,0.8c-0.1,0.3-0.1,0.6-0.1,0.9
		c0,0.3,0.1,0.6,0.2,0.9c0.1,0.3,0.3,0.5,0.5,0.7c0.2,0.2,0.4,0.4,0.7,0.5S746.4,137.2,746.7,137.2z"/>
	<path class="st0" d="M751.4,130.5v-1.3h1.1v1.3H751.4z M751.4,138v-6.3h1.1v6.3H751.4z"/>
	<path class="st0" d="M756.6,138c-0.4,0-0.8-0.1-1.2-0.3c-0.4-0.2-0.7-0.4-0.9-0.7c-0.3-0.3-0.5-0.6-0.6-1c-0.1-0.4-0.2-0.8-0.2-1.2
		c0-0.4,0.1-0.9,0.2-1.3c0.1-0.4,0.3-0.7,0.6-1c0.3-0.3,0.6-0.5,0.9-0.7c0.4-0.2,0.8-0.3,1.2-0.3c0.5,0,1,0.1,1.4,0.4
		c0.4,0.3,0.7,0.6,1,1v-1.2h0.9v6.2c0,0.4-0.1,0.8-0.3,1.2c-0.2,0.3-0.4,0.6-0.7,0.9c-0.3,0.2-0.6,0.4-1,0.5s-0.8,0.2-1.2,0.2
		c-0.7,0-1.3-0.1-1.7-0.4c-0.4-0.2-0.8-0.6-1.1-1l0.6-0.5c0.2,0.4,0.6,0.6,1,0.8c0.4,0.2,0.8,0.3,1.3,0.3c0.3,0,0.6,0,0.8-0.1
		c0.3-0.1,0.5-0.2,0.7-0.4s0.3-0.4,0.5-0.6c0.1-0.2,0.2-0.5,0.2-0.9v-1.1c-0.1,0.2-0.3,0.4-0.4,0.5c-0.2,0.2-0.3,0.3-0.5,0.4
		c-0.2,0.1-0.4,0.2-0.6,0.2C757.1,138,756.9,138,756.6,138z M757,137.2c0.2,0,0.4,0,0.6-0.1s0.4-0.2,0.6-0.3
		c0.2-0.1,0.3-0.3,0.4-0.4c0.1-0.2,0.2-0.3,0.2-0.5V134c-0.1-0.2-0.2-0.4-0.3-0.6c-0.1-0.2-0.3-0.3-0.5-0.5
		c-0.2-0.1-0.4-0.2-0.6-0.3c-0.2-0.1-0.4-0.1-0.6-0.1c-0.3,0-0.6,0.1-0.9,0.2s-0.5,0.3-0.6,0.5s-0.3,0.5-0.4,0.8
		c-0.1,0.3-0.1,0.6-0.1,0.9c0,0.3,0.1,0.6,0.2,0.9s0.3,0.5,0.5,0.7s0.4,0.4,0.7,0.5S756.7,137.2,757,137.2z"/>
	<path class="st0" d="M764.2,138.1c-0.4,0-0.8-0.1-1.2-0.3c-0.4-0.2-0.7-0.4-0.9-0.7c-0.3-0.3-0.5-0.6-0.6-1s-0.2-0.8-0.2-1.2
		c0-0.4,0.1-0.9,0.2-1.3c0.1-0.4,0.3-0.7,0.6-1s0.6-0.5,0.9-0.7c0.3-0.2,0.7-0.3,1.1-0.3c0.5,0,1,0.1,1.4,0.4c0.4,0.3,0.7,0.6,0.9,1
		v-3.7h1.1v7.5c0,0.2,0.1,0.4,0.3,0.4v0.9c-0.1,0-0.2,0-0.3,0c-0.1,0-0.1,0-0.2,0c-0.2,0-0.4-0.1-0.5-0.2c-0.2-0.1-0.2-0.3-0.2-0.5
		v-0.5c-0.2,0.4-0.6,0.7-1,1C765.1,138,764.7,138.1,764.2,138.1z M764.5,137.2c0.2,0,0.4,0,0.6-0.1c0.2-0.1,0.4-0.2,0.6-0.3
		c0.2-0.1,0.3-0.3,0.5-0.5c0.1-0.2,0.2-0.4,0.3-0.5V134c-0.1-0.2-0.2-0.4-0.3-0.6c-0.1-0.2-0.3-0.3-0.5-0.5
		c-0.2-0.1-0.4-0.2-0.6-0.3c-0.2-0.1-0.4-0.1-0.6-0.1c-0.3,0-0.6,0.1-0.8,0.2s-0.5,0.3-0.6,0.5c-0.2,0.2-0.3,0.5-0.4,0.8
		c-0.1,0.3-0.1,0.6-0.1,0.9c0,0.3,0.1,0.6,0.2,0.9s0.3,0.5,0.5,0.7c0.2,0.2,0.4,0.4,0.7,0.5S764.2,137.2,764.5,137.2z"/>
</g>
<g>
	<path class="st1" d="M76,28.9v9h-8.9V9.6h12.4c3.5,0,6.1,0.9,8,2.6c1.9,1.8,2.8,4.1,2.8,7.1c0,1.8-0.4,3.4-1.2,4.9
		c-0.8,1.5-2,2.6-3.7,3.5c-1.6,0.9-3.6,1.3-5.9,1.3H76z M81.3,19.3c0-1.7-0.9-2.6-2.8-2.6H76v5.2h2.5C80.4,21.9,81.3,21.1,81.3,19.3
		z"/>
	<path class="st1" d="M114.2,11c2.2,1.2,4,3,5.3,5.2c1.3,2.2,1.9,4.7,1.9,7.5c0,2.8-0.6,5.3-1.9,7.5c-1.3,2.2-3.1,3.9-5.3,5.2
		c-2.2,1.3-4.7,1.9-7.3,1.9c-2.7,0-5.1-0.6-7.3-1.9c-2.2-1.3-4-3-5.3-5.2c-1.3-2.2-2-4.7-2-7.5c0-2.8,0.7-5.3,2-7.5
		c1.3-2.2,3.1-3.9,5.3-5.2c2.2-1.2,4.7-1.9,7.3-1.9S112,9.8,114.2,11z M102.8,19c-1,1.1-1.4,2.7-1.4,4.6c0,1.9,0.5,3.4,1.4,4.6
		c1,1.1,2.3,1.7,4.1,1.7c1.8,0,3.1-0.6,4.1-1.7c1-1.1,1.4-2.7,1.4-4.6c0-1.9-0.5-3.5-1.4-4.6c-1-1.1-2.3-1.7-4.1-1.7
		C105.1,17.3,103.8,17.9,102.8,19z"/>
	<path class="st1" d="M133.5,28.9v9h-8.9V9.6H137c3.5,0,6.1,0.9,8,2.6c1.9,1.8,2.8,4.1,2.8,7.1c0,1.8-0.4,3.4-1.2,4.9
		c-0.8,1.5-2,2.6-3.7,3.5c-1.6,0.9-3.6,1.3-5.9,1.3H133.5z M138.8,19.3c0-1.7-0.9-2.6-2.8-2.6h-2.5v5.2h2.5
		C137.9,21.9,138.8,21.1,138.8,19.3z"/>
	<path class="st1" d="M159.5,28.9v9h-8.9V9.6H163c3.5,0,6.1,0.9,8,2.6c1.9,1.8,2.8,4.1,2.8,7.1c0,1.8-0.4,3.4-1.2,4.9
		c-0.8,1.5-2,2.6-3.7,3.5c-1.6,0.9-3.6,1.3-5.9,1.3H159.5z M164.8,19.3c0-1.7-0.9-2.6-2.8-2.6h-2.5v5.2h2.5
		C163.8,21.9,164.8,21.1,164.8,19.3z"/>
	<path class="st1" d="M185.4,9.6v28.3h-8.9V9.6H185.4z"/>
	<path class="st1" d="M216.6,37.9h-8.9l-9.4-14.2v14.2h-8.9V9.6h8.9l9.4,14.5V9.6h8.9V37.9z"/>
	<path class="st1" d="M241.2,34c-0.8,1.3-2.1,2.3-3.7,3.1c-1.6,0.8-3.5,1.1-5.7,1.1c-3.4,0-6.2-0.8-8.4-2.4c-2.2-1.6-3.4-3.9-3.6-7
		h9.4c0.1,1.6,0.9,2.4,2.2,2.4c0.5,0,0.8-0.1,1.1-0.4s0.4-0.6,0.4-1c0-0.7-0.3-1.2-1-1.6c-0.7-0.4-1.8-0.8-3.3-1.3
		c-1.8-0.6-3.3-1.2-4.5-1.8c-1.2-0.6-2.2-1.5-3.1-2.7c-0.9-1.2-1.3-2.8-1.3-4.7c0-1.8,0.5-3.4,1.4-4.7c0.9-1.3,2.2-2.3,3.9-2.9
		c1.6-0.7,3.5-1,5.5-1c3.4,0,6.1,0.8,8.1,2.4c2,1.6,3.1,3.8,3.3,6.8h-9.6c-0.1-1.5-0.7-2.2-1.8-2.2c-0.4,0-0.7,0.1-0.9,0.3
		c-0.2,0.2-0.4,0.6-0.4,1c0,0.6,0.3,1.1,1,1.5c0.7,0.4,1.7,0.8,3.2,1.3c1.8,0.6,3.3,1.3,4.5,1.9c1.2,0.6,2.2,1.5,3.1,2.8
		c0.9,1.2,1.3,2.8,1.3,4.7C242.5,31.2,242.1,32.7,241.2,34z"/>
	<path class="st1" d="M275.3,25.9c0.9,1.2,1.4,2.7,1.4,4.3c0,2.5-0.8,4.4-2.5,5.7s-4,2-7.1,2h-14.8V9.6h14.4c2.9,0,5.1,0.6,6.8,1.9
		c1.7,1.3,2.5,3.1,2.5,5.5c0,1.7-0.4,3-1.3,4.2c-0.9,1.1-2,1.9-3.5,2.3C273.1,23.8,274.4,24.6,275.3,25.9z M261.3,20.7h3.4
		c0.8,0,1.4-0.2,1.8-0.5c0.4-0.3,0.6-0.8,0.6-1.5c0-0.7-0.2-1.2-0.6-1.5c-0.4-0.3-1-0.5-1.8-0.5h-3.4V20.7z M267.1,30.4
		c0.4-0.3,0.6-0.8,0.6-1.5c0-1.4-0.8-2-2.4-2h-4v4h4C266.1,30.8,266.7,30.7,267.1,30.4z"/>
	<path class="st1" d="M288.6,8.3v29.6h-8.9V8.3H288.6z"/>
	<path class="st1" d="M304.6,16c1.1,0.6,1.9,1.4,2.4,2.5v-3.1h8.8v22.6H307v-3.1c-0.6,1-1.4,1.9-2.4,2.5c-1.1,0.6-2.3,0.9-3.8,0.9
		c-1.8,0-3.3-0.5-4.8-1.4c-1.4-0.9-2.5-2.3-3.3-4c-0.8-1.7-1.2-3.8-1.2-6.2c0-2.4,0.4-4.4,1.2-6.2c0.8-1.7,1.9-3.1,3.3-4
		c1.4-0.9,3-1.4,4.8-1.4C302.2,15.1,303.5,15.4,304.6,16z M301.4,23.9c-0.6,0.7-0.9,1.6-0.9,2.8s0.3,2.1,0.9,2.8
		c0.6,0.7,1.4,1,2.4,1s1.7-0.3,2.4-1c0.6-0.7,0.9-1.6,0.9-2.8s-0.3-2.1-0.9-2.8c-0.6-0.7-1.4-1-2.4-1S302,23.2,301.4,23.9z"/>
	<path class="st1" d="M337.6,17.6c2,1.7,3.3,3.9,3.8,6.9H332c-0.3-1.2-1-1.8-2-1.8c-0.7,0-1.3,0.3-1.7,1c-0.4,0.7-0.6,1.7-0.6,3
		c0,1.3,0.2,2.3,0.6,3c0.4,0.7,1,1,1.7,1c1,0,1.7-0.6,2-1.8h9.4c-0.5,2.9-1.8,5.2-3.8,6.9c-2,1.7-4.5,2.5-7.4,2.5
		c-2.2,0-4.2-0.5-6-1.4c-1.7-0.9-3.1-2.3-4.1-4c-1-1.7-1.5-3.8-1.5-6.1c0-2.3,0.5-4.4,1.5-6.1c1-1.7,2.3-3.1,4.1-4
		c1.7-0.9,3.7-1.4,6-1.4C333.1,15.1,335.6,15.9,337.6,17.6z"/>
	<path class="st1" d="M358.6,37.9l-5.6-9v9h-8.9V8.3h8.9v15.5l5.6-8.4H369l-8.4,11.4l8.6,11.2H358.6z"/>
	<path class="st1" d="M72.5,75v11h-4.6V57.7h9.6c3.3,0,5.7,0.8,7.3,2.3c1.6,1.5,2.5,3.7,2.5,6.4c0,2.7-0.8,4.8-2.5,6.3
		c-1.7,1.5-4.1,2.3-7.3,2.3H72.5z M82.7,66.4c0-1.6-0.4-2.8-1.3-3.7c-0.9-0.8-2.3-1.3-4.3-1.3h-4.6v9.8H77
		C80.8,71.3,82.7,69.6,82.7,66.4z"/>
	<path class="st1" d="M111.5,59.2c2.1,1.2,3.8,2.9,5,5.1c1.2,2.2,1.8,4.7,1.8,7.5s-0.6,5.3-1.8,7.5c-1.2,2.2-2.9,3.9-5,5.2
		s-4.5,1.9-7.1,1.9c-2.6,0-5-0.6-7.1-1.9c-2.1-1.2-3.8-3-5-5.2c-1.2-2.2-1.8-4.7-1.8-7.5s0.6-5.3,1.8-7.5c1.2-2.2,2.9-3.9,5-5.1
		c2.1-1.2,4.5-1.8,7.1-1.8C107,57.3,109.4,57.9,111.5,59.2z M99.6,62.8c-1.4,0.8-2.5,2-3.3,3.6c-0.8,1.5-1.2,3.3-1.2,5.4
		c0,2.1,0.4,3.9,1.2,5.4c0.8,1.5,1.9,2.7,3.3,3.6c1.4,0.8,3,1.2,4.8,1.2c1.8,0,3.4-0.4,4.8-1.2c1.4-0.8,2.5-2,3.3-3.6
		c0.8-1.5,1.2-3.3,1.2-5.4c0-2.1-0.4-3.9-1.2-5.4c-0.8-1.5-1.9-2.7-3.3-3.6c-1.4-0.8-3-1.2-4.8-1.2C102.6,61.6,101,62,99.6,62.8z"/>
	<path class="st1" d="M127.5,75v11h-4.6V57.7h9.6c3.3,0,5.7,0.8,7.3,2.3c1.6,1.5,2.5,3.7,2.5,6.4c0,2.7-0.8,4.8-2.5,6.3
		c-1.7,1.5-4.1,2.3-7.3,2.3H127.5z M137.7,66.4c0-1.6-0.4-2.8-1.3-3.7c-0.9-0.8-2.3-1.3-4.3-1.3h-4.6v9.8h4.6
		C135.8,71.3,137.7,69.6,137.7,66.4z"/>
	<path class="st1" d="M150.9,75v11h-4.6V57.7h9.6c3.3,0,5.7,0.8,7.3,2.3c1.6,1.5,2.5,3.7,2.5,6.4c0,2.7-0.8,4.8-2.5,6.3
		c-1.7,1.5-4.1,2.3-7.3,2.3H150.9z M161.1,66.4c0-1.6-0.4-2.8-1.3-3.7c-0.9-0.8-2.3-1.3-4.3-1.3h-4.6v9.8h4.6
		C159.2,71.3,161.1,69.6,161.1,66.4z"/>
	<path class="st1" d="M174.3,57.7v28.2h-4.6V57.7H174.3z"/>
	<path class="st1" d="M202.6,85.9h-4.6l-13.7-20.8v20.8h-4.6V57.7h4.6l13.7,20.9V57.7h4.6V85.9z"/>
	<path class="st1" d="M225.7,82.3c-0.7,1.2-1.7,2.1-3,2.9c-1.4,0.7-3,1.1-5,1.1c-1.9,0-3.6-0.3-5.2-1c-1.5-0.7-2.7-1.6-3.6-2.9
		c-0.9-1.2-1.4-2.6-1.6-4.2h4.9c0.1,1.2,0.7,2.3,1.6,3.2s2.2,1.3,3.7,1.3c1.4,0,2.5-0.4,3.2-1.1c0.8-0.7,1.1-1.7,1.1-2.9
		c0-1-0.3-1.8-0.8-2.5c-0.6-0.7-1.3-1.2-2.1-1.5c-0.8-0.4-2-0.8-3.4-1.3c-1.8-0.6-3.2-1.1-4.3-1.7c-1.1-0.6-2-1.4-2.8-2.4
		c-0.8-1.1-1.2-2.5-1.2-4.2c0-1.5,0.4-2.9,1.1-4c0.7-1.1,1.8-2,3.2-2.7c1.4-0.6,3-0.9,4.8-0.9c2.9,0,5.2,0.7,6.9,2.1
		s2.7,3.2,2.9,5.4h-4.9c-0.2-1.1-0.7-2-1.5-2.7c-0.8-0.8-1.9-1.1-3.3-1.1c-1.3,0-2.3,0.3-3.1,1c-0.8,0.7-1.2,1.6-1.2,2.8
		c0,1,0.3,1.8,0.8,2.4c0.5,0.6,1.2,1.1,2,1.5c0.8,0.4,1.9,0.8,3.3,1.3c1.8,0.6,3.2,1.1,4.4,1.7s2.1,1.4,2.9,2.5
		c0.8,1.1,1.2,2.5,1.2,4.3C226.7,79.8,226.4,81.1,225.7,82.3z"/>
	<path class="st1" d="M274.5,66c1.6,1.7,2.3,4,2.3,7.1v12.8h-4.6V73.6c0-1.9-0.5-3.4-1.4-4.5c-1-1.1-2.3-1.6-4-1.6
		c-1.8,0-3.2,0.6-4.3,1.7c-1.1,1.1-1.6,2.8-1.6,5v11.7h-4.6V73.6c0-1.9-0.5-3.4-1.4-4.5c-1-1.1-2.3-1.6-4-1.6
		c-1.8,0-3.2,0.6-4.3,1.7c-1.1,1.1-1.6,2.8-1.6,5v11.7h-4.6v-22h4.6v4.6c0.6-1.6,1.5-2.8,2.8-3.7c1.3-0.9,2.8-1.3,4.6-1.3
		c1.8,0,3.4,0.5,4.8,1.4c1.3,0.9,2.3,2.2,2.9,3.9c0.6-1.7,1.7-2.9,3.1-3.9c1.4-0.9,3-1.4,4.8-1.4C270.8,63.5,272.9,64.4,274.5,66z"
		/>
	<path class="st1" d="M302.4,75.8h-17c0.1,2.3,0.7,3.9,1.9,5c1.2,1.1,2.6,1.6,4.4,1.6c1.5,0,2.8-0.4,3.9-1.2
		c1.1-0.8,1.7-1.8,1.9-3.1h4.9c-0.3,1.5-0.9,2.9-1.8,4.1c-0.9,1.2-2.1,2.1-3.6,2.8c-1.5,0.7-3.2,1-5,1c-2.1,0-4-0.5-5.7-1.4
		c-1.6-0.9-2.9-2.2-3.9-3.9c-0.9-1.7-1.4-3.7-1.4-6c0-2.3,0.5-4.3,1.4-6c0.9-1.7,2.2-3,3.9-3.9c1.6-0.9,3.5-1.4,5.7-1.4
		c2.2,0,4,0.4,5.7,1.3c1.6,0.9,2.9,2.1,3.7,3.7c0.9,1.6,1.3,3.3,1.3,5.2C302.6,74.6,302.5,75.3,302.4,75.8z M297.3,70.1
		c-0.5-1-1.3-1.7-2.2-2.2c-0.9-0.5-2-0.7-3.1-0.7c-1.8,0-3.3,0.5-4.5,1.6c-1.2,1.1-1.9,2.7-2,4.8H298
		C298,72.3,297.8,71.1,297.3,70.1z"/>
	<path class="st1" d="M321,65.1c1.4,1,2.4,2.3,3,3.9V56.3h4.6v29.6h-4.6v-5.1c-0.6,1.6-1.5,2.9-3,3.9c-1.4,1-3.1,1.5-5.1,1.5
		c-1.9,0-3.6-0.5-5.1-1.4c-1.5-0.9-2.7-2.2-3.5-3.9c-0.9-1.7-1.3-3.7-1.3-6c0-2.3,0.4-4.3,1.3-6c0.9-1.7,2-3,3.5-3.9
		c1.5-0.9,3.2-1.4,5.1-1.4C317.8,63.6,319.5,64.1,321,65.1z M312.4,69.6c-1.2,1.3-1.8,3.1-1.8,5.3s0.6,4,1.8,5.3
		c1.2,1.3,2.8,1.9,4.9,1.9c1.3,0,2.4-0.3,3.4-0.9c1-0.6,1.8-1.4,2.4-2.5c0.6-1.1,0.9-2.4,0.9-3.8c0-1.4-0.3-2.7-0.9-3.8
		c-0.6-1.1-1.4-2-2.4-2.6c-1-0.6-2.2-0.9-3.4-0.9C315.2,67.6,313.6,68.3,312.4,69.6z"/>
	<path class="st1" d="M334.2,55.6c0.5-0.5,1.2-0.8,2.1-0.8s1.6,0.3,2.1,0.8c0.5,0.5,0.8,1.1,0.8,1.9c0,0.8-0.3,1.4-0.8,1.9
		c-0.5,0.5-1.3,0.7-2.1,0.7s-1.6-0.2-2.1-0.7c-0.5-0.5-0.8-1.1-0.8-1.9C333.4,56.7,333.6,56.1,334.2,55.6z M338.6,63.9v22H334v-22
		H338.6z"/>
	<path class="st1" d="M364.4,63.9v22h-4.6v-4.8c-0.6,1.6-1.5,2.9-2.9,3.8c-1.4,0.9-3,1.3-4.8,1.3c-2.6,0-4.6-0.8-6.2-2.5
		c-1.5-1.7-2.3-4-2.3-7.1V63.9h4.6v12.3c0,2,0.5,3.5,1.5,4.6c1,1.1,2.4,1.6,4.2,1.6c1.8,0,3.3-0.6,4.4-1.8c1.1-1.2,1.6-2.9,1.6-5.1
		V63.9H364.4z"/>
	<path class="st1" d="M403.7,66c1.6,1.7,2.3,4,2.3,7.1v12.8h-4.6V73.6c0-1.9-0.5-3.4-1.4-4.5c-1-1.1-2.3-1.6-4-1.6
		c-1.8,0-3.2,0.6-4.3,1.7c-1.1,1.1-1.6,2.8-1.6,5v11.7h-4.6V73.6c0-1.9-0.5-3.4-1.4-4.5c-1-1.1-2.3-1.6-4-1.6
		c-1.8,0-3.2,0.6-4.3,1.7c-1.1,1.1-1.6,2.8-1.6,5v11.7h-4.6v-22h4.6v4.6c0.6-1.6,1.5-2.8,2.8-3.7c1.3-0.9,2.8-1.3,4.6-1.3
		c1.8,0,3.4,0.5,4.8,1.4c1.3,0.9,2.3,2.2,2.9,3.9c0.6-1.7,1.7-2.9,3.1-3.9c1.4-0.9,3-1.4,4.8-1.4C400,63.5,402.1,64.4,403.7,66z"/>
	<path class="st1" d="M75.1,124.9l-1.6,9h-8.9l5-28.3H82c3,0,5.3,0.7,6.9,2c1.6,1.4,2.4,3.2,2.4,5.6c0,0.6-0.1,1.3-0.2,2.1
		c-0.3,1.8-1,3.4-2.1,4.9c-1.1,1.5-2.5,2.6-4.3,3.5c-1.8,0.9-3.8,1.3-6.1,1.3H75.1z M82.1,115.3c0-0.2,0-0.4,0-0.6
		c0-1.3-0.8-2-2.4-2h-2.5l-0.9,5.2h2.5C80.7,117.9,81.8,117.1,82.1,115.3z"/>
	<path class="st1" d="M115,106.7c2,1.1,3.5,2.5,4.5,4.4c1,1.9,1.6,4.1,1.6,6.6c0,1-0.1,2.2-0.3,3.5c-0.5,2.5-1.4,4.8-2.8,6.7
		c-1.4,2-3.2,3.5-5.3,4.6c-2.2,1.1-4.6,1.6-7.4,1.6c-2.8,0-5.1-0.5-7.1-1.6c-2-1-3.5-2.5-4.5-4.4c-1-1.9-1.5-4.1-1.5-6.6
		c0-1.3,0.1-2.5,0.3-3.6c0.5-2.5,1.4-4.8,2.8-6.7s3.2-3.5,5.4-4.6c2.2-1.1,4.7-1.6,7.4-1.6C110.6,105.1,113,105.7,115,106.7z
		 M103.2,114.9c-1.1,1.1-1.8,2.5-2.1,4.3c-0.1,0.5-0.2,1.1-0.2,1.7c0,1.5,0.4,2.8,1.3,3.6s2.1,1.3,3.7,1.3s3-0.5,4.1-1.6
		c1.1-1.1,1.8-2.5,2.1-4.3c0.1-0.6,0.2-1.1,0.2-1.8c0-1.6-0.4-2.8-1.3-3.7c-0.8-0.9-2.1-1.3-3.7-1.3
		C105.6,113.3,104.3,113.9,103.2,114.9z"/>
	<path class="st1" d="M132,124.9l-1.6,9h-8.9l5-28.3h12.4c3,0,5.3,0.7,6.9,2c1.6,1.4,2.4,3.2,2.4,5.6c0,0.6-0.1,1.3-0.2,2.1
		c-0.3,1.8-1,3.4-2.1,4.9c-1.1,1.5-2.5,2.6-4.3,3.5c-1.8,0.9-3.8,1.3-6.1,1.3H132z M139,115.3c0-0.2,0-0.4,0-0.6c0-1.3-0.8-2-2.4-2
		h-2.5l-0.9,5.2h2.5C137.6,117.9,138.6,117.1,139,115.3z"/>
	<path class="st1" d="M157.9,124.9l-1.6,9h-8.9l5-28.3h12.4c3,0,5.3,0.7,6.9,2c1.6,1.4,2.4,3.2,2.4,5.6c0,0.6-0.1,1.3-0.2,2.1
		c-0.3,1.8-1,3.4-2.1,4.9c-1.1,1.5-2.5,2.6-4.3,3.5c-1.8,0.9-3.8,1.3-6.1,1.3H157.9z M164.9,115.3c0-0.2,0-0.4,0-0.6
		c0-1.3-0.8-2-2.4-2h-2.5l-0.9,5.2h2.5C163.5,117.9,164.6,117.1,164.9,115.3z"/>
	<path class="st1" d="M187.3,105.6l-5,28.3h-8.9l5-28.3H187.3z"/>
	<path class="st1" d="M213.5,133.9h-8.9l-6.9-14.2l-2.5,14.2h-8.9l5-28.3h8.9l6.9,14.5l2.5-14.5h8.9L213.5,133.9z"/>
	<path class="st1" d="M238.9,130.6c-1,1.1-2.3,2-3.9,2.7c-1.6,0.7-3.5,1-5.6,1c-3.5,0-6.2-0.8-8.2-2.4c-1.9-1.6-2.9-3.9-3-6.9h9.4
		c-0.2,1.6,0.4,2.4,1.8,2.4c0.5,0,0.9-0.1,1.3-0.4c0.3-0.3,0.5-0.7,0.5-1.3c0-0.6-0.3-1.2-0.9-1.6c-0.6-0.4-1.6-0.9-3-1.5
		c-1.5-0.6-2.7-1.2-3.7-1.8c-1-0.6-1.9-1.4-2.6-2.5c-0.7-1.1-1.1-2.4-1.1-3.9c0-0.6,0.1-1.2,0.2-2c0.4-2.2,1.6-4,3.7-5.2
		c2.1-1.2,4.6-1.8,7.4-1.8c3.7,0,6.4,0.8,8.2,2.4c1.8,1.6,2.7,3.9,2.8,6.8h-9.6c0.1-1.5-0.3-2.2-1.4-2.2c-0.4,0-0.8,0.1-1.1,0.4
		c-0.3,0.3-0.5,0.7-0.5,1.2c0,0.6,0.3,1.1,0.9,1.5c0.6,0.4,1.6,0.8,2.9,1.4c1.5,0.6,2.8,1.2,3.8,1.8c1,0.6,1.9,1.4,2.6,2.4
		s1.1,2.4,1.1,4c0,0.6-0.1,1.2-0.2,2C240.5,128.2,239.9,129.4,238.9,130.6z"/>
	<path class="st1" d="M249.6,133.9l5.2-29.6h8.9l-1.8,10.1c0.7-1,1.7-1.9,2.9-2.5c1.2-0.6,2.5-0.9,3.9-0.9c2.3,0,4.1,0.8,5.5,2.3
		c1.4,1.5,2.1,3.6,2.1,6.3c0,1-0.1,2-0.3,3c-0.4,2.4-1.2,4.4-2.3,6.2c-1.1,1.7-2.5,3.1-4,4c-1.6,0.9-3.2,1.4-5,1.4
		c-1.5,0-2.7-0.3-3.6-0.9c-0.9-0.6-1.6-1.4-2-2.5l-0.6,3.1H249.6z M265.6,125.5c0.7-0.7,1.2-1.6,1.4-2.8c0.1-0.2,0.1-0.6,0.1-1
		c0-0.9-0.2-1.6-0.7-2.1c-0.5-0.5-1.1-0.7-2-0.7c-1,0-1.8,0.3-2.5,1c-0.7,0.7-1.2,1.6-1.4,2.8c-0.1,0.2-0.1,0.6-0.1,1
		c0,0.9,0.2,1.6,0.7,2.1s1.1,0.7,2,0.7C264,126.5,264.8,126.1,265.6,125.5z"/>
	<path class="st1" d="M291,104.3l-5.2,29.6h-8.9l5.2-29.6H291z"/>
	<path class="st1" d="M305.4,112c1,0.6,1.7,1.4,2.1,2.5l0.6-3.1h8.8l-4,22.6H304l0.6-3.1c-0.7,1-1.7,1.9-2.9,2.5
		c-1.2,0.6-2.5,0.9-4,0.9c-2.4,0-4.2-0.8-5.6-2.3c-1.3-1.6-2-3.7-2-6.5c0-1,0.1-2.1,0.3-3.5c0.4-2.2,1.1-4.1,2.2-5.8
		c1.1-1.6,2.4-2.9,3.9-3.7c1.5-0.9,3.1-1.3,4.8-1.3C303,111.1,304.3,111.4,305.4,112z M300.9,119.9c-0.7,0.7-1.2,1.6-1.4,2.8
		c-0.1,0.2-0.1,0.6-0.1,1c0,0.9,0.2,1.6,0.7,2.1s1.1,0.7,2,0.7c1,0,1.8-0.3,2.5-1c0.7-0.7,1.2-1.6,1.4-2.8c0.1-0.2,0.1-0.6,0.1-1
		c0-0.9-0.2-1.6-0.7-2.1s-1.1-0.7-2-0.7C302.5,118.9,301.6,119.2,300.9,119.9z"/>
	<path class="st1" d="M338.2,113.6c1.8,1.7,2.7,3.9,2.7,6.9h-9.4c-0.2-1.2-0.8-1.8-1.8-1.8c-0.7,0-1.3,0.3-1.9,1
		c-0.5,0.7-0.9,1.7-1.1,3c-0.1,0.7-0.2,1.2-0.2,1.5c0,0.8,0.2,1.4,0.5,1.9c0.3,0.4,0.8,0.6,1.3,0.6c1,0,1.8-0.6,2.3-1.8h9.4
		c-1,2.9-2.7,5.2-5,6.9c-2.3,1.7-4.9,2.5-7.9,2.5c-3,0-5.3-0.8-7.1-2.5s-2.7-4-2.7-7c0-0.7,0.1-1.7,0.3-2.8c0.4-2.2,1.2-4.1,2.5-5.7
		c1.2-1.6,2.8-2.9,4.6-3.7c1.9-0.9,3.9-1.3,6.1-1.3C334,111.1,336.4,111.9,338.2,113.6z"/>
	<path class="st1" d="M359.8,122.4l6.3,11.5H356l-3.9-9.3l-1.6,9.3h-8.9l5.2-29.6h8.9l-2.7,15.2l7.1-8.2h10.3L359.8,122.4z"/>
	<path class="st1" d="M388.7,105.6l-5,28.3h-8.9l5-28.3H388.7z"/>
	<path class="st1" d="M399.6,124.9c0,0.1,0,0.2,0,0.4c0,0.7,0.5,1.1,1.4,1.1h2.1l-1.4,7.6h-3.4c-5.3,0-7.9-2.2-7.9-6.7
		c0-0.8,0.1-1.7,0.2-2.6l1-5.9H389l1.3-7.4h2.8l1-5.4h8.9l-1,5.4h3.7l-1.3,7.4h-3.7L399.6,124.9z"/>
	<path class="st1" d="M421.5,112c1,0.6,1.7,1.4,2.1,2.5l0.6-3.1h8.8l-4,22.6h-8.8l0.6-3.1c-0.7,1-1.7,1.9-2.9,2.5
		c-1.2,0.6-2.5,0.9-4,0.9c-2.4,0-4.2-0.8-5.6-2.3c-1.3-1.6-2-3.7-2-6.5c0-1,0.1-2.1,0.3-3.5c0.4-2.2,1.1-4.1,2.2-5.8
		c1.1-1.6,2.4-2.9,3.9-3.7s3.1-1.3,4.8-1.3C419.1,111.1,420.4,111.4,421.5,112z M417,119.9c-0.7,0.7-1.2,1.6-1.4,2.8
		c-0.1,0.2-0.1,0.6-0.1,1c0,0.9,0.2,1.6,0.7,2.1c0.5,0.5,1.1,0.7,2,0.7c1,0,1.8-0.3,2.5-1c0.7-0.7,1.2-1.6,1.4-2.8
		c0.1-0.2,0.1-0.6,0.1-1c0-0.9-0.2-1.6-0.7-2.1c-0.5-0.5-1.1-0.7-2-0.7C418.6,118.9,417.7,119.2,417,119.9z"/>
	<path class="st1" d="M447.1,104.3l-5.2,29.6H433l5.2-29.6H447.1z"/>
	<path class="st1" d="M458.5,111.4l-4,22.6h-8.9l4-22.6H458.5z M450.8,103.4c0.5-0.8,1.2-1.4,2.2-1.9c0.9-0.5,1.9-0.7,3.1-0.7
		c1.4,0,2.4,0.3,3.2,1c0.8,0.7,1.2,1.6,1.2,2.6c0,0.9-0.3,1.8-0.8,2.6c-0.5,0.8-1.2,1.4-2.1,1.9s-1.9,0.7-3,0.7
		c-1.4,0-2.5-0.3-3.3-1c-0.8-0.7-1.2-1.6-1.2-2.6C450,105,450.3,104.1,450.8,103.4z"/>
	<path class="st1" d="M479.8,113.6c1.8,1.7,2.7,3.9,2.7,6.9h-9.4c-0.2-1.2-0.8-1.8-1.8-1.8c-0.7,0-1.3,0.3-1.9,1
		c-0.5,0.7-0.9,1.7-1.1,3c-0.1,0.7-0.2,1.2-0.2,1.5c0,0.8,0.2,1.4,0.5,1.9c0.3,0.4,0.8,0.6,1.3,0.6c1,0,1.8-0.6,2.3-1.8h9.4
		c-1,2.9-2.7,5.2-5,6.9c-2.3,1.7-4.9,2.5-7.9,2.5c-3,0-5.3-0.8-7.1-2.5s-2.7-4-2.7-7c0-0.7,0.1-1.7,0.3-2.8c0.4-2.2,1.2-4.1,2.5-5.7
		c1.2-1.6,2.8-2.9,4.6-3.7c1.9-0.9,3.9-1.3,6.1-1.3C475.6,111.1,478,111.9,479.8,113.6z"/>
</g>
</svg>
