<?xml version="1.0" encoding="utf-8"?>
<!-- Generator: Adobe Illustrator 22.0.0, SVG Export Plug-In . SVG Version: 6.00 Build 0)  -->
<svg version="1.1" id="Laag_1" xmlns="http://www.w3.org/2000/svg" xmlns:xlink="http://www.w3.org/1999/xlink" x="0px" y="0px"
	 viewBox="0 0 841.9 491.8" style="enable-background:new 0 0 841.9 491.8;" xml:space="preserve">
<style type="text/css">
	.st0{fill:#FFFFFF;}
	.st1{fill:#1B69A0;}
	.st2{opacity:0.36;fill:#FFFFFF;}
</style>
<g>
	<g>
		<path class="st0" d="M667.5,445.8c0-14-11.4-25.4-25.4-25.4c-0.7,0-1.4,0-2,0.1c-1.9,0.1-4.4,0.6-7,1.4c-7,2.4-23.8,10.7-39.1,38
			c-0.5-1.4-1.3-4.4-1.3-7.7c-4.3,7.4-4.2,26.8-4.2,26.8l4.1-8.7c9.1-19.1,19.2-30.3,27.4-36.9c-1.9,3.3-3,7.1-3.2,11.2
			c-9.9,9.6-18.4,23.7-25.6,42.1l-1.7-4.7c-1.1,3.9-2.9,17-2.6,20.7c4.6-2.9,12.5-15.3,13.3-16.4c-2.7,0.8-4.6,1.5-5.9,2.1
			c7.3-19,15.5-31.2,22.7-39c0.4,2.7,1.2,5.3,2.4,7.6c-4,4.7-8.4,10.8-12.8,19.1l-4.3,9.1c0,0,14.3-10.1,18.1-15
			c-3.5,1.4-6.6,2.3-7.9,2.6c3.1-5.2,6.1-9.3,8.9-12.7c4.6,6.6,12.2,11,20.9,11c6.3,0,12.1-2.3,16.6-6.2c0.3-0.2,0.5-0.4,0.5-0.4
			C664.3,459.9,667.5,453.2,667.5,445.8z M657.3,461.5c-4.3-0.1-16.5-1.3-25.7-11.1c4.2-2.8,7.3-3.7,8.9-4c6.2,7.3,16,8.4,21,8.4
			c0.2,0,0.3,0,0.5,0C660.9,457.4,659.3,459.6,657.3,461.5z M650.9,449.6c-2.6-1-5.2-2.5-7.3-4.8c2.5-4.8,3-9.3,1.6-20.7
			c3.3,0.5,6.4,1.7,9,3.5C654.6,431.2,655,443.1,650.9,449.6z M664,445.8c0,1.9-0.3,3.8-0.7,5.6c-1.7,0.1-5.1,0.1-8.9-0.8
			c3.3-6,3.7-14.7,3.6-20C661.7,434.6,664,439.9,664,445.8z M640.3,423.9c0.9,0,1.4,0.1,1.5,0.1l0,0l0,0c0.3,2.6,0.5,4.8,0.7,6.7
			c-2.9,0.3-9.4,1.5-17.4,7c-1.5,1-2.9,2.1-4.3,3.3C622.8,431.8,630.6,424.7,640.3,423.9z M620.2,446.1c2.3-2.2,4.5-3.9,6.5-5.3
			c7.3-5.1,13.3-6.3,15.9-6.5c0,4-0.7,6.4-1.9,8.7c-2.6,0.3-9.8,1.9-18.9,11.3C620.8,451.7,620.2,449,620.2,446.1z M623.6,457.5
			c1.9-2,3.6-3.6,5.3-4.9c8,8.8,18,11.4,24.3,12.2c-3.2,1.9-7,3-11,3C634.3,467.7,627.5,463.6,623.6,457.5z"/>
	</g>
	<g>
		<path class="st0" d="M631.1,498.2v-18.1h-9.4v-4.3h23.9v4.3h-9.4v18.1H631.1z"/>
		<path class="st0" d="M666.2,498.2l-13.1-8.2v8.2h-5v-22.4h17.6c1.6,0,2.9,0.1,4,0.3c1.1,0.2,2,0.6,2.7,1.1
			c0.7,0.5,1.2,1.2,1.6,2.1c0.3,0.9,0.5,2,0.5,3.3v1.5c0,1.3-0.2,2.4-0.5,3.2c-0.4,0.8-0.9,1.5-1.6,2c-0.7,0.5-1.7,0.8-2.8,1
			c-1.1,0.2-2.4,0.3-4,0.3h-3.9l13.2,7.6H666.2z M669.5,482.8c0-0.6-0.1-1.1-0.2-1.4c-0.1-0.4-0.4-0.7-0.7-0.9
			c-0.3-0.2-0.7-0.3-1.3-0.4c-0.5-0.1-1.2-0.1-2-0.1h-12.3v6.8h12.3c0.8,0,1.5,0,2-0.1c0.5-0.1,1-0.2,1.3-0.4
			c0.3-0.2,0.5-0.5,0.7-0.9c0.1-0.4,0.2-0.9,0.2-1.5V482.8z"/>
		<path class="st0" d="M678.1,498.2v-22.4h5v22.4H678.1z"/>
		<path class="st0" d="M695.1,498.2v-18.1h-9.4v-4.3h23.9v4.3h-9.4v18.1H695.1z"/>
		<path class="st0" d="M720.5,498.2c-1.6,0-3-0.1-4.1-0.4c-1.1-0.3-2-0.7-2.6-1.3c-0.7-0.6-1.1-1.4-1.4-2.4c-0.3-1-0.4-2.2-0.4-3.6
			v-7c0-1.4,0.1-2.6,0.4-3.6c0.3-1,0.7-1.8,1.4-2.4c0.7-0.6,1.5-1,2.6-1.3c1.1-0.3,2.5-0.4,4.1-0.4h8.5c1.7,0,3,0.1,4.1,0.4
			c1.1,0.3,2,0.7,2.6,1.3c0.7,0.6,1.1,1.4,1.4,2.4c0.3,1,0.4,2.2,0.4,3.6v7c0,1.4-0.1,2.6-0.4,3.6c-0.3,1-0.7,1.8-1.4,2.4
			c-0.7,0.6-1.5,1-2.6,1.3c-1.1,0.3-2.5,0.4-4.1,0.4H720.5z M732.6,483.7c0-0.7-0.1-1.3-0.2-1.7s-0.3-0.8-0.6-1.1
			c-0.3-0.3-0.7-0.5-1.2-0.6c-0.5-0.1-1.1-0.2-1.8-0.2h-8.1c-0.8,0-1.4,0.1-1.9,0.2c-0.5,0.1-0.9,0.3-1.2,0.6
			c-0.3,0.3-0.5,0.7-0.6,1.1c-0.1,0.5-0.1,1-0.1,1.7v6.6c0,0.7,0,1.3,0.1,1.8c0.1,0.5,0.3,0.8,0.6,1.1c0.3,0.3,0.7,0.5,1.2,0.6
			c0.5,0.1,1.1,0.1,1.9,0.1h8.1c0.7,0,1.3,0,1.8-0.1c0.5-0.1,0.9-0.3,1.2-0.6c0.3-0.3,0.5-0.6,0.6-1.1s0.2-1.1,0.2-1.8V483.7z"/>
		<path class="st0" d="M765.1,498.7c-0.5,0-1-0.1-1.5-0.2c-0.4-0.2-0.9-0.4-1.3-0.8L746,482.2v16h-4.6v-20.9c0-0.7,0.2-1.2,0.7-1.6
			c0.5-0.3,1.1-0.5,1.9-0.5c0.6,0,1,0.1,1.4,0.2c0.4,0.2,0.7,0.4,0.9,0.6l16.5,15.9v-16.2h4.7v20.9c0,0.7-0.2,1.3-0.7,1.6
			C766.4,498.5,765.8,498.7,765.1,498.7z"/>
	</g>
	<g>
		<path class="st0" d="M686,471.4l-5.6-4.9v4.9h-2.2v-10.1h2.2v4.8l5.5-4.8h3l-5.8,4.9l5.9,5.2H686z"/>
		<path class="st0" d="M692.3,471.4c-0.6,0-1.1,0-1.4-0.1c-0.4-0.1-0.7-0.2-0.9-0.4c-0.2-0.2-0.4-0.4-0.5-0.7
			c-0.1-0.3-0.1-0.6-0.1-0.9v-0.8c0-0.3,0-0.6,0.1-0.9c0.1-0.3,0.2-0.5,0.4-0.7c0.2-0.2,0.5-0.3,0.8-0.4c0.4-0.1,0.8-0.1,1.4-0.1
			h5.9v-0.2c0-0.5-0.1-0.9-0.3-1c-0.2-0.2-0.6-0.3-1-0.3h-2.2v-1.6h2.2c0.6,0,1.2,0.1,1.6,0.2c0.4,0.1,0.8,0.3,1.1,0.5
			c0.3,0.2,0.5,0.5,0.6,0.9c0.1,0.4,0.2,0.8,0.2,1.3v1.9c0,0.6-0.1,1.1-0.2,1.5c-0.1,0.4-0.3,0.7-0.6,1c-0.3,0.2-0.7,0.4-1.1,0.5
			c-0.5,0.1-1.1,0.2-1.8,0.2H692.3z M698.1,467.8h-5.7c-0.3,0-0.5,0.1-0.6,0.2c-0.1,0.1-0.2,0.3-0.2,0.6v0.5c0,0.3,0.1,0.5,0.2,0.6
			c0.2,0.1,0.4,0.2,0.7,0.2h4.1c0.3,0,0.5,0,0.7-0.1c0.2,0,0.3-0.1,0.5-0.2c0.1-0.1,0.2-0.2,0.3-0.4c0.1-0.2,0.1-0.4,0.1-0.7V467.8z
			"/>
		<path class="st0" d="M700.1,473.8v-1.9h0.5c0.3,0,0.5,0,0.7-0.1c0.2,0,0.3-0.1,0.4-0.2c0.1-0.1,0.2-0.2,0.2-0.4s0.1-0.4,0.1-0.6
			v-7.1h2.2v7.1c0,1.1-0.3,1.8-0.8,2.3c-0.6,0.5-1.5,0.7-2.7,0.7H700.1z M702.8,463c-0.3,0-0.5-0.1-0.6-0.2
			c-0.1-0.1-0.2-0.3-0.2-0.5v-0.9c0-0.2,0.1-0.4,0.2-0.5c0.1-0.1,0.3-0.2,0.6-0.2h0.7c0.3,0,0.5,0,0.6,0.2c0.1,0.1,0.2,0.3,0.2,0.5
			v0.9c0,0.2-0.1,0.4-0.2,0.5c-0.1,0.1-0.3,0.2-0.6,0.2H702.8z"/>
		<path class="st0" d="M708.7,471.4c-0.6,0-1.1,0-1.4-0.1c-0.4-0.1-0.7-0.2-0.9-0.4c-0.2-0.2-0.4-0.4-0.5-0.7
			c-0.1-0.3-0.1-0.6-0.1-0.9v-0.8c0-0.3,0-0.6,0.1-0.9c0.1-0.3,0.2-0.5,0.4-0.7c0.2-0.2,0.5-0.3,0.8-0.4c0.4-0.1,0.8-0.1,1.4-0.1
			h5.9v-0.2c0-0.5-0.1-0.9-0.3-1c-0.2-0.2-0.6-0.3-1-0.3H711v-1.6h2.2c0.6,0,1.2,0.1,1.6,0.2c0.4,0.1,0.8,0.3,1.1,0.5
			c0.3,0.2,0.5,0.5,0.6,0.9c0.1,0.4,0.2,0.8,0.2,1.3v1.9c0,0.6-0.1,1.1-0.2,1.5c-0.1,0.4-0.3,0.7-0.6,1c-0.3,0.2-0.7,0.4-1.1,0.5
			c-0.5,0.1-1.1,0.2-1.8,0.2H708.7z M714.5,467.8h-5.7c-0.3,0-0.5,0.1-0.6,0.2c-0.1,0.1-0.2,0.3-0.2,0.6v0.5c0,0.3,0.1,0.5,0.2,0.6
			c0.2,0.1,0.4,0.2,0.7,0.2h4.1c0.3,0,0.5,0,0.7-0.1c0.2,0,0.3-0.1,0.5-0.2c0.1-0.1,0.2-0.2,0.3-0.4c0.1-0.2,0.1-0.4,0.1-0.7V467.8z
			"/>
		<path class="st0" d="M725.3,471.4l-4.7-3.8v3.8h-2.2v-10.6h2.2v6.3l4.6-3.7h2.9l-5,3.9l5.1,4.1H725.3z"/>
		<path class="st0" d="M735.8,463.4c0.7,0,1.4,0.1,1.9,0.2c0.5,0.1,0.9,0.3,1.2,0.6c0.3,0.3,0.5,0.6,0.6,1.1c0.1,0.4,0.2,1,0.2,1.6
			v1.1c0,0.6-0.1,1.2-0.2,1.6c-0.1,0.4-0.3,0.8-0.6,1.1c-0.3,0.3-0.7,0.5-1.2,0.6c-0.5,0.1-1.1,0.2-1.9,0.2h-4.5v2.4h-2.2v-6.9
			c0-0.6,0.1-1.2,0.2-1.6c0.1-0.4,0.3-0.8,0.6-1.1c0.3-0.3,0.7-0.5,1.2-0.6c0.5-0.1,1.1-0.2,1.9-0.2H735.8z M737.4,466.9
			c0-0.4,0-0.6-0.1-0.9c-0.1-0.2-0.2-0.4-0.3-0.5c-0.1-0.1-0.3-0.2-0.6-0.2c-0.3,0-0.6-0.1-1-0.1h-2.5c-0.3,0-0.6,0-0.9,0.1
			c-0.2,0-0.4,0.1-0.5,0.3c-0.1,0.1-0.2,0.3-0.3,0.5c0,0.2-0.1,0.5-0.1,0.8v2.6h4.2c0.4,0,0.7,0,0.9-0.1c0.2,0,0.4-0.1,0.6-0.2
			c0.1-0.1,0.2-0.3,0.3-0.5c0.1-0.2,0.1-0.5,0.1-0.9V466.9z"/>
		<path class="st0" d="M745.1,471.4c-0.7,0-1.4-0.1-1.8-0.2c-0.5-0.1-0.9-0.3-1.2-0.6c-0.3-0.3-0.5-0.6-0.6-1.1
			c-0.1-0.4-0.2-1-0.2-1.6v-1.1c0-0.6,0.1-1.2,0.2-1.6c0.1-0.4,0.3-0.8,0.6-1.1c0.3-0.3,0.7-0.5,1.2-0.6c0.5-0.1,1.1-0.2,1.8-0.2
			h2.7c0.7,0,1.4,0.1,1.9,0.2c0.5,0.1,0.9,0.3,1.2,0.6c0.3,0.3,0.5,0.6,0.6,1.1c0.1,0.4,0.2,1,0.2,1.6v1.1c0,0.6-0.1,1.2-0.2,1.6
			c-0.1,0.4-0.3,0.8-0.6,1.1c-0.3,0.3-0.7,0.5-1.2,0.6c-0.5,0.1-1.1,0.2-1.9,0.2H745.1z M749.4,467c0-0.3,0-0.6-0.1-0.8
			c-0.1-0.2-0.2-0.4-0.3-0.5c-0.1-0.1-0.3-0.2-0.6-0.3c-0.3,0-0.6-0.1-1-0.1h-2.1c-0.4,0-0.7,0-1,0.1c-0.3,0-0.4,0.1-0.6,0.3
			c-0.1,0.1-0.2,0.3-0.3,0.5c-0.1,0.2-0.1,0.5-0.1,0.8v0.9c0,0.3,0,0.6,0.1,0.8c0.1,0.2,0.2,0.4,0.3,0.5c0.1,0.1,0.3,0.2,0.6,0.3
			c0.3,0,0.6,0.1,1,0.1h2.1c0.4,0,0.7,0,1-0.1c0.3,0,0.5-0.1,0.6-0.3c0.1-0.1,0.2-0.3,0.3-0.5c0.1-0.2,0.1-0.5,0.1-0.8V467z"/>
		<path class="st0" d="M753.3,471.4v-10.6h2.2v10.6H753.3z"/>
		<path class="st0" d="M761,471.4c-0.7,0-1.4-0.1-1.8-0.2c-0.5-0.1-0.9-0.3-1.2-0.6c-0.3-0.3-0.5-0.6-0.6-1.1
			c-0.1-0.4-0.2-1-0.2-1.6v-1.1c0-0.6,0.1-1.2,0.2-1.6c0.1-0.4,0.3-0.8,0.6-1.1c0.3-0.3,0.7-0.5,1.2-0.6c0.5-0.1,1.1-0.2,1.8-0.2
			h2.7c0.7,0,1.4,0.1,1.9,0.2c0.5,0.1,0.9,0.3,1.2,0.6c0.3,0.3,0.5,0.6,0.6,1.1c0.1,0.4,0.2,1,0.2,1.6v1.1c0,0.6-0.1,1.2-0.2,1.6
			c-0.1,0.4-0.3,0.8-0.6,1.1c-0.3,0.3-0.7,0.5-1.2,0.6c-0.5,0.1-1.1,0.2-1.9,0.2H761z M765.4,467c0-0.3,0-0.6-0.1-0.8
			c-0.1-0.2-0.2-0.4-0.3-0.5c-0.1-0.1-0.3-0.2-0.6-0.3c-0.3,0-0.6-0.1-1-0.1h-2.1c-0.4,0-0.7,0-1,0.1c-0.3,0-0.4,0.1-0.6,0.3
			c-0.1,0.1-0.2,0.3-0.3,0.5c-0.1,0.2-0.1,0.5-0.1,0.8v0.9c0,0.3,0,0.6,0.1,0.8c0.1,0.2,0.2,0.4,0.3,0.5c0.1,0.1,0.3,0.2,0.6,0.3
			c0.3,0,0.6,0.1,1,0.1h2.1c0.4,0,0.7,0,1-0.1c0.3,0,0.5-0.1,0.6-0.3c0.1-0.1,0.2-0.3,0.3-0.5c0.1-0.2,0.1-0.5,0.1-0.8V467z"/>
	</g>
</g>
<rect x="-3.5" y="2.1" class="st1" width="847.7" height="488.8"/>
<g>
	<path class="st2" d="M336.6,59.9c21,13.3,36.5,31.3,46.6,54.1V44.8h116.5v382.3H383.2v-69.2c-10.1,22.8-25.6,40.9-46.6,54.1
		c-21,13.3-46.1,19.9-75.4,19.9c-31.5,0-59.7-7.9-84.6-23.6c-24.9-15.8-44.5-38.5-58.9-68.2c-14.4-29.7-21.6-64.4-21.6-104.1
		c0-40.2,7.2-75,21.6-104.5c14.4-29.5,34-52.1,58.9-67.8C201.5,47.9,229.8,40,261.3,40C290.5,40,315.6,46.6,336.6,59.9z
		 M238.3,167.5c-15.3,16.4-23,39.3-23,68.5c0,29.2,7.6,52.1,23,68.5c15.3,16.4,35.5,24.7,60.6,24.7c24.7,0,44.9-8.4,60.6-25.4
		c15.8-16.9,23.6-39.5,23.6-67.8c0-28.8-7.9-51.5-23.6-68.2c-15.8-16.7-36-25-60.6-25C273.8,142.8,253.6,151,238.3,167.5z"/>
	<path class="st2" d="M880.7,338.8H699.1L669,427.1H545.6l177.5-481h135l177.5,481H910.8L880.7,338.8z M850.5,249.7L790.2,71.5
		l-61,178.2H850.5z"/>
</g>
<g>
	<g>
		<path class="st0" d="M684.8,372.2c0-14.8-12-26.8-26.8-26.8c-0.7,0-1.4,0-2.1,0.1c-2,0.1-4.6,0.6-7.4,1.5
			c-7.4,2.5-25.1,11.3-41.3,40.1c-0.5-1.5-1.4-4.7-1.3-8.1c-4.5,7.8-4.5,28.2-4.5,28.2l4.3-9.2c9.6-20.2,20.2-32,28.9-38.9
			c-2,3.5-3.2,7.5-3.4,11.8c-10.4,10.2-19.4,25-26.9,44.4l-1.8-4.9c-1.2,4.1-3.1,18-2.7,21.9c4.9-3.1,13.2-16.1,14-17.3
			c-2.8,0.9-4.8,1.6-6.2,2.2c7.7-20,16.3-32.9,24-41.1c0.4,2.9,1.3,5.6,2.5,8.1c-4.3,4.9-8.8,11.4-13.5,20.1l-4.6,9.6
			c0,0,15.1-10.6,19-15.8c-3.7,1.5-7,2.4-8.3,2.8c3.2-5.5,6.4-9.8,9.4-13.4c4.8,7,12.9,11.6,22,11.6c6.7,0,12.8-2.5,17.5-6.5
			c0.3-0.2,0.5-0.4,0.5-0.4C681.4,387.1,684.8,380,684.8,372.2z M674.1,388.8c-4.6-0.1-17.4-1.3-27.1-11.7c4.4-3,7.7-3.9,9.4-4.2
			c6.6,7.7,16.8,8.8,22.1,8.8c0.2,0,0.4,0,0.5,0C677.9,384.4,676.2,386.8,674.1,388.8z M667.4,376.2c-2.7-1-5.4-2.6-7.7-5
			c2.6-5.1,3.2-9.8,1.7-21.9c3.5,0.5,6.7,1.8,9.5,3.7C671.2,356.8,671.6,369.3,667.4,376.2z M681.2,372.2c0,2-0.3,4-0.8,5.9
			c-1.8,0.1-5.4,0.1-9.4-0.8c3.5-6.3,3.9-15.5,3.8-21.1C678.7,360.4,681.2,366,681.2,372.2z M656.1,349.1c0.9,0,1.4,0.1,1.6,0.1l0,0
			l0,0c0.3,2.7,0.6,5.1,0.7,7.1c-3.1,0.3-9.9,1.6-18.4,7.3c-1.5,1.1-3.1,2.2-4.6,3.4C637.7,357.4,646,350,656.1,349.1z M634.9,372.5
			c2.4-2.3,4.8-4.2,6.9-5.6c7.7-5.4,14-6.6,16.7-6.9c0,4.3-0.7,6.8-2,9.2c-2.8,0.3-10.3,2-19.9,11.9
			C635.6,378.4,635,375.5,634.9,372.5z M638.5,384.5c2-2.1,3.8-3.8,5.6-5.2c8.5,9.2,19,12,25.6,12.8c-3.4,2-7.4,3.1-11.6,3.1
			C649.8,395.3,642.6,391,638.5,384.5z"/>
	</g>
	<g>
		<path class="st0" d="M646.4,427.5v-19.1h-9.9v-4.5h25.2v4.5h-9.9v19.1H646.4z"/>
		<path class="st0" d="M683.5,427.5l-13.8-8.6v8.6h-5.2v-23.7h18.5c1.7,0,3.1,0.1,4.3,0.3c1.2,0.2,2.1,0.6,2.9,1.1
			c0.8,0.5,1.3,1.3,1.6,2.2c0.3,0.9,0.5,2.1,0.5,3.5v1.6c0,1.4-0.2,2.5-0.6,3.4s-0.9,1.6-1.7,2.1c-0.8,0.5-1.8,0.9-2.9,1.1
			c-1.2,0.2-2.6,0.3-4.2,0.3h-4.2l13.9,8H683.5z M687,411.2c0-0.6-0.1-1.1-0.2-1.5c-0.1-0.4-0.4-0.7-0.7-0.9
			c-0.3-0.2-0.8-0.3-1.4-0.4s-1.3-0.1-2.2-0.1h-12.9v7.2h12.9c0.9,0,1.6,0,2.1-0.1c0.6-0.1,1-0.2,1.4-0.4c0.3-0.2,0.6-0.5,0.7-0.9
			c0.1-0.4,0.2-0.9,0.2-1.6V411.2z"/>
		<path class="st0" d="M696,427.5v-23.7h5.3v23.7H696z"/>
		<path class="st0" d="M713.9,427.5v-19.1H704v-4.5h25.2v4.5h-9.9v19.1H713.9z"/>
		<path class="st0" d="M740.8,427.5c-1.7,0-3.2-0.1-4.3-0.4c-1.2-0.3-2.1-0.8-2.8-1.4c-0.7-0.6-1.2-1.5-1.5-2.5
			c-0.3-1-0.4-2.3-0.4-3.8v-7.4c0-1.5,0.1-2.7,0.4-3.8c0.3-1,0.8-1.9,1.5-2.5c0.7-0.6,1.6-1.1,2.8-1.4c1.2-0.3,2.6-0.4,4.3-0.4h9
			c1.8,0,3.2,0.1,4.4,0.4c1.2,0.3,2.1,0.8,2.8,1.4c0.7,0.6,1.2,1.5,1.5,2.5c0.3,1,0.4,2.3,0.4,3.8v7.4c0,1.5-0.1,2.8-0.4,3.8
			c-0.3,1-0.8,1.9-1.5,2.5c-0.7,0.6-1.6,1.1-2.8,1.4c-1.2,0.3-2.6,0.4-4.4,0.4H740.8z M753.5,412.2c0-0.7-0.1-1.4-0.2-1.8
			c-0.1-0.5-0.3-0.9-0.6-1.2c-0.3-0.3-0.7-0.5-1.2-0.6c-0.5-0.1-1.2-0.2-1.9-0.2H741c-0.8,0-1.5,0.1-2,0.2c-0.5,0.1-0.9,0.3-1.2,0.6
			s-0.5,0.7-0.6,1.2c-0.1,0.5-0.2,1.1-0.2,1.8v7c0,0.8,0.1,1.4,0.2,1.9c0.1,0.5,0.3,0.9,0.6,1.2s0.7,0.5,1.2,0.6
			c0.5,0.1,1.2,0.2,2,0.2h8.5c0.8,0,1.4-0.1,1.9-0.2c0.5-0.1,0.9-0.3,1.2-0.6c0.3-0.3,0.5-0.7,0.6-1.2c0.1-0.5,0.2-1.1,0.2-1.9
			V412.2z"/>
		<path class="st0" d="M787.7,428c-0.6,0-1.1-0.1-1.5-0.3c-0.5-0.2-0.9-0.5-1.3-0.8l-17.2-16.2v16.8h-4.9v-22c0-0.7,0.3-1.3,0.8-1.6
			c0.5-0.4,1.2-0.5,2-0.5c0.6,0,1.1,0.1,1.5,0.2s0.7,0.4,1,0.6l17.4,16.8v-17.1h5v22c0,0.8-0.2,1.3-0.7,1.7
			C789.1,427.8,788.5,428,787.7,428z"/>
	</g>
	<g>
		<path class="st0" d="M704.4,399.2l-5.9-5.2v5.2h-2.4v-10.6h2.4v5.1l5.8-5.1h3.2l-6.1,5.2l6.2,5.5H704.4z"/>
		<path class="st0" d="M711,399.2c-0.6,0-1.1-0.1-1.5-0.2c-0.4-0.1-0.7-0.3-0.9-0.4c-0.2-0.2-0.4-0.4-0.5-0.7
			c-0.1-0.3-0.1-0.6-0.1-0.9v-0.8c0-0.4,0-0.7,0.1-0.9c0.1-0.3,0.2-0.5,0.5-0.7c0.2-0.2,0.5-0.3,0.9-0.4c0.4-0.1,0.9-0.1,1.4-0.1
			h6.2v-0.2c0-0.5-0.1-0.9-0.3-1.1c-0.2-0.2-0.6-0.3-1.1-0.3h-2.3v-1.7h2.3c0.7,0,1.2,0.1,1.7,0.2c0.5,0.1,0.9,0.3,1.2,0.6
			c0.3,0.3,0.5,0.6,0.7,1c0.1,0.4,0.2,0.9,0.2,1.4v2.1c0,0.6-0.1,1.1-0.2,1.5c-0.1,0.4-0.3,0.8-0.6,1c-0.3,0.3-0.7,0.4-1.2,0.6
			c-0.5,0.1-1.1,0.2-1.9,0.2H711z M717.1,395.4h-6c-0.3,0-0.5,0.1-0.6,0.2c-0.2,0.1-0.2,0.3-0.2,0.7v0.6c0,0.3,0.1,0.5,0.3,0.6
			c0.2,0.1,0.4,0.2,0.7,0.2h4.4c0.3,0,0.5,0,0.7-0.1c0.2,0,0.4-0.1,0.5-0.2c0.1-0.1,0.2-0.3,0.3-0.5c0.1-0.2,0.1-0.5,0.1-0.8V395.4z
			"/>
		<path class="st0" d="M719.2,401.7v-2h0.5c0.3,0,0.5,0,0.7-0.1c0.2,0,0.4-0.1,0.5-0.2c0.1-0.1,0.2-0.2,0.3-0.4s0.1-0.4,0.1-0.7V391
			h2.3v7.5c0,1.1-0.3,1.9-0.9,2.5c-0.6,0.5-1.5,0.8-2.9,0.8H719.2z M722.1,390.3c-0.3,0-0.5-0.1-0.6-0.2c-0.1-0.1-0.2-0.3-0.2-0.5
			v-0.9c0-0.2,0.1-0.4,0.2-0.5c0.1-0.1,0.3-0.2,0.6-0.2h0.8c0.3,0,0.5,0.1,0.6,0.2c0.1,0.1,0.2,0.3,0.2,0.5v0.9
			c0,0.3-0.1,0.4-0.2,0.5c-0.1,0.1-0.3,0.2-0.6,0.2H722.1z"/>
		<path class="st0" d="M728.3,399.2c-0.6,0-1.1-0.1-1.5-0.2c-0.4-0.1-0.7-0.3-0.9-0.4c-0.2-0.2-0.4-0.4-0.5-0.7
			c-0.1-0.3-0.1-0.6-0.1-0.9v-0.8c0-0.4,0-0.7,0.1-0.9c0.1-0.3,0.2-0.5,0.5-0.7c0.2-0.2,0.5-0.3,0.9-0.4c0.4-0.1,0.9-0.1,1.4-0.1
			h6.2v-0.2c0-0.5-0.1-0.9-0.3-1.1c-0.2-0.2-0.6-0.3-1.1-0.3h-2.3v-1.7h2.3c0.7,0,1.2,0.1,1.7,0.2c0.5,0.1,0.9,0.3,1.2,0.6
			c0.3,0.3,0.5,0.6,0.7,1c0.1,0.4,0.2,0.9,0.2,1.4v2.1c0,0.6-0.1,1.1-0.2,1.5c-0.1,0.4-0.3,0.8-0.6,1c-0.3,0.3-0.7,0.4-1.2,0.6
			c-0.5,0.1-1.1,0.2-1.9,0.2H728.3z M734.4,395.4h-6c-0.3,0-0.5,0.1-0.6,0.2c-0.2,0.1-0.2,0.3-0.2,0.7v0.6c0,0.3,0.1,0.5,0.3,0.6
			c0.2,0.1,0.4,0.2,0.7,0.2h4.4c0.3,0,0.5,0,0.7-0.1c0.2,0,0.4-0.1,0.5-0.2c0.1-0.1,0.2-0.3,0.3-0.5c0.1-0.2,0.1-0.5,0.1-0.8V395.4z
			"/>
		<path class="st0" d="M745.7,399.2l-4.9-4v4h-2.3v-11.2h2.3v6.6l4.9-3.9h3l-5.2,4.1l5.4,4.4H745.7z"/>
		<path class="st0" d="M756.8,390.8c0.8,0,1.4,0.1,2,0.2c0.5,0.1,0.9,0.3,1.2,0.6c0.3,0.3,0.5,0.7,0.7,1.1c0.1,0.5,0.2,1,0.2,1.7
			v1.1c0,0.7-0.1,1.2-0.2,1.7c-0.1,0.5-0.3,0.8-0.7,1.1c-0.3,0.3-0.7,0.5-1.2,0.6c-0.5,0.1-1.2,0.2-2,0.2h-4.7v2.5h-2.3v-7.3
			c0-0.7,0.1-1.2,0.2-1.7c0.1-0.5,0.3-0.8,0.7-1.1c0.3-0.3,0.7-0.5,1.2-0.6c0.5-0.1,1.2-0.2,2-0.2H756.8z M758.6,394.5
			c0-0.4,0-0.7-0.1-0.9s-0.2-0.4-0.3-0.5c-0.2-0.1-0.4-0.2-0.6-0.3c-0.3,0-0.6-0.1-1-0.1H754c-0.4,0-0.7,0-0.9,0.1
			c-0.2,0.1-0.4,0.1-0.6,0.3c-0.1,0.1-0.2,0.3-0.3,0.5c-0.1,0.2-0.1,0.5-0.1,0.8v2.8h4.4c0.4,0,0.7,0,1-0.1c0.3,0,0.5-0.1,0.6-0.2
			c0.2-0.1,0.3-0.3,0.3-0.5c0.1-0.2,0.1-0.5,0.1-0.9V394.5z"/>
		<path class="st0" d="M766.6,399.2c-0.8,0-1.4-0.1-1.9-0.2c-0.5-0.1-0.9-0.3-1.2-0.6c-0.3-0.3-0.5-0.7-0.7-1.1
			c-0.1-0.5-0.2-1-0.2-1.7v-1.1c0-0.7,0.1-1.2,0.2-1.7c0.1-0.5,0.3-0.8,0.7-1.1c0.3-0.3,0.7-0.5,1.2-0.6c0.5-0.1,1.2-0.2,1.9-0.2
			h2.8c0.8,0,1.4,0.1,2,0.2c0.5,0.1,0.9,0.3,1.2,0.6s0.5,0.7,0.7,1.1c0.1,0.5,0.2,1,0.2,1.7v1.1c0,0.7-0.1,1.2-0.2,1.7
			c-0.1,0.5-0.4,0.8-0.7,1.1c-0.3,0.3-0.7,0.5-1.2,0.6c-0.5,0.1-1.2,0.2-2,0.2H766.6z M771.2,394.5c0-0.4,0-0.6-0.1-0.9
			c-0.1-0.2-0.2-0.4-0.3-0.5c-0.1-0.1-0.4-0.2-0.6-0.3c-0.3,0-0.6-0.1-1-0.1h-2.2c-0.4,0-0.8,0-1,0.1c-0.3,0-0.5,0.1-0.6,0.3
			c-0.1,0.1-0.3,0.3-0.3,0.5c-0.1,0.2-0.1,0.5-0.1,0.9v1c0,0.4,0,0.6,0.1,0.9c0.1,0.2,0.2,0.4,0.3,0.5c0.2,0.1,0.4,0.2,0.6,0.3
			c0.3,0.1,0.6,0.1,1,0.1h2.2c0.4,0,0.8,0,1-0.1c0.3-0.1,0.5-0.1,0.6-0.3c0.2-0.1,0.3-0.3,0.3-0.5c0.1-0.2,0.1-0.5,0.1-0.9V394.5z"
			/>
		<path class="st0" d="M775.3,399.2v-11.2h2.4v11.2H775.3z"/>
		<path class="st0" d="M783.5,399.2c-0.8,0-1.4-0.1-1.9-0.2c-0.5-0.1-0.9-0.3-1.2-0.6c-0.3-0.3-0.5-0.7-0.7-1.1
			c-0.1-0.5-0.2-1-0.2-1.7v-1.1c0-0.7,0.1-1.2,0.2-1.7c0.1-0.5,0.3-0.8,0.7-1.1c0.3-0.3,0.7-0.5,1.2-0.6c0.5-0.1,1.2-0.2,1.9-0.2
			h2.8c0.8,0,1.4,0.1,2,0.2c0.5,0.1,0.9,0.3,1.2,0.6s0.5,0.7,0.7,1.1c0.1,0.5,0.2,1,0.2,1.7v1.1c0,0.7-0.1,1.2-0.2,1.7
			c-0.1,0.5-0.4,0.8-0.7,1.1c-0.3,0.3-0.7,0.5-1.2,0.6c-0.5,0.1-1.2,0.2-2,0.2H783.5z M788,394.5c0-0.4,0-0.6-0.1-0.9
			c-0.1-0.2-0.2-0.4-0.3-0.5c-0.1-0.1-0.4-0.2-0.6-0.3c-0.3,0-0.6-0.1-1-0.1h-2.2c-0.4,0-0.8,0-1,0.1c-0.3,0-0.5,0.1-0.6,0.3
			c-0.1,0.1-0.3,0.3-0.3,0.5c-0.1,0.2-0.1,0.5-0.1,0.9v1c0,0.4,0,0.6,0.1,0.9c0.1,0.2,0.2,0.4,0.3,0.5c0.2,0.1,0.4,0.2,0.6,0.3
			c0.3,0.1,0.6,0.1,1,0.1h2.2c0.4,0,0.8,0,1-0.1c0.3-0.1,0.5-0.1,0.6-0.3c0.2-0.1,0.3-0.3,0.3-0.5c0.1-0.2,0.1-0.5,0.1-0.9V394.5z"
			/>
	</g>
</g>
</svg>
