<?xml version="1.0" encoding="utf-8"?>
<!-- Generator: Adobe Illustrator 22.0.0, SVG Export Plug-In . SVG Version: 6.00 Build 0)  -->
<svg version="1.1" id="Laag_1" xmlns="http://www.w3.org/2000/svg" xmlns:xlink="http://www.w3.org/1999/xlink" x="0px" y="0px"
	 viewBox="0 0 835.9 425.5" style="enable-background:new 0 0 835.9 425.5;" xml:space="preserve">
<style type="text/css">
	.st0{fill:#FFFFFF;}
</style>
<image style="overflow:visible;enable-background:new    ;" width="3072" height="2048" xlink:href="6CCA1CC.jpg"  transform="matrix(0.2721 0 0 0.2721 0 -130.8954)">
</image>
<g>
	<g>
		<path class="st0" d="M663.5,313.9c0-14-11.4-25.4-25.4-25.4c-0.7,0-1.4,0-2,0.1c-1.9,0.1-4.4,0.6-7,1.4c-7,2.4-23.8,10.7-39.1,38
			c-0.5-1.4-1.3-4.4-1.3-7.7c-4.3,7.4-4.2,26.8-4.2,26.8l4.1-8.7c9.1-19.1,19.2-30.3,27.4-36.9c-1.9,3.3-3,7.1-3.2,11.2
			c-9.9,9.6-18.4,23.7-25.6,42.1l-1.7-4.7c-1.1,3.9-2.9,17-2.6,20.7c4.6-2.9,12.5-15.3,13.3-16.4c-2.7,0.8-4.6,1.5-5.9,2.1
			c7.3-19,15.5-31.2,22.7-39c0.4,2.7,1.2,5.3,2.4,7.6c-4,4.7-8.4,10.8-12.8,19.1l-4.3,9.1c0,0,14.3-10.1,18.1-15
			c-3.5,1.4-6.6,2.3-7.9,2.6c3.1-5.2,6.1-9.3,8.9-12.7c4.6,6.6,12.2,11,20.9,11c6.3,0,12.1-2.3,16.6-6.2c0.3-0.2,0.5-0.4,0.5-0.4
			C660.3,328,663.5,321.3,663.5,313.9z M653.3,329.6c-4.3-0.1-16.5-1.3-25.7-11.1c4.2-2.8,7.3-3.7,8.9-4c6.2,7.3,16,8.4,21,8.4
			c0.2,0,0.3,0,0.5,0C656.9,325.5,655.3,327.7,653.3,329.6z M646.9,317.7c-2.6-1-5.2-2.5-7.3-4.8c2.5-4.8,3-9.3,1.6-20.7
			c3.3,0.5,6.4,1.7,9,3.5C650.6,299.3,651,311.2,646.9,317.7z M660,313.9c0,1.9-0.3,3.8-0.7,5.6c-1.7,0.1-5.1,0.1-8.9-0.8
			c3.3-6,3.7-14.7,3.6-20C657.7,302.7,660,308,660,313.9z M636.3,292c0.9,0,1.4,0.1,1.5,0.1l0,0l0,0c0.3,2.6,0.5,4.8,0.7,6.7
			c-2.9,0.3-9.4,1.5-17.4,7c-1.5,1-2.9,2.1-4.3,3.3C618.8,299.9,626.6,292.8,636.3,292z M616.2,314.2c2.3-2.2,4.5-3.9,6.5-5.3
			c7.3-5.1,13.3-6.3,15.9-6.5c0,4-0.7,6.4-1.9,8.7c-2.6,0.3-9.8,1.9-18.9,11.3C616.8,319.8,616.2,317.1,616.2,314.2z M619.6,325.6
			c1.9-2,3.6-3.6,5.3-4.9c8,8.8,18,11.4,24.3,12.2c-3.2,1.9-7,3-11,3C630.3,335.8,623.5,331.7,619.6,325.6z"/>
	</g>
	<g>
		<path class="st0" d="M627.1,366.3v-18.1h-9.4v-4.3h23.9v4.3h-9.4v18.1H627.1z"/>
		<path class="st0" d="M662.2,366.3l-13.1-8.2v8.2h-5v-22.4h17.6c1.6,0,2.9,0.1,4,0.3c1.1,0.2,2,0.6,2.7,1.1s1.2,1.2,1.6,2.1
			c0.3,0.9,0.5,2,0.5,3.3v1.5c0,1.3-0.2,2.4-0.5,3.2c-0.4,0.8-0.9,1.5-1.6,2c-0.7,0.5-1.7,0.8-2.8,1s-2.4,0.3-4,0.3h-3.9l13.2,7.6
			H662.2z M665.5,350.9c0-0.6-0.1-1.1-0.2-1.4c-0.1-0.4-0.4-0.7-0.7-0.9c-0.3-0.2-0.7-0.3-1.3-0.4c-0.5-0.1-1.2-0.1-2-0.1H649v6.8
			h12.3c0.8,0,1.5,0,2-0.1s1-0.2,1.3-0.4c0.3-0.2,0.5-0.5,0.7-0.9c0.1-0.4,0.2-0.9,0.2-1.5V350.9z"/>
		<path class="st0" d="M674.1,366.3v-22.4h5v22.4H674.1z"/>
		<path class="st0" d="M691.1,366.3v-18.1h-9.4v-4.3h23.9v4.3h-9.4v18.1H691.1z"/>
		<path class="st0" d="M716.5,366.3c-1.6,0-3-0.1-4.1-0.4s-2-0.7-2.6-1.3c-0.7-0.6-1.1-1.4-1.4-2.4c-0.3-1-0.4-2.2-0.4-3.6v-7
			c0-1.4,0.1-2.6,0.4-3.6c0.3-1,0.7-1.8,1.4-2.4s1.5-1,2.6-1.3s2.5-0.4,4.1-0.4h8.5c1.7,0,3,0.1,4.1,0.4s2,0.7,2.6,1.3
			c0.7,0.6,1.1,1.4,1.4,2.4c0.3,1,0.4,2.2,0.4,3.6v7c0,1.4-0.1,2.6-0.4,3.6c-0.3,1-0.7,1.8-1.4,2.4s-1.5,1-2.6,1.3s-2.5,0.4-4.1,0.4
			H716.5z M728.6,351.8c0-0.7-0.1-1.3-0.2-1.7s-0.3-0.8-0.6-1.1c-0.3-0.3-0.7-0.5-1.2-0.6s-1.1-0.2-1.8-0.2h-8.1
			c-0.8,0-1.4,0.1-1.9,0.2s-0.9,0.3-1.2,0.6c-0.3,0.3-0.5,0.7-0.6,1.1c-0.1,0.5-0.1,1-0.1,1.7v6.6c0,0.7,0,1.3,0.1,1.8
			s0.3,0.8,0.6,1.1c0.3,0.3,0.7,0.5,1.2,0.6s1.1,0.1,1.9,0.1h8.1c0.7,0,1.3,0,1.8-0.1s0.9-0.3,1.2-0.6c0.3-0.3,0.5-0.6,0.6-1.1
			s0.2-1.1,0.2-1.8V351.8z"/>
		<path class="st0" d="M761.1,366.8c-0.5,0-1-0.1-1.5-0.2c-0.4-0.2-0.9-0.4-1.3-0.8L742,350.3v16h-4.6v-20.9c0-0.7,0.2-1.2,0.7-1.6
			c0.5-0.3,1.1-0.5,1.9-0.5c0.6,0,1,0.1,1.4,0.2c0.4,0.2,0.7,0.4,0.9,0.6l16.5,15.9v-16.2h4.7v20.9c0,0.7-0.2,1.3-0.7,1.6
			C762.4,366.6,761.8,366.8,761.1,366.8z"/>
	</g>
	<g>
		<path class="st0" d="M682,339.5l-5.6-4.9v4.9h-2.2v-10.1h2.2v4.8l5.5-4.8h3l-5.8,4.9l5.9,5.2H682z"/>
		<path class="st0" d="M688.3,339.5c-0.6,0-1.1,0-1.4-0.1c-0.4-0.1-0.7-0.2-0.9-0.4c-0.2-0.2-0.4-0.4-0.5-0.7
			c-0.1-0.3-0.1-0.6-0.1-0.9v-0.8c0-0.3,0-0.6,0.1-0.9s0.2-0.5,0.4-0.7s0.5-0.3,0.8-0.4c0.4-0.1,0.8-0.1,1.4-0.1h5.9v-0.2
			c0-0.5-0.1-0.9-0.3-1c-0.2-0.2-0.6-0.3-1-0.3h-2.2v-1.6h2.2c0.6,0,1.2,0.1,1.6,0.2c0.4,0.1,0.8,0.3,1.1,0.5s0.5,0.5,0.6,0.9
			s0.2,0.8,0.2,1.3v1.9c0,0.6-0.1,1.1-0.2,1.5c-0.1,0.4-0.3,0.7-0.6,1c-0.3,0.2-0.7,0.4-1.1,0.5c-0.5,0.1-1.1,0.2-1.8,0.2h-4.2
			V339.5z M694.1,335.9h-5.7c-0.3,0-0.5,0.1-0.6,0.2s-0.2,0.3-0.2,0.6v0.5c0,0.3,0.1,0.5,0.2,0.6c0.2,0.1,0.4,0.2,0.7,0.2h4.1
			c0.3,0,0.5,0,0.7-0.1c0.2,0,0.3-0.1,0.5-0.2c0.1-0.1,0.2-0.2,0.3-0.4c0.1-0.2,0.1-0.4,0.1-0.7L694.1,335.9L694.1,335.9z"/>
		<path class="st0" d="M696.1,341.9V340h0.5c0.3,0,0.5,0,0.7-0.1c0.2,0,0.3-0.1,0.4-0.2c0.1-0.1,0.2-0.2,0.2-0.4s0.1-0.4,0.1-0.6
			v-7.1h2.2v7.1c0,1.1-0.3,1.8-0.8,2.3c-0.6,0.5-1.5,0.7-2.7,0.7h-0.6V341.9z M698.8,331.1c-0.3,0-0.5-0.1-0.6-0.2s-0.2-0.3-0.2-0.5
			v-0.9c0-0.2,0.1-0.4,0.2-0.5c0.1-0.1,0.3-0.2,0.6-0.2h0.7c0.3,0,0.5,0,0.6,0.2c0.1,0.1,0.2,0.3,0.2,0.5v0.9c0,0.2-0.1,0.4-0.2,0.5
			c-0.1,0.1-0.3,0.2-0.6,0.2H698.8z"/>
		<path class="st0" d="M704.7,339.5c-0.6,0-1.1,0-1.4-0.1c-0.4-0.1-0.7-0.2-0.9-0.4c-0.2-0.2-0.4-0.4-0.5-0.7
			c-0.1-0.3-0.1-0.6-0.1-0.9v-0.8c0-0.3,0-0.6,0.1-0.9s0.2-0.5,0.4-0.7s0.5-0.3,0.8-0.4c0.4-0.1,0.8-0.1,1.4-0.1h5.9v-0.2
			c0-0.5-0.1-0.9-0.3-1c-0.2-0.2-0.6-0.3-1-0.3H707v-1.6h2.2c0.6,0,1.2,0.1,1.6,0.2c0.4,0.1,0.8,0.3,1.1,0.5s0.5,0.5,0.6,0.9
			s0.2,0.8,0.2,1.3v1.9c0,0.6-0.1,1.1-0.2,1.5c-0.1,0.4-0.3,0.7-0.6,1c-0.3,0.2-0.7,0.4-1.1,0.5c-0.5,0.1-1.1,0.2-1.8,0.2h-4.3
			V339.5z M710.5,335.9h-5.7c-0.3,0-0.5,0.1-0.6,0.2s-0.2,0.3-0.2,0.6v0.5c0,0.3,0.1,0.5,0.2,0.6c0.2,0.1,0.4,0.2,0.7,0.2h4.1
			c0.3,0,0.5,0,0.7-0.1c0.2,0,0.3-0.1,0.5-0.2c0.1-0.1,0.2-0.2,0.3-0.4c0.1-0.2,0.1-0.4,0.1-0.7L710.5,335.9L710.5,335.9z"/>
		<path class="st0" d="M721.3,339.5l-4.7-3.8v3.8h-2.2v-10.6h2.2v6.3l4.6-3.7h2.9l-5,3.9l5.1,4.1L721.3,339.5L721.3,339.5z"/>
		<path class="st0" d="M731.8,331.5c0.7,0,1.4,0.1,1.9,0.2s0.9,0.3,1.2,0.6c0.3,0.3,0.5,0.6,0.6,1.1c0.1,0.4,0.2,1,0.2,1.6v1.1
			c0,0.6-0.1,1.2-0.2,1.6c-0.1,0.4-0.3,0.8-0.6,1.1c-0.3,0.3-0.7,0.5-1.2,0.6s-1.1,0.2-1.9,0.2h-4.5v2.4h-2.2v-6.9
			c0-0.6,0.1-1.2,0.2-1.6c0.1-0.4,0.3-0.8,0.6-1.1c0.3-0.3,0.7-0.5,1.2-0.6s1.1-0.2,1.9-0.2h2.8V331.5z M733.4,335
			c0-0.4,0-0.6-0.1-0.9c-0.1-0.2-0.2-0.4-0.3-0.5s-0.3-0.2-0.6-0.2s-0.6-0.1-1-0.1h-2.5c-0.3,0-0.6,0-0.9,0.1
			c-0.2,0-0.4,0.1-0.5,0.3c-0.1,0.1-0.2,0.3-0.3,0.5c0,0.2-0.1,0.5-0.1,0.8v2.6h4.2c0.4,0,0.7,0,0.9-0.1c0.2,0,0.4-0.1,0.6-0.2
			c0.1-0.1,0.2-0.3,0.3-0.5s0.1-0.5,0.1-0.9V335H733.4z"/>
		<path class="st0" d="M741.1,339.5c-0.7,0-1.4-0.1-1.8-0.2c-0.5-0.1-0.9-0.3-1.2-0.6c-0.3-0.3-0.5-0.6-0.6-1.1
			c-0.1-0.4-0.2-1-0.2-1.6v-1.1c0-0.6,0.1-1.2,0.2-1.6c0.1-0.4,0.3-0.8,0.6-1.1c0.3-0.3,0.7-0.5,1.2-0.6s1.1-0.2,1.8-0.2h2.7
			c0.7,0,1.4,0.1,1.9,0.2s0.9,0.3,1.2,0.6c0.3,0.3,0.5,0.6,0.6,1.1c0.1,0.4,0.2,1,0.2,1.6v1.1c0,0.6-0.1,1.2-0.2,1.6
			c-0.1,0.4-0.3,0.8-0.6,1.1c-0.3,0.3-0.7,0.5-1.2,0.6s-1.1,0.2-1.9,0.2H741.1z M745.4,335.1c0-0.3,0-0.6-0.1-0.8
			c-0.1-0.2-0.2-0.4-0.3-0.5s-0.3-0.2-0.6-0.3c-0.3,0-0.6-0.1-1-0.1h-2.1c-0.4,0-0.7,0-1,0.1c-0.3,0-0.4,0.1-0.6,0.3
			c-0.1,0.1-0.2,0.3-0.3,0.5s-0.1,0.5-0.1,0.8v0.9c0,0.3,0,0.6,0.1,0.8c0.1,0.2,0.2,0.4,0.3,0.5s0.3,0.2,0.6,0.3
			c0.3,0,0.6,0.1,1,0.1h2.1c0.4,0,0.7,0,1-0.1c0.3,0,0.5-0.1,0.6-0.3c0.1-0.1,0.2-0.3,0.3-0.5s0.1-0.5,0.1-0.8V335.1z"/>
		<path class="st0" d="M749.3,339.5v-10.6h2.2v10.6H749.3z"/>
		<path class="st0" d="M757,339.5c-0.7,0-1.4-0.1-1.8-0.2c-0.5-0.1-0.9-0.3-1.2-0.6c-0.3-0.3-0.5-0.6-0.6-1.1
			c-0.1-0.4-0.2-1-0.2-1.6v-1.1c0-0.6,0.1-1.2,0.2-1.6c0.1-0.4,0.3-0.8,0.6-1.1c0.3-0.3,0.7-0.5,1.2-0.6s1.1-0.2,1.8-0.2h2.7
			c0.7,0,1.4,0.1,1.9,0.2s0.9,0.3,1.2,0.6c0.3,0.3,0.5,0.6,0.6,1.1c0.1,0.4,0.2,1,0.2,1.6v1.1c0,0.6-0.1,1.2-0.2,1.6
			c-0.1,0.4-0.3,0.8-0.6,1.1c-0.3,0.3-0.7,0.5-1.2,0.6s-1.1,0.2-1.9,0.2H757z M761.4,335.1c0-0.3,0-0.6-0.1-0.8
			c-0.1-0.2-0.2-0.4-0.3-0.5s-0.3-0.2-0.6-0.3c-0.3,0-0.6-0.1-1-0.1h-2.1c-0.4,0-0.7,0-1,0.1c-0.3,0-0.4,0.1-0.6,0.3
			c-0.1,0.1-0.2,0.3-0.3,0.5s-0.1,0.5-0.1,0.8v0.9c0,0.3,0,0.6,0.1,0.8c0.1,0.2,0.2,0.4,0.3,0.5s0.3,0.2,0.6,0.3
			c0.3,0,0.6,0.1,1,0.1h2.1c0.4,0,0.7,0,1-0.1c0.3,0,0.5-0.1,0.6-0.3c0.1-0.1,0.2-0.3,0.3-0.5s0.1-0.5,0.1-0.8V335.1z"/>
	</g>
</g>
</svg>
