<?xml version="1.0" encoding="utf-8"?>
<!-- Generator: Adobe Illustrator 22.0.0, SVG Export Plug-In . SVG Version: 6.00 Build 0)  -->
<svg version="1.1" id="Laag_1" xmlns="http://www.w3.org/2000/svg" xmlns:xlink="http://www.w3.org/1999/xlink" x="0px" y="0px"
	 viewBox="0 0 521 841.9" style="enable-background:new 0 0 521 841.9;" xml:space="preserve">
<style type="text/css">
	.st0{fill:#FCCD42;}
	.st1{fill:#FFFFFF;stroke:#FCCD42;stroke-width:1.4613;stroke-miterlimit:10;}
	.st2{fill:none;stroke:#FCCD42;stroke-width:1.4613;stroke-miterlimit:10;}
	.st3{fill:none;stroke:#FCCD42;stroke-width:1.4633;stroke-miterlimit:10;}
	.st4{fill:none;stroke:#FCCD42;stroke-width:1.4763;stroke-miterlimit:10;}
	.st5{fill:#6F6F6E;}
	.st6{fill:none;stroke:#FCCD42;stroke-width:1.2368;stroke-miterlimit:10;}
	.st7{fill:none;stroke:#FCCD42;stroke-width:1.3793;stroke-miterlimit:10;}
	.st8{fill:none;stroke:#FCCD42;stroke-width:1.6986;stroke-miterlimit:10;}
	.st9{fill:none;stroke:#FCCD42;stroke-width:2.688;stroke-miterlimit:10;}
	.st10{fill:none;stroke:#FCCD42;stroke-width:2.0512;stroke-miterlimit:10;}
</style>
<g>
	<g>
		<path class="st0" d="M422.2,157.2c0-3.4-2.7-6.1-6.1-6.1c-0.2,0-0.3,0-0.5,0c-0.5,0-1,0.1-1.7,0.3c-1.7,0.6-5.7,2.6-9.4,9.1
			c-0.1-0.3-0.3-1.1-0.3-1.8c-1,1.8-1,6.4-1,6.4l1-2.1c2.2-4.6,4.6-7.3,6.6-8.8c-0.4,0.8-0.7,1.7-0.8,2.7c-2.4,2.3-4.4,5.7-6.1,10.1
			l-0.4-1.1c-0.3,0.9-0.7,4.1-0.6,5c1.1-0.7,3-3.7,3.2-3.9c-0.6,0.2-1.1,0.4-1.4,0.5c1.8-4.5,3.7-7.5,5.4-9.3
			c0.1,0.6,0.3,1.3,0.6,1.8c-1,1.1-2,2.6-3.1,4.6l-1,2.2c0,0,3.4-2.4,4.3-3.6c-0.8,0.3-1.6,0.5-1.9,0.6c0.7-1.2,1.4-2.2,2.1-3
			c1.1,1.6,2.9,2.6,5,2.6c1.5,0,2.9-0.6,4-1.5c0.1,0,0.1-0.1,0.1-0.1C421.4,160.6,422.2,159,422.2,157.2z M419.8,161
			c-1,0-3.9-0.3-6.1-2.6c1-0.7,1.8-0.9,2.1-0.9c1.5,1.8,3.8,2,5,2c0,0,0.1,0,0.1,0C420.6,160,420.2,160.5,419.8,161z M418.3,158.1
			c-0.6-0.2-1.2-0.6-1.7-1.1c0.6-1.2,0.7-2.2,0.4-5c0.8,0.1,1.5,0.4,2.2,0.8C419.1,153.7,419.2,156.5,418.3,158.1z M421.4,157.2
			c0,0.5-0.1,0.9-0.2,1.3c-0.4,0-1.2,0-2.1-0.2c0.8-1.4,0.9-3.5,0.9-4.8C420.8,154.5,421.4,155.8,421.4,157.2z M415.7,152
			c0.2,0,0.3,0,0.4,0l0,0l0,0c0.1,0.6,0.1,1.1,0.2,1.6c-0.7,0.1-2.3,0.4-4.2,1.7c-0.4,0.2-0.7,0.5-1,0.8
			C411.5,153.8,413.4,152.2,415.7,152z M410.9,157.3c0.6-0.5,1.1-0.9,1.6-1.3c1.8-1.2,3.2-1.5,3.8-1.6c0,1-0.2,1.5-0.4,2.1
			c-0.6,0.1-2.3,0.5-4.5,2.7C411,158.6,410.9,158,410.9,157.3z M411.7,160c0.4-0.5,0.9-0.9,1.3-1.2c1.9,2.1,4.3,2.7,5.8,2.9
			c-0.8,0.5-1.7,0.7-2.6,0.7C414.3,162.4,412.6,161.5,411.7,160z"/>
	</g>
	<path class="st0" d="M413.5,169.7v-4.3h-2.3v-1h5.7v1h-2.3v4.3H413.5z"/>
	<path class="st0" d="M421.9,169.7l-3.1-2v2h-1.2v-5.4h4.2c0.4,0,0.7,0,1,0.1c0.3,0,0.5,0.1,0.7,0.3c0.2,0.1,0.3,0.3,0.4,0.5
		c0.1,0.2,0.1,0.5,0.1,0.8v0.4c0,0.3,0,0.6-0.1,0.8c-0.1,0.2-0.2,0.4-0.4,0.5c-0.2,0.1-0.4,0.2-0.7,0.2c-0.3,0-0.6,0.1-1,0.1h-0.9
		l3.1,1.8H421.9z M422.7,166c0-0.1,0-0.3,0-0.3c0-0.1-0.1-0.2-0.2-0.2s-0.2-0.1-0.3-0.1c-0.1,0-0.3,0-0.5,0h-2.9v1.6h2.9
		c0.2,0,0.4,0,0.5,0c0.1,0,0.2,0,0.3-0.1c0.1,0,0.1-0.1,0.2-0.2c0-0.1,0-0.2,0-0.4V166z"/>
	<path class="st0" d="M424.7,169.7v-5.4h1.2v5.4H424.7z"/>
	<path class="st0" d="M428.8,169.7v-4.3h-2.3v-1h5.7v1H430v4.3H428.8z"/>
	<path class="st0" d="M434.9,169.7c-0.4,0-0.7,0-1-0.1c-0.3-0.1-0.5-0.2-0.6-0.3c-0.2-0.1-0.3-0.3-0.3-0.6c-0.1-0.2-0.1-0.5-0.1-0.9
		v-1.7c0-0.3,0-0.6,0.1-0.9c0.1-0.2,0.2-0.4,0.3-0.6c0.2-0.1,0.4-0.2,0.6-0.3c0.3-0.1,0.6-0.1,1-0.1h2c0.4,0,0.7,0,1,0.1
		c0.3,0.1,0.5,0.2,0.6,0.3c0.2,0.1,0.3,0.3,0.3,0.6c0.1,0.2,0.1,0.5,0.1,0.9v1.7c0,0.3,0,0.6-0.1,0.9c-0.1,0.2-0.2,0.4-0.3,0.6
		c-0.2,0.1-0.4,0.2-0.6,0.3c-0.3,0.1-0.6,0.1-1,0.1H434.9z M437.8,166.3c0-0.2,0-0.3,0-0.4c0-0.1-0.1-0.2-0.1-0.3s-0.2-0.1-0.3-0.1
		c-0.1,0-0.3,0-0.4,0H435c-0.2,0-0.3,0-0.5,0c-0.1,0-0.2,0.1-0.3,0.1s-0.1,0.2-0.1,0.3c0,0.1,0,0.2,0,0.4v1.6c0,0.2,0,0.3,0,0.4
		s0.1,0.2,0.1,0.3c0.1,0.1,0.2,0.1,0.3,0.1c0.1,0,0.3,0,0.5,0h1.9c0.2,0,0.3,0,0.4,0c0.1,0,0.2-0.1,0.3-0.1c0.1-0.1,0.1-0.2,0.1-0.3
		s0-0.3,0-0.4V166.3z"/>
	<path class="st0" d="M445.6,169.9c-0.1,0-0.2,0-0.4-0.1s-0.2-0.1-0.3-0.2l-3.9-3.7v3.8h-1.1v-5c0-0.2,0.1-0.3,0.2-0.4
		c0.1-0.1,0.3-0.1,0.5-0.1c0.1,0,0.2,0,0.3,0.1c0.1,0,0.2,0.1,0.2,0.1l3.9,3.8v-3.9h1.1v5c0,0.2-0.1,0.3-0.2,0.4
		C445.9,169.8,445.7,169.9,445.6,169.9z"/>
	<g>
		<path class="st0" d="M426.6,163.3l-1.3-1.2v1.2h-0.5v-2.4h0.5v1.2l1.3-1.2h0.7l-1.4,1.2l1.4,1.2H426.6z"/>
		<path class="st0" d="M428.1,163.3c-0.1,0-0.3,0-0.3,0c-0.1,0-0.2-0.1-0.2-0.1c-0.1,0-0.1-0.1-0.1-0.2c0-0.1,0-0.1,0-0.2v-0.2
			c0-0.1,0-0.2,0-0.2c0-0.1,0.1-0.1,0.1-0.2c0,0,0.1-0.1,0.2-0.1c0.1,0,0.2,0,0.3,0h1.4v0c0-0.1,0-0.2-0.1-0.2c0,0-0.1-0.1-0.3-0.1
			h-0.5v-0.4h0.5c0.2,0,0.3,0,0.4,0c0.1,0,0.2,0.1,0.3,0.1c0.1,0.1,0.1,0.1,0.2,0.2c0,0.1,0,0.2,0,0.3v0.5c0,0.1,0,0.3,0,0.3
			c0,0.1-0.1,0.2-0.1,0.2c-0.1,0.1-0.2,0.1-0.3,0.1c-0.1,0-0.3,0-0.4,0H428.1z M429.5,162.5h-1.4c-0.1,0-0.1,0-0.1,0
			c0,0-0.1,0.1-0.1,0.2v0.1c0,0.1,0,0.1,0.1,0.1c0,0,0.1,0,0.2,0h1c0.1,0,0.1,0,0.2,0c0,0,0.1,0,0.1-0.1c0,0,0-0.1,0.1-0.1
			c0,0,0-0.1,0-0.2V162.5z"/>
		<path class="st0" d="M430,163.9v-0.4h0.1c0.1,0,0.1,0,0.2,0c0,0,0.1,0,0.1,0c0,0,0-0.1,0.1-0.1c0,0,0-0.1,0-0.1v-1.7h0.5v1.7
			c0,0.3-0.1,0.4-0.2,0.6c-0.1,0.1-0.4,0.2-0.7,0.2H430z M430.7,161.3c-0.1,0-0.1,0-0.1,0c0,0,0-0.1,0-0.1v-0.2c0-0.1,0-0.1,0-0.1
			c0,0,0.1,0,0.1,0h0.2c0.1,0,0.1,0,0.1,0c0,0,0,0.1,0,0.1v0.2c0,0.1,0,0.1,0,0.1c0,0-0.1,0-0.1,0H430.7z"/>
		<path class="st0" d="M432.1,163.3c-0.1,0-0.3,0-0.3,0c-0.1,0-0.2-0.1-0.2-0.1c-0.1,0-0.1-0.1-0.1-0.2c0-0.1,0-0.1,0-0.2v-0.2
			c0-0.1,0-0.2,0-0.2c0-0.1,0.1-0.1,0.1-0.2c0,0,0.1-0.1,0.2-0.1c0.1,0,0.2,0,0.3,0h1.4v0c0-0.1,0-0.2-0.1-0.2c0,0-0.1-0.1-0.3-0.1
			h-0.5v-0.4h0.5c0.2,0,0.3,0,0.4,0c0.1,0,0.2,0.1,0.3,0.1c0.1,0.1,0.1,0.1,0.2,0.2c0,0.1,0,0.2,0,0.3v0.5c0,0.1,0,0.3,0,0.3
			c0,0.1-0.1,0.2-0.1,0.2c-0.1,0.1-0.2,0.1-0.3,0.1c-0.1,0-0.3,0-0.4,0H432.1z M433.5,162.5h-1.4c-0.1,0-0.1,0-0.1,0
			c0,0-0.1,0.1-0.1,0.2v0.1c0,0.1,0,0.1,0.1,0.1c0,0,0.1,0,0.2,0h1c0.1,0,0.1,0,0.2,0c0,0,0.1,0,0.1-0.1c0,0,0-0.1,0.1-0.1
			c0,0,0-0.1,0-0.2V162.5z"/>
		<path class="st0" d="M436,163.3l-1.1-0.9v0.9h-0.5v-2.5h0.5v1.5l1.1-0.9h0.7l-1.2,0.9l1.2,1H436z"/>
		<path class="st0" d="M438.5,161.4c0.2,0,0.3,0,0.4,0c0.1,0,0.2,0.1,0.3,0.1c0.1,0.1,0.1,0.2,0.1,0.3c0,0.1,0,0.2,0,0.4v0.3
			c0,0.2,0,0.3,0,0.4c0,0.1-0.1,0.2-0.1,0.3c-0.1,0.1-0.2,0.1-0.3,0.1c-0.1,0-0.3,0-0.4,0h-1.1v0.6H437v-1.7c0-0.2,0-0.3,0-0.4
			c0-0.1,0.1-0.2,0.2-0.3c0.1-0.1,0.2-0.1,0.3-0.1c0.1,0,0.3,0,0.4,0H438.5z M438.9,162.3c0-0.1,0-0.2,0-0.2c0-0.1,0-0.1-0.1-0.1
			c0,0-0.1,0-0.1-0.1c-0.1,0-0.1,0-0.2,0h-0.6c-0.1,0-0.2,0-0.2,0c-0.1,0-0.1,0-0.1,0.1c0,0-0.1,0.1-0.1,0.1c0,0.1,0,0.1,0,0.2v0.6
			h1c0.1,0,0.2,0,0.2,0c0.1,0,0.1,0,0.1-0.1c0,0,0.1-0.1,0.1-0.1c0-0.1,0-0.1,0-0.2V162.3z"/>
		<path class="st0" d="M440.8,163.3c-0.2,0-0.3,0-0.4,0c-0.1,0-0.2-0.1-0.3-0.1c-0.1-0.1-0.1-0.1-0.2-0.3c0-0.1,0-0.2,0-0.4v-0.3
			c0-0.2,0-0.3,0-0.4c0-0.1,0.1-0.2,0.2-0.3c0.1-0.1,0.2-0.1,0.3-0.1c0.1,0,0.3,0,0.4,0h0.6c0.2,0,0.3,0,0.4,0
			c0.1,0,0.2,0.1,0.3,0.1c0.1,0.1,0.1,0.2,0.2,0.3c0,0.1,0,0.2,0,0.4v0.3c0,0.2,0,0.3,0,0.4c0,0.1-0.1,0.2-0.2,0.3
			c-0.1,0.1-0.2,0.1-0.3,0.1c-0.1,0-0.3,0-0.4,0H440.8z M441.8,162.3c0-0.1,0-0.1,0-0.2c0-0.1,0-0.1-0.1-0.1c0,0-0.1,0-0.1-0.1
			c-0.1,0-0.1,0-0.2,0h-0.5c-0.1,0-0.2,0-0.2,0c-0.1,0-0.1,0-0.1,0.1c0,0-0.1,0.1-0.1,0.1s0,0.1,0,0.2v0.2c0,0.1,0,0.1,0,0.2
			c0,0.1,0,0.1,0.1,0.1c0,0,0.1,0.1,0.1,0.1c0.1,0,0.1,0,0.2,0h0.5c0.1,0,0.2,0,0.2,0c0.1,0,0.1,0,0.1-0.1c0,0,0.1-0.1,0.1-0.1
			c0-0.1,0-0.1,0-0.2V162.3z"/>
		<path class="st0" d="M442.7,163.3v-2.5h0.5v2.5H442.7z"/>
		<path class="st0" d="M444.6,163.3c-0.2,0-0.3,0-0.4,0c-0.1,0-0.2-0.1-0.3-0.1c-0.1-0.1-0.1-0.1-0.2-0.3c0-0.1,0-0.2,0-0.4v-0.3
			c0-0.2,0-0.3,0-0.4c0-0.1,0.1-0.2,0.2-0.3c0.1-0.1,0.2-0.1,0.3-0.1c0.1,0,0.3,0,0.4,0h0.6c0.2,0,0.3,0,0.4,0
			c0.1,0,0.2,0.1,0.3,0.1c0.1,0.1,0.1,0.2,0.2,0.3c0,0.1,0,0.2,0,0.4v0.3c0,0.2,0,0.3,0,0.4c0,0.1-0.1,0.2-0.2,0.3
			c-0.1,0.1-0.2,0.1-0.3,0.1c-0.1,0-0.3,0-0.4,0H444.6z M445.6,162.3c0-0.1,0-0.1,0-0.2c0-0.1,0-0.1-0.1-0.1c0,0-0.1,0-0.1-0.1
			c-0.1,0-0.1,0-0.2,0h-0.5c-0.1,0-0.2,0-0.2,0c-0.1,0-0.1,0-0.1,0.1c0,0-0.1,0.1-0.1,0.1c0,0.1,0,0.1,0,0.2v0.2c0,0.1,0,0.1,0,0.2
			c0,0.1,0,0.1,0.1,0.1c0,0,0.1,0.1,0.1,0.1c0.1,0,0.1,0,0.2,0h0.5c0.1,0,0.2,0,0.2,0c0.1,0,0.1,0,0.1-0.1c0,0,0.1-0.1,0.1-0.1
			c0-0.1,0-0.1,0-0.2V162.3z"/>
	</g>
</g>
<rect x="108.9" y="13" class="st1" width="374.8" height="532.6"/>
<rect x="217.8" y="13" class="st2" width="266" height="376.3"/>
<rect x="296.7" y="13" class="st3" width="187" height="266.7"/>
<rect x="351.5" y="13" class="st4" width="132.2" height="190"/>
<g>
	<path class="st5" d="M129.4,39.2h-10.2l-2.2,5.7h-0.7l7.6-20h0.6l7.6,20h-0.7L129.4,39.2z M129.2,38.7l-4.9-12.8l-4.9,12.8H129.2z"
		/>
	<path class="st5" d="M146,25.5c1,1,1.5,2.2,1.5,3.7c0,1.2-0.4,2.3-1.2,3.3s-2.1,1.5-3.9,1.6v0.2c1.7,0.4,3.1,1,4,1.9
		c1,0.8,1.5,2,1.5,3.6c0,1.6-0.5,2.9-1.5,3.9c-1,1-2.6,1.5-4.6,1.5c-1.9,0-3.5-0.5-4.8-1.6c-1.2-1-2-2.5-2.4-4.4h0.6
		c0.3,1.6,1,2.9,2.1,3.9c1.1,1,2.6,1.5,4.4,1.5c1.8,0,3.2-0.5,4.2-1.4c1-0.9,1.4-2.1,1.4-3.5c0-1.7-0.7-3-2-3.9
		c-1.3-0.9-3.2-1.3-5.6-1.3h-0.5v-0.6h0.5c4.8,0,7.2-1.6,7.2-4.7c0-1.4-0.5-2.5-1.4-3.3s-2.2-1.3-3.8-1.3c-1.6,0-3,0.4-4.1,1.3
		c-1.2,0.8-1.8,2.1-2,3.9H135c0.2-1.8,0.9-3.2,2-4.2c1.2-1,2.7-1.5,4.7-1.5C143.6,24.1,145,24.6,146,25.5z"/>
</g>
<g>
	<path class="st5" d="M240.5,39.2h-10.2l-2.2,5.7h-0.7l7.6-20h0.6l7.6,20h-0.7L240.5,39.2z M240.3,38.7l-4.9-12.8l-4.9,12.8H240.3z"
		/>
	<path class="st5" d="M244.7,39.3v-0.5l11.6-14.6h0.6v14.5h3.6v0.5h-3.6v5.6h-0.6v-5.6H244.7z M256.3,25.2l-10.9,13.6h10.9V25.2z"/>
</g>
<g>
	<path class="st5" d="M315,39.2h-10.2l-2.2,5.7H302l7.6-20h0.6l7.6,20h-0.7L315,39.2z M314.8,38.7l-4.9-12.8L305,38.7H314.8z"/>
	<path class="st5" d="M333.4,24.8h-11.7v9.4c0.6-0.8,1.4-1.5,2.5-2c1.1-0.5,2.3-0.8,3.6-0.8c2.3,0,3.9,0.6,5,1.9s1.7,2.8,1.7,4.7
		c0,1.3-0.2,2.5-0.7,3.5c-0.5,1.1-1.2,1.9-2.2,2.6c-1,0.7-2.3,1-3.9,1c-1.8,0-3.4-0.5-4.6-1.5c-1.2-1-2-2.5-2.3-4.3h0.6
		c0.3,1.7,1.1,3,2.2,3.9c1.1,0.9,2.5,1.3,4.1,1.3c2.1,0,3.6-0.6,4.7-1.8c1.1-1.2,1.6-2.8,1.6-4.7c0-1.9-0.5-3.3-1.6-4.4
		c-1.1-1.1-2.6-1.6-4.5-1.6c-1.3,0-2.6,0.3-3.6,0.8c-1.1,0.6-1.9,1.4-2.5,2.4H321V24.3h12.3V24.8z"/>
</g>
<g>
	<path class="st5" d="M372.7,39.2h-10.2l-2.2,5.7h-0.7l7.6-20h0.6l7.6,20h-0.7L372.7,39.2z M372.5,38.7l-4.9-12.8l-4.9,12.8H372.5z"
		/>
	<path class="st5" d="M389.5,25.9c-0.9-0.9-2.1-1.3-3.7-1.3c-2.2,0-3.9,0.8-5,2.4c-1.2,1.6-1.7,4.1-1.7,7.7c0,0.7,0,1.2,0,1.5
		c0.3-1.5,1-2.7,2.3-3.6c1.3-0.9,2.8-1.4,4.5-1.4c2.2,0,3.8,0.6,5,1.9s1.8,3,1.8,5.2c0,1.2-0.2,2.3-0.7,3.3c-0.4,1-1.2,1.8-2.2,2.5
		s-2.3,0.9-3.8,0.9c-2.9,0-4.9-0.9-5.9-2.7c-1.1-1.8-1.6-4.3-1.6-7.4c0-3.5,0.6-6.2,1.7-8.1c1.1-1.9,3-2.8,5.6-2.8
		c1.8,0,3.1,0.5,4.2,1.5c1,1,1.6,2.3,1.8,4.1h-0.6C390.9,28,390.4,26.8,389.5,25.9z M379.9,41c0.5,1,1.2,1.9,2.2,2.5
		c1,0.7,2.3,1,3.8,1c1.8,0,3.3-0.6,4.4-1.7c1.1-1.1,1.7-2.6,1.7-4.6c0-2.1-0.6-3.8-1.7-4.9c-1.1-1.1-2.6-1.7-4.5-1.7
		c-1.1,0-2.1,0.2-3.1,0.7c-1,0.4-1.8,1.1-2.5,2c-0.7,0.9-1,2-1,3.3C379.2,38.9,379.4,40,379.9,41z"/>
</g>
<polyline class="st6" points="402.9,175.6 402.9,182.5 446.9,182.5 446.9,174.5 "/>
<g>
	<path class="st5" d="M416.2,189.8c0.4,0.1,0.7,0.2,0.9,0.5c0.2,0.3,0.3,0.6,0.3,1c0,0.3,0,0.5-0.1,0.7c-0.1,0.2-0.2,0.4-0.4,0.6
		c-0.2,0.2-0.4,0.3-0.7,0.4c-0.3,0.1-0.5,0.1-0.9,0.1c-0.4,0-0.8-0.1-1.2-0.3s-0.6-0.4-0.8-0.7l0.5-0.5c0.1,0.2,0.3,0.4,0.5,0.6
		c0.2,0.1,0.5,0.2,0.9,0.2c0.4,0,0.7-0.1,1-0.3c0.2-0.2,0.3-0.5,0.3-0.8s-0.1-0.7-0.4-0.9c-0.2-0.2-0.6-0.3-1.1-0.3h-0.2v-0.6h0.2
		c0.4,0,0.7-0.1,1-0.3c0.2-0.2,0.3-0.5,0.3-0.8c0-0.3-0.1-0.5-0.3-0.7c-0.2-0.2-0.5-0.2-0.8-0.2c-0.3,0-0.6,0.1-0.8,0.2
		c-0.2,0.1-0.4,0.3-0.6,0.6l-0.5-0.5c0.1-0.1,0.2-0.3,0.3-0.4c0.1-0.1,0.3-0.2,0.5-0.3c0.2-0.1,0.4-0.2,0.6-0.2
		c0.2,0,0.4-0.1,0.6-0.1c0.3,0,0.5,0,0.8,0.1c0.2,0.1,0.4,0.2,0.6,0.3c0.2,0.1,0.3,0.3,0.4,0.5c0.1,0.2,0.1,0.4,0.1,0.6
		c0,0.2,0,0.3-0.1,0.5c0,0.2-0.1,0.3-0.2,0.4c-0.1,0.1-0.2,0.2-0.4,0.3C416.5,189.7,416.3,189.7,416.2,189.8z"/>
	<path class="st5" d="M422.7,189.3c0,0.4-0.1,0.7-0.2,1.1c-0.1,0.3-0.3,0.6-0.5,0.8c-0.2,0.2-0.4,0.4-0.7,0.6
		c-0.3,0.1-0.6,0.2-0.9,0.2c-0.3,0-0.6-0.1-0.9-0.2c-0.3-0.1-0.5-0.3-0.7-0.6c-0.2-0.2-0.3-0.5-0.5-0.8c-0.1-0.3-0.2-0.7-0.2-1.1
		s0.1-0.7,0.2-1.1c0.1-0.3,0.3-0.6,0.5-0.8c0.2-0.2,0.4-0.4,0.7-0.6c0.3-0.1,0.6-0.2,0.9-0.2c0.3,0,0.6,0.1,0.9,0.2
		c0.3,0.1,0.5,0.3,0.7,0.6c0.2,0.2,0.4,0.5,0.5,0.8C422.6,188.5,422.7,188.9,422.7,189.3z M421.9,189.3c0-0.3,0-0.5-0.1-0.8
		c-0.1-0.2-0.2-0.4-0.3-0.6c-0.1-0.2-0.3-0.3-0.5-0.4c-0.2-0.1-0.4-0.1-0.6-0.1c-0.2,0-0.4,0-0.6,0.1c-0.2,0.1-0.3,0.2-0.5,0.4
		c-0.1,0.2-0.2,0.4-0.3,0.6c-0.1,0.2-0.1,0.5-0.1,0.8c0,0.3,0,0.6,0.1,0.8c0.1,0.2,0.2,0.4,0.3,0.6c0.1,0.2,0.3,0.3,0.5,0.4
		c0.2,0.1,0.4,0.1,0.6,0.1c0.2,0,0.4,0,0.6-0.1c0.2-0.1,0.3-0.2,0.5-0.4c0.1-0.2,0.2-0.4,0.3-0.6
		C421.8,189.8,421.9,189.6,421.9,189.3z"/>
	<path class="st5" d="M430.7,191.8h-0.8v-2.6c0-0.5-0.1-0.8-0.2-1.1c-0.2-0.2-0.4-0.3-0.7-0.3c-0.3,0-0.6,0.1-0.8,0.3
		c-0.2,0.2-0.4,0.5-0.5,0.9v2.8h-0.8v-2.6c0-0.5-0.1-0.8-0.2-1.1c-0.2-0.2-0.4-0.3-0.7-0.3c-0.3,0-0.6,0.1-0.8,0.3
		c-0.3,0.2-0.4,0.5-0.5,0.9v2.8h-0.8v-4.6h0.7v1c0.2-0.3,0.4-0.6,0.7-0.8c0.3-0.2,0.6-0.3,1-0.3c0.4,0,0.7,0.1,0.9,0.3
		c0.2,0.2,0.4,0.5,0.4,0.8c0.4-0.7,1-1.1,1.7-1.1c0.3,0,0.5,0,0.7,0.1c0.2,0.1,0.3,0.2,0.4,0.4c0.1,0.2,0.2,0.4,0.2,0.6
		c0,0.2,0.1,0.5,0.1,0.8V191.8z"/>
	<path class="st5" d="M438.8,191.8H438v-2.6c0-0.5-0.1-0.8-0.2-1.1c-0.2-0.2-0.4-0.3-0.7-0.3c-0.3,0-0.6,0.1-0.8,0.3
		c-0.2,0.2-0.4,0.5-0.5,0.9v2.8h-0.8v-2.6c0-0.5-0.1-0.8-0.2-1.1c-0.2-0.2-0.4-0.3-0.7-0.3c-0.3,0-0.6,0.1-0.8,0.3
		c-0.3,0.2-0.4,0.5-0.5,0.9v2.8h-0.8v-4.6h0.7v1c0.2-0.3,0.4-0.6,0.7-0.8c0.3-0.2,0.6-0.3,1-0.3c0.4,0,0.7,0.1,0.9,0.3
		c0.2,0.2,0.4,0.5,0.4,0.8c0.4-0.7,1-1.1,1.7-1.1c0.3,0,0.5,0,0.7,0.1c0.2,0.1,0.3,0.2,0.4,0.4c0.1,0.2,0.2,0.4,0.2,0.6
		c0,0.2,0.1,0.5,0.1,0.8V191.8z"/>
</g>
<g>
	<g>
		<path class="st0" d="M415.2,233.6c0-4.3-3.5-7.9-7.9-7.9c-0.2,0-0.4,0-0.6,0c-0.6,0-1.3,0.2-2.2,0.4c-2.2,0.7-7.4,3.3-12.1,11.7
			c-0.1-0.4-0.4-1.4-0.4-2.4c-1.3,2.3-1.3,8.3-1.3,8.3l1.3-2.7c2.8-5.9,5.9-9.4,8.5-11.4c-0.6,1-0.9,2.2-1,3.5
			c-3.1,3-5.7,7.3-7.9,13l-0.5-1.4c-0.3,1.2-0.9,5.3-0.8,6.4c1.4-0.9,3.9-4.7,4.1-5.1c-0.8,0.3-1.4,0.5-1.8,0.6
			c2.3-5.9,4.8-9.6,7-12.1c0.1,0.8,0.4,1.6,0.7,2.4c-1.2,1.4-2.6,3.4-4,5.9l-1.3,2.8c0,0,4.4-3.1,5.6-4.6c-1.1,0.4-2,0.7-2.4,0.8
			c1-1.6,1.9-2.9,2.7-3.9c1.4,2.1,3.8,3.4,6.5,3.4c2,0,3.8-0.7,5.1-1.9c0.1-0.1,0.2-0.1,0.2-0.1C414.2,238,415.2,235.9,415.2,233.6z
			 M412.1,238.4c-1.3,0-5.1-0.4-7.9-3.4c1.3-0.9,2.3-1.1,2.8-1.2c1.9,2.3,4.9,2.6,6.5,2.6c0.1,0,0.1,0,0.2,0
			C413.2,237.2,412.7,237.9,412.1,238.4z M410.1,234.7c-0.8-0.3-1.6-0.8-2.2-1.5c0.8-1.5,0.9-2.9,0.5-6.4c1,0.2,2,0.5,2.8,1.1
			C411.2,229.1,411.3,232.7,410.1,234.7z M414.1,233.6c0,0.6-0.1,1.2-0.2,1.7c-0.5,0-1.6,0-2.8-0.2c1-1.8,1.1-4.5,1.1-6.2
			C413.4,230.1,414.1,231.8,414.1,233.6z M406.8,226.8c0.3,0,0.4,0,0.5,0l0,0l0,0c0.1,0.8,0.2,1.5,0.2,2.1c-0.9,0.1-2.9,0.5-5.4,2.2
			c-0.5,0.3-0.9,0.6-1.3,1C401.4,229.2,403.8,227.1,406.8,226.8z M400.6,233.7c0.7-0.7,1.4-1.2,2-1.6c2.3-1.6,4.1-1.9,4.9-2
			c0,1.2-0.2,2-0.6,2.7c-0.8,0.1-3,0.6-5.8,3.5C400.8,235.4,400.6,234.6,400.6,233.7z M401.6,237.2c0.6-0.6,1.1-1.1,1.6-1.5
			c2.5,2.7,5.6,3.5,7.5,3.8c-1,0.6-2.2,0.9-3.4,0.9C404.9,240.4,402.8,239.1,401.6,237.2z"/>
	</g>
	<path class="st0" d="M403.9,249.8v-5.6H401v-1.3h7.4v1.3h-2.9v5.6H403.9z"/>
	<path class="st0" d="M414.8,249.8l-4.1-2.5v2.5h-1.5v-6.9h5.4c0.5,0,0.9,0,1.3,0.1c0.3,0.1,0.6,0.2,0.8,0.3
		c0.2,0.2,0.4,0.4,0.5,0.6c0.1,0.3,0.2,0.6,0.2,1v0.5c0,0.4-0.1,0.7-0.2,1c-0.1,0.3-0.3,0.5-0.5,0.6c-0.2,0.2-0.5,0.3-0.9,0.3
		c-0.3,0.1-0.8,0.1-1.2,0.1h-1.2l4.1,2.4H414.8z M415.8,245c0-0.2,0-0.3-0.1-0.4c0-0.1-0.1-0.2-0.2-0.3c-0.1-0.1-0.2-0.1-0.4-0.1
		s-0.4,0-0.6,0h-3.8v2.1h3.8c0.3,0,0.5,0,0.6,0c0.2,0,0.3-0.1,0.4-0.1c0.1-0.1,0.2-0.1,0.2-0.3c0-0.1,0.1-0.3,0.1-0.5V245z"/>
	<path class="st0" d="M418.5,249.8v-6.9h1.5v6.9H418.5z"/>
	<path class="st0" d="M423.7,249.8v-5.6h-2.9v-1.3h7.4v1.3h-2.9v5.6H423.7z"/>
	<path class="st0" d="M431.6,249.8c-0.5,0-0.9,0-1.3-0.1c-0.3-0.1-0.6-0.2-0.8-0.4c-0.2-0.2-0.3-0.4-0.4-0.7
		c-0.1-0.3-0.1-0.7-0.1-1.1v-2.2c0-0.4,0-0.8,0.1-1.1c0.1-0.3,0.2-0.6,0.4-0.7c0.2-0.2,0.5-0.3,0.8-0.4c0.3-0.1,0.8-0.1,1.3-0.1h2.6
		c0.5,0,0.9,0,1.3,0.1c0.3,0.1,0.6,0.2,0.8,0.4c0.2,0.2,0.3,0.4,0.4,0.7c0.1,0.3,0.1,0.7,0.1,1.1v2.2c0,0.4,0,0.8-0.1,1.1
		c-0.1,0.3-0.2,0.5-0.4,0.7c-0.2,0.2-0.5,0.3-0.8,0.4c-0.3,0.1-0.8,0.1-1.3,0.1H431.6z M435.4,245.3c0-0.2,0-0.4-0.1-0.5
		c0-0.1-0.1-0.3-0.2-0.3c-0.1-0.1-0.2-0.1-0.4-0.2c-0.2,0-0.3-0.1-0.6-0.1h-2.5c-0.2,0-0.4,0-0.6,0.1c-0.2,0-0.3,0.1-0.4,0.2
		c-0.1,0.1-0.1,0.2-0.2,0.3s0,0.3,0,0.5v2c0,0.2,0,0.4,0,0.6s0.1,0.3,0.2,0.3c0.1,0.1,0.2,0.1,0.4,0.2c0.2,0,0.4,0,0.6,0h2.5
		c0.2,0,0.4,0,0.6,0c0.2,0,0.3-0.1,0.4-0.2s0.2-0.2,0.2-0.3c0-0.1,0.1-0.3,0.1-0.6V245.3z"/>
	<path class="st0" d="M445.4,249.9c-0.2,0-0.3,0-0.5-0.1c-0.1-0.1-0.3-0.1-0.4-0.2l-5.1-4.8v4.9H438v-6.5c0-0.2,0.1-0.4,0.2-0.5
		c0.2-0.1,0.4-0.2,0.6-0.2c0.2,0,0.3,0,0.4,0.1s0.2,0.1,0.3,0.2l5.1,4.9v-5h1.5v6.5c0,0.2-0.1,0.4-0.2,0.5
		C445.8,249.9,445.6,249.9,445.4,249.9z"/>
	<g>
		<path class="st0" d="M420.9,241.5l-1.7-1.5v1.5h-0.7v-3.1h0.7v1.5l1.7-1.5h0.9l-1.8,1.5l1.8,1.6H420.9z"/>
		<path class="st0" d="M422.9,241.5c-0.2,0-0.3,0-0.4,0c-0.1,0-0.2-0.1-0.3-0.1c-0.1-0.1-0.1-0.1-0.1-0.2c0-0.1,0-0.2,0-0.3v-0.2
			c0-0.1,0-0.2,0-0.3c0-0.1,0.1-0.1,0.1-0.2c0.1-0.1,0.2-0.1,0.3-0.1c0.1,0,0.3,0,0.4,0h1.8v-0.1c0-0.2,0-0.3-0.1-0.3
			c-0.1-0.1-0.2-0.1-0.3-0.1h-0.7V239h0.7c0.2,0,0.4,0,0.5,0.1c0.1,0,0.3,0.1,0.3,0.2c0.1,0.1,0.2,0.2,0.2,0.3
			c0,0.1,0.1,0.3,0.1,0.4v0.6c0,0.2,0,0.3-0.1,0.5c0,0.1-0.1,0.2-0.2,0.3c-0.1,0.1-0.2,0.1-0.3,0.2c-0.1,0-0.3,0-0.5,0H422.9z
			 M424.7,240.4h-1.8c-0.1,0-0.1,0-0.2,0.1c0,0-0.1,0.1-0.1,0.2v0.2c0,0.1,0,0.1,0.1,0.2c0,0,0.1,0,0.2,0h1.3c0.1,0,0.1,0,0.2,0
			c0.1,0,0.1,0,0.1-0.1c0,0,0.1-0.1,0.1-0.1c0-0.1,0-0.1,0-0.2V240.4z"/>
		<path class="st0" d="M425.3,242.3v-0.6h0.2c0.1,0,0.2,0,0.2,0c0.1,0,0.1,0,0.1-0.1c0,0,0.1-0.1,0.1-0.1c0,0,0-0.1,0-0.2v-2.2h0.7
			v2.2c0,0.3-0.1,0.6-0.3,0.7c-0.2,0.1-0.5,0.2-0.8,0.2H425.3z M426.1,238.9c-0.1,0-0.1,0-0.2,0c0,0-0.1-0.1-0.1-0.2v-0.3
			c0-0.1,0-0.1,0.1-0.2c0,0,0.1,0,0.2,0h0.2c0.1,0,0.1,0,0.2,0c0,0,0.1,0.1,0.1,0.2v0.3c0,0.1,0,0.1-0.1,0.2c0,0-0.1,0-0.2,0H426.1z
			"/>
		<path class="st0" d="M428,241.5c-0.2,0-0.3,0-0.4,0c-0.1,0-0.2-0.1-0.3-0.1c-0.1-0.1-0.1-0.1-0.1-0.2c0-0.1,0-0.2,0-0.3v-0.2
			c0-0.1,0-0.2,0-0.3c0-0.1,0.1-0.1,0.1-0.2c0.1-0.1,0.2-0.1,0.3-0.1c0.1,0,0.3,0,0.4,0h1.8v-0.1c0-0.2,0-0.3-0.1-0.3
			c-0.1-0.1-0.2-0.1-0.3-0.1h-0.7V239h0.7c0.2,0,0.4,0,0.5,0.1c0.1,0,0.3,0.1,0.3,0.2c0.1,0.1,0.2,0.2,0.2,0.3
			c0,0.1,0.1,0.3,0.1,0.4v0.6c0,0.2,0,0.3-0.1,0.5c0,0.1-0.1,0.2-0.2,0.3c-0.1,0.1-0.2,0.1-0.3,0.2c-0.1,0-0.3,0-0.5,0H428z
			 M429.7,240.4H428c-0.1,0-0.1,0-0.2,0.1c0,0-0.1,0.1-0.1,0.2v0.2c0,0.1,0,0.1,0.1,0.2c0,0,0.1,0,0.2,0h1.3c0.1,0,0.1,0,0.2,0
			c0.1,0,0.1,0,0.1-0.1c0,0,0.1-0.1,0.1-0.1c0-0.1,0-0.1,0-0.2V240.4z"/>
		<path class="st0" d="M433.1,241.5l-1.4-1.2v1.2h-0.7v-3.3h0.7v1.9l1.4-1.1h0.9l-1.5,1.2l1.6,1.3H433.1z"/>
		<path class="st0" d="M436.3,239c0.2,0,0.4,0,0.6,0.1c0.2,0,0.3,0.1,0.4,0.2c0.1,0.1,0.2,0.2,0.2,0.3c0,0.1,0.1,0.3,0.1,0.5v0.3
			c0,0.2,0,0.4-0.1,0.5c0,0.1-0.1,0.2-0.2,0.3c-0.1,0.1-0.2,0.1-0.4,0.2c-0.2,0-0.3,0.1-0.6,0.1h-1.4v0.7h-0.7v-2.1
			c0-0.2,0-0.4,0.1-0.5c0-0.1,0.1-0.2,0.2-0.3c0.1-0.1,0.2-0.1,0.4-0.2c0.2,0,0.3-0.1,0.6-0.1H436.3z M436.8,240.1
			c0-0.1,0-0.2,0-0.3c0-0.1,0-0.1-0.1-0.2c0,0-0.1-0.1-0.2-0.1c-0.1,0-0.2,0-0.3,0h-0.8c-0.1,0-0.2,0-0.3,0c-0.1,0-0.1,0-0.2,0.1
			c0,0-0.1,0.1-0.1,0.2c0,0.1,0,0.1,0,0.2v0.8h1.3c0.1,0,0.2,0,0.3,0c0.1,0,0.1,0,0.2-0.1c0,0,0.1-0.1,0.1-0.2c0-0.1,0-0.2,0-0.3
			V240.1z"/>
		<path class="st0" d="M439.2,241.5c-0.2,0-0.4,0-0.6-0.1c-0.2,0-0.3-0.1-0.4-0.2c-0.1-0.1-0.2-0.2-0.2-0.3c0-0.1-0.1-0.3-0.1-0.5
			v-0.3c0-0.2,0-0.4,0.1-0.5c0-0.1,0.1-0.2,0.2-0.3c0.1-0.1,0.2-0.1,0.4-0.2c0.2,0,0.3-0.1,0.6-0.1h0.8c0.2,0,0.4,0,0.6,0.1
			c0.2,0,0.3,0.1,0.4,0.2c0.1,0.1,0.2,0.2,0.2,0.3c0,0.1,0.1,0.3,0.1,0.5v0.3c0,0.2,0,0.4-0.1,0.5c0,0.1-0.1,0.2-0.2,0.3
			c-0.1,0.1-0.2,0.1-0.4,0.2c-0.2,0-0.3,0.1-0.6,0.1H439.2z M440.5,240.1c0-0.1,0-0.2,0-0.3c0-0.1,0-0.1-0.1-0.2
			c0,0-0.1-0.1-0.2-0.1c-0.1,0-0.2,0-0.3,0h-0.6c-0.1,0-0.2,0-0.3,0c-0.1,0-0.1,0-0.2,0.1c0,0-0.1,0.1-0.1,0.2c0,0.1,0,0.2,0,0.3
			v0.3c0,0.1,0,0.2,0,0.3c0,0.1,0,0.1,0.1,0.2c0,0,0.1,0.1,0.2,0.1c0.1,0,0.2,0,0.3,0h0.6c0.1,0,0.2,0,0.3,0c0.1,0,0.1,0,0.2-0.1
			c0,0,0.1-0.1,0.1-0.2c0-0.1,0-0.2,0-0.3V240.1z"/>
		<path class="st0" d="M441.7,241.5v-3.3h0.7v3.3H441.7z"/>
		<path class="st0" d="M444.1,241.5c-0.2,0-0.4,0-0.6-0.1c-0.2,0-0.3-0.1-0.4-0.2c-0.1-0.1-0.2-0.2-0.2-0.3c0-0.1-0.1-0.3-0.1-0.5
			v-0.3c0-0.2,0-0.4,0.1-0.5c0-0.1,0.1-0.2,0.2-0.3c0.1-0.1,0.2-0.1,0.4-0.2c0.2,0,0.3-0.1,0.6-0.1h0.8c0.2,0,0.4,0,0.6,0.1
			c0.2,0,0.3,0.1,0.4,0.2c0.1,0.1,0.2,0.2,0.2,0.3c0,0.1,0.1,0.3,0.1,0.5v0.3c0,0.2,0,0.4-0.1,0.5c0,0.1-0.1,0.2-0.2,0.3
			c-0.1,0.1-0.2,0.1-0.4,0.2c-0.2,0-0.3,0.1-0.6,0.1H444.1z M445.5,240.1c0-0.1,0-0.2,0-0.3c0-0.1,0-0.1-0.1-0.2
			c0,0-0.1-0.1-0.2-0.1c-0.1,0-0.2,0-0.3,0h-0.6c-0.1,0-0.2,0-0.3,0c-0.1,0-0.1,0-0.2,0.1c0,0-0.1,0.1-0.1,0.2s0,0.2,0,0.3v0.3
			c0,0.1,0,0.2,0,0.3c0,0.1,0,0.1,0.1,0.2c0,0,0.1,0.1,0.2,0.1c0.1,0,0.2,0,0.3,0h0.6c0.1,0,0.2,0,0.3,0c0.1,0,0.1,0,0.2-0.1
			c0,0,0.1-0.1,0.1-0.2c0-0.1,0-0.2,0-0.3V240.1z"/>
	</g>
</g>
<polyline class="st7" points="392.2,255.9 392.2,262.9 446.9,262.9 446.9,254.8 "/>
<g>
	<path class="st5" d="M408.7,273.3v-1.5h-2.8v-0.7l3.1-4h0.5v3.9h0.8v0.7h-0.8v1.5H408.7z M406.7,271.1h2.1v-2.7L406.7,271.1z"/>
	<path class="st5" d="M415.5,269.6c0,0.4-0.1,0.7-0.2,1.1c-0.1,0.3-0.3,0.6-0.5,0.8c-0.2,0.2-0.4,0.4-0.7,0.6
		c-0.3,0.1-0.6,0.2-0.9,0.2c-0.3,0-0.6-0.1-0.9-0.2c-0.3-0.1-0.5-0.3-0.7-0.6c-0.2-0.2-0.3-0.5-0.5-0.8c-0.1-0.3-0.2-0.7-0.2-1.1
		s0.1-0.7,0.2-1.1c0.1-0.3,0.3-0.6,0.5-0.8c0.2-0.2,0.4-0.4,0.7-0.6c0.3-0.1,0.6-0.2,0.9-0.2c0.3,0,0.6,0.1,0.9,0.2
		c0.3,0.1,0.5,0.3,0.7,0.6c0.2,0.2,0.4,0.5,0.5,0.8C415.5,268.9,415.5,269.3,415.5,269.6z M414.7,269.6c0-0.3,0-0.5-0.1-0.8
		c-0.1-0.2-0.2-0.4-0.3-0.6c-0.1-0.2-0.3-0.3-0.5-0.4c-0.2-0.1-0.4-0.1-0.6-0.1c-0.2,0-0.4,0-0.6,0.1c-0.2,0.1-0.3,0.2-0.5,0.4
		c-0.1,0.2-0.2,0.4-0.3,0.6c-0.1,0.2-0.1,0.5-0.1,0.8c0,0.3,0,0.6,0.1,0.8c0.1,0.2,0.2,0.4,0.3,0.6c0.1,0.2,0.3,0.3,0.5,0.4
		c0.2,0.1,0.4,0.1,0.6,0.1c0.2,0,0.4,0,0.6-0.1c0.2-0.1,0.3-0.2,0.5-0.4c0.1-0.2,0.2-0.4,0.3-0.6
		C414.7,270.2,414.7,269.9,414.7,269.6z"/>
	<path class="st5" d="M423.5,272.2h-0.8v-2.6c0-0.5-0.1-0.8-0.2-1.1c-0.2-0.2-0.4-0.3-0.7-0.3c-0.3,0-0.6,0.1-0.8,0.3
		c-0.2,0.2-0.4,0.5-0.5,0.9v2.8h-0.8v-2.6c0-0.5-0.1-0.8-0.2-1.1c-0.2-0.2-0.4-0.3-0.7-0.3c-0.3,0-0.6,0.1-0.8,0.3
		c-0.3,0.2-0.4,0.5-0.5,0.9v2.8h-0.8v-4.6h0.7v1c0.2-0.3,0.4-0.6,0.7-0.8c0.3-0.2,0.6-0.3,1-0.3c0.4,0,0.7,0.1,0.9,0.3
		c0.2,0.2,0.4,0.5,0.4,0.8c0.4-0.7,1-1.1,1.7-1.1c0.3,0,0.5,0,0.7,0.1c0.2,0.1,0.3,0.2,0.4,0.4c0.1,0.2,0.2,0.4,0.2,0.6
		c0,0.2,0.1,0.5,0.1,0.8V272.2z"/>
	<path class="st5" d="M431.6,272.2h-0.8v-2.6c0-0.5-0.1-0.8-0.2-1.1c-0.2-0.2-0.4-0.3-0.7-0.3c-0.3,0-0.6,0.1-0.8,0.3
		c-0.2,0.2-0.4,0.5-0.5,0.9v2.8h-0.8v-2.6c0-0.5-0.1-0.8-0.2-1.1c-0.2-0.2-0.4-0.3-0.7-0.3c-0.3,0-0.6,0.1-0.8,0.3
		c-0.3,0.2-0.4,0.5-0.5,0.9v2.8h-0.8v-4.6h0.7v1c0.2-0.3,0.4-0.6,0.7-0.8c0.3-0.2,0.6-0.3,1-0.3c0.4,0,0.7,0.1,0.9,0.3
		c0.2,0.2,0.4,0.5,0.4,0.8c0.4-0.7,1-1.1,1.7-1.1c0.3,0,0.5,0,0.7,0.1c0.2,0.1,0.3,0.2,0.4,0.4c0.1,0.2,0.2,0.4,0.2,0.6
		c0,0.2,0.1,0.5,0.1,0.8V272.2z"/>
</g>
<g>
	<g>
		<path class="st0" d="M400.1,332.4c0-6.5-5.2-11.7-11.7-11.7c-0.3,0-0.6,0-0.9,0c-0.9,0-2,0.3-3.2,0.7c-3.2,1.1-11,4.9-18,17.5
			c-0.2-0.7-0.6-2-0.6-3.6c-2,3.4-2,12.3-2,12.3l1.9-4c4.2-8.8,8.8-14,12.6-17c-0.9,1.5-1.4,3.3-1.5,5.2
			c-4.5,4.4-8.5,10.9-11.8,19.4l-0.8-2.2c-0.5,1.8-1.3,7.8-1.2,9.5c2.1-1.3,5.8-7,6.1-7.6c-1.2,0.4-2.1,0.7-2.7,0.9
			c3.4-8.7,7.1-14.3,10.5-17.9c0.2,1.2,0.5,2.4,1.1,3.5c-1.9,2.1-3.9,5-5.9,8.8l-2,4.2c0,0,6.6-4.6,8.3-6.9c-1.6,0.7-3,1.1-3.6,1.2
			c1.4-2.4,2.8-4.3,4.1-5.8c2.1,3.1,5.6,5.1,9.6,5.1c2.9,0,5.6-1.1,7.6-2.8c0.1-0.1,0.2-0.2,0.2-0.2
			C398.6,338.9,400.1,335.8,400.1,332.4z M395.4,339.6c-2,0-7.6-0.6-11.8-5.1c1.9-1.3,3.4-1.7,4.1-1.8c2.9,3.4,7.3,3.9,9.7,3.9
			c0.1,0,0.2,0,0.2,0C397.1,337.7,396.3,338.8,395.4,339.6z M392.5,334.1c-1.2-0.5-2.4-1.1-3.3-2.2c1.1-2.2,1.4-4.3,0.7-9.5
			c1.5,0.2,2.9,0.8,4.2,1.6C394.1,325.7,394.3,331.2,392.5,334.1z M398.5,332.4c0,0.9-0.1,1.7-0.3,2.6c-0.8,0-2.4,0.1-4.1-0.3
			c1.5-2.7,1.7-6.8,1.6-9.2C397.4,327.2,398.5,329.7,398.5,332.4z M387.6,322.3c0.4,0,0.6,0,0.7,0.1l0,0l0,0
			c0.1,1.2,0.2,2.2,0.3,3.1c-1.4,0.1-4.3,0.7-8,3.2c-0.7,0.5-1.3,1-2,1.5C379.5,325.9,383.1,322.7,387.6,322.3z M378.3,332.5
			c1.1-1,2.1-1.8,3-2.5c3.4-2.3,6.1-2.9,7.3-3c0,1.9-0.3,2.9-0.9,4c-1.2,0.1-4.5,0.9-8.7,5.2C378.6,335.1,378.3,333.9,378.3,332.5z
			 M379.9,337.8c0.9-0.9,1.7-1.7,2.4-2.3c3.7,4,8.3,5.2,11.2,5.6c-1.5,0.9-3.2,1.4-5.1,1.4C384.8,342.5,381.7,340.6,379.9,337.8z"/>
	</g>
	<path class="st0" d="M383.3,356.5v-8.3H379v-2h11v2h-4.3v8.3H383.3z"/>
	<path class="st0" d="M399.5,356.5l-6-3.8v3.8h-2.3v-10.3h8.1c0.7,0,1.3,0,1.9,0.1c0.5,0.1,0.9,0.3,1.3,0.5c0.3,0.2,0.6,0.5,0.7,1
		c0.2,0.4,0.2,0.9,0.2,1.5v0.7c0,0.6-0.1,1.1-0.2,1.5c-0.2,0.4-0.4,0.7-0.7,0.9c-0.3,0.2-0.8,0.4-1.3,0.5c-0.5,0.1-1.1,0.1-1.8,0.1
		h-1.8l6.1,3.5H399.5z M401,349.4c0-0.3,0-0.5-0.1-0.7c-0.1-0.2-0.2-0.3-0.3-0.4s-0.3-0.2-0.6-0.2s-0.6,0-0.9,0h-5.6v3.2h5.6
		c0.4,0,0.7,0,0.9,0c0.2,0,0.4-0.1,0.6-0.2c0.1-0.1,0.3-0.2,0.3-0.4c0.1-0.2,0.1-0.4,0.1-0.7V349.4z"/>
	<path class="st0" d="M405,356.5v-10.3h2.3v10.3H405z"/>
	<path class="st0" d="M412.8,356.5v-8.3h-4.3v-2h11v2h-4.3v8.3H412.8z"/>
	<path class="st0" d="M424.5,356.5c-0.8,0-1.4-0.1-1.9-0.2c-0.5-0.1-0.9-0.3-1.2-0.6c-0.3-0.3-0.5-0.6-0.6-1.1
		c-0.1-0.4-0.2-1-0.2-1.7v-3.2c0-0.6,0.1-1.2,0.2-1.7c0.1-0.5,0.3-0.8,0.6-1.1c0.3-0.3,0.7-0.5,1.2-0.6c0.5-0.1,1.1-0.2,1.9-0.2h3.9
		c0.8,0,1.4,0.1,1.9,0.2c0.5,0.1,0.9,0.3,1.2,0.6c0.3,0.3,0.5,0.6,0.6,1.1c0.1,0.5,0.2,1,0.2,1.7v3.2c0,0.7-0.1,1.2-0.2,1.7
		c-0.1,0.4-0.3,0.8-0.6,1.1c-0.3,0.3-0.7,0.5-1.2,0.6c-0.5,0.1-1.1,0.2-1.9,0.2H424.5z M430.1,349.8c0-0.3,0-0.6-0.1-0.8
		c-0.1-0.2-0.1-0.4-0.3-0.5c-0.1-0.1-0.3-0.2-0.5-0.3c-0.2-0.1-0.5-0.1-0.8-0.1h-3.7c-0.4,0-0.7,0-0.9,0.1c-0.2,0.1-0.4,0.1-0.5,0.3
		c-0.1,0.1-0.2,0.3-0.3,0.5c0,0.2-0.1,0.5-0.1,0.8v3c0,0.3,0,0.6,0.1,0.8c0,0.2,0.1,0.4,0.3,0.5c0.1,0.1,0.3,0.2,0.5,0.3
		c0.2,0,0.5,0.1,0.9,0.1h3.7c0.3,0,0.6,0,0.8-0.1c0.2,0,0.4-0.1,0.5-0.3c0.1-0.1,0.2-0.3,0.3-0.5c0.1-0.2,0.1-0.5,0.1-0.8V349.8z"/>
	<path class="st0" d="M445,356.8c-0.2,0-0.5,0-0.7-0.1s-0.4-0.2-0.6-0.4l-7.5-7.1v7.3h-2.1v-9.6c0-0.3,0.1-0.6,0.3-0.7
		c0.2-0.2,0.5-0.2,0.9-0.2c0.3,0,0.5,0,0.7,0.1c0.2,0.1,0.3,0.2,0.4,0.3l7.6,7.3v-7.5h2.2v9.6c0,0.3-0.1,0.6-0.3,0.7
		C445.6,356.7,445.3,356.8,445,356.8z"/>
	<g>
		<path class="st0" d="M408.6,344.2l-2.6-2.3v2.3h-1v-4.6h1v2.2l2.5-2.2h1.4l-2.7,2.2l2.7,2.4H408.6z"/>
		<path class="st0" d="M411.5,344.2c-0.3,0-0.5,0-0.7-0.1c-0.2,0-0.3-0.1-0.4-0.2c-0.1-0.1-0.2-0.2-0.2-0.3c0-0.1-0.1-0.3-0.1-0.4
			v-0.3c0-0.2,0-0.3,0.1-0.4c0-0.1,0.1-0.2,0.2-0.3c0.1-0.1,0.2-0.1,0.4-0.2c0.2,0,0.4-0.1,0.6-0.1h2.7v-0.1c0-0.2,0-0.4-0.1-0.5
			c-0.1-0.1-0.3-0.1-0.5-0.1h-1v-0.7h1c0.3,0,0.5,0,0.8,0.1c0.2,0.1,0.4,0.1,0.5,0.2c0.1,0.1,0.2,0.3,0.3,0.4
			c0.1,0.2,0.1,0.4,0.1,0.6v0.9c0,0.3,0,0.5-0.1,0.7c-0.1,0.2-0.1,0.3-0.3,0.4c-0.1,0.1-0.3,0.2-0.5,0.2c-0.2,0-0.5,0.1-0.8,0.1
			H411.5z M414.2,342.5h-2.6c-0.1,0-0.2,0-0.3,0.1c-0.1,0.1-0.1,0.2-0.1,0.3v0.3c0,0.1,0,0.2,0.1,0.3c0.1,0.1,0.2,0.1,0.3,0.1h1.9
			c0.1,0,0.2,0,0.3,0c0.1,0,0.2-0.1,0.2-0.1c0.1,0,0.1-0.1,0.1-0.2c0-0.1,0-0.2,0-0.3V342.5z"/>
		<path class="st0" d="M415.1,345.3v-0.9h0.2c0.1,0,0.2,0,0.3,0c0.1,0,0.2,0,0.2-0.1c0.1,0,0.1-0.1,0.1-0.2c0-0.1,0-0.2,0-0.3v-3.2
			h1v3.3c0,0.5-0.1,0.9-0.4,1.1c-0.3,0.2-0.7,0.3-1.3,0.3H415.1z M416.3,340.3c-0.1,0-0.2,0-0.3-0.1c-0.1-0.1-0.1-0.1-0.1-0.2v-0.4
			c0-0.1,0-0.2,0.1-0.2c0.1,0,0.1-0.1,0.3-0.1h0.3c0.1,0,0.2,0,0.3,0.1c0.1,0,0.1,0.1,0.1,0.2v0.4c0,0.1,0,0.2-0.1,0.2
			c-0.1,0.1-0.1,0.1-0.3,0.1H416.3z"/>
		<path class="st0" d="M419.1,344.2c-0.3,0-0.5,0-0.7-0.1c-0.2,0-0.3-0.1-0.4-0.2c-0.1-0.1-0.2-0.2-0.2-0.3c0-0.1-0.1-0.3-0.1-0.4
			v-0.3c0-0.2,0-0.3,0.1-0.4c0-0.1,0.1-0.2,0.2-0.3c0.1-0.1,0.2-0.1,0.4-0.2c0.2,0,0.4-0.1,0.6-0.1h2.7v-0.1c0-0.2,0-0.4-0.1-0.5
			c-0.1-0.1-0.3-0.1-0.5-0.1h-1v-0.7h1c0.3,0,0.5,0,0.8,0.1c0.2,0.1,0.4,0.1,0.5,0.2c0.1,0.1,0.2,0.3,0.3,0.4
			c0.1,0.2,0.1,0.4,0.1,0.6v0.9c0,0.3,0,0.5-0.1,0.7c-0.1,0.2-0.1,0.3-0.3,0.4c-0.1,0.1-0.3,0.2-0.5,0.2c-0.2,0-0.5,0.1-0.8,0.1
			H419.1z M421.7,342.5h-2.6c-0.1,0-0.2,0-0.3,0.1c-0.1,0.1-0.1,0.2-0.1,0.3v0.3c0,0.1,0,0.2,0.1,0.3c0.1,0.1,0.2,0.1,0.3,0.1h1.9
			c0.1,0,0.2,0,0.3,0c0.1,0,0.2-0.1,0.2-0.1c0.1,0,0.1-0.1,0.1-0.2c0-0.1,0-0.2,0-0.3V342.5z"/>
		<path class="st0" d="M426.7,344.2l-2.1-1.7v1.7h-1v-4.9h1v2.9l2.1-1.7h1.3l-2.3,1.8l2.4,1.9H426.7z"/>
		<path class="st0" d="M431.5,340.5c0.3,0,0.6,0,0.9,0.1c0.2,0.1,0.4,0.1,0.5,0.3c0.1,0.1,0.2,0.3,0.3,0.5c0.1,0.2,0.1,0.5,0.1,0.7
			v0.5c0,0.3,0,0.5-0.1,0.7c-0.1,0.2-0.2,0.4-0.3,0.5c-0.1,0.1-0.3,0.2-0.5,0.3c-0.2,0.1-0.5,0.1-0.9,0.1h-2.1v1.1h-1v-3.2
			c0-0.3,0-0.5,0.1-0.7c0.1-0.2,0.2-0.4,0.3-0.5c0.1-0.1,0.3-0.2,0.5-0.3c0.2-0.1,0.5-0.1,0.9-0.1H431.5z M432.3,342.1
			c0-0.2,0-0.3,0-0.4c0-0.1-0.1-0.2-0.1-0.2c-0.1-0.1-0.2-0.1-0.3-0.1c-0.1,0-0.3,0-0.4,0h-1.1c-0.2,0-0.3,0-0.4,0
			c-0.1,0-0.2,0.1-0.2,0.1c-0.1,0.1-0.1,0.1-0.1,0.2c0,0.1,0,0.2,0,0.4v1.2h1.9c0.2,0,0.3,0,0.4,0s0.2-0.1,0.3-0.1
			c0.1-0.1,0.1-0.1,0.1-0.2c0-0.1,0-0.2,0-0.4V342.1z"/>
		<path class="st0" d="M435.8,344.2c-0.3,0-0.6,0-0.8-0.1c-0.2-0.1-0.4-0.1-0.5-0.3c-0.1-0.1-0.2-0.3-0.3-0.5
			c-0.1-0.2-0.1-0.4-0.1-0.7v-0.5c0-0.3,0-0.5,0.1-0.7c0.1-0.2,0.2-0.4,0.3-0.5c0.1-0.1,0.3-0.2,0.5-0.3c0.2-0.1,0.5-0.1,0.8-0.1
			h1.2c0.3,0,0.6,0,0.9,0.1c0.2,0.1,0.4,0.1,0.5,0.3c0.1,0.1,0.2,0.3,0.3,0.5c0.1,0.2,0.1,0.5,0.1,0.7v0.5c0,0.3,0,0.5-0.1,0.7
			c-0.1,0.2-0.2,0.4-0.3,0.5c-0.1,0.1-0.3,0.2-0.5,0.3c-0.2,0.1-0.5,0.1-0.9,0.1H435.8z M437.8,342.1c0-0.2,0-0.3,0-0.4
			c0-0.1-0.1-0.2-0.1-0.2c-0.1-0.1-0.2-0.1-0.3-0.1c-0.1,0-0.3,0-0.4,0h-1c-0.2,0-0.3,0-0.4,0c-0.1,0-0.2,0.1-0.3,0.1
			c-0.1,0.1-0.1,0.1-0.1,0.2c0,0.1,0,0.2,0,0.4v0.4c0,0.2,0,0.3,0,0.4c0,0.1,0.1,0.2,0.1,0.2c0.1,0.1,0.2,0.1,0.3,0.1
			c0.1,0,0.3,0,0.4,0h1c0.2,0,0.3,0,0.4,0c0.1,0,0.2-0.1,0.3-0.1c0.1-0.1,0.1-0.1,0.1-0.2c0-0.1,0-0.2,0-0.4V342.1z"/>
		<path class="st0" d="M439.6,344.2v-4.9h1v4.9H439.6z"/>
		<path class="st0" d="M443.1,344.2c-0.3,0-0.6,0-0.8-0.1c-0.2-0.1-0.4-0.1-0.5-0.3c-0.1-0.1-0.2-0.3-0.3-0.5
			c-0.1-0.2-0.1-0.4-0.1-0.7v-0.5c0-0.3,0-0.5,0.1-0.7c0.1-0.2,0.2-0.4,0.3-0.5c0.1-0.1,0.3-0.2,0.5-0.3c0.2-0.1,0.5-0.1,0.8-0.1
			h1.2c0.3,0,0.6,0,0.9,0.1c0.2,0.1,0.4,0.1,0.5,0.3c0.1,0.1,0.2,0.3,0.3,0.5c0.1,0.2,0.1,0.5,0.1,0.7v0.5c0,0.3,0,0.5-0.1,0.7
			c-0.1,0.2-0.2,0.4-0.3,0.5c-0.1,0.1-0.3,0.2-0.5,0.3c-0.2,0.1-0.5,0.1-0.9,0.1H443.1z M445.1,342.1c0-0.2,0-0.3,0-0.4
			c0-0.1-0.1-0.2-0.1-0.2c-0.1-0.1-0.2-0.1-0.3-0.1c-0.1,0-0.3,0-0.4,0h-1c-0.2,0-0.3,0-0.4,0c-0.1,0-0.2,0.1-0.3,0.1
			c-0.1,0.1-0.1,0.1-0.1,0.2c0,0.1,0,0.2,0,0.4v0.4c0,0.2,0,0.3,0,0.4c0,0.1,0.1,0.2,0.1,0.2c0.1,0.1,0.2,0.1,0.3,0.1
			c0.1,0,0.3,0,0.4,0h1c0.2,0,0.3,0,0.4,0c0.1,0,0.2-0.1,0.3-0.1c0.1-0.1,0.1-0.1,0.1-0.2c0-0.1,0-0.2,0-0.4V342.1z"/>
	</g>
</g>
<polyline class="st8" points="363.9,363.4 363.9,370.3 446.9,370.3 446.9,362.3 "/>
<g>
	<path class="st5" d="M391.6,374.9c0.3,0,0.6,0,0.8,0.1c0.2,0.1,0.5,0.2,0.6,0.4c0.2,0.2,0.3,0.4,0.4,0.6c0.1,0.2,0.2,0.5,0.2,0.8
		c0,0.3-0.1,0.6-0.2,0.8c-0.1,0.3-0.3,0.5-0.5,0.7c-0.2,0.2-0.4,0.3-0.7,0.4s-0.6,0.1-0.9,0.1c-0.4,0-0.8-0.1-1.2-0.3
		c-0.4-0.2-0.6-0.5-0.8-0.8l0.5-0.4c0.2,0.3,0.4,0.5,0.7,0.6s0.6,0.2,0.9,0.2c0.2,0,0.4,0,0.6-0.1c0.2-0.1,0.3-0.2,0.4-0.3
		c0.1-0.1,0.2-0.3,0.3-0.4c0.1-0.2,0.1-0.4,0.1-0.6c0-0.2,0-0.4-0.1-0.5c-0.1-0.2-0.2-0.3-0.3-0.4c-0.1-0.1-0.3-0.2-0.4-0.3
		c-0.2-0.1-0.3-0.1-0.5-0.1c-0.3,0-0.5,0.1-0.7,0.2c-0.2,0.1-0.4,0.3-0.5,0.5h-0.7c0,0,0-0.1,0-0.2c0-0.1,0.1-0.3,0.1-0.4
		c0-0.2,0.1-0.4,0.1-0.6c0-0.2,0.1-0.4,0.1-0.6c0.1-0.5,0.2-1.1,0.3-1.7h3v0.7h-2.5l-0.4,2c0.1-0.1,0.3-0.2,0.5-0.3
		C391.1,375,391.4,374.9,391.6,374.9z"/>
	<path class="st5" d="M398.9,375.1c0,0.4-0.1,0.7-0.2,1.1c-0.1,0.3-0.3,0.6-0.5,0.8c-0.2,0.2-0.4,0.4-0.7,0.6
		c-0.3,0.1-0.6,0.2-0.9,0.2c-0.3,0-0.6-0.1-0.9-0.2c-0.3-0.1-0.5-0.3-0.7-0.6c-0.2-0.2-0.3-0.5-0.5-0.8c-0.1-0.3-0.2-0.7-0.2-1.1
		s0.1-0.7,0.2-1.1c0.1-0.3,0.3-0.6,0.5-0.8c0.2-0.2,0.4-0.4,0.7-0.6c0.3-0.1,0.6-0.2,0.9-0.2c0.3,0,0.6,0.1,0.9,0.2
		c0.3,0.1,0.5,0.3,0.7,0.6c0.2,0.2,0.4,0.5,0.5,0.8C398.8,374.4,398.9,374.7,398.9,375.1z M398.1,375.1c0-0.3,0-0.5-0.1-0.8
		c-0.1-0.2-0.2-0.4-0.3-0.6c-0.1-0.2-0.3-0.3-0.5-0.4c-0.2-0.1-0.4-0.1-0.6-0.1c-0.2,0-0.4,0-0.6,0.1c-0.2,0.1-0.3,0.2-0.5,0.4
		c-0.1,0.2-0.2,0.4-0.3,0.6c-0.1,0.2-0.1,0.5-0.1,0.8c0,0.3,0,0.6,0.1,0.8c0.1,0.2,0.2,0.4,0.3,0.6c0.1,0.2,0.3,0.3,0.5,0.4
		c0.2,0.1,0.4,0.1,0.6,0.1c0.2,0,0.4,0,0.6-0.1c0.2-0.1,0.3-0.2,0.5-0.4c0.1-0.2,0.2-0.4,0.3-0.6C398,375.7,398.1,375.4,398.1,375.1
		z"/>
	<path class="st5" d="M406.9,377.7h-0.8v-2.6c0-0.5-0.1-0.8-0.2-1.1c-0.2-0.2-0.4-0.3-0.7-0.3c-0.3,0-0.6,0.1-0.8,0.3
		c-0.2,0.2-0.4,0.5-0.5,0.9v2.8H403v-2.6c0-0.5-0.1-0.8-0.2-1.1c-0.2-0.2-0.4-0.3-0.7-0.3c-0.3,0-0.6,0.1-0.8,0.3
		c-0.3,0.2-0.4,0.5-0.5,0.9v2.8H400v-4.6h0.7v1c0.2-0.3,0.4-0.6,0.7-0.8c0.3-0.2,0.6-0.3,1-0.3c0.4,0,0.7,0.1,0.9,0.3
		c0.2,0.2,0.4,0.5,0.4,0.8c0.4-0.7,1-1.1,1.7-1.1c0.3,0,0.5,0,0.7,0.1c0.2,0.1,0.3,0.2,0.4,0.4c0.1,0.2,0.2,0.4,0.2,0.6
		c0,0.2,0.1,0.5,0.1,0.8V377.7z"/>
	<path class="st5" d="M415,377.7h-0.8v-2.6c0-0.5-0.1-0.8-0.2-1.1c-0.2-0.2-0.4-0.3-0.7-0.3c-0.3,0-0.6,0.1-0.8,0.3
		c-0.2,0.2-0.4,0.5-0.5,0.9v2.8h-0.8v-2.6c0-0.5-0.1-0.8-0.2-1.1c-0.2-0.2-0.4-0.3-0.7-0.3c-0.3,0-0.6,0.1-0.8,0.3
		c-0.3,0.2-0.4,0.5-0.5,0.9v2.8h-0.8v-4.6h0.7v1c0.2-0.3,0.4-0.6,0.7-0.8c0.3-0.2,0.6-0.3,1-0.3c0.4,0,0.7,0.1,0.9,0.3
		c0.2,0.2,0.4,0.5,0.4,0.8c0.4-0.7,1-1.1,1.7-1.1c0.3,0,0.5,0,0.7,0.1c0.2,0.1,0.3,0.2,0.4,0.4c0.1,0.2,0.2,0.4,0.2,0.6
		c0,0.2,0.1,0.5,0.1,0.8V377.7z"/>
</g>
<g>
	<g>
		<g>
			<path class="st0" d="M167.9,588.4c0-9.6-7.8-17.5-17.5-17.5c-0.5,0-0.9,0-1.4,0.1c-1.3,0-3,0.4-4.8,1
				c-4.8,1.6-16.4,7.4-26.9,26.1c-0.3-1-0.9-3.1-0.9-5.3c-3,5.1-2.9,18.4-2.9,18.4l2.8-6c6.3-13.2,13.2-20.9,18.8-25.4
				c-1.3,2.3-2.1,4.9-2.2,7.7c-6.8,6.6-12.7,16.3-17.6,28.9l-1.2-3.2c-0.8,2.7-2,11.7-1.8,14.3c3.2-2,8.6-10.5,9.1-11.3
				c-1.9,0.6-3.2,1-4,1.4c5-13,10.6-21.4,15.6-26.8c0.3,1.9,0.8,3.6,1.6,5.3c-2.8,3.2-5.8,7.5-8.8,13.1l-3,6.3
				c0,0,9.8-6.9,12.4-10.3c-2.4,1-4.6,1.6-5.4,1.8c2.1-3.6,4.2-6.4,6.1-8.7c3.2,4.6,8.4,7.5,14.4,7.5c4.4,0,8.3-1.6,11.4-4.2
				c0.2-0.1,0.3-0.3,0.3-0.3C165.7,598.2,167.9,593.5,167.9,588.4z M160.9,599.3c-3-0.1-11.3-0.9-17.7-7.6c2.9-1.9,5-2.5,6.1-2.7
				c4.3,5,11,5.8,14.4,5.8c0.1,0,0.2,0,0.3,0C163.4,596.4,162.2,598,160.9,599.3z M156.5,591c-1.8-0.7-3.5-1.7-5-3.3
				c1.7-3.3,2.1-6.4,1.1-14.3c2.3,0.3,4.4,1.2,6.2,2.4C159,578.4,159.3,586.6,156.5,591z M165.5,588.4c0,1.3-0.2,2.6-0.5,3.8
				c-1.1,0.1-3.5,0.1-6.1-0.5c2.3-4.1,2.5-10.1,2.5-13.7C163.9,580.7,165.5,584.4,165.5,588.4z M149.2,573.4c0.6,0,0.9,0,1,0.1l0,0
				l0,0c0.2,1.8,0.4,3.3,0.5,4.6c-2,0.2-6.5,1-12,4.8c-1,0.7-2,1.4-3,2.2C137.1,578.8,142.6,574,149.2,573.4z M135.4,588.7
				c1.6-1.5,3.1-2.7,4.5-3.7c5-3.5,9.1-4.3,10.9-4.5c0,2.8-0.5,4.4-1.3,6c-1.8,0.2-6.7,1.3-13,7.7
				C135.8,592.5,135.4,590.6,135.4,588.7z M137.7,596.5c1.3-1.4,2.5-2.5,3.6-3.4c5.5,6,12.4,7.8,16.7,8.4c-2.2,1.3-4.8,2-7.6,2
				C145.1,603.5,140.4,600.7,137.7,596.5z"/>
		</g>
		<path class="st0" d="M142.9,624.5V612h-6.5v-3h16.4v3h-6.5v12.5H142.9z"/>
		<path class="st0" d="M167,624.5l-9-5.6v5.6h-3.4v-15.4h12.1c1.1,0,2,0.1,2.8,0.2c0.8,0.1,1.4,0.4,1.9,0.7c0.5,0.3,0.8,0.8,1.1,1.4
			c0.2,0.6,0.3,1.4,0.3,2.3v1.1c0,0.9-0.1,1.6-0.4,2.2s-0.6,1-1.1,1.4c-0.5,0.3-1.1,0.6-1.9,0.7c-0.8,0.1-1.7,0.2-2.7,0.2h-2.7
			l9,5.2H167z M169.3,613.9c0-0.4,0-0.7-0.1-1c-0.1-0.3-0.2-0.5-0.5-0.6c-0.2-0.1-0.5-0.2-0.9-0.3c-0.4,0-0.8-0.1-1.4-0.1H158v4.7
			h8.4c0.6,0,1,0,1.4-0.1c0.4,0,0.7-0.1,0.9-0.3c0.2-0.1,0.4-0.3,0.5-0.6c0.1-0.3,0.1-0.6,0.1-1V613.9z"/>
		<path class="st0" d="M175.2,624.5v-15.4h3.4v15.4H175.2z"/>
		<path class="st0" d="M186.9,624.5V612h-6.5v-3h16.4v3h-6.5v12.5H186.9z"/>
		<path class="st0" d="M204.4,624.5c-1.1,0-2.1-0.1-2.8-0.3c-0.8-0.2-1.4-0.5-1.8-0.9c-0.5-0.4-0.8-1-1-1.6
			c-0.2-0.7-0.3-1.5-0.3-2.5v-4.8c0-1,0.1-1.8,0.3-2.5c0.2-0.7,0.5-1.2,1-1.6c0.5-0.4,1.1-0.7,1.8-0.9c0.8-0.2,1.7-0.3,2.8-0.3h5.9
			c1.1,0,2.1,0.1,2.9,0.3c0.8,0.2,1.4,0.5,1.8,0.9c0.5,0.4,0.8,1,1,1.6c0.2,0.7,0.3,1.5,0.3,2.5v4.8c0,1-0.1,1.8-0.3,2.5
			c-0.2,0.7-0.5,1.2-1,1.6c-0.5,0.4-1.1,0.7-1.8,0.9c-0.8,0.2-1.7,0.3-2.9,0.3H204.4z M212.7,614.5c0-0.5,0-0.9-0.1-1.2
			c-0.1-0.3-0.2-0.6-0.4-0.8c-0.2-0.2-0.5-0.3-0.8-0.4c-0.3-0.1-0.8-0.1-1.3-0.1h-5.6c-0.5,0-1,0-1.3,0.1c-0.3,0.1-0.6,0.2-0.8,0.4
			c-0.2,0.2-0.3,0.5-0.4,0.8c-0.1,0.3-0.1,0.7-0.1,1.2v4.5c0,0.5,0,0.9,0.1,1.2c0.1,0.3,0.2,0.6,0.4,0.8c0.2,0.2,0.5,0.3,0.8,0.4
			c0.3,0.1,0.8,0.1,1.3,0.1h5.6c0.5,0,0.9,0,1.3-0.1c0.3-0.1,0.6-0.2,0.8-0.4c0.2-0.2,0.3-0.4,0.4-0.8c0.1-0.3,0.1-0.7,0.1-1.2
			V614.5z"/>
		<path class="st0" d="M235,624.8c-0.4,0-0.7-0.1-1-0.2c-0.3-0.1-0.6-0.3-0.9-0.6l-11.2-10.6v11h-3.2v-14.3c0-0.5,0.2-0.8,0.5-1.1
			c0.3-0.2,0.8-0.4,1.3-0.4c0.4,0,0.7,0.1,1,0.2c0.3,0.1,0.5,0.2,0.6,0.4l11.3,10.9v-11.2h3.3v14.3c0,0.5-0.2,0.9-0.5,1.1
			C235.9,624.7,235.5,624.8,235,624.8z"/>
		<g>
			<path class="st0" d="M180.6,606.1l-3.9-3.4v3.4h-1.5v-6.9h1.5v3.3l3.8-3.3h2.1l-4,3.4l4.1,3.6H180.6z"/>
			<path class="st0" d="M185,606.1c-0.4,0-0.7,0-1-0.1c-0.3-0.1-0.5-0.2-0.6-0.3c-0.2-0.1-0.3-0.3-0.3-0.5s-0.1-0.4-0.1-0.6v-0.5
				c0-0.2,0-0.4,0.1-0.6c0.1-0.2,0.2-0.3,0.3-0.5c0.1-0.1,0.3-0.2,0.6-0.3c0.2-0.1,0.6-0.1,0.9-0.1h4.1v-0.1c0-0.4-0.1-0.6-0.2-0.7
				c-0.1-0.1-0.4-0.2-0.7-0.2h-1.5v-1.1h1.5c0.4,0,0.8,0,1.1,0.1c0.3,0.1,0.6,0.2,0.8,0.4c0.2,0.2,0.3,0.4,0.4,0.6
				c0.1,0.3,0.1,0.6,0.1,0.9v1.3c0,0.4,0,0.7-0.1,1c-0.1,0.3-0.2,0.5-0.4,0.7c-0.2,0.2-0.4,0.3-0.8,0.4c-0.3,0.1-0.7,0.1-1.2,0.1
				H185z M188.9,603.6H185c-0.2,0-0.3,0-0.4,0.1c-0.1,0.1-0.2,0.2-0.2,0.4v0.4c0,0.2,0.1,0.3,0.2,0.4c0.1,0.1,0.3,0.1,0.5,0.1h2.8
				c0.2,0,0.3,0,0.5,0c0.1,0,0.2-0.1,0.3-0.1c0.1-0.1,0.1-0.2,0.2-0.3c0-0.1,0.1-0.3,0.1-0.5V603.6z"/>
			<path class="st0" d="M190.3,607.7v-1.3h0.3c0.2,0,0.4,0,0.5,0c0.1,0,0.2-0.1,0.3-0.1c0.1-0.1,0.1-0.2,0.2-0.3
				c0-0.1,0.1-0.3,0.1-0.4v-4.9h1.5v4.9c0,0.7-0.2,1.3-0.6,1.6c-0.4,0.3-1,0.5-1.9,0.5H190.3z M192.2,600.2c-0.2,0-0.3,0-0.4-0.1
				c-0.1-0.1-0.1-0.2-0.1-0.4v-0.6c0-0.2,0-0.3,0.1-0.3c0.1-0.1,0.2-0.1,0.4-0.1h0.5c0.2,0,0.3,0,0.4,0.1c0.1,0.1,0.1,0.2,0.1,0.3
				v0.6c0,0.2,0,0.3-0.1,0.4c-0.1,0.1-0.2,0.1-0.4,0.1H192.2z"/>
			<path class="st0" d="M196.3,606.1c-0.4,0-0.7,0-1-0.1c-0.3-0.1-0.5-0.2-0.6-0.3c-0.2-0.1-0.3-0.3-0.3-0.5s-0.1-0.4-0.1-0.6v-0.5
				c0-0.2,0-0.4,0.1-0.6c0.1-0.2,0.2-0.3,0.3-0.5c0.1-0.1,0.3-0.2,0.6-0.3c0.2-0.1,0.6-0.1,0.9-0.1h4.1v-0.1c0-0.4-0.1-0.6-0.2-0.7
				c-0.1-0.1-0.4-0.2-0.7-0.2h-1.5v-1.1h1.5c0.4,0,0.8,0,1.1,0.1c0.3,0.1,0.6,0.2,0.8,0.4c0.2,0.2,0.3,0.4,0.4,0.6
				c0.1,0.3,0.1,0.6,0.1,0.9v1.3c0,0.4,0,0.7-0.1,1c-0.1,0.3-0.2,0.5-0.4,0.7c-0.2,0.2-0.4,0.3-0.8,0.4c-0.3,0.1-0.7,0.1-1.2,0.1
				H196.3z M200.2,603.6h-3.9c-0.2,0-0.3,0-0.4,0.1c-0.1,0.1-0.2,0.2-0.2,0.4v0.4c0,0.2,0.1,0.3,0.2,0.4c0.1,0.1,0.3,0.1,0.5,0.1
				h2.8c0.2,0,0.3,0,0.5,0c0.1,0,0.2-0.1,0.3-0.1c0.1-0.1,0.1-0.2,0.2-0.3c0-0.1,0.1-0.3,0.1-0.5V603.6z"/>
			<path class="st0" d="M207.6,606.1l-3.2-2.6v2.6h-1.5v-7.3h1.5v4.3l3.2-2.5h2l-3.4,2.6l3.5,2.9H207.6z"/>
			<path class="st0" d="M214.9,600.6c0.5,0,0.9,0,1.3,0.1c0.3,0.1,0.6,0.2,0.8,0.4c0.2,0.2,0.3,0.4,0.4,0.7c0.1,0.3,0.1,0.7,0.1,1.1
				v0.7c0,0.4,0,0.8-0.1,1.1c-0.1,0.3-0.2,0.5-0.4,0.7c-0.2,0.2-0.5,0.3-0.8,0.4c-0.3,0.1-0.8,0.1-1.3,0.1h-3.1v1.6h-1.5v-4.8
				c0-0.4,0-0.8,0.1-1.1c0.1-0.3,0.2-0.5,0.4-0.7c0.2-0.2,0.5-0.3,0.8-0.4c0.3-0.1,0.8-0.1,1.3-0.1H214.9z M216,603
				c0-0.2,0-0.4-0.1-0.6c0-0.1-0.1-0.3-0.2-0.3c-0.1-0.1-0.2-0.1-0.4-0.2c-0.2,0-0.4,0-0.7,0H213c-0.2,0-0.4,0-0.6,0.1
				c-0.2,0-0.3,0.1-0.4,0.2c-0.1,0.1-0.1,0.2-0.2,0.3c0,0.1-0.1,0.3-0.1,0.6v1.8h2.9c0.3,0,0.5,0,0.7,0s0.3-0.1,0.4-0.2
				c0.1-0.1,0.2-0.2,0.2-0.3c0-0.1,0.1-0.3,0.1-0.6V603z"/>
			<path class="st0" d="M221.2,606.1c-0.5,0-0.9,0-1.3-0.1c-0.3-0.1-0.6-0.2-0.8-0.4c-0.2-0.2-0.3-0.4-0.4-0.7
				c-0.1-0.3-0.1-0.7-0.1-1.1v-0.7c0-0.4,0-0.8,0.1-1.1c0.1-0.3,0.2-0.5,0.4-0.7c0.2-0.2,0.5-0.3,0.8-0.4c0.3-0.1,0.8-0.1,1.3-0.1
				h1.8c0.5,0,0.9,0,1.3,0.1c0.3,0.1,0.6,0.2,0.8,0.4c0.2,0.2,0.3,0.4,0.4,0.7c0.1,0.3,0.1,0.7,0.1,1.1v0.7c0,0.4,0,0.8-0.1,1.1
				c-0.1,0.3-0.2,0.5-0.4,0.7c-0.2,0.2-0.5,0.3-0.8,0.4c-0.3,0.1-0.8,0.1-1.3,0.1H221.2z M224.2,603c0-0.2,0-0.4-0.1-0.6
				c0-0.1-0.1-0.3-0.2-0.4c-0.1-0.1-0.2-0.1-0.4-0.2c-0.2,0-0.4,0-0.7,0h-1.4c-0.3,0-0.5,0-0.7,0c-0.2,0-0.3,0.1-0.4,0.2
				c-0.1,0.1-0.2,0.2-0.2,0.4c0,0.1-0.1,0.3-0.1,0.6v0.7c0,0.2,0,0.4,0.1,0.6c0,0.1,0.1,0.3,0.2,0.3c0.1,0.1,0.2,0.1,0.4,0.2
				c0.2,0,0.4,0.1,0.7,0.1h1.4c0.3,0,0.5,0,0.7-0.1c0.2,0,0.3-0.1,0.4-0.2c0.1-0.1,0.2-0.2,0.2-0.3c0-0.1,0.1-0.3,0.1-0.6V603z"/>
			<path class="st0" d="M226.9,606.1v-7.3h1.5v7.3H226.9z"/>
			<path class="st0" d="M232.2,606.1c-0.5,0-0.9,0-1.3-0.1c-0.3-0.1-0.6-0.2-0.8-0.4c-0.2-0.2-0.3-0.4-0.4-0.7
				c-0.1-0.3-0.1-0.7-0.1-1.1v-0.7c0-0.4,0-0.8,0.1-1.1c0.1-0.3,0.2-0.5,0.4-0.7c0.2-0.2,0.5-0.3,0.8-0.4c0.3-0.1,0.8-0.1,1.3-0.1
				h1.8c0.5,0,0.9,0,1.3,0.1c0.3,0.1,0.6,0.2,0.8,0.4s0.3,0.4,0.4,0.7c0.1,0.3,0.1,0.7,0.1,1.1v0.7c0,0.4,0,0.8-0.1,1.1
				c-0.1,0.3-0.2,0.5-0.4,0.7c-0.2,0.2-0.5,0.3-0.8,0.4c-0.3,0.1-0.8,0.1-1.3,0.1H232.2z M235.2,603c0-0.2,0-0.4-0.1-0.6
				c0-0.1-0.1-0.3-0.2-0.4c-0.1-0.1-0.2-0.1-0.4-0.2c-0.2,0-0.4,0-0.7,0h-1.4c-0.3,0-0.5,0-0.7,0c-0.2,0-0.3,0.1-0.4,0.2
				c-0.1,0.1-0.2,0.2-0.2,0.4c0,0.1-0.1,0.3-0.1,0.6v0.7c0,0.2,0,0.4,0.1,0.6c0,0.1,0.1,0.3,0.2,0.3c0.1,0.1,0.2,0.1,0.4,0.2
				c0.2,0,0.4,0.1,0.7,0.1h1.4c0.3,0,0.5,0,0.7-0.1c0.2,0,0.3-0.1,0.4-0.2c0.1-0.1,0.2-0.2,0.2-0.3c0-0.1,0.1-0.3,0.1-0.6V603z"/>
		</g>
	</g>
	<polyline class="st9" points="112.6,639.1 112.6,650.1 243.8,650.1 243.8,637.4 	"/>
	<g>
		<path class="st5" d="M159.8,673c0.7,0.1,1.2,0.4,1.6,0.9c0.4,0.5,0.6,1.1,0.6,1.8c0,0.5-0.1,0.9-0.2,1.2s-0.4,0.7-0.7,1
			c-0.3,0.3-0.7,0.5-1.1,0.6c-0.4,0.1-0.9,0.2-1.4,0.2c-0.8,0-1.4-0.2-2-0.5c-0.6-0.3-1-0.7-1.3-1.3l0.7-0.6c0.2,0.4,0.5,0.8,1,1
			c0.4,0.3,1,0.4,1.6,0.4c0.8,0,1.3-0.2,1.8-0.5s0.6-0.9,0.6-1.6c0-0.7-0.2-1.2-0.7-1.6c-0.5-0.4-1.1-0.6-2-0.6h-0.4v-0.9h0.4
			c0.8,0,1.4-0.2,1.8-0.5c0.4-0.4,0.6-0.8,0.6-1.4c0-0.3-0.1-0.6-0.2-0.8c-0.1-0.2-0.3-0.4-0.5-0.6s-0.4-0.3-0.7-0.4
			c-0.3-0.1-0.6-0.1-0.9-0.1c-0.6,0-1.1,0.1-1.5,0.4c-0.4,0.3-0.8,0.6-1,1.1l-0.7-0.6c0.1-0.3,0.3-0.5,0.5-0.7s0.5-0.4,0.8-0.5
			c0.3-0.1,0.6-0.3,0.9-0.4s0.7-0.1,1-0.1c0.5,0,0.9,0.1,1.3,0.2c0.4,0.1,0.7,0.3,1,0.5c0.3,0.2,0.5,0.5,0.7,0.8s0.2,0.7,0.2,1.1
			c0,0.3,0,0.6-0.1,0.9c-0.1,0.3-0.2,0.5-0.4,0.7s-0.4,0.4-0.6,0.5S160.1,672.9,159.8,673z"/>
		<path class="st5" d="M171,672.1c0,0.7-0.1,1.3-0.3,1.8c-0.2,0.6-0.5,1-0.8,1.4c-0.3,0.4-0.7,0.7-1.2,0.9s-1,0.3-1.5,0.3
			s-1-0.1-1.5-0.3s-0.9-0.5-1.2-0.9c-0.3-0.4-0.6-0.9-0.8-1.4c-0.2-0.6-0.3-1.2-0.3-1.8c0-0.7,0.1-1.3,0.3-1.8
			c0.2-0.6,0.5-1,0.8-1.4c0.3-0.4,0.7-0.7,1.2-1c0.5-0.2,1-0.3,1.5-0.3s1,0.1,1.5,0.3c0.5,0.2,0.9,0.5,1.2,1
			c0.3,0.4,0.6,0.9,0.8,1.4C170.9,670.9,171,671.5,171,672.1z M170,672.1c0-0.5-0.1-1-0.2-1.5c-0.1-0.4-0.3-0.8-0.6-1.1
			c-0.2-0.3-0.5-0.6-0.9-0.7s-0.7-0.3-1.1-0.3c-0.4,0-0.8,0.1-1.1,0.3s-0.6,0.4-0.9,0.7c-0.2,0.3-0.4,0.7-0.6,1.1
			c-0.1,0.4-0.2,0.9-0.2,1.5c0,0.5,0.1,1,0.2,1.5c0.1,0.4,0.3,0.8,0.6,1.1c0.2,0.3,0.5,0.6,0.9,0.7c0.3,0.2,0.7,0.3,1.1,0.3
			c0.4,0,0.8-0.1,1.1-0.3c0.3-0.2,0.6-0.4,0.9-0.7c0.2-0.3,0.4-0.7,0.6-1.1C169.9,673.2,170,672.7,170,672.1z"/>
		<path class="st5" d="M188.4,676.5h-1v-4.4c0-0.9-0.1-1.6-0.4-2s-0.7-0.6-1.3-0.6c-0.3,0-0.6,0.1-0.8,0.2c-0.3,0.1-0.5,0.3-0.7,0.5
			c-0.2,0.2-0.4,0.4-0.6,0.7c-0.2,0.3-0.3,0.6-0.4,0.9v4.8h-1v-4.4c0-0.9-0.1-1.6-0.4-2s-0.7-0.6-1.3-0.6c-0.6,0-1.1,0.2-1.6,0.6
			c-0.5,0.4-0.8,1-1,1.6v4.8h-1v-7.8h0.9v1.8c0.3-0.6,0.7-1.1,1.3-1.4c0.5-0.3,1.1-0.5,1.7-0.5c0.7,0,1.2,0.2,1.6,0.6
			c0.4,0.4,0.6,0.9,0.7,1.5c0.7-1.3,1.7-2,3-2c0.4,0,0.8,0.1,1.1,0.2s0.5,0.4,0.7,0.7c0.2,0.3,0.3,0.7,0.4,1.1
			c0.1,0.4,0.1,0.9,0.1,1.4V676.5z"/>
		<path class="st5" d="M202.2,676.5h-1v-4.4c0-0.9-0.1-1.6-0.4-2s-0.7-0.6-1.3-0.6c-0.3,0-0.6,0.1-0.8,0.2c-0.3,0.1-0.5,0.3-0.7,0.5
			c-0.2,0.2-0.4,0.4-0.6,0.7c-0.2,0.3-0.3,0.6-0.4,0.9v4.8h-1v-4.4c0-0.9-0.1-1.6-0.4-2s-0.7-0.6-1.3-0.6c-0.6,0-1.1,0.2-1.6,0.6
			c-0.5,0.4-0.8,1-1,1.6v4.8h-1v-7.8h0.9v1.8c0.3-0.6,0.7-1.1,1.3-1.4c0.5-0.3,1.1-0.5,1.7-0.5c0.7,0,1.2,0.2,1.6,0.6
			c0.4,0.4,0.6,0.9,0.7,1.5c0.7-1.3,1.7-2,3-2c0.4,0,0.8,0.1,1.1,0.2s0.5,0.4,0.7,0.7c0.2,0.3,0.3,0.7,0.4,1.1
			c0.1,0.4,0.1,0.9,0.1,1.4V676.5z"/>
	</g>
	<g>
		<g>
			<path class="st0" d="M443.3,589.3c0-8.5-6.9-15.5-15.5-15.5c-0.4,0-0.8,0-1.2,0.1c-1.2,0-2.7,0.3-4.2,0.9
				c-4.3,1.5-14.5,6.5-23.8,23.1c-0.3-0.9-0.8-2.7-0.8-4.7c-2.6,4.5-2.6,16.3-2.6,16.3l2.5-5.3c5.5-11.7,11.7-18.5,16.7-22.5
				c-1.1,2-1.8,4.3-2,6.8c-6,5.9-11.2,14.5-15.6,25.6l-1.1-2.9c-0.7,2.4-1.8,10.4-1.6,12.6c2.8-1.8,7.6-9.3,8.1-10
				c-1.6,0.5-2.8,0.9-3.6,1.3c4.5-11.5,9.4-19,13.8-23.7c0.2,1.7,0.7,3.2,1.4,4.7c-2.5,2.8-5.1,6.6-7.8,11.6l-2.6,5.5
				c0,0,8.7-6.1,11-9.1c-2.1,0.9-4,1.4-4.8,1.6c1.9-3.1,3.7-5.7,5.4-7.7c2.8,4,7.4,6.7,12.7,6.7c3.9,0,7.4-1.4,10.1-3.8
				c0.2-0.1,0.3-0.3,0.3-0.3C441.3,597.9,443.3,593.8,443.3,589.3z M437.1,598.9c-2.6-0.1-10-0.8-15.6-6.7c2.5-1.7,4.5-2.2,5.4-2.4
				c3.8,4.5,9.7,5.1,12.8,5.1c0.1,0,0.2,0,0.3,0C439.3,596.4,438.3,597.7,437.1,598.9z M433.2,591.6c-1.6-0.6-3.1-1.5-4.4-2.9
				c1.5-2.9,1.8-5.6,1-12.6c2,0.3,3.9,1,5.5,2.1C435.4,580.4,435.7,587.7,433.2,591.6z M441.2,589.3c0,1.2-0.2,2.3-0.4,3.4
				c-1,0.1-3.1,0.1-5.4-0.5c2-3.6,2.2-9,2.2-12.2C439.7,582.5,441.2,585.7,441.2,589.3z M426.7,576c0.5,0,0.8,0,0.9,0.1l0,0l0,0
				c0.2,1.6,0.3,2.9,0.4,4.1c-1.8,0.2-5.7,0.9-10.6,4.2c-0.9,0.6-1.8,1.3-2.6,2C416,580.8,420.8,576.5,426.7,576z M414.5,589.5
				c1.4-1.3,2.8-2.4,4-3.2c4.5-3.1,8.1-3.8,9.7-4c0,2.5-0.4,3.9-1.1,5.3c-1.6,0.2-6,1.2-11.5,6.9
				C414.9,592.9,414.5,591.2,414.5,589.5z M416.5,596.4c1.1-1.2,2.2-2.2,3.2-3c4.9,5.3,11,6.9,14.8,7.4c-2,1.1-4.3,1.8-6.7,1.8
				C423.1,602.6,418.9,600.2,416.5,596.4z"/>
		</g>
	</g>
	<polyline class="st9" points="355.1,641.1 355.1,652.1 486.4,652.1 486.4,639.3 	"/>
	<g>
		<path class="st5" d="M404.6,677.5v0.9h-5.1v-0.9h2.1v-6.4c-0.1,0.1-0.2,0.3-0.4,0.4s-0.4,0.3-0.6,0.4c-0.2,0.1-0.5,0.2-0.7,0.3
			s-0.5,0.1-0.7,0.1v-1c0.2,0,0.5-0.1,0.8-0.2s0.5-0.3,0.8-0.5s0.5-0.3,0.6-0.5c0.2-0.2,0.3-0.3,0.3-0.3h1v7.6H404.6z"/>
		<path class="st5" d="M409.1,673.8c0.5,0,0.9,0.1,1.4,0.2c0.4,0.2,0.8,0.4,1.1,0.7c0.3,0.3,0.6,0.7,0.7,1.1
			c0.2,0.4,0.3,0.9,0.3,1.4c0,0.5-0.1,1-0.3,1.4c-0.2,0.4-0.5,0.8-0.8,1.1c-0.3,0.3-0.7,0.5-1.2,0.7c-0.5,0.2-0.9,0.3-1.4,0.3
			c-0.4,0-0.7,0-1.1-0.1c-0.3-0.1-0.7-0.2-1-0.4c-0.3-0.2-0.6-0.4-0.8-0.6c-0.2-0.3-0.4-0.5-0.6-0.8l0.7-0.5
			c0.3,0.5,0.7,0.9,1.1,1.2c0.5,0.3,1,0.5,1.6,0.5c0.4,0,0.7-0.1,1-0.2c0.3-0.1,0.6-0.3,0.8-0.5c0.2-0.2,0.4-0.5,0.6-0.8
			c0.1-0.3,0.2-0.7,0.2-1.1c0-0.4-0.1-0.7-0.2-1c-0.1-0.3-0.3-0.6-0.5-0.8c-0.2-0.2-0.5-0.4-0.8-0.5c-0.3-0.1-0.6-0.2-1-0.2
			c-0.5,0-0.9,0.1-1.3,0.3s-0.8,0.5-1,0.9h-0.9c0-0.1,0-0.2,0.1-0.4s0.1-0.5,0.1-0.8c0.1-0.3,0.1-0.6,0.2-1c0.1-0.4,0.1-0.7,0.2-1.1
			c0.2-0.8,0.4-1.8,0.6-2.8h5.1v0.9h-4.4l-0.7,3.8c0.3-0.3,0.6-0.5,1-0.7S408.7,673.8,409.1,673.8z"/>
		<path class="st5" d="M429.7,678.5h-1v-4.4c0-0.9-0.1-1.6-0.4-2s-0.7-0.6-1.3-0.6c-0.3,0-0.6,0.1-0.8,0.2c-0.3,0.1-0.5,0.3-0.7,0.5
			c-0.2,0.2-0.4,0.4-0.6,0.7c-0.2,0.3-0.3,0.6-0.4,0.9v4.8h-1v-4.4c0-0.9-0.1-1.6-0.4-2s-0.7-0.6-1.3-0.6c-0.6,0-1.1,0.2-1.6,0.6
			c-0.5,0.4-0.8,1-1,1.6v4.8h-1v-7.8h0.9v1.8c0.3-0.6,0.7-1.1,1.3-1.4c0.5-0.3,1.1-0.5,1.7-0.5c0.7,0,1.2,0.2,1.6,0.6
			c0.4,0.4,0.6,0.9,0.7,1.5c0.7-1.3,1.7-2,3-2c0.4,0,0.8,0.1,1.1,0.2s0.5,0.4,0.7,0.7c0.2,0.3,0.3,0.7,0.4,1.1
			c0.1,0.4,0.1,0.9,0.1,1.4V678.5z"/>
		<path class="st5" d="M443.5,678.5h-1v-4.4c0-0.9-0.1-1.6-0.4-2s-0.7-0.6-1.3-0.6c-0.3,0-0.6,0.1-0.8,0.2c-0.3,0.1-0.5,0.3-0.7,0.5
			c-0.2,0.2-0.4,0.4-0.6,0.7c-0.2,0.3-0.3,0.6-0.4,0.9v4.8h-1v-4.4c0-0.9-0.1-1.6-0.4-2s-0.7-0.6-1.3-0.6c-0.6,0-1.1,0.2-1.6,0.6
			c-0.5,0.4-0.8,1-1,1.6v4.8h-1v-7.8h0.9v1.8c0.3-0.6,0.7-1.1,1.3-1.4c0.5-0.3,1.1-0.5,1.7-0.5c0.7,0,1.2,0.2,1.6,0.6
			c0.4,0.4,0.6,0.9,0.7,1.5c0.7-1.3,1.7-2,3-2c0.4,0,0.8,0.1,1.1,0.2s0.5,0.4,0.7,0.7c0.2,0.3,0.3,0.7,0.4,1.1
			c0.1,0.4,0.1,0.9,0.1,1.4V678.5z"/>
	</g>
</g>
<g>
	<g>
		<path class="st0" d="M379.6,472.7c0-9.3-7.6-16.9-16.9-16.9c-0.5,0-0.9,0-1.3,0.1c-1.3,0-2.9,0.4-4.6,1c-4.7,1.6-15.9,7.1-26,25.3
			c-0.3-0.9-0.9-3-0.8-5.1c-2.9,4.9-2.8,17.8-2.8,17.8l2.7-5.8c6.1-12.7,12.8-20.2,18.2-24.5c-1.2,2.2-2,4.7-2.1,7.4
			c-6.6,6.4-12.3,15.8-17,28l-1.2-3.1c-0.7,2.6-1.9,11.3-1.7,13.8c3.1-1.9,8.3-10.2,8.8-10.9c-1.8,0.5-3.1,1-3.9,1.4
			c4.9-12.6,10.3-20.7,15.1-25.9c0.3,1.8,0.8,3.5,1.6,5.1c-2.7,3.1-5.6,7.2-8.5,12.7l-2.9,6.1c0,0,9.5-6.7,12-10
			c-2.3,0.9-4.4,1.5-5.3,1.7c2-3.4,4-6.2,5.9-8.4c3,4.4,8.1,7.3,13.9,7.3c4.2,0,8.1-1.5,11-4.1c0.2-0.1,0.3-0.3,0.3-0.3
			C377.5,482.1,379.6,477.7,379.6,472.7z M372.8,483.2c-2.9-0.1-10.9-0.8-17.1-7.4c2.8-1.9,4.9-2.5,5.9-2.6c4.1,4.9,10.6,5.6,14,5.6
			c0.1,0,0.2,0,0.3,0C375.2,480.4,374.1,481.9,372.8,483.2z M368.6,475.2c-1.7-0.7-3.4-1.7-4.8-3.2c1.6-3.2,2-6.2,1.1-13.8
			c2.2,0.3,4.2,1.1,6,2.3C371,463,371.3,470.9,368.6,475.2z M377.3,472.7c0,1.3-0.2,2.5-0.5,3.7c-1.1,0.1-3.4,0.1-5.9-0.5
			c2.2-4,2.4-9.8,2.4-13.3C375.7,465.3,377.3,468.8,377.3,472.7z M361.5,458.2c0.6,0,0.9,0,1,0.1l0,0l0,0c0.2,1.7,0.4,3.2,0.4,4.5
			c-2,0.2-6.3,1-11.6,4.6c-1,0.7-1.9,1.4-2.9,2.2C349.9,463.4,355.1,458.7,361.5,458.2z M348.1,472.9c1.5-1.5,3-2.6,4.3-3.5
			c4.9-3.4,8.8-4.2,10.6-4.3c0,2.7-0.5,4.3-1.2,5.8c-1.8,0.2-6.5,1.3-12.5,7.5C348.6,476.7,348.2,474.8,348.1,472.9z M350.4,480.5
			c1.2-1.3,2.4-2.4,3.5-3.3c5.3,5.8,12,7.6,16.1,8.1c-2.2,1.3-4.7,2-7.3,2C357.5,487.3,353,484.6,350.4,480.5z"/>
	</g>
	<path class="st0" d="M355.4,507.6v-12.1h-6.3v-2.9H365v2.9h-6.3v12.1H355.4z"/>
	<path class="st0" d="M378.7,507.6l-8.7-5.4v5.4h-3.3v-14.9h11.7c1.1,0,1.9,0.1,2.7,0.2c0.7,0.1,1.4,0.4,1.8,0.7
		c0.5,0.3,0.8,0.8,1,1.4c0.2,0.6,0.3,1.3,0.3,2.2v1c0,0.9-0.1,1.6-0.3,2.1s-0.6,1-1.1,1.3c-0.5,0.3-1.1,0.6-1.8,0.7
		c-0.7,0.1-1.6,0.2-2.6,0.2h-2.6l8.8,5.1H378.7z M381,497.3c0-0.4,0-0.7-0.1-1c-0.1-0.2-0.2-0.4-0.4-0.6c-0.2-0.1-0.5-0.2-0.9-0.3
		c-0.4,0-0.8-0.1-1.4-0.1H370v4.6h8.2c0.5,0,1,0,1.3-0.1c0.4,0,0.6-0.1,0.9-0.3c0.2-0.1,0.4-0.3,0.4-0.6c0.1-0.2,0.1-0.6,0.1-1
		V497.3z"/>
	<path class="st0" d="M386.6,507.6v-14.9h3.3v14.9H386.6z"/>
	<path class="st0" d="M398,507.6v-12.1h-6.3v-2.9h15.9v2.9h-6.3v12.1H398z"/>
	<path class="st0" d="M414.9,507.6c-1.1,0-2-0.1-2.7-0.3c-0.7-0.2-1.3-0.5-1.8-0.9c-0.4-0.4-0.7-0.9-0.9-1.6
		c-0.2-0.6-0.3-1.4-0.3-2.4v-4.7c0-0.9,0.1-1.7,0.3-2.4c0.2-0.7,0.5-1.2,0.9-1.6c0.4-0.4,1-0.7,1.8-0.9c0.7-0.2,1.6-0.3,2.7-0.3h5.7
		c1.1,0,2,0.1,2.8,0.3c0.7,0.2,1.3,0.5,1.8,0.9c0.4,0.4,0.7,0.9,0.9,1.6c0.2,0.7,0.3,1.5,0.3,2.4v4.7c0,0.9-0.1,1.7-0.3,2.4
		c-0.2,0.6-0.5,1.2-0.9,1.6c-0.4,0.4-1,0.7-1.8,0.9c-0.7,0.2-1.6,0.3-2.8,0.3H414.9z M422.9,497.9c0-0.5,0-0.9-0.1-1.2
		c-0.1-0.3-0.2-0.6-0.4-0.7c-0.2-0.2-0.4-0.3-0.8-0.4c-0.3-0.1-0.7-0.1-1.2-0.1H415c-0.5,0-1,0-1.3,0.1c-0.3,0.1-0.6,0.2-0.8,0.4
		s-0.3,0.4-0.4,0.7c-0.1,0.3-0.1,0.7-0.1,1.2v4.4c0,0.5,0,0.9,0.1,1.2s0.2,0.6,0.4,0.7c0.2,0.2,0.4,0.3,0.8,0.4
		c0.3,0.1,0.8,0.1,1.3,0.1h5.4c0.5,0,0.9,0,1.2-0.1c0.3-0.1,0.6-0.2,0.8-0.4c0.2-0.2,0.3-0.4,0.4-0.7c0.1-0.3,0.1-0.7,0.1-1.2V497.9
		z"/>
	<path class="st0" d="M444.5,507.9c-0.3,0-0.7-0.1-1-0.2s-0.6-0.3-0.8-0.5L431.8,497v10.6h-3.1v-13.9c0-0.5,0.2-0.8,0.5-1
		c0.3-0.2,0.8-0.3,1.3-0.3c0.4,0,0.7,0.1,0.9,0.2c0.2,0.1,0.5,0.2,0.6,0.4l11,10.6v-10.8h3.2v13.9c0,0.5-0.2,0.8-0.5,1.1
		C445.4,507.8,445,507.9,444.5,507.9z"/>
	<g>
		<path class="st0" d="M391.9,489.8l-3.7-3.3v3.3h-1.5v-6.7h1.5v3.2l3.7-3.2h2l-3.8,3.3l3.9,3.4H391.9z"/>
		<path class="st0" d="M396.1,489.8c-0.4,0-0.7,0-1-0.1c-0.2-0.1-0.4-0.2-0.6-0.3c-0.1-0.1-0.2-0.3-0.3-0.4
			c-0.1-0.2-0.1-0.4-0.1-0.6v-0.5c0-0.2,0-0.4,0.1-0.6c0.1-0.2,0.2-0.3,0.3-0.4c0.1-0.1,0.3-0.2,0.6-0.3c0.2-0.1,0.5-0.1,0.9-0.1
			h3.9v-0.1c0-0.3-0.1-0.6-0.2-0.7c-0.1-0.1-0.4-0.2-0.7-0.2h-1.5v-1h1.5c0.4,0,0.8,0,1.1,0.1c0.3,0.1,0.5,0.2,0.7,0.4
			c0.2,0.2,0.3,0.4,0.4,0.6c0.1,0.2,0.1,0.5,0.1,0.9v1.3c0,0.4,0,0.7-0.1,1c-0.1,0.3-0.2,0.5-0.4,0.6c-0.2,0.2-0.4,0.3-0.7,0.3
			c-0.3,0.1-0.7,0.1-1.2,0.1H396.1z M399.9,487.4h-3.8c-0.2,0-0.3,0-0.4,0.1c-0.1,0.1-0.1,0.2-0.1,0.4v0.4c0,0.2,0.1,0.3,0.2,0.4
			c0.1,0.1,0.3,0.1,0.4,0.1h2.7c0.2,0,0.3,0,0.4,0c0.1,0,0.2-0.1,0.3-0.1c0.1-0.1,0.1-0.2,0.2-0.3c0-0.1,0.1-0.3,0.1-0.5V487.4z"/>
		<path class="st0" d="M401.3,491.4v-1.2h0.3c0.2,0,0.3,0,0.5,0c0.1,0,0.2-0.1,0.3-0.1c0.1-0.1,0.1-0.2,0.2-0.3c0-0.1,0-0.2,0-0.4
			v-4.7h1.5v4.7c0,0.7-0.2,1.2-0.6,1.6c-0.4,0.3-1,0.5-1.8,0.5H401.3z M403.1,484.1c-0.2,0-0.3,0-0.4-0.1c-0.1-0.1-0.1-0.2-0.1-0.3
			v-0.6c0-0.2,0-0.3,0.1-0.3c0.1-0.1,0.2-0.1,0.4-0.1h0.5c0.2,0,0.3,0,0.4,0.1c0.1,0.1,0.1,0.2,0.1,0.3v0.6c0,0.2,0,0.3-0.1,0.3
			s-0.2,0.1-0.4,0.1H403.1z"/>
		<path class="st0" d="M407,489.8c-0.4,0-0.7,0-1-0.1c-0.2-0.1-0.4-0.2-0.6-0.3c-0.1-0.1-0.2-0.3-0.3-0.4c-0.1-0.2-0.1-0.4-0.1-0.6
			v-0.5c0-0.2,0-0.4,0.1-0.6c0.1-0.2,0.2-0.3,0.3-0.4c0.1-0.1,0.3-0.2,0.6-0.3c0.2-0.1,0.5-0.1,0.9-0.1h3.9v-0.1
			c0-0.3-0.1-0.6-0.2-0.7c-0.1-0.1-0.4-0.2-0.7-0.2h-1.5v-1h1.5c0.4,0,0.8,0,1.1,0.1c0.3,0.1,0.5,0.2,0.7,0.4
			c0.2,0.2,0.3,0.4,0.4,0.6c0.1,0.2,0.1,0.5,0.1,0.9v1.3c0,0.4,0,0.7-0.1,1c-0.1,0.3-0.2,0.5-0.4,0.6c-0.2,0.2-0.4,0.3-0.7,0.3
			c-0.3,0.1-0.7,0.1-1.2,0.1H407z M410.9,487.4h-3.8c-0.2,0-0.3,0-0.4,0.1c-0.1,0.1-0.1,0.2-0.1,0.4v0.4c0,0.2,0.1,0.3,0.2,0.4
			c0.1,0.1,0.3,0.1,0.4,0.1h2.7c0.2,0,0.3,0,0.4,0c0.1,0,0.2-0.1,0.3-0.1c0.1-0.1,0.1-0.2,0.2-0.3c0-0.1,0.1-0.3,0.1-0.5V487.4z"/>
		<path class="st0" d="M418,489.8l-3.1-2.5v2.5h-1.5v-7h1.5v4.2l3.1-2.5h1.9l-3.3,2.6l3.4,2.8H418z"/>
		<path class="st0" d="M425,484.5c0.5,0,0.9,0,1.2,0.1c0.3,0.1,0.6,0.2,0.8,0.4c0.2,0.2,0.3,0.4,0.4,0.7c0.1,0.3,0.1,0.7,0.1,1.1
			v0.7c0,0.4,0,0.8-0.1,1.1c-0.1,0.3-0.2,0.5-0.4,0.7c-0.2,0.2-0.5,0.3-0.8,0.4c-0.3,0.1-0.7,0.1-1.2,0.1h-3v1.6h-1.5v-4.6
			c0-0.4,0-0.8,0.1-1.1c0.1-0.3,0.2-0.5,0.4-0.7c0.2-0.2,0.5-0.3,0.8-0.4c0.3-0.1,0.7-0.1,1.2-0.1H425z M426.1,486.8
			c0-0.2,0-0.4-0.1-0.6c0-0.1-0.1-0.3-0.2-0.3c-0.1-0.1-0.2-0.1-0.4-0.2c-0.2,0-0.4,0-0.6,0h-1.6c-0.2,0-0.4,0-0.6,0
			c-0.2,0-0.3,0.1-0.4,0.2c-0.1,0.1-0.1,0.2-0.2,0.3c0,0.1,0,0.3,0,0.5v1.7h2.8c0.3,0,0.5,0,0.6,0s0.3-0.1,0.4-0.2
			c0.1-0.1,0.2-0.2,0.2-0.3c0-0.1,0.1-0.3,0.1-0.6V486.8z"/>
		<path class="st0" d="M431.2,489.8c-0.5,0-0.9,0-1.2-0.1c-0.3-0.1-0.6-0.2-0.8-0.4c-0.2-0.2-0.3-0.4-0.4-0.7
			c-0.1-0.3-0.1-0.6-0.1-1.1v-0.7c0-0.4,0-0.8,0.1-1.1c0.1-0.3,0.2-0.5,0.4-0.7c0.2-0.2,0.5-0.3,0.8-0.4c0.3-0.1,0.7-0.1,1.2-0.1
			h1.8c0.5,0,0.9,0,1.2,0.1c0.3,0.1,0.6,0.2,0.8,0.4c0.2,0.2,0.3,0.4,0.4,0.7c0.1,0.3,0.1,0.7,0.1,1.1v0.7c0,0.4,0,0.8-0.1,1.1
			c-0.1,0.3-0.2,0.5-0.4,0.7s-0.5,0.3-0.8,0.4c-0.3,0.1-0.7,0.1-1.2,0.1H431.2z M434.1,486.8c0-0.2,0-0.4-0.1-0.5
			c0-0.1-0.1-0.3-0.2-0.3c-0.1-0.1-0.2-0.1-0.4-0.2c-0.2,0-0.4,0-0.6,0h-1.4c-0.3,0-0.5,0-0.6,0c-0.2,0-0.3,0.1-0.4,0.2
			c-0.1,0.1-0.2,0.2-0.2,0.3c0,0.1-0.1,0.3-0.1,0.5v0.6c0,0.2,0,0.4,0.1,0.5c0,0.1,0.1,0.3,0.2,0.3c0.1,0.1,0.2,0.1,0.4,0.2
			c0.2,0,0.4,0.1,0.6,0.1h1.4c0.3,0,0.5,0,0.6-0.1c0.2,0,0.3-0.1,0.4-0.2c0.1-0.1,0.2-0.2,0.2-0.3c0-0.1,0.1-0.3,0.1-0.5V486.8z"/>
		<path class="st0" d="M436.6,489.8v-7h1.5v7H436.6z"/>
		<path class="st0" d="M441.8,489.8c-0.5,0-0.9,0-1.2-0.1c-0.3-0.1-0.6-0.2-0.8-0.4c-0.2-0.2-0.3-0.4-0.4-0.7
			c-0.1-0.3-0.1-0.6-0.1-1.1v-0.7c0-0.4,0-0.8,0.1-1.1c0.1-0.3,0.2-0.5,0.4-0.7c0.2-0.2,0.5-0.3,0.8-0.4c0.3-0.1,0.7-0.1,1.2-0.1
			h1.8c0.5,0,0.9,0,1.2,0.1c0.3,0.1,0.6,0.2,0.8,0.4c0.2,0.2,0.3,0.4,0.4,0.7c0.1,0.3,0.1,0.7,0.1,1.1v0.7c0,0.4,0,0.8-0.1,1.1
			c-0.1,0.3-0.2,0.5-0.4,0.7c-0.2,0.2-0.5,0.3-0.8,0.4c-0.3,0.1-0.7,0.1-1.2,0.1H441.8z M444.7,486.8c0-0.2,0-0.4-0.1-0.5
			c0-0.1-0.1-0.3-0.2-0.3c-0.1-0.1-0.2-0.1-0.4-0.2c-0.2,0-0.4,0-0.6,0H442c-0.3,0-0.5,0-0.6,0c-0.2,0-0.3,0.1-0.4,0.2
			c-0.1,0.1-0.2,0.2-0.2,0.3c0,0.1-0.1,0.3-0.1,0.5v0.6c0,0.2,0,0.4,0.1,0.5c0,0.1,0.1,0.3,0.2,0.3c0.1,0.1,0.2,0.1,0.4,0.2
			c0.2,0,0.4,0.1,0.6,0.1h1.4c0.3,0,0.5,0,0.6-0.1c0.2,0,0.3-0.1,0.4-0.2c0.1-0.1,0.2-0.2,0.2-0.3c0-0.1,0.1-0.3,0.1-0.5V486.8z"/>
	</g>
</g>
<polyline class="st10" points="325.9,515.3 325.9,522.3 446.9,522.3 446.9,514.2 "/>
<g>
	<path class="st5" d="M379.5,529.5c0,0.3-0.1,0.6-0.2,0.8c-0.1,0.3-0.3,0.5-0.5,0.7c-0.2,0.2-0.4,0.3-0.7,0.5
		c-0.3,0.1-0.6,0.2-0.9,0.2c-0.3,0-0.6-0.1-0.9-0.2c-0.3-0.1-0.5-0.3-0.7-0.5c-0.2-0.2-0.4-0.5-0.5-0.8s-0.2-0.7-0.2-1.1
		c0-0.6,0.1-1.1,0.2-1.6c0.1-0.5,0.3-0.8,0.5-1.1c0.2-0.3,0.5-0.5,0.7-0.7c0.3-0.2,0.6-0.2,1-0.2c0.4,0,0.8,0.1,1.1,0.3
		c0.3,0.2,0.6,0.5,0.8,0.8l-0.5,0.5c-0.1-0.3-0.3-0.5-0.6-0.7c-0.3-0.2-0.5-0.2-0.8-0.2c-0.2,0-0.5,0.1-0.6,0.2
		c-0.2,0.1-0.4,0.3-0.5,0.5c-0.1,0.2-0.2,0.5-0.3,0.8s-0.1,0.6-0.1,1c0.1-0.3,0.3-0.5,0.6-0.7c0.3-0.2,0.6-0.3,1-0.3
		c0.3,0,0.6,0.1,0.8,0.2c0.3,0.1,0.5,0.3,0.7,0.4c0.2,0.2,0.3,0.4,0.5,0.7C379.4,529,379.5,529.2,379.5,529.5z M377.2,531
		c0.2,0,0.4,0,0.6-0.1c0.2-0.1,0.3-0.2,0.5-0.3c0.1-0.1,0.2-0.3,0.3-0.5c0.1-0.2,0.1-0.4,0.1-0.6c0-0.2,0-0.4-0.1-0.6
		c-0.1-0.2-0.2-0.3-0.3-0.5c-0.1-0.1-0.3-0.2-0.5-0.3c-0.2-0.1-0.4-0.1-0.6-0.1c-0.2,0-0.4,0-0.6,0.1c-0.2,0.1-0.3,0.2-0.5,0.3
		s-0.2,0.3-0.3,0.5c-0.1,0.2-0.1,0.4-0.1,0.6c0,0.2,0,0.4,0.1,0.6c0.1,0.2,0.2,0.3,0.3,0.5c0.1,0.1,0.3,0.2,0.5,0.3
		C376.8,531,377,531,377.2,531z"/>
	<path class="st5" d="M382.3,528.8c0.3,0,0.6,0,0.8,0.1c0.2,0.1,0.5,0.2,0.6,0.4c0.2,0.2,0.3,0.4,0.4,0.6c0.1,0.2,0.2,0.5,0.2,0.8
		c0,0.3-0.1,0.6-0.2,0.8c-0.1,0.3-0.3,0.5-0.5,0.7c-0.2,0.2-0.4,0.3-0.7,0.4s-0.6,0.1-0.9,0.1c-0.4,0-0.8-0.1-1.2-0.3
		c-0.4-0.2-0.6-0.5-0.8-0.8l0.5-0.4c0.2,0.3,0.4,0.5,0.7,0.6s0.6,0.2,0.9,0.2c0.2,0,0.4,0,0.6-0.1c0.2-0.1,0.3-0.2,0.4-0.3
		c0.1-0.1,0.2-0.3,0.3-0.4c0.1-0.2,0.1-0.4,0.1-0.6c0-0.2,0-0.4-0.1-0.5c-0.1-0.2-0.2-0.3-0.3-0.4c-0.1-0.1-0.3-0.2-0.4-0.3
		c-0.2-0.1-0.3-0.1-0.5-0.1c-0.3,0-0.5,0.1-0.7,0.2c-0.2,0.1-0.4,0.3-0.5,0.5h-0.7c0,0,0-0.1,0-0.2c0-0.1,0.1-0.3,0.1-0.4
		c0-0.2,0.1-0.4,0.1-0.6c0-0.2,0.1-0.4,0.1-0.6c0.1-0.5,0.2-1.1,0.3-1.7h3v0.7h-2.5l-0.4,2c0.1-0.1,0.3-0.2,0.5-0.3
		C381.8,528.9,382.1,528.8,382.3,528.8z"/>
	<path class="st5" d="M392.2,531.6h-0.8V529c0-0.5-0.1-0.8-0.2-1.1c-0.2-0.2-0.4-0.3-0.7-0.3c-0.3,0-0.6,0.1-0.8,0.3
		c-0.2,0.2-0.4,0.5-0.5,0.9v2.8h-0.8V529c0-0.5-0.1-0.8-0.2-1.1c-0.2-0.2-0.4-0.3-0.7-0.3c-0.3,0-0.6,0.1-0.8,0.3
		c-0.3,0.2-0.4,0.5-0.5,0.9v2.8h-0.8V527h0.7v1c0.2-0.3,0.4-0.6,0.7-0.8c0.3-0.2,0.6-0.3,1-0.3c0.4,0,0.7,0.1,0.9,0.3
		c0.2,0.2,0.4,0.5,0.4,0.8c0.4-0.7,1-1.1,1.7-1.1c0.3,0,0.5,0,0.7,0.1c0.2,0.1,0.3,0.2,0.4,0.4c0.1,0.2,0.2,0.4,0.2,0.6
		c0,0.2,0.1,0.5,0.1,0.8V531.6z"/>
	<path class="st5" d="M400.3,531.6h-0.8V529c0-0.5-0.1-0.8-0.2-1.1c-0.2-0.2-0.4-0.3-0.7-0.3c-0.3,0-0.6,0.1-0.8,0.3
		c-0.2,0.2-0.4,0.5-0.5,0.9v2.8h-0.8V529c0-0.5-0.1-0.8-0.2-1.1c-0.2-0.2-0.4-0.3-0.7-0.3c-0.3,0-0.6,0.1-0.8,0.3
		c-0.3,0.2-0.4,0.5-0.5,0.9v2.8h-0.8V527h0.7v1c0.2-0.3,0.4-0.6,0.7-0.8c0.3-0.2,0.6-0.3,1-0.3c0.4,0,0.7,0.1,0.9,0.3
		c0.2,0.2,0.4,0.5,0.4,0.8c0.4-0.7,1-1.1,1.7-1.1c0.3,0,0.5,0,0.7,0.1c0.2,0.1,0.3,0.2,0.4,0.4c0.1,0.2,0.2,0.4,0.2,0.6
		c0,0.2,0.1,0.5,0.1,0.8V531.6z"/>
</g>
<g>
	<g>
		<path class="st0" d="M424.3,157.3c0-3.5-2.8-6.3-6.3-6.3c-0.2,0-0.3,0-0.5,0c-0.5,0-1.1,0.1-1.7,0.4c-1.7,0.6-5.9,2.6-9.6,9.4
			c-0.1-0.4-0.3-1.1-0.3-1.9c-1.1,1.8-1,6.6-1,6.6l1-2.1c2.2-4.7,4.7-7.5,6.8-9.1c-0.5,0.8-0.7,1.8-0.8,2.8
			c-2.4,2.4-4.5,5.8-6.3,10.4l-0.4-1.2c-0.3,1-0.7,4.2-0.6,5.1c1.1-0.7,3.1-3.8,3.3-4c-0.7,0.2-1.1,0.4-1.4,0.5
			c1.8-4.7,3.8-7.7,5.6-9.6c0.1,0.7,0.3,1.3,0.6,1.9c-1,1.1-2.1,2.7-3.2,4.7l-1.1,2.2c0,0,3.5-2.5,4.5-3.7c-0.9,0.3-1.6,0.6-2,0.6
			c0.8-1.3,1.5-2.3,2.2-3.1c1.1,1.6,3,2.7,5.2,2.7c1.6,0,3-0.6,4.1-1.5c0.1-0.1,0.1-0.1,0.1-0.1
			C423.5,160.8,424.3,159.1,424.3,157.3z M421.8,161.2c-1.1,0-4.1-0.3-6.3-2.7c1-0.7,1.8-0.9,2.2-1c1.5,1.8,3.9,2.1,5.2,2.1
			c0,0,0.1,0,0.1,0C422.7,160.2,422.3,160.7,421.8,161.2z M420.3,158.2c-0.6-0.2-1.3-0.6-1.8-1.2c0.6-1.2,0.7-2.3,0.4-5.1
			c0.8,0.1,1.6,0.4,2.2,0.9C421.1,153.7,421.3,156.6,420.3,158.2z M423.5,157.3c0,0.5-0.1,0.9-0.2,1.4c-0.4,0-1.3,0-2.2-0.2
			c0.8-1.5,0.9-3.6,0.9-4.9C422.9,154.5,423.5,155.8,423.5,157.3z M417.6,151.9c0.2,0,0.3,0,0.4,0l0,0l0,0c0.1,0.6,0.1,1.2,0.2,1.7
			c-0.7,0.1-2.3,0.4-4.3,1.7c-0.4,0.2-0.7,0.5-1.1,0.8C413.3,153.8,415.2,152.1,417.6,151.9z M412.7,157.4c0.6-0.5,1.1-1,1.6-1.3
			c1.8-1.3,3.3-1.5,3.9-1.6c0,1-0.2,1.6-0.5,2.2c-0.7,0.1-2.4,0.5-4.6,2.8C412.8,158.8,412.7,158.1,412.7,157.4z M413.5,160.2
			c0.5-0.5,0.9-0.9,1.3-1.2c2,2.2,4.4,2.8,6,3c-0.8,0.5-1.7,0.7-2.7,0.7C416.2,162.7,414.5,161.7,413.5,160.2z"/>
	</g>
	<path class="st0" d="M415.4,170.2v-4.5H413v-1.1h5.9v1.1h-2.3v4.5H415.4z"/>
	<path class="st0" d="M424,170.2l-3.2-2v2h-1.2v-5.5h4.3c0.4,0,0.7,0,1,0.1s0.5,0.1,0.7,0.3c0.2,0.1,0.3,0.3,0.4,0.5
		c0.1,0.2,0.1,0.5,0.1,0.8v0.4c0,0.3,0,0.6-0.1,0.8c-0.1,0.2-0.2,0.4-0.4,0.5c-0.2,0.1-0.4,0.2-0.7,0.3c-0.3,0-0.6,0.1-1,0.1h-1
		l3.2,1.9H424z M424.8,166.4c0-0.1,0-0.3,0-0.4c0-0.1-0.1-0.2-0.2-0.2s-0.2-0.1-0.3-0.1s-0.3,0-0.5,0h-3v1.7h3c0.2,0,0.4,0,0.5,0
		c0.1,0,0.2,0,0.3-0.1s0.1-0.1,0.2-0.2c0-0.1,0-0.2,0-0.4V166.4z"/>
	<path class="st0" d="M426.9,170.2v-5.5h1.2v5.5H426.9z"/>
	<path class="st0" d="M431.1,170.2v-4.5h-2.3v-1.1h5.9v1.1h-2.3v4.5H431.1z"/>
	<path class="st0" d="M437.4,170.2c-0.4,0-0.7,0-1-0.1c-0.3-0.1-0.5-0.2-0.6-0.3c-0.2-0.1-0.3-0.3-0.3-0.6c-0.1-0.2-0.1-0.5-0.1-0.9
		v-1.7c0-0.3,0-0.6,0.1-0.9c0.1-0.2,0.2-0.4,0.3-0.6c0.2-0.1,0.4-0.3,0.6-0.3c0.3-0.1,0.6-0.1,1-0.1h2.1c0.4,0,0.8,0,1,0.1
		c0.3,0.1,0.5,0.2,0.6,0.3c0.2,0.1,0.3,0.3,0.3,0.6c0.1,0.2,0.1,0.5,0.1,0.9v1.7c0,0.4,0,0.6-0.1,0.9c-0.1,0.2-0.2,0.4-0.3,0.6
		c-0.2,0.1-0.4,0.3-0.6,0.3c-0.3,0.1-0.6,0.1-1,0.1H437.4z M440.4,166.6c0-0.2,0-0.3,0-0.4c0-0.1-0.1-0.2-0.1-0.3s-0.2-0.1-0.3-0.1
		c-0.1,0-0.3,0-0.5,0h-2c-0.2,0-0.4,0-0.5,0c-0.1,0-0.2,0.1-0.3,0.1s-0.1,0.2-0.1,0.3c0,0.1,0,0.3,0,0.4v1.6c0,0.2,0,0.3,0,0.4
		c0,0.1,0.1,0.2,0.1,0.3c0.1,0.1,0.2,0.1,0.3,0.1c0.1,0,0.3,0,0.5,0h2c0.2,0,0.3,0,0.5,0c0.1,0,0.2-0.1,0.3-0.1
		c0.1-0.1,0.1-0.2,0.1-0.3s0-0.3,0-0.4V166.6z"/>
	<path class="st0" d="M448.4,170.3c-0.1,0-0.3,0-0.4-0.1c-0.1,0-0.2-0.1-0.3-0.2l-4-3.8v3.9h-1.1v-5.1c0-0.2,0.1-0.3,0.2-0.4
		c0.1-0.1,0.3-0.1,0.5-0.1c0.1,0,0.3,0,0.3,0.1c0.1,0,0.2,0.1,0.2,0.1l4.1,3.9v-4h1.2v5.1c0,0.2-0.1,0.3-0.2,0.4
		C448.7,170.3,448.6,170.3,448.4,170.3z"/>
	<g>
		<path class="st0" d="M428.9,163.6l-1.4-1.2v1.2H427v-2.5h0.5v1.2l1.4-1.2h0.7l-1.4,1.2l1.5,1.3H428.9z"/>
		<path class="st0" d="M430.4,163.6c-0.1,0-0.3,0-0.4,0s-0.2-0.1-0.2-0.1c-0.1,0-0.1-0.1-0.1-0.2c0-0.1,0-0.1,0-0.2v-0.2
			c0-0.1,0-0.2,0-0.2c0-0.1,0.1-0.1,0.1-0.2c0.1,0,0.1-0.1,0.2-0.1c0.1,0,0.2,0,0.3,0h1.5v0c0-0.1,0-0.2-0.1-0.3
			c-0.1,0-0.1-0.1-0.3-0.1H431v-0.4h0.5c0.2,0,0.3,0,0.4,0s0.2,0.1,0.3,0.1c0.1,0.1,0.1,0.1,0.2,0.2c0,0.1,0,0.2,0,0.3v0.5
			c0,0.1,0,0.3,0,0.4c0,0.1-0.1,0.2-0.1,0.2c-0.1,0.1-0.2,0.1-0.3,0.1c-0.1,0-0.3,0-0.4,0H430.4z M431.9,162.7h-1.4
			c-0.1,0-0.1,0-0.1,0c0,0-0.1,0.1-0.1,0.2v0.1c0,0.1,0,0.1,0.1,0.1c0,0,0.1,0,0.2,0h1c0.1,0,0.1,0,0.2,0c0,0,0.1,0,0.1-0.1
			c0,0,0.1-0.1,0.1-0.1c0,0,0-0.1,0-0.2V162.7z"/>
		<path class="st0" d="M432.4,164.2v-0.5h0.1c0.1,0,0.1,0,0.2,0c0,0,0.1,0,0.1,0c0,0,0-0.1,0.1-0.1c0,0,0-0.1,0-0.2v-1.7h0.5v1.8
			c0,0.3-0.1,0.5-0.2,0.6c-0.1,0.1-0.4,0.2-0.7,0.2H432.4z M433,161.5c-0.1,0-0.1,0-0.1,0c0,0,0-0.1,0-0.1v-0.2c0-0.1,0-0.1,0-0.1
			c0,0,0.1,0,0.1,0h0.2c0.1,0,0.1,0,0.1,0c0,0,0,0.1,0,0.1v0.2c0,0.1,0,0.1,0,0.1c0,0-0.1,0-0.1,0H433z"/>
		<path class="st0" d="M434.5,163.6c-0.1,0-0.3,0-0.4,0s-0.2-0.1-0.2-0.1c-0.1,0-0.1-0.1-0.1-0.2c0-0.1,0-0.1,0-0.2v-0.2
			c0-0.1,0-0.2,0-0.2c0-0.1,0.1-0.1,0.1-0.2c0.1,0,0.1-0.1,0.2-0.1c0.1,0,0.2,0,0.3,0h1.5v0c0-0.1,0-0.2-0.1-0.3
			c-0.1,0-0.1-0.1-0.3-0.1h-0.5v-0.4h0.5c0.2,0,0.3,0,0.4,0s0.2,0.1,0.3,0.1c0.1,0.1,0.1,0.1,0.2,0.2c0,0.1,0,0.2,0,0.3v0.5
			c0,0.1,0,0.3,0,0.4c0,0.1-0.1,0.2-0.1,0.2c-0.1,0.1-0.2,0.1-0.3,0.1c-0.1,0-0.3,0-0.4,0H434.5z M435.9,162.7h-1.4
			c-0.1,0-0.1,0-0.1,0c0,0-0.1,0.1-0.1,0.2v0.1c0,0.1,0,0.1,0.1,0.1c0,0,0.1,0,0.2,0h1c0.1,0,0.1,0,0.2,0c0,0,0.1,0,0.1-0.1
			c0,0,0.1-0.1,0.1-0.1c0,0,0-0.1,0-0.2V162.7z"/>
		<path class="st0" d="M438.6,163.6l-1.1-0.9v0.9h-0.5V161h0.5v1.6l1.1-0.9h0.7l-1.2,0.9l1.3,1H438.6z"/>
		<path class="st0" d="M441.2,161.6c0.2,0,0.3,0,0.5,0c0.1,0,0.2,0.1,0.3,0.1c0.1,0.1,0.1,0.2,0.2,0.3c0,0.1,0,0.2,0,0.4v0.3
			c0,0.2,0,0.3,0,0.4c0,0.1-0.1,0.2-0.2,0.3c-0.1,0.1-0.2,0.1-0.3,0.1c-0.1,0-0.3,0-0.5,0h-1.1v0.6h-0.5v-1.7c0-0.2,0-0.3,0-0.4
			c0-0.1,0.1-0.2,0.2-0.3c0.1-0.1,0.2-0.1,0.3-0.1c0.1,0,0.3,0,0.5,0H441.2z M441.6,162.5c0-0.1,0-0.2,0-0.2c0-0.1,0-0.1-0.1-0.1
			c0,0-0.1,0-0.1-0.1c-0.1,0-0.1,0-0.2,0h-0.6c-0.1,0-0.2,0-0.2,0c-0.1,0-0.1,0-0.1,0.1c0,0-0.1,0.1-0.1,0.1c0,0.1,0,0.1,0,0.2v0.6
			h1c0.1,0,0.2,0,0.2,0c0.1,0,0.1,0,0.1-0.1c0,0,0.1-0.1,0.1-0.1c0-0.1,0-0.1,0-0.2V162.5z"/>
		<path class="st0" d="M443.5,163.6c-0.2,0-0.3,0-0.5,0c-0.1,0-0.2-0.1-0.3-0.1c-0.1-0.1-0.1-0.2-0.2-0.3c0-0.1,0-0.2,0-0.4v-0.3
			c0-0.2,0-0.3,0-0.4c0-0.1,0.1-0.2,0.2-0.3c0.1-0.1,0.2-0.1,0.3-0.1c0.1,0,0.3,0,0.5,0h0.7c0.2,0,0.3,0,0.5,0
			c0.1,0,0.2,0.1,0.3,0.1c0.1,0.1,0.1,0.2,0.2,0.3c0,0.1,0,0.2,0,0.4v0.3c0,0.2,0,0.3,0,0.4c0,0.1-0.1,0.2-0.2,0.3
			c-0.1,0.1-0.2,0.1-0.3,0.1c-0.1,0-0.3,0-0.5,0H443.5z M444.5,162.5c0-0.1,0-0.2,0-0.2c0-0.1,0-0.1-0.1-0.1c0,0-0.1-0.1-0.1-0.1
			c-0.1,0-0.1,0-0.2,0h-0.5c-0.1,0-0.2,0-0.2,0c-0.1,0-0.1,0-0.1,0.1c0,0-0.1,0.1-0.1,0.1c0,0.1,0,0.1,0,0.2v0.2c0,0.1,0,0.1,0,0.2
			c0,0.1,0,0.1,0.1,0.1c0,0,0.1,0.1,0.1,0.1c0.1,0,0.1,0,0.2,0h0.5c0.1,0,0.2,0,0.2,0c0.1,0,0.1,0,0.1-0.1c0,0,0.1-0.1,0.1-0.1
			c0-0.1,0-0.1,0-0.2V162.5z"/>
		<path class="st0" d="M445.5,163.6V161h0.6v2.6H445.5z"/>
		<path class="st0" d="M447.4,163.6c-0.2,0-0.3,0-0.5,0c-0.1,0-0.2-0.1-0.3-0.1c-0.1-0.1-0.1-0.2-0.2-0.3c0-0.1,0-0.2,0-0.4v-0.3
			c0-0.2,0-0.3,0-0.4c0-0.1,0.1-0.2,0.2-0.3c0.1-0.1,0.2-0.1,0.3-0.1c0.1,0,0.3,0,0.5,0h0.7c0.2,0,0.3,0,0.5,0
			c0.1,0,0.2,0.1,0.3,0.1c0.1,0.1,0.1,0.2,0.2,0.3c0,0.1,0,0.2,0,0.4v0.3c0,0.2,0,0.3,0,0.4c0,0.1-0.1,0.2-0.2,0.3
			c-0.1,0.1-0.2,0.1-0.3,0.1c-0.1,0-0.3,0-0.5,0H447.4z M448.5,162.5c0-0.1,0-0.2,0-0.2c0-0.1,0-0.1-0.1-0.1c0,0-0.1-0.1-0.1-0.1
			c-0.1,0-0.1,0-0.2,0h-0.5c-0.1,0-0.2,0-0.2,0c-0.1,0-0.1,0-0.1,0.1c0,0-0.1,0.1-0.1,0.1c0,0.1,0,0.1,0,0.2v0.2c0,0.1,0,0.1,0,0.2
			c0,0.1,0,0.1,0.1,0.1c0,0,0.1,0.1,0.1,0.1c0.1,0,0.1,0,0.2,0h0.5c0.1,0,0.2,0,0.2,0c0.1,0,0.1,0,0.1-0.1c0,0,0.1-0.1,0.1-0.1
			c0-0.1,0-0.1,0-0.2V162.5z"/>
	</g>
</g>
</svg>
