<?xml version="1.0" standalone="no"?>
<!DOCTYPE svg PUBLIC "-//W3C//DTD SVG 20010904//EN"
 "http://www.w3.org/TR/2001/REC-SVG-20010904/DTD/svg10.dtd">
<svg version="1.0" xmlns="http://www.w3.org/2000/svg"
 width="554.000000pt" height="554.000000pt" viewBox="0 0 554.000000 554.000000"
 preserveAspectRatio="xMidYMid meet">
<metadata>
Created by potrace 1.11, written by Peter Selinger 2001-2013
</metadata>
<g transform="translate(0.000000,554.000000) scale(0.100000,-0.100000)"
fill="#000000" stroke="none">
<path d="M3758 5535 c-2 -1 -50 -5 -108 -9 -99 -5 -135 -10 -186 -21 -12 -3
-38 -7 -59 -11 -70 -11 -229 -60 -350 -109 -555 -221 -1106 -637 -1629 -1229
-54 -61 -234 -286 -313 -391 -168 -224 -358 -514 -503 -767 l-68 -117 -16 52
c-9 29 -18 61 -20 72 -3 11 -9 40 -15 65 -18 82 -21 104 -28 214 l-6 108 -24
-38 c-84 -140 -180 -553 -218 -939 -3 -33 -8 -73 -10 -90 -2 -16 -7 -75 -10
-130 -4 -55 -9 -116 -11 -135 -2 -19 -6 -132 -9 -250 l-6 -215 46 95 c26 52
58 120 72 150 14 30 52 111 84 179 33 68 59 125 59 128 0 6 160 325 213 423
25 47 56 105 69 130 13 25 35 63 49 85 14 22 28 48 32 57 21 57 339 550 470
728 69 93 287 369 317 401 8 8 48 53 89 100 111 125 347 357 479 469 64 55
118 98 119 96 2 -2 -9 -28 -25 -57 -84 -158 -149 -392 -168 -598 l-7 -75 -88
-90 c-525 -541 -1005 -1292 -1401 -2191 -22 -49 -46 -103 -53 -120 -20 -44
-108 -259 -141 -343 -19 -50 -30 -68 -36 -58 -4 7 -26 65 -49 127 -23 63 -46
125 -51 139 l-10 25 -9 -23 c-8 -21 -62 -302 -75 -387 -3 -22 -12 -80 -19
-130 -8 -49 -16 -112 -20 -140 -3 -27 -10 -79 -15 -115 -5 -36 -12 -101 -16
-145 -3 -44 -8 -89 -10 -100 -2 -11 -7 -96 -11 -189 -7 -189 -12 -180 67 -117
82 65 219 210 320 341 19 25 37 47 40 50 3 3 23 30 45 60 22 30 42 57 45 60
35 30 373 534 361 538 -10 3 -152 -43 -261 -85 -85 -33 -121 -43 -117 -35 20
44 37 84 105 252 321 787 733 1516 1156 2045 44 55 85 105 90 111 6 6 44 50
85 98 40 47 77 86 82 86 5 0 9 -10 10 -22 2 -63 54 -249 103 -369 l44 -110
-122 -152 c-188 -235 -354 -476 -529 -769 -150 -251 -192 -329 -328 -617 -30
-63 -79 -167 -110 -230 -31 -64 -55 -118 -53 -120 9 -11 673 493 829 630 199
174 375 343 375 361 0 4 -37 -6 -82 -23 -151 -57 -427 -144 -433 -137 -2 2 21
42 51 88 29 47 57 92 61 100 9 20 210 318 237 351 12 15 30 39 41 55 37 52
190 243 195 244 3 0 22 -25 43 -56 93 -133 293 -316 463 -422 191 -119 458
-216 654 -237 30 -3 75 -8 100 -11 56 -7 265 -7 305 0 17 2 55 7 85 11 30 4
84 14 120 22 36 8 72 16 80 18 8 2 42 12 75 23 439 146 786 440 995 844 69
133 140 338 165 478 20 106 29 423 15 505 -4 28 -11 70 -14 95 -3 25 -17 88
-31 140 -163 611 -644 1080 -1255 1224 -125 30 -156 34 -280 41 -52 4 -103 8
-112 9 -9 2 -18 3 -20 1z m-12 -257 c11 -17 10 -9 29 -183 2 -16 6 -68 10
-115 3 -47 8 -99 10 -116 3 -20 0 -31 -8 -31 -29 -1 -118 -15 -201 -34 -227
-49 -472 -144 -701 -272 -166 -93 -428 -273 -518 -356 l-29 -26 7 30 c17 72
71 217 112 300 112 226 285 425 493 566 171 117 406 210 593 236 23 3 43 6 45
8 1 1 36 3 77 4 50 1 76 -2 81 -11z m389 -29 c137 -33 294 -100 410 -174 l51
-32 3 -84 c24 -551 -43 -1020 -188 -1307 -23 -45 -43 -82 -46 -82 -3 0 -13 4
-23 9 -9 6 -48 24 -87 42 -138 64 -365 231 -365 270 0 5 18 52 41 104 45 106
84 253 95 354 4 36 8 80 10 96 10 83 4 354 -12 515 -3 36 -8 83 -10 105 -10
105 -16 162 -20 188 -5 33 -12 33 141 -4z m860 -609 c161 -240 245 -506 249
-795 1 -55 -2 -127 -6 -160 -4 -33 -10 -76 -12 -95 -3 -19 -10 -59 -16 -87
l-12 -53 -66 -1 c-138 -1 -204 2 -318 15 -92 11 -125 17 -186 32 -5 1 -13 2
-18 3 -6 0 3 27 18 59 36 71 84 202 112 304 22 82 24 90 40 180 6 32 13 70 15
85 3 16 8 48 11 73 3 25 7 56 9 70 12 80 24 289 25 460 l1 105 45 -50 c24 -27
74 -93 109 -145z m-1191 -107 c-11 -190 -44 -344 -103 -473 l-20 -46 -90 -17
c-82 -15 -185 -45 -236 -67 -141 -63 -212 -98 -293 -147 -98 -59 -292 -196
-353 -250 -19 -17 -61 -54 -94 -83 -33 -30 -62 -56 -65 -59 -3 -3 -35 -34 -71
-69 l-66 -63 -31 93 c-36 108 -69 272 -76 375 l-5 72 79 71 c180 164 434 347
635 458 105 58 316 152 395 176 30 10 62 20 70 22 8 3 16 5 17 6 1 0 24 7 50
15 54 17 245 52 254 47 4 -2 5 -30 3 -61z m-81 -819 c284 -308 770 -493 1320
-503 l68 -1 -41 -77 c-51 -98 -150 -237 -221 -310 l-54 -56 -105 7 c-58 4
-116 9 -130 10 -71 10 -118 17 -145 22 -498 91 -932 306 -1262 625 -40 39 -73
74 -73 77 0 10 160 104 257 151 71 35 219 91 278 104 45 11 58 5 108 -49z
m-753 -437 c377 -371 902 -632 1435 -712 22 -3 53 -8 69 -12 l30 -5 -35 -19
c-222 -118 -474 -179 -718 -174 -138 3 -184 9 -318 40 -344 81 -658 294 -861
583 l-41 59 127 124 c124 121 211 199 222 199 3 0 44 -37 90 -83z"/>
</g>
</svg>
